{
  "asset": {
    "generator": "Khronos glTF Blender I/O v3.6.27",
    "version": "2.0"
  },
  "scene": 0,
  "scenes": [
    {
      "name": "Scene",
      "nodes": [2]
    }
  ],
  "nodes": [
    {
      "mesh": 0,
      "name": "bell"
    },
    {
      "mesh": 1,
      "name": "body.002"
    },
    {
      "children": [0, 1],
      "name": "cat1"
    }
  ],
  "materials": [
    {
      "doubleSided": true,
      "name": "Material0-material.009",
      "pbrMetallicRoughness": {
        "baseColorTexture": {
          "index": 0
        },
        "metallicFactor": 0,
        "roughnessFactor": 0.8211145401000977
      }
    },
    {
      "doubleSided": true,
      "name": "Material1-material.001",
      "pbrMetallicRoughness": {
        "baseColorTexture": {
          "index": 1
        },
        "metallicFactor": 0,
        "roughnessFactor": 0.8211145401000977
      }
    }
  ],
  "meshes": [
    {
      "name": "cat.001_Material0-material.009_0",
      "primitives": [
        {
          "attributes": {
            "POSITION": 0,
            "NORMAL": 1,
            "TEXCOORD_0": 2
          },
          "indices": 3,
          "material": 0
        }
      ]
    },
    {
      "name": "cat.001_Material1-material.008_0.001",
      "primitives": [
        {
          "attributes": {
            "POSITION": 4,
            "NORMAL": 5,
            "TEXCOORD_0": 6
          },
          "indices": 7,
          "material": 1
        }
      ]
    }
  ],
  "textures": [
    {
      "sampler": 0,
      "source": 0
    },
    {
      "sampler": 0,
      "source": 1
    }
  ],
  "images": [
    {
      "mimeType": "image/png",
      "name": "Material0-material.009_baseColor",
      "uri": "texs/Material0-material_009_baseColor.png"
    },
    {
      "mimeType": "image/png",
      "name": "Material1-material.008_baseColor",
      "uri": "texs/Material1-material_008_baseColor.png"
    }
  ],
  "accessors": [
    {
      "bufferView": 0,
      "componentType": 5126,
      "count": 2088,
      "max": [0.0282646045088768, 0.6384942531585693, 0.7385393977165222],
      "min": [-0.18971288204193115, 0.402586430311203, 0.5598069429397583],
      "type": "VEC3"
    },
    {
      "bufferView": 1,
      "componentType": 5126,
      "count": 2088,
      "type": "VEC3"
    },
    {
      "bufferView": 2,
      "componentType": 5126,
      "count": 2088,
      "type": "VEC2"
    },
    {
      "bufferView": 3,
      "componentType": 5123,
      "count": 10884,
      "type": "SCALAR"
    },
    {
      "bufferView": 4,
      "componentType": 5126,
      "count": 6130,
      "max": [0.5158214569091797, 1.0612423419952393, 0.7201483249664307],
      "min": [-0.5158214569091797, -1.0612423419952393, -0.738539457321167],
      "type": "VEC3"
    },
    {
      "bufferView": 5,
      "componentType": 5126,
      "count": 6130,
      "type": "VEC3"
    },
    {
      "bufferView": 6,
      "componentType": 5126,
      "count": 6130,
      "type": "VEC2"
    },
    {
      "bufferView": 7,
      "componentType": 5123,
      "count": 33432,
      "type": "SCALAR"
    }
  ],
  "bufferViews": [
    {
      "buffer": 0,
      "byteLength": 25056,
      "byteOffset": 0,
      "target": 34962
    },
    {
      "buffer": 0,
      "byteLength": 25056,
      "byteOffset": 25056,
      "target": 34962
    },
    {
      "buffer": 0,
      "byteLength": 16704,
      "byteOffset": 50112,
      "target": 34962
    },
    {
      "buffer": 0,
      "byteLength": 21768,
      "byteOffset": 66816,
      "target": 34963
    },
    {
      "buffer": 0,
      "byteLength": 73560,
      "byteOffset": 88584,
      "target": 34962
    },
    {
      "buffer": 0,
      "byteLength": 73560,
      "byteOffset": 162144,
      "target": 34962
    },
    {
      "buffer": 0,
      "byteLength": 49040,
      "byteOffset": 235704,
      "target": 34962
    },
    {
      "buffer": 0,
      "byteLength": 66864,
      "byteOffset": 284744,
      "target": 34963
    }
  ],
  "samplers": [
    {
      "magFilter": 9729,
      "minFilter": 9987
    }
  ],
  "buffers": [
    {
      "byteLength": 351608,
      "uri": "cat1.bin"
    }
  ]
}
