{
	"asset":{
		"generator":"Khronos glTF Blender I/O v3.6.27",
		"version":"2.0"
	},
	"scene":0,
	"scenes":[
		{
			"name":"Scene",
			"nodes":[
				0
			]
		}
	],
	"nodes":[
		{
			"mesh":0,
			"name":"plagueDoctorFaceMask"
		}
	],
	"materials":[
		{
			"name":"Masks1",
			"normalTexture":{
				"index":0
			},
			"pbrMetallicRoughness":{
				"baseColorTexture":{
					"index":1
				},
				"metallicRoughnessTexture":{
					"index":2
				}
			}
		}
	],
	"meshes":[
		{
			"name":"Object_4.001",
			"primitives":[
				{
					"attributes":{
						"POSITION":0,
						"NORMAL":1,
						"TEXCOORD_0":2
					},
					"indices":3,
					"material":0
				}
			]
		}
	],
	"textures":[
		{
			"sampler":0,
			"source":0
		},
		{
			"sampler":0,
			"source":1
		},
		{
			"sampler":0,
			"source":2
		}
	],
	"images":[
		{
			"mimeType":"image/png",
			"name":"Masks1_normal",
			"uri":"tex2/Masks1_normal.png"
		},
		{
			"mimeType":"image/png",
			"name":"Masks1_baseColor",
			"uri":"tex2/Masks1_baseColor.png"
		},
		{
			"mimeType":"image/png",
			"name":"Masks1_metallicRoughness",
			"uri":"tex2/Masks1_metallicRoughness.png"
		}
	],
	"accessors":[
		{
			"bufferView":0,
			"componentType":5126,
			"count":1742,
			"max":[
				0.34402546286582947,
				0.6400803327560425,
				0.4725264608860016
			],
			"min":[
				-0.3440253436565399,
				-0.4665415585041046,
				-0.6323705911636353
			],
			"type":"VEC3"
		},
		{
			"bufferView":1,
			"componentType":5126,
			"count":1742,
			"type":"VEC3"
		},
		{
			"bufferView":2,
			"componentType":5126,
			"count":1742,
			"type":"VEC2"
		},
		{
			"bufferView":3,
			"componentType":5123,
			"count":9123,
			"type":"SCALAR"
		}
	],
	"bufferViews":[
		{
			"buffer":0,
			"byteLength":20904,
			"byteOffset":0,
			"target":34962
		},
		{
			"buffer":0,
			"byteLength":20904,
			"byteOffset":20904,
			"target":34962
		},
		{
			"buffer":0,
			"byteLength":13936,
			"byteOffset":41808,
			"target":34962
		},
		{
			"buffer":0,
			"byteLength":18246,
			"byteOffset":55744,
			"target":34963
		}
	],
	"samplers":[
		{
			"magFilter":9729,
			"minFilter":9987
		}
	],
	"buffers":[
		{
			"byteLength":73992,
			"uri":"plagueDoctorMask.bin"
		}
	]
}
