{
	"asset":{
		"generator":"Khronos glTF Blender I/O v3.6.27",
		"version":"2.0"
	},
	"scene":0,
	"scenes":[
		{
			"name":"Scene",
			"nodes":[
				2
			]
		}
	],
	"nodes":[
		{
			"mesh":0,
			"name":"Object_47"
		},
		{
			"children":[
				0
			],
			"name":"bearded dragon_Rocky_(Pogona sp.)_67.21.obj.cleaner.materialmer"
		},
		{
			"children":[
				1
			],
			"name":"beardedDragon"
		}
	],
	"materials":[
		{
			"doubleSided":true,
			"name":"material_0.001",
			"pbrMetallicRoughness":{
				"baseColorTexture":{
					"index":0
				},
				"metallicFactor":0,
				"roughnessFactor":0.45227745175361633
			}
		}
	],
	"meshes":[
		{
			"name":"Object_45",
			"primitives":[
				{
					"attributes":{
						"POSITION":0,
						"NORMAL":1,
						"TEXCOORD_0":2
					},
					"indices":3,
					"material":0
				}
			]
		}
	],
	"textures":[
		{
			"sampler":0,
			"source":0
		}
	],
	"images":[
		{
			"mimeType":"image/jpeg",
			"name":"material_0_baseColor",
			"uri":"texs2/material_0_baseColor.jpg"
		}
	],
	"accessors":[
		{
			"bufferView":0,
			"componentType":5126,
			"count":1613763,
			"max":[
				0.4452185332775116,
				0.7715198993682861,
				1.6778132915496826
			],
			"min":[
				-0.6677531599998474,
				0.014312813989818096,
				-1.4025747776031494
			],
			"type":"VEC3"
		},
		{
			"bufferView":1,
			"componentType":5126,
			"count":1613763,
			"type":"VEC3"
		},
		{
			"bufferView":2,
			"componentType":5126,
			"count":1613763,
			"type":"VEC2"
		},
		{
			"bufferView":3,
			"componentType":5125,
			"count":1613877,
			"type":"SCALAR"
		}
	],
	"bufferViews":[
		{
			"buffer":0,
			"byteLength":19365156,
			"byteOffset":0,
			"target":34962
		},
		{
			"buffer":0,
			"byteLength":19365156,
			"byteOffset":19365156,
			"target":34962
		},
		{
			"buffer":0,
			"byteLength":12910104,
			"byteOffset":38730312,
			"target":34962
		},
		{
			"buffer":0,
			"byteLength":6455508,
			"byteOffset":51640416,
			"target":34963
		}
	],
	"samplers":[
		{
			"magFilter":9729,
			"minFilter":9987
		}
	],
	"buffers":[
		{
			"byteLength":58095924,
			"uri":"beardedDragon.bin"
		}
	]
}
