{
  "accessors": [
    {
      "bufferView": 2,
      "componentType": 5126,
      "count": 6145,
      "max": [
        10.34220027923584,
        12.390059471130371,
        178.33114624023438
      ],
      "min": [
        -10.317391395568848,
        -11.805414199829102,
        131.2209930419922
      ],
      "type": "VEC3"
    },
    {
      "bufferView": 2,
      "byteOffset": 73740,
      "componentType": 5126,
      "count": 6145,
      "max": [
        0.9997352957725525,
        0.9997563362121582,
        0.9992125034332275
      ],
      "min": [
        -0.9997168779373169,
        -0.9992344975471497,
        -0.9974161982536316
      ],
      "type": "VEC3"
    },
    {
      "bufferView": 3,
      "componentType": 5126,
      "count": 6145,
      "max": [
        0.99996018409729,
        0.9992784857749939,
        0.9999997615814209,
        1.0
      ],
      "min": [
        -0.9996942281723022,
        -0.9999178051948547,
        -0.999622642993927,
        -1.0
      ],
      "type": "VEC4"
    },
    {
      "bufferView": 1,
      "componentType": 5126,
      "count": 6145,
      "max": [
        0.9992300271987915,
        0.9988999962806702
      ],
      "min": [
        0.0004199999966658652,
        0.0036299999337643385
      ],
      "type": "VEC2"
    },
    {
      "bufferView": 0,
      "componentType": 5125,
      "count": 18630,
      "type": "SCALAR"
    },
    {
      "bufferView": 2,
      "byteOffset": 147480,
      "componentType": 5126,
      "count": 2091,
      "max": [
        10.090527534484863,
        10.838582992553711,
        165.44512939453125
      ],
      "min": [
        -10.129973411560059,
        -12.390059471130371,
        158.9444122314453
      ],
      "type": "VEC3"
    },
    {
      "bufferView": 2,
      "byteOffset": 172572,
      "componentType": 5126,
      "count": 2091,
      "max": [
        0.9978920221328735,
        0.9990694522857666,
        0.9982515573501587
      ],
      "min": [
        -0.9987545609474182,
        -0.9997465014457703,
        -0.9995365738868713
      ],
      "type": "VEC3"
    },
    {
      "bufferView": 3,
      "byteOffset": 98320,
      "componentType": 5126,
      "count": 2091,
      "max": [
        0.9996755123138428,
        0.9974956512451172,
        0.9977242946624756,
        1.0
      ],
      "min": [
        -0.9991557598114014,
        -0.9993520379066467,
        -0.9991037249565125,
        -1.0
      ],
      "type": "VEC4"
    },
    {
      "bufferView": 1,
      "byteOffset": 49160,
      "componentType": 5126,
      "count": 2091,
      "max": [
        0.9976999759674072,
        0.9963300228118896
      ],
      "min": [
        0.001820000004954636,
        0.002219999907538295
      ],
      "type": "VEC2"
    },
    {
      "bufferView": 0,
      "byteOffset": 74520,
      "componentType": 5125,
      "count": 7608,
      "type": "SCALAR"
    }
  ],
  "asset": {
    "extras": {
      "author": "Enaphets (https://sketchfab.com/enaphets)",
      "license": "CC-BY-4.0 (http://creativecommons.org/licenses/by/4.0/)",
      "source": "https://sketchfab.com/3d-models/aviator-helmet-with-goggles-1e32e931ffc34fd5a4e839cb6131347c",
      "title": "Aviator Helmet With Goggles"
    },
    "generator": "Sketchfab-12.67.0",
    "version": "2.0"
  },
  "bufferViews": [
    {
      "buffer": 0,
      "byteLength": 104952,
      "name": "floatBufferViews",
      "target": 34963
    },
    {
      "buffer": 0,
      "byteLength": 65888,
      "byteOffset": 104952,
      "byteStride": 8,
      "name": "floatBufferViews",
      "target": 34962
    },
    {
      "buffer": 0,
      "byteLength": 197664,
      "byteOffset": 170840,
      "byteStride": 12,
      "name": "floatBufferViews",
      "target": 34962
    },
    {
      "buffer": 0,
      "byteLength": 131776,
      "byteOffset": 368504,
      "byteStride": 16,
      "name": "floatBufferViews",
      "target": 34962
    }
  ],
  "buffers": [
    {
      "byteLength": 500280,
      "uri": "scene.bin"
    }
  ],
  "images": [
    {
      "uri": "textures/aviator_hlemet_baseColor.png"
    },
    {
      "uri": "textures/aviator_hlemet_normal.png"
    },
    {
      "uri": "textures/goggles_baseColor.png"
    },
    {
      "uri": "textures/goggles_metallicRoughness.png"
    },
    {
      "uri": "textures/goggles_normal.png"
    }
  ],
  "materials": [
    {
      "doubleSided": true,
      "emissiveTexture": {
        "index": 0
      },
      "name": "aviator_hlemet",
      "normalTexture": {
        "index": 1
      },
      "pbrMetallicRoughness": {
        "baseColorTexture": {
          "index": 0
        },
        "metallicFactor": 0.21,
        "roughnessFactor": 0.48
      }
    },
    {
      "doubleSided": true,
      "emissiveTexture": {
        "index": 2
      },
      "name": "goggles",
      "normalTexture": {
        "index": 4
      },
      "pbrMetallicRoughness": {
        "baseColorTexture": {
          "index": 2
        },
        "metallicRoughnessTexture": {
          "index": 3
        },
        "roughnessFactor": 0.2
      }
    }
  ],
  "meshes": [
    {
      "name": "Object_0",
      "primitives": [
        {
          "attributes": {
            "NORMAL": 1,
            "POSITION": 0,
            "TANGENT": 2,
            "TEXCOORD_0": 3
          },
          "indices": 4,
          "material": 0,
          "mode": 4
        }
      ]
    },
    {
      "name": "Object_1",
      "primitives": [
        {
          "attributes": {
            "NORMAL": 6,
            "POSITION": 5,
            "TANGENT": 7,
            "TEXCOORD_0": 8
          },
          "indices": 9,
          "material": 1,
          "mode": 4
        }
      ]
    }
  ],
  "nodes": [
    {
      "children": [
        1
      ],
      "matrix": [
        1.0,
        0.0,
        0.0,
        0.0,
        0.0,
        2.220446049250313e-16,
        -1.0,
        0.0,
        0.0,
        1.0,
        2.220446049250313e-16,
        0.0,
        0.0,
        0.0,
        0.0,
        1.0
      ],
      "name": "Sketchfab_model"
    },
    {
      "children": [
        2,
        3
      ],
      "name": "aviator helmet.OBJ.cleaner.gles"
    },
    {
      "mesh": 0,
      "name": "Object_2"
    },
    {
      "mesh": 1,
      "name": "Object_3"
    }
  ],
  "samplers": [
    {
      "magFilter": 9729,
      "minFilter": 9987,
      "wrapS": 10497,
      "wrapT": 10497
    }
  ],
  "scene": 0,
  "scenes": [
    {
      "name": "Sketchfab_Scene",
      "nodes": [
        0
      ]
    }
  ],
  "textures": [
    {
      "sampler": 0,
      "source": 0
    },
    {
      "sampler": 0,
      "source": 1
    },
    {
      "sampler": 0,
      "source": 2
    },
    {
      "sampler": 0,
      "source": 3
    },
    {
      "sampler": 0,
      "source": 4
    }
  ]
}
