<?xml version="1.0" encoding="UTF-8" standalone="no"?>
<svg
   width="32"
   height="32"
   viewBox="0 0 24.00299 24.002987"
   version="1.1"
   id="svg1"
   sodipodi:docname="threeDim_mustacheOffIcon3.svg"
   inkscape:version="1.3.2 (091e20e, 2023-11-25, custom)"
   xmlns:inkscape="http://www.inkscape.org/namespaces/inkscape"
   xmlns:sodipodi="http://sodipodi.sourceforge.net/DTD/sodipodi-0.dtd"
   xmlns:xlink="http://www.w3.org/1999/xlink"
   xmlns="http://www.w3.org/2000/svg"
   xmlns:svg="http://www.w3.org/2000/svg">
  <defs
     id="defs1">
    <linearGradient
       id="linearGradient4"
       inkscape:collect="always">
      <stop
         style="stop-color:#2e91f5;stop-opacity:0.3982684;"
         offset="0"
         id="stop4" />
      <stop
         style="stop-color:#2e91f5;stop-opacity:0.84848487;"
         offset="0.90390879"
         id="stop5" />
    </linearGradient>
    <linearGradient
       id="linearGradient2"
       inkscape:collect="always">
      <stop
         style="stop-color:#f56314;stop-opacity:0.84632033;"
         offset="0.0960912"
         id="stop2" />
      <stop
         style="stop-color:#f56314;stop-opacity:0.4025974;"
         offset="1"
         id="stop3" />
    </linearGradient>
    <linearGradient
       inkscape:collect="always"
       xlink:href="#linearGradient2"
       id="linearGradient3"
       x1="0.18752335"
       y1="12.001494"
       x2="22.690325"
       y2="12.001494"
       gradientUnits="userSpaceOnUse" />
    <linearGradient
       inkscape:collect="always"
       xlink:href="#linearGradient4"
       id="linearGradient5"
       x1="1.3126635"
       y1="11.25159"
       x2="23.815465"
       y2="11.25159"
       gradientUnits="userSpaceOnUse" />
  </defs>
  <sodipodi:namedview
     id="namedview1"
     pagecolor="#ffffff"
     bordercolor="#000000"
     borderopacity="0.25"
     inkscape:showpageshadow="2"
     inkscape:pageopacity="0.0"
     inkscape:pagecheckerboard="0"
     inkscape:deskcolor="#d1d1d1"
     inkscape:document-units="px"
     inkscape:zoom="16"
     inkscape:cx="14.75"
     inkscape:cy="22.59375"
     inkscape:window-width="1920"
     inkscape:window-height="1009"
     inkscape:window-x="-8"
     inkscape:window-y="-8"
     inkscape:window-maximized="1"
     inkscape:current-layer="svg1" />
  <path
     id="path1-6"
     style="fill:url(#linearGradient5);fill-opacity:1;stroke:#2e91f5;stroke-width:0.749786;stroke-linecap:round;stroke-linejoin:round;stroke-dasharray:none;stroke-opacity:1"
     d="m 14.101432,13.678844 c 1.830861,0.884734 4.886088,1.417943 6.889515,1.021998 1.072162,-0.212179 2.353996,-0.811571 2.444698,-2.065372 0.05358,-0.736084 -0.396626,-1.598648 -0.990133,-2.018223 -0.534576,-0.378886 -1.089329,-0.429877 -1.415453,0.216836 0.365045,0.1167 1.018915,0.313711 1.184274,0.688091 0.25443,0.577386 -0.749966,1.076958 -1.213732,1.041092 -0.692974,-0.05331 -1.282375,-0.673227 -1.723784,-1.158715 C 18.5126,10.56287 17.573029,9.445078 16.717484,8.7359899 15.852349,8.0187858 15.000985,7.6556562 13.87584,7.6684367 c 0,0 -0.769979,0.092346 -1.324729,0.090276 C 11.996363,7.7566527 11.25229,7.6646077 11.25229,7.6646077 10.127148,7.6518274 9.2757919,8.0150059 8.4106502,8.7321612 7.5551038,9.441248 6.6155331,10.55904 5.8513165,11.400763 5.4099072,11.886251 4.8205053,12.506177 4.1275287,12.559506 3.6637645,12.595378 2.6593654,12.095801 2.9137968,11.518416 3.0791559,11.144035 3.7330273,10.947024 4.0980706,10.830324 3.7719464,10.183612 3.2171946,10.234603 2.6826183,10.613488 c -0.5935077,0.419575 -1.0437197,1.282139 -0.9901342,2.018224 0.090702,1.2538 1.3725376,1.853191 2.4446985,2.06537 2.0034271,0.395947 5.0586551,-0.137263 6.8895144,-1.021996 0.579503,-0.280303 0.893225,-0.432943 1.537367,-0.835827 0.541989,0.325808 0.476995,0.32669 1.537368,0.839585 z"
     sodipodi:nodetypes="cccccccccczcccccccccccc" />
  <path
     id="path1"
     style="fill:url(#linearGradient3);fill-opacity:1;stroke:#f56314;stroke-width:0.749786;stroke-linecap:round;stroke-linejoin:round;stroke-dasharray:none;stroke-opacity:1"
     d="m 12.976292,14.428748 c 1.830861,0.884734 4.886088,1.417943 6.889515,1.021998 1.072162,-0.212179 2.353996,-0.811571 2.444698,-2.065372 0.05358,-0.736084 -0.396626,-1.598648 -0.990133,-2.018223 -0.534576,-0.378886 -1.089329,-0.429877 -1.415453,0.216836 0.365045,0.1167 1.018915,0.313711 1.184274,0.688091 0.25443,0.577386 -0.749966,1.076958 -1.213732,1.041092 C 19.182487,13.25986 18.593086,12.639943 18.151677,12.154455 17.38746,11.312774 16.447889,10.194982 15.592344,9.4858941 14.727209,8.76869 13.875845,8.4055604 12.7507,8.4183409 c 0,0 -0.769979,0.092346 -1.324729,0.090276 C 10.871223,8.5065569 10.12715,8.4145119 10.12715,8.4145119 9.0020082,8.4017316 8.1506518,8.7649101 7.2855101,9.4820654 6.4299637,10.191152 5.490393,11.308944 4.7261764,12.150667 4.2847671,12.636155 3.6953652,13.256081 3.0023886,13.30941 2.5386244,13.345282 1.5342253,12.845705 1.7886567,12.26832 1.9540158,11.893939 2.6078872,11.696928 2.9729305,11.580228 2.6468063,10.933516 2.0920545,10.984507 1.5574782,11.363392 c -0.59350772,0.419575 -1.04371972,1.282139 -0.99013422,2.018224 0.090702,1.2538 1.37253762,1.853191 2.44469852,2.06537 2.0034271,0.395947 5.0586551,-0.137263 6.8895145,-1.021996 0.579503,-0.280303 0.893225,-0.432943 1.537367,-0.835827 0.541989,0.325808 0.476995,0.32669 1.537368,0.839585 z"
     sodipodi:nodetypes="cccccccccczcccccccccccc" />
</svg>
