{
	"asset":{
		"generator":"Khronos glTF Blender I/O v3.6.27",
		"version":"2.0"
	},
	"extensionsUsed":[
		"KHR_materials_transmission"
	],
	"scene":0,
	"scenes":[
		{
			"name":"Scene",
			"nodes":[
				9
			]
		}
	],
	"nodes":[
		{
			"mesh":0,
			"name":"Object_10"
		},
		{
			"mesh":1,
			"name":"Object_12"
		},
		{
			"mesh":2,
			"name":"Object_14"
		},
		{
			"mesh":3,
			"name":"Object_16"
		},
		{
			"mesh":4,
			"name":"Object_18"
		},
		{
			"mesh":5,
			"name":"Object_20"
		},
		{
			"mesh":6,
			"name":"Object_4"
		},
		{
			"mesh":7,
			"name":"Object_6"
		},
		{
			"mesh":8,
			"name":"Object_8"
		},
		{
			"children":[
				0,
				1,
				2,
				3,
				4,
				5,
				6,
				7,
				8
			],
			"name":"glasses5"
		}
	],
	"materials":[
		{
			"doubleSided":true,
			"name":"Material.008",
			"pbrMetallicRoughness":{
				"baseColorFactor":[
					0.04954950138926506,
					0.029243100434541702,
					0.020774299278855324,
					1
				],
				"metallicFactor":0,
				"roughnessFactor":0.5
			}
		},
		{
			"doubleSided":true,
			"name":"Material.007",
			"pbrMetallicRoughness":{
				"baseColorFactor":[
					0.800000011920929,
					0.5666339993476868,
					0.4394029974937439,
					1
				],
				"roughnessFactor":0.5
			}
		},
		{
			"alphaMode":"BLEND",
			"doubleSided":true,
			"extensions":{
				"KHR_materials_transmission":{
					"transmissionFactor":0.9738318920135498
				}
			},
			"name":"Material.005",
			"pbrMetallicRoughness":{
				"baseColorFactor":[
					1,
					1,
					1,
					0.25
				]
			}
		}
	],
	"meshes":[
		{
			"name":"Object_3.001",
			"primitives":[
				{
					"attributes":{
						"POSITION":0,
						"NORMAL":1
					},
					"indices":2,
					"material":0
				}
			]
		},
		{
			"name":"Object_4",
			"primitives":[
				{
					"attributes":{
						"POSITION":3,
						"NORMAL":4
					},
					"indices":5,
					"material":1
				}
			]
		},
		{
			"name":"Object_5",
			"primitives":[
				{
					"attributes":{
						"POSITION":6,
						"NORMAL":7,
						"TEXCOORD_0":8
					},
					"indices":9,
					"material":1
				}
			]
		},
		{
			"name":"Object_6",
			"primitives":[
				{
					"attributes":{
						"POSITION":10,
						"NORMAL":11,
						"TEXCOORD_0":12
					},
					"indices":13,
					"material":1
				}
			]
		},
		{
			"name":"Object_7.001",
			"primitives":[
				{
					"attributes":{
						"POSITION":14,
						"NORMAL":15
					},
					"indices":16,
					"material":0
				}
			]
		},
		{
			"name":"Object_8",
			"primitives":[
				{
					"attributes":{
						"POSITION":17,
						"NORMAL":18,
						"TEXCOORD_0":19
					},
					"indices":20,
					"material":1
				}
			]
		},
		{
			"name":"Object_0.007",
			"primitives":[
				{
					"attributes":{
						"POSITION":21,
						"NORMAL":22,
						"TEXCOORD_0":23
					},
					"indices":24,
					"material":2
				}
			]
		},
		{
			"name":"Object_1.005",
			"primitives":[
				{
					"attributes":{
						"POSITION":25,
						"NORMAL":26
					},
					"indices":27,
					"material":1
				}
			]
		},
		{
			"name":"Object_2.003",
			"primitives":[
				{
					"attributes":{
						"POSITION":28,
						"NORMAL":29
					},
					"indices":30,
					"material":0
				}
			]
		}
	],
	"accessors":[
		{
			"bufferView":0,
			"componentType":5126,
			"count":160,
			"max":[
				0.7297717332839966,
				0.016722457483410835,
				1.3570834398269653
			],
			"min":[
				-0.7297713160514832,
				-0.561396062374115,
				0.046705882996320724
			],
			"type":"VEC3"
		},
		{
			"bufferView":1,
			"componentType":5126,
			"count":160,
			"type":"VEC3"
		},
		{
			"bufferView":2,
			"componentType":5123,
			"count":864,
			"type":"SCALAR"
		},
		{
			"bufferView":3,
			"componentType":5126,
			"count":48,
			"max":[
				0.7207669019699097,
				0.007718049455434084,
				0.06858474761247635
			],
			"min":[
				-0.7207669019699097,
				-0.007718077395111322,
				0.007805196102708578
			],
			"type":"VEC3"
		},
		{
			"bufferView":4,
			"componentType":5126,
			"count":48,
			"type":"VEC3"
		},
		{
			"bufferView":5,
			"componentType":5123,
			"count":192,
			"type":"SCALAR"
		},
		{
			"bufferView":6,
			"componentType":5126,
			"count":256,
			"max":[
				0.7244307398796082,
				-0.01750739850103855,
				0.016722682863473892
			],
			"min":[
				-0.7244307398796082,
				-0.0411844439804554,
				-0.01672268845140934
			],
			"type":"VEC3"
		},
		{
			"bufferView":7,
			"componentType":5126,
			"count":256,
			"type":"VEC3"
		},
		{
			"bufferView":8,
			"componentType":5126,
			"count":256,
			"type":"VEC2"
		},
		{
			"bufferView":9,
			"componentType":5123,
			"count":696,
			"type":"SCALAR"
		},
		{
			"bufferView":10,
			"componentType":5126,
			"count":68,
			"max":[
				0.7188298106193542,
				0.017060963436961174,
				0.005781205371022224
			],
			"min":[
				-0.7188298106193542,
				-0.046584002673625946,
				-0.0057811979204416275
			],
			"type":"VEC3"
		},
		{
			"bufferView":11,
			"componentType":5126,
			"count":68,
			"type":"VEC3"
		},
		{
			"bufferView":12,
			"componentType":5126,
			"count":68,
			"type":"VEC2"
		},
		{
			"bufferView":13,
			"componentType":5123,
			"count":168,
			"type":"SCALAR"
		},
		{
			"bufferView":14,
			"componentType":5126,
			"count":256,
			"max":[
				0.6717080473899841,
				0.26746490597724915,
				0.015436342917382717
			],
			"min":[
				-0.6717080473899841,
				-0.26746493577957153,
				-0.015436342917382717
			],
			"type":"VEC3"
		},
		{
			"bufferView":15,
			"componentType":5126,
			"count":256,
			"type":"VEC3"
		},
		{
			"bufferView":16,
			"componentType":5123,
			"count":1536,
			"type":"SCALAR"
		},
		{
			"bufferView":17,
			"componentType":5126,
			"count":232,
			"max":[
				0.7244307398796082,
				0.011661424301564693,
				0.01138210203498602
			],
			"min":[
				-0.7244307398796082,
				-0.012015622109174728,
				-0.021476393565535545
			],
			"type":"VEC3"
		},
		{
			"bufferView":18,
			"componentType":5126,
			"count":232,
			"type":"VEC3"
		},
		{
			"bufferView":19,
			"componentType":5126,
			"count":232,
			"type":"VEC2"
		},
		{
			"bufferView":20,
			"componentType":5123,
			"count":600,
			"type":"SCALAR"
		},
		{
			"bufferView":21,
			"componentType":5126,
			"count":164,
			"max":[
				0.6615118384361267,
				0.2572687566280365,
				0.005277839954942465
			],
			"min":[
				-0.6615118384361267,
				-0.2572687566280365,
				-0.027722731232643127
			],
			"type":"VEC3"
		},
		{
			"bufferView":22,
			"componentType":5126,
			"count":164,
			"type":"VEC3"
		},
		{
			"bufferView":23,
			"componentType":5126,
			"count":164,
			"type":"VEC2"
		},
		{
			"bufferView":24,
			"componentType":5123,
			"count":576,
			"type":"SCALAR"
		},
		{
			"bufferView":25,
			"componentType":5126,
			"count":96,
			"max":[
				0.16208447515964508,
				0.029579108580946922,
				0.049903783947229385
			],
			"min":[
				-0.16208447515964508,
				-0.010166753083467484,
				-5.0058421408039067e-08
			],
			"type":"VEC3"
		},
		{
			"bufferView":26,
			"componentType":5126,
			"count":96,
			"type":"VEC3"
		},
		{
			"bufferView":27,
			"componentType":5123,
			"count":480,
			"type":"SCALAR"
		},
		{
			"bufferView":28,
			"componentType":5126,
			"count":72,
			"max":[
				0.1223875880241394,
				0.12864874303340912,
				0.05458236485719681
			],
			"min":[
				-0.12238755822181702,
				0.009425674565136433,
				-0.009953396394848824
			],
			"type":"VEC3"
		},
		{
			"bufferView":29,
			"componentType":5126,
			"count":72,
			"type":"VEC3"
		},
		{
			"bufferView":30,
			"componentType":5123,
			"count":384,
			"type":"SCALAR"
		}
	],
	"bufferViews":[
		{
			"buffer":0,
			"byteLength":1920,
			"byteOffset":0,
			"target":34962
		},
		{
			"buffer":0,
			"byteLength":1920,
			"byteOffset":1920,
			"target":34962
		},
		{
			"buffer":0,
			"byteLength":1728,
			"byteOffset":3840,
			"target":34963
		},
		{
			"buffer":0,
			"byteLength":576,
			"byteOffset":5568,
			"target":34962
		},
		{
			"buffer":0,
			"byteLength":576,
			"byteOffset":6144,
			"target":34962
		},
		{
			"buffer":0,
			"byteLength":384,
			"byteOffset":6720,
			"target":34963
		},
		{
			"buffer":0,
			"byteLength":3072,
			"byteOffset":7104,
			"target":34962
		},
		{
			"buffer":0,
			"byteLength":3072,
			"byteOffset":10176,
			"target":34962
		},
		{
			"buffer":0,
			"byteLength":2048,
			"byteOffset":13248,
			"target":34962
		},
		{
			"buffer":0,
			"byteLength":1392,
			"byteOffset":15296,
			"target":34963
		},
		{
			"buffer":0,
			"byteLength":816,
			"byteOffset":16688,
			"target":34962
		},
		{
			"buffer":0,
			"byteLength":816,
			"byteOffset":17504,
			"target":34962
		},
		{
			"buffer":0,
			"byteLength":544,
			"byteOffset":18320,
			"target":34962
		},
		{
			"buffer":0,
			"byteLength":336,
			"byteOffset":18864,
			"target":34963
		},
		{
			"buffer":0,
			"byteLength":3072,
			"byteOffset":19200,
			"target":34962
		},
		{
			"buffer":0,
			"byteLength":3072,
			"byteOffset":22272,
			"target":34962
		},
		{
			"buffer":0,
			"byteLength":3072,
			"byteOffset":25344,
			"target":34963
		},
		{
			"buffer":0,
			"byteLength":2784,
			"byteOffset":28416,
			"target":34962
		},
		{
			"buffer":0,
			"byteLength":2784,
			"byteOffset":31200,
			"target":34962
		},
		{
			"buffer":0,
			"byteLength":1856,
			"byteOffset":33984,
			"target":34962
		},
		{
			"buffer":0,
			"byteLength":1200,
			"byteOffset":35840,
			"target":34963
		},
		{
			"buffer":0,
			"byteLength":1968,
			"byteOffset":37040,
			"target":34962
		},
		{
			"buffer":0,
			"byteLength":1968,
			"byteOffset":39008,
			"target":34962
		},
		{
			"buffer":0,
			"byteLength":1312,
			"byteOffset":40976,
			"target":34962
		},
		{
			"buffer":0,
			"byteLength":1152,
			"byteOffset":42288,
			"target":34963
		},
		{
			"buffer":0,
			"byteLength":1152,
			"byteOffset":43440,
			"target":34962
		},
		{
			"buffer":0,
			"byteLength":1152,
			"byteOffset":44592,
			"target":34962
		},
		{
			"buffer":0,
			"byteLength":960,
			"byteOffset":45744,
			"target":34963
		},
		{
			"buffer":0,
			"byteLength":864,
			"byteOffset":46704,
			"target":34962
		},
		{
			"buffer":0,
			"byteLength":864,
			"byteOffset":47568,
			"target":34962
		},
		{
			"buffer":0,
			"byteLength":768,
			"byteOffset":48432,
			"target":34963
		}
	],
	"buffers":[
		{
			"byteLength":49200,
			"uri":"glasses5.bin"
		}
	]
}
