{
	"asset":{
		"generator":"Khronos glTF Blender I/O v3.6.27",
		"version":"2.0"
	},
	"scene":0,
	"scenes":[
		{
			"name":"Scene",
			"nodes":[
				0
			]
		}
	],
	"nodes":[
		{
			"mesh":0,
			"name":"chickenHat"
		}
	],
	"materials":[
		{
			"name":"Scene_-_Root.002",
			"normalTexture":{
				"index":0
			},
			"pbrMetallicRoughness":{
				"baseColorTexture":{
					"index":1
				},
				"metallicFactor":0,
				"metallicRoughnessTexture":{
					"index":2
				},
				"roughnessFactor":0.876187801361084
			}
		}
	],
	"meshes":[
		{
			"name":"ChickenHead_low__0",
			"primitives":[
				{
					"attributes":{
						"POSITION":0,
						"NORMAL":1,
						"TEXCOORD_0":2
					},
					"indices":3,
					"material":0
				}
			]
		}
	],
	"textures":[
		{
			"sampler":0,
			"source":0
		},
		{
			"sampler":0,
			"source":1
		},
		{
			"sampler":0,
			"source":2
		}
	],
	"images":[
		{
			"mimeType":"image/png",
			"name":"Scene_-_Root_normal",
			"uri":"texs2/Scene_-_Root_normal.png"
		},
		{
			"mimeType":"image/png",
			"name":"Scene_-_Root_baseColor",
			"uri":"texs2/Scene_-_Root_baseColor.png"
		},
		{
			"mimeType":"image/png",
			"name":"Scene_-_Root_metallicRoughness",
			"uri":"texs2/Scene_-_Root_metallicRoughness.png"
		}
	],
	"accessors":[
		{
			"bufferView":0,
			"componentType":5126,
			"count":1340,
			"max":[
				0.6218724250793457,
				1.1498017311096191,
				0.9077978134155273
			],
			"min":[
				-0.6218725442886353,
				-1.005700945854187,
				-1.0775914192199707
			],
			"type":"VEC3"
		},
		{
			"bufferView":1,
			"componentType":5126,
			"count":1340,
			"type":"VEC3"
		},
		{
			"bufferView":2,
			"componentType":5126,
			"count":1340,
			"type":"VEC2"
		},
		{
			"bufferView":3,
			"componentType":5123,
			"count":6198,
			"type":"SCALAR"
		}
	],
	"bufferViews":[
		{
			"buffer":0,
			"byteLength":16080,
			"byteOffset":0,
			"target":34962
		},
		{
			"buffer":0,
			"byteLength":16080,
			"byteOffset":16080,
			"target":34962
		},
		{
			"buffer":0,
			"byteLength":10720,
			"byteOffset":32160,
			"target":34962
		},
		{
			"buffer":0,
			"byteLength":12396,
			"byteOffset":42880,
			"target":34963
		}
	],
	"samplers":[
		{
			"magFilter":9729,
			"minFilter":9987
		}
	],
	"buffers":[
		{
			"byteLength":55276,
			"uri":"chickenHat.bin"
		}
	]
}
