<svg
  xmlns="http://www.w3.org/2000/svg"
  viewBox="0 -960 960 960"
  height="1px"
  width="1px"
>
  <path
    d="m 279.48,-167.36 h -80 q -33,0 -56.5,-23.5 -23.5,-23.5 -23.5,-56.5 v -280 q 0,-75 28.5,-140.5 28.5,-65.5 77,-114 48.5,-48.5 114,-77 65.5,-28.5 140.5,-28.5 75,0 140.5,28.5 65.5,28.5 114,77 48.5,48.5 77,114 28.5,65.5 28.5,140.5 v 280 q 0,33 -23.5,56.5 -23.5,23.5 -56.5,23.5 h -80 q -33,0 -56.5,-23.5 -23.5,-23.5 -23.5,-56.5 v -160 q 0,-33 23.5,-56.5 23.5,-23.5 56.5,-23.5 h 80 v -40 q 0,-117 -81.5,-198.5 -81.5,-81.5 -198.5,-81.5 -117,0 -198.5,81.5 -81.5,81.5 -81.5,198.5 v 40 h 80 q 33,0 56.5,23.5 23.5,23.5 23.5,56.5 v 160 q 0,33 -23.5,56.5 -23.5,23.5 -56.5,23.5 z m 0,-240 h -80 v 160 h 80 z m 400,0 v 160 h 80 v -160 z m -400,0 h -80 z m 400,0 h 80 z"
  />
</svg>
