<?xml version="1.0" encoding="UTF-8" standalone="no"?>
<svg
   width="32"
   height="32"
   viewBox="0 0 99.999697 100.00033"
   version="1.1"
   id="svg1"
   sodipodi:docname="beardOffIcon.svg"
   inkscape:version="1.3.2 (091e20e, 2023-11-25, custom)"
   xmlns:inkscape="http://www.inkscape.org/namespaces/inkscape"
   xmlns:sodipodi="http://sodipodi.sourceforge.net/DTD/sodipodi-0.dtd"
   xmlns="http://www.w3.org/2000/svg"
   xmlns:svg="http://www.w3.org/2000/svg">
  <defs
     id="defs1" />
  <sodipodi:namedview
     id="namedview1"
     pagecolor="#ffffff"
     bordercolor="#000000"
     borderopacity="0.25"
     inkscape:showpageshadow="2"
     inkscape:pageopacity="0.0"
     inkscape:pagecheckerboard="0"
     inkscape:deskcolor="#d1d1d1"
     inkscape:document-units="in"
     inkscape:zoom="23.873743"
     inkscape:cx="11.414214"
     inkscape:cy="17.529719"
     inkscape:window-width="1920"
     inkscape:window-height="1009"
     inkscape:window-x="-8"
     inkscape:window-y="-8"
     inkscape:window-maximized="1"
     inkscape:current-layer="svg1" />
  <path
     id="path311"
     style="fill:none;stroke:#fff;stroke-width:1.87501;stroke-linecap:round;stroke-linejoin:round;stroke-dasharray:none;stroke-opacity:1"
     d="m 33.769822,35.1722 c 0,0 4.484611,3.360525 13.549263,3.23971 9.064652,-0.120815 13.042376,-3.23971 13.042376,-3.23971 m 16.126808,-18.39808 2.405346,-4.571286 c 0.324883,-1.15707 -0.05131,-2.4993859 0.441729,-3.3201637 0.641241,-0.9518753 2.510798,-1.4021639 3.334425,0 0.501597,0.778029 0.384734,2.6276317 0.373344,3.6165567 -0.02554,2.123195 -0.609888,2.932572 -0.4275,4.274893 0.384756,2.847064 1.918005,3.465506 2.556392,5.414852 l 1.456305,7.979799 c 0.883486,3.448403 2.288494,5.523153 2.633339,6.839819 l 0.772311,7.409807 c 0.450291,1.97784 1.721366,3.248911 1.758413,4.559876 0.04281,1.464864 -0.909128,2.918334 -0.743828,5.129885 l 1.028818,5.699844 0.381904,5.699852 c 0.17385,3.599451 3.228951,6.919609 3.72484,8.264786 0.441752,1.196968 0.267905,3.704901 -0.401846,4.793564 -0.276423,0.447451 -0.632676,0.763794 -1.080114,1.031668 -3.186205,1.90946 -4.089643,-1.766952 -5.947778,-1.915133 -1.174185,-0.09409 -1.356572,1.613053 -2.867041,1.940802 -1.541811,0.33344 -2.499371,-1.211235 -3.40281,-1.530408 -1.795465,-0.635546 -1.060178,2.542112 -2.889824,3.19191 -0.820771,0.293544 -1.960737,-0.250807 -2.821432,-0.367648 -1.390754,-0.193785 -2.807181,0.25081 -3.989903,0.97182 -1.496203,0.911973 -1.715648,1.658669 -2.425264,2.171654 -0.809382,0.581393 -1.992106,0.512993 -2.790082,1.473401 -0.783745,0.94618 -0.527243,2.003518 -1.50191,3.34297 -1.556078,2.134611 -5.246732,3.223274 -7.817358,3.12352 -2.151688,-0.0855 -5.414852,-0.937627 -6.312573,-3.12352 -0.304952,-0.74953 -0.216604,-1.499046 -0.23371,-2.279938 -0.04278,-2.19444 -1.786531,-2.821808 -2.58594,-3.44738 -0.799389,-0.625552 -1.138498,-1.438172 -1.974253,-1.296005 -0.835727,0.142205 -1.24509,1.394722 -2.108625,3.033431 -0.601325,1.145665 -0.396148,1.949349 -1.157077,2.730231 -1.271064,1.310964 -3.679252,0.994608 -5.292319,0.712469 -1.473398,-0.259337 -3.134915,-0.729566 -4.237812,-1.7926 -0.832195,-0.803675 -1.165639,-1.835341 -1.772669,-2.790079 -1.091529,-1.718491 -4.950323,-6.386678 -6.814179,-6.948114 -1.20551,-0.361943 -2.667528,0.629824 -4.559874,-0.339151 -1.915148,-0.97751 -6.50924,-5.235318 -7.828745,-6.962357 L 12.136946,67.542701 C 11.205021,66.345732 9.1673236,66.317224 7.6369134,63.51291 6.0865524,60.668671 6.6793371,57.775994 6.2290487,55.818109 5.872809,54.264894 5.1574775,53.791789 4.7328381,51.543226 c -0.1025971,-1.025972 -0.051298,-1.829663 0,-2.849945 L 4.3024999,44.418397 C 4.105855,42.930744 3.4817209,41.292032 3.5814683,39.858523 c 0.2764429,-3.887317 1.1656195,-4.67959 2.0120487,-7.9798 l 0.4787868,-3.419908 1.8695523,-7.409811 0.1966434,-2.564929 c 0.1253969,-1.24257 1.3420416,-5.384312 1.5811796,-5.928909 0.2391388,-0.544594 0.5348909,-1.18166 0.9780549,-1.777296 0.443162,-0.595633 2.662087,-2.4691852 2.825828,-2.161833 0.163853,0.3075619 0.792599,4.51809 -0.01869,6.733121 -0.811289,2.215031 2.636575,0.922576 3.704911,-0.569995 1.068336,-1.492571 1.424963,-0.552889 1.259667,0.575695 -0.964622,7.524281 0.530066,1.036869 1.541801,3.431308 0.143569,1.559579 -0.03423,2.450932 0,3.377163 -0.07974,1.15991 -0.0011,1.178114 -0.462792,3.053365 0.966131,-0.883475 1.503022,-1.480207 1.651218,-2.74273 h 0.854976 c 0.33891,1.570055 0.599252,4.340083 1.709953,0.569983 1.83535,0.108297 2.348336,0.507287 1.424962,2.27994 3.382862,-1.422103 3.582357,-0.38759 5.699859,-1.251108 l 1.994944,-1.080131 c 1.219782,-0.618425 5.035815,-2.188738 6.269845,-2.222937 1.105779,-0.03425 2.157387,-0.03137 3.129211,0.567141 1.122883,0.686824 1.436368,1.521858 2.1061,2.16594 1.593109,1.530402 3.342957,1.701398 5.309402,0.966118 -0.481632,-0.521806 -0.491481,-0.981392 0,-0.854977 l 1.139987,0.284993 c 0.729573,-1.507604 2.810034,-3.120663 4.559873,-3.157714 0.629834,-0.01421 0.111378,-0.170651 2.279941,0.592784 2.168563,0.763435 0.980732,-1.336482 2.32269,-1.821109 1.341958,-0.484627 1.836058,0.884988 3.092174,1.79831 1.256116,0.913322 6.675282,4.599218 8.280818,3.968862 1.605536,-0.630356 1.859772,-3.280074 2.148029,-4.254195 0.288257,-0.97412 0.497765,-5.907556 2.965796,-4.251744 z" />
</svg>
