<svg
  xmlns="http://www.w3.org/2000/svg"
  viewBox="0 0 100 100"
  height="1"
  width="1"
>
  <path
    d="M 73.75,31 Q 71.73125,31 70.36562,29.63437 69,28.26875 69,26.25 69,24.23125 70.36562,22.86562 71.73125,21.5 73.75,21.5 q 2.01875,0 3.38437,1.36562 Q 78.5,24.23125 78.5,26.25 q 0,2.01875 -1.36563,3.38437 Q 75.76875,31 73.75,31 Z m 4.63125,28.5 H 40.61875 Q 39.075,59.5 38.42188,58.19375 37.76875,56.8875 38.71875,55.7 L 46.675,45.25 q 0.7125,-0.95 1.9,-0.95 1.1875,0 1.9,0.95 l 5.4625,7.125 9.025,-11.75625 q 0.7125,-0.95 1.9,-0.95 1.1875,0 1.9,0.95 L 80.28125,55.7 q 0.95,1.1875 0.29687,2.49375 Q 79.925,59.5 78.38125,59.5 Z M 12,97.5 Q 8.08125,97.5 5.290625,94.70937 2.5,91.91875 2.5,88 V 26.25 Q 2.5,24.23125 3.865625,22.86562 5.23125,21.5 7.25,21.5 q 2.01875,0 3.384375,1.36562 Q 12,24.23125 12,26.25 V 88 h 61.75 q 2.01875,0 3.38437,1.36562 Q 78.5,90.73125 78.5,92.75 q 0,2.01875 -1.36563,3.38437 Q 75.76875,97.5 73.75,97.5 Z M 21.5,12 Q 21.5,8.08125 24.29063,5.29062 27.08125,2.5 31,2.5 h 19 q 2.01875,0 3.38437,1.36562 Q 54.75,5.23125 54.75,7.25 q 0,2.01875 -1.36563,3.38437 Q 52.01875,12 50,12 H 31 v 20.78125 q 0,2.01875 -1.36562,3.38437 -1.36563,1.36563 -3.38438,1.36563 -2.01875,0 -3.38438,-1.36563 Q 21.5,34.8 21.5,32.78125 Z M 31,78.5 q -3.91875,0 -6.70937,-2.79063 Q 21.5,72.91875 21.5,69 V 51.78125 q 0,-2.01875 1.36562,-3.38438 1.36563,-1.36562 3.38438,-1.36562 2.01875,0 3.38438,1.36562 Q 31,49.7625 31,51.78125 V 69 h 19 q 2.01875,0 3.38437,1.36562 Q 54.75,71.73125 54.75,73.75 q 0,2.01875 -1.36563,3.38437 Q 52.01875,78.5 50,78.5 Z m 57,0 H 69 q -2.01875,0 -3.38438,-1.36563 Q 64.25,75.76875 64.25,73.75 q 0,-2.01875 1.36562,-3.38438 Q 66.98125,69 69,69 H 88 V 51.78125 q 0,-2.01875 1.36562,-3.38438 1.36563,-1.36562 3.38438,-1.36562 2.01875,0 3.38437,1.36562 Q 97.5,49.7625 97.5,51.78125 V 69 q 0,3.91875 -2.79063,6.70937 Q 91.91875,78.5 88,78.5 Z M 97.5,12 v 20.78125 q 0,2.01875 -1.36563,3.38437 -1.36562,1.36563 -3.38437,1.36563 -2.01875,0 -3.38438,-1.36563 Q 88,34.8 88,32.78125 V 12 H 69 Q 66.98125,12 65.61562,10.63437 64.25,9.26875 64.25,7.25 64.25,5.23125 65.61562,3.86562 66.98125,2.5 69,2.5 h 19 q 3.91875,0 6.70937,2.79062 Q 97.5,8.08125 97.5,12 Z"
    style="stroke-width:0.11875" 
	/>
</svg>
