<svg
  xmlns="http://www.w3.org/2000/svg"
  viewBox="0 0 100 100"
  height="1"
  width="1"
>
  <path
    d="M 13.05556,97.5 Q 8.70139,97.5 5.60069,94.39931 2.5,91.29861 2.5,86.94444 V 60.55556 q 0,-2.24306 1.51736,-3.76042 1.51736,-1.51736 3.76042,-1.51736 2.24305,0 3.76041,1.51736 1.51737,1.51736 1.51737,3.76042 v 26.38888 h 26.38888 q 2.24306,0 3.76042,1.51737 1.51736,1.51736 1.51736,3.76041 0,2.24306 -1.51736,3.76042 Q 41.6875,97.5 39.44444,97.5 Z m 73.88888,0 H 60.55556 q -2.24306,0 -3.76042,-1.51736 -1.51736,-1.51736 -1.51736,-3.76042 0,-2.24305 1.51736,-3.76041 1.51736,-1.51737 3.76042,-1.51737 H 86.94444 V 60.55556 q 0,-2.24306 1.51737,-3.76042 1.51736,-1.51736 3.76041,-1.51736 2.24306,0 3.76042,1.51736 Q 97.5,58.3125 97.5,60.55556 v 26.38888 q 0,4.35417 -3.10069,7.45487 Q 91.29861,97.5 86.94444,97.5 Z M 46.04167,71.11111 59.76389,52.77083 q 0.79167,-1.05555 2.11111,-1.05555 1.31944,0 2.11111,1.05555 L 78.5,72.16667 q 1.05556,1.31944 0.26389,2.77083 -0.79167,1.45139 -2.375,1.45139 H 23.61111 q -1.58333,0 -2.375,-1.45139 Q 20.44444,73.48611 21.5,72.16667 L 32.05556,58.04861 q 0.79166,-1.05555 2.11111,-1.05555 1.31944,0 2.11111,1.05555 z M 2.5,13.05556 Q 2.5,8.70139 5.60069,5.60069 8.70139,2.5 13.05556,2.5 h 26.38888 q 2.24306,0 3.76042,1.51736 1.51736,1.51736 1.51736,3.76042 0,2.24305 -1.51736,3.76041 -1.51736,1.51737 -3.76042,1.51737 H 13.05556 v 26.38888 q 0,2.24306 -1.51737,3.76042 -1.51736,1.51736 -3.76041,1.51736 -2.24306,0 -3.76042,-1.51736 Q 2.5,41.6875 2.5,39.44444 Z m 95,0 v 26.38888 q 0,2.24306 -1.51736,3.76042 -1.51736,1.51736 -3.76042,1.51736 -2.24305,0 -3.76041,-1.51736 -1.51737,-1.51736 -1.51737,-3.76042 V 13.05556 H 60.55556 q -2.24306,0 -3.76042,-1.51737 -1.51736,-1.51736 -1.51736,-3.76041 0,-2.24306 1.51736,-3.76042 Q 58.3125,2.5 60.55556,2.5 h 26.38888 q 4.35417,0 7.45487,3.10069 Q 97.5,8.70139 97.5,13.05556 Z M 68.47222,39.44444 q -3.43055,0 -5.67361,-2.24305 -2.24305,-2.24306 -2.24305,-5.67361 0,-3.43056 2.24305,-5.67361 2.24306,-2.24306 5.67361,-2.24306 3.43056,0 5.67361,2.24306 2.24306,2.24305 2.24306,5.67361 0,3.43055 -2.24306,5.67361 -2.24305,2.24305 -5.67361,2.24305 z"
    style="stroke-width:0.131944" 
	/>
</svg>
