<?xml version="1.0" encoding="UTF-8" standalone="no"?>
<svg
   version="1.1"
   viewBox="0 0 100 100"
   id="svg109"
   width="1"
   height="1"
   xmlns="http://www.w3.org/2000/svg"
   xmlns:svg="http://www.w3.org/2000/svg">
  <defs
     id="defs10">
    <filter
       id="e"
       x="-0.31462676"
       y="-0.34689126"
       width="1.6292535"
       height="1.6937825"
       color-interpolation-filters="sRGB">
      <feGaussianBlur
         stdDeviation="2.84711"
         id="feGaussianBlur1" />
    </filter>
    <linearGradient
       id="d"
       x1="597.78998"
       x2="629.83002"
       y1="215.60001"
       y2="223.03"
       gradientUnits="userSpaceOnUse"
       gradientTransform="matrix(-0.09761555,-0.06362059,-0.04682081,0.07244015,445.08544,250.37172)">
      <stop
         stop-color="#9e220d"
         offset="0"
         id="stop1" />
      <stop
         stop-color="#ec330d"
         offset="1"
         id="stop2" />
    </linearGradient>
    <linearGradient
       id="c"
       x1="608.62"
       x2="580.13"
       y1="197.16"
       y2="255.14"
       gradientUnits="userSpaceOnUse"
       gradientTransform="matrix(0.41795438,0,0,0.28784465,138.42619,152.10499)">
      <stop
         stop-color="#d4392d"
         offset="0"
         id="stop3" />
      <stop
         stop-color="#881900"
         offset="1"
         id="stop4" />
    </linearGradient>
    <linearGradient
       id="b"
       x1="374.5"
       x2="419.07001"
       y1="363.97"
       y2="367.89999"
       gradientUnits="userSpaceOnUse">
      <stop
         stop-color="#fba220"
         offset="0"
         id="stop5" />
      <stop
         stop-color="#f9efe9"
         offset=".2818"
         id="stop6" />
      <stop
         stop-color="#f7c97a"
         offset=".57881"
         id="stop7" />
      <stop
         stop-color="#f3f1d4"
         offset="1"
         id="stop8" />
    </linearGradient>
    <radialGradient
       id="a"
       cx="530.08002"
       cy="276.82001"
       r="10.859"
       gradientTransform="matrix(1,7.3477e-8,-6.6642e-8,0.90698,1.8448e-5,25.75)"
       gradientUnits="userSpaceOnUse">
      <stop
         stop-color="#d43800"
         offset="0"
         id="stop9" />
      <stop
         stop-color="#d40000"
         stop-opacity="0"
         offset="1"
         id="stop10" />
    </radialGradient>
  </defs>
  <g
     transform="matrix(1.3281,0.32812,-0.32812,1.3281,-402.51,-351.35)"
     id="g109">
    <path
       d="m 419.06885,172.99525 c 0,2.83266 -2.28014,5.12906 -5.09291,5.12906 -2.81278,0 -5.09292,-2.2964 -5.09292,-5.12906 0,-2.83266 2.28014,-5.12906 5.09292,-5.12906 2.81277,0 5.09291,2.2964 5.09291,5.12906 z"
       id="path10"
       style="stroke-width:0.118177" />
    <path
       d="m 381.83151,183.20677 c 3.84038,-16.78 16.27279,-18.43536 28.86714,-13.16303 l -0.4539,1.18014 c -11.85456,3.04991 -12.14699,9.54623 -12.7092,13.52609 l -15.70483,-1.54325 z"
       fill-rule="evenodd"
       stroke="#000000"
       id="path11"
       style="stroke-width:0.179734" />
    <path
       d="m 382.37251,182.83113 c 1.04655,-4.57426 2.80684,-8.00052 5.06747,-10.43709 5.49058,-5.91791 13.93262,-5.99752 22.26833,-2.50667 l -0.60566,1.28602 c -11.0765,2.85077 -11.5314,9.37998 -12.05659,13.10012 l -14.67423,-1.44246 z"
       fill="#d40000"
       fill-rule="evenodd"
       stroke="#d40000"
       stroke-width="0.167967"
       id="path12" />
    <path
       d="m 399.01052,167.67952 c -3.42645,0.0421 -6.61296,0.92279 -9.30844,2.81374 6.2224,-3.14805 14.08956,-2.55852 19.51017,-0.0756 l -0.17977,0.42665 c -11.29559,0.93769 -13.99304,8.99643 -14.5664,12.54582 l 2.71884,0.25382 c 0.52537,-3.54975 0.97684,-9.7824 12.05533,-12.5025 l 0.60669,-1.22595 c -3.67826,-1.46955 -7.37935,-2.27831 -10.83636,-2.2359 z"
       fill="#ff5817"
       fill-rule="evenodd"
       stroke="#ff5324"
       stroke-width="0.16409"
       id="path13" />
    <path
       d="m 418.20044,172.81867 c 0,2.42888 -1.95512,4.39794 -4.36696,4.39794 -2.41184,0 -4.36697,-1.96906 -4.36697,-4.39794 0,-2.42888 1.95513,-4.39794 4.36697,-4.39794 2.41184,0 4.36696,1.96906 4.36696,4.39794 z"
       fill="#fafafb"
       stroke="#f1f3ed"
       stroke-linecap="round"
       stroke-linejoin="round"
       stroke-width="0.549573"
       id="path14" />
    <path
       d="m 408.48553,211.01577 c 0,8.59022 -5.2808,15.55419 -11.79517,15.55419 -6.51437,0 -11.79517,-6.96397 -11.79517,-15.55419 0,-8.59022 5.2808,-15.5542 11.79517,-15.5542 6.51437,0 11.79517,6.96398 11.79517,15.5542 z"
       fill="#502d16"
       stroke="#000000"
       stroke-width="0.606428"
       id="path15" />
    <g
       transform="matrix(0.20728769,0,0,0.1797344,271.34428,145.84538)"
       id="g17">
      <path
         d="m 532.86,239.51 h 77.143 a 13.571,27.857 0 0 1 13.571,27.857 v 100 a 13.571,27.857 0 0 1 -13.571,27.857 H 532.86 a 13.571,27.857 0 0 1 -13.571,-27.857 v -100 A 13.571,27.857 0 0 1 532.86,239.51"
         fill="#deb798"
         stroke="#000000"
         stroke-linecap="round"
         stroke-linejoin="round"
         stroke-width="2.9"
         id="path16" />
      <path
         d="m 606.75,238.08 c 5.0611,3.6909 8.6644,14.112 8.6644,26.438 v 100 c 10e-6,15.433 -5.6805,27.844 -12.747,27.844 h -69.83 c 1.2759,0.93047 2.6304,1.4375 4.0532,1.4375 h 72.517 c 7.0665,0 12.747,-12.442 12.747,-27.875 v -100 c 0,-15.433 -5.6805,-27.844 -12.747,-27.844 h -2.6434 z"
         fill="#eed3ca"
         id="path17" />
    </g>
    <path
       d="m 402.89394,187.61155 c 0,2.13346 -1.61742,3.86301 -3.61266,3.86301 -1.99524,0 -3.61266,-1.72955 -3.61266,-3.86301 0,-2.13345 1.61742,-3.86301 3.61266,-3.86301 1.99524,0 3.61266,1.72956 3.61266,3.86301 z"
       id="path18"
       style="stroke-width:0.0863788" />
    <path
       d="m 396.00399,182.22108 c 0,1.87368 -1.42665,3.39265 -3.18655,3.39265 -1.75991,0 -3.18655,-1.51897 -3.18655,-3.39265 0,-1.87369 1.42664,-3.39266 3.18655,-3.39266 1.7599,0 3.18655,1.51897 3.18655,3.39266 z"
       id="path19"
       style="stroke-width:0.0760258" />
    <path
       d="m 391.7371,182.66322 c 0,1.87369 -1.42665,3.39266 -3.18656,3.39266 -1.7599,0 -3.18655,-1.51897 -3.18655,-3.39266 0,-1.87368 1.42665,-3.39265 3.18655,-3.39265 1.75991,0 3.18656,1.51897 3.18656,3.39265 z"
       id="path20"
       style="stroke-width:0.0760258" />
    <path
       d="m 387.7434,183.57088 c 0,1.87369 -1.42665,3.39266 -3.18655,3.39266 -1.75991,0 -3.18656,-1.51897 -3.18656,-3.39266 0,-1.87368 1.42665,-3.39265 3.18656,-3.39265 1.7599,0 3.18655,1.51897 3.18655,3.39265 z"
       id="path21"
       style="stroke-width:0.0760258" />
    <path
       d="m 383.83957,184.47854 c 0,1.87369 -1.42665,3.39266 -3.18656,3.39266 -1.7599,0 -3.18655,-1.51897 -3.18655,-3.39266 0,-1.87368 1.42665,-3.39265 3.18655,-3.39265 1.75991,0 3.18656,1.51897 3.18656,3.39265 z"
       id="path22"
       style="stroke-width:0.0760258" />
    <path
       d="m 399.27156,185.29633 c 0,1.87369 -1.42664,3.39266 -3.18655,3.39266 -1.75991,0 -3.18655,-1.51897 -3.18655,-3.39266 0,-1.87368 1.42664,-3.39265 3.18655,-3.39265 1.75991,0 3.18655,1.51897 3.18655,3.39265 z"
       id="path23"
       style="stroke-width:0.0760258" />
    <path
       d="m 402.2511,187.57466 c 0,1.86284 -1.35839,3.37302 -3.0341,3.37302 -1.67571,0 -3.03411,-1.51018 -3.03411,-3.37302 0,-1.86284 1.3584,-3.37302 3.03411,-3.37302 1.67571,0 3.0341,1.51018 3.0341,3.37302 z"
       fill="#fafafb"
       stroke="#f1f3ed"
       stroke-linecap="round"
       stroke-linejoin="round"
       stroke-width="0.401176"
       id="path24" />
    <path
       d="m 398.77909,185.25133 c 0,1.64901 -1.2257,2.98584 -2.73772,2.98584 -1.51202,0 -2.73772,-1.33683 -2.73772,-2.98584 0,-1.64901 1.2257,-2.98584 2.73772,-2.98584 1.51202,0 2.73772,1.33683 2.73772,2.98584 z"
       fill="#fafafb"
       stroke="#f1f3ed"
       stroke-linecap="round"
       stroke-linejoin="round"
       stroke-width="0.35854"
       id="path25" />
    <path
       d="m 395.55646,182.30009 c 0,1.64901 -1.2257,2.98584 -2.73773,2.98584 -1.51202,0 -2.73772,-1.33683 -2.73772,-2.98584 0,-1.64901 1.2257,-2.98583 2.73772,-2.98583 1.51203,0 2.73773,1.33682 2.73773,2.98583 z"
       fill="#fafafb"
       stroke="#f1f3ed"
       stroke-linecap="round"
       stroke-linejoin="round"
       stroke-width="0.35854"
       id="path26" />
    <path
       d="m 391.2907,182.7271 c 0,1.61455 -1.2265,2.92344 -2.73951,2.92344 -1.51301,0 -2.73951,-1.30889 -2.73951,-2.92344 0,-1.61454 1.2265,-2.92343 2.73951,-2.92343 1.51301,0 2.73951,1.30889 2.73951,2.92343 z"
       fill="#fafafb"
       stroke="#f1f3ed"
       stroke-linecap="round"
       stroke-linejoin="round"
       stroke-width="0.35489"
       id="path27" />
    <path
       d="m 387.20534,183.63476 c 0,1.61455 -1.2265,2.92343 -2.73951,2.92343 -1.51301,0 -2.73952,-1.30888 -2.73952,-2.92343 0,-1.61454 1.22651,-2.92343 2.73952,-2.92343 1.51301,0 2.73951,1.30889 2.73951,2.92343 z"
       fill="#fafafb"
       stroke="#f1f3ed"
       stroke-linecap="round"
       stroke-linejoin="round"
       stroke-width="0.35489"
       id="path28" />
    <path
       d="m 383.39317,184.45255 c 0,1.61455 -1.2265,2.92344 -2.73951,2.92344 -1.51301,0 -2.73951,-1.30889 -2.73951,-2.92344 0,-1.61454 1.2265,-2.92343 2.73951,-2.92343 1.51301,0 2.73951,1.30889 2.73951,2.92343 z"
       fill="#fafafb"
       stroke="#f1f3ed"
       stroke-linecap="round"
       stroke-linejoin="round"
       stroke-width="0.35489"
       id="path29" />
    <path
       d="m 387.62988,188.83641 c 0,3.00347 -2.4735,5.43835 -5.52479,5.43835 -3.05129,0 -5.52478,-2.43488 -5.52478,-5.43835 0,-3.00348 2.47349,-5.43835 5.52478,-5.43835 3.05129,0 5.52479,2.43487 5.52479,5.43835 z"
       id="path30"
       style="stroke-width:0.126742" />
    <path
       d="m 386.95255,188.77111 c 0,2.674 -2.14782,4.84177 -4.79736,4.84177 -2.64955,0 -4.79737,-2.16777 -4.79737,-4.84177 0,-2.67399 2.14782,-4.84176 4.79737,-4.84176 2.64954,0 4.79736,2.16777 4.79736,4.84176 z"
       fill="#fafafb"
       stroke="#f1f3ed"
       stroke-linecap="round"
       stroke-linejoin="round"
       stroke-width="0.604385"
       id="path31" />
    <path
       d="m 383.29179,188.65615 c 0.0964,0.40126 -0.13935,0.80138 -0.52652,0.8937 -0.38717,0.0923 -0.77917,-0.15812 -0.87554,-0.55936 -0.0964,-0.40125 0.13936,-0.80137 0.52653,-0.8937 0.15852,-0.0378 0.32574,-0.0188 0.47437,0.0539 l -0.29987,0.67265 z"
       id="path32"
       style="stroke-width:0.166113" />
    <path
       d="m 397.91017,190.20429 c 0,3.28707 -2.64592,5.95185 -5.90993,5.95185 -3.26401,0 -5.90994,-2.66478 -5.90994,-5.95185 0,-3.28707 2.64593,-5.95185 5.90994,-5.95185 3.26401,0 5.90993,2.66478 5.90993,5.95185 z"
       id="path33"
       style="stroke-width:0.137135" />
    <path
       d="m 397.13215,190.15351 c 0,2.92652 -2.29756,5.299 -5.13182,5.299 -2.83427,0 -5.13183,-2.37248 -5.13183,-5.299 0,-2.92651 2.29756,-5.299 5.13183,-5.299 2.83426,0 5.13182,2.37249 5.13182,5.299 z"
       fill="#fafafb"
       stroke="#f1f3ed"
       stroke-linecap="round"
       stroke-linejoin="round"
       stroke-width="0.653948"
       id="path34" />
    <path
       d="m 394.93954,185.47502 c 0.7657,0.9663 1.22658,2.20426 1.22658,3.55227 0,3.08838 -2.41581,5.59243 -5.38988,5.59243 -1.0744,0 -2.07827,-0.32609 -2.91906,-0.88957 0.98848,1.24362 2.48447,2.03998 4.15743,2.04016 2.97425,0 5.38988,-2.50999 5.38988,-5.59836 0,-1.96971 -0.98214,-3.69984 -2.46506,-4.697 z"
       fill="#cccccc"
       id="path35"
       style="stroke-width:0.179734" />
    <path
       d="m 392.49316,189.9914 c 0.1031,0.43915 -0.14907,0.87705 -0.56323,0.97809 -0.41415,0.10105 -0.83348,-0.17305 -0.93657,-0.61218 -0.10309,-0.43914 0.14907,-0.87704 0.56323,-0.97809 0.16958,-0.0414 0.34845,-0.0206 0.50744,0.059 l -0.32077,0.73617 z"
       id="path36"
       style="stroke-width:0.179734" />
    <path
       d="m 379.36555,184.38763 c -0.73481,0.89399 -1.1771,2.03926 -1.1771,3.28662 1e-5,2.85742 2.31822,5.17401 5.1724,5.17401 1.03107,0 1.99451,-0.3017 2.80134,-0.823 -0.94862,1.15057 -2.38418,1.88739 -3.98974,1.88739 -2.85419,0 -5.1724,-2.32217 -5.1724,-5.17941 0,-1.82232 0.94251,-3.42304 2.36548,-4.34544 z"
       fill="#cccccc"
       id="path37"
       style="stroke-width:0.179734" />
    <path
       d="m 369.40899,211.26199 c 0.66855,1.52732 0.15036,3.22956 -1.15746,3.80203 -1.30782,0.57247 -2.90998,-0.20163 -3.57853,-1.72894 -0.66855,-1.52732 -0.15037,-3.22955 1.15746,-3.80203 1.30782,-0.57247 2.90998,0.20163 3.57853,1.72894 z"
       id="path38"
       style="stroke-width:0.0645912" />
    <path
       d="m 369.40376,213.06079 c 0.58815,1.34357 -0.18137,2.97833 -1.71884,3.65133 -1.53747,0.673 -3.26061,0.12935 -3.84876,-1.21422 -0.58815,-1.34357 0.18138,-2.97834 1.71885,-3.65134 1.53747,-0.67299 3.2606,-0.12934 3.84875,1.21423 z"
       id="path39"
       style="stroke-width:0.0656855" />
    <path
       d="m 370.08505,215.52505 c 0.66855,1.52731 0.2993,3.16436 -0.82479,3.65642 -1.12409,0.49206 -2.57731,-0.34723 -3.24586,-1.87454 -0.66855,-1.52731 -0.2993,-3.16436 0.82479,-3.65642 1.12409,-0.49206 2.57731,0.34723 3.24586,1.87454 z"
       id="path40"
       style="stroke-width:0.0598826" />
    <path
       d="m 368.89157,213.40211 c 1.59056,0.49972 2.64276,1.65997 2.35009,2.59149 -0.29267,0.93152 -1.81937,1.28153 -3.40993,0.78182 -1.59056,-0.49972 -2.64275,-1.65997 -2.35008,-2.59149 0.29267,-0.93152 1.81936,-1.28154 3.40992,-0.78182 z"
       id="path41"
       style="stroke-width:0.0534172" />
    <path
       d="m 366.66013,209.48753 c -0.59102,0.005 -1.15999,0.23564 -1.57268,0.69087 -0.63331,0.69859 -0.70484,1.72308 -0.26399,2.56678 -0.96539,0.3215 -1.39251,1.39465 -0.94922,2.50514 0.39271,0.98367 1.34269,1.68992 2.29162,1.78049 0.4503,1.45281 1.67397,2.37609 2.76899,2.06694 0.89143,-0.25166 1.43135,-1.24356 1.39855,-2.39837 1.00868,-0.40804 1.49384,-1.81478 1.08964,-3.24637 -0.36229,-1.28321 -1.32326,-2.17119 -2.29162,-2.21289 -0.28608,-0.75932 -0.89624,-1.33842 -1.58953,-1.58953 -0.0419,-0.0163 -0.0812,-0.0311 -0.12357,-0.0449 l -0.0234,-0.005 c -0.24163,-0.0765 -0.49089,-0.1144 -0.73579,-0.11233 z"
       fill="#e3c0a7"
       id="path42"
       style="stroke-width:0.179734" />
    <path
       d="m 366.65474,209.46237 c -0.59102,0.005 -1.15999,0.23563 -1.57268,0.69086 -0.0458,0.0506 -0.0892,0.10349 -0.12918,0.15727 0.37325,-0.2852 0.82481,-0.43415 1.29184,-0.4381 0.2449,-0.002 0.49414,0.0358 0.73579,0.11233 l 0.0225,0.006 c 0.0424,0.0139 0.0817,0.0286 0.12357,0.0449 0.69327,0.25108 1.30345,0.83021 1.58953,1.58953 0.96836,0.0418 1.92927,0.92977 2.29162,2.21289 0.28646,1.01464 0.12279,2.01374 -0.35386,2.65665 0.78159,-0.55311 1.12154,-1.79986 0.76387,-3.06662 -0.36229,-1.28322 -1.32326,-2.1712 -2.29162,-2.21289 -0.28608,-0.75933 -0.89624,-1.33843 -1.58953,-1.58954 -0.0419,-0.0163 -0.0812,-0.031 -0.12357,-0.0449 l -0.0225,-0.006 c -0.24163,-0.0765 -0.49089,-0.11441 -0.73579,-0.11233 z m -2.31966,3.51597 c -0.1325,0.1019 -0.24923,0.2231 -0.34261,0.35946 0.12428,-0.0854 0.26323,-0.15706 0.41564,-0.2078 -0.0264,-0.0505 -0.0503,-0.1 -0.073,-0.15165 z m 5.99307,3.86429 c -0.12455,0.10012 -0.26166,0.18149 -0.41001,0.24152 0.0193,0.67823 -0.16322,1.2979 -0.49427,1.74681 0.55349,-0.39587 0.88799,-1.13655 0.90428,-1.98823 z"
       fill="#f4e3d7"
       id="path43"
       style="stroke-width:0.179734" />
    <path
       d="m 365.04971,210.44013 c -0.49758,0.60739 -0.5877,1.42655 -0.29946,2.15663 0.11925,-0.077 0.25129,-0.1403 0.39551,-0.18707 -0.33663,-0.62736 -0.37511,-1.35534 -0.096,-1.96971 z m -0.90967,2.8939 c -0.42105,0.48582 -0.53513,1.22121 -0.22602,1.9751 0.39506,0.96356 1.3507,1.65536 2.30527,1.74409 0.45301,1.4231 1.68395,2.32756 2.78553,2.02471 0.51177,-0.14069 0.9069,-0.52094 1.14699,-1.02884 -0.22841,0.28064 -0.52242,0.4876 -0.87013,0.58321 -1.10159,0.30285 -2.33259,-0.60158 -2.78552,-2.02471 -0.95457,-0.0887 -1.91022,-0.78052 -2.30528,-1.74409 -0.22492,-0.54862 -0.22858,-1.08925 -0.0508,-1.52951 z m 7.26055,2.40988 c -0.19248,0.2407 -0.43074,0.42841 -0.71193,0.53918 0.003,0.1051 -0.005,0.20623 -0.0113,0.30811 0.31037,-0.19342 0.55601,-0.48617 0.72322,-0.84729 z"
       fill="#b49984"
       id="path44"
       style="stroke-width:0.179734" />
    <path
       d="m 379.16349,211.64174 c 0,2.83266 -2.42383,5.12906 -5.41387,5.12906 -2.99004,0 -5.41387,-2.2964 -5.41387,-5.12906 0,-2.83266 2.42383,-5.12906 5.41387,-5.12906 2.99004,0 5.41387,2.2964 5.41387,5.12906 z"
       id="path45"
       style="stroke-width:0.121844" />
    <g
       transform="matrix(-0.17238147,-0.0334953,0.03229468,-0.17174521,431.02841,318.0597)"
       id="g47">
      <path
         transform="matrix(0.70551,0,0,0.49568,15.767,425.03)"
         d="m 629.83,223.03 c 0,29.01 -15.942,52.528 -35.608,52.528 -19.666,0 -35.608,-23.518 -35.608,-52.528 0,-29.01 15.942,-52.528 35.608,-52.528 19.666,0 35.608,23.518 35.608,52.528 z"
         fill="#c43223"
         id="path46" />
      <path
         d="m 438.02,509.74 c 10.674,3.003 18.531,13.116 18.531,25.125 -3e-5,14.372 -11.258,26.031 -25.125,26.031 -1.0294,0 -2.0342,-0.0626 -3.0312,-0.1875 2.1012,0.5914 4.3127,0.90625 6.5938,0.90625 13.867,0 25.125,-11.659 25.125,-26.031 0,-13.31 -9.653,-24.292 -22.094,-25.844 z"
         fill="#d35f5f"
         id="path47" />
    </g>
    <path
       d="m 381.15437,228.88214 c 0,2.51241 -2.05026,4.54918 -4.57944,4.54918 -2.52919,0 -4.57945,-2.03677 -4.57945,-4.54918 0,-2.51242 2.05026,-4.54919 4.57945,-4.54919 2.52918,0 4.57944,2.03677 4.57944,4.54919 z"
       id="path48"
       style="stroke-width:0.105537" />
    <path
       d="m 377.77117,235.79001 c 0,1.99162 -1.58868,3.60621 -3.54847,3.60621 -1.95979,0 -3.54847,-1.61459 -3.54847,-3.60621 0,-1.99163 1.58868,-3.60622 3.54847,-3.60622 1.95979,0 3.54847,1.61459 3.54847,3.60622 z"
       id="path49"
       style="stroke-width:0.0827136" />
    <path
       d="m 377.40145,235.8792 c 0,1.8169 -1.45621,3.28984 -3.2526,3.28984 -1.79638,0 -3.2526,-1.47294 -3.2526,-3.28984 0,-1.8169 1.45622,-3.28984 3.2526,-3.28984 1.79639,0 3.2526,1.47294 3.2526,3.28984 z"
       fill="#27282c"
       id="path50"
       style="stroke-width:0.0756369" />
    <path
       d="m 373.16179,226.45789 c -1.35827,2.10149 -0.90322,4.81938 1.01649,6.07054 1.91971,1.25116 4.57703,0.56176 5.9353,-1.53973 1.35827,-2.10149 0.90321,-4.81938 -1.01649,-6.07054 -1.91971,-1.25116 -4.57703,-0.56176 -5.9353,1.53973 z"
       fill="url(#d)"
       id="path51"
       style="fill:url(#d);stroke-width:0.10025" />
    <path
       d="m 402.13467,216.31699 c 0,8.74091 -6.89311,15.82704 -15.39644,15.82704 -8.50332,0 -15.39643,-7.08613 -15.39643,-15.82704 0,-8.74091 6.89311,-15.82704 15.39643,-15.82704 8.50333,0 15.39644,7.08613 15.39644,15.82704 z"
       id="path52"
       style="stroke-width:0.360945" />
    <path
       d="m 401.6664,216.30298 c 0,8.35037 -6.66303,15.1199 -14.88252,15.1199 -8.21949,0 -14.88252,-6.76953 -14.88252,-15.1199 0,-8.35037 6.66303,-15.1199 14.88252,-15.1199 8.21949,0 14.88252,6.76953 14.88252,15.1199 z"
       fill="url(#c)"
       id="path53"
       style="fill:url(#c);stroke-width:0.346851" />
    <path
       d="m 406.76603,212.13062 c 0,2.83266 -2.28014,5.12906 -5.09291,5.12906 -2.81278,0 -5.09292,-2.2964 -5.09292,-5.12906 0,-2.83266 2.28014,-5.12906 5.09292,-5.12906 2.81277,0 5.09291,2.2964 5.09291,5.12906 z"
       id="path54"
       style="stroke-width:0.118177" />
    <path
       d="m 400.86102,228.6894 c 0,2.54766 -2.07899,4.61301 -4.64363,4.61301 -2.56464,0 -4.64364,-2.06535 -4.64364,-4.61301 0,-2.54766 2.079,-4.61301 4.64364,-4.61301 2.56464,0 4.64363,2.06535 4.64363,4.61301 z"
       id="path55"
       style="stroke-width:0.107017" />
    <g
       transform="matrix(0.16230017,-0.10674606,0.12273703,0.14115441,264.86036,182.84371)"
       id="g57">
      <path
         transform="matrix(0.70551,0,0,0.49568,15.767,425.03)"
         d="m 629.83,223.03 c 0,29.01 -15.942,52.528 -35.608,52.528 -19.666,0 -35.608,-23.518 -35.608,-52.528 0,-29.01 15.942,-52.528 35.608,-52.528 19.666,0 35.608,23.518 35.608,52.528 z"
         fill="#c43223"
         id="path56" />
      <path
         d="m 438.02,509.74 c 10.674,3.003 18.531,13.116 18.531,25.125 -3e-5,14.372 -11.258,26.031 -25.125,26.031 -1.0294,0 -2.0342,-0.0626 -3.0312,-0.1875 2.1012,0.5914 4.3127,0.90625 6.5938,0.90625 13.867,0 25.125,-11.659 25.125,-26.031 0,-13.31 -9.653,-24.292 -22.094,-25.844 z"
         fill="#d35f5f"
         id="path57" />
    </g>
    <path
       d="m 371.75919,216.10895 0.38172,3.33839 c 8.65026,4.3688 17.43442,4.50863 28.11945,-1.73336 -0.87982,-0.20817 -1.11502,-0.70544 -1.24058,-1.25187 -8.47843,4.39792 -17.44143,5.7373 -27.26032,-0.35309 z"
       fill="#280b0b"
       fill-rule="evenodd"
       stroke="#280b0b"
       stroke-width="0.178944"
       id="path58" />
    <path
       d="m 405.54672,213.33814 c 0,1.6672 -1.36051,3.01878 -3.03884,3.01878 -1.67832,0 -3.03884,-1.35158 -3.03884,-3.01878 0,-1.66721 1.36052,-3.01879 3.03884,-3.01879 1.67833,0 3.03884,1.35158 3.03884,3.01879 z"
       id="path59"
       style="stroke-width:0.0700327" />
    <path
       d="m 409.07671,212.64256 c 0,1.66721 -1.36052,3.01879 -3.03884,3.01879 -1.67833,0 -3.03884,-1.35158 -3.03884,-3.01879 0,-1.6672 1.36051,-3.01878 3.03884,-3.01878 1.67832,0 3.03884,1.35158 3.03884,3.01878 z"
       id="path60"
       style="stroke-width:0.0700327" />
    <path
       d="m 409.46314,215.08336 c 0,1.6672 -1.36052,3.01879 -3.03884,3.01879 -1.67833,0 -3.03884,-1.35159 -3.03884,-3.01879 0,-1.66721 1.36051,-3.01879 3.03884,-3.01879 1.67832,0 3.03884,1.35158 3.03884,3.01879 z"
       id="path61"
       style="stroke-width:0.0700327" />
    <path
       d="m 403.68483,216.17474 c 0,1.06456 -1.04438,1.92759 -2.33273,1.92759 -1.28835,0 -2.33273,-0.86303 -2.33273,-1.92759 0,-1.06456 1.04438,-1.92759 2.33273,-1.92759 1.28835,0 2.33273,0.86303 2.33273,1.92759 z"
       id="path62"
       style="stroke-width:0.0490309" />
    <path
       d="m 406.51025,217.00831 c 0,1.66721 -1.04438,3.01879 -2.33273,3.01879 -1.28834,0 -2.33273,-1.35158 -2.33273,-3.01879 0,-1.6672 1.04439,-3.01879 2.33273,-3.01879 1.28835,0 2.33273,1.35159 2.33273,3.01879 z"
       id="path63"
       style="stroke-width:0.0613591" />
    <path
       d="m 374.22352,233.28841 c 0,3.18607 -2.56467,5.76898 -5.72843,5.76898 -3.16377,0 -5.72843,-2.58291 -5.72843,-5.76898 0,-3.18607 2.56466,-5.76898 5.72843,-5.76898 3.16376,0 5.72843,2.58291 5.72843,5.76898 z"
       id="path64"
       style="stroke-width:0.132922" />
    <path
       d="m 373.68393,233.39977 c 0,2.92516 -2.35458,5.29654 -5.25918,5.29654 -2.90461,0 -5.25919,-2.37138 -5.25919,-5.29654 0,-2.92516 2.35458,-5.29655 5.25919,-5.29655 2.9046,0 5.25918,2.37139 5.25918,5.29655 z"
       fill="#27282c"
       id="path65"
       style="stroke-width:0.122036" />
    <path
       d="m 367.77987,228.07567 c 0.14668,0 0.29139,0.008 0.43462,0.0225 -2.37375,0.24861 -4.23634,2.49328 -4.23634,5.21787 0,2.72459 1.86259,4.96373 4.23634,5.2123 -0.14325,0.0148 -0.28794,0.0225 -0.43462,0.0225 -2.57972,0 -4.67093,-2.34392 -4.67093,-5.23477 0,-2.89085 2.09121,-5.24034 4.67093,-5.24034 z"
       fill="#4c505a"
       id="path66"
       style="stroke-width:0.179734" />
    <path
       d="m 398.47607,234.4755 c 0,2.13345 -1.61742,3.86301 -3.61266,3.86301 -1.99524,0 -3.61266,-1.72956 -3.61266,-3.86301 0,-2.13345 1.61742,-3.86301 3.61266,-3.86301 1.99524,0 3.61266,1.72956 3.61266,3.86301 z"
       id="path67"
       style="stroke-width:0.0863788" />
    <path
       d="m 398.8265,234.3106 c 0,1.99183 -1.59722,3.60659 -3.56754,3.60659 -1.97033,0 -3.56754,-1.61476 -3.56754,-3.60659 0,-1.99184 1.59721,-3.60659 3.56754,-3.60659 1.97032,0 3.56754,1.61475 3.56754,3.60659 z"
       fill="#27282c"
       id="path68"
       style="stroke-width:0.0829399" />
    <g
       transform="matrix(0.1797344,0,0,0.1797344,337.73907,131.59496)"
       id="g71">
      <path
         transform="matrix(0.60861,-0.39501,0.29192,0.44977,-101.04,675.7)"
         d="m 629.83,223.03 c 0,29.01 -15.942,52.528 -35.608,52.528 -19.666,0 -35.608,-23.518 -35.608,-52.528 0,-29.01 15.942,-52.528 35.608,-52.528 19.666,0 35.608,23.518 35.608,52.528 z"
         id="path69" />
      <path
         transform="matrix(0.59224,-0.38988,0.28406,0.44393,-91.703,672.53)"
         d="m 629.83,223.03 c 0,29.01 -15.942,52.528 -35.608,52.528 -19.666,0 -35.608,-23.518 -35.608,-52.528 0,-29.01 15.942,-52.528 35.608,-52.528 19.666,0 35.608,23.518 35.608,52.528 z"
         fill="#9e220d"
         id="path70" />
      <path
         d="m 322.56,513.1 c 6.6598,1.6397 12.896,5.971 17.094,12.531 8.2365,12.872 5.4845,29.524 -6.1562,37.188 -4.229,2.784 -9.0544,3.9802 -13.875,3.7812 6.3994,1.5683 13.175,0.68982 18.875,-3.0625 11.641,-7.6633 14.393,-24.347 6.1562,-37.219 -5.238,-8.1859 -13.655,-12.86 -22.094,-13.219 z"
         fill="#f23109"
         id="path71" />
    </g>
    <path
       d="m 406.18973,234.21255 c 0,3.21136 -2.58498,5.81477 -5.77381,5.81477 -3.18882,0 -5.7738,-2.60341 -5.7738,-5.81477 0,-3.21136 2.58498,-5.81477 5.7738,-5.81477 3.18883,0 5.77381,2.60341 5.77381,5.81477 z"
       id="path72"
       style="stroke-width:0.133976" />
    <g
       transform="matrix(0.17568678,0,0,0.19102172,289.20377,140.08184)"
       id="g74">
      <path
         transform="matrix(0.89089,0,0,0.54103,103.33,372.62)"
         d="m 629.83,223.03 c 0,29.01 -15.942,52.528 -35.608,52.528 -19.666,0 -35.608,-23.518 -35.608,-52.528 0,-29.01 15.942,-52.528 35.608,-52.528 19.666,0 35.608,23.518 35.608,52.528 z"
         fill="#27282c"
         id="path73" />
      <path
         d="m 632.68,465.64 c -0.96061,0 -1.9082,0.0399 -2.8463,0.11763 15.546,1.3016 27.744,13.054 27.744,27.32 0,14.266 -12.198,25.989 -27.744,27.29 0.93813,0.0777 1.8857,0.11763 2.8463,0.11763 16.895,0 30.59,-12.272 30.59,-27.408 0,-15.136 -13.695,-27.437 -30.59,-27.437 z"
         fill="#4c505a"
         id="path74" />
    </g>
    <path
       d="m 397.95009,235.62451 c 0,1.27626 -1.09208,2.31085 -2.43918,2.31085 -1.34716,0 -2.43917,-1.03461 -2.43917,-2.31085 0,-1.27626 1.09208,-2.31084 2.43917,-2.31084 1.34717,0 2.43918,1.0346 2.43918,2.31084 z"
       fill="#27282c"
       id="path75"
       style="stroke-width:0.179734" />
    <path
       d="m 375.78384,234.98239 c 0,1.60417 -1.45621,2.90465 -3.2526,2.90465 -1.79638,0 -3.2526,-1.30048 -3.2526,-2.90465 0,-1.60416 1.45622,-2.90464 3.2526,-2.90464 1.79639,0 3.2526,1.30048 3.2526,2.90464 z"
       fill="#27282c"
       id="path76"
       style="stroke-width:0.071071" />
    <g
       transform="matrix(0.1797344,0,0,0.1797344,309.75262,154.96043)"
       id="g78">
      <path
         transform="rotate(7.1836)"
         d="m 432.79,300.4 h 10.714 a 13.571,14.286 0 0 1 13.571,14.286 13.571,14.286 0 0 1 -13.571,14.286 H 432.79 A 13.571,14.286 0 0 1 419.219,314.686 13.571,14.286 0 0 1 432.79,300.4"
         fill="#280b0b"
         id="path77" />
      <path
         d="m 375,349.5 -2.8438,29.281 42.844,7.5 3.5625,-32.844 -43.56,-3.94 z m 7,6.1562 27.812,2.5 -2.2812,21 -27.34,-4.78 1.81,-18.72 z"
         fill="url(#b)"
         fill-rule="evenodd"
         stroke="#000000"
         id="path78"
         style="fill:url(#b)" />
    </g>
    <path
       d="m 388.36845,198.42308 c -1.24374,0 -2.32612,0.70111 -2.88132,1.72995 -0.48665,-0.28837 -1.05183,-0.45495 -1.65694,-0.45495 -0.79719,0 -1.52668,0.28677 -2.09498,0.76388 -0.45809,-0.24527 -0.97871,-0.38755 -1.53335,-0.38755 -1.80903,0 -3.28016,1.47508 -3.28016,3.29705 0,0.055 0.003,0.10855 0.006,0.16288 -1.63553,0.1849 -2.90936,1.57829 -2.90954,3.27459 0,0.22179 0.0203,0.44196 0.0618,0.65153 -0.99018,0.47274 -1.70568,1.4292 -1.84785,2.56679 -0.36312,0.53133 -0.57291,1.17144 -0.57291,1.86474 0,1.82197 1.46545,3.30262 3.27458,3.30262 1.44728,0 2.67229,-0.95167 3.10599,-2.26357 0.0653,0.0671 0.13705,0.12967 0.20781,0.19097 -0.0346,0.19194 -0.0562,0.38799 -0.0562,0.58974 0,1.82197 1.47105,3.29705 3.28015,3.29705 1.15869,0 2.17496,-0.60731 2.75784,-1.52214 0.55873,1.01665 1.63537,1.70748 2.87018,1.70748 1.80903,0 3.28015,-1.4807 3.28015,-3.30262 0,-0.19887 -0.0226,-0.39491 -0.0562,-0.58414 1.48166,-0.31669 2.59482,-1.64352 2.595,-3.22964 0,-0.32374 -0.0484,-0.63669 -0.1348,-0.93237 1.52332,-0.28377 2.67912,-1.62498 2.67912,-3.2408 0,-0.61325 -0.17086,-1.18721 -0.46057,-1.6794 0.40029,-0.54729 0.64031,-1.22323 0.64031,-1.95461 0,-1.82197 -1.47107,-3.30262 -3.28016,-3.30262 -0.60302,0 -1.16577,0.16841 -1.65131,0.45494 -0.59508,-0.61249 -1.4247,-0.99977 -2.34211,-0.99977 z"
       id="path79"
       style="stroke-width:0.179734" />
    <path
       d="m 408.9746,216.32368 c -0.66516,1.25571 -2.02661,1.90596 -3.04088,1.45232 -1.01426,-0.45364 -1.29723,-1.83936 -0.63207,-3.09507 0.66516,-1.25571 2.0266,-1.90596 3.04087,-1.45232 1.01427,0.45363 1.29724,1.83936 0.63208,3.09507 z"
       fill="#e3c0a7"
       id="path80"
       style="stroke-width:0.0525484" />
    <path
       d="m 406.31256,217.11462 c 0,1.54029 -0.98215,2.78899 -2.19372,2.78899 -1.21157,0 -2.19372,-1.2487 -2.19372,-2.78899 0,-1.5403 0.98215,-2.789 2.19372,-2.789 1.21157,0 2.19372,1.2487 2.19372,2.789 z"
       fill="#e3c0a7"
       stroke="#000000"
       stroke-width="0.208847"
       id="path81" />
    <path
       d="m 406.31386,216.5408 c 0.0889,1.56443 -0.7802,2.88623 -1.94133,2.95225 -1.16113,0.066 -2.17451,-1.14871 -2.26346,-2.71315 -0.089,-1.56444 0.7802,-2.88623 1.94133,-2.95226 1.16113,-0.066 2.17451,1.14872 2.26346,2.71316 z"
       fill="#e3c0a7"
       id="path82"
       style="stroke-width:0.0565183" />
    <path
       d="m 401.49366,213.80691 c 1.51485,-0.4006 2.98395,0.18607 3.28129,1.31041 0.29733,1.12434 -0.6897,2.36053 -2.20455,2.76113 -1.51486,0.4006 -2.98395,-0.18607 -3.28129,-1.31041 -0.29734,-1.12434 0.6897,-2.36053 2.20455,-2.76113 z"
       fill="#e3c0a7"
       id="path83"
       style="stroke-width:0.0565171" />
    <path
       d="m 408.97426,212.7558 c 0,1.6672 -1.36052,3.01878 -3.03884,3.01878 -1.67833,0 -3.03884,-1.35158 -3.03884,-3.01878 0,-1.66721 1.36051,-3.01879 3.03884,-3.01879 1.67832,0 3.03884,1.35158 3.03884,3.01879 z"
       fill="#e3c0a7"
       id="path84"
       style="stroke-width:0.0700327" />
    <path
       d="m 405.65996,213.43699 c 0,1.66721 -1.36052,3.01879 -3.03884,3.01879 -1.67833,0 -3.03884,-1.35158 -3.03884,-3.01879 0,-1.66721 1.36051,-3.01879 3.03884,-3.01879 1.67832,0 3.03884,1.35158 3.03884,3.01879 z"
       fill="#e3c0a7"
       id="path85"
       style="stroke-width:0.0700327" />
    <path
       d="m 395.25464,202.12763 c 0,1.54978 -1.3055,2.80617 -2.91596,2.80617 -1.61046,0 -2.91596,-1.25639 -2.91596,-2.80617 0,-1.54979 1.3055,-2.80618 2.91596,-2.80618 1.61046,0 2.91596,1.25639 2.91596,2.80618 z"
       fill="#fafafb"
       stroke="#f1f3ed"
       stroke-linecap="round"
       stroke-linejoin="round"
       stroke-width="0.358722"
       id="path86" />
    <path
       d="m 395.08928,205.90385 c 0,1.54978 -1.3055,2.80617 -2.91596,2.80617 -1.61046,0 -2.91596,-1.25639 -2.91596,-2.80617 0,-1.54979 1.3055,-2.80618 2.91596,-2.80618 1.61046,0 2.91596,1.25639 2.91596,2.80618 z"
       fill="#fafafb"
       stroke="#f1f3ed"
       stroke-linecap="round"
       stroke-linejoin="round"
       stroke-width="0.358722"
       id="path87" />
    <path
       d="m 392.45617,210.14019 c 0,1.54978 -1.3055,2.80617 -2.91596,2.80617 -1.61046,0 -2.91596,-1.25639 -2.91596,-2.80617 0,-1.54979 1.3055,-2.80618 2.91596,-2.80618 1.61046,0 2.91596,1.25639 2.91596,2.80618 z"
       fill="#fafafb"
       stroke="#f1f3ed"
       stroke-linecap="round"
       stroke-linejoin="round"
       stroke-width="0.358722"
       id="path88" />
    <path
       d="m 389.95247,213.9919 c 0,1.54978 -1.3055,2.80617 -2.91596,2.80617 -1.61046,0 -2.91596,-1.25639 -2.91596,-2.80617 0,-1.54979 1.3055,-2.80618 2.91596,-2.80618 1.61046,0 2.91596,1.25639 2.91596,2.80618 z"
       fill="#fafafb"
       stroke="#f1f3ed"
       stroke-linecap="round"
       stroke-linejoin="round"
       stroke-width="0.358722"
       id="path89" />
    <path
       d="m 384.43283,213.79958 c 0,1.54979 -1.3055,2.80617 -2.91596,2.80617 -1.61046,0 -2.91596,-1.25638 -2.91596,-2.80617 0,-1.54979 1.3055,-2.80618 2.91596,-2.80618 1.61046,0 2.91596,1.25639 2.91596,2.80618 z"
       fill="#fafafb"
       stroke="#f1f3ed"
       stroke-linecap="round"
       stroke-linejoin="round"
       stroke-width="0.358722"
       id="path90" />
    <path
       d="m 377.8204,211.93753 c 0,1.54979 -1.3055,2.80618 -2.91596,2.80618 -1.61046,0 -2.91596,-1.25639 -2.91596,-2.80618 0,-1.54978 1.3055,-2.80617 2.91596,-2.80617 1.61046,0 2.91596,1.25639 2.91596,2.80617 z"
       fill="#fafafb"
       stroke="#f1f3ed"
       stroke-linecap="round"
       stroke-linejoin="round"
       stroke-width="0.358722"
       id="path91" />
    <path
       d="m 378.39915,210.3325 c 0,1.54979 -1.3055,2.80618 -2.91596,2.80618 -1.61046,0 -2.91596,-1.25639 -2.91596,-2.80618 0,-1.54978 1.3055,-2.80617 2.91596,-2.80617 1.61046,0 2.91596,1.25639 2.91596,2.80617 z"
       fill="#fafafb"
       stroke="#f1f3ed"
       stroke-linecap="round"
       stroke-linejoin="round"
       stroke-width="0.358722"
       id="path92" />
    <path
       d="m 380.2612,206.73782 c 0,1.54978 -1.3055,2.80617 -2.91596,2.80617 -1.61046,0 -2.91596,-1.25639 -2.91596,-2.80617 0,-1.54979 1.3055,-2.80618 2.91596,-2.80618 1.61046,0 2.91596,1.25639 2.91596,2.80618 z"
       fill="#fafafb"
       stroke="#f1f3ed"
       stroke-linecap="round"
       stroke-linejoin="round"
       stroke-width="0.358722"
       id="path93" />
    <path
       d="m 383.14953,203.27074 c 0,1.54978 -1.3055,2.80617 -2.91596,2.80617 -1.61046,0 -2.91596,-1.25639 -2.91596,-2.80617 0,-1.54979 1.3055,-2.80618 2.91596,-2.80618 1.61046,0 2.91596,1.25639 2.91596,2.80618 z"
       fill="#fafafb"
       stroke="#f1f3ed"
       stroke-linecap="round"
       stroke-linejoin="round"
       stroke-width="0.358722"
       id="path94" />
    <path
       d="m 386.80712,202.8214 c 0,1.54979 -1.3055,2.80618 -2.91596,2.80618 -1.61046,0 -2.91596,-1.25639 -2.91596,-2.80618 0,-1.54978 1.3055,-2.80617 2.91596,-2.80617 1.61046,0 2.91596,1.25639 2.91596,2.80617 z"
       fill="#fafafb"
       stroke="#f1f3ed"
       stroke-linecap="round"
       stroke-linejoin="round"
       stroke-width="0.358722"
       id="path95" />
    <path
       d="m 391.23758,201.5381 c 0,1.54978 -1.3055,2.80617 -2.91596,2.80617 -1.61046,0 -2.91596,-1.25639 -2.91596,-2.80617 0,-1.54979 1.3055,-2.80618 2.91596,-2.80618 1.61046,0 2.91596,1.25639 2.91596,2.80618 z"
       fill="#fafafb"
       stroke="#f1f3ed"
       stroke-linecap="round"
       stroke-linejoin="round"
       stroke-width="0.358722"
       id="path96" />
    <path
       d="m 390.40181,205.19749 c 0,1.54979 -1.3055,2.80618 -2.91596,2.80618 -1.61046,0 -2.91596,-1.25639 -2.91596,-2.80618 0,-1.54978 1.3055,-2.80617 2.91596,-2.80617 1.61046,0 2.91596,1.25639 2.91596,2.80617 z"
       fill="#fafafb"
       stroke="#f1f3ed"
       stroke-linecap="round"
       stroke-linejoin="round"
       stroke-width="0.358722"
       id="path97" />
    <path
       d="m 387.89991,209.75556 c 0,1.54978 -1.3055,2.80617 -2.91596,2.80617 -1.61046,0 -2.91596,-1.25639 -2.91596,-2.80617 0,-1.54979 1.3055,-2.80618 2.91596,-2.80618 1.61046,0 2.91596,1.25639 2.91596,2.80618 z"
       fill="#fafafb"
       stroke="#f1f3ed"
       stroke-linecap="round"
       stroke-linejoin="round"
       stroke-width="0.358722"
       id="path98" />
    <path
       d="m 385.3315,206.28848 c 0,1.54978 -1.3055,2.80617 -2.91596,2.80617 -1.61046,0 -2.91596,-1.25639 -2.91596,-2.80617 0,-1.54979 1.3055,-2.80618 2.91596,-2.80618 1.61046,0 2.91596,1.25639 2.91596,2.80618 z"
       fill="#fafafb"
       stroke="#f1f3ed"
       stroke-linecap="round"
       stroke-linejoin="round"
       stroke-width="0.358722"
       id="path99" />
    <path
       d="m 382.89251,210.39721 c 0,1.54978 -1.3055,2.80617 -2.91596,2.80617 -1.61046,0 -2.91596,-1.25639 -2.91596,-2.80617 0,-1.54979 1.3055,-2.80618 2.91596,-2.80618 1.61046,0 2.91596,1.25639 2.91596,2.80618 z"
       fill="#fafafb"
       stroke="#f1f3ed"
       stroke-linecap="round"
       stroke-linejoin="round"
       stroke-width="0.358722"
       id="path100" />
    <g
       transform="matrix(0.15721728,0,0,0.1797344,299.33665,145.84538)"
       id="g104">
      <path
         transform="matrix(0.44865,0.39034,-0.4292,0.34039,370.06,-30.291)"
         d="m 629.83,223.03 c 0,29.01 -15.942,52.528 -35.608,52.528 -19.666,0 -35.608,-23.518 -35.608,-52.528 0,-29.01 15.942,-52.528 35.608,-52.528 19.666,0 35.608,23.518 35.608,52.528 z"
         fill="#e3c0a7"
         stroke="#000000"
         stroke-width="3.1048"
         id="path101" />
      <path
         d="m 547.5,255.43 c -7.3757,0.18634 -15.532,3.1236 -22.248,8.5457 -11.941,9.6392 -14.758,23.546 -6.2966,31.039 1.211,1.0724 2.5724,1.9572 4.0778,2.6553 l -0.20989,-0.18312 c -8.4612,-7.4933 -5.644,-21.4 6.2966,-31.039 10.213,-8.2445 23.789,-10.709 32.802,-6.5619 -3.6858,-3.1239 -8.8172,-4.5976 -14.422,-4.456 z"
         fill="#eed6cc"
         id="path102" />
      <path
         d="m 567.02,266.91 c -0.35305,6.4465 -4.234,13.549 -11.276,19.204 -12.103,9.72 -28.897,11.495 -37.474,3.9393 -2.2558,-1.9874 -3.6938,-4.4233 -4.4069,-7.1093 -0.25379,4.634 1.3064,8.9042 4.8932,12.064 8.5764,7.556 25.371,5.8114 37.474,-3.9086 8.9199,-7.1634 12.787,-16.664 10.789,-24.19 z"
         fill="#c8b7b7"
         id="path103" />
      <path
         transform="matrix(1.7209,0,0,1.6667,-377.86,-180.5)"
         d="m 540.94,276.82 c 0,5.4394 -4.8618,9.849 -10.859,9.849 -5.9973,0 -10.859,-4.4095 -10.859,-9.849 0,-5.4394 4.8618,-9.849 10.859,-9.849 5.9973,0 10.859,4.4095 10.859,9.849 z"
         fill="url(#a)"
         filter="url(#e)"
         opacity="0.85502"
         id="path104"
         style="fill:url(#a)" />
    </g>
  </g>
</svg>
