<svg
  xmlns="http://www.w3.org/2000/svg"
  viewBox="0 0 100 100"
  height="1"
  width="1"
>
  <path
    d="M 50,60.646391 12.737609,97.90872 Q 10.646391,100 7.414412,100 4.1825,100 2.091218,97.90872 0,95.8175 0,92.58559 0,89.35361 2.091218,87.26239 L 39.353609,50 2.091218,12.737609 Q 0,10.646391 0,7.414412 0,4.1825 2.091218,2.091218 4.1825,0 7.414412,0 10.646391,0 12.737609,2.091218 L 50,39.353609 87.26239,2.091218 Q 89.35361,0 92.58559,0 95.8175,0 97.90872,2.091218 100,4.1825 100,7.414412 q 0,3.231979 -2.09128,5.323197 L 60.646391,50 97.90872,87.26239 Q 100,89.35361 100,92.58559 100,95.8175 97.90872,97.90872 95.8175,100 92.58559,100 q -3.23198,0 -5.3232,-2.09128 z"
  />
</svg>
