<?xml version="1.0" encoding="UTF-8" standalone="no"?>
<svg
   width="32"
   height="32"
   viewBox="0 0 99.999741 100.00025"
   version="1.1"
   id="svg1"
   sodipodi:docname="dogEarsOffIcon.svg"
   inkscape:version="1.3.2 (091e20e, 2023-11-25, custom)"
   inkscape:export-filename="dogEarsOffIcon.png"
   inkscape:export-xdpi="96"
   inkscape:export-ydpi="96"
   xmlns:inkscape="http://www.inkscape.org/namespaces/inkscape"
   xmlns:sodipodi="http://sodipodi.sourceforge.net/DTD/sodipodi-0.dtd"
   xmlns="http://www.w3.org/2000/svg"
   xmlns:svg="http://www.w3.org/2000/svg">
  <defs
     id="defs1" />
  <sodipodi:namedview
     id="namedview1"
     pagecolor="#ffffff"
     bordercolor="#000000"
     borderopacity="0.25"
     inkscape:showpageshadow="2"
     inkscape:pageopacity="0.0"
     inkscape:pagecheckerboard="0"
     inkscape:deskcolor="#d1d1d1"
     inkscape:document-units="in"
     inkscape:zoom="16.000001"
     inkscape:cx="5.3437498"
     inkscape:cy="17.968749"
     inkscape:window-width="1904"
     inkscape:window-height="993"
     inkscape:window-x="52"
     inkscape:window-y="0"
     inkscape:window-maximized="0"
     inkscape:current-layer="svg1" />
  <path
     id="path4-2"
     style="fill:none;stroke:#fff;stroke-width:3.01563254;stroke-dasharray:none;stroke-opacity:1;stroke-linejoin:round;stroke-linecap:round"
     d="m 83.7987,35.16048 h 7.067888 l 0.250245,1.062014 c 0,0 0.86569,3.701669 1.074221,4.791272 0.208519,1.089603 0.317384,1.708989 0.317384,1.708989 0,0 0.110125,0.653316 0.158692,0.982668 0.04847,0.329351 0.104087,0.636464 0.164795,1.080325 0.06081,0.443869 0.136796,1.09275 0.170899,1.66016 0.03408,0.567403 -0.05194,1.505354 -0.06104,1.739507 -0.0086,0.234161 -0.07314,0.833806 -0.372316,1.843266 -0.299204,1.009462 -0.807542,2.259632 -2.28272,3.228768 -0.591892,0.390255 -1.07405,0.575116 -1.66016,0.738527 -0.5861,0.163412 -1.101964,0.312886 -2.197272,0.286866 -0.755797,-0.01688 -1.229371,0.0094 -2.606207,-0.738527 C 82.446235,52.796486 80.81199,50.917617 80.063334,49.99206 79.314713,49.066509 79.171337,48.893672 78.72666,48.344107 78.281984,47.794548 77.889849,47.288688 77.396091,46.696153 76.902332,46.103608 75.760344,44.791852 75.760344,44.791852 l -2.288824,-2.563483 -1.104739,-1.177982 -0.84839,-0.91553 -0.665285,-0.732423 -0.720217,-0.81177 -0.860598,-0.952151 -1.01929,-1.043703 -1.24512,-1.184085 c 0,0 -0.23821,-0.190655 -0.31128,-0.250245 h 7.72707 v 0 m 11.797166,-0.0045 H 72.629201 m -2.944966,2.952008 c -0.124207,0.117522 -0.245767,0.231711 -0.364195,0.342011 -1.52317,1.418645 -2.969896,2.656848 -3.991709,3.472909 -1.021804,0.816076 -1.874694,1.464304 -2.008062,1.562504 -0.133311,0.09821 -0.827492,0.488361 -1.116946,0.537111 -0.289431,0.04879 -0.799477,-0.04744 -1.464848,-0.317384 -0.665408,-0.269937 -2.96545,-1.38799 -3.308113,-2.288824 -0.342639,-0.900831 0.454066,-1.204102 0.83008,-1.43433 0.375914,-0.230252 0.969817,-0.654674 1.275638,-0.854494 0.305852,-0.199803 0.508765,-0.325194 0.793459,-0.5188 0.284683,-0.193623 0.582674,-0.425992 0.909426,-0.634767 0.326777,-0.208788 0.632584,-0.448215 1.055911,-0.756838 0.423271,-0.308635 0.995661,-0.705896 1.489261,-1.098636 0.391019,-0.311151 0.905398,-0.730995 1.184085,-0.958254 v 0 l 1.739507,-10e-7 M 86.54914,54.337978 c 0.03075,0.43306 0.07866,0.892549 0.159859,1.372848 0.193965,1.147214 0.536125,3.351371 0.878909,4.931653 0.342798,1.580303 0.791405,2.837132 0.250245,3.863535 -0.182113,0.344597 -0.453561,0.566455 -1.690678,-0.04883 -1.237115,-0.615331 -2.359143,-1.881771 -3.912364,-3.59498 0,0 -1.148237,-1.652865 -1.483158,-2.233892 -0.334919,-0.581065 -0.526118,-0.99052 -0.64087,-1.354984 -0.114756,-0.364474 -0.332174,-1.152506 -0.439455,-1.611332 -0.107318,-0.45881 -0.324799,-1.857705 -0.451661,-2.777107 -0.126813,-0.919405 -0.234385,-1.947174 -0.250245,-2.539069 -0.01196,-0.479076 -0.03663,-1.029267 -0.02288,-1.562292 M 16.201041,35.159105 H 9.1331534 l -0.250245,1.062014 c 0,0 -0.8656902,3.701669 -1.0742212,4.791272 -0.208519,1.089603 -0.317384,1.708989 -0.317384,1.708989 0,0 -0.110125,0.653316 -0.158692,0.982668 -0.04847,0.329351 -0.104087,0.636464 -0.164795,1.080325 -0.06081,0.443869 -0.136796,1.09275 -0.170899,1.66016 -0.03408,0.567403 0.05194,1.505354 0.06104,1.739507 0.0086,0.234161 0.07314,0.833806 0.372316,1.843266 0.299204,1.009462 0.807542,2.259632 2.2827202,3.228768 0.5918926,0.390255 1.0740506,0.575116 1.6601606,0.738527 0.586099,0.163412 1.101963,0.312886 2.197271,0.286866 0.755797,-0.01688 1.229371,0.0094 2.606207,-0.738527 1.376874,-0.747829 3.011119,-2.626698 3.759775,-3.552255 0.748621,-0.925551 0.891997,-1.098388 1.336674,-1.647953 0.444676,-0.549559 0.836811,-1.055419 1.330569,-1.647954 0.493759,-0.592545 1.635747,-1.904301 1.635747,-1.904301 l 2.288824,-2.563483 1.104739,-1.177982 0.84839,-0.91553 0.665285,-0.732423 0.720217,-0.81177 0.860598,-0.952151 1.01929,-1.043703 1.24512,-1.184085 c 0,0 0.23821,-0.190655 0.31128,-0.250245 h -7.72707 v 0 m -11.797166,-0.0045 H 27.37054 m 2.944966,2.952008 c 0.124207,0.117522 0.245767,0.231711 0.364195,0.342011 1.52317,1.418645 2.969896,2.656848 3.991709,3.472909 1.021804,0.816076 1.874694,1.464304 2.008062,1.562504 0.133311,0.09821 0.827492,0.488361 1.116946,0.537111 0.289431,0.04879 0.799477,-0.04744 1.464848,-0.317384 0.665408,-0.269937 2.96545,-1.38799 3.308113,-2.288824 0.342639,-0.900831 -0.454066,-1.204102 -0.83008,-1.43433 -0.375914,-0.230252 -0.969817,-0.654674 -1.275638,-0.854494 -0.305852,-0.199803 -0.508765,-0.325194 -0.793459,-0.5188 -0.284683,-0.193623 -0.582674,-0.425992 -0.909426,-0.634767 -0.326777,-0.208788 -0.632584,-0.448215 -1.055911,-0.756838 -0.423271,-0.308635 -0.995661,-0.705896 -1.489261,-1.098636 -0.391019,-0.311151 -0.905398,-0.730995 -1.184085,-0.958254 v 0 l -1.739507,-1e-6 M 13.450601,54.336603 c -0.03075,0.43306 -0.07866,0.892549 -0.159859,1.372848 -0.193965,1.147214 -0.536125,3.351371 -0.878909,4.931653 -0.342798,1.580303 -0.791404,2.837132 -0.250245,3.863535 0.182113,0.344597 0.453561,0.566455 1.690678,-0.04883 1.237115,-0.615331 2.359143,-1.881771 3.912364,-3.59498 0,0 1.148237,-1.652865 1.483158,-2.233892 0.334919,-0.581065 0.526118,-0.99052 0.64087,-1.354984 0.114756,-0.364474 0.332174,-1.152506 0.439455,-1.611332 0.107318,-0.45881 0.324799,-1.857705 0.451661,-2.777107 0.126813,-0.919405 0.234385,-1.947174 0.250245,-2.539069 0.01196,-0.479076 0.03663,-1.029267 0.02288,-1.562292" />
</svg>
