<?xml version="1.0" encoding="UTF-8" standalone="no"?>
<svg
   width="32"
   height="32"
   viewBox="0 0 23.999996 23.999941"
   version="1.1"
   id="svg1"
   sodipodi:docname="glassesOffIcon.svg"
   inkscape:version="1.3.2 (091e20e, 2023-11-25, custom)"
   xmlns:inkscape="http://www.inkscape.org/namespaces/inkscape"
   xmlns:sodipodi="http://sodipodi.sourceforge.net/DTD/sodipodi-0.dtd"
   xmlns="http://www.w3.org/2000/svg"
   xmlns:svg="http://www.w3.org/2000/svg">
  <defs
     id="defs1" />
  <sodipodi:namedview
     id="namedview1"
     pagecolor="#ffffff"
     bordercolor="#000000"
     borderopacity="0.25"
     inkscape:showpageshadow="2"
     inkscape:pageopacity="0.0"
     inkscape:pagecheckerboard="0"
     inkscape:deskcolor="#d1d1d1"
     inkscape:document-units="in"
     inkscape:zoom="15.60309"
     inkscape:cx="15.285434"
     inkscape:cy="16.182692"
     inkscape:window-width="1920"
     inkscape:window-height="1009"
     inkscape:window-x="-8"
     inkscape:window-y="-8"
     inkscape:window-maximized="1"
     inkscape:current-layer="svg1" />
  <path
     id="Selection"
     fill="none"
     stroke="#fff"
     stroke-width="0.0578533"
     d="m 0.77892668,8.5283632 c 0,0 0.92332582,-0.1058709 0.92332582,-0.1058709 0,0 1.7355749,-0.1255397 1.7355749,-0.1255397 0,0 0.8677876,-0.057853 0.8677876,-0.057853 0,0 2.2562473,0 2.2562473,0 0.7248918,0.00113 2.195503,0.2481872 2.8926254,0.4639772 0,0 1.2727563,0.5073668 1.2727563,0.5073668 0.26438,0.07811 1.091676,0.1313244 1.388456,0.1278533 0.190339,-0.0023 0.932008,-0.07058 1.099197,-0.118019 0,0 1.330612,-0.5172011 1.330612,-0.5172011 0.697118,-0.21579 2.16773,-0.4628204 2.892626,-0.4639772 0,0 2.198395,0 2.198395,0 0,0 0.867785,0.057853 0.867785,0.057853 0,0 1.793428,0.1255397 1.793428,0.1255397 0,0 0.923326,0.1058709 0.923326,0.1058709 0,0 0,0.8677873 0,0.8677873 0,0 -0.05551,0.5206727 -0.05551,0.5206727 -0.621913,0.2441368 -0.639849,0.6433198 -0.752081,1.2149018 0,0 -0.388772,1.735577 -0.388772,1.735577 -0.174162,0.583153 -0.418879,1.255978 -0.798391,1.735575 -0.821499,1.040185 -1.988386,1.170928 -3.209653,1.157044 -1.069698,-0.01275 -2.603946,-0.393975 -3.410987,-1.116553 -0.36563,-0.327441 -0.790264,-0.996797 -1.043084,-1.428956 -0.232564,-0.398597 -0.506203,-1.058119 -0.628274,-1.504162 -0.130748,-0.477283 -0.184547,-1.011261 -0.760762,-1.158207 -0.351741,-0.08967 -0.693649,0.108763 -0.876464,0.406125 -0.111659,0.181078 -0.194962,0.636377 -0.26439,0.867788 -0.1238,0.410752 -0.379511,1.018781 -0.595297,1.388456 -0.252817,0.432159 -0.6774545,1.101515 -1.0430826,1.428956 C 8.5872797,15.365946 7.0530318,15.747199 5.9833385,15.759921 4.7620725,15.773796 3.5951869,15.643062 2.773682,14.602877 2.3941687,14.12328 2.1494531,13.450455 1.9753171,12.867302 c 0,0 -0.3887689,-1.735577 -0.3887689,-1.735577 -0.1104985,-0.571582 -0.1324819,-0.971922 -0.75208213,-1.2149018 0,0 -0.0555376,-0.5206727 -0.0555376,-0.5206727 z M 4.5370246,8.9414295 C 3.8115544,9.0606064 3.0640997,9.2191213 2.6070657,9.8589699 2.3010251,10.2865 2.3380511,10.696675 2.3386295,11.189578 c 0.00178,1.143162 0.4489358,2.699393 1.3907746,3.417349 0.5004241,0.381825 1.2843251,0.566954 1.9068185,0.574472 0.9482027,0.01097 2.2799672,-0.200747 3.0661824,-0.754397 1.0685353,-0.752662 1.518629,-2.218641 1.504166,-3.468834 -0.0029,-0.23546 -0.03297,-0.468027 -0.1024,-0.69423 C 9.905737,9.621775 9.3792793,9.2908589 8.7602576,9.1155654 7.8375097,8.8552292 6.874845,8.9333304 5.9254852,8.9414295 Z m 11.5126474,0 c -0.630592,0.1047131 -1.391927,0.2481873 -1.83913,0.7462974 -0.418852,0.4668701 -0.42406,1.0876271 -0.417115,1.6754081 0.01154,0.981183 0.497529,2.06707 1.166881,2.774602 0.658365,0.696553 2.11856,1.032674 3.056349,1.043662 0.695965,0.0084 1.411023,-0.06712 2.024839,-0.425212 0.311246,-0.18166 0.498689,-0.392241 0.714477,-0.673988 0.711586,-0.929691 0.907128,-2.038718 0.905391,-3.181884 -5.95e-4,-0.240666 0.0031,-0.400917 -0.07055,-0.636377 C 21.414336,9.7004549 20.97292,9.3834233 20.446462,9.1763106 19.600659,8.8442379 18.30303,8.9333304 17.380281,8.9414295 Z"
     style="stroke-width:0.46874992;stroke-dasharray:none" />
  <path
     style="fill:none;stroke:#fff;stroke-width:0.46875;stroke-linecap:round;stroke-linejoin:round;stroke-dasharray:none;stroke-opacity:1"
     d="m 3.5810209,10.214294 3.7732903,3.77329"
     id="path2" />
  <path
     style="fill:none;stroke:#fff;stroke-width:0.46875;stroke-linecap:round;stroke-linejoin:round;stroke-dasharray:none;stroke-opacity:1"
     d="M 5.4140764,9.8320365 8.7496968,13.167657"
     id="path2-9" />
  <path
     style="fill:none;stroke:#fff;stroke-width:0.46875;stroke-linecap:round;stroke-linejoin:round;stroke-dasharray:none;stroke-opacity:1"
     d="m 3.3233583,12.044837 2.3414776,2.341476"
     id="path2-8" />
  <path
     style="fill:none;stroke:#fff;stroke-width:0.46875;stroke-linecap:round;stroke-linejoin:round;stroke-dasharray:none;stroke-opacity:1"
     d="m 7.2079629,9.6692825 2.124656,2.1246555"
     id="path2-8-5" />
  <path
     style="fill:none;stroke:#fff;stroke-width:0.46875;stroke-linecap:round;stroke-linejoin:round;stroke-dasharray:none;stroke-opacity:1"
     d="m 20.42824,10.216919 -3.77329,3.77329"
     id="path2-2" />
  <path
     style="fill:none;stroke:#fff;stroke-width:0.46875;stroke-linecap:round;stroke-linejoin:round;stroke-dasharray:none;stroke-opacity:1"
     d="M 18.595185,9.8346619 15.259564,13.170282"
     id="path2-9-7" />
  <path
     style="fill:none;stroke:#fff;stroke-width:0.46875;stroke-linecap:round;stroke-linejoin:round;stroke-dasharray:none;stroke-opacity:1"
     d="m 20.685903,12.047462 -2.341478,2.341476"
     id="path2-8-3" />
  <path
     style="fill:none;stroke:#fff;stroke-width:0.46875;stroke-linecap:round;stroke-linejoin:round;stroke-dasharray:none;stroke-opacity:1"
     d="M 16.801298,9.6719076 14.676642,11.796563"
     id="path2-8-5-9" />
</svg>
