<svg
  xmlns="http://www.w3.org/2000/svg"
  viewBox="0 -960 960 960"
  height="1px"
  width="1px"
>
  <path
    style="stroke-width:1.26324"
    d="m 175.08002,-73.44 q -21.59848,0 -36.20927,-14.610775 Q 124.26,-102.66148 124.26,-124.26005 V -429.18002 H 73.44004 q -21.598547,0 -36.209234,-14.61079 -14.610786,-14.61068 -14.610786,-36.20923 0,-21.59849 14.610786,-36.20924 Q 51.841493,-530.82 73.44004,-530.82 h 203.27993 q 21.59855,0 36.20927,14.61072 14.61076,14.61075 14.61076,36.20924 0,21.59855 -14.61076,36.20923 -14.61072,14.61079 -36.20927,14.61079 h -50.81992 v 304.91997 q 0,21.59857 -14.61079,36.209275 Q 196.67848,-73.44 175.08002,-73.44 Z m 0,-559.02005 q -21.59848,0 -36.20927,-14.61069 Q 124.26,-661.68152 124.26,-683.27997 v -152.46001 q 0,-21.59855 14.61075,-36.20923 14.61079,-14.61079 36.20927,-14.61079 21.59846,0 36.20924,14.61079 14.61079,14.61068 14.61079,36.20923 v 152.46001 q 0,21.59845 -14.61079,36.20923 -14.61078,14.61069 -36.20924,14.61069 z m 203.28,0 q -21.59855,0 -36.20924,-14.61069 -14.61078,-14.61078 -14.61078,-36.20923 0,-21.59855 14.61078,-36.20927 Q 356.76147,-734.1 378.36002,-734.1 h 50.81996 v -101.63998 q 0,-21.59855 14.61078,-36.20923 Q 458.40152,-886.56 480,-886.56 q 21.59848,0 36.20924,14.61079 14.61078,14.61068 14.61078,36.20923 V -734.1 h 50.81996 q 21.59855,0 36.20924,14.61076 14.61078,14.61072 14.61078,36.20927 0,21.59845 -14.61078,36.20923 -14.61069,14.61069 -36.20924,14.61069 z M 480,-73.44 q -21.59848,0 -36.20924,-14.610775 -14.61078,-14.610705 -14.61078,-36.209275 v -355.73999 q 0,-21.59849 14.61078,-36.20924 Q 458.40152,-530.82 480,-530.82 q 21.59848,0 36.20924,14.61072 14.61078,14.61075 14.61078,36.20924 v 355.73999 q 0,21.59857 -14.61078,36.209275 Q 501.59848,-73.44 480,-73.44 Z m 304.91998,0 q -21.59846,0 -36.20924,-14.610775 -14.61079,-14.610705 -14.61079,-36.209275 v -101.63994 h -50.81992 q -21.59855,0 -36.20927,-14.61079 -14.61076,-14.61078 -14.61076,-36.20924 0,-21.59848 14.61076,-36.20927 14.61072,-14.61075 36.20927,-14.61075 h 203.27993 q 21.59859,0 36.2093,14.61075 14.61072,14.61079 14.61072,36.20927 0,21.59846 -14.61072,36.20924 -14.61071,14.61079 -36.2093,14.61079 H 835.74 v 101.63994 q 0,21.59857 -14.61075,36.209275 Q 806.51846,-73.44 784.91998,-73.44 Z m 0,-355.74002 q -21.59846,0 -36.20924,-14.61079 -14.61079,-14.61068 -14.61079,-36.20923 v -355.73994 q 0,-21.59855 14.61079,-36.20923 14.61078,-14.61079 36.20924,-14.61079 21.59848,0 36.20927,14.61079 14.61075,14.61068 14.61075,36.20923 v 355.73994 q 0,21.59855 -14.61075,36.20923 -14.61079,14.61079 -36.20927,14.61079 z"
  />
</svg>
