<svg
  xmlns="http://www.w3.org/2000/svg"
  viewBox="0 -960 960 960"
  height="1px"
  width="1px"
>
  <path
    style="fill:none;stroke-width:81.1802;stroke-linecap:round;"
    d="m 859.40989,-270.12847 a 73.787171,73.787128 0 0 1 -73.78707,73.78714 73.787171,73.787128 0 0 1 -73.78713,-73.78714 73.787171,73.787128 0 0 1 73.78713,-73.78722 73.787171,73.787128 0 0 1 73.78707,73.78722 z M 554.98634,-692.68964 a 73.787171,73.787128 0 0 1 -73.78722,73.78714 73.787171,73.787128 0 0 1 -73.78724,-73.78714 73.787171,73.787128 0 0 1 73.78724,-73.78705 73.787171,73.787128 0 0 1 73.78722,73.78705 z m -306.82199,224.93303 a 73.787171,73.787128 0 0 1 -73.78712,73.78713 73.787171,73.787128 0 0 1 -73.78712,-73.78713 73.787171,73.787128 0 0 1 73.78712,-73.78702 73.787171,73.787128 0 0 1 73.78712,73.78702 z" 
  />
  <path
    style="fill:none;stroke-width:101.473;stroke-linecap:round;"
    d="m 477.48165,-835.74449 v 46.53045 m -304.37602,-46.42634 v 153.15271 m 608.4033,-153.34567 v 356.28399 m 0.28127,308.25525 v 46.53045 M 173.25598,-367.31084 v 242.45041 m 304.03846,-354.93592 v 355.62969" 
  />
</svg>
