<svg
  xmlns="http://www.w3.org/2000/svg"
  viewBox="0 0 100 100"
  height="1"
  width="1"
>
  <path
    d="m 39.444445,97.5 q -8.70833,0 -14.90972,-6.20139 -6.20139,-6.20139 -6.20139,-14.90972 0,-8.70833 6.20139,-14.90972 6.20139,-6.20139 14.90972,-6.20139 3.03472,0 5.60764,0.72569 2.57292,0.7257 4.94792,2.17709 V 7.77778 q 0,-2.24306 1.51736,-3.76042 Q 53.034725,2.5 55.277775,2.5 h 21.11112 q 2.24305,0 3.76041,1.51736 1.51736,1.51736 1.51736,3.76042 v 10.55555 q 0,2.24306 -1.51736,3.76042 -1.51736,1.51736 -3.76041,1.51736 h -15.83334 v 52.77778 q 0,8.70833 -6.20139,14.90972 Q 48.152775,97.5 39.444445,97.5 Z"
    style="stroke-width:0.131944" 
	/>
</svg>
