<?xml version="1.0" encoding="UTF-8" standalone="no"?>
<svg
   width="1"
   height="1"
   version="1.1"
   viewBox="0 0 100 100"
   id="svg68"
   xmlns:xlink="http://www.w3.org/1999/xlink"
   xmlns="http://www.w3.org/2000/svg"
   xmlns:svg="http://www.w3.org/2000/svg">
  <defs
     id="defs23">
    <linearGradient
       id="a">
      <stop
         stop-color="#7aacde"
         offset="0"
         id="stop1" />
      <stop
         stop-color="#7aacde"
         stop-opacity="0"
         offset="1"
         id="stop2" />
    </linearGradient>
    <linearGradient
       id="b">
      <stop
         stop-color="#00ffb5"
         offset="0"
         id="stop3" />
      <stop
         stop-color="#ff28e4"
         stop-opacity=".9466"
         offset="1"
         id="stop4" />
    </linearGradient>
    <linearGradient
       id="c">
      <stop
         stop-color="#00ffb5"
         offset="0"
         id="stop5" />
      <stop
         stop-color="#8b00ff"
         offset="1"
         id="stop6" />
    </linearGradient>
    <linearGradient
       id="ad"
       x1="113.64"
       x2="113.64"
       y1="297"
       gradientUnits="userSpaceOnUse">
      <stop
         stop-color="#cf04d9"
         offset="0"
         id="stop7" />
      <stop
         stop-color="#0d3145"
         offset="1"
         id="stop8" />
    </linearGradient>
    <radialGradient
       id="ac"
       cx="105"
       cy="-105.15"
       r="105"
       gradientTransform="matrix(1,0,0,1.0014,0,0.1511)"
       gradientUnits="userSpaceOnUse">
      <stop
         stop-color="#fff"
         offset="0"
         id="stop9" />
      <stop
         offset="1"
         id="stop10" />
    </radialGradient>
    <mask
       id="e"
       maskUnits="userSpaceOnUse">
      <rect
         transform="scale(1,-1)"
         y="-210.3"
         width="210"
         height="210.3"
         fill="url(#ac)"
         id="rect10"
         x="0" />
    </mask>
    <linearGradient
       id="ax"
       x1="113.64"
       x2="113.64"
       y1="297"
       gradientTransform="matrix(1,0,0,0.35897,0,190.38)"
       gradientUnits="userSpaceOnUse">
      <stop
         offset="0"
         id="stop11" />
      <stop
         stop-color="#989898"
         offset=".25824"
         id="stop12" />
      <stop
         stop-color="#bbb"
         offset=".35714"
         id="stop13" />
      <stop
         stop-color="#dadada"
         offset=".50549"
         id="stop14" />
      <stop
         stop-color="#d2d2d2"
         offset=".61538"
         id="stop15" />
      <stop
         stop-color="#9d9d9d"
         offset=".72527"
         id="stop16" />
      <stop
         stop-color="#292929"
         offset="1"
         id="stop17" />
    </linearGradient>
    <mask
       id="d"
       maskUnits="userSpaceOnUse">
      <rect
         y="190.38"
         width="210"
         height="106.62"
         fill="url(#ax)"
         id="rect17"
         x="0" />
    </mask>
    <radialGradient
       id="ab"
       cx="105"
       cy="-148.5"
       r="105"
       gradientTransform="matrix(1.6102,-5.8417e-8,6.3115e-8,1.8155,-64.069,124.31)"
       gradientUnits="userSpaceOnUse">
      <stop
         stop-color="#fff"
         stop-opacity="0"
         offset="0"
         id="stop18" />
      <stop
         stop-color="#493f73"
         stop-opacity="0"
         offset=".62265"
         id="stop19" />
      <stop
         stop-color="#332862"
         stop-opacity=".31553"
         offset=".7"
         id="stop20" />
      <stop
         stop-color="#0d3145"
         offset="1"
         id="stop21" />
    </radialGradient>
    <linearGradient
       id="aw"
       x1="44.021"
       x2="176.39999"
       y1="148.12"
       y2="148.12"
       gradientUnits="userSpaceOnUse"
       xlink:href="#b" />
    <linearGradient
       id="av"
       x1="162.28999"
       x2="16.445"
       y1="115.7"
       y2="189.48"
       gradientUnits="userSpaceOnUse"
       xlink:href="#b" />
    <linearGradient
       id="au"
       x1="-28.580999"
       x2="17.396999"
       y1="144.77"
       y2="144.77"
       gradientTransform="matrix(0.36036,0,0,0.36036,-174.03,110.62)"
       gradientUnits="userSpaceOnUse"
       xlink:href="#c" />
    <linearGradient
       id="ap"
       x1="-28.580999"
       x2="17.396999"
       y1="144.77"
       y2="144.77"
       gradientTransform="matrix(0.36036,0,0,0.36036,99.774,-16.962)"
       gradientUnits="userSpaceOnUse"
       xlink:href="#c" />
    <linearGradient
       id="ao"
       x1="-28.580999"
       x2="17.396999"
       y1="144.77"
       y2="144.77"
       gradientTransform="matrix(0.26126,0,0,0.26126,106.88,-8.621)"
       gradientUnits="userSpaceOnUse"
       xlink:href="#c" />
    <linearGradient
       id="an"
       x1="-28.580999"
       x2="17.396999"
       y1="144.77"
       y2="144.77"
       gradientTransform="matrix(0.26126,0,0,0.26126,198.63,78.987)"
       gradientUnits="userSpaceOnUse"
       xlink:href="#b" />
    <linearGradient
       id="am"
       x1="-28.580999"
       x2="17.396999"
       y1="144.77"
       y2="144.77"
       gradientTransform="matrix(0.1556,0,0,0.1556,68.928,160.26)"
       gradientUnits="userSpaceOnUse"
       xlink:href="#b" />
    <linearGradient
       id="al"
       x1="-28.580999"
       x2="17.396999"
       y1="144.77"
       y2="144.77"
       gradientTransform="matrix(0.1556,0,0,0.1556,244.43,-2.4867)"
       gradientUnits="userSpaceOnUse"
       xlink:href="#b" />
    <linearGradient
       id="at"
       x1="-28.580999"
       x2="17.396999"
       y1="144.77"
       y2="144.77"
       gradientTransform="matrix(0.13583,0,0,0.13583,-79.748,86.912)"
       gradientUnits="userSpaceOnUse"
       xlink:href="#c" />
    <linearGradient
       id="ar"
       x1="-28.580999"
       x2="17.396999"
       y1="144.77"
       y2="144.77"
       gradientTransform="matrix(0.13583,0,0,0.13583,-191.18,143.69)"
       gradientUnits="userSpaceOnUse"
       xlink:href="#c" />
    <linearGradient
       id="ag"
       x1="-28.580999"
       x2="17.396999"
       y1="144.77"
       y2="144.77"
       gradientTransform="matrix(0.089561,0,0,0.089561,21.495,14.058)"
       gradientUnits="userSpaceOnUse"
       xlink:href="#b" />
    <linearGradient
       id="af"
       x1="-28.580999"
       x2="17.396999"
       y1="144.77"
       y2="144.77"
       gradientTransform="matrix(0.089561,0,0,0.089561,178.56,73.345)"
       gradientUnits="userSpaceOnUse"
       xlink:href="#b" />
    <linearGradient
       id="ae"
       x1="-28.580999"
       x2="17.396999"
       y1="144.77"
       y2="144.77"
       gradientTransform="matrix(0.13626,0,0,0.13626,-140.58,123.48)"
       gradientUnits="userSpaceOnUse"
       xlink:href="#b" />
    <filter
       id="ba"
       x="-0.017637256"
       y="-0.021067256"
       width="1.0352745"
       height="1.0421345"
       color-interpolation-filters="sRGB">
      <feGaussianBlur
         stdDeviation="1.746934"
         id="feGaussianBlur21" />
    </filter>
    <filter
       id="az"
       x="-0.020827988"
       y="-0.062151302"
       width="1.041656"
       height="1.1243026"
       color-interpolation-filters="sRGB">
      <feGaussianBlur
         stdDeviation="2.8456935"
         id="feGaussianBlur22" />
    </filter>
    <linearGradient
       id="ak"
       x1="-28.580999"
       x2="17.396999"
       y1="144.77"
       y2="144.77"
       gradientTransform="matrix(0.1556,0,0,0.1556,256.98,147.94)"
       gradientUnits="userSpaceOnUse"
       xlink:href="#b" />
    <linearGradient
       id="aj"
       x1="-28.580999"
       x2="17.396999"
       y1="144.77"
       y2="144.77"
       gradientTransform="matrix(0.073516,0,0,0.073516,259.04,102.58)"
       gradientUnits="userSpaceOnUse"
       xlink:href="#b" />
    <linearGradient
       id="ai"
       x1="-28.580999"
       x2="17.396999"
       y1="144.77"
       y2="144.77"
       gradientTransform="matrix(0.073516,0,0,0.073516,176.64,166.11)"
       gradientUnits="userSpaceOnUse"
       xlink:href="#b" />
    <linearGradient
       id="ah"
       x1="-28.580999"
       x2="17.396999"
       y1="144.77"
       y2="144.77"
       gradientTransform="matrix(0.12759,0,0,0.12759,170.24,37.576)"
       gradientUnits="userSpaceOnUse"
       xlink:href="#b" />
    <linearGradient
       id="aq"
       x1="-28.580999"
       x2="17.396999"
       y1="144.77"
       y2="144.77"
       gradientTransform="matrix(0.23573,0,0,0.23573,198.12,-1.3302)"
       gradientUnits="userSpaceOnUse"
       xlink:href="#c" />
    <linearGradient
       id="as"
       x1="-28.580999"
       x2="17.396999"
       y1="144.77"
       y2="144.77"
       gradientTransform="matrix(0.31368,0,0,0.31368,-51.503,39.819)"
       gradientUnits="userSpaceOnUse"
       xlink:href="#c" />
    <radialGradient
       id="aa"
       cx="173"
       cy="35.900002"
       r="1.5725"
       gradientTransform="matrix(2,0,0,2,-171.43,-34.328)"
       gradientUnits="userSpaceOnUse"
       xlink:href="#a" />
    <radialGradient
       id="i"
       cx="173"
       cy="35.900002"
       r="1.5725"
       gradientTransform="translate(-149.73,118.94)"
       gradientUnits="userSpaceOnUse"
       xlink:href="#a" />
    <radialGradient
       id="x"
       cx="173"
       cy="35.900002"
       r="1.5725"
       gradientTransform="matrix(0.4,0,0,0.4,122.33,110.6)"
       gradientUnits="userSpaceOnUse"
       xlink:href="#a" />
    <radialGradient
       id="f"
       cx="173"
       cy="35.900002"
       r="1.5725"
       gradientTransform="matrix(0.4,0,0,0.4,-8.1861,31.035)"
       gradientUnits="userSpaceOnUse"
       xlink:href="#a" />
    <radialGradient
       id="h"
       cx="173"
       cy="35.900002"
       r="1.5725"
       gradientTransform="matrix(2,0,0,2,-214.54,-41.502)"
       gradientUnits="userSpaceOnUse"
       xlink:href="#a" />
    <radialGradient
       id="y"
       cx="173"
       cy="35.900002"
       r="1.5725"
       gradientTransform="matrix(2,0,0,2,-186.86,129.59)"
       gradientUnits="userSpaceOnUse"
       xlink:href="#a" />
    <radialGradient
       id="z"
       cx="173"
       cy="35.900002"
       r="1.5725"
       gradientTransform="matrix(2,0,0,2,-250.39,188.09)"
       gradientUnits="userSpaceOnUse"
       xlink:href="#a" />
    <radialGradient
       id="g"
       cx="173"
       cy="35.900002"
       r="1.5725"
       gradientTransform="matrix(2,0,0,2,-220.2,153.49)"
       gradientUnits="userSpaceOnUse"
       xlink:href="#a" />
    <radialGradient
       id="l"
       cx="173"
       cy="35.900002"
       r="1.5725"
       gradientTransform="matrix(0.4,0,0,0.4,32.7,53.05)"
       gradientUnits="userSpaceOnUse"
       xlink:href="#a" />
    <radialGradient
       id="w"
       cx="173"
       cy="35.900002"
       r="1.5725"
       gradientTransform="matrix(0.4,0,0,0.4,-59.765,4.6162)"
       gradientUnits="userSpaceOnUse"
       xlink:href="#a" />
    <radialGradient
       id="n"
       cx="173"
       cy="35.900002"
       r="1.5725"
       gradientTransform="matrix(0.4,0,0,0.4,5.0232,128.53)"
       gradientUnits="userSpaceOnUse"
       xlink:href="#a" />
    <radialGradient
       id="s"
       cx="173"
       cy="35.900002"
       r="1.5725"
       gradientTransform="matrix(0.4,0,0,0.4,-47.185,151.81)"
       gradientUnits="userSpaceOnUse"
       xlink:href="#a" />
    <radialGradient
       id="v"
       cx="173"
       cy="35.900002"
       r="1.5725"
       gradientTransform="matrix(0.4,0,0,0.4,84.908,190.8)"
       gradientUnits="userSpaceOnUse"
       xlink:href="#a" />
    <radialGradient
       id="u"
       cx="173"
       cy="35.900002"
       r="1.5725"
       gradientTransform="matrix(0.4,0,0,0.4,94.972,173.19)"
       gradientUnits="userSpaceOnUse"
       xlink:href="#a" />
    <radialGradient
       id="p"
       cx="173"
       cy="35.900002"
       r="1.5725"
       gradientTransform="matrix(0.4,0,0,0.4,-7.5571,209.05)"
       gradientUnits="userSpaceOnUse"
       xlink:href="#a" />
    <radialGradient
       id="k"
       cx="173"
       cy="35.900002"
       r="1.5725"
       gradientTransform="matrix(0.4,0,0,0.4,-25.798,241.75)"
       gradientUnits="userSpaceOnUse"
       xlink:href="#a" />
    <radialGradient
       id="m"
       cx="173"
       cy="35.900002"
       r="1.5725"
       gradientTransform="matrix(0.4,0,0,0.4,69.812,243.64)"
       gradientUnits="userSpaceOnUse"
       xlink:href="#a" />
    <radialGradient
       id="j"
       cx="173"
       cy="35.900002"
       r="1.5725"
       gradientTransform="matrix(0.4,0,0,0.4,104.41,38.583)"
       gradientUnits="userSpaceOnUse"
       xlink:href="#a" />
    <radialGradient
       id="o"
       cx="173"
       cy="35.900002"
       r="1.5725"
       gradientTransform="matrix(0.4,0,0,0.4,66.666,62.485)"
       gradientUnits="userSpaceOnUse"
       xlink:href="#a" />
    <radialGradient
       id="q"
       cx="173"
       cy="35.900002"
       r="1.5725"
       gradientTransform="matrix(0.4,0,0,0.4,-16.363,52.421)"
       gradientUnits="userSpaceOnUse"
       xlink:href="#a" />
    <radialGradient
       id="r"
       cx="173"
       cy="35.900002"
       r="1.5725"
       gradientTransform="matrix(0.4,0,0,0.4,21.378,18.454)"
       gradientUnits="userSpaceOnUse"
       xlink:href="#a" />
    <radialGradient
       id="t"
       cx="173"
       cy="35.900002"
       r="1.5725"
       gradientTransform="matrix(0.4,0,0,0.4,130.83,41.099)"
       gradientUnits="userSpaceOnUse"
       xlink:href="#a" />
    <linearGradient
       id="ay"
       x1="162.28999"
       x2="46.265999"
       y1="115.7"
       y2="162.14999"
       gradientUnits="userSpaceOnUse">
      <stop
         stop-color="#ee72ff"
         offset="0"
         id="stop22" />
      <stop
         stop-color="#28ff80"
         stop-opacity=".9466"
         offset="1"
         id="stop23" />
    </linearGradient>
  </defs>
  <g
     transform="matrix(0.47619048,0,0,0.47619048,-3.9999999e-7,-19.190148)"
     id="g68">
    <rect
       width="210"
       height="297"
       fill="url(#ad)"
       id="rect23"
       x="0"
       y="0"
       style="fill:url(#ad)"
       transform="matrix(0.99999899,0,0,1.0215975,8.3999997e-7,-6.4056929)" />
    <path
       transform="rotate(-23.639,82.162,153.07)"
       d="M 175.81,178.57 44.61,213.725 79.765,82.525 Z"
       fill-opacity="0"
       opacity="0.83"
       stroke="url(#av)"
       stroke-linecap="round"
       stroke-linejoin="round"
       stroke-width="5"
       id="path26"
       style="stroke:url(#av)" />
    <path
       transform="rotate(-29.949,86.121,153.37)"
       d="M 175.81,178.57 44.61,213.725 79.765,82.525 Z"
       fill-opacity="0"
       opacity="0.83"
       stroke="url(#aw)"
       stroke-linecap="round"
       stroke-linejoin="round"
       stroke-width="2"
       id="path27"
       style="stroke:url(#aw)" />
    <g
       fill="#9ccbff"
       filter="url(#az)"
       mask="url(#d)"
       id="g29">
      <path
         transform="scale(0.26458)"
         d="m 497.4,711 a 1.89,1.89 0 0 0 -0.19141,0.006 1.89,1.89 0 0 0 -0.1875,0.0215 h -64.727 a 1.89,1.89 0 0 0 -0.42969,-0.0215 1.89,1.89 0 0 0 -0.1875,0.0215 h -64.74 a 1.89,1.89 0 0 0 -0.41797,-0.0234 v 0.002 a 1.89,1.89 0 0 0 -0.19531,0.0215 h -64.742 a 1.89,1.89 0 0 0 -0.40625,-0.0215 1.89,1.89 0 0 0 -0.19727,0.0215 h -64.752 a 1.89,1.89 0 0 0 -0.40234,-0.0215 1.89,1.89 0 0 0 -0.19727,0.0215 h -64.756 a 1.89,1.89 0 0 0 -0.41406,-0.0215 1.89,1.89 0 0 0 -0.1875,0.0215 h -64.768 a 1.89,1.89 0 0 0 -0.22656,-0.0215 1.89,1.89 0 0 0 -0.33008,0.0215 h -64.803 a 1.89,1.89 0 0 0 -0.25586,-0.0215 1.89,1.89 0 0 0 -0.29688,0.0215 h -258.78 a 1.89,1.89 0 1 0 0,3.7793 h 255.77 l -23.223,40.224 h -232.55 a 1.89,1.89 0 1 0 0,3.7793 h 230.37 l -23.223,40.223 h -207.14 a 1.8906,1.8906 0 1 0 0,3.7812 h 204.96 l -23.221,40.223 h -181.74 a 1.89,1.89 0 1 0 0,3.7793 h 179.56 l -23.223,40.225 h -156.33 a 1.89,1.89 0 1 0 0,3.7793 h 154.15 l -23.227,40.23 h -130.93 a 1.89,1.89 0 0 0 -0.1914,0 1.8930206,1.8930206 0 0 0 0.1914,3.7812 h 128.74 l -23.223,40.223 h -105.52 a 1.89,1.89 0 1 0 0,3.7793 h 103.34 l -23.223,40.225 h -80.115 a 1.89,1.89 0 1 0 0,3.7793 h 77.934 l -23.225,40.225 h -54.709 a 1.89,1.89 0 1 0 0,3.7793 h 52.527 l -32.662,56.574 a 1.89,1.89 0 1 0 3.2715,1.8906 l 33.754,-58.465 h 98.232 l -26.787,56.707 a 1.8904,1.8904 0 1 0 3.416,1.6172 l 27.551,-58.324 h 98.41 l -20.893,56.863 a 1.89,1.89 0 1 0 3.543,1.3066 l 21.371,-58.17 h 98.545 l -14.969,57.039 a 1.89,1.89 0 1 0 3.6543,0.9609 l 15.221,-58 h 98.643 l -9.0098,57.225 a 1.8902,1.8902 0 1 0 3.7344,0.582 l 9.1016,-57.807 h 98.705 l -3.0137,57.416 a 1.89,1.89 0 1 0 3.7715,0.1992 l 3.0234,-57.615 h 98.725 l 3.0234,57.615 a 1.8924,1.8924 0 1 0 3.7793,-0.1992 l -3.0137,-57.416 h 98.699 l 9.1016,57.807 a 1.8902,1.8902 0 1 0 3.7344,-0.582 l -9.0098,-57.225 h 98.643 l 15.221,58 a 1.89,1.89 0 1 0 3.6543,-0.9609 l -14.969,-57.039 h 98.545 l 21.371,58.17 a 1.89,1.89 0 1 0 3.543,-1.3066 l -20.891,-56.863 h 98.406 l 27.551,58.324 a 1.8906388,1.8906388 0 1 0 3.418,-1.6172 l -26.787,-56.707 h 98.232 l 33.754,58.465 a 1.8918,1.8918 0 1 0 3.2773,-1.8906 l -32.664,-56.574 h 50.94895 a 1.89,1.89 0 1 0 0,-3.7793 h -53.13095 l -23.223,-40.225 h 76.35395 a 1.89,1.89 0 1 0 0,-3.7793 h -78.53695 l -23.223,-40.225 h 101.75995 a 1.89,1.89 0 1 0 0,-3.7793 H 912.30355 l -23.223,-40.223 h 127.15995 a 1.8906,1.8906 0 1 0 0,-3.7812 H 886.89055 l -23.229,-40.23 h 152.57995 a 1.89,1.89 0 1 0 0,-3.7793 H 861.48155 l -23.223,-40.225 h 177.97995 a 1.89,1.89 0 1 0 0,-3.7793 H 836.07855 l -23.223,-40.223 h 203.38995 a 1.8906,1.8906 0 1 0 0,-3.7812 H 810.67555 l -23.223,-40.223 h 228.78995 a 1.89,1.89 0 1 0 0,-3.7793 H 785.27255 l -23.223,-40.225 h 254.19995 a 1.89,1.89 0 1 0 0,-3.7793 H 759.06955 a 1.89,1.89 0 0 0 -0.37305,-0.0215 1.89,1.89 0 0 0 -0.2207,0.0215 h -64.764 a 1.89,1.89 0 0 0 -0.40625,-0.0215 1.89,1.89 0 0 0 -0.19727,0.0215 h -64.744 a 1.89,1.89 0 0 0 -0.43164,-0.0215 1.89,1.89 0 0 0 -0.1875,0.0215 h -64.734 a 1.89,1.89 0 0 0 -0.44532,-0.0215 1.89,1.89 0 0 0 -0.1875,0.0215 h -64.719 a 1.89,1.89 0 0 0 -0.2539,-0.0273 z m -456.46,3.8066 h 61.287 l -19.002,40.225 h -65.51 z m 65.465,0 h 61.455 l -14.777,40.225 H 87.405 Z m 65.477,0 h 61.59 l -10.557,40.225 h -65.812 z m 65.496,0 h 61.688 l -6.334,40.225 h -65.91 z m 65.516,0 h 61.748 l -2.1113,40.225 h -65.971 z m 65.531,0 h 61.773 l 2.1113,40.225 h -65.996 z m 65.557,0 h 61.748 l 6.334,40.225 h -65.971 z m 65.576,0 h 61.688 l 10.557,40.225 h -65.91 z m 65.592,0 h 61.592 l 14.779,40.225 h -65.814 z m 65.621,0 h 61.447 l 19,40.225 h -65.67 z m 65.625,0 h 61.287 l 23.225,40.225 h -65.51 z m -680.86,44.004 h 65.906 l -19,40.223 H -7.685 Z m 70.086,0 h 66.074 l -14.779,40.223 H 66.62 Z m 70.094,0 h 66.209 l -10.555,40.223 h -70.432 z m 70.115,0 h 66.307 l -6.332,40.223 h -70.529 z m 70.135,0 h 66.367 l -2.1094,40.223 h -70.592 z m 70.152,0 h 66.391 l 2.1113,40.223 h -70.613 z m 70.176,0 h 66.367 l 6.334,40.223 h -70.59 z m 70.195,0 h 66.307 l 10.555,40.223 h -70.529 z m 70.211,0 h 66.211 l 14.777,40.223 h -70.432 z m 70.238,0 h 66.066 l 19,40.223 h -70.289 z m 70.246,0 h 65.906 l 23.221,40.223 h -70.127 z m -727.05,44.004 h 70.523 l -19,40.223 h -74.746 z m 74.703,0 h 70.693 l -14.779,40.223 H 45.837 Z m 74.715,0 h 70.828 l -10.557,40.223 h -75.051 z m 74.734,0 h 70.926 l -6.334,40.223 H 203.73 Z m 74.754,0 h 70.986 l -2.1113,40.223 h -75.209 z m 74.77,0 h 71.012 l 2.1094,40.223 h -75.232 z m 74.797,0 h 70.984 l 6.334,40.223 h -75.207 z m 74.812,0 h 70.926 l 10.557,40.223 h -75.148 z m 74.832,0 h 70.828 l 14.779,40.223 h -75.053 z m 74.855,0 h 70.688 l 19,40.223 h -74.91 z m 74.867,0 h 70.523 l 23.223,40.223 h -74.746 z m -773.24,44.002 h 75.143 l -19.002,40.225 h -79.363 z m 79.322,0 h 75.313 l -14.779,40.225 H 25.054 Z m 79.332,0 h 75.447 l -10.555,40.225 h -79.67 z m 79.354,0 h 75.547 l -6.334,40.225 h -79.768 z m 79.373,0 h 75.607 l -2.1113,40.225 h -79.83 z m 79.391,0 h 75.629 l 2.1113,40.225 h -79.852 z m 79.414,0 h 75.605 l 6.334,40.225 H 443.03 Z m 79.432,0 h 75.547 l 10.555,40.225 h -79.768 z m 79.451,0 h 75.449 l 14.777,40.225 h -79.67 z m 79.475,0 h 75.307 l 19.002,40.225 h -79.529 z m 79.486,0 h 75.143 l 23.223,40.225 h -79.363 z m -819.43,44.004 h 79.76 l -19.004,40.23 h -83.982 z m 83.939,0 h 79.932 l -14.781,40.23 H 4.269 Z m 83.953,0 h 80.066 l -10.559,40.23 H 92.443 Z m 83.973,0 h 80.164 l -6.334,40.23 h -84.389 z m 83.992,0 h 80.225 l -2.1113,40.23 h -84.449 z m 84.008,0 h 80.248 l 2.1113,40.23 h -84.471 z m 84.035,0 h 80.223 l 6.3359,40.23 h -84.447 z m 84.051,0 h 80.164 l 10.559,40.23 h -84.389 z m 84.07,0 h 80.066 l 14.781,40.23 H 621.91 Z m 84.092,0 h 79.928 l 19.004,40.23 h -84.15 z m 84.107,0 h 79.76 l 23.227,40.23 h -83.982 z m -865.63,44.012 h 84.379 l -19,40.223 h -88.6 z m 88.559,0 h 84.553 l -14.779,40.223 h -88.773 z m 88.574,0 h 84.686 l -10.555,40.223 h -88.91 z m 88.592,0 h 84.785 l -6.332,40.223 h -89.008 z m 88.613,0 h 84.846 l -2.1113,40.223 h -89.068 z m 88.629,0 h 84.867 l 2.1113,40.223 h -89.09 z m 88.654,0 h 84.842 l 6.334,40.223 h -89.064 z m 88.67,0 h 84.785 l 10.555,40.223 h -89.008 z m 88.689,0 h 84.688 l 14.779,40.223 h -88.91 z m 88.713,0 h 84.547 l 19,40.223 h -88.77 z m 88.729,0 h 84.379 l 23.221,40.223 h -88.6 z m -911.82,44.002 h 88.996 l -19.002,40.225 H -134.7 Z m 93.176,0 h 89.17 l -14.779,40.225 h -93.393 z m 93.193,0 h 89.305 l -10.557,40.225 H 60.115 Z m 93.211,0 h 89.404 l -6.334,40.225 h -93.627 z m 93.23,0 H 350.8 l -2.1094,40.225 h -93.689 z m 93.248,0 h 89.486 l 2.1113,40.225 h -93.709 z m 93.275,0 h 89.461 l 6.334,40.225 h -93.684 z m 93.287,0 h 89.404 l 10.557,40.225 h -93.627 z m 93.311,0 h 89.305 l 14.779,40.225 h -93.529 z m 93.33,0 h 89.168 l 19,40.225 h -93.389 z m 93.348,0 h 88.996 l 23.225,40.225 h -93.219 z m -958.02,44.004 h 93.615 l -19.002,40.225 h -97.836 z m 97.795,0 h 93.789 l -14.777,40.225 h -98.014 z m 97.812,0 h 93.924 l -10.555,40.225 H 43.942 Z m 97.832,0 h 94.023 l -6.334,40.225 h -98.246 z m 97.85,0 h 94.084 l -2.1113,40.225 h -98.307 z m 97.867,0 h 94.105 l 2.1094,40.225 h -98.326 z m 97.893,0 h 94.08 l 6.334,40.225 h -98.303 z m 97.906,0 h 94.023 l 10.557,40.225 h -98.246 z m 97.93,0 h 93.926 l 14.779,40.225 h -98.148 z m 97.949,0 h 93.787 l 19.002,40.225 h -98.01 z m 97.969,0 h 93.615 l 23.223,40.225 h -97.836 z"
         color="#000000"
         color-rendering="auto"
         dominant-baseline="auto"
         fill="#9ccbff"
         image-rendering="auto"
         shape-rendering="auto"
         solid-color="#000000"
         style="font-variant-ligatures:normal;font-variant-position:normal;font-variant-caps:normal;font-variant-numeric:normal;font-variant-alternates:normal;font-feature-settings:normal;text-indent:0;text-decoration-line:none;text-decoration-style:solid;text-decoration-color:#000000;text-transform:none;text-orientation:mixed;white-space:normal;shape-padding:0;isolation:auto;mix-blend-mode:normal"
         id="path29" />
    </g>
    <g
       transform="translate(2.064,-6.1006)"
       id="g30">
      <circle
         transform="matrix(0,1,1,0,0,0)"
         cx="197.17"
         cy="116.81"
         r="6.0061998"
         fill="url(#an)"
         id="circle29"
         style="fill:url(#an)" />
      <circle
         transform="matrix(0,1,1,0,0,0)"
         cx="178.05"
         cy="86.310997"
         r="2.0589001"
         fill="url(#af)"
         id="circle30"
         style="fill:url(#af)" />
    </g>
    <path
       transform="rotate(-23.639,73.311,151.21)"
       d="M 73.664,228.6 52.359,100.24 174.169,145.967 Z"
       fill="none"
       opacity="0.83"
       stroke="url(#ay)"
       stroke-linecap="round"
       stroke-linejoin="round"
       stroke-width="1.2"
       id="path30"
       style="stroke:url(#ay)" />
    <g
       id="g67">
      <circle
         transform="matrix(0,1,1,0,0,0)"
         cx="256.10999"
         cy="170.46001"
         r="3.5771"
         fill="url(#ak)"
         id="circle31"
         style="fill:url(#ak)" />
      <circle
         transform="matrix(0,1,1,0,0,0)"
         cx="258.63"
         cy="113.22"
         r="1.6901"
         fill="url(#aj)"
         id="circle32"
         style="fill:url(#aj)" />
      <circle
         transform="matrix(0,1,1,0,0,0)"
         cx="176.23"
         cy="176.75"
         r="1.6901"
         fill="url(#ai)"
         id="circle33"
         style="fill:url(#ai)" />
      <circle
         transform="matrix(0,1,1,0,0,0)"
         cx="196.8"
         cy="32.798"
         r="5.4193001"
         fill="url(#aq)"
         id="circle34"
         style="fill:url(#aq)" />
      <circle
         transform="matrix(0,1,1,0,0,0)"
         cx="169.53"
         cy="56.047001"
         r="2.9331999"
         fill="url(#ah)"
         id="circle35"
         style="fill:url(#ah)" />
      <circle
         transform="rotate(-90)"
         cx="-53.257"
         cy="85.231003"
         r="7.2112002"
         fill="url(#as)"
         id="circle36"
         style="fill:url(#as)" />
      <circle
         cx="174.57001"
         cy="37.473"
         r="3.1451001"
         fill="url(#aa)"
         id="circle37"
         style="fill:url(#aa)" />
      <circle
         cx="23.273001"
         cy="154.84"
         r="1.5725"
         fill="url(#i)"
         id="circle38"
         style="fill:url(#i)" />
      <circle
         cx="191.53"
         cy="124.96"
         r="0.62901002"
         fill="url(#x)"
         id="circle39"
         style="fill:url(#x)" />
      <circle
         cx="61.014"
         cy="45.395"
         r="0.62901002"
         fill="url(#f)"
         id="circle40"
         style="fill:url(#f)" />
      <circle
         cx="131.46001"
         cy="30.298"
         r="3.1451001"
         fill="url(#h)"
         id="circle41"
         style="fill:url(#h)" />
      <circle
         cx="159.14"
         cy="201.39"
         r="3.1451001"
         fill="url(#y)"
         id="circle42"
         style="fill:url(#y)" />
      <circle
         cx="95.610001"
         cy="259.89001"
         r="3.1451001"
         fill="url(#z)"
         id="circle43"
         style="fill:url(#z)" />
      <circle
         cx="125.8"
         cy="225.28999"
         r="3.1451001"
         fill="url(#g)"
         id="circle44"
         style="fill:url(#g)" />
      <circle
         cx="101.9"
         cy="67.410004"
         r="0.62901002"
         fill="url(#l)"
         id="circle45"
         style="fill:url(#l)" />
      <circle
         cx="9.4351997"
         cy="18.976"
         r="0.62901002"
         fill="url(#w)"
         id="circle46"
         style="fill:url(#w)" />
      <circle
         cx="74.223999"
         cy="142.89"
         r="0.62901002"
         fill="url(#n)"
         id="circle47"
         style="fill:url(#n)" />
      <circle
         cx="22.014999"
         cy="166.17"
         r="0.62901002"
         fill="url(#s)"
         id="circle48"
         style="fill:url(#s)" />
      <circle
         cx="154.11"
         cy="205.16"
         r="0.62901002"
         fill="url(#v)"
         id="circle49"
         style="fill:url(#v)" />
      <circle
         cx="164.17"
         cy="187.55"
         r="0.62901002"
         fill="url(#u)"
         id="circle50"
         style="fill:url(#u)" />
      <circle
         cx="61.643002"
         cy="223.41"
         r="0.62901002"
         fill="url(#p)"
         id="circle51"
         style="fill:url(#p)" />
      <circle
         cx="43.402"
         cy="256.10999"
         r="0.62901002"
         fill="url(#k)"
         id="circle52"
         style="fill:url(#k)" />
      <circle
         cx="139.00999"
         cy="258"
         r="0.62901002"
         fill="url(#m)"
         id="circle53"
         style="fill:url(#m)" />
      <circle
         cx="173.61"
         cy="52.943001"
         r="0.62901002"
         fill="url(#j)"
         id="circle54"
         style="fill:url(#j)" />
      <circle
         cx="135.87"
         cy="76.845001"
         r="0.62901002"
         fill="url(#o)"
         id="circle55"
         style="fill:url(#o)" />
      <circle
         cx="52.837002"
         cy="66.780998"
         r="0.62901002"
         fill="url(#q)"
         id="circle56"
         style="fill:url(#q)" />
      <circle
         cx="90.578003"
         cy="32.814999"
         r="0.62901002"
         fill="url(#r)"
         id="circle57"
         style="fill:url(#r)" />
      <circle
         cx="200.03"
         cy="55.459"
         r="0.62901002"
         fill="url(#t)"
         id="circle58"
         style="fill:url(#t)" />
      <circle
         transform="matrix(0,1,1,0,0,0)"
         cx="20.993999"
         cy="27.024"
         r="2.0589001"
         fill="url(#ag)"
         id="circle59"
         style="fill:url(#ag)" />
      <circle
         transform="rotate(-90)"
         cx="-176.05"
         cy="162.78999"
         r="8.2844"
         fill="url(#au)"
         id="circle60"
         style="fill:url(#au)" />
      <circle
         transform="matrix(0,1,1,0,0,0)"
         cx="97.759003"
         cy="35.209"
         r="8.2844"
         fill="url(#ap)"
         id="circle61"
         style="fill:url(#ap)" />
      <circle
         transform="matrix(0,1,1,0,0,0)"
         cx="105.42"
         cy="29.202999"
         r="6.0061998"
         fill="url(#ao)"
         id="circle62"
         style="fill:url(#ao)" />
      <circle
         transform="matrix(0,1,1,0,0,0)"
         cx="68.057999"
         cy="182.78999"
         r="3.5771"
         fill="url(#am)"
         id="circle63"
         style="fill:url(#am)" />
      <circle
         transform="matrix(0,1,1,0,0,0)"
         cx="243.56"
         cy="20.040001"
         r="3.5771"
         fill="url(#al)"
         id="circle64"
         style="fill:url(#al)" />
      <circle
         transform="rotate(-90)"
         cx="-80.507004"
         cy="106.58"
         r="3.1226001"
         fill="url(#at)"
         id="circle65"
         style="fill:url(#at)" />
      <circle
         transform="rotate(-90)"
         cx="-191.94"
         cy="163.36"
         r="3.1226001"
         fill="url(#ar)"
         id="circle66"
         style="fill:url(#ar)" />
      <circle
         transform="rotate(-90)"
         cx="-141.34"
         cy="143.21001"
         r="3.1324999"
         fill="url(#ae)"
         id="circle67"
         style="fill:url(#ae)" />
    </g>
    <rect
       transform="scale(1,-1)"
       y="-297"
       width="210"
       height="303.41"
       fill="url(#ab)"
       opacity="0.366"
       id="rect67"
       x="0"
       style="fill:url(#ab)" />
  </g>
</svg>
