<?xml version="1.0" encoding="UTF-8" standalone="no"?>
<svg
   width="32"
   height="32"
   viewBox="0 0 100.0001 100.00001"
   version="1.1"
   id="svg1"
   sodipodi:docname="newVolumeHigh.svg"
   inkscape:version="1.3.2 (091e20e, 2023-11-25, custom)"
   xmlns:inkscape="http://www.inkscape.org/namespaces/inkscape"
   xmlns:sodipodi="http://sodipodi.sourceforge.net/DTD/sodipodi-0.dtd"
   xmlns="http://www.w3.org/2000/svg"
   xmlns:svg="http://www.w3.org/2000/svg">
  <sodipodi:namedview
     id="namedview1"
     pagecolor="#ffffff"
     bordercolor="#000000"
     borderopacity="0.25"
     inkscape:showpageshadow="2"
     inkscape:pageopacity="0.0"
     inkscape:pagecheckerboard="0"
     inkscape:deskcolor="#d1d1d1"
     inkscape:zoom="25.40625"
     inkscape:cx="15.98032"
     inkscape:cy="16"
     inkscape:window-width="1920"
     inkscape:window-height="1009"
     inkscape:window-x="-8"
     inkscape:window-y="-8"
     inkscape:window-maximized="1"
     inkscape:current-layer="svg1" />
  <defs
     id="defs1" />
  <path
     style="fill:#000000;fill-opacity:1;stroke:none"
     d="m 62.683133,31.063081 c 0.63047,-0.007 0.89462,-0.0274 1.49518,0.25169 1.77429,0.82734 4.73226,4.57775 5.76643,6.33709 4.73225,8.05405 4.77212,17.52105 -0.36882,25.41811 -1.07902,1.65467 -4.14415,5.49978 -6.1452,5.76642 -2.66143,0.35885 -3.23707,-1.65467 -3.23956,-3.77284 0,0 0,-25.66731 0,-25.66731 0,-1.72694 -0.3414,-6.15767 0.67283,-7.4211 0.51584,-0.64043 1.06656,-0.75257 1.81914,-0.91206 z"
     id="path2"
     inkscape:label="middle" />
  <path
     style="fill:#000000;fill-opacity:1;stroke:none"
     d="m 43.494953,15.799751 c 0.56816,-0.0374 0.90957,-0.0897 1.49518,0 0.95941,0.005 1.91882,0.29406 2.74117,0.78996 2.61906,1.5824 2.24277,3.97719 2.24277,6.60871 0,0 0,4.73475 0,4.73475 0,0 0,42.36352 0,42.36352 0,0 0,8.9711 0,8.9711 -0.0424,3.35918 -2.38731,5.44246 -5.73153,5.20822 -2.4845,-0.17195 -4.0968,-2.3275 -5.73154,-3.96224 0,0 -10.46628,-10.46628 -10.46628,-10.46628 -0.90459,-0.90459 -3.47879,-3.71553 -4.48555,-4.08683 -0.48344,-0.17943 -1.22356,-0.14952 -1.74438,-0.14952 0,0 -9.96789,0 -9.96789,0 -1.59735,0 -4.0369895,0.16198 -5.4823395,-0.38875 -2.55427,-0.97436 -3.23458,-3.11247 -3.23956,-5.59198 0,0 0,-19.43739 0,-19.43739 0.007,-4.00459 1.97613,-5.97325 5.98073,-5.98073 0,0 12.7090595,0 12.7090595,0 0.52082,0 1.26094,0.0299 1.74438,-0.14952 1.02669,-0.37628 4.02703,-3.62831 4.98394,-4.58522 0,0 9.4695,-9.4695 9.4695,-9.4695 1.63971,-1.63972 3.20467,-3.64326 5.48234,-4.4083 z"
     id="path1"
     inkscape:label="left" />
  <path
     style="fill:#000000;fill-opacity:1;stroke:none"
     d="m 66.421093,6.8710212 c 2.09575,-0.20185 3.92236,0.89462 5.73153,1.81415 4.59271,2.3324898 8.35808,5.3851598 11.96147,9.0309098 2.21785,2.24527 4.07188,4.80701 5.74399,7.47592 10.551007,16.84573 9.018446,38.8623 -3.3517,54.32498 -3.66071,4.57526 -8.6596,8.77424 -13.85536,11.5179 -1.57991,0.83232 -4.18153,2.28264 -5.98074,2.10322 -4.78957,-0.47347 -6.31465,-5.67173 -3.43642,-8.8764 1.12138,-1.24599 4.90918,-2.91312 6.67599,-4.08684 3.6607,-2.42718 6.46667,-5.12349 9.10317,-8.63219 10.55101,-14.04973 9.21531,-32.93141 -2.31255,-45.95694 -2.55676,-2.89318 -5.27052,-4.86682 -8.535,-6.85791 -1.31576,-0.80241 -3.45886,-1.64719 -4.47558,-2.55925 -2.24029,-2.01601 -2.64149,-5.63435 -0.42613,-7.8397498 0.90458,-0.90209 1.9537,-1.19864 3.15733,-1.4578 z"
     id="Selection #1"
     inkscape:label="right" />
</svg>
