<?xml version="1.0" encoding="UTF-8" standalone="no"?>
<svg
   width="32"
   height="32"
   viewBox="0 0 100.0001 100.00001"
   version="1.1"
   id="svg1"
   sodipodi:docname="newVolumeLow.svg"
   inkscape:version="1.3.2 (091e20e, 2023-11-25, custom)"
   xmlns:inkscape="http://www.inkscape.org/namespaces/inkscape"
   xmlns:sodipodi="http://sodipodi.sourceforge.net/DTD/sodipodi-0.dtd"
   xmlns="http://www.w3.org/2000/svg"
   xmlns:svg="http://www.w3.org/2000/svg">
  <sodipodi:namedview
     id="namedview1"
     pagecolor="#ffffff"
     bordercolor="#000000"
     borderopacity="0.25"
     inkscape:showpageshadow="2"
     inkscape:pageopacity="0.0"
     inkscape:pagecheckerboard="0"
     inkscape:deskcolor="#d1d1d1"
     inkscape:zoom="25.40625"
     inkscape:cx="15.98032"
     inkscape:cy="16"
     inkscape:window-width="1920"
     inkscape:window-height="1009"
     inkscape:window-x="-8"
     inkscape:window-y="-8"
     inkscape:window-maximized="1"
     inkscape:current-layer="svg1" />
  <defs
     id="defs1" />
  <path
     style="fill:#000000;stroke:none;fill-opacity:1"
     d="m 62.72307,31.064181 c 2.72373,-0.0174 5.51972,3.98217 6.84794,6.09038 5.208223,7.93443 5.051233,18.00449 0,25.91651 -1.07155,1.59486 -3.48627,4.52043 -5.10356,5.41256 -1.41544,0.78248 -3.41649,0.43609 -4.05195,-1.1812 -0.2168,-0.54823 -0.1844,-1.39301 -0.1844,-1.98859 0,0 0,-25.91651 0,-25.91651 0,0 0,-5.23314 0,-5.23314 0.01,-0.71271 0.007,-1.35314 0.4336,-1.96617 0.53328,-0.77002 1.20113,-0.95193 2.05837,-1.13384 z"
     id="path1"
     inkscape:label="middle" />
  <path
     id="Selection #3"
     fill="none"
     stroke="#000000"
     stroke-width="0.249197"
     d="m 61.53498,34.353481 c 1.50016,-0.38127 2.45957,0.2791 3.72799,1.03666 2.76359,1.6447 5.20822,4.26127 6.50903,7.22174 3.037713,6.90276 1.91383,14.9917 -3.76787,20.20241 -1.13883,1.04414 -2.99784,2.5767 -4.48554,3.02277 -1.74688,0.5258 -3.90243,-0.39623 -3.09005,-2.53185 0.39622,-1.04662 3.15982,-2.37485 4.29367,-3.40403 3.02276,-2.74117 4.90171,-6.9526 4.48555,-11.05937 -0.33143,-3.25452 -2.33,-6.60124 -4.79705,-8.68203 -1.398,-1.17871 -4.41079,-2.0808 -4.07188,-4.27374 0.13457,-0.87468 0.4959,-1.1164 1.19615,-1.53256 z"
     style="fill:#000000;fill-opacity:1;stroke:none"
     inkscape:label="right" />
  <path
     style="fill:#000000;stroke:none;fill-opacity:1"
     d="m 43.53488,15.855671 c 2.47204,-0.40121 5.47238,0.77999 6.24489,3.35669 0.32395,1.08151 0.23424,2.82091 0.23424,3.98715 0,0 0,6.47913 0,6.47913 0,0 0,48.84265 0,48.84265 -0.002,1.2435 -0.0174,2.3898 -0.70772,3.48876 -1.53256,2.43964 -5.1534,3.26698 -7.51579,1.5849 0,0 -4.73474,-4.57526 -4.73474,-4.57526 0,0 -8.47271,-8.47271 -8.47271,-8.47271 -0.95692,-0.95692 -3.95725,-4.20894 -4.98394,-4.58523 -0.48344,-0.17942 -1.22356,-0.14952 -1.74438,-0.14952 0,0 -10.21709,0 -10.21709,0 -1.46029,0 -3.9323295,0.15201 -5.2331395,-0.33143 -2.60411,-0.96439 -3.23458,-2.86078 -3.23956,-5.4001 0,0 0,-19.93578 0,-19.93578 0.005,-3.65323 1.70949,-5.68668 5.48234,-5.73153 0,0 13.2074495,0 13.2074495,0 0.52082,0 1.26094,0.0299 1.74438,-0.14952 1.02669,-0.37629 4.02702,-3.62831 4.98394,-4.58523 0,0 9.4695,-9.4695 9.4695,-9.4695 1.64719,-1.64719 3.17975,-3.66569 5.48233,-4.35347 z"
     id="Selection"
     inkscape:label="left" />
</svg>
