<?xml version="1.0" encoding="UTF-8" standalone="no"?>
<svg
   width="32"
   height="32"
   viewBox="0 0 100.0001 99.999998"
   version="1.1"
   id="svg1"
   sodipodi:docname="newVolumeHighLow.svg"
   inkscape:version="1.3.2 (091e20e, 2023-11-25, custom)"
   xmlns:inkscape="http://www.inkscape.org/namespaces/inkscape"
   xmlns:sodipodi="http://sodipodi.sourceforge.net/DTD/sodipodi-0.dtd"
   xmlns="http://www.w3.org/2000/svg"
   xmlns:svg="http://www.w3.org/2000/svg">
  <sodipodi:namedview
     id="namedview1"
     pagecolor="#ffffff"
     bordercolor="#000000"
     borderopacity="0.25"
     inkscape:showpageshadow="2"
     inkscape:pageopacity="0.0"
     inkscape:pagecheckerboard="0"
     inkscape:deskcolor="#d1d1d1"
     inkscape:zoom="25.40625"
     inkscape:cx="15.98032"
     inkscape:cy="16"
     inkscape:window-width="1920"
     inkscape:window-height="1009"
     inkscape:window-x="-8"
     inkscape:window-y="-8"
     inkscape:window-maximized="1"
     inkscape:current-layer="svg1" />
  <defs
     id="defs1" />
  <path
     style="fill:#000000;fill-opacity:1;stroke:none"
     d="m 62.180118,31.121206 c 0.72011,-0.17691 1.03407,-0.21678 1.74422,0 1.94106,0.80982 4.92866,4.65457 6.01506,6.50095 4.67201,7.943666 4.79411,17.317596 -0.20682,25.166586 -1.01663,1.59222 -3.922,5.128 -5.55907,5.93532 -1.31066,0.65035 -3.17199,-0.14701 -3.73512,-1.46016 -0.28904,-0.67526 -0.25166,-1.50999 -0.25166,-2.2326 0,0 0,-25.415746 0,-25.415746 0,-1.52993 -0.2442,-6.07237 0.3613,-7.21608 0.4211,-0.79238 0.85217,-1.00916 1.63209,-1.27827 z"
     id="path2"
     inkscape:label="middle" />
  <path
     style="fill:#000000;fill-opacity:1;stroke:none"
     d="m 61.930938,20.341936 c 2.23011,-0.43605 4.78664,1.11879 6.58318,2.32729 0,0 2.13792,1.37544 2.13792,1.37544 3.30404,2.46682 6.08981,5.59645 8.25513,9.09236 7.67955,12.406376 5.7036,29.649216 -4.7667,39.865356 -2.28741,2.23011 -7.25096,6.22188 -10.46531,6.67787 -3.3489,0.47592 -5.53665,-2.70354 -3.92947,-5.42951 0.95932,-1.62959 3.30903,-2.52413 4.92866,-3.51086 2.12047,-1.29321 4.52749,-3.44608 5.96772,-5.4594 2.25752,-3.15704 3.60306,-5.42452 4.62218,-9.21944 0.32143,-1.19604 0.60549,-2.75338 0.62044,-3.98679 0,0 0,-3.73761 0,-3.73761 -0.007,-4.552406 -2.50171,-10.241046 -5.36222,-13.714536 -1.95353,-2.37214 -4.2559,-4.26586 -6.84731,-5.89795 0,0 -2.73593,-1.5075 -2.73593,-1.5075 -2.65619,-1.86133 -2.28991,-5.56655 0.99171,-6.87472 z"
     id="path1"
     inkscape:label="right" />
  <path
     style="fill:#000000;fill-opacity:1;stroke:none"
     d="m 43.492058,15.772086 c 0.56812,-0.0374 0.90949,-0.0897 1.49505,0 0.95932,0.005 1.91864,0.29403 2.74091,0.78988 2.61882,1.58226 2.24257,3.97682 2.24257,6.6081 0,0 0,4.73431 0,4.73431 0,0 0,42.359586 0,42.359586 0,0 0,8.97027 0,8.97027 -0.0424,3.35886 -2.38709,5.44196 -5.73101,5.20773 -2.48426,-0.17193 -4.09642,-2.32728 -5.731,-3.96186 0,0 -10.46531,-10.46532 -10.46531,-10.46532 -0.9045,-0.9045 -3.47847,-3.71518 -4.48513,-4.08645 -0.4834,-0.17941 -1.22345,-0.1495 -1.74422,-0.1495 0,0 -13.2062305,0 -13.2062305,0 -3.77499,-0.0473 -5.4768397,-2.40952 -5.4818297,-5.98018 0,0 0,-19.435576 0,-19.435576 0,-0.7849 -0.0249,-1.4776 0.19685,-2.24257 0.8222697,-2.84806 3.0897597,-3.73262 5.7833297,-3.73761 0,0 12.7078805,0 12.7078805,0 0.52077,0 1.26082,0.0299 1.74422,-0.1495 1.02659,-0.37626 4.02665,-3.62798 4.98348,-4.58481 0,0 9.46861,-9.46861 9.46861,-9.46861 1.63957,-1.63957 3.20438,-3.64293 5.48183,-4.40789 z"
     id="Selection #2"
     inkscape:label="left" />
</svg>
