<svg
  xmlns="http://www.w3.org/2000/svg"
  viewBox="0 0 100 100"
  height="1"
  width="1"
>
  <path
    d="m 78.95385,40.14337 14.11291,-14.1129 q 1.12007,-1.12007 2.46415,-0.56004 1.34409,0.56004 1.34409,2.12814 v 38.53046 q 0,1.5681 -1.34409,2.12814 -1.34408,0.56004 -2.46415,-0.56004 L 78.95385,53.58423 q 0,1.90412 -1.28808,3.19221 -1.28808,1.28808 -3.1922,1.28808 -1.90413,0 -3.19221,-1.28808 -1.28808,-1.28809 -1.28808,-3.19221 V 19.98208 H 38.63127 q -2.24014,0 -3.36021,-1.40009 -1.12007,-1.40009 -1.12007,-3.0802 0,-1.6801 1.12007,-3.08019 1.12007,-1.40009 3.36021,-1.40009 h 31.36201 q 3.69624,0 6.3284,2.63217 2.63217,2.63216 2.63217,6.3284 z M 87.24238,94.57885 4.35708,11.69355 Q 3.125,10.46147 3.125,8.55735 q 0,-1.90412 1.23208,-3.1362 1.23208,-1.23208 3.1362,-1.23208 1.90412,0 3.1362,1.23208 l 82.8853,82.8853 q 1.23208,1.23208 1.23208,3.1362 0,1.90413 -1.23208,3.1362 -1.23207,1.23208 -3.1362,1.23208 -1.90412,0 -3.1362,-1.23208 z M 54.08826,36.22312 Z m -12.99283,12.4328 z m -24.86559,-37.63441 8.96057,8.96057 h -8.96057 v 53.76344 h 53.76344 v -8.96057 l 8.96057,8.96057 q 0,3.69624 -2.63217,6.32841 -2.63216,2.63217 -6.3284,2.63217 H 16.22984 q -3.69624,0 -6.32841,-2.63217 Q 7.26927,77.44176 7.26927,73.74552 V 19.98208 q 0,-3.69624 2.63216,-6.3284 2.63217,-2.63217 6.32841,-2.63217 z"
  />
</svg>
