<svg
  xmlns="http://www.w3.org/2000/svg"
  viewBox="0 0 100 100"
  height="1"
  width="1"
>
  <path
    d="m 30.228334,30.743323 q 10.0496,0.10569 19.09396,4.14893 9.04436,4.04325 15.6246,11.55514 7.87897,8.9945 10.46268,20.61865 2.58371,11.62415 -0.96991,23.12191 -0.60453,2.10172 0.19387,4.10995 0.7984,2.00823 2.88785,2.79818 2.08946,0.78995 4.04827,0.0349 1.95881,-0.75511 2.64992,-2.75799 4.57804,-14.31664 1.58478,-28.90104 -2.99327,-14.58441 -12.95021,-25.95108 -7.87897,-8.9945 -18.49368,-13.93305 -10.61471,-4.93856 -22.50628,-5.35226 l 9.68638,-8.48505 q 1.68029,-1.47189 1.82127,-3.6042501 0.14097,-2.13237 -1.33093,-3.81266 -1.47189,-1.68029 -3.60426,-1.82126 -2.13236,-0.14098 -3.81265,1.33092 L 14.845864,21.159693 q -1.68029,1.47189 -1.82126,3.60425 -0.14097,2.13237 1.33092,3.81266 l 17.31643,19.76813 q 1.47189,1.68029 3.60426,1.82126 2.13236,0.14097 3.81265,-1.33092 1.68029,-1.4719 1.82126,-3.60426 0.14098,-2.13237 -1.33092,-3.81265 z"
    style="stroke-width:0.1314" 
	/>
</svg>
