<svg
  xmlns="http://www.w3.org/2000/svg"
  viewBox="0 0 100 100"
  height="1"
  width="1"
>
  <defs>
    <filter
      style="color-interpolation-filters:sRGB;"
      id="filter2"
      x="-0.10273676"
      y="-0.080000001"
      width="1.2340115"
      height="1.1822222"
    >
      <feFlood
        result="flood"
        in="SourceGraphic"
        flood-opacity="0.498039"
        flood-color="rgb(0,0,0)"
        id="feFlood1" 
      />
      <feGaussianBlur
        result="blur"
        in="SourceGraphic"
        stdDeviation="3.000000"
        id="feGaussianBlur1" 
      />
      <feOffset
        result="offset"
        in="blur"
        dx="2.000000"
        dy="2.000000"
        id="feOffset1" 
      />
      <feComposite
        result="comp1"
        operator="in"
        in="flood"
        in2="offset"
        id="feComposite1" 
      />
      <feComposite
        result="comp2"
        operator="over"
        in="SourceGraphic"
        in2="comp1"
        id="feComposite2" 
      />
    </filter>
  </defs>
  <path
    d="m 31.26894,31.756826 q 9.520678,0.100127 18.089022,3.930567 8.568345,3.830449 14.802259,10.946979 7.464291,8.521109 9.912017,19.533466 2.447726,11.012357 -0.918863,21.904977 -0.572712,1.991104 0.183667,3.893638 0.756379,1.902534 2.735859,2.650908 1.979489,0.748374 3.835205,0.03306 1.855715,-0.715364 2.510451,-2.61283 Q 86.75565,78.474453 83.919928,64.657647 81.084198,50.840832 71.651303,40.072403 64.187013,31.551294 54.130967,26.872666 44.074922,22.194028 32.809219,21.802101 L 41.985794,13.76363 Q 43.577648,12.369207 43.711208,10.349075 43.844759,8.3289343 42.450327,6.73708 41.055904,5.1452256 39.035763,5.011675 37.015632,4.878115 35.423777,6.2725471 L 16.696067,22.677593 q -1.591854,1.394423 -1.725404,3.414554 -0.133551,2.020141 1.260872,3.611996 l 16.405045,18.72771 q 1.394423,1.591854 3.414564,1.725405 2.020131,0.13355 3.611986,-1.260873 1.591854,-1.394432 1.725405,-3.414563 0.13356,-2.020141 -1.260872,-3.611986 z"
    style="stroke-width:0.124484;filter:url(#filter2)"
    filter="url(#shadow)"
    transform="matrix(0.93984961,0,0,0.93984961,2.067669,2.0676685)" 
  />
</svg>
