<svg
  xmlns="http://www.w3.org/2000/svg"
  viewBox="0 0 100 100"
  height="1"
  width="1"
>
  <path
    d="m 92.22222,97.5 q 2.24306,0 3.76042,-1.51736 Q 97.5,94.46528 97.5,92.22222 V 60.55556 q 0,-2.24306 -1.51736,-3.76042 -1.51736,-1.51736 -3.76042,-1.51736 -2.24305,0 -3.76041,1.51736 -1.51737,1.51736 -1.51737,3.76042 v 19 l -66.5,-66.5 h 19 q 2.24306,0 3.76042,-1.51737 1.51736,-1.51736 1.51736,-3.76041 0,-2.24306 -1.51736,-3.76042 Q 41.6875,2.5 39.44444,2.5 H 7.77778 Q 5.53472,2.5 4.01736,4.01736 2.5,5.53472 2.5,7.77778 v 31.66666 q 0,2.24306 1.51736,3.76042 1.51736,1.51736 3.76042,1.51736 2.24305,0 3.76041,-1.51736 1.51737,-1.51736 1.51737,-3.76042 v -19 l 66.5,66.5 h -19 q -2.24306,0 -3.76042,1.51737 -1.51736,1.51736 -1.51736,3.76041 0,2.24306 1.51736,3.76042 Q 58.3125,97.5 60.55556,97.5 Z"
    style="stroke-width:0.131944" 
	/>
</svg>
