<?xml version="1.0" encoding="UTF-8" standalone="no"?>
<svg
   width="32"
   height="32"
   viewBox="0 0 8.4666665 8.4666666"
   version="1.1"
   id="svg1"
   inkscape:version="1.3.2 (091e20e, 2023-11-25, custom)"
   sodipodi:docname="tint.svg"
   xmlns:inkscape="http://www.inkscape.org/namespaces/inkscape"
   xmlns:sodipodi="http://sodipodi.sourceforge.net/DTD/sodipodi-0.dtd"
   xmlns="http://www.w3.org/2000/svg"
   xmlns:svg="http://www.w3.org/2000/svg">
  <sodipodi:namedview
     id="namedview1"
     pagecolor="#ffffff"
     bordercolor="#000000"
     borderopacity="0.25"
     inkscape:showpageshadow="2"
     inkscape:pageopacity="0.0"
     inkscape:pagecheckerboard="0"
     inkscape:deskcolor="#d1d1d1"
     inkscape:document-units="mm"
     inkscape:zoom="16"
     inkscape:cx="10.90625"
     inkscape:cy="21.09375"
     inkscape:window-width="1920"
     inkscape:window-height="1009"
     inkscape:window-x="-8"
     inkscape:window-y="-8"
     inkscape:window-maximized="1"
     inkscape:current-layer="layer1" />
  <defs
     id="defs1">
    <inkscape:path-effect
       effect="offset"
       id="path-effect8"
       is_visible="true"
       lpeversion="1.2"
       linejoin_type="miter"
       unit="mm"
       offset="1"
       miter_limit="4"
       attempt_force_join="false"
       update_on_knot_move="true" />
    <inkscape:path-effect
       effect="offset"
       id="path-effect7"
       is_visible="true"
       lpeversion="1.2"
       linejoin_type="miter"
       unit="mm"
       offset="-2.229583"
       miter_limit="4"
       attempt_force_join="false"
       update_on_knot_move="true" />
  </defs>
  <g
     inkscape:label="Layer 1"
     inkscape:groupmode="layer"
     id="layer1">
    <path
       id="path10"
       style="fill:none;stroke:white;stroke-width:0.255202;stroke-linecap:round;stroke-linejoin:round;stroke-dasharray:none;stroke-opacity:1"
       d="m 1.4257168,5.1310426 0.7851606,0.784738 -4.372e-4,-0.7851088 z m -5e-5,-2.5890227 v 2.4164546 0.1708 L 2.2158661,5.9201383 H 2.4823673 7.036148 V 4.7424822 a 2.3718405,2.1969058 0 0 0 0,-6.646e-4 2.3718405,2.1969058 0 0 0 0,-6.644e-4 2.3718405,2.1969058 0 0 0 0,-6.646e-4 2.3718405,2.1969058 0 0 0 0,-6.647e-4 2.3718405,2.1969058 0 0 0 -2.3719271,-2.1971393 2.3718405,2.1969058 0 0 0 -0.002,0 V 2.5420199 Z M 1.0452881,2.1608049 V 6.3058618 H 7.4213786 V 4.8603756 a 2.695588,2.695588 0 0 0 0,-0.00331 2.695588,2.695588 0 0 0 -2.695583,-2.6955829 2.695588,2.695588 0 0 0 -0.002,0 v -6.646e-4 z" />
  </g>
</svg>
