<?xml version="1.0" encoding="UTF-8" standalone="no"?>
<!-- Created with Inkscape (http://www.inkscape.org/) -->

<svg
   width="32"
   height="32"
   viewBox="0 0 8.4666665 8.4666666"
   version="1.1"
   id="svg1"
   inkscape:version="1.3.2 (091e20e, 2023-11-25, custom)"
   sodipodi:docname="tintFilledIcon.svg"
   xmlns:inkscape="http://www.inkscape.org/namespaces/inkscape"
   xmlns:sodipodi="http://sodipodi.sourceforge.net/DTD/sodipodi-0.dtd"
   xmlns="http://www.w3.org/2000/svg"
   xmlns:svg="http://www.w3.org/2000/svg">
  <sodipodi:namedview
     id="namedview1"
     pagecolor="#ffffff"
     bordercolor="#000000"
     borderopacity="0.25"
     inkscape:showpageshadow="2"
     inkscape:pageopacity="0.0"
     inkscape:pagecheckerboard="0"
     inkscape:deskcolor="#d1d1d1"
     inkscape:document-units="mm"
     inkscape:zoom="16"
     inkscape:cx="15.21875"
     inkscape:cy="17.65625"
     inkscape:window-width="1920"
     inkscape:window-height="1009"
     inkscape:window-x="-8"
     inkscape:window-y="-8"
     inkscape:window-maximized="1"
     inkscape:current-layer="layer1"
     showgrid="false" />
  <defs
     id="defs1">
    <inkscape:path-effect
       effect="offset"
       id="path-effect8"
       is_visible="true"
       lpeversion="1.2"
       linejoin_type="miter"
       unit="mm"
       offset="1"
       miter_limit="4"
       attempt_force_join="false"
       update_on_knot_move="true" />
    <inkscape:path-effect
       effect="offset"
       id="path-effect7"
       is_visible="true"
       lpeversion="1.2"
       linejoin_type="miter"
       unit="mm"
       offset="-2.229583"
       miter_limit="4"
       attempt_force_join="false"
       update_on_knot_move="true" />
  </defs>
  <g
     inkscape:label="Layer 1"
     inkscape:groupmode="layer"
     id="layer1">
    <path
       style="fill:none;stroke:white;stroke-width:0.255202;stroke-linecap:round;stroke-linejoin:round;stroke-dasharray:none;stroke-opacity:1"
       d="M 1.0452881,2.1608049 V 6.3058618 H 7.4213786 V 4.8603756 a 2.695588,2.695588 0 0 0 0,-0.00331 2.695588,2.695588 0 0 0 -2.695583,-2.6955829 2.695588,2.695588 0 0 0 -0.002,0 v -6.646e-4 z"
       id="path2" />
    <path
       id="path1"
       style="fill:#4d4d4d;stroke:white;stroke-width:0.255202;stroke-linecap:round;stroke-linejoin:round;stroke-dasharray:none;stroke-opacity:1"
       d="M 1.4257528 2.5419637 L 1.4257528 4.9583537 L 1.4257528 5.1294027 L 1.4273031 5.130953 L 2.210201 5.1304362 L 2.2107178 5.9148844 L 2.2158854 5.9200521 L 2.4825358 5.9200521 L 7.036263 5.9200521 L 7.036263 4.7423462 A 2.3718405 2.1969058 0 0 0 7.036263 4.7418294 A 2.3718405 2.1969058 0 0 0 7.036263 4.7413127 A 2.3718405 2.1969058 0 0 0 7.036263 4.7407959 A 2.3718405 2.1969058 0 0 0 7.036263 4.7402791 A 2.3718405 2.1969058 0 0 0 7.036263 4.7397624 A 2.3718405 2.1969058 0 0 0 4.6643148 2.5424805 A 2.3718405 2.1969058 0 0 0 4.6622477 2.5424805 L 4.6622477 2.5419637 L 1.4257528 2.5419637 z " />
    <path
       style="fill:none;stroke:white;stroke-width:0.255202;stroke-linecap:round;stroke-linejoin:round;stroke-dasharray:none;stroke-opacity:1"
       d="M 1.4227569,5.1286893 2.2079175,5.9134273 2.2074803,5.1283185 Z"
       id="path10-8" />
  </g>
</svg>
