<?xml version="1.0" encoding="UTF-8" standalone="no"?>
<svg
   viewBox="0 -960 960 960"
   height="1px"
   width="1px"
   version="1.1"
   id="svg1"
   xmlns="http://www.w3.org/2000/svg"
   xmlns:svg="http://www.w3.org/2000/svg">
  <defs
     id="defs1" />
  <path
     style="stroke-width:1.13333"
     d="m 253.33333,-342.86667 h -136 q -19.26666,0 -32.3,-13.03333 Q 72,-368.93333 72,-388.2 v -181.33333 q 0,-19.26667 13.03333,-32.3 13.03334,-13.03334 32.3,-13.03334 h 136 l 149.6,-149.6 Q 424.46667,-786 452.23333,-774.1 480,-762.2 480,-731.6 v 505.46667 q 0,30.6 -27.76667,42.5 -27.76666,11.9 -49.3,-9.63334 z"
     id="path2" />
  <path
     style="stroke-width:1.13333"
     d="m 684,-478.86667 q 0,47.6 -21.53333,90.1 -21.53334,42.5 -56.66667,69.7 -11.33333,6.8 -23.23333,0.56667 -11.9,-6.23333 -11.9,-19.83333 v -283.33334 q 0,-13.6 11.9,-19.83333 11.9,-6.23333 23.23333,0.56667 35.13333,28.33333 56.66667,71.4 Q 684,-526.46667 684,-478.86667 Z"
     id="path3"
     transform="scale(1.0000032)" />
  <path
     style="stroke-width:1.13333"
     d="m 797.33333,-480 q 0,-94.06667 -49.86666,-171.7 -49.86667,-77.63333 -133.73334,-116.16667 -17,-7.93333 -24.93333,-24.36666 -7.93333,-16.43334 -2.26667,-33.43334 6.8,-18.13333 24.36667,-26.06666 17.56667,-7.93334 35.7,0 Q 756.53333,-803 822.26667,-702.7 888,-602.4 888,-480 888,-357.6 822.26667,-257.3 756.53333,-157 646.6,-108.26667 q -18.13333,7.93334 -35.7,0 -17.56667,-7.93333 -24.36667,-26.06666 -5.66666,-17 2.26667,-33.43334 7.93333,-16.43333 24.93333,-24.36666 Q 697.6,-230.66667 747.46667,-308.3 797.33333,-385.93333 797.33333,-480 Z"
     id="path1" />
</svg>
