{
	"asset":{
		"generator":"Khronos glTF Blender I/O v3.6.27",
		"version":"2.0"
	},
	"scene":0,
	"scenes":[
		{
			"name":"Scene",
			"nodes":[
				0
			]
		}
	],
	"nodes":[
		{
			"mesh":0,
			"name":"gasMask4"
		}
	],
	"materials":[
		{
			"alphaMode":"BLEND",
			"doubleSided":true,
			"name":"material_5",
			"normalTexture":{
				"index":0
			},
			"pbrMetallicRoughness":{
				"baseColorTexture":{
					"index":1
				},
				"metallicRoughnessTexture":{
					"index":2
				}
			}
		}
	],
	"meshes":[
		{
			"name":"defaultMaterial.003",
			"primitives":[
				{
					"attributes":{
						"POSITION":0,
						"NORMAL":1,
						"TEXCOORD_0":2
					},
					"indices":3,
					"material":0
				}
			]
		}
	],
	"textures":[
		{
			"sampler":0,
			"source":0
		},
		{
			"sampler":0,
			"source":1
		},
		{
			"sampler":0,
			"source":2
		}
	],
	"images":[
		{
			"mimeType":"image/png",
			"name":"material_5_normal",
			"uri":"tex2/material_5_normal.png"
		},
		{
			"mimeType":"image/png",
			"name":"material_5_baseColor",
			"uri":"tex2/material_5_baseColor.png"
		},
		{
			"mimeType":"image/png",
			"name":"material_5_metallicRoughness",
			"uri":"tex2/material_5_metallicRoughness.png"
		}
	],
	"accessors":[
		{
			"bufferView":0,
			"componentType":5126,
			"count":2109,
			"max":[
				0.6672803163528442,
				0.7039037346839905,
				0.35158464312553406
			],
			"min":[
				-0.6669666171073914,
				-0.4624752402305603,
				-0.3230450749397278
			],
			"type":"VEC3"
		},
		{
			"bufferView":1,
			"componentType":5126,
			"count":2109,
			"type":"VEC3"
		},
		{
			"bufferView":2,
			"componentType":5126,
			"count":2109,
			"type":"VEC2"
		},
		{
			"bufferView":3,
			"componentType":5123,
			"count":7446,
			"type":"SCALAR"
		}
	],
	"bufferViews":[
		{
			"buffer":0,
			"byteLength":25308,
			"byteOffset":0,
			"target":34962
		},
		{
			"buffer":0,
			"byteLength":25308,
			"byteOffset":25308,
			"target":34962
		},
		{
			"buffer":0,
			"byteLength":16872,
			"byteOffset":50616,
			"target":34962
		},
		{
			"buffer":0,
			"byteLength":14892,
			"byteOffset":67488,
			"target":34963
		}
	],
	"samplers":[
		{
			"magFilter":9729,
			"minFilter":9987
		}
	],
	"buffers":[
		{
			"byteLength":82380,
			"uri":"gasMask4.bin"
		}
	]
}
