{
  "accessors": [
    {
      "bufferView": 2,
      "componentType": 5126,
      "count": 1089,
      "max": [
        70.05108642578125,
        60.95425033569336,
        91.41714477539063
      ],
      "min": [
        -70.05108642578125,
        -60.95415115356445,
        -91.41714477539063
      ],
      "type": "VEC3"
    },
    {
      "bufferView": 2,
      "byteOffset": 13068,
      "componentType": 5126,
      "count": 1089,
      "max": [
        0.999976634979248,
        0.9982796311378479,
        0.9998014569282532
      ],
      "min": [
        -0.9999755620956421,
        -0.7749378085136414,
        -0.9998419284820557
      ],
      "type": "VEC3"
    },
    {
      "bufferView": 1,
      "componentType": 5126,
      "count": 1089,
      "max": [
        0.9693930149078369,
        0.9616640210151672
      ],
      "min": [
        0.022607000544667244,
        0.045740000903606415
      ],
      "type": "VEC2"
    },
    {
      "bufferView": 0,
      "componentType": 5125,
      "count": 5760,
      "type": "SCALAR"
    }
  ],
  "asset": {
    "extras": {
      "author": "shimtimultimedia (https://sketchfab.com/shimtimultimedia)",
      "license": "CC-BY-4.0 (http://creativecommons.org/licenses/by/4.0/)",
      "source": "https://sketchfab.com/3d-models/chef-hat-toon-0fe884ae9a734e22b6d1eb41127f1cc6",
      "title": "Chef Hat (Toon)"
    },
    "generator": "Sketchfab-12.66.0",
    "version": "2.0"
  },
  "bufferViews": [
    {
      "buffer": 0,
      "byteLength": 23040,
      "name": "floatBufferViews",
      "target": 34963
    },
    {
      "buffer": 0,
      "byteLength": 8712,
      "byteOffset": 23040,
      "byteStride": 8,
      "name": "floatBufferViews",
      "target": 34962
    },
    {
      "buffer": 0,
      "byteLength": 26136,
      "byteOffset": 31752,
      "byteStride": 12,
      "name": "floatBufferViews",
      "target": 34962
    }
  ],
  "buffers": [
    {
      "byteLength": 57888,
      "uri": "scene.bin"
    }
  ],
  "extensionsRequired": [
    "KHR_materials_pbrSpecularGlossiness"
  ],
  "extensionsUsed": [
    "KHR_materials_pbrSpecularGlossiness"
  ],
  "images": [
    {
      "uri": "textures/chefhat_1_null_diffuse.png"
    }
  ],
  "materials": [
    {
      "doubleSided": true,
      "extensions": {
        "KHR_materials_pbrSpecularGlossiness": {
          "diffuseFactor": [
            1.0,
            1.0,
            1.0,
            1.0
          ],
          "diffuseTexture": {
            "index": 0
          },
          "glossinessFactor": 1.0,
          "specularFactor": [
            0.0,
            0.0,
            0.0
          ]
        }
      },
      "name": "chefhat_1_null"
    }
  ],
  "meshes": [
    {
      "name": "chefhat_1_chefhat_1_(null)_0",
      "primitives": [
        {
          "attributes": {
            "NORMAL": 1,
            "POSITION": 0,
            "TEXCOORD_0": 2
          },
          "indices": 3,
          "material": 0,
          "mode": 4
        }
      ]
    }
  ],
  "nodes": [
    {
      "children": [
        1
      ],
      "matrix": [
        0.0012758683878928423,
        0.0,
        0.0,
        0.0,
        0.0,
        2.8329969212600277e-19,
        -0.0012758683878928423,
        0.0,
        0.0,
        0.0012758683878928423,
        2.8329969212600277e-19,
        0.0,
        0.0,
        -0.0004773711843881761,
        0.0022257021628320217,
        1.0
      ],
      "name": "Sketchfab_model"
    },
    {
      "children": [
        2
      ],
      "matrix": [
        1.0,
        0.0,
        0.0,
        0.0,
        0.0,
        0.0,
        1.0,
        0.0,
        0.0,
        -1.0,
        0.0,
        0.0,
        0.0,
        0.0,
        0.0,
        1.0
      ],
      "name": "8784fca9aafb4c2dbbf784cdf729e7d2.fbx"
    },
    {
      "children": [
        3
      ],
      "name": "Object_2"
    },
    {
      "children": [
        4
      ],
      "name": "RootNode"
    },
    {
      "children": [
        5
      ],
      "name": "chefhat_1",
      "translation": [
        0.0,
        -4.882527719018981e-05,
        0.0
      ]
    },
    {
      "mesh": 0,
      "name": "chefhat_1_chefhat_1_(null)_0"
    }
  ],
  "samplers": [
    {
      "magFilter": 9729,
      "minFilter": 9987,
      "wrapS": 10497,
      "wrapT": 10497
    }
  ],
  "scene": 0,
  "scenes": [
    {
      "name": "Sketchfab_Scene",
      "nodes": [
        0
      ]
    }
  ],
  "textures": [
    {
      "sampler": 0,
      "source": 0
    }
  ]
}
