{
  "asset": {
    "generator": "Khronos glTF Blender I/O v3.6.27",
    "version": "2.0"
  },
  "scene": 0,
  "scenes": [
    {
      "name": "Scene",
      "nodes": [0]
    }
  ],
  "nodes": [
    {
      "mesh": 0,
      "name": "woodlandsFaceMask"
    }
  ],
  "materials": [
    {
      "name": "Masks1",
      "normalTexture": {
        "index": 0
      },
      "pbrMetallicRoughness": {
        "baseColorTexture": {
          "index": 1
        },
        "metallicRoughnessTexture": {
          "index": 2
        }
      }
    }
  ],
  "meshes": [
    {
      "name": "Object_1",
      "primitives": [
        {
          "attributes": {
            "POSITION": 0,
            "NORMAL": 1,
            "TEXCOORD_0": 2
          },
          "indices": 3,
          "material": 0
        }
      ]
    }
  ],
  "textures": [
    {
      "sampler": 0,
      "source": 0
    },
    {
      "sampler": 0,
      "source": 1
    },
    {
      "sampler": 0,
      "source": 2
    }
  ],
  "images": [
    {
      "mimeType": "image/png",
      "name": "Masks1_normal",
      "uri": "texs/Masks1_normal.png"
    },
    {
      "mimeType": "image/png",
      "name": "Masks1_baseColor",
      "uri": "texs/Masks1_baseColor.png"
    },
    {
      "mimeType": "image/png",
      "name": "Masks1_metallicRoughness",
      "uri": "texs/Masks1_metallicRoughness.png"
    }
  ],
  "accessors": [
    {
      "bufferView": 0,
      "componentType": 5126,
      "count": 1671,
      "max": [0.6828216910362244, 0.8915035128593445, 0.4324743151664734],
      "min": [-0.6825281381607056, -0.6950190663337708, -0.2062128782272339],
      "type": "VEC3"
    },
    {
      "bufferView": 1,
      "componentType": 5126,
      "count": 1671,
      "type": "VEC3"
    },
    {
      "bufferView": 2,
      "componentType": 5126,
      "count": 1671,
      "type": "VEC2"
    },
    {
      "bufferView": 3,
      "componentType": 5123,
      "count": 6192,
      "type": "SCALAR"
    }
  ],
  "bufferViews": [
    {
      "buffer": 0,
      "byteLength": 20052,
      "byteOffset": 0,
      "target": 34962
    },
    {
      "buffer": 0,
      "byteLength": 20052,
      "byteOffset": 20052,
      "target": 34962
    },
    {
      "buffer": 0,
      "byteLength": 13368,
      "byteOffset": 40104,
      "target": 34962
    },
    {
      "buffer": 0,
      "byteLength": 12384,
      "byteOffset": 53472,
      "target": 34963
    }
  ],
  "samplers": [
    {
      "magFilter": 9729,
      "minFilter": 9987
    }
  ],
  "buffers": [
    {
      "byteLength": 65856,
      "uri": "woodlandMask.bin"
    }
  ]
}
