{
	"asset":{
		"generator":"Khronos glTF Blender I/O v3.6.27",
		"version":"2.0"
	},
	"scene":0,
	"scenes":[
		{
			"name":"Scene",
			"nodes":[
				0
			]
		}
	],
	"nodes":[
		{
			"mesh":0,
			"name":"AsianConicalHat"
		}
	],
	"materials":[
		{
			"doubleSided":true,
			"name":"material.002",
			"normalTexture":{
				"index":0
			},
			"pbrMetallicRoughness":{
				"baseColorTexture":{
					"index":1
				},
				"metallicFactor":0,
				"metallicRoughnessTexture":{
					"index":2
				}
			}
		}
	],
	"meshes":[
		{
			"name":"Object_1.004",
			"primitives":[
				{
					"attributes":{
						"POSITION":0,
						"NORMAL":1,
						"TEXCOORD_0":2
					},
					"indices":3,
					"material":0
				}
			]
		}
	],
	"textures":[
		{
			"sampler":0,
			"source":0
		},
		{
			"sampler":0,
			"source":1
		},
		{
			"sampler":0,
			"source":2
		}
	],
	"images":[
		{
			"mimeType":"image/png",
			"name":"material_normal",
			"uri":"texs2/material_normal.png"
		},
		{
			"mimeType":"image/jpeg",
			"name":"material_baseColor",
			"uri":"texs2/material_baseColor.jpg"
		},
		{
			"mimeType":"image/png",
			"name":"material_metallicRoughness",
			"uri":"texs2/material_metallicRoughness.png"
		}
	],
	"accessors":[
		{
			"bufferView":0,
			"componentType":5126,
			"count":4015,
			"max":[
				1.2152734994888306,
				0.7461487650871277,
				1.2115349769592285
			],
			"min":[
				-1.2087035179138184,
				-0.31196126341819763,
				-1.21244215965271
			],
			"type":"VEC3"
		},
		{
			"bufferView":1,
			"componentType":5126,
			"count":4015,
			"type":"VEC3"
		},
		{
			"bufferView":2,
			"componentType":5126,
			"count":4015,
			"type":"VEC2"
		},
		{
			"bufferView":3,
			"componentType":5123,
			"count":6534,
			"type":"SCALAR"
		}
	],
	"bufferViews":[
		{
			"buffer":0,
			"byteLength":48180,
			"byteOffset":0,
			"target":34962
		},
		{
			"buffer":0,
			"byteLength":48180,
			"byteOffset":48180,
			"target":34962
		},
		{
			"buffer":0,
			"byteLength":32120,
			"byteOffset":96360,
			"target":34962
		},
		{
			"buffer":0,
			"byteLength":13068,
			"byteOffset":128480,
			"target":34963
		}
	],
	"samplers":[
		{
			"magFilter":9729,
			"minFilter":9987
		}
	],
	"buffers":[
		{
			"byteLength":141548,
			"uri":"AsianConicalHat.bin"
		}
	]
}
