<?xml version="1.0" encoding="UTF-8" standalone="no"?>
<svg
   width="32"
   height="32"
   viewBox="0 0 99.999734 99.999821"
   version="1.1"
   id="svg1"
   sodipodi:docname="threeDim_memeGlassesIcon.svg"
   inkscape:version="1.3.2 (091e20e, 2023-11-25, custom)"
   xmlns:inkscape="http://www.inkscape.org/namespaces/inkscape"
   xmlns:sodipodi="http://sodipodi.sourceforge.net/DTD/sodipodi-0.dtd"
   xmlns:xlink="http://www.w3.org/1999/xlink"
   xmlns="http://www.w3.org/2000/svg"
   xmlns:svg="http://www.w3.org/2000/svg">
  <defs
     id="defs1">
    <linearGradient
       id="linearGradient3"
       inkscape:collect="always">
      <stop
         style="stop-color:#2e91f5;stop-opacity:0.3982684;"
         offset="0"
         id="stop4" />
      <stop
         style="stop-color:#2e91f5;stop-opacity:0.85064936;"
         offset="0.89902282"
         id="stop3" />
    </linearGradient>
    <linearGradient
       id="linearGradient1"
       inkscape:collect="always">
      <stop
         style="stop-color:#f56314;stop-opacity:0.85064936;"
         offset="0.10423452"
         id="stop1" />
      <stop
         style="stop-color:#f56314;stop-opacity:0.40476191;"
         offset="1"
         id="stop2" />
    </linearGradient>
    <linearGradient
       inkscape:collect="always"
       xlink:href="#linearGradient1"
       id="linearGradient2"
       x1="0.78124828"
       y1="49.999888"
       x2="94.530484"
       y2="49.999888"
       gradientUnits="userSpaceOnUse" />
    <linearGradient
       inkscape:collect="always"
       xlink:href="#linearGradient3"
       id="linearGradient4"
       x1="5.4687378"
       y1="46.870724"
       x2="99.217964"
       y2="46.870724"
       gradientUnits="userSpaceOnUse" />
  </defs>
  <sodipodi:namedview
     id="namedview1"
     pagecolor="#ffffff"
     bordercolor="#000000"
     borderopacity="0.25"
     inkscape:showpageshadow="2"
     inkscape:pageopacity="0.0"
     inkscape:pagecheckerboard="0"
     inkscape:deskcolor="#d1d1d1"
     inkscape:document-units="mm"
     inkscape:zoom="19.50431"
     inkscape:cx="7.3829836"
     inkscape:cy="18.021658"
     inkscape:window-width="1920"
     inkscape:window-height="1009"
     inkscape:window-x="-8"
     inkscape:window-y="-8"
     inkscape:window-maximized="1"
     inkscape:current-layer="svg1" />
  <path
     id="Selection"
     fill="none"
     stroke="#ffffff"
     stroke-width="0.929561"
     d="m 97.650321,39.726722 c -0.639313,-0.247643 -1.458947,-0.141912 -2.143345,-0.141912 0,0 -4.23477,0 -4.23477,0 0,0 -14.616795,0 -14.616795,0 0,0 -49.587843,0 -49.587843,0 0,0 -11.201652,0 -11.201652,0 0,0 -2.322291,0 -2.322291,0 -0.292346,0.0059 -0.651611,-0.0059 -0.874286,0.222594 -0.24589,0.249027 -0.215839,0.702556 -0.218564,1.029496 -0.0098,1.389811 -0.04238,1.666671 -1.50266,1.669458 0,0 -3.1419313,0 -3.1419313,0 -0.2923363,0.0059 -0.6516026,-0.0059 -0.8742666,0.222595 -0.2622886,0.267098 -0.2185738,0.815245 -0.2185738,1.168602 -9.144e-4,1.331388 -0.0059,1.527548 1.3660419,1.515031 0,0 3.4151608,0 3.4151608,0 0.151617,0.01256 0.394775,0.01107 0.538206,0 1.014988,-0.310235 0.218574,-1.775188 0.773197,-2.445738 0.310093,-0.374249 0.849681,-0.319982 1.284089,-0.310253 0,0 13.79717,0 13.79717,0 0,0 0.816891,0 0.816891,0 1.450755,0.296334 0.362008,2.102129 1.137934,2.6294 0.527294,0.35753 1.792276,-0.14608 2.315459,0.479964 0.525935,0.628825 -0.08338,2.008897 0.553253,2.441569 0.527306,0.357543 1.792267,-0.146083 2.315461,0.479963 0.491784,0.588481 -0.01091,1.886493 0.456273,2.360884 0.456262,0.464673 1.616043,-0.0251 2.18159,0.464673 0.769087,0.666383 -0.192607,2.335841 0.886572,2.664165 0.184422,0.02363 0.606526,0.01532 0.81143,0 0,0 17.348922,0 17.348922,0 0,0 0.68029,0 0.68029,0 1.241754,-0.208678 0.300528,-1.822482 0.92345,-2.568174 0.554624,-0.663609 1.916583,-0.05427 2.41246,-0.560664 0.439878,-0.446572 0.02192,-1.65414 0.378401,-2.249581 0.564175,-0.939065 2.230764,0.04037 2.626919,-0.887586 0.07925,-0.185038 0.07795,-0.473019 0.0819,-0.674738 0,0 0,-2.921548 0,-2.921548 0,-0.313022 -0.01911,-0.815247 0.101081,-1.097665 0.290974,-0.691424 1.785433,-0.774895 2.299076,-0.329708 0.678918,0.587079 -0.01091,1.950474 0.647507,2.398446 0.527297,0.35753 1.792267,-0.14608 2.315473,0.479964 0.491773,0.588481 -0.01091,1.886478 0.456252,2.360884 0.456264,0.46466 1.616044,-0.0251 2.181591,0.46466 0.769096,0.666397 -0.192617,2.335839 0.886574,2.664163 0.184409,0.02363 0.606523,0.01532 0.811444,0 0,0 17.348895,0 17.348895,0 0,0 0.680296,0 0.680296,0 1.241809,-0.208677 0.300592,-1.822481 0.923507,-2.568175 0.55462,-0.663608 1.916578,-0.05425 2.412462,-0.560648 0.409817,-0.417369 0.07651,-1.551208 0.319657,-2.12716 0.437129,-1.037839 1.997169,-0.230938 2.549052,-0.794388 0.22404,-0.226765 0.213108,-0.592653 0.218574,-0.890373 0,0 0,-3.338899 0,-3.338899 -9.13e-4,-0.570392 0.08057,-0.816649 -0.315556,-1.249301 z"
     style="stroke:#2e91f5;stroke-width:2.48031;stroke-dasharray:none;stroke-opacity:1;fill:url(#linearGradient4)" />
  <path
     id="Selection-1"
     fill="none"
     stroke="#ffffff"
     stroke-width="0.929561"
     d="m 92.962836,42.855886 c -0.63932,-0.247643 -1.45895,-0.141912 -2.14335,-0.141912 0,0 -4.234769,0 -4.234769,0 0,0 -14.616795,0 -14.616795,0 0,0 -49.587843,0 -49.587843,0 0,0 -11.201652,0 -11.201652,0 0,0 -2.3222909,0 -2.3222909,0 -0.292346,0.0059 -0.651611,-0.0059 -0.874286,0.222594 -0.24589,0.249027 -0.215839,0.702556 -0.218564,1.029496 -0.0098,1.389811 -0.04238,1.666671 -1.5026613,1.669458 0,0 -3.141931,0 -3.141931,0 -0.292336,0.0059 -0.651602,-0.0059 -0.874266,0.222595 -0.262289,0.267098 -0.218574,0.815245 -0.218574,1.168602 -9.15e-4,1.331388 -0.0059,1.527548 1.366042,1.515031 0,0 3.415161,0 3.415161,0 0.151617,0.01256 0.394775,0.01107 0.538205,0 1.0149893,-0.310235 0.218574,-1.775188 0.7731983,-2.445738 0.310093,-0.374249 0.849681,-0.319982 1.284089,-0.310253 0,0 13.7971699,0 13.7971699,0 0,0 0.816891,0 0.816891,0 1.450755,0.296334 0.362008,2.102129 1.137934,2.6294 0.527294,0.35753 1.792276,-0.14608 2.315459,0.479964 0.525935,0.628825 -0.08338,2.008897 0.553253,2.441569 0.527306,0.357543 1.792267,-0.146083 2.315461,0.479963 0.491784,0.588481 -0.01091,1.886493 0.456273,2.360884 0.456262,0.464673 1.616043,-0.0251 2.18159,0.464673 0.769087,0.666383 -0.192607,2.335841 0.886572,2.664165 0.184422,0.02363 0.606526,0.01532 0.81143,0 0,0 17.348922,0 17.348922,0 0,0 0.68029,0 0.68029,0 1.241754,-0.208678 0.300528,-1.822482 0.92345,-2.568174 0.554624,-0.663609 1.916583,-0.05427 2.41246,-0.560664 0.439878,-0.446572 0.02192,-1.65414 0.378401,-2.249581 0.564175,-0.939065 2.230764,0.04037 2.626919,-0.887586 0.07925,-0.185038 0.07795,-0.473019 0.0819,-0.674738 0,0 0,-2.921548 0,-2.921548 0,-0.313022 -0.01911,-0.815247 0.101081,-1.097665 0.290974,-0.691424 1.785433,-0.774895 2.299076,-0.329708 0.678918,0.587079 -0.01091,1.950474 0.647507,2.398446 0.527297,0.35753 1.792267,-0.14608 2.315473,0.479964 0.491773,0.588481 -0.01091,1.886478 0.456252,2.360884 0.456264,0.46466 1.616044,-0.0251 2.181591,0.46466 0.769096,0.666397 -0.192617,2.335839 0.886574,2.664163 0.184409,0.02363 0.606523,0.01532 0.811444,0 0,0 17.348895,0 17.348895,0 0,0 0.680296,0 0.680296,0 1.241809,-0.208677 0.300592,-1.822481 0.923507,-2.568175 0.554616,-0.663608 1.916576,-0.05425 2.412466,-0.560648 0.40981,-0.417369 0.0765,-1.551208 0.31965,-2.12716 0.43713,-1.037839 1.99717,-0.230938 2.54905,-0.794388 0.22404,-0.226765 0.21311,-0.592653 0.21858,-0.890373 0,0 0,-3.338899 0,-3.338899 -9.1e-4,-0.570392 0.0806,-0.816649 -0.31556,-1.249301 z"
     style="stroke:#f56314;stroke-width:2.48031;stroke-dasharray:none;stroke-opacity:1;fill:url(#linearGradient2)" />
</svg>
