{
	"asset":{
		"generator":"Khronos glTF Blender I/O v3.6.27",
		"version":"2.0"
	},
	"scene":0,
	"scenes":[
		{
			"name":"Scene",
			"nodes":[
				0
			]
		}
	],
	"nodes":[
		{
			"mesh":0,
			"name":"sixEyesFaceMask"
		}
	],
	"materials":[
		{
			"name":"Masks1",
			"normalTexture":{
				"index":0
			},
			"pbrMetallicRoughness":{
				"baseColorTexture":{
					"index":1
				},
				"metallicRoughnessTexture":{
					"index":2
				}
			}
		}
	],
	"meshes":[
		{
			"name":"Object_10",
			"primitives":[
				{
					"attributes":{
						"POSITION":0,
						"NORMAL":1,
						"TEXCOORD_0":2
					},
					"indices":3,
					"material":0
				}
			]
		}
	],
	"textures":[
		{
			"sampler":0,
			"source":0
		},
		{
			"sampler":0,
			"source":1
		},
		{
			"sampler":0,
			"source":2
		}
	],
	"images":[
		{
			"mimeType":"image/png",
			"name":"Masks1_normal",
			"uri":"tex2/Masks1_normal.png"
		},
		{
			"mimeType":"image/png",
			"name":"Masks1_baseColor",
			"uri":"tex2/Masks1_baseColor.png"
		},
		{
			"mimeType":"image/png",
			"name":"Masks1_metallicRoughness",
			"uri":"tex2/Masks1_metallicRoughness.png"
		}
	],
	"accessors":[
		{
			"bufferView":0,
			"componentType":5126,
			"count":2865,
			"max":[
				0.5047177076339722,
				0.5516984462738037,
				0.3174997568130493
			],
			"min":[
				-0.5047174096107483,
				-0.47113072872161865,
				-0.2468898743391037
			],
			"type":"VEC3"
		},
		{
			"bufferView":1,
			"componentType":5126,
			"count":2865,
			"type":"VEC3"
		},
		{
			"bufferView":2,
			"componentType":5126,
			"count":2865,
			"type":"VEC2"
		},
		{
			"bufferView":3,
			"componentType":5123,
			"count":14976,
			"type":"SCALAR"
		}
	],
	"bufferViews":[
		{
			"buffer":0,
			"byteLength":34380,
			"byteOffset":0,
			"target":34962
		},
		{
			"buffer":0,
			"byteLength":34380,
			"byteOffset":34380,
			"target":34962
		},
		{
			"buffer":0,
			"byteLength":22920,
			"byteOffset":68760,
			"target":34962
		},
		{
			"buffer":0,
			"byteLength":29952,
			"byteOffset":91680,
			"target":34963
		}
	],
	"samplers":[
		{
			"magFilter":9729,
			"minFilter":9987
		}
	],
	"buffers":[
		{
			"byteLength":121632,
			"uri":"sixEyesMask.bin"
		}
	]
}
