{
	"asset":{
		"generator":"Khronos glTF Blender I/O v3.6.27",
		"version":"2.0"
	},
	"scene":0,
	"scenes":[
		{
			"name":"Scene",
			"nodes":[
				0
			]
		}
	],
	"nodes":[
		{
			"mesh":0,
			"name":"roundEarsHat"
		}
	],
	"materials":[
		{
			"doubleSided":true,
			"name":"helmet.001",
			"pbrMetallicRoughness":{
				"baseColorFactor":[
					0,
					0,
					0,
					1
				],
				"metallicFactor":0,
				"roughnessFactor":0.5
			}
		},
		{
			"doubleSided":true,
			"name":"Material.001",
			"pbrMetallicRoughness":{
				"baseColorFactor":[
					0,
					0,
					0,
					1
				],
				"metallicFactor":0,
				"roughnessFactor":0.5
			}
		}
	],
	"meshes":[
		{
			"name":"Object_1.007",
			"primitives":[
				{
					"attributes":{
						"POSITION":0,
						"NORMAL":1,
						"TEXCOORD_0":2
					},
					"indices":3,
					"material":0
				},
				{
					"attributes":{
						"POSITION":4,
						"NORMAL":5,
						"TEXCOORD_0":6
					},
					"indices":7,
					"material":1
				}
			]
		}
	],
	"accessors":[
		{
			"bufferView":0,
			"componentType":5126,
			"count":13316,
			"max":[
				1.2258647680282593,
				1.4170022010803223,
				0.13996870815753937
			],
			"min":[
				-1.2258647680282593,
				0.4542684555053711,
				-0.11496680974960327
			],
			"type":"VEC3"
		},
		{
			"bufferView":1,
			"componentType":5126,
			"count":13316,
			"type":"VEC3"
		},
		{
			"bufferView":2,
			"componentType":5126,
			"count":13316,
			"type":"VEC2"
		},
		{
			"bufferView":3,
			"componentType":5123,
			"count":79872,
			"type":"SCALAR"
		},
		{
			"bufferView":4,
			"componentType":5126,
			"count":263,
			"max":[
				0.7363191843032837,
				0.7507448792457581,
				0.7363194823265076
			],
			"min":[
				-0.7363194823265076,
				0.146463081240654,
				-0.7363196015357971
			],
			"type":"VEC3"
		},
		{
			"bufferView":5,
			"componentType":5126,
			"count":263,
			"type":"VEC3"
		},
		{
			"bufferView":6,
			"componentType":5126,
			"count":263,
			"type":"VEC2"
		},
		{
			"bufferView":7,
			"componentType":5123,
			"count":1248,
			"type":"SCALAR"
		}
	],
	"bufferViews":[
		{
			"buffer":0,
			"byteLength":159792,
			"byteOffset":0,
			"target":34962
		},
		{
			"buffer":0,
			"byteLength":159792,
			"byteOffset":159792,
			"target":34962
		},
		{
			"buffer":0,
			"byteLength":106528,
			"byteOffset":319584,
			"target":34962
		},
		{
			"buffer":0,
			"byteLength":159744,
			"byteOffset":426112,
			"target":34963
		},
		{
			"buffer":0,
			"byteLength":3156,
			"byteOffset":585856,
			"target":34962
		},
		{
			"buffer":0,
			"byteLength":3156,
			"byteOffset":589012,
			"target":34962
		},
		{
			"buffer":0,
			"byteLength":2104,
			"byteOffset":592168,
			"target":34962
		},
		{
			"buffer":0,
			"byteLength":2496,
			"byteOffset":594272,
			"target":34963
		}
	],
	"buffers":[
		{
			"byteLength":596768,
			"uri":"roundEarsHat.bin"
		}
	]
}
