<?xml version="1.0" encoding="UTF-8" standalone="no"?>
<svg
   width="32"
   height="32"
   viewBox="0 0 99.999741 100.00025"
   version="1.1"
   id="svg1"
   sodipodi:docname="dogEarsIcon.svg"
   inkscape:version="1.3.2 (091e20e, 2023-11-25, custom)"
   xmlns:inkscape="http://www.inkscape.org/namespaces/inkscape"
   xmlns:sodipodi="http://sodipodi.sourceforge.net/DTD/sodipodi-0.dtd"
   xmlns="http://www.w3.org/2000/svg"
   xmlns:svg="http://www.w3.org/2000/svg">
  <defs
     id="defs1" />
  <sodipodi:namedview
     id="namedview1"
     pagecolor="#ffffff"
     bordercolor="#000000"
     borderopacity="0.25"
     inkscape:showpageshadow="2"
     inkscape:pageopacity="0.0"
     inkscape:pagecheckerboard="0"
     inkscape:deskcolor="#d1d1d1"
     inkscape:document-units="in"
     inkscape:zoom="8.982488"
     inkscape:cx="18.369075"
     inkscape:cy="33.565311"
     inkscape:window-width="1920"
     inkscape:window-height="1009"
     inkscape:window-x="-8"
     inkscape:window-y="-8"
     inkscape:window-maximized="1"
     inkscape:current-layer="svg1" />
  <path
     id="Selection-1"
     d="m 89.962107,73.932672 c 1.302174,0.614332 1.585635,0.388345 1.777325,0.04428 0.569617,-1.024814 0.09958,-2.279477 -0.261251,-3.857334 -0.360804,-1.577836 -0.724622,-3.774171 -0.928781,-4.919608 -0.204151,-1.145499 -0.208811,-2.173484 -0.244554,-3.005421 -0.03571,-0.831934 -0.01688,-1.980198 -0.01688,-1.980198 v -1.169056 -0.909161 c 0,0 0.141767,-1.40234 0.375641,-3.021295 0.233881,-1.61893 1.459168,-6.590108 1.459168,-6.590108 l 1.196743,-4.805726 c 0,0 0.912637,-3.701295 1.132134,-4.789212 0.219484,-1.087916 0.331614,-1.704988 0.331614,-1.704988 0,0 0.115611,-0.64813 0.16673,-0.976973 0.05102,-0.32884 0.111269,-0.641086 0.175169,-1.08426 0.06402,-0.443181 0.140622,-1.088077 0.176515,-1.654609 0.03587,-0.566526 -0.04998,-1.505509 -0.05956,-1.739299 -0.0093,-0.233801 -0.07652,-0.827572 -0.391449,-1.835469 -0.314924,-1.007913 -0.850627,-2.259805 -2.403386,-3.22744 -0.623017,-0.389651 -1.13332,-0.571952 -1.750246,-0.73511 -0.616925,-0.163159 -1.158388,-0.31526 -2.311295,-0.289281 -0.79554,0.01685 -1.294067,-0.0054 -2.743312,0.741418 -1.449275,0.746672 -3.171884,2.620279 -3.959909,3.544405 -0.787991,0.924119 -0.937762,1.095951 -1.405825,1.644667 -0.468061,0.548704 -0.88282,1.056002 -1.402553,1.647618 -0.51972,0.59163 -1.720246,1.897854 -1.720246,1.897854 l -2.4085,2.563926 -1.15884,1.17412 -0.896444,0.914416 -0.698333,0.728365 -0.759824,0.814126 -0.906576,0.948683 -1.072236,1.041032 -1.310321,1.181284 c 0,0 -1.056756,0.818694 -1.576252,1.210818 -0.519554,0.392132 -1.121068,0.789978 -1.566602,1.098136 -0.445588,0.308142 -0.763392,0.541362 -1.107354,0.749825 -0.343934,0.208454 -0.658406,0.441385 -0.958065,0.634706 -0.299665,0.193307 -0.512353,0.321754 -0.834289,0.521248 -0.321903,0.199511 -0.949408,0.621555 -1.345091,0.851451 -0.395788,0.22987 -1.235626,0.530942 -0.874975,1.430375 0.360683,0.899441 2.78216,2.015272 3.482561,2.284791 0.700356,0.269521 1.237239,0.370973 1.541886,0.322261 0.304676,-0.04867 1.038458,-0.439686 1.17878,-0.537745 0.14038,-0.09805 1.031962,-0.744667 2.107495,-1.55948 1.075549,-0.814799 2.599762,-2.052177 4.203031,-3.468625 1.603302,-1.416465 3.914477,-3.624668 5.351591,-4.992449 1.437055,-1.367819 2.431946,-2.349298 3.290345,-3.195172 0.858409,-0.845854 1.210202,-1.171049 1.870414,-1.870321 0.660236,-0.699285 1.82194,-1.978282 2.173818,-2.310135 0.35192,-0.331854 1.317827,-1.213625 2.196914,-0.459007 1.055697,0.907894 0.652384,1.703675 0.06775,4.038341 -0.584697,2.334662 -2.644115,9.4086 -3.192169,11.165782 -0.548033,1.757198 -0.697523,2.147697 -0.88698,3.004322 -0.189427,0.856615 -0.309667,1.276662 -0.391832,1.857913 -0.08217,0.581195 -0.228329,1.968742 -0.273512,2.610275 -0.04511,0.641506 -0.01165,1.338032 0.0039,1.929001 0.01669,0.590978 0.1283,1.615826 0.261802,2.533807 0.133534,0.917977 0.366557,2.31386 0.479514,2.77196 0.112922,0.458116 0.336418,1.250308 0.457208,1.614216 0.120787,0.363898 0.326635,0.768112 0.679165,1.348276 0.352529,0.580129 1.560962,2.229934 1.560962,2.229934 1.634902,1.710557 2.816854,2.979516 4.119021,3.593891 z m -79.924462,0 c -1.3021726,0.614332 -1.5856356,0.388345 -1.7773246,0.04428 -0.5696181,-1.024814 -0.09958,-2.279477 0.261249,-3.857334 0.360809,-1.577836 0.724623,-3.774171 0.928788,-4.919608 0.204146,-1.145499 0.208804,-2.173484 0.244545,-3.005421 0.03571,-0.831934 0.01688,-1.980198 0.01688,-1.980198 v -1.169056 -0.909161 c 0,0 -0.141766,-1.40234 -0.375648,-3.021295 -0.233877,-1.61893 -1.459169,-6.590108 -1.459169,-6.590108 l -1.196742,-4.805724 c 0,0 -0.9126381,-3.701295 -1.1321357,-4.789212 -0.2194838,-1.087916 -0.3316115,-1.704988 -0.3316115,-1.704988 0,0 -0.1156116,-0.64813 -0.1667324,-0.976973 -0.051019,-0.32884 -0.1112688,-0.641086 -0.1751691,-1.08426 -0.064008,-0.443181 -0.1406168,-1.088077 -0.1765131,-1.654609 -0.035872,-0.566526 0.049987,-1.505509 0.059555,-1.739299 0.00906,-0.233799 0.076533,-0.827569 0.3914467,-1.835467 0.3149385,-1.0079 0.8506441,-2.259792 2.4033977,-3.227428 0.6230174,-0.38965 1.1333184,-0.571951 1.7502514,-0.735109 0.616922,-0.163159 1.1583826,-0.31526 2.3112916,-0.289281 0.79554,0.01685 1.294069,-0.0054 2.74331,0.741418 1.44928,0.746672 3.171885,2.620279 3.959911,3.544404 0.787989,0.924119 0.937763,1.095951 1.405823,1.644667 0.468061,0.548708 0.882831,1.056002 1.402555,1.647619 0.519722,0.591629 1.720246,1.897854 1.720246,1.897854 l 2.408499,2.563925 1.15884,1.17412 0.896448,0.914416 0.69833,0.728366 0.759823,0.814126 0.906578,0.948683 1.07224,1.041031 1.310319,1.181284 c 0,0 1.056753,0.818694 1.576249,1.210819 0.519557,0.392132 1.121072,0.789978 1.566601,1.098135 0.445588,0.308144 0.763397,0.541364 1.107358,0.749828 0.343934,0.208451 0.658407,0.441382 0.958061,0.634704 0.299664,0.193306 0.512353,0.321754 0.83429,0.521247 0.321902,0.199511 0.94941,0.621555 1.345092,0.851451 0.395786,0.22987 1.23563,0.530942 0.874974,1.430378 -0.360683,0.899439 -2.782158,2.015269 -3.482558,2.284789 -0.70036,0.26952 -1.23724,0.370972 -1.54189,0.322262 -0.304676,-0.04867 -1.038459,-0.439687 -1.17878,-0.537746 -0.140381,-0.09805 -1.031959,-0.744667 -2.107495,-1.55948 -1.075548,-0.814799 -2.599762,-2.052176 -4.203031,-3.468624 -1.603302,-1.416467 -3.914478,-3.624669 -5.351591,-4.99245 -1.437055,-1.36782 -2.431941,-2.349298 -3.290344,-3.195171 -0.858411,-0.845855 -1.210195,-1.171048 -1.870411,-1.870322 -0.66024,-0.699286 -1.821936,-1.978283 -2.173817,-2.310135 -0.351916,-0.331854 -1.317831,-1.213626 -2.196915,-0.459008 -1.055697,0.907896 -0.652388,1.703675 -0.06775,4.038342 0.584691,2.334661 2.644105,9.408599 3.192163,11.165784 0.54803,1.757196 0.697519,2.147695 0.886975,3.00432 0.189429,0.856615 0.309668,1.276662 0.391835,1.857912 0.08217,0.581197 0.22833,1.968742 0.27351,2.610275 0.04511,0.641508 0.01165,1.338033 -0.0039,1.929001 -0.01669,0.590978 -0.128326,1.615826 -0.261808,2.533808 -0.133533,0.917978 -0.366552,2.313861 -0.479513,2.77196 -0.112923,0.458116 -0.336417,1.250307 -0.457207,1.614215 -0.120788,0.363899 -0.326631,0.768112 -0.679162,1.348276 -0.352533,0.580129 -1.560965,2.229934 -1.560965,2.229934 -1.634899,1.710557 -2.816853,2.979516 -4.119023,3.593893 z"
     style="fill:none;stroke:#fff;stroke-width:3.1242;stroke-linecap:round;stroke-linejoin:round;stroke-dasharray:none;stroke-opacity:1" />
</svg>
