<?xml version="1.0" encoding="UTF-8" standalone="no"?>
<svg
   width="32"
   height="32"
   viewBox="0 0 99.999741 100.00025"
   version="1.1"
   id="svg1"
   sodipodi:docname="threeDim_dogEarsOffIcon.svg"
   inkscape:version="1.3.2 (091e20e, 2023-11-25, custom)"
   inkscape:export-filename="dogEarsOffIcon.png"
   inkscape:export-xdpi="96"
   inkscape:export-ydpi="96"
   xmlns:inkscape="http://www.inkscape.org/namespaces/inkscape"
   xmlns:sodipodi="http://sodipodi.sourceforge.net/DTD/sodipodi-0.dtd"
   xmlns:xlink="http://www.w3.org/1999/xlink"
   xmlns="http://www.w3.org/2000/svg"
   xmlns:svg="http://www.w3.org/2000/svg">
  <defs
     id="defs1">
    <linearGradient
       id="linearGradient15"
       inkscape:collect="always">
      <stop
         style="stop-color:#2e91f5;stop-opacity:0.4025974;"
         offset="0"
         id="stop15" />
      <stop
         style="stop-color:#2e91f5;stop-opacity:0.85497838;"
         offset="0.89576548"
         id="stop14" />
    </linearGradient>
    <linearGradient
       id="linearGradient13"
       inkscape:collect="always">
      <stop
         style="stop-color:#2e91f5;stop-opacity:0.85064936;"
         offset="0.10097718"
         id="stop13" />
      <stop
         style="stop-color:#2e91f5;stop-opacity:0.39610389;"
         offset="1"
         id="stop12" />
    </linearGradient>
    <linearGradient
       id="linearGradient9"
       inkscape:collect="always">
      <stop
         style="stop-color:#f56314;stop-opacity:0.85281384;"
         offset="0.10423452"
         id="stop9" />
      <stop
         style="stop-color:#f56314;stop-opacity:0.3982684;"
         offset="1"
         id="stop10" />
    </linearGradient>
    <linearGradient
       id="linearGradient7"
       inkscape:collect="always">
      <stop
         style="stop-color:#f56314;stop-opacity:0.40043291;"
         offset="0"
         id="stop8" />
      <stop
         style="stop-color:#f56314;stop-opacity:0.85281384;"
         offset="0.89902282"
         id="stop7" />
    </linearGradient>
    <linearGradient
       inkscape:collect="always"
       xlink:href="#linearGradient7"
       id="linearGradient8"
       x1="56.221413"
       y1="50.000849"
       x2="96.874986"
       y2="50.000849"
       gradientUnits="userSpaceOnUse" />
    <linearGradient
       inkscape:collect="always"
       xlink:href="#linearGradient9"
       id="linearGradient10"
       x1="3.1247554"
       y1="49.99938"
       x2="43.77833"
       y2="49.99938"
       gradientUnits="userSpaceOnUse" />
    <linearGradient
       inkscape:collect="always"
       xlink:href="#linearGradient15"
       id="linearGradient11"
       gradientUnits="userSpaceOnUse"
       x1="3.1247554"
       y1="49.99938"
       x2="43.77833"
       y2="49.99938"
       gradientTransform="translate(2.3437532,-3.1256408)" />
    <linearGradient
       inkscape:collect="always"
       xlink:href="#linearGradient13"
       id="linearGradient12"
       gradientUnits="userSpaceOnUse"
       x1="56.221413"
       y1="50.000849"
       x2="96.874986"
       y2="50.000849"
       gradientTransform="translate(2.3437532,-3.1256408)" />
  </defs>
  <sodipodi:namedview
     id="namedview1"
     pagecolor="#ffffff"
     bordercolor="#000000"
     borderopacity="0.25"
     inkscape:showpageshadow="2"
     inkscape:pageopacity="0.0"
     inkscape:pagecheckerboard="0"
     inkscape:deskcolor="#d1d1d1"
     inkscape:document-units="in"
     inkscape:zoom="16.000001"
     inkscape:cx="9.4999994"
     inkscape:cy="18.656249"
     inkscape:window-width="1920"
     inkscape:window-height="1009"
     inkscape:window-x="-8"
     inkscape:window-y="-8"
     inkscape:window-maximized="1"
     inkscape:current-layer="svg1" />
  <path
     id="path4-3"
     style="fill:url(#linearGradient11);stroke:#2e91f5;stroke-width:3.12506;stroke-linecap:round;stroke-linejoin:round;stroke-dasharray:none;stroke-opacity:1"
     d="M 16.737854,31.239179 H 9.2921064 L 9.0284828,32.35797 c 0,0 -0.9119714,3.899566 -1.1316511,5.047421 -0.219666,1.147855 -0.334352,1.800354 -0.334352,1.800354 0,0 -0.116012,0.688244 -0.167175,1.035204 -0.05106,0.346958 -0.109652,0.67049 -0.173606,1.13808 -0.06406,0.4676 -0.144109,1.151171 -0.180035,1.748915 -0.0359,0.597738 0.05472,1.585833 0.0643,1.832503 0.0091,0.246681 0.07705,0.878383 0.39222,1.941811 0.3152,1.063429 0.8507148,2.380435 2.4047585,3.401383 0.6235368,0.411118 1.1314718,0.605864 1.7489168,0.778011 0.617432,0.172148 1.160873,0.329613 2.314738,0.302201 0.796203,-0.01778 1.295095,0.0099 2.745539,-0.77801 1.450488,-0.787808 3.172102,-2.767125 3.960783,-3.742164 0.788643,-0.975032 0.939685,-1.157109 1.408135,-1.736055 0.468448,-0.578939 0.881548,-1.111844 1.401703,-1.736056 0.520155,-0.624224 1.723197,-2.006109 1.723197,-2.006109 l 2.411188,-2.700531 1.163801,-1.240958 0.893746,-0.964476 0.700852,-0.771579 0.758721,-0.855168 0.906607,-1.003055 1.073783,-1.099501 1.311687,-1.247388 c 0,0 0.250944,-0.200848 0.32792,-0.263624 h -8.140171 v 0 m -12.427862,-0.0047 H 28.504494 M 13.840371,51.441937 c -0.0324,0.456212 -0.08286,0.940267 -0.168405,1.446242 -0.204335,1.208547 -0.564787,3.530542 -0.925897,5.195308 -0.361125,1.664789 -0.833713,2.988809 -0.263624,4.070086 0.191849,0.36302 0.477809,0.596738 1.781065,-0.05144 1.303252,-0.648229 2.485267,-1.982375 4.121525,-3.787175 0,0 1.209623,-1.741229 1.56245,-2.353319 0.352824,-0.612129 0.554246,-1.043475 0.675132,-1.427424 0.120891,-0.383959 0.349933,-1.21412 0.462949,-1.697476 0.113056,-0.483339 0.342163,-1.957021 0.475808,-2.925576 0.133592,-0.968558 0.246915,-2.051272 0.263623,-2.674811 0.0126,-0.504688 0.03859,-1.084293 0.0241,-1.645815 m 9.757805,-11.246231 c 0.130848,0.123805 0.258907,0.244098 0.383665,0.360295 1.604602,1.494488 3.128672,2.798887 4.205113,3.658576 1.076431,0.859705 1.974917,1.542589 2.115416,1.646039 0.140439,0.10346 0.871731,0.514469 1.17666,0.565826 0.304903,0.0514 0.842218,-0.04998 1.543161,-0.334352 0.700981,-0.284368 3.123988,-1.462195 3.484969,-2.411188 0.360957,-0.948991 -0.478341,-1.268476 -0.874458,-1.511012 -0.396011,-0.242565 -1.021665,-0.689677 -1.343835,-0.900179 -0.322204,-0.210485 -0.535964,-0.342579 -0.83588,-0.546536 -0.299901,-0.204012 -0.613824,-0.448804 -0.958044,-0.668741 -0.344247,-0.21995 -0.666404,-0.472177 -1.112362,-0.7973 -0.4459,-0.325135 -1.04889,-0.743635 -1.568879,-1.157371 -0.411923,-0.327785 -0.953802,-0.770075 -1.247388,-1.009483 v 0 l -1.832504,-1e-6" />
  <path
     id="path4-2-6"
     style="fill:url(#linearGradient12);stroke:#2e91f5;stroke-width:3.12506;stroke-linecap:round;stroke-linejoin:round;stroke-dasharray:none;stroke-opacity:1"
     d="m 87.949393,31.240628 h 7.445748 l 0.263624,1.118791 c 0,0 0.911971,3.899566 1.131651,5.04742 0.219666,1.147856 0.334352,1.800355 0.334352,1.800355 0,0 0.116012,0.688243 0.167175,1.035203 0.05106,0.346958 0.109652,0.67049 0.173605,1.138081 0.06406,0.467599 0.14411,1.151171 0.180035,1.748916 0.0359,0.597735 -0.05472,1.585831 -0.0643,1.832502 -0.0091,0.24668 -0.07705,0.878383 -0.392221,1.94181 -0.3152,1.06343 -0.850714,2.380437 -2.404758,3.401384 -0.623535,0.411118 -1.13147,0.605862 -1.748914,0.77801 -0.617434,0.172148 -1.160878,0.329613 -2.314742,0.302202 -0.796203,-0.01778 -1.295095,0.0099 -2.745538,-0.77801 -1.450488,-0.78781 -3.172104,-2.767125 -3.960784,-3.742164 -0.788643,-0.975032 -0.939684,-1.15711 -1.408134,-1.736055 -0.46845,-0.57894 -0.881549,-1.111844 -1.401703,-1.736057 -0.520158,-0.624223 -1.723197,-2.006108 -1.723197,-2.006108 l -2.411186,-2.700531 -1.1638,-1.240959 -0.893747,-0.964475 -0.700852,-0.77158 -0.758721,-0.855168 -0.906606,-1.003054 -1.073783,-1.099502 -1.311686,-1.247388 c 0,0 -0.250945,-0.200848 -0.327922,-0.263623 h 8.140172 v 0 m 12.427861,-0.0047 H 76.182755 m -3.102409,3.109827 c -0.130847,0.123806 -0.258906,0.244099 -0.383665,0.360295 -1.604601,1.494489 -3.128672,2.798888 -4.205113,3.658577 -1.076431,0.859705 -1.974918,1.542588 -2.115416,1.646038 -0.140438,0.103461 -0.871731,0.514469 -1.176659,0.565825 -0.304906,0.0514 -0.842218,-0.04998 -1.543162,-0.334351 -0.700982,-0.284369 -3.123988,-1.462194 -3.48497,-2.411189 -0.360957,-0.94899 0.478341,-1.268474 0.874457,-1.511011 0.396011,-0.242562 1.021666,-0.689674 1.343836,-0.900177 0.322203,-0.210485 0.535965,-0.342578 0.835878,-0.546535 0.299904,-0.203975 0.613825,-0.448766 0.958046,-0.668703 0.344247,-0.219951 0.666402,-0.472177 1.112361,-0.7973 0.445901,-0.325135 1.048891,-0.743635 1.56888,-1.157371 0.411924,-0.327786 0.953802,-0.770075 1.247388,-1.009483 v 0 l 1.832504,-10e-7 m 20.902165,20.203057 c 0.0324,0.456212 0.08286,0.940267 0.168406,1.446243 0.204334,1.208547 0.564787,3.53054 0.925897,5.195307 0.361124,1.664789 0.833713,2.98881 0.263622,4.070086 -0.191849,0.363019 -0.477808,0.596738 -1.781064,-0.05144 -1.303253,-0.648228 -2.485266,-1.982374 -4.121524,-3.787174 0,0 -1.209625,-1.74123 -1.56245,-2.353319 -0.352826,-0.61213 -0.554246,-1.043475 -0.675133,-1.427424 -0.12089,-0.383958 -0.349933,-1.214121 -0.462949,-1.697476 -0.113056,-0.48334 -0.342164,-1.957021 -0.475807,-2.925576 -0.133593,-0.968558 -0.246915,-2.051273 -0.263624,-2.674812 -0.0126,-0.504688 -0.03859,-1.084292 -0.0241,-1.645814" />
  <path
     id="path4"
     style="fill:url(#linearGradient10);stroke:#f56314;stroke-width:3.12506;stroke-linecap:round;stroke-linejoin:round;stroke-dasharray:none;stroke-opacity:1"
     d="M 14.394102,34.36482 H 6.9483537 l -0.2636236,1.118791 c 0,0 -0.9119714,3.899566 -1.1316508,5.047421 -0.2196667,1.147855 -0.3343519,1.800354 -0.3343519,1.800354 0,0 -0.1160123,0.688244 -0.1671758,1.035204 -0.051061,0.346958 -0.1096517,0.67049 -0.1736053,1.13808 -0.06406,0.4676 -0.1441092,1.151171 -0.1800355,1.748915 -0.035902,0.597738 0.054716,1.585833 0.064304,1.832503 0.00905,0.246681 0.07705,0.878383 0.3922205,1.941811 0.3152,1.063429 0.8507145,2.380435 2.4047582,3.401383 0.6235365,0.411118 1.1314715,0.605864 1.7489165,0.778011 0.617432,0.172148 1.160874,0.329613 2.314739,0.302201 0.796203,-0.01778 1.295095,0.0099 2.745539,-0.77801 1.450484,-0.787808 3.172098,-2.767125 3.960779,-3.742164 0.788643,-0.975032 0.939685,-1.157109 1.408135,-1.736055 0.468448,-0.578939 0.881548,-1.111844 1.401703,-1.736056 0.520155,-0.624224 1.723197,-2.006109 1.723197,-2.006109 l 2.411188,-2.700531 1.163801,-1.240958 0.893746,-0.964476 0.700852,-0.771579 0.758721,-0.855168 0.906607,-1.003055 1.073783,-1.099501 1.311687,-1.247388 c 0,0 0.250944,-0.200848 0.32792,-0.263624 h -8.140171 v 0 M 11.842474,34.36012 H 26.160742 M 11.496619,54.567578 c -0.0324,0.456212 -0.08286,0.940267 -0.168405,1.446242 -0.204335,1.208547 -0.564787,3.530542 -0.925897,5.195308 -0.361125,1.664789 -0.833714,2.988809 -0.263624,4.070086 0.191849,0.36302 0.477809,0.596738 1.781065,-0.05144 1.303252,-0.648229 2.485267,-1.982375 4.121525,-3.787175 0,0 1.209623,-1.741229 1.56245,-2.353319 0.352824,-0.612129 0.554246,-1.043475 0.675132,-1.427424 0.120891,-0.383959 0.349933,-1.21412 0.462949,-1.697476 0.113056,-0.483339 0.342163,-1.957021 0.475808,-2.925576 0.133592,-0.968558 0.246915,-2.051272 0.263623,-2.674811 0.0126,-0.504688 0.03859,-1.084293 0.0241,-1.645815 M 29.26315,37.469947 c 0.130848,0.123805 0.258907,0.244098 0.383665,0.360295 1.604602,1.494488 3.128672,2.798887 4.205113,3.658576 1.076431,0.859705 1.974917,1.542589 2.115416,1.646039 0.140439,0.10346 0.871731,0.514469 1.17666,0.565826 0.304903,0.0514 0.842218,-0.04998 1.543161,-0.334352 0.700981,-0.284368 3.123988,-1.462195 3.484969,-2.411188 0.360957,-0.948991 -0.478341,-1.268476 -0.874458,-1.511012 -0.396011,-0.242565 -1.021665,-0.689677 -1.343835,-0.900179 -0.322204,-0.210485 -0.535964,-0.342579 -0.83588,-0.546536 -0.299901,-0.204012 -0.613824,-0.448804 -0.958044,-0.668741 -0.344247,-0.21995 -0.666404,-0.472177 -1.112362,-0.7973 -0.4459,-0.325135 -1.04889,-0.743635 -1.568879,-1.157371 -0.411923,-0.327785 -0.953802,-0.770075 -1.247388,-1.009483 v 0 l -1.832504,-1e-6" />
  <path
     id="path4-2"
     style="fill:url(#linearGradient8);stroke:#f56314;stroke-width:3.12506;stroke-linecap:round;stroke-linejoin:round;stroke-dasharray:none;stroke-opacity:1"
     d="m 85.605641,34.366269 h 7.445748 l 0.263624,1.118791 c 0,0 0.911971,3.899566 1.131651,5.04742 0.219666,1.147856 0.334352,1.800355 0.334352,1.800355 0,0 0.116012,0.688243 0.167175,1.035203 0.05106,0.346958 0.109652,0.67049 0.173605,1.138081 0.06406,0.467599 0.14411,1.151171 0.180035,1.748916 0.0359,0.597735 -0.05472,1.585831 -0.0643,1.832502 -0.0091,0.24668 -0.07705,0.878383 -0.392221,1.94181 -0.3152,1.06343 -0.850714,2.380437 -2.404758,3.401384 -0.623535,0.411118 -1.13147,0.605862 -1.748914,0.77801 -0.617434,0.172148 -1.160878,0.329613 -2.314742,0.302202 -0.796203,-0.01778 -1.295095,0.0099 -2.745538,-0.77801 C 84.18087,52.945123 82.459254,50.965808 81.670574,49.990769 80.881931,49.015737 80.73089,48.833659 80.26244,48.254714 79.79399,47.675774 79.380891,47.14287 78.860737,46.518657 78.340579,45.894434 77.13754,44.512549 77.13754,44.512549 l -2.411186,-2.700531 -1.1638,-1.240959 -0.893747,-0.964475 -0.700852,-0.77158 -0.758721,-0.855168 -0.906606,-1.003054 -1.073783,-1.099502 -1.311686,-1.247388 c 0,0 -0.250945,-0.200848 -0.327922,-0.263623 h 8.140172 v 0 m 12.427861,-0.0047 H 73.839003 m -3.102409,3.109827 c -0.130847,0.123806 -0.258906,0.244099 -0.383665,0.360295 -1.604601,1.494489 -3.128672,2.798888 -4.205113,3.658577 -1.076431,0.859705 -1.974918,1.542588 -2.115416,1.646038 -0.140438,0.103461 -0.871731,0.514469 -1.176659,0.565825 -0.304906,0.0514 -0.842218,-0.04998 -1.543162,-0.334351 -0.700982,-0.284369 -3.123988,-1.462194 -3.48497,-2.411189 -0.360957,-0.94899 0.478341,-1.268474 0.874457,-1.511011 0.396011,-0.242562 1.021666,-0.689674 1.343836,-0.900177 0.322203,-0.210485 0.535965,-0.342578 0.835878,-0.546535 0.299904,-0.203975 0.613825,-0.448766 0.958046,-0.668703 0.344247,-0.219951 0.666402,-0.472177 1.112361,-0.7973 0.445901,-0.325135 1.048891,-0.743635 1.56888,-1.157371 0.411924,-0.327786 0.953802,-0.770075 1.247388,-1.009483 v 0 l 1.832504,-10e-7 m 20.902165,20.203057 c 0.0324,0.456212 0.08286,0.940267 0.168406,1.446243 0.204334,1.208547 0.564787,3.53054 0.925897,5.195307 0.361124,1.664789 0.833713,2.98881 0.263622,4.070086 -0.191849,0.363019 -0.477808,0.596738 -1.781064,-0.05144 -1.303253,-0.648228 -2.485266,-1.982374 -4.121524,-3.787174 0,0 -1.209625,-1.74123 -1.56245,-2.353319 -0.352826,-0.61213 -0.554246,-1.043475 -0.675133,-1.427424 -0.12089,-0.383958 -0.349933,-1.214121 -0.462949,-1.697476 -0.113056,-0.48334 -0.342164,-1.957021 -0.475807,-2.925576 -0.133593,-0.968558 -0.246915,-2.051273 -0.263624,-2.674812 -0.0126,-0.504688 -0.03859,-1.084292 -0.0241,-1.645814" />
</svg>
