{
  "accessors": [
    {
      "bufferView": 2,
      "componentType": 5126,
      "count": 4134,
      "max": [
        19.51729965209961,
        35.065399169921875,
        34.85329818725586
      ],
      "min": [
        -45.08300018310547,
        -35.065399169921875,
        -59.600399017333984
      ],
      "type": "VEC3"
    },
    {
      "bufferView": 2,
      "byteOffset": 49608,
      "componentType": 5126,
      "count": 4134,
      "max": [
        0.9991426467895508,
        0.9999932050704956,
        0.9999978542327881
      ],
      "min": [
        -0.9999510049819946,
        -0.9999932050704956,
        -0.9999903440475464
      ],
      "type": "VEC3"
    },
    {
      "bufferView": 1,
      "componentType": 5126,
      "count": 4134,
      "max": [
        1.0,
        1.0
      ],
      "min": [
        0.0,
        0.49889999628067017
      ],
      "type": "VEC2"
    },
    {
      "bufferView": 0,
      "componentType": 5125,
      "count": 23100,
      "type": "SCALAR"
    },
    {
      "bufferView": 2,
      "byteOffset": 99216,
      "componentType": 5126,
      "count": 3213,
      "max": [
        46.572200775146484,
        35.34149932861328,
        25.337900161743164
      ],
      "min": [
        -5.285600185394287,
        -35.34149932861328,
        -27.283100128173828
      ],
      "type": "VEC3"
    },
    {
      "bufferView": 2,
      "byteOffset": 137772,
      "componentType": 5126,
      "count": 3213,
      "max": [
        1.0,
        1.0,
        0.9999933242797852
      ],
      "min": [
        -0.9999991655349731,
        -1.0,
        -1.0
      ],
      "type": "VEC3"
    },
    {
      "bufferView": 1,
      "byteOffset": 33072,
      "componentType": 5126,
      "count": 3213,
      "max": [
        1.027899980545044,
        1.0125999450683594
      ],
      "min": [
        -0.027799999341368675,
        -0.003000000026077032
      ],
      "type": "VEC2"
    },
    {
      "bufferView": 0,
      "byteOffset": 92400,
      "componentType": 5125,
      "count": 12063,
      "type": "SCALAR"
    },
    {
      "bufferView": 2,
      "byteOffset": 176328,
      "componentType": 5126,
      "count": 1997,
      "max": [
        37.07320022583008,
        33.68360137939453,
        28.806900024414063
      ],
      "min": [
        -6.514999866485596,
        -33.68360137939453,
        -13.972299575805664
      ],
      "type": "VEC3"
    },
    {
      "bufferView": 2,
      "byteOffset": 200292,
      "componentType": 5126,
      "count": 1997,
      "max": [
        0.9998595714569092,
        0.9999703168869019,
        0.999866247177124
      ],
      "min": [
        -0.9610037803649902,
        -0.9999703168869019,
        -0.9681187272071838
      ],
      "type": "VEC3"
    },
    {
      "bufferView": 1,
      "byteOffset": 58776,
      "componentType": 5126,
      "count": 1997,
      "max": [
        1.027899980545044,
        1.0125999450683594
      ],
      "min": [
        0.02759999968111515,
        -0.003000000026077032
      ],
      "type": "VEC2"
    },
    {
      "bufferView": 0,
      "byteOffset": 140652,
      "componentType": 5125,
      "count": 8559,
      "type": "SCALAR"
    },
    {
      "bufferView": 2,
      "byteOffset": 224256,
      "componentType": 5126,
      "count": 2436,
      "max": [
        2.30679988861084,
        35.34149932861328,
        -5.870100021362305
      ],
      "min": [
        -2.191699981689453,
        -35.34149932861328,
        -10.3681001663208
      ],
      "type": "VEC3"
    },
    {
      "bufferView": 2,
      "byteOffset": 253488,
      "componentType": 5126,
      "count": 2436,
      "max": [
        0.9998606443405151,
        1.0,
        0.9998606443405151
      ],
      "min": [
        -0.9998606443405151,
        -1.0,
        -0.9998606443405151
      ],
      "type": "VEC3"
    },
    {
      "bufferView": 1,
      "byteOffset": 74752,
      "componentType": 5126,
      "count": 2436,
      "max": [
        1.0277999639511108,
        1.0
      ],
      "min": [
        0.002400000113993883,
        0.0
      ],
      "type": "VEC2"
    },
    {
      "bufferView": 0,
      "byteOffset": 174888,
      "componentType": 5125,
      "count": 10740,
      "type": "SCALAR"
    },
    {
      "bufferView": 2,
      "byteOffset": 282720,
      "componentType": 5126,
      "count": 24,
      "max": [
        -42.85390090942383,
        23.21820068359375,
        -0.302700012922287
      ],
      "min": [
        -44.28099822998047,
        -23.21820068359375,
        -15.33329963684082
      ],
      "type": "VEC3"
    },
    {
      "bufferView": 2,
      "byteOffset": 283008,
      "componentType": 5126,
      "count": 24,
      "max": [
        1.0,
        1.0,
        1.0
      ],
      "min": [
        -1.0,
        -1.0,
        -1.0
      ],
      "type": "VEC3"
    },
    {
      "bufferView": 1,
      "byteOffset": 94240,
      "componentType": 5126,
      "count": 24,
      "max": [
        46.43629837036133,
        46.43629837036133
      ],
      "min": [
        0.0,
        0.0
      ],
      "type": "VEC2"
    },
    {
      "bufferView": 0,
      "byteOffset": 217848,
      "componentType": 5125,
      "count": 36,
      "type": "SCALAR"
    }
  ],
  "asset": {
    "extras": {
      "author": "guss67 (https://sketchfab.com/guss67)",
      "license": "CC-BY-4.0 (http://creativecommons.org/licenses/by/4.0/)",
      "source": "https://sketchfab.com/3d-models/welding-mask-4f0462e1c43e4c1db947b8eb9d37b746",
      "title": "Welding mask"
    },
    "generator": "Sketchfab-12.68.0",
    "version": "2.0"
  },
  "bufferViews": [
    {
      "buffer": 0,
      "byteLength": 217992,
      "name": "floatBufferViews",
      "target": 34963
    },
    {
      "buffer": 0,
      "byteLength": 94432,
      "byteOffset": 217992,
      "byteStride": 8,
      "name": "floatBufferViews",
      "target": 34962
    },
    {
      "buffer": 0,
      "byteLength": 283296,
      "byteOffset": 312424,
      "byteStride": 12,
      "name": "floatBufferViews",
      "target": 34962
    }
  ],
  "buffers": [
    {
      "byteLength": 595720,
      "uri": "scene.bin"
    }
  ],
  "materials": [
    {
      "doubleSided": true,
      "name": "plastic",
      "pbrMetallicRoughness": {
        "baseColorFactor": [
          0.0125182254,
          0.0125182254,
          0.0125182254,
          1.0
        ],
        "metallicFactor": 0.2533543425,
        "roughnessFactor": 0.2093291852
      }
    },
    {
      "doubleSided": true,
      "name": "plastic_noise",
      "pbrMetallicRoughness": {
        "baseColorFactor": [
          0.0096157397,
          0.0096157397,
          0.0096157397,
          1.0
        ],
        "metallicFactor": 0.3414046569,
        "roughnessFactor": 0.2281971098
      }
    },
    {
      "alphaMode": "BLEND",
      "doubleSided": true,
      "name": "wire_177148027",
      "pbrMetallicRoughness": {
        "baseColorFactor": [
          0.0133142929,
          0.0133142929,
          0.0133142929,
          0.8095387393
        ],
        "roughnessFactor": 0.0
      }
    }
  ],
  "meshes": [
    {
      "name": "Object_0",
      "primitives": [
        {
          "attributes": {
            "NORMAL": 1,
            "POSITION": 0,
            "TEXCOORD_0": 2
          },
          "indices": 3,
          "material": 1,
          "mode": 4
        }
      ]
    },
    {
      "name": "Object_1",
      "primitives": [
        {
          "attributes": {
            "NORMAL": 5,
            "POSITION": 4,
            "TEXCOORD_0": 6
          },
          "indices": 7,
          "material": 0,
          "mode": 4
        }
      ]
    },
    {
      "name": "Object_2",
      "primitives": [
        {
          "attributes": {
            "NORMAL": 9,
            "POSITION": 8,
            "TEXCOORD_0": 10
          },
          "indices": 11,
          "material": 0,
          "mode": 4
        }
      ]
    },
    {
      "name": "Object_3",
      "primitives": [
        {
          "attributes": {
            "NORMAL": 13,
            "POSITION": 12,
            "TEXCOORD_0": 14
          },
          "indices": 15,
          "material": 0,
          "mode": 4
        }
      ]
    },
    {
      "name": "Object_4",
      "primitives": [
        {
          "attributes": {
            "NORMAL": 17,
            "POSITION": 16,
            "TEXCOORD_0": 18
          },
          "indices": 19,
          "material": 2,
          "mode": 4
        }
      ]
    }
  ],
  "nodes": [
    {
      "children": [
        1
      ],
      "matrix": [
        0.0028571428265422583,
        0.0,
        0.0,
        0.0,
        0.0,
        6.34413150133963e-19,
        -0.0028571428265422583,
        0.0,
        0.0,
        0.0028571428265422583,
        6.34413150133963e-19,
        0.0,
        0.0,
        0.0,
        0.0,
        1.0
      ],
      "name": "Sketchfab_model"
    },
    {
      "children": [
        2,
        3,
        4,
        5,
        6
      ],
      "name": "weld mask 02.obj.cleaner.materialmerger.gles"
    },
    {
      "mesh": 0,
      "name": "Object_2"
    },
    {
      "mesh": 1,
      "name": "Object_3"
    },
    {
      "mesh": 2,
      "name": "Object_4"
    },
    {
      "mesh": 3,
      "name": "Object_5"
    },
    {
      "mesh": 4,
      "name": "Object_6"
    }
  ],
  "scene": 0,
  "scenes": [
    {
      "name": "Sketchfab_Scene",
      "nodes": [
        0
      ]
    }
  ]
}
