{
  "accessors": [
    {
      "bufferView": 2,
      "componentType": 5126,
      "count": 14145,
      "max": [
        253.57073974609375,
        133.08070373535156,
        376.8458251953125
      ],
      "min": [
        -364.7209167480469,
        -512.81396484375,
        -676.3217163085938
      ],
      "type": "VEC3"
    },
    {
      "bufferView": 2,
      "byteOffset": 169740,
      "componentType": 5126,
      "count": 14145,
      "max": [
        0.9998115301132202,
        0.9997848272323608,
        0.9999874830245972
      ],
      "min": [
        -0.9999219179153442,
        -0.9997715950012207,
        -0.9999874830245972
      ],
      "type": "VEC3"
    },
    {
      "bufferView": 3,
      "componentType": 5126,
      "count": 14145,
      "max": [
        0.9999634027481079,
        0.9997100830078125,
        0.968756914138794,
        1.0
      ],
      "min": [
        -0.9998713731765747,
        -0.9999245405197144,
        -0.9999963641166687,
        -1.0
      ],
      "type": "VEC4"
    },
    {
      "bufferView": 1,
      "componentType": 5126,
      "count": 14145,
      "max": [
        0.9894819259643555,
        0.9892824292182922
      ],
      "min": [
        0.006990276277065277,
        0.013412248343229294
      ],
      "type": "VEC2"
    },
    {
      "bufferView": 0,
      "componentType": 5125,
      "count": 82944,
      "type": "SCALAR"
    },
    {
      "bufferView": 2,
      "byteOffset": 339480,
      "componentType": 5126,
      "count": 1074,
      "max": [
        107.84426879882813,
        196.50318908691406,
        69.91043853759766
      ],
      "min": [
        -318.75531005859375,
        -214.16616821289063,
        -29.340057373046875
      ],
      "type": "VEC3"
    },
    {
      "bufferView": 2,
      "byteOffset": 352368,
      "componentType": 5126,
      "count": 1074,
      "max": [
        0.9984325170516968,
        0.9986245632171631,
        0.9849303960800171
      ],
      "min": [
        -0.9996194839477539,
        -0.9848716259002686,
        -0.9994115829467773
      ],
      "type": "VEC3"
    },
    {
      "bufferView": 1,
      "byteOffset": 113160,
      "componentType": 5126,
      "count": 1074,
      "max": [
        0.9993964433670044,
        0.9988537430763245
      ],
      "min": [
        0.9728994965553284,
        0.9805102348327637
      ],
      "type": "VEC2"
    },
    {
      "bufferView": 0,
      "byteOffset": 331776,
      "componentType": 5125,
      "count": 6144,
      "type": "SCALAR"
    },
    {
      "bufferView": 2,
      "byteOffset": 365256,
      "componentType": 5126,
      "count": 322,
      "max": [
        86.60249328613281,
        173.9803924560547,
        80.2287826538086
      ],
      "min": [
        -295.2144775390625,
        -204.04141235351563,
        9.082460403442383
      ],
      "type": "VEC3"
    },
    {
      "bufferView": 2,
      "byteOffset": 369120,
      "componentType": 5126,
      "count": 322,
      "max": [
        0.6951398253440857,
        0.4432584345340729,
        0.9999736547470093
      ],
      "min": [
        -0.8022611141204834,
        -0.4851926267147064,
        0.5776733756065369
      ],
      "type": "VEC3"
    },
    {
      "bufferView": 1,
      "byteOffset": 121752,
      "componentType": 5126,
      "count": 322,
      "max": [
        0.9938850402832031,
        0.2981696128845215
      ],
      "min": [
        0.6081440448760986,
        0.021153941750526428
      ],
      "type": "VEC2"
    },
    {
      "bufferView": 0,
      "byteOffset": 356352,
      "componentType": 5125,
      "count": 1728,
      "type": "SCALAR"
    }
  ],
  "asset": {
    "extras": {
      "author": "marvelmaster (https://sketchfab.com/marvelmaster)",
      "license": "CC-BY-4.0 (http://creativecommons.org/licenses/by/4.0/)",
      "source": "https://sketchfab.com/3d-models/super-mario-odyssey-hat-bb6687a4a25c435682faea7094227f7e",
      "title": "Super Mario Odyssey Hat"
    },
    "generator": "Sketchfab-12.68.0",
    "version": "2.0"
  },
  "bufferViews": [
    {
      "buffer": 0,
      "byteLength": 363264,
      "name": "floatBufferViews",
      "target": 34963
    },
    {
      "buffer": 0,
      "byteLength": 124328,
      "byteOffset": 363264,
      "byteStride": 8,
      "name": "floatBufferViews",
      "target": 34962
    },
    {
      "buffer": 0,
      "byteLength": 372984,
      "byteOffset": 487592,
      "byteStride": 12,
      "name": "floatBufferViews",
      "target": 34962
    },
    {
      "buffer": 0,
      "byteLength": 226320,
      "byteOffset": 860576,
      "byteStride": 16,
      "name": "floatBufferViews",
      "target": 34962
    }
  ],
  "buffers": [
    {
      "byteLength": 1086896,
      "uri": "scene.bin"
    }
  ],
  "images": [
    {
      "uri": "textures/hatbase_baseColor.png"
    },
    {
      "uri": "textures/hatbase_metallicRoughness.png"
    },
    {
      "uri": "textures/hatbase_normal.png"
    }
  ],
  "materials": [
    {
      "doubleSided": true,
      "name": "hatbase",
      "normalTexture": {
        "index": 2,
        "scale": 0.43427085876464844
      },
      "occlusionTexture": {
        "index": 1
      },
      "pbrMetallicRoughness": {
        "baseColorTexture": {
          "index": 0
        },
        "metallicFactor": 0.0,
        "metallicRoughnessTexture": {
          "index": 1
        },
        "roughnessFactor": 0.8655208587646485
      }
    },
    {
      "doubleSided": true,
      "name": "eyesrim",
      "pbrMetallicRoughness": {
        "baseColorTexture": {
          "index": 0
        },
        "metallicFactor": 0.0,
        "roughnessFactor": 0.4219791412353515
      }
    },
    {
      "doubleSided": true,
      "name": "material",
      "occlusionTexture": {
        "index": 1
      },
      "pbrMetallicRoughness": {
        "baseColorTexture": {
          "index": 0
        },
        "metallicFactor": 0.0,
        "metallicRoughnessTexture": {
          "index": 1
        },
        "roughnessFactor": 0.0
      }
    }
  ],
  "meshes": [
    {
      "name": "Sphere.001_hatbase_0",
      "primitives": [
        {
          "attributes": {
            "NORMAL": 1,
            "POSITION": 0,
            "TANGENT": 2,
            "TEXCOORD_0": 3
          },
          "indices": 4,
          "material": 0,
          "mode": 4
        }
      ]
    },
    {
      "name": "Sphere.001_eyesrim_0",
      "primitives": [
        {
          "attributes": {
            "NORMAL": 6,
            "POSITION": 5,
            "TEXCOORD_0": 7
          },
          "indices": 8,
          "material": 1,
          "mode": 4
        }
      ]
    },
    {
      "name": "Sphere.001_eye_0",
      "primitives": [
        {
          "attributes": {
            "NORMAL": 10,
            "POSITION": 9,
            "TEXCOORD_0": 11
          },
          "indices": 12,
          "material": 2,
          "mode": 4
        }
      ]
    }
  ],
  "nodes": [
    {
      "children": [
        1
      ],
      "matrix": [
        1.0,
        0.0,
        0.0,
        0.0,
        0.0,
        -0.3563554584980009,
        -0.9343504309654237,
        0.0,
        0.0,
        0.9343504309654237,
        -0.3563554584980009,
        0.0,
        0.0,
        77.58485412597655,
        77.52413177490236,
        1.0
      ],
      "name": "Sketchfab_model"
    },
    {
      "children": [
        2
      ],
      "matrix": [
        1.0,
        0.0,
        0.0,
        0.0,
        0.0,
        0.0,
        1.0,
        0.0,
        0.0,
        -1.0,
        0.0,
        0.0,
        0.0,
        0.0,
        0.0,
        1.0
      ],
      "name": "7a1a765ba67546268d49f649c0db8721.fbx"
    },
    {
      "children": [
        3
      ],
      "name": "RootNode"
    },
    {
      "children": [
        4,
        5,
        6
      ],
      "matrix": [
        0.9499628336132035,
        -0.11435780711120493,
        -0.12938541360630534,
        0.0,
        0.12370947552039274,
        0.6926670176196551,
        0.2960729625479715,
        0.0,
        0.06184227269882603,
        -0.32967369366064525,
        0.7454365881830711,
        0.0,
        88.3666000366211,
        324.9930419921875,
        -11.164508819580078,
        1.0
      ],
      "name": "Sphere.001"
    },
    {
      "mesh": 0,
      "name": "Sphere.001_hatbase_0"
    },
    {
      "mesh": 1,
      "name": "Sphere.001_eyesrim_0"
    },
    {
      "mesh": 2,
      "name": "Sphere.001_eye_0"
    }
  ],
  "samplers": [
    {
      "magFilter": 9729,
      "minFilter": 9987,
      "wrapS": 10497,
      "wrapT": 10497
    }
  ],
  "scene": 0,
  "scenes": [
    {
      "name": "Sketchfab_Scene",
      "nodes": [
        0
      ]
    }
  ],
  "textures": [
    {
      "sampler": 0,
      "source": 0
    },
    {
      "sampler": 0,
      "source": 1
    },
    {
      "sampler": 0,
      "source": 2
    }
  ]
}
