{
  "asset": {
    "generator": "Khronos glTF Blender I/O v3.6.27",
    "version": "2.0"
  },
  "scene": 0,
  "scenes": [
    {
      "name": "Scene",
      "nodes": [0]
    }
  ],
  "nodes": [
    {
      "mesh": 0,
      "name": "superMarioOdysseyHat"
    }
  ],
  "materials": [
    {
      "doubleSided": true,
      "name": "hatbase",
      "normalTexture": {
        "index": 0,
        "scale": 0.43427085876464844
      },
      "occlusionTexture": {
        "index": 1
      },
      "pbrMetallicRoughness": {
        "baseColorTexture": {
          "index": 2
        },
        "metallicFactor": 0,
        "metallicRoughnessTexture": {
          "index": 1
        },
        "roughnessFactor": 0.8655208349227905
      }
    }
  ],
  "meshes": [
    {
      "name": "Sphere.001_hatbase_0",
      "primitives": [
        {
          "attributes": {
            "POSITION": 0,
            "NORMAL": 1,
            "TEXCOORD_0": 2
          },
          "indices": 3,
          "material": 0
        }
      ]
    }
  ],
  "textures": [
    {
      "sampler": 0,
      "source": 0
    },
    {
      "sampler": 0,
      "source": 1
    },
    {
      "sampler": 0,
      "source": 2
    }
  ],
  "images": [
    {
      "mimeType": "image/png",
      "name": "hatbase_normal",
      "uri": "texs/hatbase_normal.png"
    },
    {
      "mimeType": "image/png",
      "name": "hatbase_metallicRoughness",
      "uri": "texs/hatbase_metallicRoughness.png"
    },
    {
      "mimeType": "image/png",
      "name": "hatbase_baseColor",
      "uri": "texs/hatbase_baseColor.png"
    }
  ],
  "accessors": [
    {
      "bufferView": 0,
      "componentType": 5126,
      "count": 1961,
      "max": [0.5897675156593323, 0.5461291074752808, 1.1947333812713623],
      "min": [-0.5919238924980164, -0.5309228897094727, -0.8486993312835693],
      "type": "VEC3"
    },
    {
      "bufferView": 1,
      "componentType": 5126,
      "count": 1961,
      "type": "VEC3"
    },
    {
      "bufferView": 2,
      "componentType": 5126,
      "count": 1961,
      "type": "VEC2"
    },
    {
      "bufferView": 3,
      "componentType": 5123,
      "count": 9510,
      "type": "SCALAR"
    }
  ],
  "bufferViews": [
    {
      "buffer": 0,
      "byteLength": 23532,
      "byteOffset": 0,
      "target": 34962
    },
    {
      "buffer": 0,
      "byteLength": 23532,
      "byteOffset": 23532,
      "target": 34962
    },
    {
      "buffer": 0,
      "byteLength": 15688,
      "byteOffset": 47064,
      "target": 34962
    },
    {
      "buffer": 0,
      "byteLength": 19020,
      "byteOffset": 62752,
      "target": 34963
    }
  ],
  "samplers": [
    {
      "magFilter": 9729,
      "minFilter": 9987
    }
  ],
  "buffers": [
    {
      "byteLength": 81772,
      "uri": "superMarioOdysseyHat.bin"
    }
  ]
}
