{
	"asset":{
		"generator":"Khronos glTF Blender I/O v3.6.27",
		"version":"2.0"
	},
	"scene":0,
	"scenes":[
		{
			"name":"Scene",
			"nodes":[
				0
			]
		}
	],
	"nodes":[
		{
			"mesh":0,
			"name":"nicodemusMustache",
			"rotation":[
				0,
				0,
				-0.05337242782115936,
				0.9985746741294861
			]
		}
	],
	"materials":[
		{
			"doubleSided":true,
			"name":"moustache.001",
			"pbrMetallicRoughness":{
				"baseColorFactor":[
					0.5,
					0.5,
					0.5,
					1
				],
				"metallicFactor":0
			}
		}
	],
	"meshes":[
		{
			"name":"moustache_moustache_0.001",
			"primitives":[
				{
					"attributes":{
						"POSITION":0,
						"NORMAL":1
					},
					"indices":2,
					"material":0
				}
			]
		}
	],
	"accessors":[
		{
			"bufferView":0,
			"componentType":5126,
			"count":44689,
			"max":[
				0.5524216890335083,
				0.10704226791858673,
				0.09829986095428467
			],
			"min":[
				-0.5586965680122375,
				-2.6729791164398193,
				-0.12717579305171967
			],
			"type":"VEC3"
		},
		{
			"bufferView":1,
			"componentType":5126,
			"count":44689,
			"type":"VEC3"
		},
		{
			"bufferView":2,
			"componentType":5123,
			"count":268062,
			"type":"SCALAR"
		}
	],
	"bufferViews":[
		{
			"buffer":0,
			"byteLength":536268,
			"byteOffset":0,
			"target":34962
		},
		{
			"buffer":0,
			"byteLength":536268,
			"byteOffset":536268,
			"target":34962
		},
		{
			"buffer":0,
			"byteLength":536124,
			"byteOffset":1072536,
			"target":34963
		}
	],
	"buffers":[
		{
			"byteLength":1608660,
			"uri":"nicodemusMustache.bin"
		}
	]
}
