{
	"asset":{
		"generator":"Khronos glTF Blender I/O v3.6.27",
		"version":"2.0"
	},
	"extensionsUsed":[
		"KHR_materials_specular",
		"KHR_materials_ior"
	],
	"scene":0,
	"scenes":[
		{
			"name":"Scene",
			"nodes":[
				16
			]
		}
	],
	"nodes":[
		{
			"mesh":0,
			"name":"Object_6"
		},
		{
			"children":[
				0
			],
			"name":"node_id31_4"
		},
		{
			"mesh":1,
			"name":"Object_9"
		},
		{
			"children":[
				2
			],
			"name":"_0"
		},
		{
			"mesh":2,
			"name":"Object_11"
		},
		{
			"children":[
				4
			],
			"name":"_1"
		},
		{
			"children":[
				3,
				5
			],
			"name":"node_id33_7"
		},
		{
			"mesh":3,
			"name":"Object_14"
		},
		{
			"children":[
				7
			],
			"name":"_2"
		},
		{
			"mesh":4,
			"name":"Object_16"
		},
		{
			"children":[
				9
			],
			"name":"_3"
		},
		{
			"children":[
				8,
				10
			],
			"name":"node_id36_8"
		},
		{
			"children":[
				1,
				6,
				11
			],
			"name":"node_id30_6"
		},
		{
			"children":[
				12
			],
			"name":"root_5"
		},
		{
			"children":[
				13
			],
			"name":"GLTF_SceneRootNode.001"
		},
		{
			"children":[
				14
			],
			"name":"root"
		},
		{
			"children":[
				15
			],
			"name":"petRock"
		}
	],
	"materials":[
		{
			"doubleSided":true,
			"extensions":{
				"KHR_materials_specular":{
					"specularColorTexture":{
						"index":0
					},
					"specularColorFactor":[
						2.0644762004433006,
						2.0644762004433006,
						2.0644762004433006
					]
				},
				"KHR_materials_ior":{
					"ior":1.4500000476837158
				}
			},
			"name":"material",
			"pbrMetallicRoughness":{
				"baseColorTexture":{
					"index":1
				},
				"metallicFactor":0,
				"metallicRoughnessTexture":{
					"index":2
				}
			}
		},
		{
			"doubleSided":true,
			"extensions":{
				"KHR_materials_specular":{
					"specularColorTexture":{
						"index":3
					}
				},
				"KHR_materials_ior":{
					"ior":1.4500000476837158
				}
			},
			"name":"material_1",
			"pbrMetallicRoughness":{
				"baseColorTexture":{
					"index":4
				},
				"metallicFactor":0,
				"metallicRoughnessTexture":{
					"index":5
				}
			}
		},
		{
			"doubleSided":true,
			"extensions":{
				"KHR_materials_specular":{
					"specularColorTexture":{
						"index":6
					}
				},
				"KHR_materials_ior":{
					"ior":1.4500000476837158
				}
			},
			"name":"material_2",
			"pbrMetallicRoughness":{
				"baseColorTexture":{
					"index":7
				},
				"metallicFactor":0,
				"metallicRoughnessTexture":{
					"index":8
				}
			}
		}
	],
	"meshes":[
		{
			"name":"Object_0.002",
			"primitives":[
				{
					"attributes":{
						"POSITION":0,
						"NORMAL":1,
						"TEXCOORD_0":2,
						"TEXCOORD_1":3,
						"TEXCOORD_2":4
					},
					"indices":5,
					"material":0
				}
			]
		},
		{
			"name":"Object_1",
			"primitives":[
				{
					"attributes":{
						"POSITION":6,
						"NORMAL":7,
						"TEXCOORD_0":8,
						"TEXCOORD_1":9,
						"TEXCOORD_2":10
					},
					"indices":11,
					"material":1
				}
			]
		},
		{
			"name":"Object_2",
			"primitives":[
				{
					"attributes":{
						"POSITION":12,
						"NORMAL":13,
						"TEXCOORD_0":14,
						"TEXCOORD_1":15,
						"TEXCOORD_2":16
					},
					"indices":17,
					"material":2
				}
			]
		},
		{
			"name":"Object_3",
			"primitives":[
				{
					"attributes":{
						"POSITION":18,
						"NORMAL":19,
						"TEXCOORD_0":20,
						"TEXCOORD_1":21,
						"TEXCOORD_2":22
					},
					"indices":11,
					"material":1
				}
			]
		},
		{
			"name":"Object_4",
			"primitives":[
				{
					"attributes":{
						"POSITION":23,
						"NORMAL":24,
						"TEXCOORD_0":25,
						"TEXCOORD_1":26,
						"TEXCOORD_2":27
					},
					"indices":17,
					"material":2
				}
			]
		}
	],
	"textures":[
		{
			"sampler":0,
			"source":0
		},
		{
			"sampler":0,
			"source":1
		},
		{
			"sampler":0,
			"source":2
		},
		{
			"sampler":0,
			"source":3
		},
		{
			"sampler":0,
			"source":4
		},
		{
			"sampler":0,
			"source":5
		},
		{
			"sampler":0,
			"source":6
		},
		{
			"sampler":0,
			"source":7
		},
		{
			"sampler":0,
			"source":8
		}
	],
	"images":[
		{
			"mimeType":"image/png",
			"name":"Image",
			"uri":"texs2/Image.png"
		},
		{
			"mimeType":"image/png",
			"name":"material_diffuse",
			"uri":"texs2/material_diffuse.png"
		},
		{
			"mimeType":"image/png",
			"name":"material_specularGlossiness",
			"uri":"texs2/material_specularGlossiness.png"
		},
		{
			"mimeType":"image/png",
			"name":"Image",
			"uri":"texs2/Image-1.png"
		},
		{
			"mimeType":"image/png",
			"name":"material_1_diffuse",
			"uri":"texs2/material_1_diffuse.png"
		},
		{
			"mimeType":"image/png",
			"name":"material_1_specularGlossiness",
			"uri":"texs2/material_1_specularGlossiness.png"
		},
		{
			"mimeType":"image/png",
			"name":"Image",
			"uri":"texs2/Image-2.png"
		},
		{
			"mimeType":"image/png",
			"name":"material_2_diffuse",
			"uri":"texs2/material_2_diffuse.png"
		},
		{
			"mimeType":"image/png",
			"name":"material_2_specularGlossiness",
			"uri":"texs2/material_2_specularGlossiness.png"
		}
	],
	"accessors":[
		{
			"bufferView":0,
			"componentType":5126,
			"count":1157,
			"max":[
				0.8997457027435303,
				0.7198407053947449,
				0.9648982286453247
			],
			"min":[
				-1.0065616369247437,
				-0.7723233103752136,
				-0.8266899585723877
			],
			"type":"VEC3"
		},
		{
			"bufferView":1,
			"componentType":5126,
			"count":1157,
			"type":"VEC3"
		},
		{
			"bufferView":2,
			"componentType":5126,
			"count":1157,
			"type":"VEC2"
		},
		{
			"bufferView":3,
			"componentType":5126,
			"count":1157,
			"type":"VEC2"
		},
		{
			"bufferView":4,
			"componentType":5126,
			"count":1157,
			"type":"VEC2"
		},
		{
			"bufferView":5,
			"componentType":5123,
			"count":6588,
			"type":"SCALAR"
		},
		{
			"bufferView":6,
			"componentType":5126,
			"count":344,
			"max":[
				-0.14556510746479034,
				0.37293681502342224,
				-0.4209420084953308
			],
			"min":[
				-0.6422442197799683,
				-0.14836126565933228,
				-0.7803658246994019
			],
			"type":"VEC3"
		},
		{
			"bufferView":7,
			"componentType":5126,
			"count":344,
			"type":"VEC3"
		},
		{
			"bufferView":8,
			"componentType":5126,
			"count":344,
			"type":"VEC2"
		},
		{
			"bufferView":9,
			"componentType":5126,
			"count":344,
			"type":"VEC2"
		},
		{
			"bufferView":10,
			"componentType":5126,
			"count":344,
			"type":"VEC2"
		},
		{
			"bufferView":11,
			"componentType":5123,
			"count":960,
			"type":"SCALAR"
		},
		{
			"bufferView":12,
			"componentType":5126,
			"count":3443,
			"max":[
				-0.1633574366569519,
				0.3518780469894409,
				-0.43078070878982544
			],
			"min":[
				-0.6274220943450928,
				-0.1340028941631317,
				-0.7809239029884338
			],
			"type":"VEC3"
		},
		{
			"bufferView":13,
			"componentType":5126,
			"count":3443,
			"type":"VEC3"
		},
		{
			"bufferView":14,
			"componentType":5126,
			"count":3443,
			"type":"VEC2"
		},
		{
			"bufferView":15,
			"componentType":5126,
			"count":3443,
			"type":"VEC2"
		},
		{
			"bufferView":16,
			"componentType":5126,
			"count":3443,
			"type":"VEC2"
		},
		{
			"bufferView":17,
			"componentType":5123,
			"count":19200,
			"type":"SCALAR"
		},
		{
			"bufferView":18,
			"componentType":5126,
			"count":344,
			"max":[
				0.455770879983902,
				0.376958966255188,
				-0.5268698334693909
			],
			"min":[
				-0.0790230929851532,
				-0.14433914422988892,
				-0.8194393515586853
			],
			"type":"VEC3"
		},
		{
			"bufferView":19,
			"componentType":5126,
			"count":344,
			"type":"VEC3"
		},
		{
			"bufferView":20,
			"componentType":5126,
			"count":344,
			"type":"VEC2"
		},
		{
			"bufferView":21,
			"componentType":5126,
			"count":344,
			"type":"VEC2"
		},
		{
			"bufferView":22,
			"componentType":5126,
			"count":344,
			"type":"VEC2"
		},
		{
			"bufferView":23,
			"componentType":5126,
			"count":3443,
			"max":[
				0.43337613344192505,
				0.35590019822120667,
				-0.5369284152984619
			],
			"min":[
				-0.0648619532585144,
				-0.12998080253601074,
				-0.8354259729385376
			],
			"type":"VEC3"
		},
		{
			"bufferView":24,
			"componentType":5126,
			"count":3443,
			"type":"VEC3"
		},
		{
			"bufferView":25,
			"componentType":5126,
			"count":3443,
			"type":"VEC2"
		},
		{
			"bufferView":26,
			"componentType":5126,
			"count":3443,
			"type":"VEC2"
		},
		{
			"bufferView":27,
			"componentType":5126,
			"count":3443,
			"type":"VEC2"
		}
	],
	"bufferViews":[
		{
			"buffer":0,
			"byteLength":13884,
			"byteOffset":0,
			"target":34962
		},
		{
			"buffer":0,
			"byteLength":13884,
			"byteOffset":13884,
			"target":34962
		},
		{
			"buffer":0,
			"byteLength":9256,
			"byteOffset":27768,
			"target":34962
		},
		{
			"buffer":0,
			"byteLength":9256,
			"byteOffset":37024,
			"target":34962
		},
		{
			"buffer":0,
			"byteLength":9256,
			"byteOffset":46280,
			"target":34962
		},
		{
			"buffer":0,
			"byteLength":13176,
			"byteOffset":55536,
			"target":34963
		},
		{
			"buffer":0,
			"byteLength":4128,
			"byteOffset":68712,
			"target":34962
		},
		{
			"buffer":0,
			"byteLength":4128,
			"byteOffset":72840,
			"target":34962
		},
		{
			"buffer":0,
			"byteLength":2752,
			"byteOffset":76968,
			"target":34962
		},
		{
			"buffer":0,
			"byteLength":2752,
			"byteOffset":79720,
			"target":34962
		},
		{
			"buffer":0,
			"byteLength":2752,
			"byteOffset":82472,
			"target":34962
		},
		{
			"buffer":0,
			"byteLength":1920,
			"byteOffset":85224,
			"target":34963
		},
		{
			"buffer":0,
			"byteLength":41316,
			"byteOffset":87144,
			"target":34962
		},
		{
			"buffer":0,
			"byteLength":41316,
			"byteOffset":128460,
			"target":34962
		},
		{
			"buffer":0,
			"byteLength":27544,
			"byteOffset":169776,
			"target":34962
		},
		{
			"buffer":0,
			"byteLength":27544,
			"byteOffset":197320,
			"target":34962
		},
		{
			"buffer":0,
			"byteLength":27544,
			"byteOffset":224864,
			"target":34962
		},
		{
			"buffer":0,
			"byteLength":38400,
			"byteOffset":252408,
			"target":34963
		},
		{
			"buffer":0,
			"byteLength":4128,
			"byteOffset":290808,
			"target":34962
		},
		{
			"buffer":0,
			"byteLength":4128,
			"byteOffset":294936,
			"target":34962
		},
		{
			"buffer":0,
			"byteLength":2752,
			"byteOffset":299064,
			"target":34962
		},
		{
			"buffer":0,
			"byteLength":2752,
			"byteOffset":301816,
			"target":34962
		},
		{
			"buffer":0,
			"byteLength":2752,
			"byteOffset":304568,
			"target":34962
		},
		{
			"buffer":0,
			"byteLength":41316,
			"byteOffset":307320,
			"target":34962
		},
		{
			"buffer":0,
			"byteLength":41316,
			"byteOffset":348636,
			"target":34962
		},
		{
			"buffer":0,
			"byteLength":27544,
			"byteOffset":389952,
			"target":34962
		},
		{
			"buffer":0,
			"byteLength":27544,
			"byteOffset":417496,
			"target":34962
		},
		{
			"buffer":0,
			"byteLength":27544,
			"byteOffset":445040,
			"target":34962
		}
	],
	"samplers":[
		{
			"magFilter":9729,
			"minFilter":9987
		}
	],
	"buffers":[
		{
			"byteLength":472584,
			"uri":"petRock2.bin"
		}
	]
}
