<?xml version="1.0" encoding="UTF-8" standalone="no"?>
<svg
   width="32"
   height="32"
   viewBox="0 0 99.999804 99.999425"
   version="1.1"
   id="svg1"
   sodipodi:docname="mustacheOffIcon2.svg"
   inkscape:version="1.3.2 (091e20e, 2023-11-25, custom)"
   xmlns:inkscape="http://www.inkscape.org/namespaces/inkscape"
   xmlns:sodipodi="http://sodipodi.sourceforge.net/DTD/sodipodi-0.dtd"
   xmlns="http://www.w3.org/2000/svg"
   xmlns:svg="http://www.w3.org/2000/svg">
  <defs
     id="defs1" />
  <sodipodi:namedview
     id="namedview1"
     pagecolor="#ffffff"
     bordercolor="#000000"
     borderopacity="0.25"
     inkscape:showpageshadow="2"
     inkscape:pageopacity="0.0"
     inkscape:pagecheckerboard="0"
     inkscape:deskcolor="#d1d1d1"
     inkscape:document-units="px"
     inkscape:zoom="16"
     inkscape:cx="12.3125"
     inkscape:cy="19.90625"
     inkscape:window-width="1920"
     inkscape:window-height="1009"
     inkscape:window-x="-8"
     inkscape:window-y="-8"
     inkscape:window-maximized="1"
     inkscape:current-layer="svg1" />
  <path
     id="path1"
     style="fill:none;stroke:#fff;stroke-width:3.12493;stroke-linecap:round;stroke-linejoin:round;stroke-dasharray:none;stroke-opacity:1"
     d="m 55.698808,35.417331 8.048255,2.156524 c 2.785526,0.710859 4.732144,2.914544 6.83971,4.773178 l 8.821205,6.846667 c 0.866842,0.628056 3.688936,2.840521 4.509865,3.052878 0.522034,0.134816 3.827709,-0.07292 4.375515,-0.233132 1.00181,-0.292262 3.826147,-2.06496 4.390413,-2.920988 0.499584,-0.756652 0.799483,-4.02525 0.541834,-4.928988 -0.287528,-1.000541 -2.066125,-4.039574 -2.825845,-4.745483 -0.921185,-0.860805 -1.967382,-1.075171 -2.979094,-2.137829 v 0 c 0.659943,-0.07687 1.954477,-0.278018 2.561856,-0.09243 0.910202,0.276865 1.995214,1.823457 2.61045,2.566763 0.591904,0.716758 1.372115,1.582923 1.718539,2.43941 0.277959,0.685915 0.382773,1.875988 0.533699,2.657257 0.697625,3.655121 0.515717,2.38351 0.245512,5.901083 -0.05006,0.641161 -0.0099,1.362318 -0.187858,1.979334 -0.171668,0.593347 -1.500725,2.599257 -1.921933,3.29065 -0.591076,0.965549 -2.359279,3.881311 -3.083479,4.491517 -0.649459,0.549047 -1.942329,1.075383 -2.748811,1.452965 -1.445226,0.678329 -3.007397,1.594255 -4.57518,1.925145 l -4.655358,0.33067 c -2.343999,0.216776 -4.80968,0.669879 -7.120805,0.0633 l -8.521683,-2.283378 c -2.458184,-0.663731 -5.82667,-2.446695 -8.15317,-3.658684 0,0 -2.312753,-1.12999 -5.119947,-2.595512 -2.857948,1.900185 -8.365098,5.407718 -11.280136,6.193873 l -8.284969,2.219952 c -2.467816,0.656186 -4.080425,0.205366 -6.577607,0.07023 L 16.645244,63.763825 C 15.67962,63.502453 14.634529,62.793019 13.723122,62.326848 12.80271,61.855474 10.564954,60.851639 9.884461,60.224648 9.4135221,59.792682 8.2754597,57.903042 7.8686709,57.25599 6.4570852,55.008341 5.7829899,54.585132 5.096572,51.909764 4.3939578,49.155011 4.673585,47.22547 5.2077028,44.522436 5.3649256,43.726794 5.4820865,42.563859 5.808022,41.867624 c 0.2916184,-0.616 1.133827,-1.648463 1.5881095,-2.206567 1.6134908,-1.969808 2.5440203,-3.335459 5.2446115,-2.204473 -2.935862,1.456452 -3.2193529,1.742995 -4.8565673,4.599526 -0.3505019,0.614022 -0.8141965,1.354781 -0.9810244,2.038825 -0.2051544,0.844006 -0.1163064,3.722627 0.2753178,4.492987 0.3731059,0.729653 1.2761114,1.297025 1.9343137,1.765079 0.5101601,0.360573 1.3101102,0.950483 1.8495112,1.211885 1.073438,0.521702 3.773667,0.818088 4.967813,0.63512 1.057779,-0.161649 3.719032,-2.358926 4.753555,-3.090264 l 3.840322,-2.7111 5.804054,-4.850866 c 2.254159,-1.908065 3.059821,-3.275778 6.012731,-4.072082 l 6.86469,-1.839388 c 2.179963,-0.552752 6.03294,0.06005 6.795226,0.0678 0.762287,0.0078 5.798123,-0.286767 5.798123,-0.286767 z"
     sodipodi:nodetypes="cccccccccsscccccccccccccccccccccccscccccccccccccczc" />
</svg>
