{
	"asset":{
		"generator":"Khronos glTF Blender I/O v3.6.27",
		"version":"2.0"
	},
	"scene":0,
	"scenes":[
		{
			"name":"Scene",
			"nodes":[
				2
			]
		}
	],
	"nodes":[
		{
			"mesh":0,
			"name":"googles"
		},
		{
			"mesh":1,
			"name":"helmet"
		},
		{
			"children":[
				0,
				1
			],
			"name":"aviatorHelmet"
		}
	],
	"materials":[
		{
			"emissiveTexture":{
				"index":0
			},
			"name":"goggles",
			"normalTexture":{
				"index":1
			},
			"pbrMetallicRoughness":{
				"baseColorTexture":{
					"index":2
				},
				"metallicRoughnessTexture":{
					"index":3
				},
				"roughnessFactor":0.20000000298023224
			}
		},
		{
			"emissiveTexture":{
				"index":4
			},
			"name":"aviator_hlemet.001",
			"normalTexture":{
				"index":5
			},
			"pbrMetallicRoughness":{
				"baseColorTexture":{
					"index":6
				},
				"metallicFactor":0.20999999344348907,
				"roughnessFactor":0.47999998927116394
			}
		}
	],
	"meshes":[
		{
			"name":"Object_1.001",
			"primitives":[
				{
					"attributes":{
						"POSITION":0,
						"NORMAL":1,
						"TEXCOORD_0":2
					},
					"indices":3,
					"material":0
				}
			]
		},
		{
			"name":"Object_0.001",
			"primitives":[
				{
					"attributes":{
						"POSITION":4,
						"NORMAL":5,
						"TEXCOORD_0":6
					},
					"indices":7,
					"material":1
				}
			]
		}
	],
	"textures":[
		{
			"sampler":0,
			"source":0
		},
		{
			"sampler":0,
			"source":1
		},
		{
			"sampler":0,
			"source":0
		},
		{
			"sampler":0,
			"source":2
		},
		{
			"sampler":0,
			"source":3
		},
		{
			"sampler":0,
			"source":4
		},
		{
			"sampler":0,
			"source":3
		}
	],
	"images":[
		{
			"mimeType":"image/png",
			"name":"goggles_baseColor",
			"uri":"texs/goggles_baseColor.png"
		},
		{
			"mimeType":"image/png",
			"name":"goggles_normal",
			"uri":"texs/goggles_normal.png"
		},
		{
			"mimeType":"image/png",
			"name":"goggles_metallicRoughness",
			"uri":"texs/goggles_metallicRoughness.png"
		},
		{
			"mimeType":"image/png",
			"name":"aviator_hlemet_baseColor",
			"uri":"texs/aviator_hlemet_baseColor.png"
		},
		{
			"mimeType":"image/png",
			"name":"aviator_hlemet_normal",
			"uri":"texs/aviator_hlemet_normal.png"
		}
	],
	"accessors":[
		{
			"bufferView":0,
			"componentType":5126,
			"count":2046,
			"max":[
				0.9968914985656738,
				0.2056768238544464,
				1.470998764038086
			],
			"min":[
				-0.956026554107666,
				-0.4143369495868683,
				-0.7724486589431763
			],
			"type":"VEC3"
		},
		{
			"bufferView":1,
			"componentType":5126,
			"count":2046,
			"type":"VEC3"
		},
		{
			"bufferView":2,
			"componentType":5126,
			"count":2046,
			"type":"VEC2"
		},
		{
			"bufferView":3,
			"componentType":5123,
			"count":7368,
			"type":"SCALAR"
		},
		{
			"bufferView":4,
			"componentType":5126,
			"count":2383,
			"max":[
				0.9987508058547974,
				1.2976460456848145,
				1.5490713119506836
			],
			"min":[
				-0.9550907015800476,
				-3.081087589263916,
				-0.7358187437057495
			],
			"type":"VEC3"
		},
		{
			"bufferView":5,
			"componentType":5126,
			"count":2383,
			"type":"VEC3"
		},
		{
			"bufferView":6,
			"componentType":5126,
			"count":2383,
			"type":"VEC2"
		},
		{
			"bufferView":7,
			"componentType":5123,
			"count":11415,
			"type":"SCALAR"
		}
	],
	"bufferViews":[
		{
			"buffer":0,
			"byteLength":24552,
			"byteOffset":0,
			"target":34962
		},
		{
			"buffer":0,
			"byteLength":24552,
			"byteOffset":24552,
			"target":34962
		},
		{
			"buffer":0,
			"byteLength":16368,
			"byteOffset":49104,
			"target":34962
		},
		{
			"buffer":0,
			"byteLength":14736,
			"byteOffset":65472,
			"target":34963
		},
		{
			"buffer":0,
			"byteLength":28596,
			"byteOffset":80208,
			"target":34962
		},
		{
			"buffer":0,
			"byteLength":28596,
			"byteOffset":108804,
			"target":34962
		},
		{
			"buffer":0,
			"byteLength":19064,
			"byteOffset":137400,
			"target":34962
		},
		{
			"buffer":0,
			"byteLength":22830,
			"byteOffset":156464,
			"target":34963
		}
	],
	"samplers":[
		{
			"magFilter":9729,
			"minFilter":9987
		}
	],
	"buffers":[
		{
			"byteLength":179296,
			"uri":"aviatorHelmet.bin"
		}
	]
}
