{
	"asset":{
		"generator":"Khronos glTF Blender I/O v3.6.27",
		"version":"2.0"
	},
	"scene":0,
	"scenes":[
		{
			"name":"Scene",
			"nodes":[
				2
			]
		}
	],
	"nodes":[
		{
			"mesh":0,
			"name":"googles"
		},
		{
			"mesh":1,
			"name":"helmet"
		},
		{
			"children":[
				0,
				1
			],
			"name":"aviatorHelmet"
		}
	],
	"materials":[
		{
			"emissiveTexture":{
				"index":0
			},
			"name":"goggles",
			"normalTexture":{
				"index":1
			},
			"pbrMetallicRoughness":{
				"baseColorTexture":{
					"index":2
				},
				"metallicRoughnessTexture":{
					"index":3
				},
				"roughnessFactor":0.20000000298023224
			}
		},
		{
			"emissiveTexture":{
				"index":4
			},
			"name":"aviator_hlemet.001",
			"normalTexture":{
				"index":5
			},
			"pbrMetallicRoughness":{
				"baseColorTexture":{
					"index":6
				},
				"metallicFactor":0.20999999344348907,
				"roughnessFactor":0.47999998927116394
			}
		}
	],
	"meshes":[
		{
			"name":"Object_1.001",
			"primitives":[
				{
					"attributes":{
						"POSITION":0,
						"NORMAL":1,
						"TEXCOORD_0":2
					},
					"indices":3,
					"material":0
				}
			]
		},
		{
			"name":"Object_0.001",
			"primitives":[
				{
					"attributes":{
						"POSITION":4,
						"NORMAL":5,
						"TEXCOORD_0":6
					},
					"indices":7,
					"material":1
				}
			]
		}
	],
	"textures":[
		{
			"sampler":0,
			"source":0
		},
		{
			"sampler":0,
			"source":1
		},
		{
			"sampler":0,
			"source":0
		},
		{
			"sampler":0,
			"source":2
		},
		{
			"sampler":0,
			"source":3
		},
		{
			"sampler":0,
			"source":4
		},
		{
			"sampler":0,
			"source":3
		}
	],
	"images":[
		{
			"mimeType":"image/png",
			"name":"goggles_baseColor",
			"uri":"texs/goggles_baseColor.png"
		},
		{
			"mimeType":"image/png",
			"name":"goggles_normal",
			"uri":"texs/goggles_normal.png"
		},
		{
			"mimeType":"image/png",
			"name":"goggles_metallicRoughness",
			"uri":"texs/goggles_metallicRoughness.png"
		},
		{
			"mimeType":"image/png",
			"name":"aviator_hlemet_baseColor",
			"uri":"texs/aviator_hlemet_baseColor.png"
		},
		{
			"mimeType":"image/png",
			"name":"aviator_hlemet_normal",
			"uri":"texs/aviator_hlemet_normal.png"
		}
	],
	"accessors":[
		{
			"bufferView":0,
			"componentType":5126,
			"count":2047,
			"max":[
				0.9729176163673401,
				-0.0008201618911698461,
				1.011618971824646
			],
			"min":[
				-0.9800004363059998,
				-0.6208339333534241,
				-1.2318284511566162
			],
			"type":"VEC3"
		},
		{
			"bufferView":1,
			"componentType":5126,
			"count":2047,
			"type":"VEC3"
		},
		{
			"bufferView":2,
			"componentType":5126,
			"count":2047,
			"type":"VEC2"
		},
		{
			"bufferView":3,
			"componentType":5123,
			"count":7368,
			"type":"SCALAR"
		},
		{
			"bufferView":4,
			"componentType":5126,
			"count":2383,
			"max":[
				0.9747769236564636,
				1.091149091720581,
				1.0896915197372437
			],
			"min":[
				-0.9790645837783813,
				-3.2875845432281494,
				-1.1951985359191895
			],
			"type":"VEC3"
		},
		{
			"bufferView":5,
			"componentType":5126,
			"count":2383,
			"type":"VEC3"
		},
		{
			"bufferView":6,
			"componentType":5126,
			"count":2383,
			"type":"VEC2"
		},
		{
			"bufferView":7,
			"componentType":5123,
			"count":11415,
			"type":"SCALAR"
		}
	],
	"bufferViews":[
		{
			"buffer":0,
			"byteLength":24564,
			"byteOffset":0,
			"target":34962
		},
		{
			"buffer":0,
			"byteLength":24564,
			"byteOffset":24564,
			"target":34962
		},
		{
			"buffer":0,
			"byteLength":16376,
			"byteOffset":49128,
			"target":34962
		},
		{
			"buffer":0,
			"byteLength":14736,
			"byteOffset":65504,
			"target":34963
		},
		{
			"buffer":0,
			"byteLength":28596,
			"byteOffset":80240,
			"target":34962
		},
		{
			"buffer":0,
			"byteLength":28596,
			"byteOffset":108836,
			"target":34962
		},
		{
			"buffer":0,
			"byteLength":19064,
			"byteOffset":137432,
			"target":34962
		},
		{
			"buffer":0,
			"byteLength":22830,
			"byteOffset":156496,
			"target":34963
		}
	],
	"samplers":[
		{
			"magFilter":9729,
			"minFilter":9987
		}
	],
	"buffers":[
		{
			"byteLength":179328,
			"uri":"aviatorHelmet.bin"
		}
	]
}
