<?xml version="1.0" encoding="UTF-8" standalone="no"?>
<svg
   width="32"
   height="32"
   viewBox="0 0 99.999697 100.00033"
   version="1.1"
   id="svg1"
   sodipodi:docname="classicalCurlyBeardOffIcon.svg"
   inkscape:version="1.3.2 (091e20e, 2023-11-25, custom)"
   xmlns:inkscape="http://www.inkscape.org/namespaces/inkscape"
   xmlns:sodipodi="http://sodipodi.sourceforge.net/DTD/sodipodi-0.dtd"
   xmlns="http://www.w3.org/2000/svg"
   xmlns:svg="http://www.w3.org/2000/svg">
  <defs
     id="defs1" />
  <sodipodi:namedview
     id="namedview1"
     pagecolor="#ffffff"
     bordercolor="#000000"
     borderopacity="0.25"
     inkscape:showpageshadow="2"
     inkscape:pageopacity="0.0"
     inkscape:pagecheckerboard="0"
     inkscape:deskcolor="#d1d1d1"
     inkscape:document-units="in"
     inkscape:zoom="23.873743"
     inkscape:cx="11.435157"
     inkscape:cy="17.529719"
     inkscape:window-width="1920"
     inkscape:window-height="1009"
     inkscape:window-x="-8"
     inkscape:window-y="-8"
     inkscape:window-maximized="1"
     inkscape:current-layer="svg1" />
  <path
     id="path311"
     style="fill:none;stroke:#fff;stroke-width:1.87461;stroke-linecap:round;stroke-linejoin:round;stroke-dasharray:none;stroke-opacity:1"
     d="m 33.941659,35.329147 c 0,0 4.436928,3.324793 13.405199,3.205263 8.968271,-0.119531 12.903702,-3.205263 12.903702,-3.205263 m 15.955337,-18.20246 2.379771,-4.522682 c 0.321429,-1.144768 -0.05077,-2.47281 0.437033,-3.2848608 0.634422,-0.9417543 2.484101,-1.3872552 3.298971,0 0.496264,0.7697558 0.380643,2.5996918 0.369375,3.5781018 -0.02527,2.100621 -0.603404,2.901391 -0.422955,4.229441 0.380664,2.816791 1.897611,3.428658 2.529211,5.357277 l 1.440821,7.894953 c 0.874092,3.411738 2.264161,5.464427 2.605339,6.767094 l 0.7641,7.331021 c 0.445503,1.956811 1.703062,3.214367 1.739716,4.511394 0.04235,1.449287 -0.899462,2.887304 -0.735919,5.07534 l 1.017879,5.63924 0.377843,5.639247 c 0.172002,3.56118 3.194618,6.846036 3.685235,8.17691 0.437055,1.184241 0.265056,3.665508 -0.397573,4.742596 -0.273484,0.442693 -0.625949,0.755673 -1.068629,1.020698 -3.152328,1.889158 -4.04616,-1.748164 -5.884538,-1.894769 -1.1617,-0.09309 -1.342149,1.595902 -2.836557,1.920166 -1.525418,0.329895 -2.472797,-1.198356 -3.36663,-1.514136 -1.776374,-0.628789 -1.048905,2.515083 -2.859097,3.157972 -0.812044,0.290422 -1.939889,-0.248141 -2.791433,-0.363739 -1.375967,-0.191725 -2.777333,0.248143 -3.94748,0.961487 -1.480294,0.902276 -1.697406,1.641033 -2.399477,2.148564 -0.800777,0.57521 -1.970925,0.507538 -2.760416,1.457735 -0.775411,0.936119 -0.521638,1.982215 -1.485941,3.307425 -1.539533,2.111914 -5.190945,3.189002 -7.734239,3.090308 -2.12881,-0.08459 -5.357278,-0.927657 -6.245453,-3.090308 -0.30171,-0.741561 -0.214302,-1.483107 -0.231226,-2.255696 -0.04232,-2.171108 -1.767535,-2.791805 -2.558445,-3.410726 -0.790889,-0.6189 -1.126392,-1.42288 -1.953261,-1.282225 -0.826841,0.140693 -1.231852,1.379893 -2.086205,3.001178 -0.594931,1.133483 -0.391936,1.928622 -1.144774,2.701202 -1.257549,1.297024 -3.640132,0.984032 -5.236048,0.704893 -1.457732,-0.256579 -3.101582,-0.721809 -4.192753,-1.77354 -0.823347,-0.79513 -1.153245,-1.815826 -1.753821,-2.760413 -1.079923,-1.700219 -4.897687,-6.318771 -6.741727,-6.874237 -1.192691,-0.358096 -2.639165,0.623127 -4.51139,-0.335545 -1.894785,-0.967117 -6.44003,-5.179654 -7.745505,-6.888329 l -1.220902,-1.93426 C 11.616781,66.171223 9.6007501,66.143018 8.0866121,63.368521 6.5527355,60.554524 7.1392174,57.692604 6.6937167,55.755536 6.3412647,54.218835 5.6335391,53.750761 5.2134148,51.526106 c -0.1015063,-1.015063 -0.050752,-1.810209 0,-2.819642 L 4.7876521,44.477032 C 4.5930981,43.005197 3.9756002,41.383909 4.074287,39.965642 4.3477905,36.119658 5.2275129,35.335809 6.0649423,32.070688 L 6.5386384,28.687142 8.3883125,21.356117 8.582865,18.81846 c 0.1240637,-1.229358 1.3277723,-5.327063 1.564367,-5.865869 0.236596,-0.538803 0.529203,-1.169096 0.967656,-1.758399 0.43845,-0.5893 2.633782,-2.4429303 2.795782,-2.138846 0.162111,0.3042917 0.784172,4.47005 -0.01849,6.66153 -0.802664,2.191479 2.608541,0.912766 3.665518,-0.563935 1.056977,-1.476702 1.409811,-0.54701 1.246273,0.569573 -0.954365,7.444279 0.52443,1.025845 1.525408,3.394825 0.142042,1.542996 -0.03386,2.424872 0,3.341255 -0.07889,1.147577 -0.0011,1.165587 -0.457872,3.020899 0.955859,-0.874081 1.487041,-1.464467 1.633661,-2.713567 h 0.845886 c 0.335306,1.553361 0.59288,4.293937 1.691771,0.563923 1.815836,0.107146 2.323367,0.501893 1.409811,2.255698 3.346894,-1.406983 3.544268,-0.383469 5.639256,-1.237806 l 1.973727,-1.068645 c 1.206812,-0.61185 4.98227,-2.165466 6.20318,-2.199302 1.094021,-0.03388 2.134449,-0.03103 3.095939,0.56111 1.110944,0.679522 1.421096,1.505677 2.083707,2.142911 1.57617,1.51413 3.307413,1.683308 5.252949,0.955846 -0.476511,-0.516258 -0.486256,-0.970958 0,-0.845887 l 1.127866,0.281963 c 0.721816,-1.491574 2.780156,-3.087482 4.51139,-3.124139 0.623137,-0.01406 0.110193,-0.168837 2.255699,0.586481 2.145505,0.755318 0.970304,-1.322271 2.297993,-1.801746 1.32769,-0.479474 1.816536,0.875579 3.059296,1.77919 1.24276,0.903611 6.604307,4.550316 8.192772,3.926662 1.588465,-0.623653 1.839998,-3.245198 2.12519,-4.208961 0.285192,-0.963764 0.492472,-5.844744 2.934261,-4.206537 z" />
</svg>
