<?xml version="1.0" encoding="UTF-8" standalone="no"?>
<svg
   width="32"
   height="32"
   viewBox="0 0 99.999697 100.00033"
   version="1.1"
   id="svg1"
   sodipodi:docname="classicalCurlyBeardIcon.svg"
   inkscape:version="1.3.2 (091e20e, 2023-11-25, custom)"
   xmlns:inkscape="http://www.inkscape.org/namespaces/inkscape"
   xmlns:sodipodi="http://sodipodi.sourceforge.net/DTD/sodipodi-0.dtd"
   xmlns="http://www.w3.org/2000/svg"
   xmlns:svg="http://www.w3.org/2000/svg">
  <defs
     id="defs1" />
  <sodipodi:namedview
     id="namedview1"
     pagecolor="#ffffff"
     bordercolor="#000000"
     borderopacity="0.25"
     inkscape:showpageshadow="2"
     inkscape:pageopacity="0.0"
     inkscape:pagecheckerboard="0"
     inkscape:deskcolor="#d1d1d1"
     inkscape:document-units="in"
     inkscape:zoom="16.881285"
     inkscape:cx="12.321337"
     inkscape:cy="16.201373"
     inkscape:window-width="1920"
     inkscape:window-height="1009"
     inkscape:window-x="-8"
     inkscape:window-y="-8"
     inkscape:window-maximized="1"
     inkscape:current-layer="svg1" />
  <path
     id="path55"
     style="fill:none;fill-opacity:1;stroke:#fff;stroke-width:1.87461;stroke-linecap:round;stroke-linejoin:round;stroke-dasharray:none;stroke-opacity:1"
     d="m 41.72551,28.065143 c -2.518098,0.914378 -3.041925,2.622056 -4.192461,4.787461 -0.868306,1.634191 -1.832378,2.825881 -2.405912,4.096392 -0.482393,1.068554 -0.68395,2.288194 -0.585196,2.957806 0.17378,1.178245 0.758745,1.359242 1.726588,1.818993 0.967845,0.459752 2.54204,0.753238 4.039015,0.572538 1.496999,-0.180673 4.257796,-0.475363 4.793353,-0.704912 0.535602,-0.22951 1.109212,-0.341016 1.973746,-0.845887 0.864554,-0.504862 1.681691,-1.274546 2.648397,-1.317538 0.924742,-0.04109 1.450065,0.652523 2.371566,0.740323 0.819728,0.07814 0.840231,0.06611 2.009368,-0.54499 1.169142,-0.611072 0.626963,-0.197128 3.593812,-1.536468 2.137934,-0.965138 1.960127,-1.490519 1.687935,-2.196032 -0.272179,-0.705519 -2.11691,-3.290149 -3.998549,-5.567142 -0.963378,-1.165772 -1.878479,-2.53227 -3.440193,-2.973418 -1.173332,-0.331431 -1.854706,0.507362 -3.665505,0.535727 -1.810811,0.02835 -4.037855,-0.737216 -6.555964,0.177147 z m 34.480388,-10.938457 2.379771,-4.52268 c 0.321429,-1.144768 -0.05076,-2.472812 0.437033,-3.2848625 0.634422,-0.9417543 2.484101,-1.3872552 3.29897,0 0.496264,0.7697565 0.380644,2.5996935 0.369375,3.5781025 -0.02526,2.100621 -0.603404,2.901392 -0.422955,4.22944 0.380666,2.816793 1.897611,3.428659 2.529211,5.357278 l 1.440821,7.894953 c 0.874092,3.411738 2.264161,5.464428 2.60534,6.767094 l 0.764099,7.331022 c 0.445504,1.95681 1.703063,3.214366 1.739717,4.511392 0.04235,1.449288 -0.899462,2.887305 -0.73592,5.075341 l 1.017879,5.63924 0.377844,5.639247 c 0.172001,3.56118 3.194618,6.846035 3.685235,8.17691 0.437055,1.184241 0.265056,3.665508 -0.397573,4.742596 -0.273485,0.442693 -0.625949,0.755673 -1.068631,1.020698 -3.152326,1.889158 -4.046159,-1.748164 -5.884536,-1.894769 -1.161701,-0.09309 -1.342148,1.595902 -2.836558,1.920166 -1.525417,0.329894 -2.472795,-1.198356 -3.366628,-1.514136 -1.776376,-0.628789 -1.048906,2.515082 -2.859098,3.157972 -0.812044,0.290422 -1.939889,-0.248141 -2.791433,-0.363739 -1.375967,-0.191725 -2.777334,0.248143 -3.94748,0.961487 -1.480294,0.902276 -1.697406,1.641032 -2.399477,2.148563 -0.800777,0.575212 -1.970925,0.507539 -2.760417,1.457735 -0.775411,0.936119 -0.521636,1.982215 -1.48594,3.307425 -1.539532,2.111915 -5.190945,3.189003 -7.734239,3.09031 -2.12881,-0.08459 -5.357278,-0.927658 -6.245454,-3.09031 -0.301709,-0.74156 -0.214301,-1.483106 -0.231225,-2.255696 -0.04232,-2.171108 -1.767535,-2.791805 -2.558445,-3.410725 -0.790889,-0.618901 -1.126392,-1.42288 -1.953261,-1.282225 -0.826841,0.140693 -1.231851,1.379892 -2.086205,3.001177 -0.594931,1.133484 -0.391936,1.928623 -1.144774,2.701202 -1.25755,1.297025 -3.640133,0.984033 -5.236048,0.704893 -1.457732,-0.256579 -3.101583,-0.721809 -4.192753,-1.773539 -0.823347,-0.79513 -1.153245,-1.815827 -1.753821,-2.760414 -1.079923,-1.700218 -4.897688,-6.318771 -6.741727,-6.874237 -1.192691,-0.358095 -2.639165,0.623127 -4.51139,-0.335544 C 19.61042,75.210936 15.065176,70.998399 13.7597,69.289723 L 12.538798,67.355465 C 11.616782,66.171222 9.60075,66.143017 8.086612,63.368521 6.5527354,60.554524 7.1392172,57.692603 6.6937166,55.755536 6.3412647,54.218835 5.633539,53.75076 5.2134147,51.526106 c -0.1015063,-1.015064 -0.050752,-1.81021 0,-2.819643 L 4.7876521,44.477033 C 4.593098,43.005197 3.9756001,41.383909 4.0742869,39.965642 4.3477905,36.119657 5.2275128,35.335808 6.0649423,32.070687 L 6.5386383,28.687142 8.3883124,21.356117 8.582865,18.81846 c 0.1240635,-1.229359 1.3277721,-5.327063 1.564367,-5.865869 0.236597,-0.538804 0.529205,-1.169096 0.967656,-1.758398 0.43845,-0.589301 2.633782,-2.4429319 2.795782,-2.1388477 0.162111,0.3042917 0.784172,4.4700507 -0.01849,6.6615297 -0.802663,2.19148 2.608541,0.912767 3.665518,-0.563934 1.056977,-1.476701 1.409812,-0.54701 1.246273,0.569574 -0.954365,7.444278 0.524431,1.025844 1.525408,3.394824 0.142042,1.542997 -0.03386,2.424872 0,3.341255 -0.07889,1.147578 -0.0011,1.165588 -0.457871,3.0209 0.955859,-0.874082 1.487041,-1.464469 1.633661,-2.713568 h 0.845886 c 0.335306,1.553361 0.59288,4.293937 1.691771,0.563922 1.815836,0.107146 2.323367,0.501894 1.409811,2.255699 3.346894,-1.406982 3.544268,-0.383469 5.639255,-1.237806 l 1.973732,-1.068646 c 1.206813,-0.611849 4.982272,-2.165466 6.20318,-2.199301 1.094023,-0.03388 2.134449,-0.03103 3.09594,0.561111 1.110944,0.679521 1.421095,1.505677 2.083707,2.14291 1.57617,1.51413 3.307413,1.683308 5.252949,0.955845 -0.476511,-0.516258 -0.486256,-0.970956 0,-0.845886 l 1.127866,0.281963 c 0.721816,-1.491575 2.780156,-3.087483 4.51139,-3.124139 0.623136,-0.01406 0.110194,-0.168837 2.255699,0.586481 2.145505,0.755317 0.970304,-1.322272 2.297994,-1.801746 1.327689,-0.479474 1.816535,0.875578 3.059296,1.779189 1.24276,0.903611 6.604306,4.550317 8.192771,3.926663 1.588464,-0.623654 1.839998,-3.245199 2.12519,-4.208962 0.285191,-0.963762 0.492472,-5.844743 2.934261,-4.206537 z"
     sodipodi:nodetypes="ccccsccccccsccssccccccccccccccccccccccccccccccsccccccccccccccccccccssszzccccccccccccccccczzzzzcc" />
</svg>
