{
	"asset":{
		"generator":"Khronos glTF Blender I/O v3.6.27",
		"version":"2.0"
	},
	"extensionsUsed":[
		"KHR_materials_transmission"
	],
	"scene":0,
	"scenes":[
		{
			"name":"Scene",
			"nodes":[
				0
			]
		}
	],
	"nodes":[
		{
			"mesh":0,
			"name":"glasses6"
		}
	],
	"materials":[
		{
			"alphaMode":"BLEND",
			"doubleSided":true,
			"extensions":{
				"KHR_materials_transmission":{
					"transmissionFactor":1,
					"transmissionTexture":{
						"index":0
					}
				}
			},
			"name":"Scene_-_Root.001",
			"normalTexture":{
				"index":1
			},
			"occlusionTexture":{
				"index":2
			},
			"pbrMetallicRoughness":{
				"baseColorTexture":{
					"index":3
				},
				"metallicRoughnessTexture":{
					"index":2
				}
			}
		}
	],
	"meshes":[
		{
			"name":"Cube.001__0.001",
			"primitives":[
				{
					"attributes":{
						"POSITION":0,
						"NORMAL":1,
						"TEXCOORD_0":2
					},
					"indices":3,
					"material":0
				}
			]
		}
	],
	"textures":[
		{
			"sampler":0,
			"source":0
		},
		{
			"sampler":0,
			"source":1
		},
		{
			"sampler":0,
			"source":2
		},
		{
			"sampler":0,
			"source":3
		}
	],
	"images":[
		{
			"mimeType":"image/png",
			"name":"Scene_-_Root_transmission",
			"uri":"texs2/Scene_-_Root_transmission.png"
		},
		{
			"mimeType":"image/jpeg",
			"name":"Scene_-_Root_normal",
			"uri":"texs2/Scene_-_Root_normal.jpg"
		},
		{
			"mimeType":"image/png",
			"name":"Scene_-_Root_metallicRoughness",
			"uri":"texs2/Scene_-_Root_metallicRoughness.png"
		},
		{
			"mimeType":"image/png",
			"name":"Scene_-_Root_baseColor",
			"uri":"texs2/Scene_-_Root_baseColor.png"
		}
	],
	"accessors":[
		{
			"bufferView":0,
			"componentType":5126,
			"count":3924,
			"max":[
				0.7280563116073608,
				0.23499317467212677,
				1.4941123723983765
			],
			"min":[
				-0.7269046306610107,
				-0.2722550928592682,
				-0.12595950067043304
			],
			"type":"VEC3"
		},
		{
			"bufferView":1,
			"componentType":5126,
			"count":3924,
			"type":"VEC3"
		},
		{
			"bufferView":2,
			"componentType":5126,
			"count":3924,
			"type":"VEC2"
		},
		{
			"bufferView":3,
			"componentType":5123,
			"count":12660,
			"type":"SCALAR"
		}
	],
	"bufferViews":[
		{
			"buffer":0,
			"byteLength":47088,
			"byteOffset":0,
			"target":34962
		},
		{
			"buffer":0,
			"byteLength":47088,
			"byteOffset":47088,
			"target":34962
		},
		{
			"buffer":0,
			"byteLength":31392,
			"byteOffset":94176,
			"target":34962
		},
		{
			"buffer":0,
			"byteLength":25320,
			"byteOffset":125568,
			"target":34963
		}
	],
	"samplers":[
		{
			"magFilter":9729,
			"minFilter":9987
		}
	],
	"buffers":[
		{
			"byteLength":150888,
			"uri":"glasses6.bin"
		}
	]
}
