{
	"asset":{
		"generator":"Khronos glTF Blender I/O v3.6.27",
		"version":"2.0"
	},
	"scene":0,
	"scenes":[
		{
			"name":"Scene",
			"nodes":[
				3
			]
		}
	],
	"nodes":[
		{
			"mesh":0,
			"name":"Object_2"
		},
		{
			"mesh":1,
			"name":"Object_5"
		},
		{
			"mesh":2,
			"name":"Object_6"
		},
		{
			"children":[
				0,
				1,
				2
			],
			"name":"weldingMask"
		}
	],
	"materials":[
		{
			"doubleSided":true,
			"name":"plastic_noise.001",
			"pbrMetallicRoughness":{
				"baseColorFactor":[
					0.009615739807486534,
					0.009615739807486534,
					0.009615739807486534,
					1
				],
				"metallicFactor":0.34140464663505554,
				"roughnessFactor":0.2281971126794815
			}
		},
		{
			"doubleSided":true,
			"name":"plastic.001",
			"pbrMetallicRoughness":{
				"baseColorFactor":[
					0.012518225237727165,
					0.012518225237727165,
					0.012518225237727165,
					1
				],
				"metallicFactor":0.25335434079170227,
				"roughnessFactor":0.20932918787002563
			}
		},
		{
			"alphaMode":"BLEND",
			"doubleSided":true,
			"name":"wire_177148027.001",
			"pbrMetallicRoughness":{
				"baseColorFactor":[
					0.013314292766153812,
					0.013314292766153812,
					0.013314292766153812,
					0.809538722038269
				],
				"roughnessFactor":0
			}
		}
	],
	"meshes":[
		{
			"name":"Object_0.001",
			"primitives":[
				{
					"attributes":{
						"POSITION":0,
						"NORMAL":1,
						"TEXCOORD_0":2
					},
					"indices":3,
					"material":0
				}
			]
		},
		{
			"name":"Object_3.001",
			"primitives":[
				{
					"attributes":{
						"POSITION":4,
						"NORMAL":5,
						"TEXCOORD_0":6
					},
					"indices":7,
					"material":1
				}
			]
		},
		{
			"name":"Object_4.002",
			"primitives":[
				{
					"attributes":{
						"POSITION":8,
						"NORMAL":9,
						"TEXCOORD_0":10
					},
					"indices":11,
					"material":2
				}
			]
		}
	],
	"accessors":[
		{
			"bufferView":0,
			"componentType":5126,
			"count":4134,
			"max":[
				0.4193512499332428,
				0.5152501463890076,
				0.29439017176628113
			],
			"min":[
				-0.4193512499332428,
				-0.6143328547477722,
				-0.47817251086235046
			],
			"type":"VEC3"
		},
		{
			"bufferView":1,
			"componentType":5126,
			"count":4134,
			"type":"VEC3"
		},
		{
			"bufferView":2,
			"componentType":5126,
			"count":4134,
			"type":"VEC2"
		},
		{
			"bufferView":3,
			"componentType":5123,
			"count":23100,
			"type":"SCALAR"
		},
		{
			"bufferView":4,
			"componentType":5126,
			"count":2604,
			"max":[
				0.4226531684398651,
				0.028234317898750305,
				0.08856786042451859
			],
			"min":[
				-0.4226531684398651,
				-0.0255579873919487,
				0.034769631922245026
			],
			"type":"VEC3"
		},
		{
			"bufferView":5,
			"componentType":5126,
			"count":2604,
			"type":"VEC3"
		},
		{
			"bufferView":6,
			"componentType":5126,
			"count":2604,
			"type":"VEC2"
		},
		{
			"bufferView":7,
			"componentType":5123,
			"count":10740,
			"type":"SCALAR"
		},
		{
			"bufferView":8,
			"componentType":5126,
			"count":24,
			"max":[
				0.27766919136047363,
				0.0948154479265213,
				-0.451514333486557
			],
			"min":[
				-0.27766919136047363,
				-0.08493741601705551,
				-0.46858128905296326
			],
			"type":"VEC3"
		},
		{
			"bufferView":9,
			"componentType":5126,
			"count":24,
			"type":"VEC3"
		},
		{
			"bufferView":10,
			"componentType":5126,
			"count":24,
			"type":"VEC2"
		},
		{
			"bufferView":11,
			"componentType":5123,
			"count":36,
			"type":"SCALAR"
		}
	],
	"bufferViews":[
		{
			"buffer":0,
			"byteLength":49608,
			"byteOffset":0,
			"target":34962
		},
		{
			"buffer":0,
			"byteLength":49608,
			"byteOffset":49608,
			"target":34962
		},
		{
			"buffer":0,
			"byteLength":33072,
			"byteOffset":99216,
			"target":34962
		},
		{
			"buffer":0,
			"byteLength":46200,
			"byteOffset":132288,
			"target":34963
		},
		{
			"buffer":0,
			"byteLength":31248,
			"byteOffset":178488,
			"target":34962
		},
		{
			"buffer":0,
			"byteLength":31248,
			"byteOffset":209736,
			"target":34962
		},
		{
			"buffer":0,
			"byteLength":20832,
			"byteOffset":240984,
			"target":34962
		},
		{
			"buffer":0,
			"byteLength":21480,
			"byteOffset":261816,
			"target":34963
		},
		{
			"buffer":0,
			"byteLength":288,
			"byteOffset":283296,
			"target":34962
		},
		{
			"buffer":0,
			"byteLength":288,
			"byteOffset":283584,
			"target":34962
		},
		{
			"buffer":0,
			"byteLength":192,
			"byteOffset":283872,
			"target":34962
		},
		{
			"buffer":0,
			"byteLength":72,
			"byteOffset":284064,
			"target":34963
		}
	],
	"buffers":[
		{
			"byteLength":284136,
			"uri":"weldingMask.bin"
		}
	]
}
