{
  "accessors": [
    {
      "bufferView": 2,
      "componentType": 5126,
      "count": 390,
      "max": [
        4.987451553344727,
        1.623844861984253,
        0.3500189483165741
      ],
      "min": [
        -0.6300087571144104,
        -1.700569748878479,
        -1.2965612411499023
      ],
      "type": "VEC3"
    },
    {
      "bufferView": 2,
      "byteOffset": 4680,
      "componentType": 5126,
      "count": 390,
      "max": [
        0.9968782663345337,
        0.9983519911766052,
        0.9997134804725647
      ],
      "min": [
        -0.9996699690818787,
        -0.9962078928947449,
        -0.9999356269836426
      ],
      "type": "VEC3"
    },
    {
      "bufferView": 1,
      "componentType": 5126,
      "count": 390,
      "max": [
        0.8740513920783997,
        0.7385607361793518
      ],
      "min": [
        0.0006541440961882472,
        0.0006541440961882472
      ],
      "type": "VEC2"
    },
    {
      "bufferView": 0,
      "componentType": 5125,
      "count": 1422,
      "type": "SCALAR"
    },
    {
      "bufferView": 2,
      "byteOffset": 9360,
      "componentType": 5126,
      "count": 130,
      "max": [
        1.0,
        1.0,
        1.0
      ],
      "min": [
        -1.0,
        -1.0,
        -1.0
      ],
      "type": "VEC3"
    },
    {
      "bufferView": 2,
      "byteOffset": 10920,
      "componentType": 5126,
      "count": 130,
      "max": [
        1.0,
        1.0,
        1.0
      ],
      "min": [
        -1.0,
        -1.0,
        -1.0
      ],
      "type": "VEC3"
    },
    {
      "bufferView": 1,
      "byteOffset": 3120,
      "componentType": 5126,
      "count": 130,
      "max": [
        1.0,
        1.0
      ],
      "min": [
        0.0,
        0.01000000536441803
      ],
      "type": "VEC2"
    },
    {
      "bufferView": 0,
      "byteOffset": 5688,
      "componentType": 5125,
      "count": 372,
      "type": "SCALAR"
    },
    {
      "bufferView": 2,
      "byteOffset": 12480,
      "componentType": 5126,
      "count": 130,
      "max": [
        1.0,
        1.0,
        1.0
      ],
      "min": [
        -1.0,
        -1.0,
        -1.0
      ],
      "type": "VEC3"
    },
    {
      "bufferView": 2,
      "byteOffset": 14040,
      "componentType": 5126,
      "count": 130,
      "max": [
        1.0,
        1.0,
        1.0
      ],
      "min": [
        -1.0,
        -1.0,
        -1.0
      ],
      "type": "VEC3"
    },
    {
      "bufferView": 1,
      "byteOffset": 4160,
      "componentType": 5126,
      "count": 130,
      "max": [
        1.0,
        1.0
      ],
      "min": [
        0.0,
        0.01000000536441803
      ],
      "type": "VEC2"
    },
    {
      "bufferView": 0,
      "byteOffset": 7176,
      "componentType": 5125,
      "count": 372,
      "type": "SCALAR"
    },
    {
      "bufferView": 2,
      "byteOffset": 15600,
      "componentType": 5126,
      "count": 30160,
      "max": [
        17.437896728515625,
        2.8864023685455322,
        2.168131113052368
      ],
      "min": [
        -20.02538299560547,
        -2.8864023685455322,
        -12.429276466369629
      ],
      "type": "VEC3"
    },
    {
      "bufferView": 2,
      "byteOffset": 377520,
      "componentType": 5126,
      "count": 30160,
      "max": [
        1.0,
        1.0,
        0.9999023079872131
      ],
      "min": [
        -0.9999975562095642,
        -1.0,
        -0.9999988079071045
      ],
      "type": "VEC3"
    },
    {
      "bufferView": 1,
      "byteOffset": 5200,
      "componentType": 5126,
      "count": 30160,
      "max": [
        0.995505690574646,
        1.0000001192092896
      ],
      "min": [
        0.0,
        0.0
      ],
      "type": "VEC2"
    },
    {
      "bufferView": 0,
      "byteOffset": 8664,
      "componentType": 5125,
      "count": 138855,
      "type": "SCALAR"
    }
  ],
  "asset": {
    "extras": {
      "author": "КУКАЛЕВ (https://sketchfab.com/po_povodu)",
      "license": "CC-BY-4.0 (http://creativecommons.org/licenses/by/4.0/)",
      "source": "https://sketchfab.com/3d-models/dinosaurs-9f25dbb0b63246dfad44835213996005",
      "title": "Dinosaurs"
    },
    "generator": "Sketchfab-12.66.0",
    "version": "2.0"
  },
  "bufferViews": [
    {
      "buffer": 0,
      "byteLength": 564084,
      "name": "floatBufferViews",
      "target": 34963
    },
    {
      "buffer": 0,
      "byteLength": 246480,
      "byteOffset": 564084,
      "byteStride": 8,
      "name": "floatBufferViews",
      "target": 34962
    },
    {
      "buffer": 0,
      "byteLength": 739440,
      "byteOffset": 810564,
      "byteStride": 12,
      "name": "floatBufferViews",
      "target": 34962
    }
  ],
  "buffers": [
    {
      "byteLength": 1550004,
      "uri": "scene.bin"
    }
  ],
  "materials": [
    {
      "doubleSided": true,
      "name": "bones_material_3",
      "pbrMetallicRoughness": {
        "baseColorFactor": [
          0.570471,
          0.386049,
          0.116011,
          1.0
        ],
        "metallicFactor": 0.0,
        "roughnessFactor": 0.9083664061602701
      }
    },
    {
      "doubleSided": true,
      "name": "stand_material",
      "pbrMetallicRoughness": {
        "baseColorFactor": [
          0.060718799999999996,
          0.0118681,
          0.004746999999999999,
          1.0
        ],
        "metallicFactor": 0.0,
        "roughnessFactor": 0.9951388742160898
      }
    },
    {
      "doubleSided": true,
      "name": "bones_material",
      "pbrMetallicRoughness": {
        "baseColorFactor": [
          0.538225,
          0.364496,
          0.109896,
          1.0
        ],
        "metallicFactor": 0.0,
        "roughnessFactor": 0.9134954320090506
      }
    }
  ],
  "meshes": [
    {
      "name": "jaw_bones_material_3_0",
      "primitives": [
        {
          "attributes": {
            "NORMAL": 1,
            "POSITION": 0,
            "TEXCOORD_0": 2
          },
          "indices": 3,
          "material": 0,
          "mode": 4
        }
      ]
    },
    {
      "name": "Cylinder.001_stand_material_0",
      "primitives": [
        {
          "attributes": {
            "NORMAL": 5,
            "POSITION": 4,
            "TEXCOORD_0": 6
          },
          "indices": 7,
          "material": 1,
          "mode": 4
        }
      ]
    },
    {
      "name": "Cylinder.002_stand_material_0",
      "primitives": [
        {
          "attributes": {
            "NORMAL": 9,
            "POSITION": 8,
            "TEXCOORD_0": 10
          },
          "indices": 11,
          "material": 1,
          "mode": 4
        }
      ]
    },
    {
      "name": "vertebra.017_bones_material_0",
      "primitives": [
        {
          "attributes": {
            "NORMAL": 13,
            "POSITION": 12,
            "TEXCOORD_0": 14
          },
          "indices": 15,
          "material": 2,
          "mode": 4
        }
      ]
    }
  ],
  "nodes": [
    {
      "children": [
        1
      ],
      "matrix": [
        1.0,
        0.0,
        0.0,
        0.0,
        0.0,
        2.220446049250313e-16,
        -1.0,
        0.0,
        0.0,
        1.0,
        2.220446049250313e-16,
        0.0,
        0.0,
        0.0,
        0.0,
        1.0
      ],
      "name": "Sketchfab_model"
    },
    {
      "children": [
        2
      ],
      "matrix": [
        1.0,
        0.0,
        0.0,
        0.0,
        0.0,
        0.0,
        1.0,
        0.0,
        0.0,
        -1.0,
        0.0,
        0.0,
        0.0,
        0.0,
        0.0,
        1.0
      ],
      "name": "969368cf06144a3b85e14058414ad056.fbx"
    },
    {
      "children": [
        3,
        5,
        7,
        9,
        11
      ],
      "name": "RootNode"
    },
    {
      "children": [
        4
      ],
      "matrix": [
        -69.09055158357602,
        -2.5055480818558626,
        72.25107549847776,
        0.0,
        -1.731640493257559,
        99.96860621619923,
        1.810854050607707,
        0.0,
        -72.27375945692157,
        1.7179264858668628e-07,
        -69.11224325750246,
        0.0,
        4844.2236328125,
        151.5333251953125,
        -4452.7646484375,
        1.0
      ],
      "name": "Camera"
    },
    {
      "name": "Object_4"
    },
    {
      "children": [
        6
      ],
      "matrix": [
        47.786359710585415,
        -85.85681230595418,
        18.576062025947433,
        0.0,
        16.036051427414552,
        -12.26519927906106,
        -97.94085698594434,
        0.0,
        86.36729536825138,
        49.78124088061002,
        7.906950931861822,
        0.0,
        1653.328369140625,
        579.1275634765625,
        7.794710109010339e-05,
        1.0
      ],
      "name": "jaw"
    },
    {
      "mesh": 0,
      "name": "jaw_bones_material_3_0"
    },
    {
      "children": [
        8
      ],
      "matrix": [
        942.9879150390625,
        0.0,
        0.0,
        0.0,
        0.0,
        -0.00015363223177645066,
        -942.98791503905,
        0.0,
        0.0,
        45.021274566649794,
        -7.334896639484862e-06,
        0.0,
        342.5191955566406,
        -747.7450561523438,
        9.361377716064453,
        1.0
      ],
      "name": "Cylinder.001"
    },
    {
      "mesh": 1,
      "name": "Cylinder.001_stand_material_0"
    },
    {
      "children": [
        10
      ],
      "matrix": [
        829.6932373046875,
        0.0,
        0.0,
        0.0,
        0.0,
        -0.0001351741859084877,
        -829.6932373046766,
        0.0,
        0.0,
        39.61222076415963,
        -6.453649919116184e-06,
        0.0,
        342.5191955566406,
        -670.2593994140625,
        9.361377716064453,
        1.0
      ],
      "name": "Cylinder.002"
    },
    {
      "mesh": 2,
      "name": "Cylinder.002_stand_material_0"
    },
    {
      "children": [
        12
      ],
      "matrix": [
        99.95730677285813,
        -2.921784166691566,
        -2.633896881848452e-07,
        0.0,
        -3.9099248561047517e-07,
        -4.361577143896511e-06,
        -99.99999999999991,
        0.0,
        2.921784166691552,
        99.95730677285803,
        -4.371139006309477e-06,
        0.0,
        414.9497375488281,
        590.1822509765625,
        0.7934209704399109,
        1.0
      ],
      "name": "vertebra.017"
    },
    {
      "mesh": 3,
      "name": "vertebra.017_bones_material_0"
    }
  ],
  "scene": 0,
  "scenes": [
    {
      "name": "Sketchfab_Scene",
      "nodes": [
        0
      ]
    }
  ]
}
