{
	"asset":{
		"generator":"Khronos glTF Blender I/O v3.6.27",
		"version":"2.0"
	},
	"scene":0,
	"scenes":[
		{
			"name":"Scene",
			"nodes":[
				0
			]
		}
	],
	"nodes":[
		{
			"mesh":0,
			"name":"mustache1FullMesh"
		}
	],
	"materials":[
		{
			"doubleSided":true,
			"name":"Hair Material",
			"pbrMetallicRoughness":{
				"baseColorFactor":[
					0.05043777823448181,
					0.029989147558808327,
					0.026103125885128975,
					1
				],
				"metallicFactor":0,
				"roughnessFactor":0.5
			}
		}
	],
	"meshes":[
		{
			"name":"BezierCurve.008",
			"primitives":[
				{
					"attributes":{
						"POSITION":0,
						"NORMAL":1
					},
					"indices":2,
					"material":0
				}
			]
		}
	],
	"accessors":[
		{
			"bufferView":0,
			"componentType":5126,
			"count":22052,
			"max":[
				2.3942599296569824,
				0.4221400320529938,
				0.23235304653644562
			],
			"min":[
				-2.3942599296569824,
				-1.0368465185165405,
				-0.232353076338768
			],
			"type":"VEC3"
		},
		{
			"bufferView":1,
			"componentType":5126,
			"count":22052,
			"type":"VEC3"
		},
		{
			"bufferView":2,
			"componentType":5123,
			"count":132300,
			"type":"SCALAR"
		}
	],
	"bufferViews":[
		{
			"buffer":0,
			"byteLength":264624,
			"byteOffset":0,
			"target":34962
		},
		{
			"buffer":0,
			"byteLength":264624,
			"byteOffset":264624,
			"target":34962
		},
		{
			"buffer":0,
			"byteLength":264600,
			"byteOffset":529248,
			"target":34963
		}
	],
	"buffers":[
		{
			"byteLength":793848,
			"uri":"mustache1.bin"
		}
	]
}
