{
	"asset":{
		"generator":"Khronos glTF Blender I/O v3.6.27",
		"version":"2.0"
	},
	"scene":0,
	"scenes":[
		{
			"name":"Scene",
			"nodes":[
				0
			]
		}
	],
	"nodes":[
		{
			"mesh":0,
			"name":"gasMask1"
		}
	],
	"materials":[
		{
			"doubleSided":true,
			"name":"material",
			"normalTexture":{
				"index":0
			},
			"pbrMetallicRoughness":{
				"baseColorTexture":{
					"index":1
				},
				"metallicRoughnessTexture":{
					"index":2
				}
			}
		}
	],
	"meshes":[
		{
			"name":"defaultMaterial.012",
			"primitives":[
				{
					"attributes":{
						"POSITION":0,
						"NORMAL":1,
						"TEXCOORD_0":2
					},
					"indices":3,
					"material":0
				}
			]
		}
	],
	"textures":[
		{
			"sampler":0,
			"source":0
		},
		{
			"sampler":0,
			"source":1
		},
		{
			"sampler":0,
			"source":2
		}
	],
	"images":[
		{
			"mimeType":"image/png",
			"name":"material_normal",
			"uri":"texs/material_normal.png"
		},
		{
			"mimeType":"image/png",
			"name":"material_baseColor",
			"uri":"texs/material_baseColor.png"
		},
		{
			"mimeType":"image/png",
			"name":"material_metallicRoughness",
			"uri":"texs/material_metallicRoughness.png"
		}
	],
	"accessors":[
		{
			"bufferView":0,
			"componentType":5126,
			"count":2121,
			"max":[
				0.6672804951667786,
				0.7039036750793457,
				0.35158461332321167
			],
			"min":[
				-0.6669664978981018,
				-0.46247538924217224,
				-0.32304510474205017
			],
			"type":"VEC3"
		},
		{
			"bufferView":1,
			"componentType":5126,
			"count":2121,
			"type":"VEC3"
		},
		{
			"bufferView":2,
			"componentType":5126,
			"count":2121,
			"type":"VEC2"
		},
		{
			"bufferView":3,
			"componentType":5123,
			"count":7446,
			"type":"SCALAR"
		}
	],
	"bufferViews":[
		{
			"buffer":0,
			"byteLength":25452,
			"byteOffset":0,
			"target":34962
		},
		{
			"buffer":0,
			"byteLength":25452,
			"byteOffset":25452,
			"target":34962
		},
		{
			"buffer":0,
			"byteLength":16968,
			"byteOffset":50904,
			"target":34962
		},
		{
			"buffer":0,
			"byteLength":14892,
			"byteOffset":67872,
			"target":34963
		}
	],
	"samplers":[
		{
			"magFilter":9729,
			"minFilter":9987
		}
	],
	"buffers":[
		{
			"byteLength":82764,
			"uri":"gasMask1.bin"
		}
	]
}
