{
  "accessors": [
    {
      "bufferView": 2,
      "componentType": 5126,
      "count": 29840,
      "max": [
        57.61772537231445,
        2.154247522354126,
        51.41022491455078
      ],
      "min": [
        -42.38227462768555,
        -73.33293151855469,
        -61.35678482055664
      ],
      "type": "VEC3"
    },
    {
      "bufferView": 2,
      "byteOffset": 358080,
      "componentType": 5126,
      "count": 29840,
      "max": [
        0.9999493956565857,
        0.9996472597122192,
        0.9999564290046692
      ],
      "min": [
        -0.9999281167984009,
        -0.9999789595603943,
        -0.999020516872406
      ],
      "type": "VEC3"
    },
    {
      "bufferView": 1,
      "componentType": 5126,
      "count": 29840,
      "max": [
        0.91144198179245,
        0.998908281326294
      ],
      "min": [
        0.001091713085770607,
        0.0031650662422180176
      ],
      "type": "VEC2"
    },
    {
      "bufferView": 0,
      "componentType": 5125,
      "count": 168381,
      "type": "SCALAR"
    }
  ],
  "asset": {
    "extras": {
      "author": "GatenC (https://sketchfab.com/GatenC)",
      "license": "CC-BY-4.0 (http://creativecommons.org/licenses/by/4.0/)",
      "source": "https://sketchfab.com/3d-models/ushanka-hat-a6abcf9811ab4d598fd62ab566683cf2",
      "title": "Ushanka Hat"
    },
    "generator": "Sketchfab-12.68.0",
    "version": "2.0"
  },
  "bufferViews": [
    {
      "buffer": 0,
      "byteLength": 673524,
      "name": "floatBufferViews",
      "target": 34963
    },
    {
      "buffer": 0,
      "byteLength": 238720,
      "byteOffset": 673524,
      "byteStride": 8,
      "name": "floatBufferViews",
      "target": 34962
    },
    {
      "buffer": 0,
      "byteLength": 716160,
      "byteOffset": 912244,
      "byteStride": 12,
      "name": "floatBufferViews",
      "target": 34962
    }
  ],
  "buffers": [
    {
      "byteLength": 1628404,
      "uri": "scene.bin"
    }
  ],
  "images": [
    {
      "uri": "textures/material_0_baseColor.jpeg"
    }
  ],
  "materials": [
    {
      "doubleSided": true,
      "name": "material_0",
      "pbrMetallicRoughness": {
        "baseColorTexture": {
          "index": 0
        },
        "metallicFactor": 0.0
      }
    }
  ],
  "meshes": [
    {
      "name": "Object_0",
      "primitives": [
        {
          "attributes": {
            "NORMAL": 1,
            "POSITION": 0,
            "TEXCOORD_0": 2
          },
          "indices": 3,
          "material": 0,
          "mode": 4
        }
      ]
    }
  ],
  "nodes": [
    {
      "children": [
        1
      ],
      "matrix": [
        1.0,
        6.123234262925832e-17,
        3.3306690738754696e-16,
        0.0,
        6.123234262925839e-17,
        -1.0,
        -6.661338147750939e-16,
        0.0,
        3.3306690738754696e-16,
        6.661338147750939e-16,
        -1.0,
        0.0,
        3.552713678800501e-15,
        -40.56256103515626,
        30.615936279296864,
        1.0
      ],
      "name": "Sketchfab_model"
    },
    {
      "children": [
        2
      ],
      "name": "new ushanka.obj.cleaner.materialmerger.gles"
    },
    {
      "mesh": 0,
      "name": "Object_2"
    }
  ],
  "samplers": [
    {
      "magFilter": 9729,
      "minFilter": 9987,
      "wrapS": 10497,
      "wrapT": 10497
    }
  ],
  "scene": 0,
  "scenes": [
    {
      "name": "Sketchfab_Scene",
      "nodes": [
        0
      ]
    }
  ],
  "textures": [
    {
      "sampler": 0,
      "source": 0
    }
  ]
}
