{
	"asset":{
		"generator":"Khronos glTF Blender I/O v3.6.27",
		"version":"2.0"
	},
	"scene":0,
	"scenes":[
		{
			"name":"Scene",
			"nodes":[
				0
			]
		}
	],
	"nodes":[
		{
			"mesh":0,
			"name":"steampunkGlasses"
		}
	],
	"materials":[
		{
			"alphaCutoff":0.5,
			"alphaMode":"MASK",
			"doubleSided":true,
			"name":"DefaultMaterial.001",
			"normalTexture":{
				"index":0
			},
			"occlusionTexture":{
				"index":1
			},
			"pbrMetallicRoughness":{
				"baseColorTexture":{
					"index":2
				},
				"metallicRoughnessTexture":{
					"index":1
				}
			}
		}
	],
	"meshes":[
		{
			"name":"defaultMaterial.010",
			"primitives":[
				{
					"attributes":{
						"POSITION":0,
						"NORMAL":1,
						"TEXCOORD_0":2
					},
					"indices":3,
					"material":0
				}
			]
		}
	],
	"textures":[
		{
			"sampler":0,
			"source":0
		},
		{
			"sampler":0,
			"source":1
		},
		{
			"sampler":0,
			"source":2
		}
	],
	"images":[
		{
			"mimeType":"image/png",
			"name":"DefaultMaterial_normal",
			"uri":"texs/DefaultMaterial_normal.png"
		},
		{
			"mimeType":"image/png",
			"name":"DefaultMaterial_metallicRoughness",
			"uri":"texs/DefaultMaterial_metallicRoughness.png"
		},
		{
			"mimeType":"image/png",
			"name":"DefaultMaterial_baseColor",
			"uri":"texs/DefaultMaterial_baseColor.png"
		}
	],
	"accessors":[
		{
			"bufferView":0,
			"componentType":5126,
			"count":3101,
			"max":[
				0.7883263826370239,
				0.25048965215682983,
				1.0473508834838867
			],
			"min":[
				-0.7883263230323792,
				-0.25048965215682983,
				-1.0473508834838867
			],
			"type":"VEC3"
		},
		{
			"bufferView":1,
			"componentType":5126,
			"count":3101,
			"type":"VEC3"
		},
		{
			"bufferView":2,
			"componentType":5126,
			"count":3101,
			"type":"VEC2"
		},
		{
			"bufferView":3,
			"componentType":5123,
			"count":15240,
			"type":"SCALAR"
		}
	],
	"bufferViews":[
		{
			"buffer":0,
			"byteLength":37212,
			"byteOffset":0,
			"target":34962
		},
		{
			"buffer":0,
			"byteLength":37212,
			"byteOffset":37212,
			"target":34962
		},
		{
			"buffer":0,
			"byteLength":24808,
			"byteOffset":74424,
			"target":34962
		},
		{
			"buffer":0,
			"byteLength":30480,
			"byteOffset":99232,
			"target":34963
		}
	],
	"samplers":[
		{
			"magFilter":9729,
			"minFilter":9987
		}
	],
	"buffers":[
		{
			"byteLength":129712,
			"uri":"steampunkGlasses.bin"
		}
	]
}
