<?xml version="1.0" encoding="UTF-8" standalone="no"?>
<svg
   width="32"
   height="32"
   viewBox="0 0 99.999697 100.00033"
   version="1.1"
   id="svg1"
   sodipodi:docname="threeDim_classicalCurlyBeardOffIcon.svg"
   inkscape:version="1.3.2 (091e20e, 2023-11-25, custom)"
   xmlns:inkscape="http://www.inkscape.org/namespaces/inkscape"
   xmlns:sodipodi="http://sodipodi.sourceforge.net/DTD/sodipodi-0.dtd"
   xmlns:xlink="http://www.w3.org/1999/xlink"
   xmlns="http://www.w3.org/2000/svg"
   xmlns:svg="http://www.w3.org/2000/svg">
  <defs
     id="defs1">
    <linearGradient
       id="linearGradient4"
       inkscape:collect="always">
      <stop
         style="stop-color:#1485f5;stop-opacity:0.3982684;"
         offset="0"
         id="stop5" />
      <stop
         style="stop-color:#1485f5;stop-opacity:0.85281384;"
         offset="0.89902282"
         id="stop4" />
    </linearGradient>
    <linearGradient
       id="linearGradient2"
       inkscape:collect="always">
      <stop
         style="stop-color:#f5732e;stop-opacity:0.85281384;"
         offset="0.0960912"
         id="stop2" />
      <stop
         style="stop-color:#f5732e;stop-opacity:0.3982684;"
         offset="1"
         id="stop3" />
    </linearGradient>
    <linearGradient
       inkscape:collect="always"
       xlink:href="#linearGradient2"
       id="linearGradient3"
       x1="0.78093603"
       y1="50.000165"
       x2="94.53124"
       y2="50.000165"
       gradientUnits="userSpaceOnUse" />
    <linearGradient
       inkscape:collect="always"
       xlink:href="#linearGradient4"
       id="linearGradient5"
       x1="5.4684516"
       y1="46.876031"
       x2="99.218757"
       y2="46.876031"
       gradientUnits="userSpaceOnUse" />
  </defs>
  <sodipodi:namedview
     id="namedview1"
     pagecolor="#ffffff"
     bordercolor="#000000"
     borderopacity="0.25"
     inkscape:showpageshadow="2"
     inkscape:pageopacity="0.0"
     inkscape:pagecheckerboard="0"
     inkscape:deskcolor="#d1d1d1"
     inkscape:document-units="in"
     inkscape:zoom="23.873743"
     inkscape:cx="13.194412"
     inkscape:cy="12.503276"
     inkscape:window-width="1920"
     inkscape:window-height="1009"
     inkscape:window-x="-8"
     inkscape:window-y="-8"
     inkscape:window-maximized="1"
     inkscape:current-layer="svg1" />
  <path
     style="fill:url(#linearGradient5);stroke:#1485f5;stroke-width:1.87461;stroke-linecap:round;stroke-linejoin:round;stroke-dasharray:none;stroke-opacity:1"
     d="m 78.549653,14.002553 2.379771,-4.5226821 c 0.321429,-1.144768 -0.05077,-2.47281 0.437033,-3.2848608 0.634422,-0.9417543 2.484101,-1.3872552 3.298971,0 0.496264,0.7697558 0.380643,2.5996918 0.369375,3.5781018 -0.02527,2.1006211 -0.603404,2.9013911 -0.422955,4.2294411 0.380664,2.816791 1.897611,3.428658 2.529211,5.357277 l 1.440821,7.894953 c 0.874092,3.411738 2.264161,5.464427 2.605339,6.767094 l 0.7641,7.331021 c 0.445503,1.956811 1.703062,3.214367 1.739716,4.511394 0.04235,1.449287 -0.899462,2.887304 -0.735919,5.07534 l 1.017879,5.63924 0.377843,5.639247 c 0.172002,3.56118 3.194618,6.846036 3.685235,8.17691 0.437055,1.184241 0.265056,3.665508 -0.397573,4.742596 -0.273484,0.442693 -0.625949,0.755673 -1.068629,1.020698 -3.152328,1.889158 -4.04616,-1.748164 -5.884538,-1.894769 -1.1617,-0.09309 -1.342149,1.595902 -2.836557,1.920166 -1.525418,0.329895 -2.472797,-1.198356 -3.36663,-1.514136 -1.776374,-0.628789 -1.048905,2.515083 -2.859097,3.157972 -0.812044,0.290422 -1.939889,-0.248141 -2.791433,-0.363739 -1.375967,-0.191725 -2.777333,0.248143 -3.94748,0.961487 -1.480294,0.902276 -1.697406,1.641033 -2.399477,2.148564 -0.800777,0.57521 -1.970925,0.507538 -2.760416,1.457735 -0.775411,0.936119 -0.521638,1.982215 -1.485941,3.307425 -1.539533,2.111914 -5.190945,3.189002 -7.734239,3.090308 -2.12881,-0.08459 -5.357278,-0.927657 -6.245453,-3.090308 -0.30171,-0.741561 -0.214302,-1.483107 -0.231226,-2.255696 -0.04232,-2.171108 -1.767535,-2.791805 -2.558445,-3.410726 -0.790889,-0.6189 -1.126392,-1.42288 -1.953261,-1.282225 -0.826841,0.140693 -1.231852,1.379893 -2.086205,3.001178 -0.594931,1.133483 -0.391936,1.928622 -1.144774,2.701202 -1.257549,1.297024 -3.640132,0.984032 -5.236048,0.704893 -1.457732,-0.256579 -3.101582,-0.721809 -4.192753,-1.77354 -0.823347,-0.79513 -1.153245,-1.815826 -1.753821,-2.760413 C 34.022154,78.563482 30.20439,73.94493 28.36035,73.389464 27.167659,73.031368 25.721185,74.012591 23.84896,73.053919 21.954175,72.086802 17.40893,67.874265 16.103455,66.16559 L 14.882553,64.23133 C 13.960537,63.047089 11.944506,63.018884 10.430368,60.244387 8.8964911,57.43039 9.482973,54.56847 9.0374723,52.631402 8.6850203,51.094701 7.9772947,50.626627 7.5571704,48.401972 c -0.1015063,-1.015063 -0.050752,-1.810209 0,-2.819642 L 7.1314077,41.352898 C 6.9368537,39.881063 6.3193558,38.259775 6.4180426,36.841508 6.6915461,32.995524 7.5712685,32.211675 8.4086979,28.946554 l 0.4736961,-3.383546 1.849674,-7.331025 0.194553,-2.537657 c 0.124063,-1.229358 1.327772,-5.327063 1.564367,-5.8658691 0.236596,-0.538803 0.529203,-1.169096 0.967656,-1.758399 0.43845,-0.5893 2.633782,-2.4429303 2.795782,-2.138846 0.162111,0.3042917 0.784172,4.4700501 -0.01849,6.6615301 -0.802664,2.191479 2.608541,0.912766 3.665518,-0.563935 1.056977,-1.476702 1.409811,-0.54701 1.246273,0.569573 -0.954365,7.444279 0.52443,1.025845 1.525408,3.394825 0.142042,1.542996 -0.03386,2.424872 0,3.341255 -0.07889,1.147577 -0.0011,1.165587 -0.457872,3.020899 0.955859,-0.874081 1.487041,-1.464467 1.633661,-2.713567 h 0.845886 c 0.335306,1.553361 0.59288,4.293937 1.691771,0.563923 1.815836,0.107146 2.323367,0.501893 1.409811,2.255698 3.346894,-1.406983 3.544268,-0.383469 5.639256,-1.237806 l 1.973727,-1.068645 c 1.206812,-0.61185 4.98227,-2.165466 6.20318,-2.199302 1.094021,-0.03388 2.134449,-0.03103 3.095939,0.56111 1.110944,0.679522 1.421096,1.505677 2.083707,2.142911 1.57617,1.51413 3.307413,1.683308 5.252949,0.955846 -0.476511,-0.516258 -0.486256,-0.970958 0,-0.845887 l 1.127866,0.281963 c 0.721816,-1.491574 2.780156,-3.087482 4.51139,-3.124139 0.623137,-0.01406 0.110193,-0.168837 2.255699,0.586481 2.145505,0.755318 0.970304,-1.322271 2.297993,-1.801746 1.32769,-0.479474 1.816536,0.875579 3.059296,1.77919 1.24276,0.903611 6.604307,4.550316 8.192772,3.926662 1.588465,-0.623653 1.839998,-3.245198 2.12519,-4.208961 0.285192,-0.963764 0.492472,-5.844744 2.934261,-4.206537 z"
     id="path5" />
  <path
     style="fill:none;stroke:#1485f5;stroke-width:1.87461;stroke-linecap:round;stroke-linejoin:round;stroke-dasharray:none;stroke-opacity:1"
     d="m 36.285415,32.205013 c 0,0 4.436928,3.324793 13.405199,3.205263 8.968271,-0.119531 12.903702,-3.205263 12.903702,-3.205263"
     id="path311" />
  <path
     style="fill:url(#linearGradient3);stroke:#f5732e;stroke-width:1.87461;stroke-linecap:round;stroke-linejoin:round;stroke-dasharray:none;stroke-opacity:1"
     d="m 73.862137,17.126687 2.379771,-4.522682 c 0.321429,-1.144768 -0.05077,-2.47281 0.437033,-3.2848608 0.634422,-0.941754 2.484101,-1.387255 3.298971,0 0.496264,0.7697558 0.380643,2.5996918 0.369375,3.5781018 -0.02527,2.100621 -0.603404,2.901391 -0.422955,4.229441 0.380664,2.816791 1.897611,3.428658 2.529211,5.357277 l 1.440821,7.894953 c 0.874092,3.411738 2.264157,5.464427 2.605337,6.767094 l 0.7641,7.331021 c 0.44551,1.956811 1.70306,3.214367 1.73972,4.511394 0.0423,1.449287 -0.89946,2.887304 -0.73592,5.07534 l 1.01788,5.63924 0.37784,5.639247 c 0.172,3.56118 3.19462,6.846036 3.68524,8.17691 0.43705,1.184241 0.26505,3.665508 -0.39758,4.742596 -0.27348,0.442693 -0.62595,0.755673 -1.06863,1.020698 -3.15232,1.889158 -4.04616,-1.748164 -5.88453,-1.894769 -1.161704,-0.09309 -1.342153,1.595902 -2.836561,1.920166 -1.525418,0.329895 -2.472797,-1.198356 -3.36663,-1.514136 -1.776374,-0.628789 -1.048905,2.515083 -2.859097,3.157972 -0.812044,0.290422 -1.939889,-0.248141 -2.791433,-0.363739 -1.375967,-0.191725 -2.777333,0.248143 -3.94748,0.961487 -1.480294,0.902276 -1.697406,1.641033 -2.399477,2.148564 -0.800777,0.57521 -1.970925,0.507538 -2.760416,1.457735 -0.775411,0.936119 -0.521638,1.982215 -1.485941,3.307425 -1.539533,2.111914 -5.190945,3.189002 -7.734239,3.090308 -2.12881,-0.08459 -5.357278,-0.927657 -6.245453,-3.090308 -0.30171,-0.741561 -0.214302,-1.483107 -0.231226,-2.255696 -0.04232,-2.171108 -1.767535,-2.791805 -2.558445,-3.410726 -0.790889,-0.6189 -1.126392,-1.42288 -1.953261,-1.282225 -0.826841,0.140693 -1.231852,1.379893 -2.086205,3.001178 -0.594931,1.133483 -0.391936,1.928622 -1.144774,2.701202 -1.257549,1.297024 -3.640132,0.984032 -5.236048,0.704893 -1.457732,-0.256579 -3.101582,-0.721809 -4.192753,-1.77354 -0.823347,-0.79513 -1.153245,-1.815826 -1.753821,-2.760413 -1.079923,-1.700219 -4.897687,-6.318771 -6.741727,-6.874237 -1.192691,-0.358096 -2.639165,0.623127 -4.51139,-0.335545 -1.894785,-0.967117 -6.44003,-5.179654 -7.745505,-6.888329 l -1.220902,-1.93426 C 9.2730208,66.171223 7.2569901,66.143018 5.7428521,63.368521 c -1.533877,-2.813997 -0.947395,-5.675917 -1.392895,-7.612985 -0.352452,-1.536701 -1.060178,-2.004775 -1.480302,-4.22943 -0.101507,-1.015063 -0.05075,-1.810209 0,-2.819642 l -0.425763,-4.229432 c -0.194554,-1.471835 -0.812052,-3.093123 -0.713365,-4.51139 0.273503,-3.845984 1.153226,-4.629833 1.990655,-7.894954 l 0.473696,-3.383546 1.849674,-7.331025 0.194553,-2.537657 c 0.124064,-1.229358 1.327772,-5.327063 1.5643667,-5.865869 0.236596,-0.538803 0.529203,-1.169096 0.967656,-1.758399 0.43845,-0.5893 2.6337822,-2.4429298 2.7957822,-2.1388458 0.162111,0.304292 0.784172,4.4700498 -0.01849,6.6615298 -0.802664,2.191479 2.608541,0.912766 3.665518,-0.563935 1.056977,-1.476702 1.409811,-0.54701 1.246273,0.569573 -0.954365,7.444279 0.52443,1.025845 1.525408,3.394825 0.142042,1.542996 -0.03386,2.424872 0,3.341255 -0.07889,1.147577 -0.0011,1.165587 -0.457872,3.020899 0.955859,-0.874081 1.487041,-1.464467 1.633661,-2.713567 h 0.845886 c 0.335306,1.553361 0.59288,4.293937 1.691771,0.563923 1.815836,0.107146 2.323367,0.501893 1.409811,2.255698 3.346894,-1.406983 3.544268,-0.383469 5.639256,-1.237806 l 1.973727,-1.068645 c 1.206812,-0.61185 4.98227,-2.165466 6.20318,-2.199302 1.094021,-0.03388 2.134449,-0.03103 3.095939,0.56111 1.110944,0.679522 1.421096,1.505677 2.083707,2.142911 1.57617,1.51413 3.307413,1.683308 5.252949,0.955846 -0.476511,-0.516258 -0.486256,-0.970958 0,-0.845887 l 1.127866,0.281963 c 0.721816,-1.491574 2.780156,-3.087482 4.51139,-3.124139 0.623137,-0.01406 0.110193,-0.168837 2.255699,0.586481 2.145505,0.755318 0.970304,-1.322271 2.297993,-1.801746 1.32769,-0.479474 1.816536,0.875579 3.059296,1.77919 1.24276,0.903611 6.604307,4.550316 8.192772,3.926662 1.588465,-0.623653 1.839998,-3.245198 2.12519,-4.208961 0.285192,-0.963764 0.492472,-5.844744 2.934261,-4.206537 z"
     id="path3" />
  <path
     style="fill:none;stroke:#f5732e;stroke-width:1.87461;stroke-linecap:round;stroke-linejoin:round;stroke-dasharray:none;stroke-opacity:1"
     d="m 31.597899,35.329147 c 0,0 4.436928,3.324793 13.405199,3.205263 C 53.971369,38.414879 57.9068,35.329147 57.9068,35.329147"
     id="path311-6" />
</svg>
