{
  "asset": {
    "generator": "Khronos glTF Blender I/O v3.6.27",
    "version": "2.0"
  },
  "scene": 0,
  "scenes": [
    {
      "name": "Scene",
      "nodes": [0]
    }
  ],
  "nodes": [
    {
      "mesh": 0,
      "name": "toyGlasses"
    }
  ],
  "materials": [
    {
      "doubleSided": true,
      "name": "Material.001",
      "normalTexture": {
        "index": 0
      },
      "pbrMetallicRoughness": {
        "baseColorTexture": {
          "index": 1
        },
        "metallicRoughnessTexture": {
          "index": 2
        },
        "roughnessFactor": 0.5
      }
    }
  ],
  "meshes": [
    {
      "name": "Object_0",
      "primitives": [
        {
          "attributes": {
            "POSITION": 0,
            "NORMAL": 1,
            "TEXCOORD_0": 2,
            "TEXCOORD_1": 3,
            "TEXCOORD_2": 4,
            "TEXCOORD_3": 5
          },
          "indices": 6,
          "material": 0
        }
      ]
    }
  ],
  "textures": [
    {
      "sampler": 0,
      "source": 0
    },
    {
      "sampler": 0,
      "source": 1
    },
    {
      "sampler": 0,
      "source": 2
    }
  ],
  "images": [
    {
      "mimeType": "image/png",
      "name": "Material_normal",
      "uri": "texs/Material_normal.png"
    },
    {
      "mimeType": "image/png",
      "name": "Material_baseColor",
      "uri": "texs/Material_baseColor.png"
    },
    {
      "mimeType": "image/png",
      "name": "Material_metallicRoughness",
      "uri": "texs/Material_metallicRoughness.png"
    }
  ],
  "accessors": [
    {
      "bufferView": 0,
      "componentType": 5126,
      "count": 2245,
      "max": [0.8074068427085876, 0.2945750653743744, 1.8740321397781372],
      "min": [-0.8074068427085876, -0.45933663845062256, -0.82198166847229],
      "type": "VEC3"
    },
    {
      "bufferView": 1,
      "componentType": 5126,
      "count": 2245,
      "type": "VEC3"
    },
    {
      "bufferView": 2,
      "componentType": 5126,
      "count": 2245,
      "type": "VEC2"
    },
    {
      "bufferView": 3,
      "componentType": 5126,
      "count": 2245,
      "type": "VEC2"
    },
    {
      "bufferView": 4,
      "componentType": 5126,
      "count": 2245,
      "type": "VEC2"
    },
    {
      "bufferView": 5,
      "componentType": 5126,
      "count": 2245,
      "type": "VEC2"
    },
    {
      "bufferView": 6,
      "componentType": 5123,
      "count": 7470,
      "type": "SCALAR"
    }
  ],
  "bufferViews": [
    {
      "buffer": 0,
      "byteLength": 26940,
      "byteOffset": 0,
      "target": 34962
    },
    {
      "buffer": 0,
      "byteLength": 26940,
      "byteOffset": 26940,
      "target": 34962
    },
    {
      "buffer": 0,
      "byteLength": 17960,
      "byteOffset": 53880,
      "target": 34962
    },
    {
      "buffer": 0,
      "byteLength": 17960,
      "byteOffset": 71840,
      "target": 34962
    },
    {
      "buffer": 0,
      "byteLength": 17960,
      "byteOffset": 89800,
      "target": 34962
    },
    {
      "buffer": 0,
      "byteLength": 17960,
      "byteOffset": 107760,
      "target": 34962
    },
    {
      "buffer": 0,
      "byteLength": 14940,
      "byteOffset": 125720,
      "target": 34963
    }
  ],
  "samplers": [
    {
      "magFilter": 9729,
      "minFilter": 9987
    }
  ],
  "buffers": [
    {
      "byteLength": 140660,
      "uri": "toyGlasses.bin"
    }
  ]
}
