{
  "asset": {
    "generator": "Khronos glTF Blender I/O v3.6.27",
    "version": "2.0"
  },
  "scene": 0,
  "scenes": [
    {
      "name": "Scene",
      "nodes": [0]
    }
  ],
  "nodes": [
    {
      "mesh": 0,
      "name": "zombieFaceMask"
    }
  ],
  "materials": [
    {
      "emissiveFactor": [1, 1, 1],
      "emissiveTexture": {
        "index": 0
      },
      "name": "Masks4",
      "normalTexture": {
        "index": 1
      },
      "pbrMetallicRoughness": {
        "baseColorTexture": {
          "index": 2
        },
        "metallicRoughnessTexture": {
          "index": 3
        }
      }
    }
  ],
  "meshes": [
    {
      "name": "Object_8",
      "primitives": [
        {
          "attributes": {
            "POSITION": 0,
            "NORMAL": 1,
            "TEXCOORD_0": 2
          },
          "indices": 3,
          "material": 0
        }
      ]
    }
  ],
  "textures": [
    {
      "sampler": 0,
      "source": 0
    },
    {
      "sampler": 0,
      "source": 1
    },
    {
      "sampler": 0,
      "source": 2
    },
    {
      "sampler": 0,
      "source": 3
    }
  ],
  "images": [
    {
      "mimeType": "image/png",
      "name": "Masks4_emissive",
      "uri": "texs/Masks4_emissive.png"
    },
    {
      "mimeType": "image/png",
      "name": "Masks4_normal",
      "uri": "texs/Masks4_normal.png"
    },
    {
      "mimeType": "image/png",
      "name": "Masks4_baseColor",
      "uri": "texs/Masks4_baseColor.png"
    },
    {
      "mimeType": "image/png",
      "name": "Masks4_metallicRoughness",
      "uri": "texs/Masks4_metallicRoughness.png"
    }
  ],
  "accessors": [
    {
      "bufferView": 0,
      "componentType": 5126,
      "count": 1280,
      "max": [0.3032833933830261, 0.507438600063324, 0.24693726003170013],
      "min": [-0.30254918336868286, -0.47986286878585815, -0.20704394578933716],
      "type": "VEC3"
    },
    {
      "bufferView": 1,
      "componentType": 5126,
      "count": 1280,
      "type": "VEC3"
    },
    {
      "bufferView": 2,
      "componentType": 5126,
      "count": 1280,
      "type": "VEC2"
    },
    {
      "bufferView": 3,
      "componentType": 5123,
      "count": 6279,
      "type": "SCALAR"
    }
  ],
  "bufferViews": [
    {
      "buffer": 0,
      "byteLength": 15360,
      "byteOffset": 0,
      "target": 34962
    },
    {
      "buffer": 0,
      "byteLength": 15360,
      "byteOffset": 15360,
      "target": 34962
    },
    {
      "buffer": 0,
      "byteLength": 10240,
      "byteOffset": 30720,
      "target": 34962
    },
    {
      "buffer": 0,
      "byteLength": 12558,
      "byteOffset": 40960,
      "target": 34963
    }
  ],
  "samplers": [
    {
      "magFilter": 9729,
      "minFilter": 9987
    }
  ],
  "buffers": [
    {
      "byteLength": 53520,
      "uri": "zombieMask.bin"
    }
  ]
}
