<svg
  xmlns="http://www.w3.org/2000/svg"
  viewBox="0 0 100 100"
  height="1"
  width="1"
>
  <path
    d="M 83.248705,96.47342 75.86279,89.19283 c -3.836007,2.505153 -7.926447,4.42316 -12.27132,5.75402 -4.344867,1.33086 -8.86588,1.99629 -13.56304,1.99629 -6.497733,0 -12.604037,-1.233003 -18.31891,-3.69901 C 25.994644,90.778123 21.023485,87.4314 16.796044,83.20396 12.568603,78.976513 9.221879,74.005353 6.755871,68.29048 4.2898637,62.575607 3.05686,56.469303 3.05686,49.97157 c 0,-4.69716 0.6654307,-9.218173 1.996292,-13.56304 1.3308613,-4.344873 3.248867,-8.435313 5.754017,-12.27132 L 3.409147,16.73918 C 2.4697157,15.799753 2,14.68418 2,13.39246 2,12.10074 2.4697157,10.985167 3.409147,10.04574 4.3485783,9.1063067 5.464153,8.63659 6.755871,8.63659 c 1.2917187,0 2.4072937,0.4697167 3.346725,1.40915 L 89.942145,89.8974 c 0.939362,0.939505 1.40915,2.035437 1.40915,3.28801 0,1.25258 -0.469717,2.348583 -1.40915,3.28801 -0.939427,0.939433 -2.055,1.40915 -3.34672,1.40915 -1.29172,0 -2.407293,-0.469717 -3.34672,-1.40915 z M 50.02843,87.54883 c 3.366293,0 6.634733,-0.430573 9.80532,-1.29172 3.17058,-0.861147 6.243303,-2.152867 9.21817,-3.87516 L 17.618047,30.94808 c -1.722291,2.974867 -3.014009,6.04759 -3.875155,9.21817 -0.861145,3.170587 -1.291718,6.439027 -1.291718,9.80532 0,10.412033 3.659868,19.277917 10.979605,26.59765 7.319734,7.31974 16.185618,10.97961 26.597651,10.97961 z m 0,-75.15452 c -2.583433,0 -5.108157,0.25443 -7.57417,0.76329 -2.466007,0.50886 -4.873297,1.27215 -7.22187,2.28987 -1.25258,0.548 -2.505157,0.626283 -3.75773,0.23485 -1.252575,-0.391427 -2.192007,-1.135143 -2.818294,-2.23115 -0.626288,-1.096 -0.763288,-2.270287 -0.411001,-3.52286 C 28.597652,8.67573 29.36094,7.77544 30.535229,7.22744 33.588383,5.8182933 36.739393,4.7614333 39.98826,4.05686 43.237127,3.3522867 46.58385,3 50.02843,3 c 6.497733,0 12.604037,1.2330033 18.31891,3.69901 5.714873,2.4660067 10.686033,5.81273 14.91348,10.04017 4.22744,4.227447 7.574163,9.198607 10.04017,14.91348 C 95.766997,37.367533 97,43.473837 97,49.97157 c 0,3.44458 -0.352287,6.791303 -1.05686,10.04017 -0.704573,3.248867 -1.761433,6.399877 -3.17058,9.45303 -0.548,1.174293 -1.44829,1.937583 -2.70087,2.28987 -1.252573,0.352287 -2.42686,0.215283 -3.52286,-0.41101 -1.096007,-0.626287 -1.839723,-1.565717 -2.23115,-2.81829 -0.391433,-1.252573 -0.31315,-2.50515 0.23485,-3.75773 1.01772,-2.348573 1.78101,-4.755863 2.28987,-7.22187 0.50886,-2.466013 0.76329,-4.990737 0.76329,-7.57417 0,-10.412033 -3.65987,-19.277917 -10.97961,-26.59765 C 69.306347,16.05418 60.440463,12.39431 50.02843,12.39431 Z"
    style="stroke-width:0.1" 
	/>
</svg>
