<svg
  xmlns="http://www.w3.org/2000/svg"
  viewBox="0 0 100 100"
  height="1"
  width="1"
>
  <path
    d="m 60.118095,12.28198 c -2.49562,0 -4.62183,0.83882 -6.3118,2.57535 l -20.27982,19.84332 c -0.33943,1.22788 -0.65391,2.59281 -0.9603,3.8674 -0.78592,2.88374 -0.77914,2.95095 -1.43173,4.98483 l 8.46811,8.96573 c 0.39819,0.49094 0.64835,0.9667 0.61111,1.56267 -0.0373,0.59597 -0.27762,1.1157 -0.72459,1.56267 -0.44698,0.44698 -0.96671,0.67221 -1.56268,0.67221 -0.59597,0 -1.12442,-0.22523 -1.5714,-0.67221 l -7.59511,-7.7086 c -0.22349,0.89395 -0.50285,1.74717 -0.83808,2.56663 -0.33523,0.81945 -0.72285,1.6424 -1.16982,2.46186 l 6.25068,6.25942 c 0.44698,0.44698 0.67222,0.9667 0.67222,1.56267 0,0.59597 -0.22524,1.1157 -0.67222,1.56267 -0.44697,0.44698 -0.9667,0.67221 -1.56267,0.67221 -0.59597,0 -1.11569,-0.22523 -1.56267,-0.67221 l -5.7007,-5.7007 c -0.59597,0.67047 -1.16982,1.29205 -1.72854,1.85077 l -1.73727,1.72854 5.7007,5.81419 c 0.44697,0.44697 0.67221,0.9667 0.67221,1.56267 0,0.59597 -0.22524,1.1157 -0.67221,1.56267 -0.44698,0.44698 -0.96671,0.67221 -1.56268,0.67221 -0.59597,0 -1.11569,-0.22523 -1.56267,-0.67221 l -6.14593,-6.14593 c -1.56442,1.04295 -3.10846,1.93516 -4.63564,2.68012 -1.52717,0.74496 -2.92397,1.38167 -4.1904,1.90314 -1.71341,0.67046 -3.11021,1.74891 -4.19041,3.23884 -1.08019,1.48992 -1.62378,3.20507 -1.62378,5.14197 v 2.79361 c 0,2.45837 0.87708,4.56114 2.62773,6.3118 1.75066,1.75066 3.85343,2.62773 6.3118,2.62773 h 33.52325 c 15.77881,-15.66838 31.2543,-31.6369 46.83652,-47.5 L 66.429885,14.85733 c -1.71341,-1.71341 -3.81617,-2.57535 -6.31179,-2.57535 z m 0.0611,8.93953 18.9965,18.99651 -19.48539,19.96554 c -3.44613,-3.49106 -9.28694,-9.65493 -19.23221,-19.66872 z m 34.74545,22.24407 -20.00046,20.00046 6.25942,6.25942 13.74104,-13.74977 c 1.71341,-1.71341 2.57535,-3.80104 2.57535,-6.25942 0,-2.45837 -0.86194,-4.53728 -2.57535,-6.25069 z m -48.84442,15.5307 7.49035,7.49035 -12.29186,12.29186 h -29.61221 v -2.9071 c 1.04295,-0.44697 2.04341,-0.91258 3.01186,-1.3968 0.96845,-0.48422 1.97764,-0.94982 3.02058,-1.3968 l 0.89046,0.7857 c 1.9369,1.63891 4.10253,2.477 6.4864,2.51424 2.38388,0.0373 4.43252,-0.80083 6.14593,-2.51424 z"
    style="stroke-width:0.111744" 
	/>
</svg>
