<svg
  xmlns="http://www.w3.org/2000/svg"
  viewBox="0 0 100 100"
  height="1"
  width="1"
>
  <path
    d="m 50.000005,2.5 c -10.40577,0 -19.56395,3.64419 -27.47069,10.93643 -7.90675,7.29223 -11.8582,17.08156 -11.8582,29.37184 0,3.68708 0.71693,7.56236 2.1508,11.61815 1.43386,4.05579 3.52513,8.27161 6.26996,12.65514 2.74483,4.38354 6.16754,8.91622 10.2643,13.58652 4.09676,4.67031 8.80803,9.45775 14.13382,14.37386 0.90129,0.81936 1.92548,1.43387 3.07257,1.84355 1.14709,0.40967 2.29034,0.61451 3.43744,0.61451 1.14709,0 2.29034,-0.20484 3.43743,-0.61451 1.1471,-0.40968 2.17129,-1.02419 3.07257,-1.84355 5.32579,-4.91611 10.03706,-9.70355 14.13382,-14.37386 4.09676,-4.6703 7.51947,-9.20298 10.2643,-13.58652 2.74483,-4.38353 4.8361,-8.59935 6.26996,-12.65514 1.43387,-4.05579 2.1508,-7.93107 2.1508,-11.61815 0,-12.29028 -3.95145,-22.07961 -11.85819,-29.37184 C 69.563945,6.14419 60.405775,2.5 50.000005,2.5 Z m 0,9.83222 c 8.27545,0 15.25658,2.85109 20.95108,8.54558 5.69449,5.6945 8.54558,12.99953 8.54558,21.93047 0,5.81739 -2.41517,12.47463 -7.24934,19.9717 -4.83418,7.49707 -12.25123,15.83589 -22.24732,25.01263 -9.99609,-9.17674 -17.41315,-17.51556 -22.24732,-25.01263 -4.83418,-7.49707 -7.24935,-14.15431 -7.24935,-19.9717 0,-8.93094 2.85109,-16.23597 8.54558,-21.93047 5.6945,-5.69449 12.67563,-8.54558 20.95109,-8.54558 z m 0,9.83222 c -1.74113,0 -3.2006,0.58892 -4.37841,1.76673 -1.17781,1.17781 -1.76673,2.63728 -1.76673,4.37841 V 46.745 c 0,1.74113 0.58892,3.2006 1.76673,4.37841 1.17781,1.17781 2.63728,1.76673 4.37841,1.76673 1.74113,0 3.2006,-0.58892 4.37841,-1.76673 1.17781,-1.17781 1.76673,-2.63728 1.76673,-4.37841 V 28.30958 c 0,-1.74113 -0.58892,-3.2006 -1.76673,-4.37841 -1.17781,-1.17781 -2.63728,-1.76673 -4.37841,-1.76673 z m 0,36.87083 c -1.74113,0 -3.2006,0.58892 -4.37841,1.76673 -1.17781,1.17781 -1.76673,2.63728 -1.76673,4.37841 0,1.74113 0.58892,3.2006 1.76673,4.37841 1.17781,1.17781 2.63728,1.76673 4.37841,1.76673 1.74113,0 3.2006,-0.58892 4.37841,-1.76673 1.17781,-1.17781 1.76673,-2.63728 1.76673,-4.37841 0,-1.74113 -0.58892,-3.2006 -1.76673,-4.37841 -1.17781,-1.17781 -2.63728,-1.76673 -4.37841,-1.76673 z"
    style="stroke-width:0.122903" 
	/>
</svg>
