<svg
  xmlns="http://www.w3.org/2000/svg"
  viewBox="0 0 100 100"
  height="1"
  width="1"
>
  <path
    d="m 2.5,70.61932 v -2.48296 q 0,-6.36932 6.153409,-8.42045 6.153409,-2.05114 11.119318,-2.05114 4.965909,0 11.119318,2.05114 6.15341,2.05113 6.15341,8.42045 v 2.48296 z M 19.772727,53.34659 q -3.5625,0 -6.099432,-2.53693 -2.536931,-2.53693 -2.536931,-6.09943 0,-3.5625 2.536931,-6.09944 2.536932,-2.53693 6.099432,-2.53693 3.5625,0 6.099432,2.53693 2.536932,2.53694 2.536932,6.09944 0,3.5625 -2.536932,6.09943 -2.536932,2.53693 -6.099432,2.53693 z M 39.960227,59.5 q -1.295454,0 -2.267045,-0.97159 -0.971591,-0.97159 -0.971591,-2.26705 0,-0.64773 0.971591,-2.26704 0.863636,-1.07955 1.1875,-2.375 0.323863,-1.29546 0.323863,-2.59091 0,-1.29546 -0.323863,-2.53693 -0.323864,-1.24148 -1.1875,-2.32103 -0.431818,-0.53977 -0.701705,-1.13352 -0.269886,-0.59375 -0.269886,-1.24148 0,-1.40341 0.917614,-2.32102 0.917613,-0.91761 2.321022,-0.91761 0.863637,0 1.565341,0.48579 0.701705,0.4858 1.241477,1.13352 1.40341,1.94319 2.159091,4.21023 0.755682,2.26705 0.755682,4.64205 0,2.375 -0.755682,4.58807 -0.755681,2.21306 -2.159091,4.2642 -0.539772,0.64773 -1.241477,1.13352 Q 40.823864,59.5 39.960227,59.5 Z m 9.176137,9.28409 q -1.403409,0 -2.375,-0.91761 -0.971591,-0.91762 -0.971591,-2.32103 0,-0.64772 0.269886,-1.24147 0.269886,-0.59375 0.701705,-1.13353 2.698863,-3.02272 4.048295,-6.69318 1.349432,-3.67045 1.349432,-7.44886 0,-3.77841 -1.349432,-7.39489 -1.349432,-3.61648 -4.048295,-6.6392 -0.431819,-0.53978 -0.701705,-1.07955 -0.269886,-0.53977 -0.269886,-1.1875 0,-1.40341 0.917613,-2.375 0.917614,-0.97159 2.321023,-0.97159 0.755682,0 1.403409,0.32386 0.647727,0.32387 1.1875,0.86364 3.5625,3.99432 5.289773,8.74432 1.727273,4.75 1.727273,9.71591 0,4.96591 -1.78125,9.76988 -1.78125,4.80398 -5.235796,8.7983 -0.539773,0.53977 -1.133523,0.86364 -0.59375,0.32386 -1.349431,0.32386 z m 13.818186,1.83523 v -2.48296 q 0,-6.36932 6.1534,-8.42045 6.15341,-2.05114 11.11932,-2.05114 4.96591,0 11.11932,2.05114 Q 97.5,61.76704 97.5,68.13636 v 2.48296 z M 80.22727,53.34659 q -3.5625,0 -6.09943,-2.53693 -2.53693,-2.53693 -2.53693,-6.09943 0,-3.5625 2.53693,-6.09944 2.53693,-2.53693 6.09943,-2.53693 3.5625,0 6.09943,2.53693 2.53694,2.53694 2.53694,6.09944 0,3.5625 -2.53694,6.09943 -2.53693,2.53693 -6.09943,2.53693 z"
    style="stroke-width:0.107955" 
	/>
</svg>
