<svg
  xmlns="http://www.w3.org/2000/svg"
  viewBox="0 0 100 100"
  height="1"
  width="1"
>
  <path
    d="m 51.979167,49.802085 q 2.869791,-3.16667 4.403645,-7.22396 1.533855,-4.05729 1.533855,-8.41146 0,-4.35416 -1.533855,-8.41145 -1.533854,-4.0573 -4.403645,-7.22396 5.9375,0.79166 9.895833,5.24479 3.958333,4.45312 3.958333,10.39062 0,5.9375 -3.958333,10.39063 -3.958333,4.45312 -9.895833,5.24479 z m 19.59375,31.86458 q 1.088541,-1.78125 1.632812,-3.80989 Q 73.75,75.828125 73.75,73.750005 v -3.95834 q 0,-3.5625 -1.583333,-6.77864 -1.583334,-3.21615 -4.15625,-5.69011 5.046875,1.78125 9.351562,4.60157 4.304688,2.82031 4.304688,7.86718 v 3.95834 q 0,3.26562 -2.325521,5.59114 -2.325521,2.32552 -5.591146,2.32552 z m 21.96875,-35.625 H 77.708333 q -1.682291,0 -2.820312,-1.13802 Q 73.75,43.765625 73.75,42.083335 q 0,-1.68229 1.138021,-2.82031 1.138021,-1.13802 2.820312,-1.13802 h 15.833334 q 1.682291,0 2.820312,1.13802 1.138021,1.13802 1.138021,2.82031 0,1.68229 -1.138021,2.82031 -1.138021,1.13802 -2.820312,1.13802 z m -59.375,3.95834 q -6.53125,0 -11.182292,-4.65104 -4.651042,-4.65105 -4.651042,-11.1823 0,-6.53125 4.651042,-11.18229 4.651042,-4.65104 11.182292,-4.65104 6.53125,0 11.182291,4.65104 Q 50,27.635415 50,34.166665 q 0,6.53125 -4.651042,11.1823 -4.651041,4.65104 -11.182291,4.65104 z M 2.5,73.750005 v -3.16667 q 0,-3.36458 1.7317708,-6.1849 1.7317709,-2.82031 4.6015625,-4.30468 6.1354167,-3.06771 12.4687497,-4.60157 6.333334,-1.53385 12.864584,-1.53385 6.53125,0 12.864583,1.53385 6.333333,1.53386 12.46875,4.60157 2.869792,1.48437 4.601562,4.30468 1.731771,2.82032 1.731771,6.1849 v 3.16667 q 0,3.26562 -2.325521,5.59114 -2.32552,2.32552 -5.591145,2.32552 h -47.5 q -3.2656253,0 -5.5911462,-2.32552 Q 2.5,77.015625 2.5,73.750005 Z m 31.666667,-31.66667 q 3.265625,0 5.591145,-2.32552 2.325521,-2.32552 2.325521,-5.59115 0,-3.26562 -2.325521,-5.59114 -2.32552,-2.32552 -5.591145,-2.32552 -3.265625,0 -5.591146,2.32552 -2.325521,2.32552 -2.325521,5.59114 0,3.26563 2.325521,5.59115 2.325521,2.32552 5.591146,2.32552 z m -23.75,31.66667 h 47.5 v -3.16667 q 0,-1.08854 -0.544271,-1.97917 -0.544271,-0.89062 -1.434896,-1.38541 -5.34375,-2.67188 -10.786458,-4.00782 -5.442709,-1.33593 -10.984375,-1.33593 -5.541667,0 -10.984375,1.33593 -5.442709,1.33594 -10.786459,4.00782 -0.890625,0.49479 -1.434896,1.38541 -0.54427,0.89063 -0.54427,1.97917 z m 23.75,-39.58334 z m 0,39.58334 z"
    style="stroke-width:0.0989583" 
	/>
</svg>
