<svg
  xmlns="http://www.w3.org/2000/svg"
  viewBox="0 0 100 100"
  height="1"
  width="1"
>
  <path
    d="m 67.59232,54.509943 -9.090901,-9.090909 h 9.886359 q 1.931821,0 3.18182,1.30682 1.250001,1.30682 1.250001,3.23864 0,1.93181 -1.30682,3.23863 -1.30682,1.30682 -3.238641,1.30682 z M 41.796872,45.419034 v 9.090909 h -9.886364 q -1.931818,0 -3.238636,-1.30682 -1.306818,-1.306819 -1.306818,-3.238629 0,-1.93182 1.306818,-3.23864 1.306818,-1.30682 3.238636,-1.30682 z m 8.295453,49.999998 q -9.431818,0 -17.727272,-3.57954 -8.295454,-3.57955 -14.431817,-9.71591 -6.136364,-6.13637 -9.715909,-14.431819 -3.5795445,-8.295459 -3.5795445,-17.727269 0,-7.045459 1.931818,-13.352279 Q 8.501417,30.305396 12.137781,24.850857 L 1.9105095,14.509947 q -1.363636,-1.36364 -1.363636,-3.23864 0,-1.8749998 1.363636,-3.2386297 1.363637,-1.3636398 3.238637,-1.3636398 1.875,0 3.2386355,1.3636398 L 91.910506,91.555391 q 1.36364,1.363641 1.36364,3.238641 0,1.875 -1.36364,3.23864 -1.36364,1.363631 -3.23864,1.363631 -1.875,0 -3.23864,-1.363631 L 75.20596,87.919032 q -5.454541,3.636359 -11.761359,5.568179 -6.306821,1.931821 -13.352276,1.931821 z m 0,-9.090909 q 5.113635,0 9.715905,-1.36363 4.602279,-1.36364 8.693188,-3.75 L 18.842327,31.555395 q -2.386363,4.090909 -3.75,8.69319 -1.363637,4.602269 -1.363637,9.715909 0,15.11363 10.625,25.738628 10.625,10.625001 25.738635,10.625001 z m -6.363636,-30 z M 59.0696,40.987215 Z M 31.228689,8.6008572 q 4.431818,-2.0454597 9.204546,-3.0681797 4.772726,-1.02273 9.65909,-1.02273 9.090904,0 17.386364,3.4090898 8.29545,3.4090897 14.772728,9.8863587 6.47727,6.47728 9.886359,14.77273 3.4091,8.295458 3.4091,17.386368 0,4.886359 -1.02273,9.659089 -1.022729,4.772721 -3.06819,9.204541 -0.79545,1.70455 -2.61364,2.21591 -1.81818,0.511359 -3.40909,-0.39773 -1.59091,-0.90909 -2.15909,-2.727271 -0.56818,-1.81818 0.22728,-3.636359 1.47727,-3.40909 2.2159,-7.045461 0.73864,-3.636359 0.73864,-7.272719 0,-15.22728 -10.568178,-25.795458 Q 65.3196,13.600857 50.092325,13.600857 q -3.636363,0 -7.272728,0.73864 -3.636362,0.738629 -7.045453,2.2159 -1.818182,0.79546 -3.636364,0.22728 -1.818182,-0.568181 -2.727273,-2.15909 -0.90909,-1.59091 -0.397726,-3.40909 0.511363,-1.8181898 2.215908,-2.6136398 z"
    style="stroke-width:0.113636"
  />
</svg>
