<svg
  viewBox="0 0 100 100"
  height="1"
  width="1"
  xmlns="http://www.w3.org/2000/svg"
>
  <path
    d="m 31.81,54.485 h 36.28 q 1.927375,0 3.231183,-1.303817 Q 72.625,51.877375 72.625,49.95 q 0,-1.927375 -1.303817,-3.231192 Q 70.017375,45.415 68.09,45.415 H 31.81 q -1.927375,0 -3.231192,1.303808 Q 27.275,48.022625 27.275,49.95 q 0,1.927375 1.303808,3.231183 Q 29.882625,54.485 31.81,54.485 Z M 49.95,95.3 Q 40.539875,95.3 32.2635,91.728683 23.987125,88.157375 17.864875,82.035125 11.742625,75.912875 8.1713125,67.6365 4.6,59.360125 4.6,49.95 4.6,40.539875 8.1713125,32.2635 11.742625,23.987125 17.864875,17.864875 23.987125,11.742625 32.2635,8.1713077 40.539875,4.6 49.95,4.6 q 9.410125,0 17.6865,3.5713077 8.276375,3.5713173 14.398625,9.6935673 6.12225,6.12225 9.693558,14.398625 Q 95.3,40.539875 95.3,49.95 q 0,9.410125 -3.571317,17.6865 -3.571308,8.276375 -9.693558,14.398625 -6.12225,6.12225 -14.398625,9.693558 Q 59.360125,95.3 49.95,95.3 Z m 0,-9.07 q 15.19225,0 25.736125,-10.543875 Q 86.23,65.14225 86.23,49.95 86.23,34.75775 75.686125,24.213875 65.14225,13.67 49.95,13.67 34.75775,13.67 24.213875,24.213875 13.67,34.75775 13.67,49.95 13.67,65.14225 24.213875,75.686125 34.75775,86.23 49.95,86.23 Z m 0,-36.28 z"
    style="stroke-width:0.113375"
	/>
</svg>
