<svg
  xmlns="http://www.w3.org/2000/svg"
  viewBox="0 0 100 100"
  height="1"
  width="1"
>
  <path
    d="m 19.36684,69.84334 9.30157,9.30157 q 1.36423,1.36423 1.36423,3.41057 0,2.04635 -1.36423,3.5346 -1.48825,1.48825 -3.5346,1.48825 -2.04634,0 -3.53459,-1.48825 L 3.86423,68.35509 Q 3.120104,67.61097 2.810052,66.74282 2.5,65.87467 2.5,64.88251 2.5,63.89034 2.810052,63.02219 3.120104,62.15405 3.86423,61.40992 L 21.72324,43.55091 q 1.48825,-1.48825 3.47258,-1.42624 1.98434,0.062 3.47259,1.55026 1.36423,1.48825 1.42624,3.47259 0.062,1.98433 -1.42624,3.47258 l -9.30157,9.30157 H 50 q 2.10836,0 3.5346,1.42624 1.42624,1.42624 1.42624,3.5346 0,2.10835 -1.42624,3.53459 Q 52.10836,69.84334 50,69.84334 Z M 80.63316,40.07833 H 50 q -2.10836,0 -3.5346,-1.42624 -1.42624,-1.42624 -1.42624,-3.5346 0,-2.10835 1.42624,-3.53459 Q 47.89164,30.15666 50,30.15666 h 30.63316 l -9.30157,-9.30157 q -1.36423,-1.36423 -1.36423,-3.41057 0,-2.04635 1.36423,-3.5346 1.48825,-1.48825 3.5346,-1.48825 2.04634,0 3.53459,1.48825 l 17.73499,17.73499 q 0.74413,0.74412 1.05418,1.61227 0.31005,0.86815 0.31005,1.86031 0,0.99217 -0.31005,1.86032 -0.31005,0.86814 -1.05418,1.61227 L 78.27676,56.44909 q -1.48825,1.48825 -3.47258,1.42624 -1.98434,-0.062 -3.47259,-1.55027 -1.36423,-1.48825 -1.42624,-3.47258 -0.062,-1.98433 1.42624,-3.47259 z"
    style="stroke-width:0.124021" 
	/>
</svg>
