<svg
  xmlns="http://www.w3.org/2000/svg"
  viewBox="0 0 100 100"
  height="1"
  width="1"
>
  <path
    d="m 18.546553,24.546141 c -1.373499,0 -2.498478,0.523905 -3.375986,1.554025 -0.877508,1.03012 -1.242216,2.234705 -1.089604,3.608196 l 4.912148,36.046237 H 8.8115684 c -1.5261029,0 -2.7306809,0.618944 -3.6081959,1.839824 -0.616526,0.857778 -0.841793,1.764421 -0.910981,2.840114 -0.06919,1.075693 0.143999,2.162094 0.875256,3.179499 0.877514,1.220879 2.082093,1.839823 3.6081959,1.839823 h 10.1815426 62.161003 10.07437 c 1.526102,0 2.712826,-0.618944 3.590333,-1.839823 0.627914,-0.873615 0.87318,-1.710887 0.928839,-2.786528 0.05566,-1.075639 -0.172951,-2.231119 -0.893114,-3.233085 -0.877509,-1.22088 -2.064232,-1.839824 -3.590334,-1.839824 H 81.154114 l 4.804973,-36.046236 c 0.152612,-1.373491 -0.212094,-2.578076 -1.089603,-3.608196 -0.877514,-1.03012 -2.002494,-1.554025 -3.375985,-1.554025 -1.144577,0 -2.159093,0.364707 -3.036601,1.089604 -0.877516,0.724903 -1.383558,1.659813 -1.536163,2.80439 L 74.402142,47.445683 H 25.637908 L 23.119316,28.440135 c -0.152612,-1.144576 -0.676517,-2.079487 -1.554025,-2.804389 -0.877509,-0.724898 -1.874162,-1.089605 -3.018738,-1.089605 z m 8.341721,32.045069 h 46.245642 l -1.143191,9.163389 H 28.1565 Z" 
    style="stroke-width:0.114458"
	/>
</svg>
