<svg
  xmlns="http://www.w3.org/2000/svg"
  viewBox="0 0 100 100"
  height="1"
  width="1"
>
  <path
    d="m 13.49951,35.732705 h 73.00098 l -4.0424,-14.26729 H 17.6608 Z M 50,28.599065 Z m 22.82767,16.64517 H 27.29122 l -1.30783,9.51153 h 48.03322 z m -60.16042,37.45165 5.11244,-37.45165 H 7.1981205 q -2.37788,0 -3.74517,-1.9023 -1.36728,-1.90231 -0.77281,-4.1613 l 6.77697,-23.77882 q 0.47557,-1.54562 1.6645095,-2.49678 1.18894,-0.95115 2.85346,-0.95115 h 72.04984 q 1.66451,0 2.85345,0.95115 1.18894,0.95116 1.66452,2.49678 l 6.77697,23.77882 q 0.59447,2.25899 -0.77282,4.1613 -1.36728,1.9023 -3.74516,1.9023 H 82.3392 l 4.99355,37.45165 q 0.23779,2.14009 -1.12949,3.74516 -1.36729,1.60507 -3.50738,1.60507 -1.78341,0 -3.15069,-1.12949 -1.36729,-1.1295 -1.60507,-2.91291 L 75.32444,64.267295 H 24.67555 l -2.61567,19.73642 q -0.23779,1.78341 -1.60507,2.91291 -1.36728,1.12949 -3.15069,1.12949 -2.1401,0 -3.50738,-1.60507 -1.36728,-1.60507 -1.12949,-3.74516 z"
    style="stroke-width:0.118894" 
  />
</svg>
