<svg
  xmlns="http://www.w3.org/2000/svg"
  viewBox="0 0 100 100"
  height="1"
  width="1"
>
  <path
    d="m 50,60.55556 c -5.805553,0 -10.77546,-2.06713 -14.90972,-6.20139 -4.13426,-4.13426 -6.20139,-9.10417 -6.20139,-14.90973 0,-5.805553 2.06713,-10.77546 6.20139,-14.90972 4.13426,-4.13426 9.104167,-6.20139 14.90972,-6.20139 5.805553,0 10.77546,2.06713 14.90972,6.20139 4.13426,4.13426 6.20139,9.104167 6.20139,14.90972 0,5.80556 -2.06713,10.77547 -6.20139,14.90973 C 60.77546,58.48843 55.805553,60.55556 50,60.55556 Z M 50,50 c 2.90278,0 5.387733,-1.033563 7.45486,-3.10069 2.067133,-2.067133 3.1007,-4.55209 3.1007,-7.45487 0,-2.902773 -1.033567,-5.387727 -3.1007,-7.45486 C 55.387733,29.922453 52.90278,28.88889 50,28.88889 c -2.90278,0 -5.387733,1.033563 -7.45486,3.10069 -2.067133,2.067133 -3.1007,4.552087 -3.1007,7.45486 0,2.90278 1.033567,5.387737 3.1007,7.45487 C 44.612267,48.966437 47.09722,50 50,50 Z M 7.77778,92.22222 v -4.09028 c 0,-2.99074 0.7476833,-5.761573 2.24305,-8.3125 1.495373,-2.55092 3.562503,-4.486103 6.20139,-5.80555 4.486113,-2.28704 9.565977,-4.222227 15.23959,-5.80556 5.673607,-1.583333 11.853003,-2.375 18.53819,-2.375 6.685187,0 12.864583,0.791667 18.53819,2.375 5.673613,1.583333 10.753477,3.51852 15.23959,5.80556 2.638887,1.319447 4.706017,3.25463 6.20139,5.80555 1.495367,2.550927 2.24305,5.32176 2.24305,8.3125 v 4.09028 c 0,1.495373 -0.505787,2.748847 -1.51736,3.76042 C 89.693287,96.994213 88.439813,97.5 86.94444,97.5 H 13.05556 C 11.560187,97.5 10.306713,96.994213 9.29514,95.98264 8.2835667,94.971067 7.77778,93.717593 7.77778,92.22222 Z m 10.6875,-5.27778 h 63.06944 c -0.175927,-0.791667 -0.483797,-1.473377 -0.92361,-2.04513 -0.439813,-0.57176 -1.011573,-1.033567 -1.71528,-1.38542 -3.166667,-1.583333 -7.19097,-3.166667 -12.07291,-4.75 -4.881947,-1.583333 -10.489587,-2.375 -16.82292,-2.375 -6.333333,0 -11.940973,0.791667 -16.82292,2.375 -4.88194,1.583333 -8.906243,3.166667 -12.07291,4.75 -0.703707,0.351853 -1.275467,0.83565 -1.71528,1.45139 -0.439813,0.61574 -0.747683,1.27546 -0.92361,1.97916 z"
    style="stroke-width:0.131944" 
  />
</svg>
