<svg
  xmlns="http://www.w3.org/2000/svg"
  viewBox="0 0 100 100"
  height="1"
  width="1"
>
  <path
    d="m 14.972346,50.000388 h 27.883862 c -4.47668,-2.580524 -8.317717,-6.275515 -8.317717,-14.289052 0,-8.013529 7.26432,-14.366243 13.98303,-14.839758 -0.180814,-2.724985 -2.092302,-3.98349 -4.158683,-4.637401 -1.388636,-0.439434 -2.231199,-1.224537 -2.975504,-2.207505 -1.767224,-2.333873 -1.62826,-4.3833247 -1.728788,-5.9270777 2.516384,0.120413 3.929586,0.102843 6.318242,2.0639937 0.889086,0.729968 2.041007,2.433873 2.25731,3.878089 0.14238,0.950644 0.440798,2.174465 0.751654,3.416535 0.165062,0.659533 -3.035042,3.253159 0.667827,3.399216 4.664337,0.183982 1.127432,-0.03149 1.981006,0.102128 1.342917,-4.141143 3.334211,-7.156336 5.928403,-10.250784 -2.595042,3.139855 -4.275642,3.813992 -6.818563,10.224443 8.345164,0.632718 14.491124,6.754122 14.491124,15.531791 0,8.77767 -6.104669,12.029379 -8.082716,13.535382 h 27.87482"
    style="fill:none;stroke-width:5.99922;stroke-linecap:round;stroke-linejoin:round"
	/>
</svg>
