<svg
  xmlns="http://www.w3.org/2000/svg"
  viewBox="0 0 100 100"
  height="1"
  width="1"
>
  <path
    d="m 14.981499,50.018509 h 30.419555 c -4.704212,-1.573992 -8.902261,-6.256798 -8.902261,-12.990478 0,-6.73368 6.351205,-12.73154 12.96409,-12.73154 1.177807,0 0.550642,0.0528 2.134838,-0.0387 1.620664,-2.728345 1.158329,-2.25774 2.531533,-4.280285 0.77629,0.465789 2.011334,1.218847 3.921853,2.327264 1.824914,-2.708885 1.87197,-3.207967 3.748938,-3.940856 1.876968,-0.732888 3.28232,0.342576 5.117534,1.335371 -1.101217,-0.606248 -3.537362,-2.111307 -5.153529,-1.33122 -1.616167,0.780087 -2.146268,1.337637 -3.712308,3.942199 1.714183,0.909675 4.657076,2.734815 4.776859,2.817388 -1.180546,2.074374 -1.066212,2.018254 -2.467673,4.263292 1.536956,2.740331 2.675349,3.496579 2.675349,9.240448 0,5.743869 -4.255367,8.975616 -8.445146,11.387115 h 30.427374"
    style="fill:none;stroke-width:5.96299;stroke-linecap:round;stroke-linejoin:round"
 	/>
</svg>
