<svg
  xmlns="http://www.w3.org/2000/svg"
  viewBox="0 0 100 100"
  height="1"
  width="1"
>
  <path
    d="m 14.160871,49.890659 c 0,0 20.307218,0.09885 29.772127,0.09885 -3.68393,0.106027 -6.986389,-1.968148 -8.11849,-5.616227 -1.651245,-5.10107 2.738245,-7.892286 4.442177,-9.846861 1.703931,-1.954575 1.777227,-2.131913 1.637197,-2.448079 -3.554889,-4.885379 -6.947268,-13.094564 -6.35436,-20.136291 0.166664,-2.6386345 1.108352,-3.7365455 3.058523,-3.1951229 1.950168,0.5414305 4.27135,2.4771849 6.733056,7.4883109 2.461708,5.011129 3.888994,13.093202 3.888994,13.093202 0,0 1.427287,-8.079889 3.888992,-13.091027 2.461707,-5.011127 4.782888,-6.946871 6.733058,-7.4883016 1.950169,-0.5414315 2.891857,0.5564895 3.058522,3.1951226 0.592908,7.041718 -2.799472,15.250912 -6.354361,20.136284 -0.09278,0.209491 -0.09192,0.358024 0.414876,1.002952 0.0448,0.05698 0.09356,0.117917 0.146555,0.183069 0.252285,0.310191 0.600631,0.717034 1.075767,1.262057 1.703932,1.954574 6.093422,4.745799 4.442176,9.84687 -1.132101,3.648079 -4.434559,5.722246 -8.118489,5.616226 9.464909,0 29.739778,-0.09885 29.739778,-0.09885" 
    style="fill:none;stroke-width:5.96922;stroke-linecap:round;stroke-linejoin:round"
	/>
</svg>
