<svg
  xmlns="http://www.w3.org/2000/svg"
  viewBox="0 0 100 100"
  height="1"
  width="1"
>
  <path
    d="m 85.08904,47.544461 h -8.831768 c -4.707361,5.102857 -7.997389,1.023752 -11.515097,-2.49612 3.925565,3.92798 6.853897,7.278337 11.150436,2.885468 0.796057,-2.940822 -0.329082,-5.720149 -0.566571,-8.829736 -0.767829,-4.774807 -1.41176,-9.366391 -1.875858,-13.17926 -0.529904,-4.353495 -0.862707,-6.80759 -3.729239,-8.990543 -2.25518,-1.617202 -2.453539,-1.820536 -10.251811,-1.820536 -10.376773,0 -4.596029,-0.01288 -9.469137,-0.01288 -4.873106,3e-6 0.907636,0.01288 -9.469135,0.01288 -7.798268,0 -7.996628,0.203335 -10.251807,1.820545 -2.866531,2.182964 -3.199335,4.637072 -3.729237,8.990587 -0.464098,3.812889 -1.108029,8.404495 -1.875859,13.179327 -0.237489,3.109602 -1.362627,5.888943 -0.56657,8.829779 4.296538,4.392892 7.224869,1.042518 11.150432,-2.885483 -3.517706,3.51989 -6.807733,7.599016 -11.515093,2.496133 h -8.831769" 
    style="fill:none;stroke-width:6.00171;stroke-linecap:round;stroke-linejoin:round"
	/>
  <path
    d="M 34.722299,28.204159 H 44.907432"
    style="fill:none;stroke-width:6.00171;stroke-linecap:round;stroke-linejoin:round"
	/>
  <path
    d="M 39.814866,23.108431 V 33.299886"
    style="fill:none;stroke-width:6.00171;stroke-linecap:round;stroke-linejoin:round"
	/>
  <path
    d="M 58.728454,23.837179 H 58.728455"
    style="fill:none;stroke-width:6.00171;stroke-linecap:round;stroke-linejoin:round"
	/>
  <path
    d="M 64.525267,32.567831 H 64.525268"
    style="fill:none;stroke-width:6.00171;stroke-linecap:round;stroke-linejoin:round"
	/>
</svg>
