<svg
  xmlns="http://www.w3.org/2000/svg"
  viewBox="0 0 100 100"
  height="1"
  width="1"
>
  <path
    d="m 14.512627,50.002863 20.227274,0.01386 c 0,-10.251428 7.851616,-15.14323 15.373535,-15.14323 7.521919,0 14.93119,6.064798 14.904324,14.833596 -0.02687,8.768798 -4.066915,12.025164 -7.030141,14.539972 -2.963226,2.514808 -5.181653,4.347434 -6.005896,5.799148 -0.450952,0.794249 -1.581799,3.40625 -2.583663,5.93302 -1.001864,2.52677 -2.740484,4.052004 -6.706633,4.287867 -3.96615,0.235864 -8.238498,-2.897437 -7.975995,-7.615607 -0.254973,4.728443 4.126523,7.825939 8.023376,7.675016 1.306363,-0.0506 5.466422,-0.876289 6.623802,-4.368068 0.638317,-1.925783 1.755728,-4.545802 2.695402,-5.926442 0.478663,-0.703288 3.046512,-3.670145 5.946899,-5.809779 1.458564,-1.075992 4.434793,-4.128014 5.74567,-7.39231 1.310876,-3.264296 1.273907,-4.645011 1.534773,-6.813183 h 20.202019"
    style="fill:none;stroke-width:6;stroke-linecap:round;stroke-linejoin:round"
	/>
  <path
    d="m 46.064478,50.153432 c 0,-1.875335 1.174425,-3.858229 3.776411,-3.858229 2.601987,0 3.807274,1.985101 3.807274,3.858229 0,1.873128 -1.685019,3.651365 -3.807274,3.651365 -2.122255,0 -3.776411,-1.77603 -3.776411,-3.651365 z"
    style="fill:none;stroke-width:5.9904;stroke-linecap:round;stroke-linejoin:round"
	/>
</svg>
