<svg
  xmlns="http://www.w3.org/2000/svg"
  viewBox="0 0 100 100"
  height="1"
  width="1"
>
  <path
    d="m 14.996628,50.003354 h 27.146009 c -0.137158,-1.344391 0.153277,0.661724 0.03024,-1.450922 -5.599659,-6.606237 -6.965684,-7.522802 -8.9179,-9.915142 1.984434,2.384771 5.556436,6.567281 8.94535,9.958679 0,-4.313645 0.01867,-3.13324 0.01867,-6.045114 0.595599,-0.933566 0.580382,-1.373031 0.149635,-2.675622 -0.666736,-2.016236 -1.844036,-5.032127 -2.375451,-6.803204 0.77108,2.393828 1.556276,4.701696 2.741682,7.767143 2.170235,0 3.112301,0.04046 5.087878,0.04046 0,-2.718744 -0.0058,-7.321399 -0.0058,-9.008315 0,1.723692 0.03914,6.930172 0.03914,8.981622 2.214161,0 3.215313,-0.02398 5.341628,-0.02398 0.556196,-2.223055 1.174575,-5.157869 1.592211,-6.717647 -0.413185,1.543162 -1.051562,4.792927 -1.579467,6.764533 1.473699,0 2.025125,-0.226863 4.07607,0.284289 0.738749,1.721909 2.57753,-2.651686 2.85346,-3.682249 -0.315504,1.178342 -1.245893,3.028068 -2.257888,6.123104 0,4.621586 -0.04467,1.501511 -0.04467,6.402385 h 27.165947"
    style="fill:none;stroke-width:6;stroke-linecap:round;stroke-linejoin:round"
	/>
  <path
    d="M 30.188199,32.72339 28.933206,29.449316"
    style="fill:none;stroke-width:6;stroke-linecap:round;stroke-linejoin:round"
	/>
  <path
    d="M 39.169404,26.342277 38.652581,21.828993"
    style="fill:none;stroke-width:6;stroke-linecap:round;stroke-linejoin:round"
	/>
  <path
    d="M 38.12926,15.060814 37.749116,11.71758"
    style="fill:none;stroke-width:6;stroke-linecap:round;stroke-linejoin:round"
	/>
  <path
    d="M 47.8,14.011921 V 9.4966254"
    style="fill:none;stroke-width:6;stroke-linecap:round;stroke-linejoin:round"
	/>
  <path
    d="M 47.8,25.188061 V 20.676522"
    style="fill:none;stroke-width:6;stroke-linecap:round;stroke-linejoin:round"
	/>
  <path
    d="m 55.779935,27.549215 0.490542,-4.628529"
    style="fill:none;stroke-width:6;stroke-linecap:round;stroke-linejoin:round"
	/>
  <path
    d="m 56.865197,16.399504 0.320756,-3.31345"
    style="fill:none;stroke-width:6;stroke-linecap:round;stroke-linejoin:round"
	/>
  <path
    d="m 61.803917,31.117313 0.513139,-2.128177"
    style="fill:none;stroke-width:6;stroke-linecap:round;stroke-linejoin:round"
	/>
  <path
    d="M 64.097721,22.719039 64.9,19.392436"
    style="fill:none;stroke-width:6;stroke-linecap:round;stroke-linejoin:round"
	/>
</svg>
