<svg
  xmlns="http://www.w3.org/2000/svg"
  viewBox="0 0 100 100"
  height="1"
  width="1"
>
  <path
    d="m 39.973761,14.50815 32.8963,-0.01178 m -58.53057,35.507256 h 20.89871 c 0,-5.165319 0.0063,-5.150288 0.0063,-9.705639 0,-1.853544 -0.208897,-4.86022 1.254833,-8.660173 1.463731,-3.799963 5.182556,-7.250097 7.903516,-8.459295 2.72097,-1.2092 4.489527,-1.745849 9.66936,-1.636238 0,5.159817 0.03333,10.896827 0.03333,18.89028 -6.659741,0 -14.273882,-0.04092 -18.815714,-0.04092 4.475493,-0.05691 8.593613,0.02113 18.823031,0.02113 0,-10.053037 -0.02009,-14.491403 -0.02009,-18.866318 4.108681,0 5.454229,-0.03566 9.386682,-0.03566 0,3.490844 3.48e-4,6.169455 3.48e-4,11.798444 3.841644,0 12.042785,0.01567 15.691099,0.01567 3.022032,-4.736168 0.01619,-0.06028 3.049121,-4.775205 0,3.036077 0.04941,7.466964 0.04941,12.046057 -9.960635,0.990788 -7.25946,0.745983 -18.806662,1.901533 0,3.201356 -0.01471,2.130927 -0.01471,7.506244 h 20.8987"
    style="fill:none;stroke-width:5.99274;stroke-linecap:round;stroke-linejoin:round"
  />
</svg>
