<svg
  xmlns="http://www.w3.org/2000/svg"
  viewBox="0 0 100 100"
  height="1"
  width="1"
>
  <path
    d="m 50.030719,13.005367 c -1.499262,0 -2.311784,-1.275037 -2.311784,-2.311413 0,-1.036368 0.733546,-2.3114061 2.311784,-2.3114061 1.578239,0 2.311785,1.3419557 2.311785,2.3114061 0,0.969457 -0.812521,2.311413 -2.311785,2.311413 z M 14.98255,49.987948 h 32.736385 c 0,-7.65097 0.01,-12.520495 0.01,-16.208814 -2.741147,0 -1.338393,0.03191 -4.650891,0.03191 0,-2.301697 0.04503,-9.994529 0.04503,-13.901021 4.632737,0.04379 9.731586,0.03001 13.815278,0.02956 0,3.906499 0.04503,11.59933 0.04503,13.901029 -3.312498,0 -1.909745,-0.03196 -4.650891,-0.03196 0,3.688317 0.01,8.557842 0.01,16.208814 l 32.674959,-0.0093" 
    style="fill:none;stroke-width:5.9651;stroke-linecap:round;stroke-linejoin:round"
  />
</svg>
