<svg
  xmlns="http://www.w3.org/2000/svg"
  viewBox="0 0 100 100"
  height="1"
  width="1"
>
  <path
    d="M 85.004369,50.004388 H 54.867162 c 6.810236,-1.98549 9.875617,-7.35106 11.004203,-9.825008 1.128586,-2.473943 1.3499,-5.110022 1.3499,-8.304436 V 11.895623 H 50.000001 32.778737 v 19.979316 c 0,3.194413 0.221316,5.830492 1.349902,8.304441 1.128586,2.473943 4.193967,7.839513 11.004203,9.825003 H 14.99563" 
    style="fill:none;stroke-width:5.99123;stroke-linecap:round;stroke-linejoin:round"
  />
  <path
    d="m 45.264155,24.083805 h -3.444253 c 0.959957,-1.089616 0.963015,-1.419345 1.722127,-1.419345 0.759109,0 0.755066,0.335731 1.722126,1.419345 z"
    style="fill:none;stroke-width:5.99123;stroke-linecap:round;stroke-linejoin:round"
	/>
  <path
    d="m 58.179841,24.083805 h -3.444253 c 0.959957,-1.089616 0.963015,-1.419345 1.722126,-1.419345 0.759111,0 0.755067,0.335731 1.722127,1.419345 z"
    style="fill:none;stroke-width:5.99123;stroke-linecap:round;stroke-linejoin:round"
	/>
  <path
    d="m 43.97256,35.587063 h 12.054884 c -0.558183,1.960978 -2.601121,4.280375 -6.027443,4.307538 -3.42632,0.02716 -5.411264,-2.374076 -6.027441,-4.307538 z"
    style="fill:none;stroke-width:5.99123;stroke-linecap:round;stroke-linejoin:round"
	/>
</svg>
