<svg
  xmlns="http://www.w3.org/2000/svg"
  viewBox="0 0 100 100"
  height="1"
  width="1"
>
  <path
    style="fill:none;stroke-width:4.72202;stroke-linecap:round;stroke-linejoin:round"
    d="m 14.361029,50.639795 h 29.045506 c 4.543298,-6.013598 3.700102,-4.868464 5.79049,-7.707759 h -6.791428 c 0.0354,-3.776581 1.103239,-6.954765 1.774948,-9.006954 0.671712,-2.052188 1.256826,-4.031861 3.015564,-7.627047 1.758739,-3.595194 3.438988,-5.797696 5.064668,-6.534134 1.62568,-0.736437 2.073745,0.378332 2.761157,1.672606 0.68741,1.294283 4.057284,7.358234 7.504418,8.872858 1.667946,0.963644 1.514756,2.083498 1.514756,3.732982 0,-2.5129 -0.506419,-4.702365 2.06407,-4.702365 2.570489,0 2.001274,2.585399 2.001274,8.943617 0,6.358225 0.12334,9.753421 0.12334,12.217109 0,-4.368043 -0.136173,-10.108032 -0.136173,-12.245868 0,-2.137828 0.508095,-8.926392 -2.013059,-8.926392 -2.521155,0 -0.390854,1.760276 -2.333599,1.728462 -4.022973,-2.225719 -5.611026,-3.782689 -8.951574,-10.089593 -2.336641,9.088507 -0.871146,3.998875 -2.53961,11.567184 1.385496,3.768197 1.355215,3.794579 2.165053,6.244772 0.85015,2.572158 1.088204,3.175893 2.175438,5.946019 0,3.13223 -0.0028,2.087883 -0.0028,5.730077 H 85.63897"
	/>
  <path
    style="fill:none;stroke-width:4.72202;stroke-linecap:round;stroke-linejoin:round"
    d="m 53.413916,12.429955 c 0,1.044559 1.026927,1.905669 2.119812,1.905669 1.092885,0 2.111496,-0.931428 2.111496,-2.054613 0,-1.123184 -0.552263,-2.165681 -2.097963,-2.165681 -0.295347,0 -1.371708,0.180394 -2.036974,-0.1604937 -0.715203,-0.366467 -0.999834,-1.2738918 -1.262592,-1.0783021 -0.198876,0.1480382 0.884987,0.71781 1.074858,1.2242308 0.33883,0.903732 0.09136,1.925186 0.09136,2.32919 z"
	/>
</svg>
