<svg
  xmlns="http://www.w3.org/2000/svg"
  viewBox="0 0 100 100"
  height="1"
  width="1"
>
  <path
    d="m 34.217001,21.417435 0.02484,-0.01763 z m -19.221102,28.58666 h 25.936564 c -3.636781,-0.16404 -7.896514,-2.548934 -10.53837,-5.374952 -2.381126,-2.547104 -4.149207,-5.873031 -4.363231,-9.412595 -0.108577,-1.795779 -0.06743,-5.013737 -0.06743,-8.466782 0,-3.32709 -0.104226,-7.458614 0.69286,-9.735891 1.023501,-2.924135 3.323111,-5.310894 5.877388,-6.947664 2.902655,-1.8600095 5.809873,-2.7703161 9.965269,-2.7703161 4.155396,0 9.169214,1.303458 11.942605,4.3729621 -4.381865,0.809872 -11.544492,3.209447 -11.926004,12.126371 -0.572509,-8.873733 -7.939718,-11.543053 -11.734571,-12.05382 3.735383,0.578426 11.119326,2.783474 11.75277,12.069312 0.598503,-9.208828 7.803775,-11.484322 11.955629,-12.177945 0.399733,0.393437 2.605454,1.931942 4.026483,5.960957 1.421029,4.029002 -0.009,10.646743 -4.230708,13.874885 -3.304326,2.526654 -7.68947,4.107871 -11.880705,4.11533 -4.003992,0.0074 -7.042642,-0.680882 -11.363861,-3.891084 -2.53673,-1.884522 -4.681176,-4.862901 -5.095524,-8.658048 0.27461,4.797441 3.049975,6.947103 5.09446,8.608801 3.548877,2.884424 7.971391,4.062703 11.391406,3.950857 2.547694,-0.08328 6.443708,-0.182579 11.882046,-4.172611 2.373692,-1.741545 6.222856,-6.596725 4.203881,-13.791218 0.689715,1.586673 0.588385,6.991926 0.586466,14.262894 -0.0018,6.661668 -0.0068,14.643368 -0.0068,18.095765 -13.399074,-0.0037 -11.896856,-10.266528 -11.896856,-15.008709 0,2.929149 -2.251566,15.03785 11.867869,15.023501 l 25.936566,-0.02636 m -34.219173,-28.531114 0.02484,-0.01763 z" 
    style="fill:none;stroke-width:5.99179;stroke-linecap:round;stroke-linejoin:round"
  />
</svg>
