<svg
  xmlns="http://www.w3.org/2000/svg"
  viewBox="0 0 100 100"
  height="1"
  width="1"
>
  <path
    d="m 85.083856,50.002189 h -20.61355 v -7.042644 c -2.964229,-2.633542 -4.963491,-4.377369 -6.551304,-6.91772 -1.587813,-2.540342 -2.878645,-5.442226 -3.755461,-8.714529 H 60.3476 50.040835 c 5.63762,-0.379323 7.326102,-4.4399 7.214741,-7.562348 -0.111372,-3.122442 -2.608224,-6.867133 -7.214741,-6.867133 -4.606517,0 -7.103379,3.744691 -7.214741,6.867133 -0.111361,3.122448 1.577121,7.183025 7.214741,7.562348 H 39.73406 45.91813 c -0.876817,3.272303 -2.167648,6.174187 -3.755462,8.714529 -1.587813,2.540351 -3.587084,4.284178 -6.551314,6.91772 v 7.042644 h -20.61354" 
    style="fill:none;stroke-width:5.99563;stroke-linecap:round;stroke-linejoin:round"
  />
</svg>
