<svg
  xmlns="http://www.w3.org/2000/svg"
  viewBox="0 0 100 100"
  height="1"
  width="1"
>
  <path
    d="m 15.160053,42.263288 h 26.353969 c -2.164367,-1.079737 -6.146119,-3.783277 -7.002898,-9.617984 -0.471905,-3.213652 0.35269,-6.837394 2.188076,-9.461842 0.798609,-1.141971 1.600064,-1.857122 2.451793,-2.560264 0.744763,-0.614833 1.830853,-1.363816 3.060002,-1.886324 3.267196,-1.388878 8.103592,-1.290438 11.588356,0.822424 3.484764,2.112862 5.991628,5.682139 6.280731,9.74393 0.289124,4.06177 -0.595715,6.090247 -2.045299,8.467863 -1.064901,1.746673 -3.29762,4.011743 -6.427438,4.765998 -9.135646,-6.305206 -17.533518,-17.054355 -22.18531,-25.743684 -0.938043,-1.752229 -1.962696,-4.373283 -1.200834,-5.387084 0.522747,-0.388465 2.96537,0.01328 7.438756,2.73281 -3.49518,-1.809573 -6.725238,-3.35845 -7.438282,-2.73477 -0.792517,0.953663 0.351447,3.604533 1.231743,5.386292 4.757703,9.629782 14.345203,20.358793 22.15574,25.790031 3.050735,2.121391 5.92434,4.213821 8.507514,5.519029 3.507029,1.771986 6.259362,2.353589 6.49852,1.52313 0.3928,-1.897269 -2.270526,-5.940209 -2.85842,-7.359555 5.300142,0 21.083175,-0.04501 21.083175,-0.04501"
    style="fill:none;stroke-width:6.00036;stroke-linecap:round;stroke-linejoin:round"
  />
</svg>
