<svg
  xmlns="http://www.w3.org/2000/svg"
  viewBox="0 0 100 100"
  height="1"
  width="1"
>
  <path
    d="m 14.99881,49.968256 c 1.644756,0.07411 25.537442,0 29.139192,0 1.904656,-4.570566 2.502528,-6.071071 3.48706,-8.424506 -4.339226,-0.463132 -7.547517,-2.276642 -9.913142,-4.749008 -2.365625,-2.472376 -3.326755,-4.349438 -4.140542,-8.125514 -0.322505,-1.496484 -0.403136,-3.970861 -0.403136,-6.286619 0,-1.907357 0.0018,-3.239952 0.07447,-4.836994 0.05837,-1.283926 0.326823,-2.475917 0.736953,-3.528392 0.669288,-1.717423 3.243578,-4.0184193 5.78304,-4.0184193 2.539452,0 6.246733,2.1121823 12.173189,4.4795603 -4.608078,1.695339 -2.17448,0.842199 -5.097758,1.834404 0,2.228763 -0.0079,2.006014 -0.0079,6.241301 6.321708,3.979822 13.495673,8.560031 19.136636,12.216386 -3.050717,0 -8.657014,0.07951 -13.924786,0.07951 -2.166648,0.06321 -4.868814,-0.183953 -5.248913,-0.377927 -1.733479,-0.626861 -2.878314,-1.833283 -3.195813,-2.312888 -0.711632,-1.07496 -1.041304,-2.935648 -1.17295,-2.792323 -0.07114,0.07741 0.236874,1.541942 1.174933,2.770929 0.797136,1.044344 1.98284,1.802608 3.179594,2.318229 2.754721,0.822515 12.788311,0.304214 19.185273,0.304214 3.653549,2.231094 3.184247,2.134346 5.869449,3.6833 0.435013,2.507702 1.242499,6.112978 1.557407,7.725683 -0.401018,0.132603 -0.689197,-0.693152 -2.558348,-4.544292 -4.656163,0 -9.514197,0.09362 -14.888412,0.09362 l -0.08231,8.248525 29.139194,8.6e-4"
    style="fill:none;stroke-width:5.99761;stroke-linecap:round;stroke-linejoin:round"
  />
</svg>
