<svg
  xmlns="http://www.w3.org/2000/svg"
  viewBox="0 0 100 100"
  height="1"
  width="1"
>
  <path
    d="m 14.996169,50.00383 h 35.003854 c 0,-6.35302 -0.04665,-8.99964 -0.04665,-11.91986 -3.418577,-3.10168 -6.480752,-6.26636 -8.026673,-7.81321 -0.618663,2.31026 -0.894102,4.60146 -2.542235,11.41336 -3.031289,-0.67211 -8.177889,-1.62676 -10.928083,-2.20094 2.695025,0.72256 6.13889,1.36653 10.726445,2.18722 1.40055,-9.15355 4.222142,-21.9782 4.725184,-24.1594 -5.136255,2.32785 -5.491835,2.14279 -9.243882,3.92707 0,2.47298 0.0322,4.31573 0.0322,6.67958 0.03176,-2.4244 0.003,-4.51772 0.003,-6.65574 5.000831,-2.19315 6.490007,-2.97059 10.085022,-4.28544 0.519151,-0.12311 1.123335,-0.14302 1.889803,0.26743 0.43717,0.23411 1.089379,1.23134 1.696053,2.14746 2.539056,3.83421 3.70875,6.77278 10.404781,8.36195 -7.401035,-1.80304 -9.839303,-6.87577 -11.479757,-8.03976 -0.409998,3.22605 -2.578665,8.6457 -2.140397,12.1605 2.348021,2.34942 2.054493,1.94693 4.851458,4.68147 0,3.34733 -0.0063,7.04065 -0.0063,13.24831 h 35.00384"
    style="fill:none;stroke-width:5.99234;stroke-linecap:round;stroke-linejoin:round"
  />
  <path
    d="m 49.045942,11.68194 c -1.277684,0 -2.37227,-0.90268 -2.37227,-2.17275 0,-1.27006 0.971632,-2.21302 2.205932,-2.21302 1.2343,0 2.204535,0.96977 2.204535,2.15956 0,1.18979 -0.760513,2.22621 -2.038197,2.22621 z"
    style="fill:none;stroke-width:5.99234;stroke-linecap:round;stroke-linejoin:round"
	/>
</svg>
