<svg
  xmlns="http://www.w3.org/2000/svg"
  viewBox="0 0 100 100"
  height="1"
  width="1"
>
  <path
    d="M 14.486591,50.003019 H 49.48943 V 30.134048 C 42.538748,30.545101 37.471852,28.480775 33.668522,23.931002 31.778531,21.670079 30.252603,18.635653 29.874179,15.984291 29.522281,13.518768 29.434713,13.18123 29.375975,9.9969784 35.11167,10.04861 39.549088,10.993007 43.35631,14.393395 c 1.898965,1.696037 4.379501,4.55208 5.50286,8.508535 1.128857,3.97582 0.895252,9.055484 0.63026,12.152016 0.335052,-4.94771 1.724798,-7.717596 3.031139,-9.622271 1.696355,-2.473331 2.912084,-3.586366 4.695069,-4.821404 4.537043,-3.142704 7.841699,-3.206764 12.236177,-3.060176 0.233547,4.843002 -0.483784,9.937693 -4.533157,14.328422 -4.049378,4.390722 -8.381133,5.790062 -15.429229,5.741726 l -0.01127,12.382776 h 35.014472"
    style="fill:none;stroke-width:5.99396;stroke-linecap:round;stroke-linejoin:round"
	/>
</svg>
