<svg
  xmlns="http://www.w3.org/2000/svg"
  viewBox="0 0 100 100"
  height="1"
  width="1"
>
  <path
    d="M 15.018732,49.98127 H 41.315076 C 30.128296,38.794486 25.748211,34.302897 16.525856,25.080545 c 8.71517,-8.145073 22.063935,-12.871669 33.91076,-12.96058 11.846824,-0.089 25.791742,4.903727 33.85414,12.8277 -7.08576,7.085755 -7.86131,8.247309 -12.9267,13.3127 -6.556029,-6.795058 -11.625183,-9.592642 -20.92744,-9.627502 -9.302257,-0.03494 -14.898717,3.469915 -20.586494,9.653296 5.719075,-6.217389 11.309062,-9.618747 20.599622,-9.667091 9.290559,-0.04836 15.036816,3.427136 20.89492,9.667091 -3.147935,3.147942 -4.294597,4.209027 -11.780677,11.695111 h 25.503345"
    style="fill:none;stroke-width:6.03746;stroke-linecap:round;stroke-linejoin:round"
	/>
</svg>
