<?xml version="1.0" encoding="UTF-8" standalone="no"?>
<svg
   height="1"
   viewBox="0 0 100 100"
   width="1"
   fill="#e3e3e3"
   version="1.1"
   id="svg4"
   xmlns="http://www.w3.org/2000/svg"
   xmlns:svg="http://www.w3.org/2000/svg">
  <defs
     id="defs8" />
  <path
     style="fill:none;stroke:#000000;stroke-width:6.03746;stroke-linecap:round;stroke-linejoin:round;stroke-dasharray:none;stroke-opacity:0.649156"
     d="M 15.018732,49.98127 H 41.315076 C 30.128296,38.794486 25.748211,34.302897 16.525856,25.080545 c 8.71517,-8.145073 22.063935,-12.871669 33.91076,-12.96058 11.846824,-0.089 25.791742,4.903727 33.85414,12.8277 -7.08576,7.085755 -7.86131,8.247309 -12.9267,13.3127 -6.556029,-6.795058 -11.625183,-9.592642 -20.92744,-9.627502 -9.302257,-0.03494 -14.898717,3.469915 -20.586494,9.653296 5.719075,-6.217389 11.309062,-9.618747 20.599622,-9.667091 9.290559,-0.04836 15.036816,3.427136 20.89492,9.667091 -3.147935,3.147942 -4.294597,4.209027 -11.780677,11.695111 h 25.503345"
     id="path394" />
</svg>
