{
	"asset":{
		"generator":"Khronos glTF Blender I/O v3.6.27",
		"version":"2.0"
	},
	"scene":0,
	"scenes":[
		{
			"name":"Scene",
			"nodes":[
				0
			]
		}
	],
	"nodes":[
		{
			"mesh":0,
			"name":"threeFaceMask"
		}
	],
	"materials":[
		{
			"name":"DefaultMaterial.001",
			"normalTexture":{
				"index":0
			},
			"occlusionTexture":{
				"index":1
			},
			"pbrMetallicRoughness":{
				"baseColorTexture":{
					"index":2
				},
				"metallicRoughnessTexture":{
					"index":1
				}
			}
		}
	],
	"meshes":[
		{
			"name":"defaultMaterial.001",
			"primitives":[
				{
					"attributes":{
						"POSITION":0,
						"NORMAL":1,
						"TEXCOORD_0":2
					},
					"indices":3,
					"material":0
				}
			]
		}
	],
	"textures":[
		{
			"sampler":0,
			"source":0
		},
		{
			"sampler":0,
			"source":1
		},
		{
			"sampler":0,
			"source":2
		}
	],
	"images":[
		{
			"mimeType":"image/png",
			"name":"DefaultMaterial_normal",
			"uri":"texs/DefaultMaterial_normal.png"
		},
		{
			"mimeType":"image/png",
			"name":"DefaultMaterial_metallicRoughness",
			"uri":"texs/DefaultMaterial_metallicRoughness.png"
		},
		{
			"mimeType":"image/jpeg",
			"name":"DefaultMaterial_baseColor",
			"uri":"texs/DefaultMaterial_baseColor.jpg"
		}
	],
	"accessors":[
		{
			"bufferView":0,
			"componentType":5126,
			"count":589,
			"max":[
				0.5138196349143982,
				0.450514018535614,
				0.29828959703445435
			],
			"min":[
				-0.5260374546051025,
				-0.6064367890357971,
				-0.38452985882759094
			],
			"type":"VEC3"
		},
		{
			"bufferView":1,
			"componentType":5126,
			"count":589,
			"type":"VEC3"
		},
		{
			"bufferView":2,
			"componentType":5126,
			"count":589,
			"type":"VEC2"
		},
		{
			"bufferView":3,
			"componentType":5123,
			"count":2055,
			"type":"SCALAR"
		}
	],
	"bufferViews":[
		{
			"buffer":0,
			"byteLength":7068,
			"byteOffset":0,
			"target":34962
		},
		{
			"buffer":0,
			"byteLength":7068,
			"byteOffset":7068,
			"target":34962
		},
		{
			"buffer":0,
			"byteLength":4712,
			"byteOffset":14136,
			"target":34962
		},
		{
			"buffer":0,
			"byteLength":4110,
			"byteOffset":18848,
			"target":34963
		}
	],
	"samplers":[
		{
			"magFilter":9729,
			"minFilter":9987
		}
	],
	"buffers":[
		{
			"byteLength":22960,
			"uri":"threeFaceMask.bin"
		}
	]
}
