{
  "asset": {
    "generator": "Khronos glTF Blender I/O v3.6.27",
    "version": "2.0"
  },
  "scene": 0,
  "scenes": [
    {
      "name": "Scene",
      "nodes": [0]
    }
  ],
  "nodes": [
    {
      "mesh": 0,
      "name": "threeFaceMask"
    }
  ],
  "materials": [
    {
      "doubleSided": true,
      "name": "DefaultMaterial.001",
      "normalTexture": {
        "index": 0
      },
      "occlusionTexture": {
        "index": 1
      },
      "pbrMetallicRoughness": {
        "baseColorTexture": {
          "index": 2
        },
        "metallicRoughnessTexture": {
          "index": 1
        }
      }
    }
  ],
  "meshes": [
    {
      "name": "defaultMaterial.001",
      "primitives": [
        {
          "attributes": {
            "POSITION": 0,
            "NORMAL": 1,
            "TEXCOORD_0": 2
          },
          "indices": 3,
          "material": 0
        }
      ]
    }
  ],
  "textures": [
    {
      "sampler": 0,
      "source": 0
    },
    {
      "sampler": 0,
      "source": 1
    },
    {
      "sampler": 0,
      "source": 2
    }
  ],
  "images": [
    {
      "mimeType": "image/png",
      "name": "DefaultMaterial_normal",
      "uri": "texs/DefaultMaterial_normal.png"
    },
    {
      "mimeType": "image/png",
      "name": "DefaultMaterial_metallicRoughness",
      "uri": "texs/DefaultMaterial_metallicRoughness.png"
    },
    {
      "mimeType": "image/jpeg",
      "name": "DefaultMaterial_baseColor",
      "uri": "texs/DefaultMaterial_baseColor.jpg"
    }
  ],
  "accessors": [
    {
      "bufferView": 0,
      "componentType": 5126,
      "count": 614,
      "max": [0.5239431262016296, 0.5018386244773865, 0.3502644896507263],
      "min": [-0.5159139633178711, -0.5551121830940247, -0.3325549364089966],
      "type": "VEC3"
    },
    {
      "bufferView": 1,
      "componentType": 5126,
      "count": 614,
      "type": "VEC3"
    },
    {
      "bufferView": 2,
      "componentType": 5126,
      "count": 614,
      "type": "VEC2"
    },
    {
      "bufferView": 3,
      "componentType": 5123,
      "count": 2394,
      "type": "SCALAR"
    }
  ],
  "bufferViews": [
    {
      "buffer": 0,
      "byteLength": 7368,
      "byteOffset": 0,
      "target": 34962
    },
    {
      "buffer": 0,
      "byteLength": 7368,
      "byteOffset": 7368,
      "target": 34962
    },
    {
      "buffer": 0,
      "byteLength": 4912,
      "byteOffset": 14736,
      "target": 34962
    },
    {
      "buffer": 0,
      "byteLength": 4788,
      "byteOffset": 19648,
      "target": 34963
    }
  ],
  "samplers": [
    {
      "magFilter": 9729,
      "minFilter": 9987
    }
  ],
  "buffers": [
    {
      "byteLength": 24436,
      "uri": "threeFaceMask.bin"
    }
  ]
}
