<?xml version="1.0" encoding="UTF-8" standalone="no"?>
<svg
   width="32"
   height="32"
   viewBox="0 0 99.999758 99.999758"
   version="1.1"
   id="svg1"
   sodipodi:docname="disguiseMustacheOffIcon.svg"
   inkscape:version="1.3.2 (091e20e, 2023-11-25, custom)"
   xmlns:inkscape="http://www.inkscape.org/namespaces/inkscape"
   xmlns:sodipodi="http://sodipodi.sourceforge.net/DTD/sodipodi-0.dtd"
   xmlns="http://www.w3.org/2000/svg"
   xmlns:svg="http://www.w3.org/2000/svg">
  <defs
     id="defs1" />
  <sodipodi:namedview
     id="namedview1"
     pagecolor="#ffffff"
     bordercolor="#000000"
     borderopacity="0.25"
     inkscape:showpageshadow="2"
     inkscape:pageopacity="0.0"
     inkscape:pagecheckerboard="0"
     inkscape:deskcolor="#d1d1d1"
     inkscape:document-units="px"
     inkscape:zoom="11.313709"
     inkscape:cx="4.5961939"
     inkscape:cy="12.330174"
     inkscape:window-width="1920"
     inkscape:window-height="1009"
     inkscape:window-x="-8"
     inkscape:window-y="-8"
     inkscape:window-maximized="1"
     inkscape:current-layer="svg1" />
  <path
     id="path1-1-7-8-0"
     style="fill:none;stroke:#fff;stroke-width:2.49927;stroke-linecap:round;stroke-linejoin:round;stroke-dasharray:none;stroke-opacity:1"
     d="M 66.324141,23.824336 60.427977,29.7205 M 72.713993,24.436133 61.957749,35.192377 M 78.237415,26.107509 64.82589,39.519032 m 13.651194,-6.510614 -8.454316,8.454316 M 34.41684,23.984876 40.313004,29.881041 M 28.026988,24.596672 38.783232,35.352917 M 22.503566,26.268049 35.915091,39.679572 m -13.651194,-6.510613 8.454317,8.454315 m 27.720983,18.306667 1.384319,1.740793 c 0.328616,0.417375 1.15701,1.382596 1.505702,1.731287 l 1.043966,1.144346 c 1.165476,1.341938 2.149213,2.957546 2.707124,4.649233 0.185971,0.563192 0.520922,1.647309 0.473374,2.218949 -0.08239,0.999591 -0.904484,2.940645 -1.439147,3.803925 -0.18597,0.300083 -1.07355,1.371521 -1.072497,1.584964 0.0017,0.389898 1.064041,1.089402 1.355677,1.39159 0.428997,0.444858 0.668852,1.387383 0.856935,1.989671 l 2.396473,7.502176 1.085177,3.381261 2.015015,3.803917 -2.218958,-1.225703 -1.373626,-0.464931 -0.739649,1.373646 -1.90197,-1.690633 -0.528319,1.690633 -1.69063,-1.26798 c -0.28318,0.52833 -0.688928,1.004869 -1.162311,1.373637 l -0.422653,-1.162303 -0.188083,0.418431 c -0.613908,1.167586 -1.266917,-0.414207 -1.815312,-0.414207 -0.227182,0 -0.974229,0.837919 -1.272201,1.052422 l -1.162311,-1.690633 c -0.157438,0.553683 -0.913991,2.090038 -1.267969,2.535948 -0.343409,-0.603347 -0.824178,-1.439155 -0.95098,-2.113295 l -1.690631,1.901964 -1.162311,-2.113295 c -0.153205,0.536778 -0.89814,2.162956 -1.267968,2.535948 l -1.056646,-1.796287 c -0.341297,0.480763 -1.009098,1.517332 -1.4793,1.796287 l -0.95098,-2.641605 -1.162304,1.901956 h -0.211331 l -1.373642,-1.690634 -1.162303,1.373646 -1.056645,-1.479311 h -0.211331 l -0.845316,2.113295 c -0.397293,-0.436394 -1.1697,-1.66738 -1.373634,-2.218952 l -1.479299,1.584968 -1.162311,-1.26798 c -0.360313,0.568475 -1.051362,1.395833 -1.584966,1.796298 l -0.739649,-2.324617 -1.690631,2.007621 -0.316996,-2.007621 -2.852933,2.535948 1.629341,-3.698258 0.581151,-1.373635 0.44379,-1.584965 1.797357,-6.973858 0.929844,-3.363296 2.226353,-1.919926 c -0.696333,-0.54417 -1.187672,-1.423302 -1.552217,-2.218948 -0.311703,-0.679421 -0.869615,-2.233745 -0.869615,-2.958603 0,-0.511422 0.28318,-1.402169 0.449073,-1.901961 0.570592,-1.70965 1.385262,-3.161478 2.547566,-4.543569 l 1.328206,-1.469791 c 0.553463,-0.48138 0.961382,-0.928949 1.404278,-1.383147 l 1.74444,-2.087619 m 6.888338,-16.263116 c -1.106307,0.265218 -1.769875,1.114759 -2.061511,2.184084 l -0.413145,2.535946 c -0.295861,1.635684 -0.884307,3.529611 -1.464083,5.203548 -0.611077,1.618102 -0.63324,1.650445 -1.900274,4.306246 l -1.94739,3.803918 c -1.091514,2.376392 -1.98992,6.032967 -2.146047,7.295037 -0.156128,1.262068 -0.158074,2.198734 0,3.377065 0.158071,1.17833 0.455609,2.54742 1.197179,3.803923 1.352506,2.027694 2.211553,2.971279 4.614361,3.605271 1.295449,0.341288 3.101253,0.605452 4.437907,0.621304 1.600817,0.01794 3.722556,-0.228243 5.283221,-0.597004 1.124263,-0.266274 2.323555,-0.604408 3.275594,-1.282769 1.323974,-0.941464 2.024958,-2.082688 2.59934,-3.403447 0.574389,-1.320761 0.61591,-2.444015 0.737103,-3.698253 l 0.01911,-1.267974 c 0.0042,-2.990305 -0.552318,-5.933058 -1.803382,-8.664482 -0.385674,-0.843201 -1.090463,-2.020302 -1.658935,-2.747273 -0.610736,-0.780861 -1.22264,-1.40322 -1.8375,-2.747275 -0.529662,-1.196354 -0.793542,-2.210089 -1.170767,-3.38126 L 53.422324,48.274052 C 53.104276,46.944793 53.130688,45.294315 52.143787,44.26303 51.292128,43.373336 49.917434,43.427226 48.773086,43.554022 Z m -5.391782,-0.80966 c -0.927139,1.157713 -2.5362,2.634934 -4.382158,3.634519 -2.004452,1.08623 -4.296313,1.575456 -6.551192,1.732896 l -1.267972,0.09615 c -3.347448,0.0053 -6.172914,-0.203932 -9.087138,-2.081588 C 19.364625,44.369144 17.645466,41.76346 16.450402,38.8038 15.121143,35.510241 14.707995,32.34348 14.229337,28.871347 l -0.264162,-2.007622 c -0.04227,-0.249368 -0.0856,-0.601231 -0.278954,-0.781917 -0.217668,-0.203932 -0.612854,-0.168006 -0.891807,-0.169062 h -0.633987 c -0.214499,0 -0.597003,0.02748 -0.77135,-0.104608 -0.247255,-0.187026 -0.333898,-0.864335 -0.377222,-1.163365 l -0.100381,-0.845314 c 0,-0.64244 0.331786,-2.138648 0.788257,-2.587722 0.292689,-0.288464 1.102079,-0.326503 1.51734,-0.384619 0.92879,-0.12891 2.484169,-0.236688 3.275597,-0.62025 l -1.69063,-0.949922 c -0.297975,-0.17646 -0.640327,-0.32756 -0.81256,-0.64561 -0.291634,-0.541002 -0.251482,-2.379561 -0.244085,-3.053701 0.01057,-0.904486 0.3022,-2.466206 0.486056,-3.38126 0.188083,-0.934072 0.34975,-1.880826 0.758671,-2.7472746 0.234574,-0.4976785 0.944639,-2.0509457 1.407449,-2.2242351 0.595949,-0.2747268 1.304956,0.1310241 1.680064,0 0.411034,-0.097211 0.785087,-0.6223626 1.08623,-0.913997 0.486056,-0.4691501 0.885467,-0.647722 1.555379,-0.6646287 l 1.901959,0.1648366 c 0.524097,-0.095099 1.226763,-0.7555011 1.901959,-0.9435837 0.723801,-0.2028754 1.285936,0.2303488 1.796294,0.2271792 0.55157,-0.00209 1.003814,-0.4511868 1.584966,-0.5219822 0.882298,-0.1067214 1.42647,0.7047813 1.901959,0.6487789 0.417375,-0.050721 0.643497,-0.6086264 1.267973,-0.714291 0.770294,-0.1310232 1.982265,0.5240949 2.385902,0.4966226 0.45647,-0.030645 0.612855,-0.5462848 1.312351,-0.6149666 0.805164,-0.078193 1.371525,0.4469604 1.796295,0.4437908 0.427942,-0.00209 0.557909,-0.3677129 1.162309,-0.2958607 0.539946,0.063401 1.442319,0.4015244 1.901959,0.6952714 0.273671,0.1743464 0.888638,0.6931588 1.162308,0.7269713 0.419488,0.05072 0.705838,-0.4702071 1.152799,-0.3444662 0.324389,0.090871 0.741763,0.8009362 0.945697,1.0872864 0.229291,0.3212201 0.987961,1.3905439 1.10208,1.6906302 l 0.404694,1.9019594 c 0.448015,1.948453 0.726971,3.594703 0.726971,5.600212 0,0.505077 0.04121,1.655762 -0.161668,2.08159 -0.150042,0.312766 -1.401108,1.209857 -1.740292,1.314464 -0.330729,0.131025 -1.478245,-0.03593 -2.007623,0 0.883354,0.3656 1.747689,0.808333 2.535945,1.363071 0.711122,0.499793 1.094682,0.968943 1.90196,1.336654 0.73648,0.334958 1.93913,1.070381 4.332239,1.070381 2.393108,0 3.0309,-0.440161 4.54357,-1.177102 0.590663,-0.288463 1.130608,-0.836862 1.690629,-1.229933 0.886525,-0.62342 1.150686,-0.678366 2.007623,-1.149629 h -1.056643 c -0.295861,-0.04227 -0.6044,-0.301143 -0.845316,-0.478659 -0.90026,-0.663572 -1.157025,-0.685763 -1.162307,-1.862864 v -2.113287 c 0.0032,-1.792068 0.524095,-3.5387 0.866448,-5.2832198 0.07291,-0.3708817 0.135251,-0.9393563 0.274727,-1.2679722 l 1.113702,-1.6906311 c 0.171177,-0.2504248 0.572701,-0.8896933 0.843202,-0.9943019 0.471263,-0.1817424 0.786143,0.3782786 1.234161,0.3064273 0.262047,-0.042265 0.894977,-0.5473416 1.162308,-0.7174614 0.428997,-0.2736709 1.293332,-0.6033441 1.796294,-0.6720256 0.711122,-0.097211 0.807276,0.3571454 1.373637,0.2567649 0.43745,-0.078193 1.11476,-0.5536817 1.69063,-0.463867 0.617077,0.096155 0.808329,0.6265899 1.373639,0.6265899 0.468088,9.988e-4 1.626169,-0.5779844 2.21895,-0.5019066 0.630815,0.081365 0.940415,0.7407082 1.373637,0.7544444 0.395181,0.013732 0.980564,-0.6762521 1.69063,-0.6868187 0.64244,-0.010569 1.229936,0.5093027 1.690631,0.5526248 0.45859,0.043324 0.810446,-0.3011431 1.584964,-0.2461976 0.929844,0.064453 1.559613,0.8379183 2.218949,0.942526 0.673094,0.1447604 1.5184,-0.4702069 2.641619,0 0.910829,0.3465789 1.173924,1.1908373 1.796287,1.4190732 0.555793,0.2071019 1.066164,-0.3698257 1.785738,0 0.438505,0.2229508 1.17287,1.7772748 1.407451,2.2770669 0.379329,0.8093905 0.54099,1.7656535 0.716393,2.6416105 0.358208,1.793124 0.549454,2.906827 0.528327,4.754897 -0.0042,0.355032 -0.117286,1.486699 -0.265216,1.774106 -0.146879,0.285293 -0.519872,0.455413 -0.791422,0.611796 l -1.690639,0.995358 2.958599,0.417376 c 0.352924,0.04015 1.158088,0.09827 1.423311,0.303255 0.521974,0.403639 0.882287,2.008681 0.882287,2.660631 l -0.100373,0.845314 c -0.113062,0.747048 -0.09933,1.253179 -0.937248,1.267973 h -1.901961 l -0.195471,1.373636 -0.303263,2.535946 c -0.647726,4.963056 -1.691684,9.877507 -4.954599,13.842035 -2.467269,2.996641 -6.350428,4.537228 -10.184994,4.543568 h -1.69063 l -1.267973,-0.09615 C 65.170138,47.946942 62.85503,47.419676 60.766047,46.273218 59.13987,45.380354 57.553976,44.00381 56.494918,42.475888 55.435862,40.947966 55.069675,40.080638 54.692457,38.909466 l -1.111589,-4.226577 c -0.31805,-1.329257 -0.291635,-2.979735 -1.278539,-4.01102 -0.851655,-0.889695 -2.226349,-0.835805 -3.370695,-0.709008 -1.106306,0.265218 -1.769878,1.11476 -2.061512,2.184083 l -0.413148,2.535945 c -0.29586,1.635686 -0.914798,3.617213 -1.348797,4.886509 -0.434,1.269295 -0.799698,2.01725 -1.726838,3.174964 z M 28.644072,20.961312 26.42512,21.187434 c -3.033625,0.387789 -7.021399,1.350392 -8.098119,4.619648 -0.20499,0.620249 -0.248312,1.045019 -0.249368,1.690629 -0.0032,2.149214 0.271558,2.83392 0.75233,4.860562 1.206687,5.090911 3.601042,10.488247 9.180121,11.90098 0.695273,0.175403 1.392658,0.347636 2.113289,0.356088 2.353146,0.02747 3.810259,0.03699 6.02287,-0.983734 4.164234,-1.922035 6.194047,-6.68433 6.911508,-10.956341 0.15744,-0.936186 0.378279,-2.240084 0.379335,-3.169932 v -1.267972 c -0.0011,-0.649836 -0.07924,-1.274313 -0.256764,-1.901959 -1.020719,-3.616891 -4.633384,-4.792936 -7.985059,-5.193404 l -2.113287,-0.180687 z m 38.461835,0 -2.007621,0.226122 c -2.34892,0.333899 -5.338165,1.266917 -6.688556,3.351674 -1.452887,2.243256 -1.235217,4.881695 -0.822069,7.396508 0.850598,5.173327 3.026227,10.835883 8.67293,12.296165 0.759732,0.196536 1.536366,0.374051 2.324615,0.38356 2.112233,0.02429 3.717274,0.01901 5.705885,-0.87807 4.579493,-2.064682 6.456093,-6.612477 7.594096,-11.167671 0.336012,-1.34405 0.826299,-3.289331 0.857995,-4.649232 0.0116,-0.514585 -0.07714,-1.297558 -0.19971,-1.796293 C 81.649556,22.46703 77.059487,21.52239 73.86843,21.141999 l -2.324614,-0.180687 z" />
</svg>
