{
	"asset":{
		"generator":"Khronos glTF Blender I/O v3.6.27",
		"version":"2.0"
	},
	"extensionsUsed":[
		"KHR_materials_clearcoat",
		"KHR_materials_transmission"
	],
	"scene":0,
	"scenes":[
		{
			"name":"Scene",
			"nodes":[
				3
			]
		}
	],
	"nodes":[
		{
			"mesh":0,
			"name":"Object_2"
		},
		{
			"mesh":1,
			"name":"Object_3"
		},
		{
			"mesh":2,
			"name":"Object_4"
		},
		{
			"children":[
				0,
				1,
				2
			],
			"name":"deadManHat"
		}
	],
	"materials":[
		{
			"alphaMode":"BLEND",
			"extensions":{
				"KHR_materials_clearcoat":{
					"clearcoatFactor":0.5261051654815674,
					"clearcoatRoughnessFactor":0.19073933362960815,
					"clearcoatNormalTexture":{
						"index":0
					}
				},
				"KHR_materials_transmission":{
					"transmissionFactor":0.7218680381774902
				}
			},
			"name":"glass",
			"normalTexture":{
				"index":1
			},
			"pbrMetallicRoughness":{
				"baseColorFactor":[
					1,
					1,
					1,
					0.27813199162483215
				],
				"baseColorTexture":{
					"index":2
				},
				"metallicFactor":0,
				"metallicRoughnessTexture":{
					"index":3
				}
			}
		},
		{
			"extensions":{
				"KHR_materials_clearcoat":{
					"clearcoatFactor":0.5626905560493469,
					"clearcoatRoughnessFactor":0.38490450382232666,
					"clearcoatTexture":{
						"index":4
					},
					"clearcoatNormalTexture":{
						"index":5
					}
				}
			},
			"name":"material.003",
			"normalTexture":{
				"index":6
			},
			"pbrMetallicRoughness":{
				"baseColorTexture":{
					"index":7
				},
				"metallicRoughnessTexture":{
					"index":8
				}
			}
		},
		{
			"name":"hat_Diffuse.png",
			"pbrMetallicRoughness":{
				"baseColorTexture":{
					"index":9
				},
				"metallicFactor":0,
				"metallicRoughnessTexture":{
					"index":10
				}
			}
		}
	],
	"meshes":[
		{
			"name":"Object_0.008",
			"primitives":[
				{
					"attributes":{
						"POSITION":0,
						"NORMAL":1,
						"TEXCOORD_0":2
					},
					"indices":3,
					"material":0
				}
			]
		},
		{
			"name":"Object_1.006",
			"primitives":[
				{
					"attributes":{
						"POSITION":4,
						"NORMAL":5,
						"TEXCOORD_0":6
					},
					"indices":7,
					"material":1
				}
			]
		},
		{
			"name":"Object_2",
			"primitives":[
				{
					"attributes":{
						"POSITION":8,
						"NORMAL":9,
						"TEXCOORD_0":10
					},
					"indices":11,
					"material":2
				}
			]
		}
	],
	"textures":[
		{
			"sampler":0,
			"source":0
		},
		{
			"sampler":0,
			"source":0
		},
		{
			"sampler":0,
			"source":1
		},
		{
			"sampler":0,
			"source":2
		},
		{
			"sampler":0,
			"source":3
		},
		{
			"sampler":0,
			"source":0
		},
		{
			"sampler":0,
			"source":0
		},
		{
			"sampler":0,
			"source":1
		},
		{
			"sampler":0,
			"source":2
		},
		{
			"sampler":0,
			"source":1
		},
		{
			"sampler":0,
			"source":2
		}
	],
	"images":[
		{
			"mimeType":"image/png",
			"name":"glass_normal",
			"uri":"texs2/glass_normal.png"
		},
		{
			"mimeType":"image/png",
			"name":"glass_baseColor",
			"uri":"texs2/glass_baseColor.png"
		},
		{
			"mimeType":"image/png",
			"name":"glass_metallicRoughness",
			"uri":"texs2/glass_metallicRoughness.png"
		},
		{
			"mimeType":"image/png",
			"name":"material_clearcoat",
			"uri":"texs2/material_clearcoat.png"
		}
	],
	"accessors":[
		{
			"bufferView":0,
			"componentType":5126,
			"count":1708,
			"max":[
				0.6694175004959106,
				0.3487485945224762,
				0.5612413287162781
			],
			"min":[
				-0.6761349439620972,
				0.03923788666725159,
				-0.6340023875236511
			],
			"type":"VEC3"
		},
		{
			"bufferView":1,
			"componentType":5126,
			"count":1708,
			"type":"VEC3"
		},
		{
			"bufferView":2,
			"componentType":5126,
			"count":1708,
			"type":"VEC2"
		},
		{
			"bufferView":3,
			"componentType":5123,
			"count":5628,
			"type":"SCALAR"
		},
		{
			"bufferView":4,
			"componentType":5126,
			"count":2824,
			"max":[
				0.8074783086776733,
				1.1251837015151978,
				0.8074780106544495
			],
			"min":[
				-0.807478666305542,
				0.0008368194103240967,
				-0.8074781894683838
			],
			"type":"VEC3"
		},
		{
			"bufferView":5,
			"componentType":5126,
			"count":2824,
			"type":"VEC3"
		},
		{
			"bufferView":6,
			"componentType":5126,
			"count":2824,
			"type":"VEC2"
		},
		{
			"bufferView":7,
			"componentType":5123,
			"count":8793,
			"type":"SCALAR"
		},
		{
			"bufferView":8,
			"componentType":5126,
			"count":9,
			"max":[
				-0.32289233803749084,
				1.1251835823059082,
				-0.1967577040195465
			],
			"min":[
				-0.5843966007232666,
				0.6787047386169434,
				-0.44756585359573364
			],
			"type":"VEC3"
		},
		{
			"bufferView":9,
			"componentType":5126,
			"count":9,
			"type":"VEC3"
		},
		{
			"bufferView":10,
			"componentType":5126,
			"count":9,
			"type":"VEC2"
		},
		{
			"bufferView":11,
			"componentType":5123,
			"count":21,
			"type":"SCALAR"
		}
	],
	"bufferViews":[
		{
			"buffer":0,
			"byteLength":20496,
			"byteOffset":0,
			"target":34962
		},
		{
			"buffer":0,
			"byteLength":20496,
			"byteOffset":20496,
			"target":34962
		},
		{
			"buffer":0,
			"byteLength":13664,
			"byteOffset":40992,
			"target":34962
		},
		{
			"buffer":0,
			"byteLength":11256,
			"byteOffset":54656,
			"target":34963
		},
		{
			"buffer":0,
			"byteLength":33888,
			"byteOffset":65912,
			"target":34962
		},
		{
			"buffer":0,
			"byteLength":33888,
			"byteOffset":99800,
			"target":34962
		},
		{
			"buffer":0,
			"byteLength":22592,
			"byteOffset":133688,
			"target":34962
		},
		{
			"buffer":0,
			"byteLength":17586,
			"byteOffset":156280,
			"target":34963
		},
		{
			"buffer":0,
			"byteLength":108,
			"byteOffset":173868,
			"target":34962
		},
		{
			"buffer":0,
			"byteLength":108,
			"byteOffset":173976,
			"target":34962
		},
		{
			"buffer":0,
			"byteLength":72,
			"byteOffset":174084,
			"target":34962
		},
		{
			"buffer":0,
			"byteLength":42,
			"byteOffset":174156,
			"target":34963
		}
	],
	"samplers":[
		{
			"magFilter":9729,
			"minFilter":9987
		}
	],
	"buffers":[
		{
			"byteLength":174200,
			"uri":"deadManHat.bin"
		}
	]
}
