{
	"asset":{
		"generator":"Khronos glTF Blender I/O v3.6.27",
		"version":"2.0"
	},
	"scene":0,
	"scenes":[
		{
			"name":"Scene",
			"nodes":[
				0
			]
		}
	],
	"nodes":[
		{
			"mesh":0,
			"name":"mustache4"
		}
	],
	"materials":[
		{
			"doubleSided":true,
			"name":"Hair Material",
			"pbrMetallicRoughness":{
				"baseColorFactor":[
					0.05043777823448181,
					0.029989147558808327,
					0.026103125885128975,
					1
				],
				"metallicFactor":0,
				"roughnessFactor":0.5
			}
		}
	],
	"meshes":[
		{
			"name":"BezierCurve.015",
			"primitives":[
				{
					"attributes":{
						"POSITION":0,
						"NORMAL":1,
						"TEXCOORD_0":2
					},
					"indices":3,
					"material":0
				}
			]
		}
	],
	"accessors":[
		{
			"bufferView":0,
			"componentType":5126,
			"count":1624,
			"max":[
				2.381378173828125,
				0.20501703023910522,
				0.33938029408454895
			],
			"min":[
				-2.37764310836792,
				-0.7560462951660156,
				-0.34164294600486755
			],
			"type":"VEC3"
		},
		{
			"bufferView":1,
			"componentType":5126,
			"count":1624,
			"type":"VEC3"
		},
		{
			"bufferView":2,
			"componentType":5126,
			"count":1624,
			"type":"VEC2"
		},
		{
			"bufferView":3,
			"componentType":5123,
			"count":7920,
			"type":"SCALAR"
		}
	],
	"bufferViews":[
		{
			"buffer":0,
			"byteLength":19488,
			"byteOffset":0,
			"target":34962
		},
		{
			"buffer":0,
			"byteLength":19488,
			"byteOffset":19488,
			"target":34962
		},
		{
			"buffer":0,
			"byteLength":12992,
			"byteOffset":38976,
			"target":34962
		},
		{
			"buffer":0,
			"byteLength":15840,
			"byteOffset":51968,
			"target":34963
		}
	],
	"buffers":[
		{
			"byteLength":67808,
			"uri":"mustache4.bin"
		}
	]
}
