<svg
  xmlns="http://www.w3.org/2000/svg"
  viewBox="0 0 100 100"
  width="1"
  height="1"
>
  <path
    d="m 23.451726,70.897508 c -0.09227,0 -0.161399,-0.02286 -0.207394,-0.06913 -0.161398,-0.046 -0.29966,-0.184257 -0.276524,-0.322519 0.04599,-0.414786 0.115126,-0.806715 0.230251,-1.175228 0.04627,-0.184535 0.207393,-0.253666 0.368792,-0.207393 0.137983,0.02286 0.207115,0.207393 0.184257,0.345655 -0.09199,0.276246 -0.16112,0.599043 -0.184257,0.875567 h 1.014108 c 0.184257,0 0.299382,0.115405 0.299382,0.276525 0,0.161398 -0.115125,0.276524 -0.299382,0.276524 z m -0.437923,0.829572 c -0.04599,-0.184256 0.06913,-0.322518 0.253387,-0.322518 0.138262,-0.02314 0.299661,0.09199 0.299661,0.230251 0.046,0.391649 0.137983,0.714447 0.253388,1.083239 0.04627,0.138262 -0.04627,0.29966 -0.184257,0.368791 h -0.06913 c -0.115125,0 -0.253387,-0.06913 -0.276524,-0.184535 -0.138262,-0.368513 -0.23053,-0.760441 -0.276524,-1.175228 z m 0.645316,-3.525962 c 0.207393,-0.39165 0.437644,-0.691032 0.714447,-1.013829 0.09199,-0.115404 0.276524,-0.115404 0.39165,-0.04627 0.115125,0.115404 0.138262,0.299661 0.02314,0.437923 -0.207393,0.253387 -0.414786,0.553048 -0.645316,0.875845 0,0.115126 -0.138262,0.184257 -0.207114,0.184257 -0.06913,0 -0.115405,-0.046 -0.161678,-0.06913 -0.138262,-0.06913 -0.207393,-0.23053 -0.115125,-0.368792 z m 0.161398,5.807566 c -0.09199,-0.161399 -0.06913,-0.322519 0.06913,-0.414787 0.161119,-0.06913 0.322518,-0.02314 0.414786,0.09227 0.16112,0.322519 0.39165,0.599043 0.668174,0.875846 0.115125,0.115125 0.09227,0.299382 -0.02314,0.414507 -0.04599,0.04627 -0.115125,0.06913 -0.184256,0.06913 -0.06913,0 -0.184257,-0.02286 -0.23053,-0.06913 -0.253388,-0.29966 -0.529912,-0.622179 -0.714169,-0.967834 z m 1.452031,-7.62811 c 0.32224,-0.253666 0.691032,-0.437923 1.060103,-0.622179 0.138262,-0.06913 0.322239,0 0.368513,0.138262 0.06913,0.16112 0,0.322518 -0.138262,0.39165 -0.345656,0.138262 -0.668174,0.345655 -0.968114,0.529911 -0.04599,0.046 -0.09199,0.06913 -0.16112,0.06913 -0.09199,0 -0.16112,-0.02314 -0.230251,-0.115125 -0.09255,-0.137983 -0.06941,-0.322519 0.06913,-0.39165 z m 0.230251,9.356386 c -0.16112,-0.06913 -0.184535,-0.253388 -0.09199,-0.39165 0.09199,-0.161398 0.253109,-0.184256 0.414508,-0.09227 0.276524,0.207393 0.576185,0.368791 0.944977,0.483917 0.138262,0.06913 0.230251,0.253388 0.16112,0.368792 -0.02286,0.137983 -0.138262,0.207114 -0.253109,0.207114 -0.02342,0 -0.04627,-0.02286 -0.115404,-0.02286 -0.368792,-0.138262 -0.737584,-0.29966 -1.060103,-0.553048 z m 0.253388,-4.839452 c -0.161399,0 -0.299661,-0.115126 -0.299661,-0.276524 0,-0.16112 0.138262,-0.276525 0.299661,-0.276525 h 1.15237 c 0.184256,0 0.299382,0.115405 0.299382,0.276525 0,0.161398 -0.115126,0.276524 -0.299382,0.276524 z m 1.728276,-5.484769 c 0.322797,-0.04599 0.599322,-0.09227 0.92184,-0.09227 0.09227,0 0.207393,0 0.299661,0.04627 0.161399,0 0.276524,0.138262 0.276524,0.276524 -0.02314,0.184257 -0.138262,0.299382 -0.322518,0.299382 -0.06913,-0.04599 -0.161399,-0.04599 -0.253667,-0.04599 -0.276524,0 -0.552769,0.04599 -0.806436,0.09199 h -0.06913 c -0.138262,0 -0.253666,-0.115126 -0.276524,-0.230251 -0.02314,-0.184257 0.09199,-0.322519 0.230251,-0.345656 z m 0.04627,10.854133 c 0,-0.16112 0.138262,-0.276524 0.299382,-0.276524 0.184536,0.04627 0.391929,0.04627 0.575907,0.04627 0.184535,0 0.368791,0 0.507054,-0.04627 0.184256,0 0.29966,0.115404 0.29966,0.276524 0.046,0.161398 -0.06913,0.322518 -0.230529,0.322518 -0.184257,0.02314 -0.368792,0.02314 -0.576185,0.02314 -0.230251,0 -0.437645,0 -0.667896,-0.02314 -0.138262,-0.04599 -0.253666,-0.184256 -0.207393,-0.322518 z m 0.529912,-5.369364 c -0.138262,0 -0.276524,-0.115126 -0.276524,-0.276524 0,-0.16112 0.138262,-0.276525 0.276524,-0.276525 h 1.15237 c 0.184257,0 0.299382,0.115405 0.299382,0.276525 0,0.161398 -0.115125,0.276524 -0.299382,0.276524 z M 29.74293,66.10405 c -0.138262,-0.04627 -0.230251,-0.207393 -0.16112,-0.345655 0.02286,-0.184257 0.207393,-0.253388 0.345655,-0.207393 0.39165,0.138262 0.76072,0.276524 1.129234,0.46078 0.138262,0.09227 0.161119,0.276525 0.115404,0.414787 -0.06913,0.09227 -0.184536,0.138262 -0.253667,0.138262 -0.06913,0 -0.138262,0 -0.16112,-0.02314 -0.323076,-0.16112 -0.668731,-0.322519 -1.014386,-0.437644 z m 0.23053,9.678904 c 0.345655,-0.115125 0.668173,-0.299382 0.99125,-0.483638 0.138262,-0.06913 0.32224,-0.04627 0.391371,0.115125 0.09227,0.09227 0.04627,0.276524 -0.06913,0.368513 -0.368514,0.207394 -0.737305,0.391929 -1.106097,0.529912 h -0.115126 c -0.115404,0 -0.230251,-0.04599 -0.276524,-0.16112 -0.04627,-0.161398 0.04627,-0.322518 0.184257,-0.368792 z m 0.391649,-4.885446 c -0.138262,0 -0.276524,-0.115126 -0.276524,-0.276524 0,-0.16112 0.138262,-0.276525 0.276524,-0.276525 h 1.175507 c 0.184256,0 0.276524,0.115405 0.276524,0.276525 0,0.161398 -0.09227,0.276524 -0.276524,0.276524 z m 1.244638,-3.710219 c -0.115404,-0.115404 -0.115404,-0.299661 0,-0.414786 0.115125,-0.115126 0.299382,-0.138262 0.437644,-0.02314 0.276524,0.276524 0.530191,0.576185 0.806715,0.92184 0.06913,0.115405 0.04599,0.322798 -0.115126,0.414787 -0.04627,0.02314 -0.115404,0.04627 -0.16112,0.04627 -0.09227,0 -0.161398,-0.04627 -0.230529,-0.138262 -0.207672,-0.29994 -0.438202,-0.576464 -0.737584,-0.806715 z m 0.184256,7.420438 c 0.253388,-0.253388 0.507054,-0.553049 0.691311,-0.875846 0.09227,-0.09227 0.253388,-0.161399 0.414508,-0.06913 0.115404,0.06913 0.161398,0.253387 0.09227,0.391649 -0.253387,0.368792 -0.506775,0.668174 -0.783578,0.968114 -0.02314,0.06913 -0.115125,0.09199 -0.207393,0.09199 -0.06913,0 -0.138262,-0.02286 -0.207393,-0.09199 -0.114847,-0.115404 -0.114847,-0.299661 2.78e-4,-0.414786 z m 0.898704,-3.710219 c -0.138262,0 -0.276245,-0.115126 -0.276245,-0.276524 0,-0.16112 0.137983,-0.276525 0.276245,-0.276525 h 0.876125 c 0.138262,0 0.299382,0.115405 0.299382,0.276525 0,0.161398 -0.16112,0.276524 -0.299382,0.276524 z M 32.9001,68.938423 c -0.09199,-0.137983 0,-0.299382 0.138262,-0.368513 0.138262,-0.06913 0.322798,0 0.391929,0.184256 0.138262,0.322519 0.253387,0.737584 0.322518,1.15237 0.04599,0.138263 -0.04599,0.299661 -0.207393,0.345656 h -0.06913 c -0.115125,0 -0.253387,-0.115126 -0.299661,-0.23053 -0.04599,-0.39165 -0.161119,-0.737584 -0.276525,-1.083239 z"
    style="fill:#d40213;stroke-width:0.278754" 
	/>
  <path
    d="m 37.303023,65.59839 c 0,-0.138262 0.115126,-0.299382 0.299661,-0.299382 0.138262,0 0.299382,0.16112 0.299382,0.299382 v 1.198364 c 0,0.184536 -0.16112,0.299661 -0.299382,0.299661 -0.184535,0 -0.299661,-0.115125 -0.299661,-0.299661 z m 0,2.397007 c 0,-0.161398 0.115126,-0.322797 0.299661,-0.322797 0.138262,0 0.299382,0.161399 0.299382,0.322797 v 1.175228 c 0,0.184257 -0.16112,0.299661 -0.299382,0.299661 -0.184535,0 -0.299661,-0.115404 -0.299661,-0.299661 z m 0,3.064903 v -0.69131 c 0,-0.16112 0.115126,-0.299382 0.299661,-0.299382 h 0.04599 c 0.02314,-0.04627 0.06913,-0.115405 0.09227,-0.184536 0.04599,-0.16112 0.207393,-0.230251 0.368792,-0.16112 0.16112,0.046 0.230251,0.230251 0.183978,0.39165 -0.230251,0.506775 -0.345377,0.852709 -0.39165,0.990971 v 0.460502 c 0,0.161399 -0.16112,0.276525 -0.299382,0.276525 -0.184535,0 -0.299661,-0.115126 -0.299661,-0.276525 z m 0,1.682282 c 0,-0.161399 0.115126,-0.299661 0.299661,-0.299661 0.138262,0 0.299382,0.138262 0.299382,0.299661 v 1.198364 c 0,0.16112 -0.16112,0.299382 -0.299382,0.299382 -0.184535,0 -0.299661,-0.138262 -0.299661,-0.299382 z m 0,2.39645 c 0,-0.161399 0.115126,-0.322519 0.299661,-0.322519 0.138262,0 0.299382,0.16112 0.299382,0.322519 v 1.175228 c 0,0.184535 -0.16112,0.299661 -0.299382,0.299661 -0.184535,0 -0.299661,-0.115126 -0.299661,-0.299661 z m 0.967835,-6.337199 c 0.207393,-0.368791 0.414786,-0.737583 0.668453,-1.060381 0.09199,-0.138262 0.276524,-0.16112 0.414786,-0.06913 0.114847,0.115405 0.16112,0.276524 0.06913,0.437923 -0.230809,0.322519 -0.438202,0.645037 -0.622179,0.944977 -0.06913,0.115126 -0.138263,0.184257 -0.276525,0.184257 -0.04627,0 -0.09255,-0.046 -0.138262,-0.06913 -0.16112,-0.046 -0.184535,-0.253388 -0.115404,-0.368514 z m 1.474889,-2.005079 c 0.299382,-0.253387 0.645037,-0.529912 0.990971,-0.783578 0.138262,-0.04599 0.322797,-0.02314 0.414786,0.138262 0.09199,0.115126 0.02286,0.322519 -0.09199,0.39165 -0.322797,0.184256 -0.622179,0.437923 -0.898982,0.714447 -0.04627,0.04599 -0.16112,0.06913 -0.207393,0.06913 -0.09199,0 -0.138262,-0.02314 -0.207393,-0.06913 -0.114847,-0.137983 -0.114847,-0.345377 0,-0.460781 z m 2.14362,-1.267495 c 0.391371,-0.115126 0.806436,-0.184257 1.24408,-0.230251 0.161677,0 0.299939,0.16112 0.299939,0.299382 0,0.184535 -0.115404,0.299661 -0.299939,0.299661 -0.368513,0.04599 -0.737305,0.09199 -1.08296,0.184256 0,0 -0.04627,0.02314 -0.06913,0.02314 -0.138263,0 -0.276525,-0.09227 -0.299382,-0.23053 -0.04627,-0.138262 0.02286,-0.299382 0.207393,-0.345655 z"
    style="fill:#d40213;stroke-width:0.278754" 
	/>
  <path
    d="m 47.419014,65.59839 c 0,-0.138262 0.115405,-0.299382 0.29994,-0.299382 0.138262,0 0.299382,0.16112 0.299382,0.299382 v 1.198364 c 0,0.184536 -0.16112,0.299661 -0.299382,0.299661 -0.184535,0 -0.29994,-0.115125 -0.29994,-0.299661 z m 0,2.397007 c 0,-0.161398 0.115405,-0.322797 0.29994,-0.322797 0.138262,0 0.299382,0.161399 0.299382,0.322797 v 1.175228 c 0,0.184257 -0.16112,0.299661 -0.299382,0.299661 -0.184535,0 -0.29994,-0.115404 -0.29994,-0.299661 z m 0,3.064903 v -0.69131 c 0,-0.16112 0.115405,-0.299382 0.29994,-0.299382 h 0.04572 c 0.02341,-0.04627 0.06913,-0.115405 0.09255,-0.184536 0.04572,-0.16112 0.206836,-0.230251 0.368513,-0.16112 0.16112,0.046 0.230251,0.230251 0.183978,0.39165 -0.230251,0.506775 -0.345655,0.852709 -0.391371,0.990971 v 0.460502 c 0,0.161399 -0.16112,0.276525 -0.299382,0.276525 -0.184535,0 -0.29994,-0.115126 -0.29994,-0.276525 z m 0,1.682282 c 0,-0.161399 0.115405,-0.299661 0.29994,-0.299661 0.138262,0 0.299382,0.138262 0.299382,0.299661 v 1.198364 c 0,0.16112 -0.16112,0.299382 -0.299382,0.299382 -0.184535,0 -0.29994,-0.138262 -0.29994,-0.299382 z m 0,2.39645 c 0,-0.161399 0.115405,-0.322519 0.29994,-0.322519 0.138262,0 0.299382,0.16112 0.299382,0.322519 v 1.175228 c 0,0.184535 -0.16112,0.299661 -0.299382,0.299661 -0.184535,0 -0.29994,-0.115126 -0.29994,-0.299661 z m 0.967835,-6.337199 c 0.207393,-0.368791 0.414786,-0.737583 0.668453,-1.060381 0.09199,-0.138262 0.276524,-0.16112 0.414228,-0.06913 0.115405,0.115405 0.161678,0.276524 0.06913,0.437923 -0.23025,0.322519 -0.437644,0.645037 -0.621621,0.944977 -0.06913,0.115126 -0.138263,0.184257 -0.276525,0.184257 -0.04627,0 -0.09255,-0.046 -0.138262,-0.06913 -0.161677,-0.046 -0.184535,-0.253388 -0.115404,-0.368514 z m 1.474889,-2.005079 c 0.299382,-0.253387 0.645873,-0.529912 0.991528,-0.783578 0.138263,-0.04599 0.32224,-0.02314 0.414787,0.138262 0.09199,0.115126 0.02286,0.322519 -0.09255,0.39165 -0.32224,0.184256 -0.622179,0.437923 -0.898982,0.714447 -0.04627,0.04599 -0.16112,0.06913 -0.207393,0.06913 -0.09199,0 -0.138262,-0.02314 -0.207393,-0.06913 -0.115405,-0.137983 -0.115405,-0.345377 0,-0.460781 z m 2.14362,-1.267495 c 0.391928,-0.115126 0.806993,-0.184257 1.244637,-0.230251 0.16112,0 0.299382,0.16112 0.299382,0.299382 0,0.184535 -0.115404,0.299661 -0.299382,0.299661 -0.368513,0.04599 -0.737583,0.09199 -1.083517,0.184256 0,0 -0.04572,0.02314 -0.06913,0.02314 -0.138263,0 -0.276525,-0.09227 -0.299382,-0.23053 -0.04627,-0.138262 0.02286,-0.299382 0.207393,-0.345655 z"
    style="fill:#d40213;stroke-width:0.278754" 
	/>
  <path
    d="m 56.431139,70.967196 c 0,-0.345655 0.02341,-0.714447 0.115404,-1.060102 0.02286,-0.138262 0.183978,-0.276524 0.32224,-0.253388 0.184535,0.046 0.253666,0.184257 0.230808,0.368513 -0.04627,0.322519 -0.09255,0.62218 -0.09255,0.944977 v 0.115405 c 0,0.184256 -0.114847,0.322518 -0.253109,0.322518 h -0.02341 c -0.16112,0 -0.299382,-0.138262 -0.299382,-0.299661 z m 0.138262,1.359763 c -0.02286,-0.161398 0.09199,-0.29966 0.230251,-0.345655 0.138262,-0.06913 0.322797,0.046 0.345655,0.207393 0.09255,0.368792 0.207393,0.714447 0.345655,1.037245 0.09255,0.137983 0,0.322518 -0.138262,0.368513 -0.02286,0.04599 -0.04572,0.04599 -0.114847,0.04599 -0.115404,0 -0.184535,-0.06913 -0.253666,-0.184256 -0.184257,-0.345934 -0.299382,-0.737584 -0.414786,-1.129234 z m 0.29966,-3.595093 c 0.184536,-0.368792 0.345656,-0.737584 0.576464,-1.060381 0.09199,-0.16112 0.299382,-0.16112 0.414787,-0.09199 0.138262,0.09199 0.161119,0.253388 0.06913,0.414786 -0.184536,0.276246 -0.369071,0.599043 -0.507333,0.944698 -0.06913,0.115405 -0.16112,0.207394 -0.276524,0.207394 -0.04572,0 -0.09199,-0.02286 -0.09199,-0.02286 -0.16112,-0.06913 -0.253667,-0.23053 -0.184536,-0.39165 z m 0.760442,5.761293 c -0.138262,-0.115405 -0.09199,-0.276525 0.04627,-0.391929 0.115404,-0.09199 0.276524,-0.06885 0.391929,0.04627 0.206835,0.299382 0.48336,0.553049 0.760162,0.829573 0.115405,0.06913 0.115405,0.253666 0.04627,0.391928 -0.06913,0.04599 -0.16112,0.09199 -0.253667,0.09199 -0.04572,0 -0.114846,-0.04599 -0.16112,-0.04599 -0.323076,-0.276803 -0.599042,-0.553327 -0.829851,-0.92184 z m 0.622458,-7.743235 c 0.299382,-0.299383 0.62218,-0.529912 0.990972,-0.737584 0.115404,-0.06913 0.322797,-0.02314 0.368513,0.09227 0.09255,0.138263 0.02341,0.322519 -0.09199,0.414787 -0.32224,0.16112 -0.598764,0.391649 -0.898983,0.6219 -0.04572,0.06913 -0.114846,0.09227 -0.16112,0.09227 -0.09199,0 -0.184535,-0.02314 -0.230251,-0.09227 -0.09283,-0.114846 -0.09283,-0.276245 0.02286,-0.39137 z m 1.221501,9.310112 c -0.161677,-0.06913 -0.207393,-0.230251 -0.161677,-0.368513 0.09255,-0.138262 0.276524,-0.207393 0.414786,-0.138262 0.322797,0.16112 0.668453,0.276524 1.014387,0.368513 0.183978,0.02314 0.276524,0.184535 0.230251,0.345655 -0.02286,0.138262 -0.16112,0.23053 -0.276524,0.23053 h -0.06913 c -0.414786,-0.115404 -0.806714,-0.23053 -1.152091,-0.437923 z m 0.898425,-10.531614 c 0.369071,-0.115125 0.783578,-0.184256 1.198365,-0.207393 0.161677,0 0.299939,0.115405 0.299939,0.299661 0,0.161399 -0.115404,0.276524 -0.299939,0.276524 -0.368514,0.04599 -0.714448,0.09199 -1.060103,0.184257 -0.02286,0.02314 -0.06913,0.02314 -0.06913,0.02314 -0.114847,0 -0.253109,-0.09227 -0.276524,-0.207393 -0.04572,-0.161398 0.02341,-0.322518 0.207393,-0.368792 z m 1.452031,10.508756 c 0.368513,0 0.76072,-0.04627 1.08296,-0.138262 0.161678,-0.04627 0.29994,0.046 0.369071,0.207393 0,0.16112 -0.06913,0.299382 -0.207393,0.368513 -0.414787,0.06913 -0.806994,0.138262 -1.22178,0.138262 -0.183978,0 -0.276524,-0.115125 -0.276524,-0.29966 -0.04572,-0.137984 0.09255,-0.276246 0.253666,-0.276246 z m 0.875567,-10.047975 c -0.183978,-0.04599 -0.275967,-0.16112 -0.253109,-0.322518 0.02286,-0.16112 0.183978,-0.253388 0.345655,-0.230251 0.414787,0.09199 0.783579,0.207393 1.175507,0.391649 0.137705,0.06913 0.183978,0.253388 0.114847,0.39165 -0.04627,0.09227 -0.16112,0.161399 -0.253109,0.161399 -0.04627,0 -0.115404,0 -0.115404,-0.04627 -0.323077,-0.138262 -0.69159,-0.253387 -1.014387,-0.345655 z m 1.198643,9.494927 c 0.32224,-0.184257 0.645037,-0.368792 0.898425,-0.62218 0.115404,-0.09227 0.322797,-0.06913 0.414786,0.046 0.115405,0.115404 0.115405,0.276524 -0.04572,0.391928 -0.276525,0.276246 -0.62218,0.506775 -0.968114,0.691032 -0.06913,0.04627 -0.09255,0.04627 -0.161677,0.04627 -0.06857,0 -0.206836,-0.04627 -0.253109,-0.138262 -0.06913,-0.161399 0,-0.322797 0.115404,-0.414786 z m 0.737305,-8.572808 c -0.115404,-0.09227 -0.16112,-0.253387 -0.06913,-0.391649 0.115404,-0.138263 0.276524,-0.138263 0.391928,-0.04627 0.32224,0.23053 0.621622,0.529912 0.875568,0.875846 0.138262,0.115126 0.09199,0.299661 -0.02286,0.414786 -0.04627,0.02314 -0.138262,0.04599 -0.207393,0.04599 -0.06913,0 -0.16112,-0.04599 -0.230251,-0.115126 -0.207672,-0.299939 -0.461339,-0.553327 -0.737863,-0.783578 z m 0.898982,7.143914 c 0.230251,-0.276525 0.391371,-0.599043 0.553049,-0.944977 0.04572,-0.138262 0.207393,-0.207393 0.368513,-0.138262 0.138262,0.04627 0.207393,0.230529 0.16112,0.368792 -0.16112,0.391649 -0.368513,0.714447 -0.598764,1.083238 -0.04627,0.046 -0.161678,0.115126 -0.230809,0.115126 -0.06913,0 -0.114846,-0.04599 -0.183977,-0.06913 -0.138541,-0.09227 -0.161399,-0.299661 -0.06913,-0.414786 z m 0.437645,-5.415638 c -0.06913,-0.161398 0,-0.322518 0.115404,-0.391649 0.16112,-0.09227 0.32224,-0.04627 0.414786,0.115125 0.16112,0.345656 0.32224,0.760721 0.414786,1.129234 0.02286,0.161398 -0.06913,0.322518 -0.207393,0.368791 h -0.09255 c -0.114847,0 -0.230251,-0.09227 -0.253109,-0.230529 -0.09255,-0.345934 -0.230808,-0.69159 -0.391928,-0.990972 z m 0.437644,3.433695 c 0.06913,-0.345655 0.09255,-0.737584 0.09255,-1.106375 v -0.230251 c 0,-0.161399 0.114847,-0.276525 0.299382,-0.322798 0.138262,0 0.299382,0.115404 0.299382,0.299661 v 0.253388 c 0,0.437922 -0.04627,0.829851 -0.138262,1.221501 -0.02286,0.138262 -0.138262,0.230529 -0.299382,0.230529 h -0.04627 c -0.138262,-0.02286 -0.230251,-0.207393 -0.207393,-0.345655 z"
    style="fill:#d40213;stroke-width:0.278754" 
	/>
  <path
    d="m 70.906846,65.59839 c 0,-0.138262 0.114846,-0.299382 0.299382,-0.299382 0.138262,0 0.299382,0.16112 0.299382,0.299382 v 1.198364 c 0,0.184536 -0.16112,0.299661 -0.299382,0.299661 -0.184536,0 -0.299382,-0.115125 -0.299382,-0.299661 z m 0,2.397007 c 0,-0.161398 0.114846,-0.322797 0.299382,-0.322797 0.138262,0 0.299382,0.161399 0.299382,0.322797 v 1.175228 c 0,0.184257 -0.16112,0.299661 -0.299382,0.299661 -0.184536,0 -0.299382,-0.115404 -0.299382,-0.299661 z m 0,3.064903 v -0.69131 c 0,-0.16112 0.114846,-0.299382 0.299382,-0.299382 h 0.04627 c 0.02286,-0.04627 0.06913,-0.115405 0.09199,-0.184536 0.04627,-0.16112 0.207393,-0.230251 0.368513,-0.16112 0.161677,0.046 0.230808,0.230251 0.184535,0.39165 -0.230251,0.506775 -0.345655,0.852709 -0.391928,0.990971 v 0.460502 c 0,0.161399 -0.16112,0.276525 -0.299382,0.276525 -0.184536,0 -0.299382,-0.115126 -0.299382,-0.276525 z m 0,1.682282 c 0,-0.161399 0.114846,-0.299661 0.299382,-0.299661 0.138262,0 0.299382,0.138262 0.299382,0.299661 v 1.198364 c 0,0.16112 -0.16112,0.299382 -0.299382,0.299382 -0.184536,0 -0.299382,-0.138262 -0.299382,-0.299382 z m 0,2.39645 c 0,-0.161399 0.114846,-0.322519 0.299382,-0.322519 0.138262,0 0.299382,0.16112 0.299382,0.322519 v 1.175228 c 0,0.184535 -0.16112,0.299661 -0.299382,0.299661 -0.184536,0 -0.299382,-0.115126 -0.299382,-0.299661 z m 0.968113,-6.337199 c 0.206836,-0.368791 0.414229,-0.737583 0.667895,-1.060381 0.09199,-0.138262 0.276525,-0.16112 0.414787,-0.06913 0.115404,0.115405 0.16112,0.276524 0.06913,0.437923 -0.230251,0.322519 -0.437644,0.645037 -0.62218,0.944977 -0.06913,0.115126 -0.138262,0.184257 -0.276524,0.184257 -0.04627,0 -0.09199,-0.046 -0.138262,-0.06913 -0.16112,-0.046 -0.183978,-0.253388 -0.114847,-0.368514 z m 1.474889,-2.005079 c 0.299382,-0.253387 0.645037,-0.529912 0.990971,-0.783578 0.138262,-0.04599 0.32224,-0.02314 0.414786,0.138262 0.09199,0.115126 0.02286,0.322519 -0.09255,0.39165 -0.32224,0.184256 -0.622179,0.437923 -0.898982,0.714447 -0.04572,0.04599 -0.16112,0.06913 -0.207394,0.06913 -0.09199,0 -0.137704,-0.02314 -0.206835,-0.06913 -0.115404,-0.137983 -0.115404,-0.345377 0,-0.460781 z m 2.142784,-1.267495 c 0.391928,-0.115126 0.806993,-0.184257 1.244637,-0.230251 0.16112,0 0.299382,0.16112 0.299382,0.299382 0,0.184535 -0.115404,0.299661 -0.299382,0.299661 -0.368513,0.04599 -0.737583,0.09199 -1.083517,0.184256 0,0 -0.04572,0.02314 -0.06913,0.02314 -0.138262,0 -0.276524,-0.09227 -0.299382,-0.23053 -0.04627,-0.138262 0.02286,-0.299382 0.207394,-0.345655 z"
    style="fill:#d40213;stroke-width:0.278754" 
	/>
  <path
    d="m 32.419249,40.616436 v 7.397858 h -6.929551 v 5.665401 H 18.091839 V 48.014294 H 9.2425075 c -3.4649151,0 -6.7425073,-1.966611 -6.7425073,-5.759062 0,-1.591966 0.6556299,-3.09027 1.5919654,-4.35442 L 14.580094,24.04143 h 10.909604 v 16.575006 z m -14.327688,-8.896163 -6.695677,8.896163 h 6.695677 z"
    style="fill:#d40213;stroke-width:0.278754"
	/>
  <path
    d="m 65.239772,39.024749 c 0,8.427855 -6.648846,15.63867 -15.217193,15.63867 -8.568348,0 -15.264024,-7.210536 -15.264024,-15.63867 0,-8.474686 6.695676,-15.63867 15.264024,-15.63867 8.568347,0 15.217193,7.163984 15.217193,15.63867 z m -7.351028,0 c 0,-4.40125 -3.371253,-8.287363 -7.866165,-8.287363 -4.494912,0 -7.912996,3.886113 -7.912996,8.287363 0,4.35442 3.371253,8.240811 7.912996,8.240811 4.494912,-2.78e-4 7.866165,-3.886391 7.866165,-8.240811 z"
    style="fill:#d40213;stroke-width:0.278754" 
	/>
  <path
    d="m 97.499999,40.616436 v 7.397858 h -6.929551 v 5.665401 h -7.397859 v -5.665401 h -8.849331 c -3.464915,0 -6.742508,-1.966611 -6.742508,-5.759062 0,-1.591966 0.65563,-3.09027 1.591966,-4.35442 L 79.660844,24.04143 h 10.909604 v 16.575006 z m -14.32741,-8.896163 -6.695676,8.896163 h 6.695676 z"
    style="fill:#d40213;stroke-width:0.278754" 
	/>
</svg>
