<svg
  xmlns="http://www.w3.org/2000/svg"
  viewBox="0 0 100 100"
  height="1"
  width="1"
>
  <path
    d="M 43.21429,56.78571 H 9.28571 q -2.88392,0 -4.83482,-1.95089 Q 2.5,52.88393 2.5,50 q 0,-2.88393 1.95089,-4.83482 1.9509,-1.95089 4.83482,-1.95089 H 43.21429 V 9.28571 q 0,-2.88392 1.95089,-4.83482 Q 47.11607,2.5 50,2.5 q 2.88393,0 4.83482,1.95089 1.95089,1.9509 1.95089,4.83482 v 33.92858 h 33.92858 q 2.88392,0 4.83482,1.95089 Q 97.5,47.11607 97.5,50 q 0,2.88393 -1.95089,4.83482 -1.9509,1.95089 -4.83482,1.95089 H 56.78571 v 33.92858 q 0,2.88392 -1.95089,4.83482 Q 52.88393,97.5 50,97.5 q -2.88393,0 -4.83482,-1.95089 -1.95089,-1.9509 -1.95089,-4.83482 z"
    style="stroke-width:0.169643" 
	/>
</svg>
