<?xml version="1.0" encoding="UTF-8" standalone="no"?>
<svg
   height="1"
   viewBox="0 0 100 100"
   width="1"
   fill="#e8eaed"
   version="1.1"
   id="svg1173"
   xmlns="http://www.w3.org/2000/svg"
   xmlns:svg="http://www.w3.org/2000/svg">
  <defs
     id="defs1177" />
  <path
     d="m 13.809525,71.14881 q 1.13095,-0.33929 2.20536,-0.56548 1.0744,-0.22619 2.31845,-0.22619 h 4.52381 V 16.07143 h -4.52381 q -1.92262,0 -3.22322,1.30059 -1.30059,1.3006 -1.30059,3.22322 z M 18.333335,97.5 q -5.65476,0 -9.6131,-3.95833 -3.95833,-3.95834 -3.95833,-9.6131 V 20.59524 q 0,-5.65476 3.95833,-9.6131 3.95834,-3.95833 9.6131,-3.95833 h 27.14286 q 1.92261,0 3.22321,1.30059 1.3006,1.3006 1.3006,3.22322 0,1.92262 -1.3006,3.22321 -1.3006,1.3006 -3.22321,1.3006 h -13.57143 v 54.28571 h 27.14285 v -9.04762 q 0,-1.92262 1.3006,-3.22321 1.30059,-1.3006 3.22321,-1.3006 1.92262,0 3.22322,1.3006 1.30059,1.30059 1.30059,3.22321 v 18.09524 h -49.7619 q -1.92262,0 -3.22322,1.3006 -1.30059,1.30059 -1.30059,3.22321 0,1.92262 1.30059,3.22322 1.3006,1.30059 3.22322,1.30059 h 58.80952 V 56.78571 q 0,-1.92261 1.3006,-3.22321 1.30059,-1.3006 3.22321,-1.3006 1.92262,0 3.22322,1.3006 1.30059,1.3006 1.30059,3.22321 v 31.66667 q 0,3.73214 -2.65774,6.38988 Q 80.875005,97.5 77.142855,97.5 Z M 13.809525,71.14881 V 16.07143 Z M 70.357145,52.2619 q 0,-10.40476 7.23809,-17.64285 7.2381,-7.2381 17.64286,-7.2381 -10.40476,0 -17.64286,-7.23809 -7.23809,-7.2381 -7.23809,-17.64286 0,10.40476 -7.2381,17.64286 -7.23809,7.23809 -17.64285,7.23809 10.40476,0 17.64285,7.2381 7.2381,7.23809 7.2381,17.64285 z"
     id="path1171"
     style="fill:#000000;stroke-width:0.1;stroke-dasharray:none" />
</svg>
