<?xml version="1.0" encoding="UTF-8" standalone="no"?>
<svg
   height="1"
   viewBox="0 0 100 100"
   width="1"
   fill="#e8eaed"
   version="1.1"
   id="svg1298"
   xmlns="http://www.w3.org/2000/svg"
   xmlns:svg="http://www.w3.org/2000/svg">
  <defs
     id="defs1302" />
  <path
     d="m 25.99278,97.5 q -5.1444,0 -8.85981,-3.48676 -3.7154,-3.48677 -3.7154,-8.63117 V 21.59146 q 0,-4.34417 2.68652,-7.77377 2.68652,-3.4296 7.03069,-4.34416 L 57.43081,2.72864 q 4.22984,-0.91456 7.54512,1.82912 3.31529,2.74368 3.31529,7.08785 v 54.53068 q 0,3.31529 -2.05777,5.88749 -2.05776,2.5722 -5.25872,3.1438 L 24.9639,82.40975 q -1.02888,0.22864 -1.7148,1.08604 -0.68592,0.8574 -0.68592,1.88628 0,1.25752 1.02888,2.11492 1.02888,0.8574 2.40072,0.8574 H 77.43682 V 19.76233 q 0,-1.94344 1.31469,-3.25812 1.31468,-1.31468 3.25812,-1.31468 1.94344,0 3.25812,1.31468 1.31468,1.31468 1.31468,3.25812 v 68.59206 q 0,3.77257 -2.68652,6.45909 Q 81.20939,97.5 77.43682,97.5 Z M 36.28159,70.86342 59.14561,66.40493 v -54.645 l -22.86402,4.45848 z m -9.14561,1.82912 V 18.04753 l -1.7148,0.34296 q -1.25752,0.22864 -2.05776,1.08604 -0.80024,0.85741 -0.80024,2.11493 v 52.24428 q 0.5716,-0.22864 1.20036,-0.40012 0.62876,-0.17148 1.20036,-0.2858 z m -4.5728,-54.30205 v 55.44525 z"
     id="path1296"
     style="fill:#000000;stroke-width:0.1;stroke-dasharray:none" />
</svg>
