<?xml version="1.0" encoding="UTF-8" standalone="no"?>
<svg
   height="1"
   viewBox="0 0 100 100"
   width="1"
   fill="#e8eaed"
   version="1.1"
   id="svg1115"
   xmlns="http://www.w3.org/2000/svg"
   xmlns:svg="http://www.w3.org/2000/svg">
  <defs
     id="defs1119" />
  <path
     d="M 21.5,65.79375 Q 23.1625,64.9625 24.94375,64.60625 26.725,64.25 28.625,64.25 H 31 V 12 H 28.625 Q 25.65625,12 23.57812,14.07812 21.5,16.15625 21.5,19.125 Z M 40.5,64.25 h 38 V 12 h -38 z m -19,1.54375 V 12 Z M 28.625,97.5 Q 21.7375,97.5 16.86875,92.63125 12,87.7625 12,80.875 V 19.125 Q 12,12.2375 16.86875,7.36875 21.7375,2.5 28.625,2.5 H 78.5 q 3.91875,0 6.70938,2.79062 Q 88,8.08125 88,12 v 59.49375 q 0,0.95 -0.77187,1.72187 -0.77188,0.77188 -2.79063,1.72188 -1.6625,0.83125 -2.6125,2.375 -0.95,1.54375 -0.95,3.5625 0,2.01875 0.95,3.62187 Q 82.775,86.1 84.4375,86.8125 86.1,87.525 87.05,88.77187 88,90.01875 88,91.44375 v 1.1875 Q 88,94.65 86.63438,96.075 85.26875,97.5 83.25,97.5 Z m 0,-9.5 H 72.91875 Q 72.20625,86.3375 71.79063,84.61562 71.375,82.89375 71.375,80.875 q 0,-1.9 0.35625,-3.68125 Q 72.0875,75.4125 72.91875,73.75 H 28.625 q -3.0875,0 -5.10625,2.07812 Q 21.5,77.90625 21.5,80.875 q 0,3.0875 2.01875,5.10625 Q 25.5375,88 28.625,88 Z"
     id="path1113"
     style="fill:#000000;stroke-width:0;stroke-dasharray:none" />
</svg>
