<svg
  xmlns="http://www.w3.org/2000/svg"
  viewBox="0 0 100 100"
  height="1"
  width="1"
>
  <path
    d="M 45.68182,58.63636 Z M 11.136365,93.18182 q -3.5624995,0 -6.0994315,-2.53694 -2.536932,-2.53693 -2.536932,-6.09943 V 32.72727 q 0,-3.5625 2.536932,-6.09943 2.536932,-2.53693 6.0994315,-2.53693 h 13.602273 l 5.397727,-5.82955 q 1.1875,-1.29545 2.860796,-2.05113 1.673295,-0.75569 3.508523,-0.75569 h 17.8125 q 1.835227,0 3.076704,1.24148 1.241478,1.24148 1.241478,3.07671 0,1.83522 -1.241478,3.0767 -1.241477,1.24148 -3.076704,1.24148 h -17.8125 l -7.880682,8.63636 H 11.136365 V 84.54545 H 80.227279 V 50 q 0,-1.83523 1.24147,-3.07671 1.241479,-1.24147 3.07671,-1.24147 1.83522,0 3.0767,1.24147 1.24148,1.24148 1.24148,3.07671 v 34.54545 q 0,3.5625 -2.53693,6.09943 -2.53693,2.53694 -6.09943,2.53694 z M 80.227279,24.09091 h -4.318191 q -1.835219,0 -3.076699,-1.24148 -1.24148,-1.24148 -1.24148,-3.0767 0,-1.83523 1.24148,-3.07671 1.24148,-1.24148 3.076699,-1.24148 h 4.318191 v -4.31818 q 0,-1.83523 1.24147,-3.0767 1.241479,-1.24148 3.07671,-1.24148 1.83522,0 3.0767,1.24148 1.24148,1.24147 1.24148,3.0767 v 4.31818 h 4.31818 q 1.83523,0 3.07671,1.24148 1.24147,1.24148 1.24147,3.07671 0,1.83522 -1.24147,3.0767 -1.24148,1.24148 -3.07671,1.24148 h -4.31818 v 4.31818 q 0,1.83523 -1.24148,3.0767 -1.24148,1.24148 -3.0767,1.24148 -1.83523,0 -3.07671,-1.24148 -1.24147,-1.24147 -1.24147,-3.0767 z M 45.68182,78.06818 q 8.096591,0 13.764205,-5.66761 5.667614,-5.66762 5.667614,-13.76421 0,-8.09659 -5.667614,-13.7642 -5.667614,-5.66762 -13.764205,-5.66762 -8.096591,0 -13.764205,5.66762 -5.667613,5.66761 -5.667613,13.7642 0,8.09659 5.667613,13.76421 5.667614,5.66761 13.764205,5.66761 z m 0,-8.63636 q -4.534091,0 -7.664773,-3.13069 -3.130682,-3.13068 -3.130682,-7.66477 0,-4.53409 3.130682,-7.66477 3.130682,-3.13068 7.664773,-3.13068 4.534091,0 7.664773,3.13068 3.130682,3.13068 3.130682,7.66477 0,4.53409 -3.130682,7.66477 -3.130683,3.13069 -7.664773,3.13069 z"
    style="stroke-width:0.107955" 
	/>
</svg>
