<?xml version="1.0" encoding="UTF-8" standalone="no"?>
<svg
   height="1"
   viewBox="0 0 100 100"
   width="1"
   fill="#e8eaed"
   version="1.1"
   id="svg1423"
   xmlns="http://www.w3.org/2000/svg"
   xmlns:svg="http://www.w3.org/2000/svg">
  <defs
     id="defs1427" />
  <path
     d="m 18.33333,81.66667 v 2.63889 c 0,2.19907 -0.76967,4.06828 -2.30902,5.60764 -1.53936,1.53935 -3.40857,2.30902 -5.60764,2.30902 -2.19908,0 -4.06829,-0.76967 -5.60764,-2.30902 C 3.26968,88.37384 2.5,86.50463 2.5,84.30556 V 46.56945 c 0,-0.61574 0.044,-1.23148 0.13194,-1.84723 0.088,-0.61574 0.21991,-1.1875 0.39584,-1.71527 L 12.92361,14.90278 C 13.62731,12.79167 14.90278,11.07639 16.75,9.75695 18.59722,8.4375 20.66435,7.77778 22.95139,7.77778 h 54.09722 c 2.28704,0 4.35417,0.65972 6.20139,1.97917 1.84722,1.31944 3.12269,3.03472 3.82639,5.14583 l 9.89583,28.10417 c 0.17593,0.52777 0.30787,1.09953 0.39584,1.71527 0.088,0.61575 0.13194,1.23149 0.13194,1.84723 v 37.73611 c 0,2.19907 -0.76968,4.06828 -2.30903,5.60764 -1.53935,1.53935 -3.40856,2.30902 -5.60764,2.30902 -2.19907,0 -4.06828,-0.76967 -5.60764,-2.30902 -1.53935,-1.53936 -2.30902,-3.40857 -2.30902,-5.60764 v -2.63889 z m -1.05555,-47.5 H 82.72222 L 77.18056,18.33334 H 22.81944 Z M 13.05556,44.72222 V 71.11111 Z M 26.25,65.83334 c 2.19907,0 4.06829,-0.76968 5.60764,-2.30903 1.53935,-1.53935 2.30903,-3.40857 2.30903,-5.60764 0,-2.19908 -0.76968,-4.06829 -2.30903,-5.60764 C 30.31829,50.76968 28.44907,50 26.25,50 c -2.19907,0 -4.06829,0.76968 -5.60764,2.30903 -1.53935,1.53935 -2.30903,3.40856 -2.30903,5.60764 0,2.19907 0.76968,4.06829 2.30903,5.60764 1.53935,1.53935 3.40857,2.30903 5.60764,2.30903 z m 47.5,0 c 2.19907,0 4.06829,-0.76968 5.60764,-2.30903 1.53935,-1.53935 2.30903,-3.40857 2.30903,-5.60764 0,-2.19908 -0.76968,-4.06829 -2.30903,-5.60764 C 77.81829,50.76968 75.94907,50 73.75,50 c -2.19907,0 -4.06829,0.76968 -5.60764,2.30903 -1.53935,1.53935 -2.30903,3.40856 -2.30903,5.60764 0,2.19907 0.76968,4.06829 2.30903,5.60764 1.53935,1.53935 3.40857,2.30903 5.60764,2.30903 z M 13.05556,71.11111 H 86.94444 V 44.72222 H 13.05556 Z"
     id="path1421"
     style="fill:#000000;stroke-width:0.1;stroke-dasharray:none" />
</svg>
