<svg
  xmlns="http://www.w3.org/2000/svg"
  viewBox="0 0 100 100"
  height="1"
  width="1"
>
  <path
    d="m 20.925678,49.344661 q 0,5.87098 2.310921,11.24231 2.310919,5.37132 6.4331,9.4935 l 1.24915,1.24915 v -7.24505 q 0,-2.12354 1.43651,-3.56006 1.43652,-1.43652 3.56007,-1.43652 2.12354,0 3.560059,1.43652 1.436521,1.43652 1.436521,3.56006 v 19.986331 q 0,2.12355 -1.436521,3.560059 -1.436519,1.436521 -3.560059,1.436521 H 15.929098 q -2.12355,0 -3.560059,-1.436521 -1.436521,-1.436509 -1.436521,-3.560059 0,-2.123551 1.436521,-3.56007 1.436509,-1.43651 3.560059,-1.43651 h 8.74402 l -1.998629,-1.748811 q -5.621161,-5.62115 -8.68156,-12.86619 -3.060411,-7.24505 -3.060411,-15.11466 0,-5.496241 1.37406,-10.68019 1.37406,-5.18396 4.24709,-9.93071 L 1.4390186,13.6191 Q -0.0599615,12.12013 0.0024985,10.05904 0.0649985,7.9979501 1.5639285,6.49897 3.0628986,5 5.1239887,5 7.1850786,5 8.6840583,6.49897 L 93.50103,91.440862 Q 95,92.939832 95,94.938462 q 0,1.998639 -1.49897,3.49761 -1.49898,1.498968 -3.56007,1.498968 -2.061091,0 -3.56006,-1.498968 L 71.266239,83.446332 q -1.37406,0.8744 -2.74812,1.49897 l -2.74812,1.24915 q -1.873719,0.74948 -3.68498,-0.18738 -1.811259,-0.93685 -2.43583,-3.0604 -0.62458,-2.123551 0.49966,-3.8099 1.12423,-1.686341 3.12286,-2.685661 1.37406,-0.62457 2.49829,-1.37406 1.12423,-0.749479 2.37338,-1.49897 L 64.895599,77.075692 23.923628,36.10372 q -1.37406,3.122861 -2.186,6.433101 -0.81195,3.31023 -0.81195,6.80784 z m 64.580822,19.86141 -7.494881,-7.49487 q 1.37406,-2.99795 2.12355,-6.24573 0.74949,-3.247781 0.74949,-6.620471 0,-5.87098 -2.310919,-11.242309 -2.310921,-5.37132 -6.433101,-9.4935 l -1.24914,-1.24915 v 7.245049 q 0,2.123541 -1.43652,3.560061 -1.436519,1.436519 -3.560069,1.436519 -2.123541,0 -3.560061,-1.436519 -1.43652,-1.43652 -1.43652,-3.560061 V 14.11876 q 0,-2.12355 1.43652,-3.56006 1.43652,-1.43652 3.560061,-1.43652 h 19.986329 q 2.123551,0 3.560061,1.43652 1.43652,1.43651 1.43652,3.56006 0,2.12355 -1.43652,3.56007 -1.43651,1.43651 -3.560061,1.43651 h -8.74402 l 1.998631,1.748811 q 5.621159,5.62115 8.68156,12.86619 3.06041,7.245049 3.06041,15.114659 0,5.371331 -1.37406,10.492821 -1.374061,5.1215 -3.99726,9.86825 z M 38.288799,21.988381 30.793929,14.4935 q 1.37406,-0.74948 2.62321,-1.3116 1.24914,-0.56211 2.6232,-1.18669 1.99863,-0.74948 3.74744,0.18738 1.7488,0.93685 2.37337,3.0604 0.49966,1.99863 -0.56211,3.747441 -1.06178,1.748799 -2.93549,2.74812 -0.12492,0.124909 -0.18738,0.124909 -0.0624,0 -0.18737,0.124921 z"
    style="stroke-width:0.124915" 
	/>
</svg>
