<svg
  xmlns="http://www.w3.org/2000/svg"
  viewBox="0 0 100 100"
  height="1"
  width="1"
>
  <path
    d="M 14,77 Q 10.2875,77 7.64375,74.35625 5,71.7125 5,68 V 32 Q 5,28.2875 7.64375,25.64375 10.2875,23 14,23 h 72 q 3.7125,0 6.35625,2.64375 Q 95,28.2875 95,32 v 36 q 0,3.7125 -2.64375,6.35625 Q 89.7125,77 86,77 Z m 0,-9 H 86 V 32 H 72.5 v 13.5 q 0,1.9125 -1.29375,3.20625 Q 69.9125,50 68,50 66.0875,50 64.79375,48.70625 63.5,47.4125 63.5,45.5 V 32 h -9 v 13.5 q 0,1.9125 -1.29375,3.20625 Q 51.9125,50 50,50 48.0875,50 46.79375,48.70625 45.5,47.4125 45.5,45.5 V 32 h -9 v 13.5 q 0,1.9125 -1.29375,3.20625 Q 33.9125,50 32,50 30.0875,50 28.79375,48.70625 27.5,47.4125 27.5,45.5 V 32 H 14 Z M 32,50 Z m 18,0 z m 18,0 z m -18,0 z"
    style="stroke-width:0.1125" 
	/>
</svg>
