<svg
  xmlns="http://www.w3.org/2000/svg"
  viewBox="0 0 100 100"
  height="1"
  width="1"
>
  <path
    d="m 50,71.22656 q -1.1875,0 -2.22656,-0.37109 -1.03907,-0.37109 -1.92969,-1.26172 l -21.375,-21.375 Q 22.6875,46.4375 22.76172,44.0625 q 0.0742,-2.375 1.70703,-4.15625 1.78125,-1.78125 4.23047,-1.85547 2.44922,-0.0742 4.23047,1.70703 L 44.0625,50.89063 V 8.4375 q 0,-2.52344 1.70703,-4.23047 Q 47.47656,2.5 50,2.5 q 2.52344,0 4.23047,1.70703 1.70703,1.70703 1.70703,4.23047 V 50.89063 L 67.07031,39.75781 q 1.78125,-1.78125 4.23047,-1.70703 2.44922,0.0742 4.23047,1.85547 1.63281,1.78125 1.70703,4.15625 0.0742,2.375 -1.70703,4.15625 l -21.375,21.375 Q 53.26562,70.48438 52.22656,70.85547 51.1875,71.22656 50,71.22656 Z M 14.375,97.5 Q 9.47656,97.5 5.98828,94.01172 2.5,90.52344 2.5,85.625 V 73.75 q 0,-2.52344 1.70703,-4.23047 1.70703,-1.70703 4.23047,-1.70703 2.52344,0 4.23047,1.70703 Q 14.375,71.22656 14.375,73.75 v 11.875 h 71.25 V 73.75 q 0,-2.52344 1.70703,-4.23047 1.70703,-1.70703 4.23047,-1.70703 2.52344,0 4.23047,1.70703 Q 97.5,71.22656 97.5,73.75 v 11.875 q 0,4.89844 -3.48828,8.38672 Q 90.52344,97.5 85.625,97.5 Z"
    style="stroke-width:0.148438" 
	/>
</svg>
