<svg
  xmlns="http://www.w3.org/2000/svg"
  viewBox="0 0 100 100"
  height="1"
  width="1"
>
  <path
    d="m 50,59.5 c -8.55,0 -16.58542,1.86042 -24.10625,5.58125 C 18.37292,68.80208 12.31667,74.225 7.725,81.35 c -1.74167,2.53333 -1.97917,5.06667 -0.7125,7.6 1.26667,2.53333 3.325,3.8 6.175,3.8 1.26667,0 2.41458,-0.27708 3.44375,-0.83125 C 17.66042,91.36458 18.57083,90.53333 19.3625,89.425 23.00417,84.51667 27.51667,80.67708 32.9,77.90625 38.28333,75.13542 43.98333,73.75 50,73.75 c 6.01667,0 11.71667,1.38542 17.1,4.15625 5.38333,2.77083 9.89583,6.61042 13.5375,11.51875 0.63333,1.10833 1.46458,1.93958 2.49375,2.49375 1.02917,0.55417 2.17708,0.83125 3.44375,0.83125 2.85,0 4.90833,-1.30625 6.175,-3.91875 1.26667,-2.6125 1.02917,-5.26458 -0.7125,-7.95625 C 87.44583,73.90833 81.38958,68.60417 73.86875,64.9625 66.34792,61.32083 58.39167,59.5 50,59.5 Z M 83.25,35.75 c 3.95833,0 7.32292,-1.38542 10.09375,-4.15625 C 96.11458,28.82292 97.5,25.45833 97.5,21.5 97.5,17.54167 96.11458,14.17708 93.34375,11.40625 90.57292,8.63542 87.20833,7.25 83.25,7.25 79.29167,7.25 75.92708,8.63542 73.15625,11.40625 70.38542,14.17708 69,17.54167 69,21.5 c 0,3.95833 1.38542,7.32292 4.15625,10.09375 C 75.92708,34.36458 79.29167,35.75 83.25,35.75 Z m -66.5,0 c 3.95833,0 7.32292,-1.38542 10.09375,-4.15625 C 29.61458,28.82292 31,25.45833 31,21.5 31,17.54167 29.61458,14.17708 26.84375,11.40625 24.07292,8.63542 20.70833,7.25 16.75,7.25 12.79167,7.25 9.42708,8.63542 6.65625,11.40625 3.88542,14.17708 2.5,17.54167 2.5,21.5 2.5,25.45833 3.88542,28.82292 6.65625,31.59375 9.42708,34.36458 12.79167,35.75 16.75,35.75 Z"
    style="stroke-width:0.2375" 
	/>
</svg>
