<svg
  xmlns="http://www.w3.org/2000/svg"
  viewBox="0 0 100 100"
  width="1"
  height="1"
>
  <path
    d="M 82.166553,68.82324 V 95.50986 H 17.833447 V 68.82324"
    style="fill:none;stroke-width:3.98028" 
	/>
  <path
    d="m 17.833447,4.49014 h 64.333106 v 64.3331 H 17.833447 Z"
    style="fill:none;stroke-width:3.98028" 
	/>
  <path
    d="m 17.833447,4.49014 c 0,35.52941 28.802215,64.3331 64.333106,64.3331"
    style="fill:none;stroke-width:3.98028" 
	/>
  <path
    d="m 82.166553,95.50949 c -9.534075,0 -18.344337,-5.08661 -23.111196,-13.34348 -4.766848,-8.25689 -4.767216,-18.42975 0,-26.68662 4.767227,-8.25688 13.577121,-13.3435 23.111196,-13.3435"
    style="fill:none;stroke-width:3.98028" 
	/>
  <path
    d="m 82.166553,4.49014 c 0,35.52941 -28.802215,64.3331 -64.333106,64.3331"
    style="fill:none;stroke-width:3.98028" 
	/>
  <path
    d="m 17.833447,95.50949 c 9.534075,0 18.344347,-5.08661 23.111196,-13.34348 4.767226,-8.25689 4.767226,-18.42975 0,-26.68662 -4.767227,-8.25688 -13.577121,-13.3435 -23.111196,-13.3435"
    style="fill:none;stroke-width:3.98028"
	/>
  <path
    d="M 17.833447,68.84173 C 34.297293,85.30521 57.040303,95.48805 82.162861,95.48805"
    style="fill:none;stroke-width:3.98028" 
	/>
  <path
    d="M 82.166553,68.84173 C 65.702707,85.30521 42.959697,95.48805 17.837139,95.48805"
    style="fill:none;stroke-width:3.98028" 
	/>
</svg>
