<?xml version="1.0" encoding="UTF-8" standalone="no"?>
<svg
   version="1.1"
   viewBox="0 0 100 100"
   id="svg8"
   width="1"
   height="1"
   xmlns="http://www.w3.org/2000/svg"
   xmlns:svg="http://www.w3.org/2000/svg">
  <defs
     id="defs8" />
  <g
     transform="translate(0,867.64)"
     fill="none"
     stroke="#000000"
     stroke-width="4.2"
     id="g8">
    <path
       d="m 82.166553,-798.81676 v 26.68662 H 17.833447 v -26.68662"
       id="path1"
       style="stroke-width:3.98028;stroke-dasharray:none" />
    <path
       d="m 17.833447,-863.14986 h 64.333106 v 64.3331 H 17.833447 Z"
       id="path2"
       style="stroke-width:3.98028;stroke-dasharray:none" />
    <path
       d="m 17.833447,-863.14986 c 0,35.52941 28.802215,64.3331 64.333106,64.3331"
       id="path3"
       style="stroke-width:3.98028;stroke-dasharray:none" />
    <path
       d="m 82.166553,-772.13051 c -9.534075,0 -18.344337,-5.08661 -23.111196,-13.34348 -4.766848,-8.25689 -4.767216,-18.42975 0,-26.68662 4.767227,-8.25688 13.577121,-13.3435 23.111196,-13.3435"
       id="path4"
       style="stroke-width:3.98028;stroke-dasharray:none" />
    <path
       d="m 82.166553,-863.14986 c 0,35.52941 -28.802215,64.3331 -64.333106,64.3331"
       id="path5"
       style="stroke-width:3.98028;stroke-dasharray:none" />
    <path
       d="m 17.833447,-772.13051 c 9.534075,0 18.344347,-5.08661 23.111196,-13.34348 4.767226,-8.25689 4.767226,-18.42975 0,-26.68662 -4.767227,-8.25688 -13.577121,-13.3435 -23.111196,-13.3435"
       id="path6"
       style="stroke-width:3.98028;stroke-dasharray:none" />
    <path
       d="m 17.833447,-798.79827 c 16.463846,16.46348 39.206856,26.64632 64.329414,26.64632"
       id="path7"
       style="stroke-width:3.98028;stroke-dasharray:none" />
    <path
       d="m 82.166553,-798.79827 c -16.463846,16.46348 -39.206856,26.64632 -64.329414,26.64632"
       id="path8"
       style="stroke-width:3.98028;stroke-dasharray:none" />
  </g>
</svg>
