<svg
  xmlns="http://www.w3.org/2000/svg"
  viewBox="0 0 100 100"
  height="1"
  width="1"
>
  <path
    d="m 50,73.75 q 2.01875,0 3.38437,-1.36563 Q 54.75,71.01875 54.75,69 V 50 q 0,-2.01875 -1.36563,-3.38438 Q 52.01875,45.25 50,45.25 q -2.01875,0 -3.38438,1.36562 Q 45.25,47.98125 45.25,50 v 19 q 0,2.01875 1.36562,3.38437 Q 47.98125,73.75 50,73.75 Z m 0,-38 q 2.01875,0 3.38437,-1.36563 Q 54.75,33.01875 54.75,31 54.75,28.98125 53.38437,27.61562 52.01875,26.25 50,26.25 q -2.01875,0 -3.38438,1.36562 Q 45.25,28.98125 45.25,31 q 0,2.01875 1.36562,3.38437 Q 47.98125,35.75 50,35.75 Z M 50,97.5 Q 40.14375,97.5 31.475,93.75937 22.80625,90.01875 16.39375,83.60625 9.98125,77.19375 6.240625,68.525 2.5,59.85625 2.5,50 2.5,40.14375 6.240625,31.475 9.98125,22.80625 16.39375,16.39375 22.80625,9.98125 31.475,6.24062 40.14375,2.5 50,2.5 q 9.85625,0 18.525,3.74062 8.66875,3.74063 15.08125,10.15313 6.4125,6.4125 10.15312,15.08125 Q 97.5,40.14375 97.5,50 97.5,59.85625 93.75937,68.525 90.01875,77.19375 83.60625,83.60625 77.19375,90.01875 68.525,93.75937 59.85625,97.5 50,97.5 Z M 50,88 Q 65.9125,88 76.95625,76.95625 88,65.9125 88,50 88,34.0875 76.95625,23.04375 65.9125,12 50,12 34.0875,12 23.04375,23.04375 12,34.0875 12,50 12,65.9125 23.04375,76.95625 34.0875,88 50,88 Z m 0,-38 z"
    style="stroke-width:0.11875" 
	/>
</svg>
