<?xml version="1.0" encoding="UTF-8" standalone="no"?>
<svg
   height="1"
   viewBox="0 0 100 100"
   width="1"
   fill="#e8eaed"
   version="1.1"
   id="svg1548"
   xmlns="http://www.w3.org/2000/svg"
   xmlns:svg="http://www.w3.org/2000/svg">
  <defs
     id="defs1552" />
  <path
     d="m 45.25,90.375 v -4.75 q 0,-2.01875 1.36562,-3.38438 Q 47.98125,80.875 50,80.875 q 2.01875,0 3.38437,1.36562 Q 54.75,83.60625 54.75,85.625 v 4.75 q 0,2.01875 -1.36563,3.38437 Q 52.01875,95.125 50,95.125 q -2.01875,0 -3.38438,-1.36563 Q 45.25,92.39375 45.25,90.375 Z m -38,-47.5 H 12 q 2.01875,0 3.384375,1.36562 Q 16.75,45.60625 16.75,47.625 q 0,2.01875 -1.365625,3.38437 Q 14.01875,52.375 12,52.375 H 7.25 q -2.01875,0 -3.384375,-1.36563 Q 2.5,49.64375 2.5,47.625 2.5,45.60625 3.865625,44.24062 5.23125,42.875 7.25,42.875 Z m 80.75,0 h 4.75 q 2.01875,0 3.38437,1.36562 Q 97.5,45.60625 97.5,47.625 q 0,2.01875 -1.36563,3.38437 Q 94.76875,52.375 92.75,52.375 H 88 q -2.01875,0 -3.38438,-1.36563 Q 83.25,49.64375 83.25,47.625 q 0,-2.01875 1.36562,-3.38438 Q 85.98125,42.875 88,42.875 Z M 75.175,81.825 71.85,78.5 q -1.30625,-1.30625 -1.30625,-3.325 0,-2.01875 1.30625,-3.325 1.30625,-1.30625 3.325,-1.30625 2.01875,0 3.325,1.30625 l 3.325,3.325 q 1.30625,1.30625 1.30625,3.325 0,2.01875 -1.30625,3.325 -1.30625,1.30625 -3.325,1.30625 -2.01875,0 -3.325,-1.30625 z m -57,-6.65 3.325,-3.325 q 1.30625,-1.30625 3.325,-1.30625 2.01875,0 3.325,1.30625 1.30625,1.30625 1.30625,3.325 0,2.01875 -1.30625,3.325 l -3.325,3.325 q -1.30625,1.30625 -3.325,1.30625 -2.01875,0 -3.325,-1.30625 -1.30625,-1.30625 -1.30625,-3.325 0,-2.01875 1.30625,-3.325 z M 50,71.375 q -9.85625,0 -16.80312,-6.94688 Q 26.25,57.48125 26.25,47.625 q 0,-5.7 2.55312,-10.62813 Q 31.35625,32.06875 35.75,28.625 v -14.25 q 0,-3.91875 2.79063,-6.70938 Q 41.33125,4.875 45.25,4.875 h 9.5 q 3.91875,0 6.70937,2.79062 Q 64.25,10.45625 64.25,14.375 v 14.25 q 4.39375,3.44375 6.94687,8.37187 Q 73.75,41.925 73.75,47.625 q 0,9.85625 -6.94688,16.80312 Q 59.85625,71.375 50,71.375 Z M 45.25,24.35 Q 46.4375,24.1125 47.625,23.99375 48.8125,23.875 50,23.875 q 1.1875,0 2.375,0.11875 1.1875,0.11875 2.375,0.35625 v -9.975 h -9.5 z M 50,61.875 q 5.9375,0 10.09375,-4.15625 Q 64.25,53.5625 64.25,47.625 64.25,41.6875 60.09375,37.53125 55.9375,33.375 50,33.375 q -5.9375,0 -10.09375,4.15625 Q 35.75,41.6875 35.75,47.625 q 0,5.9375 4.15625,10.09375 Q 44.0625,61.875 50,61.875 Z m 0,-14.25 z"
     id="path1546"
     style="fill:#000000;stroke-width:0.1;stroke-dasharray:none" />
</svg>
