<?xml version="1.0" encoding="UTF-8" standalone="no"?>
<svg
   height="1"
   viewBox="0 0 100 100"
   width="1"
   fill="#e8eaed"
   version="1.1"
   id="svg1548"
   xmlns="http://www.w3.org/2000/svg"
   xmlns:svg="http://www.w3.org/2000/svg">
  <defs
     id="defs1552" />
  <path
     d="m 50,71.375 c -6.570833,0 -12.171873,-2.315627 -16.80312,-6.94688 C 28.565627,59.796873 26.25,54.195833 26.25,47.625 c 0,-3.8 0.85104,-7.34271 2.55312,-10.62813 1.702087,-3.285413 4.017713,-6.076037 6.94688,-8.37187 v -14.25 c 0,-2.6125 0.93021,-4.84896 2.79063,-6.70938 C 40.401043,5.8052067 42.6375,4.875 45.25,4.875 h 9.5 c 2.6125,0 4.848957,0.9302067 6.70937,2.79062 C 63.31979,9.52604 64.25,11.7625 64.25,14.375 v 14.25 c 2.929167,2.295833 5.24479,5.086457 6.94687,8.37187 C 72.898957,40.28229 73.75,43.825 73.75,47.625 c 0,6.570833 -2.315627,12.171873 -6.94688,16.80312 C 62.171873,69.059373 56.570833,71.375 50,71.375 Z M 45.25,24.35 c 0.791667,-0.158333 1.583333,-0.277083 2.375,-0.35625 0.791667,-0.07917 1.583333,-0.11875 2.375,-0.11875 0.791667,0 1.583333,0.03958 2.375,0.11875 0.791667,0.07917 1.583333,0.197917 2.375,0.35625 v -9.975 h -9.5 z M 50,61.875 c 3.958333,0 7.322917,-1.385417 10.09375,-4.15625 C 62.864583,54.947917 64.25,51.583333 64.25,47.625 64.25,43.666667 62.864583,40.302083 60.09375,37.53125 57.322917,34.760417 53.958333,33.375 50,33.375 c -3.958333,0 -7.322917,1.385417 -10.09375,4.15625 C 37.135417,40.302083 35.75,43.666667 35.75,47.625 c 0,3.958333 1.385417,7.322917 4.15625,10.09375 C 42.677083,60.489583 46.041667,61.875 50,61.875 Z"
     id="path1546"
     style="fill:#000000;stroke-width:0.1;stroke-dasharray:none" />
</svg>
