<?xml version="1.0" encoding="UTF-8" standalone="no"?>
<svg
   viewBox="0 0 100 100"
   height="1"
   width="1"
   fill="#f2f2f2"
   stroke="#f2f2f2"
   version="1.1"
   id="svg4"
   xmlns="http://www.w3.org/2000/svg"
   xmlns:svg="http://www.w3.org/2000/svg">
  <defs
     id="defs8" />
  <path
     d="M 19.960474,97.5 Q 13.764822,97.5 9.3527668,93.08794 4.9407115,88.67589 4.9407115,82.48024 V 37.42095 q 0,-2.25297 0.9387352,-4.31818 0.9387352,-2.06522 2.4407114,-3.5672 L 31.976284,5.87945 Q 33.666007,4.18972 35.731225,3.34486 37.796442,2.5 39.86166,2.5 q 4.881423,0 8.448616,3.75494 3.567194,3.75494 2.628459,9.5751 l -2.440712,14.08103 h 39.051384 q 3.191699,0 5.350791,2.15909 2.159091,2.15909 2.159091,5.35079 v 9.38735 q 0,1.12648 -0.187747,2.15909 Q 94.683795,50 94.308301,50.93874 L 77.411068,90.74111 q -1.31423,3.1917 -4.22431,4.97529 Q 70.276679,97.5 66.897233,97.5 Z M 64.644268,82.48024 80.039525,46.05731 V 44.93083 H 30.098814 L 34.604743,24.65415 19.960474,38.92292 v 43.55732 z m -44.683794,0 V 38.92292 Z"
     style="stroke-width:0.187747"
     id="path2" />
</svg>
