<svg
  xmlns="http://www.w3.org/2000/svg"
  viewBox="0 0 100 100"
  width="1"
  height="1"
>
  <path
    d="m 33.600923,48.258222 c 1.953227,-0.139487 3.839935,1.096145 4.674843,2.836915 0.916747,2.057237 0.254786,4.721204 -1.652079,5.981428 -2.154797,1.561372 -5.498463,0.928035 -6.955824,-1.293281 -1.051799,-1.527911 -1.058652,-3.691578 -0.03104,-5.235211 0.85305,-1.344078 2.376527,-2.214463 3.964102,-2.289851 z m 0.03991,3.983856 c -0.161661,0.772825 0.412011,1.745205 1.264658,1.700859 0.952223,0.0508 1.742786,-1.047364 1.328759,-1.926619 -0.17053,-0.586975 -0.794998,-0.790563 -1.31989,-0.934484 -0.564803,0.159241 -1.202574,0.516022 -1.273527,1.160244 z"
    style="stroke-width:0.0403143;fill:#232323" 
	/>
  <path
    d="m 57.4065,19.659279 c 2.688559,0.0064 5.374698,-0.0069 8.062854,-0.0069 2.438207,0.04193 4.865126,0.741783 6.915913,2.068526 2.108033,1.47268 3.879845,3.518629 4.728058,5.972559 0.214875,0.562384 0.476111,1.127187 0.42975,1.74722 0.708724,-4.362407 4.138663,-8.111634 8.401897,-9.252125 2.190274,-0.679698 4.506329,-0.507153 6.769572,-0.531342 1.587576,-0.0069 3.177974,0.0065 4.767565,0.0065 0.168111,3.844369 -0.843777,7.821372 -3.230785,10.886466 -1.937504,2.632925 -4.778854,4.49746 -7.823791,5.611343 -2.684124,0.958674 -5.542809,1.251355 -8.37287,1.317471 0.09514,8.25999 -2.198741,16.540138 -6.625651,23.520151 -3.184424,5.100158 -7.482731,9.506911 -12.513952,12.799781 -0.407577,0.292278 -0.925616,0.471677 -1.200156,0.91473 l -0.09756,-0.0089 c -0.261237,-0.03104 -0.522473,-0.04193 -0.781694,-0.03548 -3.445661,-3.583133 -7.529093,-6.960259 -12.520806,-7.989885 0.365247,-2.495857 -1.669817,-4.885284 -4.083433,-5.292458 -1.167098,-0.192702 -2.355965,-0.07095 -3.531933,-0.08869 -10.782454,0.04193 -21.566925,-0.02862 -32.3469606,0.06853 -0.65551,-0.05322 -1.9399226,0.09313 -1.8467967,-0.901427 0.00202,-8.202341 0.00443,-16.404683 0.00443,-24.605008 -0.037492,-1.731901 -0.00645,-3.527499 0.7220286,-5.133216 1.4061617,-3.45453 4.9558332,-5.819768 8.6474107,-6.034643 5.246096,-0.02862 10.492192,-0.02862 15.736272,-0.01532 4.147532,0.06652 8.0431,2.021761 11.125529,4.699031 2.971968,2.570841 5.443233,5.644804 8.020927,8.594196 2.269694,2.599868 4.648236,5.21062 7.657696,6.969128 3.55854,2.145929 8.009639,2.834497 12.020103,1.700859 4.497459,-1.20459 8.353116,-4.679277 9.818943,-9.123522 -0.770406,-0.21931 -1.57911,-0.148357 -2.364835,-0.22576 C 69.604792,36.848074 65.229081,35.395551 62.120044,32.292965 59.85922,30.193398 58.290995,27.363336 57.741915,24.323237 57.404081,22.792907 57.377877,21.220651 57.4065,19.659279 Z M 33.598505,48.257013 c -1.587576,0.07539 -3.111456,0.945772 -3.963699,2.28985 -1.027611,1.543634 -1.020758,3.706897 0.03104,5.235211 1.456957,2.221317 4.801026,2.854654 6.955824,1.293282 1.906462,-1.260224 2.568825,-3.924191 1.652078,-5.981428 -0.835311,-1.74077 -2.722019,-2.976403 -4.675245,-2.836915 z"
    style="stroke-width:0.0403143;fill:#087EB2" 
	/>
  <path
    d="m 33.641238,52.241272 c 0.07095,-0.644222 0.708725,-1.001003 1.273528,-1.160245 0.524891,0.143922 1.149359,0.347509 1.319889,0.934485 0.414027,0.879254 -0.376536,1.977415 -1.328759,1.926619 -0.852646,0.04435 -1.426318,-0.928035 -1.264658,-1.700859 z"
    style="stroke-width:0.0403143;fill:#D6CDCA" 
	/>
  <path
    d="m 7.1749195,66.528649 c 11.6016405,-0.0133 23.2057005,-0.0044 34.8093565,0.0044 0.777259,0.0044 1.558953,0.02419 2.329762,0.145937 4.991309,1.029627 9.075145,4.406753 12.520806,7.989886 0.25922,-0.0069 0.520457,0.0044 0.781693,0.03548 l 0.04878,0.0044 c -0.108446,0.02419 -0.325337,0.07297 -0.434185,0.09514 -7.934655,4.632513 -17.465755,6.508336 -26.5538,5.069117 C 22.412907,78.666066 14.759646,74.425408 8.9310091,68.504048 8.3287139,67.861842 7.7086804,67.230521 7.1749195,66.528649 Z"
    style="stroke-width:0.0403143;fill:#D6CDCA" 
	/>
</svg>
