<svg
  xmlns="http://www.w3.org/2000/svg"
  viewBox="0 0 100 100"
  height="1"
  width="1"
>
  <path
    d="M 62.40278,96.3125 34.16667,86.41666 9.625,95.91666 Q 8.30556,96.44444 7.05208,96.24653 5.79861,96.04861 4.74306,95.38889 3.6875,94.72916 3.09375,93.60764 2.5,92.48611 2.5,91.03472 V 17.01389 Q 2.5,15.29861 3.48958,13.97916 4.47917,12.65972 6.19444,12 L 30.73611,3.6875 q 0.79167,-0.26389 1.64931,-0.39584 0.85764,-0.13194 1.78125,-0.13194 0.92361,0 1.78125,0.13194 0.85764,0.13195 1.6493,0.39584 l 28.23611,9.89583 24.54167,-9.5 q 1.31944,-0.52778 2.57292,-0.32986 1.25347,0.19792 2.30902,0.85764 1.05556,0.65972 1.64931,1.78125 Q 97.5,7.51389 97.5,8.96528 v 74.02083 q 0,1.71528 -0.98958,3.03472 Q 95.52083,87.34028 93.80556,88 l -24.54167,8.3125 q -0.79167,0.26389 -1.64931,0.39583 -0.85764,0.13195 -1.78125,0.13195 -0.92361,0 -1.78125,-0.13195 -0.85764,-0.13194 -1.6493,-0.39583 z M 60.55556,84.56944 v -61.75 L 39.44444,15.43055 v 61.75 z m 10.55555,0 15.83333,-5.27778 V 16.75 L 71.11111,22.81944 Z M 13.05556,83.25 28.88889,77.18055 v -61.75 L 13.05556,20.70833 Z M 71.11111,22.81944 v 61.75 z M 28.88889,15.43055 v 61.75 z"
    style="stroke-width:0.131944" 
	/>
</svg>
