<svg
  xmlns="http://www.w3.org/2000/svg"
  viewBox="0 0 100 100"
  height="1"
  width="1"
>
  <path
    d="m 7.77778,81.666665 q -2.24306,0 -3.76042,-1.51736 Q 2.5,78.631945 2.5,76.388895 q 0,-2.24306 1.51736,-3.76042 1.51736,-1.51736 3.76042,-1.51736 h 84.44444 q 2.24306,0 3.76042,1.51736 1.51736,1.51736 1.51736,3.76042 0,2.24305 -1.51736,3.76041 -1.51736,1.51736 -3.76042,1.51736 z m 0,-26.38889 q -2.24306,0 -3.76042,-1.51736 Q 2.5,52.243055 2.5,50.000005 q 0,-2.24306 1.51736,-3.76042 1.51736,-1.51736 3.76042,-1.51736 h 84.44444 q 2.24306,0 3.76042,1.51736 1.51736,1.51736 1.51736,3.76042 0,2.24305 -1.51736,3.76041 -1.51736,1.51736 -3.76042,1.51736 z m 0,-26.38888 q -2.24306,0 -3.76042,-1.51737 Q 2.5,25.854165 2.5,23.611115 q 0,-2.24306 1.51736,-3.76042 1.51736,-1.51736 3.76042,-1.51736 h 84.44444 q 2.24306,0 3.76042,1.51736 1.51736,1.51736 1.51736,3.76042 0,2.24305 -1.51736,3.76041 -1.51736,1.51737 -3.76042,1.51737 z"
    style="stroke-width:0.131944" 
	/>
</svg>
