<svg
  xmlns="http://www.w3.org/2000/svg"
  viewBox="0 0 100 100"
  height="1"
  width="1"
>
  <path
    d="M 45.25,85.26875 V 52.73125 L 16.75,36.225 v 32.5375 z m 9.5,0 28.5,-16.50625 V 36.225 l -28.5,16.50625 z m -9.5,10.925 L 12,77.075 Q 9.74375,75.76875 8.49688,73.63125 7.25,71.49375 7.25,68.88125 v -37.7625 q 0,-2.6125 1.24688,-4.75 Q 9.74375,24.23125 12,22.925 L 45.25,3.80625 Q 47.50625,2.5 50,2.5 q 2.49375,0 4.75,1.30625 L 88,22.925 q 2.25625,1.30625 3.50312,3.44375 1.24688,2.1375 1.24688,4.75 v 37.7625 q 0,2.6125 -1.24688,4.75 Q 90.25625,75.76875 88,77.075 L 54.75,96.19375 Q 52.49375,97.5 50,97.5 q -2.49375,0 -4.75,-1.30625 z m 23.75,-62.7 9.14375,-5.225 L 50,12 40.7375,17.34375 Z M 50,44.5375 59.2625,39.19375 31.11875,22.925 l -9.2625,5.34375 z"
    style="stroke-width:0.11875" 
	/>
</svg>
