<svg
  xmlns="http://www.w3.org/2000/svg"
  viewBox="0 0 100 100"
  height="1"
  width="1"
>
  <path
    d="m 14.375,61.875 q -4.898443,0 -8.3867161,-3.488284 Q 2.5,54.898443 2.5,50 2.5,45.101568 5.9882839,41.613284 9.476557,38.125 14.375,38.125 q 4.898432,0 8.386716,3.488284 Q 26.25,45.101568 26.25,50 q 0,4.898443 -3.488284,8.386716 Q 19.273432,61.875 14.375,61.875 Z m 35.625,0 q -4.898443,0 -8.386716,-3.488284 Q 38.125,54.898443 38.125,50 q 0,-4.898432 3.488284,-8.386716 Q 45.101557,38.125 50,38.125 q 4.898432,0 8.386716,3.488284 Q 61.875,45.101568 61.875,50 q 0,4.898443 -3.488284,8.386716 Q 54.898432,61.875 50,61.875 Z m 35.625,0 q -4.898443,0 -8.386716,-3.488284 Q 73.75,54.898443 73.75,50 q 0,-4.898432 3.488284,-8.386716 Q 80.726557,38.125 85.625,38.125 q 4.898432,0 8.386716,3.488284 Q 97.5,45.101568 97.5,50 q 0,4.898443 -3.488284,8.386716 Q 90.523432,61.875 85.625,61.875 Z"
    style="stroke-width:0.148438" 
	/>
</svg>
