<svg
  xmlns="http://www.w3.org/2000/svg"
  viewBox="0 0 100 100"
  height="1"
  width="1"
>
  <path
    d="M 31,40.5 H 12 Q 8.08125,40.5 5.290625,37.70937 2.5,34.91875 2.5,31 V 12 Q 2.5,8.08125 5.290625,5.29062 8.08125,2.5 12,2.5 h 19 q 3.91875,0 6.70937,2.79062 Q 40.5,8.08125 40.5,12 v 19 q 0,3.91875 -2.79063,6.70937 Q 34.91875,40.5 31,40.5 Z M 12,31 H 31 V 12 H 12 Z M 31,97.5 H 12 Q 8.08125,97.5 5.290625,94.70937 2.5,91.91875 2.5,88 V 69 Q 2.5,65.08125 5.290625,62.29062 8.08125,59.5 12,59.5 h 19 q 3.91875,0 6.70937,2.79062 Q 40.5,65.08125 40.5,69 v 19 q 0,3.91875 -2.79063,6.70937 Q 34.91875,97.5 31,97.5 Z M 12,88 H 31 V 69 H 12 Z M 88,40.5 H 69 q -3.91875,0 -6.70938,-2.79063 Q 59.5,34.91875 59.5,31 V 12 Q 59.5,8.08125 62.29062,5.29062 65.08125,2.5 69,2.5 h 19 q 3.91875,0 6.70937,2.79062 Q 97.5,8.08125 97.5,12 v 19 q 0,3.91875 -2.79063,6.70937 Q 91.91875,40.5 88,40.5 Z M 69,31 H 88 V 12 H 69 Z M 88,97.5 H 69 q -3.91875,0 -6.70938,-2.79063 Q 59.5,91.91875 59.5,88 V 69 q 0,-3.91875 2.79062,-6.70938 Q 65.08125,59.5 69,59.5 h 19 q 3.91875,0 6.70937,2.79062 Q 97.5,65.08125 97.5,69 v 19 q 0,3.91875 -2.79063,6.70937 Q 91.91875,97.5 88,97.5 Z M 69,88 H 88 V 69 H 69 Z M 31,31 Z m 0,38 z M 69,31 Z m 0,38 z"
    style="stroke-width:0.11875" 
	/>
</svg>
