<svg
  xmlns="http://www.w3.org/2000/svg"
  viewBox="0 0 100 100"
  height="1"
  width="1"
>
  <path
    d="m 32.1875,61.875 c -3.265629,0 -6.061201,-1.162761 -8.386716,-3.488284 C 21.475261,56.061201 20.3125,53.265629 20.3125,50 c 0,-3.265621 1.162761,-6.061193 3.488284,-8.386716 C 26.126299,39.287761 28.921871,38.125 32.1875,38.125 c 3.265621,0 6.061193,1.162761 8.386716,3.488284 C 42.899739,43.938807 44.0625,46.734379 44.0625,50 c 0,3.265629 -1.162761,6.061201 -3.488284,8.386716 C 38.248693,60.712239 35.453121,61.875 32.1875,61.875 Z m 35.625,0 c -3.265629,0 -6.061201,-1.162761 -8.386716,-3.488284 C 57.100261,56.061201 55.9375,53.265629 55.9375,50 c 0,-3.265621 1.162761,-6.061193 3.488284,-8.386716 C 61.751299,39.287761 64.546871,38.125 67.8125,38.125 c 3.265621,0 6.061193,1.162761 8.386716,3.488284 C 78.524739,43.938807 79.6875,46.734379 79.6875,50 c 0,3.265629 -1.162761,6.061201 -3.488284,8.386716 C 73.873693,60.712239 71.078121,61.875 67.8125,61.875 Z"
    style="stroke-width:0.148438"
	/>
</svg>
