<svg
  xmlns="http://www.w3.org/2000/svg"
  viewBox="0 0 100 100"
  height="1"
  width="1"
>
  <path
    d="M 31,69 H 12 C 9.3875,69 7.1510417,68.06979 5.290625,66.20937 3.4302083,64.348957 2.5,62.1125 2.5,59.5 v -19 C 2.5,37.8875 3.4302083,35.65104 5.290625,33.79062 7.1510417,31.930207 9.3875,31 12,31 h 19 c 2.6125,0 4.848957,0.930207 6.70937,2.79062 C 39.56979,35.65104 40.5,37.8875 40.5,40.5 v 19 c 0,2.6125 -0.93021,4.848957 -2.79063,6.70937 C 35.848957,68.06979 33.6125,69 31,69 Z M 12,59.5 h 19 v -19 H 12 Z M 88,69 H 69 C 66.3875,69 64.15104,68.06979 62.29062,66.20937 60.430207,64.348957 59.5,62.1125 59.5,59.5 v -19 c 0,-2.6125 0.930207,-4.84896 2.79062,-6.70938 C 64.15104,31.930207 66.3875,31 69,31 h 19 c 2.6125,0 4.848957,0.930207 6.70937,2.79062 C 96.56979,35.65104 97.5,37.8875 97.5,40.5 v 19 c 0,2.6125 -0.93021,4.848957 -2.79063,6.70937 C 92.848957,68.06979 90.6125,69 88,69 Z M 69,59.5 h 19 v -19 H 69 Z"
    style="stroke-width:0.11875"
	/>
</svg>
