<?xml version="1.0" encoding="UTF-8" standalone="no"?>
<svg
   clip-rule="evenodd"
   fill-rule="evenodd"
   stroke-linejoin="round"
   stroke-miterlimit="2"
   version="1.1"
   viewBox="0 0 100 100"
   id="svg24"
   width="1"
   height="1"
   xmlns="http://www.w3.org/2000/svg"
   xmlns:svg="http://www.w3.org/2000/svg">
  <defs
     id="defs24" />
  <g
     transform="matrix(0.19230769,0,0,0.19526292,1.5384621,0.02538409)"
     id="g1">
    <rect
       x="-8"
       y="-0.13"
       width="520"
       height="512.13"
       fill="#17342e"
       id="rect1" />
  </g>
  <g
     transform="matrix(0.09832699,0,0,0.09738927,0.24490372,-0.00859901)"
     id="g2">
    <path
       d="m 500.64,100.22 1.606,-0.099 c 25.526,-0.821 50.129,2.126 75.25,6.326 22.952,3.837 44.362,9.478 66.288,17.256 3.557,1.262 7.256,2.219 10.754,3.62 l 24.347,11.066 c 19.109,8.974 37.428,18.937 54.765,31.065 22.128,15.481 41.547,33.428 60.983,52.06 9.626,9.227 18.037,20.069 26.307,30.485 21.039,26.499 38.531,55.261 52.015,86.351 3.825,8.821 6.845,17.874 10.019,26.932 15.132,43.175 23.036,88.802 23.911,134.57 1.417,74.11 -14.329,149.28 -52.006,213.61 -4.523,7.722 -8.849,15.835 -13.813,23.275 -15.568,23.326 -33.839,44.723 -53.28,64.872 -6.929,7.181 -14.659,13.579 -22.195,20.092 -16.115,13.928 -32.678,26.315 -50.67,37.745 -1.806,1.147 -3.856,1.875 -5.71,2.942 l -27.333,14.467 c -18.979,9.012 -38.683,17.134 -58.812,23.224 -3.485,1.054 -7.071,1.682 -10.583,2.626 -29.213,7.853 -59.347,12.353 -89.612,12.883 -85.115,1.339 -168.92,-21.579 -238.39,-71.562 -15.711,-11.304 -30.145,-23.841 -44.368,-36.934 -16.046,-14.771 -30.457,-32.649 -43.154,-50.331 -11.573,-16.115 -22.802,-33.222 -31.977,-50.851 -30.546,-58.687 -45.538,-123.93 -48.213,-189.79 -0.719,-17.681 0.543,-35.43 2.279,-53.016 3.527,-35.714 11.036,-71.128 23.609,-104.81 5.961,-15.969 13.568,-31.617 21.587,-46.643 9.103,-17.058 19.173,-34.355 30.594,-49.969 8.665,-11.847 18.291,-22.907 28.258,-33.668 16.051,-17.33 34.109,-33.475 52.85,-47.834 6.901,-5.287 13.863,-10.801 21.13,-15.572 60.583,-39.772 131.28,-61.543 203.56,-64.391 z"
       fill="#f6c97a"
       fill-rule="nonzero"
       id="path1" />
  </g>
  <g
     transform="matrix(0.0913519,0,0,0.09024526,3.5818175,3.6192921)"
     id="g3">
    <path
       d="m 500.64,100.22 1.606,-0.099 c 25.526,-0.821 50.129,2.126 75.25,6.326 22.952,3.837 44.362,9.478 66.288,17.256 3.557,1.262 7.256,2.219 10.754,3.62 l 24.347,11.066 c 19.109,8.974 37.428,18.937 54.765,31.065 22.128,15.481 41.547,33.428 60.983,52.06 9.626,9.227 18.037,20.069 26.307,30.485 21.039,26.499 38.531,55.261 52.015,86.351 3.825,8.821 6.845,17.874 10.019,26.932 15.132,43.175 23.036,88.802 23.911,134.57 1.417,74.11 -14.329,149.28 -52.006,213.61 -4.523,7.722 -8.849,15.835 -13.813,23.275 -15.568,23.326 -33.839,44.723 -53.28,64.872 -6.929,7.181 -14.659,13.579 -22.195,20.092 -16.115,13.928 -32.678,26.315 -50.67,37.745 -1.806,1.147 -3.856,1.875 -5.71,2.942 l -27.333,14.467 c -18.979,9.012 -38.683,17.134 -58.812,23.224 -3.485,1.054 -7.071,1.682 -10.583,2.626 -29.213,7.853 -59.347,12.353 -89.612,12.883 -85.115,1.339 -168.92,-21.579 -238.39,-71.562 -15.711,-11.304 -30.145,-23.841 -44.368,-36.934 -16.046,-14.771 -30.457,-32.649 -43.154,-50.331 -11.573,-16.115 -22.802,-33.222 -31.977,-50.851 -30.546,-58.687 -45.538,-123.93 -48.213,-189.79 -0.719,-17.681 0.543,-35.43 2.279,-53.016 3.527,-35.714 11.036,-71.128 23.609,-104.81 5.961,-15.969 13.568,-31.617 21.587,-46.643 9.103,-17.058 19.173,-34.355 30.594,-49.969 8.665,-11.847 18.291,-22.907 28.258,-33.668 16.051,-17.33 34.109,-33.475 52.85,-47.834 6.901,-5.287 13.863,-10.801 21.13,-15.572 60.583,-39.772 131.28,-61.543 203.56,-64.391 z"
       fill="#ffffff"
       fill-rule="nonzero"
       id="path2" />
  </g>
  <g
     transform="matrix(0.19146525,0,0,0.18775281,1.4427295,1.8640023)"
     id="g4">
    <path
       d="m 66.789,273.71 c 17.082,-11.223 41.011,-23.562 79.881,-38.34 37.38,-10.764 75.494,29.657 119.78,75.927 24.652,18.295 46.701,-24.771 86.693,-55.3 20.078,-21.683 53.866,9.879 87.292,40.036 -3.893,19.82 -10.759,39.01 -21.016,56.522 -2.168,3.701 -4.241,7.59 -6.621,11.156 -7.461,11.18 -16.219,21.435 -25.537,31.093 -3.321,3.441 -7.026,6.508 -10.638,9.63 -7.724,6.675 -15.662,12.612 -24.286,18.091 -0.865,0.55 -1.848,0.899 -2.737,1.41 l -13.1,6.934 c -9.097,4.319 -18.541,8.212 -28.189,11.131 -1.67,0.505 -3.389,0.806 -5.072,1.259 -14.002,3.764 -28.445,5.921 -42.951,6.175 -40.796,0.641 -80.964,-10.343 -114.26,-34.3 -7.531,-5.418 -14.449,-11.427 -21.266,-17.702 -7.691,-7.08 -14.598,-15.649 -20.684,-24.124 C 98.531,365.584 93.149,357.385 88.752,348.935 76.55,325.493 69.527,299.869 66.783,273.71 Z"
       fill="#17342e"
       id="path3" />
  </g>
  <g
     transform="matrix(0.19146525,0,0,0.18775281,1.4685582,1.8389015)"
     id="g5">
    <path
       d="m 425.23,164.55 c 0.992,2.066 1.946,4.153 2.861,6.263 1.833,4.228 3.281,8.567 4.802,12.909 7.253,20.694 11.041,42.563 11.46,64.5 0.68,35.521 -6.867,71.552 -24.926,102.38 -2.168,3.701 -4.241,7.59 -6.621,11.156 l -0.094,0.141 -9.072,-9.122 c -10.222,-11.289 -17.014,-24.425 -21.553,-38.895 -1.598,-5.096 -3.047,-10.284 -3.818,-15.583 -1.322,-9.08 -1.429,-18.198 -0.918,-27.35 0.236,-4.238 0.829,-8.394 1.616,-12.563 0.428,-2.264 1.278,-4.83 1.337,-7.11 l 0.004,-0.419 c 1.807,-7.752 4.847,-15.515 7.885,-22.858 l 4.88,-11.557 c 8.797,-18.434 20.112,-35.461 32.157,-51.895 z"
       fill="#4a0e00"
       fill-rule="nonzero"
       id="path4" />
  </g>
  <g
     transform="matrix(0.19146333,6.4609498e-4,-6.5887022e-4,0.18775093,1.4111434,1.9115638)"
     id="g6">
    <path
       d="m 81.026,175.64 c 13.251,15.816 25.812,32.271 35.891,50.33 l 5.607,11.222 c 3.499,7.135 7.027,14.689 9.325,22.31 l 0.031,0.417 c 0.204,2.272 1.215,4.779 1.787,7.012 1.051,4.109 1.907,8.219 2.413,12.434 1.093,9.1 1.567,18.207 0.827,27.353 -0.432,5.337 -1.548,10.607 -2.818,15.794 -3.608,14.73 -9.549,28.272 -19.031,40.189 l -8.835,10.096 c -0.35,-0.48 -0.697,-0.96 -1.042,-1.44 -5.547,-7.723 -10.929,-15.923 -15.326,-24.372 -14.641,-28.129 -21.827,-59.399 -23.109,-90.966 -0.345,-8.474 0.26,-16.981 1.092,-25.41 1.691,-17.118 5.29,-34.092 11.316,-50.236 0.592,-1.585 1.217,-3.164 1.872,-4.733 z"
       fill="#b05901"
       fill-rule="nonzero"
       id="path5" />
  </g>
  <g
     transform="matrix(0.09573262,0,0,0.0938764,1.2585781,1.9370832)"
     id="g15">
    <g
       transform="matrix(2,0,0,2,0.14364,24.52)"
       id="g7">
      <circle
         cx="161.67"
         cy="160.67"
         r="20.671"
         fill="#d56b00"
         id="circle6" />
    </g>
    <g
       transform="matrix(0.86475,0,0,0.86475,114.35,230.39)"
       id="g8">
      <circle
         cx="161.67"
         cy="160.67"
         r="20.671"
         fill="#f48b00"
         id="circle7" />
    </g>
    <g
       transform="matrix(0.40426,0,0,0.40426,243.78,179.48)"
       id="g9">
      <circle
         cx="161.67"
         cy="160.67"
         r="20.671"
         fill="#f9b735"
         id="circle8" />
    </g>
    <g
       transform="matrix(0.97415,0,0,0.97415,196.08,89.914)"
       id="g10">
      <circle
         cx="161.67"
         cy="160.67"
         r="20.671"
         fill="#9b2b00"
         id="circle9" />
    </g>
    <g
       transform="matrix(0.51803,0,0,0.51803,375.35,86.963)"
       id="g11">
      <circle
         cx="161.67"
         cy="160.67"
         r="20.671"
         fill="#d56b00"
         id="circle10" />
    </g>
    <g
       transform="matrix(0.66664,0,0,0.66664,517.08,146.67)"
       id="g12">
      <circle
         cx="161.67"
         cy="160.67"
         r="20.671"
         id="circle11" />
    </g>
    <g
       transform="matrix(1.9453,0,0,1.9453,389.4,-58.775)"
       id="g13">
      <circle
         cx="161.67"
         cy="160.67"
         r="20.671"
         fill="#f9b735"
         id="circle12" />
    </g>
    <g
       transform="matrix(1.7214,0,0,1.7214,437.05,103.65)"
       id="g14">
      <circle
         cx="161.67"
         cy="160.67"
         r="20.671"
         fill="#9b2b00"
         id="circle13" />
    </g>
  </g>
  <g
     transform="matrix(0.24486492,0,0,0.18601421,-10.51194,-4.5916455)"
     id="g16">
    <path
       d="m 249.44,126.4 c 0,0 -71.007,78.054 -71.007,192.37 0,50.586 31.817,91.656 71.007,91.656 39.189,0 71.006,-41.07 71.006,-91.656 0,-114.32 -71.006,-192.37 -71.006,-192.37 z"
       fill="#f48b00"
       id="path15" />
  </g>
  <g
     transform="matrix(0.19146525,0,0,0.18775281,1.4554428,1.9251519)"
     id="g17">
    <path
       d="m 93.393,356.8 10.545,-10.559 c 1.539,-1.541 4.04,-1.543 5.581,-0.004 1.541,1.539 1.542,4.04 0.003,5.581 l -11.819,11.834 c -1.481,-2.255 -2.924,-4.541 -4.31,-6.852 z m -15.6,-33.654 30.828,-30.867 c 1.539,-1.54 4.039,-1.542 5.58,-0.003 1.541,1.539 1.543,4.039 0.004,5.58 l -33.368,33.41 c -1.075,-2.687 -2.09,-5.395 -3.044,-8.12 z m -8.924,-34.715 44.38,-44.436 c 1.539,-1.541 4.039,-1.542 5.58,-0.004 1.541,1.539 1.543,4.04 0.004,5.581 l -48.157,48.217 c -0.669,-3.104 -1.27,-6.224 -1.807,-9.358 z m -2.964,-46.22 31.167,-31.205 c 1.539,-1.541 4.039,-1.543 5.58,-0.004 1.541,1.539 1.542,4.039 0.003,5.58 l -37.099,37.146 c -0.034,-3.839 0.105,-7.682 0.349,-11.517 z"
       id="path16" />
  </g>
  <g
     transform="matrix(0.19145567,0.00194268,-0.00198109,0.18774342,1.4399723,1.2899369)"
     id="g18">
    <path
       d="m 420.18,354.68 -12.854,-12.871 c -1.539,-1.541 -1.537,-4.041 0.003,-5.58 1.541,-1.539 4.042,-1.538 5.581,0.003 l 11.316,11.331 c -0.842,1.552 -1.709,3.088 -2.601,4.611 -0.485,0.828 -0.965,1.665 -1.445,2.506 z m 15.656,-33.598 -33.193,-33.234 c -1.539,-1.541 -1.537,-4.042 0.004,-5.581 1.541,-1.539 4.041,-1.537 5.58,0.004 l 30.297,30.335 c -0.828,2.846 -1.724,5.672 -2.688,8.476 z m 8.474,-35.166 -46.295,-46.353 c -1.539,-1.541 -1.537,-4.041 0.004,-5.58 1.541,-1.539 4.041,-1.537 5.58,0.003 l 41.93,41.983 c -0.328,3.325 -0.734,6.642 -1.219,9.947 z m 1.724,-47.461 -31.841,-31.881 c -1.539,-1.541 -1.538,-4.042 0.003,-5.58 1.541,-1.539 4.041,-1.538 5.58,0.003 l 24.987,25.018 c 0.546,4.131 0.97,8.28 1.271,12.44 z"
       id="path17" />
  </g>
  <path
     d="m 25.092174,76.238382 c 0.04193,-0.385645 0.125026,-0.765093 0.302131,-1.117693 0.420841,-0.837565 1.233802,-1.249683 2.099417,-1.52399 0.571332,-0.09162 1.222122,-0.134806 1.743099,0.156024 l 0.0448,0.0259 c 0.184382,-0.365367 0.305578,-0.755516 0.495321,-1.118069 0.175574,-0.335889 0.41433,-0.6408 0.639685,-0.945334 0.53055,-0.719093 2.115692,-2.137753 2.115692,-2.137753 0.402842,-0.01314 2.33645,1.860066 2.694489,2.459749 0.197976,0.331384 0.378719,0.682294 0.535529,1.034331 0.02853,0.06402 0.123304,0.346403 0.164469,0.380198 0.06223,0.05107 1.105711,0.251215 1.256011,0.292707 1.252376,0.346404 2.516428,1.051979 3.217382,2.151085 0.176339,0.27656 0.346553,0.600621 0.391164,0.926184 0.125219,0.657699 0.255606,1.266768 0.12139,1.934418 l -0.01628,0.08242 c -0.313238,1.558348 -1.4268,2.762595 -2.577698,3.806311 -0.305387,0.276937 -0.591435,0.564198 -0.916161,0.822547 -0.147428,0.117341 -0.307875,0.220421 -0.467557,0.324811 -2.639733,-1.007481 -5.161713,-2.332078 -7.505822,-3.985991 -1.441734,-1.017246 -2.766289,-2.145452 -4.071508,-3.323789 -0.08923,-0.08036 -0.177681,-0.161842 -0.265563,-0.244079 z"
     fill="#616302"
     fill-rule="nonzero"
     id="path18"
     style="stroke-width:0.1896" />
  <path
     d="m 50.999337,86.251239 0.07275,-4.236078 0.223631,-0.182685 c 0.373167,-0.216853 0.786157,-0.38095 1.18766,-0.539413 0.128281,-0.0507 0.334106,-0.06064 0.430795,-0.141378 l 0.16715,-0.975 c 0.408204,-1.558912 0.872316,-2.309736 2.105161,-3.394009 1.378549,-1.212694 5.414636,-0.904029 5.492372,-0.624841 -0.06893,0.154709 -0.320321,0.217981 -0.433287,0.343589 -0.144746,0.16128 -0.272837,0.342461 -0.395949,0.520074 -0.762223,1.100419 -0.479621,2.449799 -0.02756,3.603728 0.498192,1.272026 1.410715,2.313115 2.505131,3.135097 0.149534,0.112459 0.3163,0.210659 0.479046,0.311669 -0.760308,0.287262 -1.529424,0.54974 -2.305434,0.779925 -0.319747,0.09481 -0.648874,0.151329 -0.971303,0.23638 -2.680706,0.706704 -5.446229,1.111497 -8.223624,1.159187 -0.102245,0.0017 -0.204485,0.0028 -0.306534,0.0038 z"
     fill="#f9b735"
     fill-rule="nonzero"
     id="path19"
     style="stroke-width:0.1896" />
  <path
     d="m 62.810828,84.075184 c -0.164277,-0.102137 -0.332766,-0.201083 -0.483834,-0.314673 -1.094415,-0.821983 -2.006937,-1.863073 -2.505131,-3.135097 -0.452049,-1.153929 -0.734651,-2.503308 0.02756,-3.603728 0.123111,-0.177614 0.251202,-0.358795 0.39595,-0.520075 0.112967,-0.125606 0.91999,-0.669339 0.969963,-0.827426 0.0806,-0.255532 0.0559,-0.617144 0.07736,-0.886757 0.08845,-1.110934 0.252925,-2.083306 0.885334,-3.030519 0.774286,-1.159561 2.104586,-1.999379 3.314455,-2.673412 0.247374,-0.13781 0.557356,-0.344714 0.841682,-0.388648 0.151832,-0.02347 2.361533,1.355576 2.580952,1.520798 0.219419,0.16541 0.460473,0.29496 0.660745,0.485152 0.887441,0.842073 1.40459,1.883349 1.746739,3.03465 0.06012,0.202774 0.150874,0.462059 0.288538,0.629347 0.367612,0.184187 0.864274,0.217418 1.272287,0.284633 0.962686,0.158464 2.269436,0.418689 3.061146,1.060054 -0.07621,0.07848 -0.152981,0.156772 -0.229758,0.234879 -0.638729,0.649061 -1.35117,1.22734 -2.045806,1.816132 -1.485389,1.258882 -3.011942,2.378452 -4.670413,3.411469 -0.166383,0.103631 -0.35536,0.16954 -0.526146,0.265858 l -2.5193,1.307697 c -1.026445,0.477831 -2.075675,0.928063 -3.142327,1.329666 z"
     fill="#f48b00"
     fill-rule="nonzero"
     id="path20"
     style="stroke-width:0.1896" />
  <g
     transform="matrix(0.19146525,0,0,0.18775281,1.3060348,1.9370832)"
     id="g21">
    <path
       d="m 337.68,430.52 c -0.515,-5.891 0.354,-26.462 0.354,-26.462 l 0.111,-7.709 c 0.029,-1.694 1.227,-40.929 1.227,-40.929 2.686,1.457 7.573,3.731 10.084,5.47 1.191,0.825 2.226,1.841 3.372,2.721 1.146,0.882 2.405,1.572 3.451,2.585 4.635,4.485 7.657,10.217 9.444,16.349 0.315,1.08 0.467,2.275 1.185,3.166 1.921,0.981 4.515,1.158 6.646,1.516 5.144,0.863 12.167,2.294 16.268,5.884 -0.395,0.414 -0.792,0.828 -1.19,1.241 -3.325,3.445 -7.034,6.515 -10.65,9.64 -7.732,6.683 -15.679,12.626 -24.312,18.111 -0.866,0.55 -1.85,0.899 -2.739,1.411 l -13.115,6.942 z"
       fill="#d56b00"
       fill-rule="nonzero"
       id="path21" />
  </g>
  <path
     d="m 32.226168,81.591214 v -7.79606 c 0,-0.278061 0.230333,-0.50374 0.513894,-0.50374 0.283559,0 0.513701,0.225679 0.513701,0.50374 v 4.461758 l 1.1329,-1.790599 c 0.149533,-0.236194 0.466599,-0.30904 0.707464,-0.162406 0.241055,0.146636 0.315343,0.457366 0.165809,0.693747 l -2.006173,3.17077 v 1.980228 c -0.345405,-0.179679 -0.687935,-0.365555 -1.027595,-0.557438 z"
     id="path22"
     style="stroke-width:0.1896" />
  <path
     d="m 65.640684,81.987373 -1.591459,-4.783566 c -0.08788,-0.264356 0.05954,-0.54899 0.329128,-0.635356 0.269584,-0.08618 0.560036,0.05839 0.647918,0.322746 l 0.614413,1.846926 v -4.911427 c 0,-0.278061 0.230333,-0.503928 0.513893,-0.503928 0.28356,0 0.513893,0.225867 0.513893,0.503928 v 5.035342 l 1.017829,-1.728826 c 0.141876,-0.240887 0.456453,-0.323499 0.701911,-0.184375 0.24565,0.138938 0.329896,0.447416 0.18821,0.688302 l -1.90795,3.240427 v 1.448138 l -0.829045,0.430141 c -0.06606,0.03079 -0.132303,0.06159 -0.198741,0.09219 z"
     id="path23"
     style="stroke-width:0.1896" />
  <path
     d="m 42.212996,34.200527 7.564216,7.42675 v -9.870541 c 0,-0.957727 1.511046,-0.957727 1.511046,0 v 9.478513 l 7.165012,-7.034722 c 0.690041,-0.677788 1.759182,0.369309 1.06895,1.046909 l -8.233962,8.084637 v 7.138173 L 61.550603,40.394305 c 0.690233,-0.6776 1.759183,0.369309 1.069143,1.047096 L 51.288258,52.567069 v 6.098776 l 9.376243,-9.206084 c 0.690234,-0.6776 1.759184,0.369498 1.068952,1.047097 L 51.288258,60.76248 v 7.154509 l 0.755329,-0.741812 v 2.096824 l -0.755329,0.741624 v 16.224283 c -0.120815,0.0034 -0.242013,0.0062 -0.363019,0.0082 -0.383313,0.006 -0.766435,0.0067 -1.148027,0.0019 v -15.84236 l -9.947958,-9.767277 c -0.690233,-0.677788 0.378909,-1.724885 1.069141,-1.047098 l 8.878817,8.717551 V 61.154508 L 38.932621,50.506858 c -0.690041,-0.677599 0.378912,-1.724697 1.069143,-1.047097 l 9.775448,9.597924 V 52.958909 L 38.046519,41.441401 c -0.69023,-0.677787 0.378911,-1.724696 1.069144,-1.047096 l 10.661549,10.46797 v -7.138361 l -8.633167,-8.476478 c -0.690232,-0.6776 0.378717,-1.724697 1.068951,-1.046909 z m 9.830591,35.072226 v -2.096824 l 7.724284,-7.5839 c 0.690231,-0.677787 1.759374,0.36931 1.069141,1.047097 z"
     id="path24"
     style="stroke-width:0.1896" />
</svg>
