<svg
  xmlns="http://www.w3.org/2000/svg"
  viewBox="0 0 100 100"
  height="1"
  width="1"
>
  <path
    d="m 22.5,94.97 q -5.625,0 -11.125,-2.75 -5.5,-2.75 -8.875,-7.25 3.25,0 6.625,-2.5625 Q 12.5,79.845 12.5,74.97 12.5,68.72 16.875,64.345 21.25,59.97 27.5,59.97 q 6.25,0 10.625,4.375 4.375,4.375 4.375,10.625 0,8.25 -5.875,14.125 Q 30.75,94.97 22.5,94.97 Z m 0,-10 q 4.125,0 7.0625,-2.9375 Q 32.5,79.095 32.5,74.97 32.5,72.845 31.0625,71.4075 29.625,69.97 27.5,69.97 q -2.125,0 -3.5625,1.4375 Q 22.5,72.845 22.5,74.97 q 0,2.875 -0.6875,5.25 -0.6875,2.375 -1.8125,4.5 0.625,0.25 1.25,0.25 z M 51.25,64.97 37.5,51.22 82.25,6.47 Q 83.625,5.095 85.6875,5.0325 87.75,4.97 89.25,6.47 L 96,13.22 q 1.5,1.5 1.5,3.5 0,2 -1.5,3.5 z m -23.75,10 z"
    style="stroke-width:0.125" 
	/>
</svg>
