<svg
  xmlns="http://www.w3.org/2000/svg"
  viewBox="0 0 100 100"
  height="1"
  width="1"
>
  <defs>
    <filter
      style="color-interpolation-filters:sRGB;"
      id="filter8"
      x="-0.075789474"
      y="-0.075789474"
      width="1.1726316"
      height="1.1726316"
    >
      <feFlood
        result="flood"
        in="SourceGraphic"
        flood-opacity="0.498039"
        flood-color="rgb(0,0,0)"
        id="feFlood7" 
      />
      <feGaussianBlur
        result="blur"
        in="SourceGraphic"
        stdDeviation="3.000000"
        id="feGaussianBlur7" 
      />
      <feOffset
        result="offset"
        in="blur"
        dx="2.000000"
        dy="2.000000"
        id="feOffset7" 
      />
      <feComposite
        result="comp1"
        operator="in"
        in="flood"
        in2="offset"
        id="feComposite7" 
      />
      <feComposite
        result="comp2"
        operator="over"
        in="SourceGraphic"
        in2="comp1"
        id="feComposite8" 
      />
    </filter>
  </defs>
  <path
     d="M 45.03916,54.96084 H 19.61488 l 5.45692,5.33289 q 1.48825,1.48825 1.48825,3.59661 0,2.10835 -1.48825,3.59661 -1.48825,1.48825 -3.5966,1.48825 -2.10836,0 -3.59661,-1.48825 L 3.86423,53.47258 Q 3.120104,52.72846 2.810052,51.86031 2.5,50.99217 2.5,50 2.5,49.00783 2.810052,48.13969 3.120104,47.27154 3.86423,46.52742 L 17.87859,32.51305 q 1.48825,-1.48825 3.5346,-1.48825 2.04634,0 3.53459,1.48825 1.48825,1.48826 1.48825,3.5346 0,2.04634 -1.48825,3.5346 l -5.45692,5.45691 h 25.5483 v -25.5483 l -5.58094,5.58094 q -1.48825,1.48825 -3.47258,1.42624 -1.98433,-0.062 -3.47259,-1.55026 -1.48825,-1.48825 -1.48825,-3.53459 0,-2.04635 1.48825,-3.5346 L 46.52742,3.86423 Q 47.27154,3.1201 48.13969,2.81005 49.00783,2.5 50,2.5 q 0.99217,0 1.86031,0.31005 0.86815,0.31005 1.61227,1.05418 l 14.13839,14.13838 q 1.48825,1.48825 1.48825,3.47259 0,1.98433 -1.48825,3.47258 -1.48825,1.48825 -3.5346,1.48825 -2.04634,0 -3.53459,-1.48825 l -5.58094,-5.45692 v 25.5483 H 80.38512 L 74.9282,39.70627 q -1.48825,-1.48825 -1.48825,-3.59661 0,-2.10835 1.48825,-3.59661 1.48825,-1.48825 3.5966,-1.48825 2.10836,0 3.59661,1.48825 l 14.01436,14.01437 q 0.74413,0.74412 1.05418,1.61227 Q 97.5,49.00783 97.5,50 q 0,0.99217 -0.31005,1.86031 -0.31005,0.86815 -1.05418,1.61227 L 81.99739,67.61097 q -1.48825,1.48825 -3.47259,1.42624 -1.98433,-0.062 -3.47258,-1.55026 -1.48825,-1.48826 -1.48825,-3.5346 0,-2.04634 1.48825,-3.5346 l 5.45692,-5.45691 h -25.5483 v 25.42428 l 5.33289,-5.45692 q 1.48825,-1.48825 3.59661,-1.48825 2.10835,0 3.59661,1.48825 1.48825,1.48825 1.48825,3.5966 0,2.10836 -1.48825,3.59661 L 53.47258,96.13577 Q 52.72846,96.8799 51.86031,97.18995 50.99217,97.5 50,97.5 49.00783,97.5 48.13969,97.18995 47.27154,96.8799 46.52742,96.13577 L 32.38903,81.99739 q -1.48825,-1.48825 -1.42624,-3.5346 0.062,-2.04634 1.55026,-3.53459 1.48826,-1.48825 3.5346,-1.48825 2.04634,0 3.5346,1.48825 l 5.45691,5.58094 z"
     style="stroke-width:0.124021;filter:url(#filter8)"
     filter="url(#shadow)"
     transform="matrix(0.89766604,0,0,0.89766604,4.2190302,4.2190302)" 
  />
</svg>
