<svg
  xmlns="http://www.w3.org/2000/svg"
  viewBox="0 0 100 100"
  height="1"
  width="1"
>
  <path
    d="m 14.375,47.625 q -4.9875,0 -8.43125,-3.44375 Q 2.5,40.7375 2.5,35.75 2.5,30.7625 5.94375,27.31875 9.3875,23.875 14.375,23.875 q 4.9875,0 8.43125,3.44375 Q 26.25,30.7625 26.25,35.75 q 0,4.9875 -3.44375,8.43125 Q 19.3625,47.625 14.375,47.625 Z m 21.375,-19 q -4.9875,0 -8.43125,-3.44375 Q 23.875,21.7375 23.875,16.75 q 0,-4.9875 3.44375,-8.43125 Q 30.7625,4.875 35.75,4.875 q 4.9875,0 8.43125,3.44375 3.44375,3.44375 3.44375,8.43125 0,4.9875 -3.44375,8.43125 Q 40.7375,28.625 35.75,28.625 Z m 28.5,0 q -4.9875,0 -8.43125,-3.44375 Q 52.375,21.7375 52.375,16.75 q 0,-4.9875 3.44375,-8.43125 Q 59.2625,4.875 64.25,4.875 q 4.9875,0 8.43125,3.44375 3.44375,3.44375 3.44375,8.43125 0,4.9875 -3.44375,8.43125 Q 69.2375,28.625 64.25,28.625 Z m 21.375,19 q -4.9875,0 -8.43125,-3.44375 Q 73.75,40.7375 73.75,35.75 q 0,-4.9875 3.44375,-8.43125 Q 80.6375,23.875 85.625,23.875 q 4.9875,0 8.43125,3.44375 Q 97.5,30.7625 97.5,35.75 q 0,4.9875 -3.44375,8.43125 Q 90.6125,47.625 85.625,47.625 Z m -61.0375,47.5 q -5.34375,0 -8.965625,-4.09687 Q 12,86.93125 12,81.35 12,75.175 16.215625,70.54375 20.43125,65.9125 24.5875,61.4 28.03125,57.71875 30.525,53.38437 33.01875,49.05 36.4625,45.25 39.075,42.1625 42.51875,40.14375 45.9625,38.125 50,38.125 q 4.0375,0 7.48125,1.9 3.44375,1.9 6.05625,4.9875 3.325,3.8 5.87812,8.19375 Q 71.96875,57.6 75.4125,61.4 79.56875,65.9125 83.78437,70.54375 88,75.175 88,81.35 88,86.93125 84.37812,91.02813 80.75625,95.125 75.4125,95.125 69,95.125 62.70625,94.05625 56.4125,92.9875 50,92.9875 q -6.4125,0 -12.70625,1.06875 Q 31,95.125 24.5875,95.125 Z"
    style="stroke-width:0.11875" 
	/>
</svg>
