<svg
  xmlns="http://www.w3.org/2000/svg"
  viewBox="0 0 100 100"
  height="1"
  width="1"
>
  <path
    d="m 51.289062,35.9375 h 33.39844 Q 81.52344,27.851564 75.019531,22.05078 68.51563,16.249996 60.078131,13.906246 l -10.781256,18.51563 q -0.703125,1.171875 0,2.343749 Q 50,35.9375 51.289062,35.9375 Z m -16.874997,5.859374 q 0.703125,1.171875 1.992187,1.171875 1.289062,0 1.992187,-1.171875 L 55.156249,12.968746 Q 53.867187,12.734371 52.578125,12.617184 51.289062,12.499997 50,12.499997 q -7.734374,0 -14.41406,2.929687 -6.679687,2.929687 -11.835936,7.851568 z M 13.671876,59.375004 H 35.11719 q 1.289062,0 2.050777,-1.171882 0.761722,-1.171875 0.05857,-2.34375 L 20.468725,27.031252 q -3.749997,4.804686 -5.859372,10.605463 -2.109375,5.800784 -2.109375,12.363283 0,2.460937 0.292969,4.746097 0.292969,2.285152 0.878906,4.628909 z m 26.250001,26.718749 10.66406,-18.515625 q 0.703125,-1.171875 -0.05858,-2.34375 -0.761722,-1.171875 -2.050784,-1.171875 H 15.3125 q 3.16406,8.085936 9.667969,13.886717 6.503909,5.800784 14.941408,8.144533 z M 50,87.500003 q 7.734374,0 14.414068,-2.929687 6.679686,-2.929687 11.835935,-7.851561 L 65.585943,58.203122 q -0.703125,-1.171875 -1.992188,-1.171875 -1.289062,0 -1.992187,1.171875 L 44.843751,87.031253 q 1.289062,0.234375 2.519534,0.351563 Q 48.59375,87.500003 50,87.500003 Z M 79.531253,72.968752 q 3.749999,-4.804687 5.859374,-10.605471 2.109374,-5.800784 2.109374,-12.363283 0,-2.460937 -0.292964,-4.746089 -0.292973,-2.28516 -0.87891,-4.62891 H 64.882818 q -1.289063,0 -2.050785,1.171875 -0.761715,1.171875 -0.05857,2.34375 z M 50,49.999998 Z m 0,46.875004 q -9.609373,0 -18.16406,-3.691402 Q 23.281254,89.49219 16.894532,83.105476 10.507813,76.718755 6.8164064,68.164065 3.125,59.609379 3.125,49.999998 3.125,40.273437 6.8164064,31.777341 10.507813,23.281252 16.894532,16.894531 23.281254,10.507809 31.83594,6.8164074 40.390627,3.124998 50,3.124998 q 9.726568,0 18.222657,3.6914094 8.496096,3.6914016 14.882818,10.0781236 6.386714,6.386721 10.078123,14.88281 3.691402,8.496096 3.691402,18.222657 0,9.609381 -3.691402,18.164067 -3.691409,8.55469 -10.078123,14.941411 Q 76.718753,89.49219 68.222657,93.1836 59.726568,96.875002 50,96.875002 Z"
  />
</svg>
