<svg
  xmlns="http://www.w3.org/2000/svg"
  viewBox="0 0 100 100"
  height="1"
  width="1"
>
  <path
    d="M 50,97.5 Q 40.14375,97.5 31.475,93.75937 22.80625,90.01875 16.39375,83.60625 9.98125,77.19375 6.240625,68.525 2.5,59.85625 2.5,50 2.5,40.14375 6.240625,31.475 9.98125,22.80625 16.39375,16.39375 22.80625,9.98125 31.475,6.24062 40.14375,2.5 50,2.5 q 9.85625,0 18.525,3.74062 8.66875,3.74063 15.08125,10.15313 6.4125,6.4125 10.15312,15.08125 Q 97.5,40.14375 97.5,50 97.5,59.85625 93.75937,68.525 90.01875,77.19375 83.60625,83.60625 77.19375,90.01875 68.525,93.75937 59.85625,97.5 50,97.5 Z M 50,88 Q 65.9125,88 76.95625,76.95625 88,65.9125 88,50 88,34.0875 76.95625,23.04375 65.9125,12 50,12 34.0875,12 23.04375,23.04375 12,34.0875 12,50 12,65.9125 23.04375,76.95625 34.0875,88 50,88 Z m 0,-38 z"
    style="stroke-width:0.11875" 
  />
  <path
    d="m 50,77.5 q 11.4125,0 19.456256,-8.043744 Q 77.5,61.4125 77.5,50 77.5,38.5875 69.456256,30.543744 61.4125,22.5 50,22.5 38.5875,22.5 30.543744,30.543744 22.5,38.5875 22.5,50 22.5,61.4125 30.543744,69.456256 38.5875,77.5 50,77.5 Z"
    style="fill:#d40213;stroke-width:0.1375"
    id="buttonInside"
  />
</svg>
