<svg
  xmlns="http://www.w3.org/2000/svg"
  viewBox="0 0 100 100"
  width="1"
  height="1"
>
  <path
    d="m 73.071307,34.000882 q -0.675848,0.323888 -1.145002,1.025131 -0.175557,1.501267 -0.750264,3.117408 -0.882383,2.48137 -2.705723,5.233526 -1.330383,2.008094 -3.161711,4.160352 -0.199699,0.234713 -0.405364,0.471121 -5.844128,6.800241 -10.681745,9.386402 -2.367914,1.275064 -4.385617,1.275064 -0.491834,0 -0.96286,-0.07576 -1.046839,-0.149331 -2.295186,-0.582723 -6.26405,-2.533153 -7.006836,-2.602226 -2.051232,-0.537111 -3.7884,-0.537111 -0.365752,0 -0.717582,0.0238 -4.468844,0.209844 -8.902067,4.13524 -1.035641,0.829554 -2.239118,2.047775 h 1.5e-5 q -1.11e-4,4.4e-5 -3.33e-4,0 h 1.11e-4 q -6.843311,6.927187 -19.1134113,26.421146 -0.2045512,0.552301 -0.2825172,1.035618 -0.4052234,2.512088 2.6090445,3.161311 0.00442,1.1e-5 0.00883,1.1e-5 1.3365223,0 2.2179658,-1.054554 10.7809372,-16.788358 15.4405582,-22.238076 2.112622,-2.560783 3.94661,-4.291357 h 2.21e-4 l -1.11e-4,-2.2e-5 h -7.6e-5 q 1.52106,-1.435266 2.850461,-2.299478 h 2.22e-4 l -1.11e-4,-1.1e-5 h -8.6e-5 q 0.206122,-0.134009 0.407638,-0.25427 1.869752,-1.150124 3.777963,-1.150124 0.501344,0 1.005343,0.07938 1.047732,0.146848 2.302391,0.575129 4.51179,1.823716 6.280372,2.403923 h -1.6e-5 q 0.734582,0.240988 0.995926,0.267441 1.904292,0.476022 3.563158,0.476022 0.640093,0 1.24364,-0.07088 3.127464,-0.336757 6.687041,-2.456364 h 4.44e-4 l 9.29993,-7.89248 h 5.55e-4 q 4.47494,-4.777834 7.317317,-9.708934 h 7e-6 q 0.401798,-0.697075 0.77097,-1.397188 0.64313,-1.356176 1.05973,-2.713247 h 6.66e-4 q -3.33e-4,-5.3e-5 -6.66e-4,-1.07e-4 v 0 q 0.577833,-1.882325 0.719854,-3.766405 -0.08379,-0.394477 -0.216335,-0.72655 h 6.65e-4 Q 74.76752,35.110553 73.071721,34.00076 Z m -27.695916,29.46675 1.046583,0.125671 -1.046594,-0.125671 z"
    style="stroke-width:0.11087;stroke-linejoin:miter" 
	/>
  <path
    d="m 67.165183,53.791382 -9.29875,7.891482 q 2.366017,-1.409128 4.922929,-3.605901 2.354799,-2.127158 4.376416,-4.285581 z"
    style="stroke-width:0.11087;stroke-linejoin:miter"
	/>
  <path
    d="m 25.041989,60.84994 q -1.249087,0.03011 -2.068335,0.895677 L 3.0175468,84.188759 q -0.9179615,1.446425 -0.2077588,2.91917 0.8668257,1.509965 2.5265996,1.545932 1.2490353,-0.03123 2.0675822,-0.897684 L 27.35977,65.312791 q 0.916581,-1.447434 0.204947,-2.919348 -0.806222,-1.455594 -2.477154,-1.543137"
    style="stroke-width:0.11087;stroke-linejoin:miter" 
	/>
  <path
    d="m 80.058925,12.856493 q 4.355762,0.433647 7.190787,3.988049 2.731074,3.685196 2.308828,8.321603 -0.57185,4.711795 -3.953977,7.760593 -3.542899,3.008173 -7.863041,2.678758 -4.355788,-0.418283 -7.22721,-3.941498 -2.761802,-3.668092 -2.338388,-8.310471 0.548372,-4.715395 3.916072,-7.776726 3.491738,-3.014583 7.911982,-2.72499 m 0.443133,-4.5003032 q -6.218589,-0.4784131 -11.267212,3.7642382 -4.788917,4.310161 -5.504939,10.840737 -0.539071,6.581382 3.366901,11.602117 3.986745,4.875969 10.277836,5.550422 6.247408,0.461154 11.209242,-3.732748 4.796471,-4.303367 5.533659,-10.829881 0.564507,-6.455253 -3.349285,-11.6105 -3.95661,-4.9031282 -10.25147,-5.5830791"
    style="stroke-width:0.11087;stroke-linejoin:miter" 
	/>
  <path
    d="m 96.188962,26.092666 q -0.58433,0.03136 -0.897367,0.340671 L 50.851062,64.125159 26.664576,61.220757 26.381898,63.825843 51.31726,66.84942 q 0.577961,-0.04721 0.882487,-0.357468 L 97.093431,28.392427 q 1.120687,-1.645282 -0.84773,-2.29822"
    style="stroke-width:0.11087;stroke-linejoin:miter" 
	/>
  <path
    d="M 52.378164,62.453257 19.810191,87.620871 q -0.873286,0.814985 -0.226971,1.856468 0.774672,0.878613 1.853106,0.24999 L 54.00536,64.559061 52.408744,62.492827"
    style="stroke-width:0.11087;stroke-linejoin:miter" 
	/>
  <path
    d="m 46.458032,63.508998 -1.046656,2.446907 39.34978,17.182779 q 1.279905,0.825019 2.193026,-0.07658 0.770512,-1.229219 -0.381777,-2.031388 L 46.505398,63.529686"
    style="stroke-width:0.11087;stroke-linejoin:miter" 
	/>
  <path
    d="m 84.159851,33.994264 q -1.702017,1.078043 -3.568693,1.449055 h 7.76e-4 q -0.114196,0.207591 -0.208388,0.441933 -0.102121,0.288618 -0.145743,0.598511 -0.442356,3.928068 -0.802856,6.415344 -0.04057,0.280069 -0.08077,0.547976 l 5.543886,-4.704885 -5.544701,4.705573 h 6.65e-4 q -0.244982,1.632188 -0.476808,2.812735 -0.61315,3.172964 -1.325547,4.091424 -1.140434,-0.31812 -3.451814,-2.445189 -1.564313,-1.439573 -3.664962,-3.707691 l -4.409707,4.271467 q 1.742689,1.969832 3.334587,3.458388 l 2.035911,-1.727803 -2.036227,1.728069 h 5.54e-4 q 4.903128,4.584665 8.375831,4.603224 0.08704,0.0024 0.173146,0.0024 4.895623,0 6.744268,-8.019614 0.941337,-3.817121 1.556098,-10.473991 0.06425,-0.695788 0.12494,-1.422596 -0.372813,-2.098909 -2.173734,-2.624414 z m -6.355229,16.398977 -0.0022,0.04426 -0.114422,2.317045 0.115431,-2.337811 z"
    style="stroke-width:0.11087;stroke-linejoin:miter" 
	/>
  <path
    d="m 67.029958,25.911593 q -0.668881,0.0058 -1.230561,0.311168 l -1.927311,1.324734 -0.5725,0.393512 q -2.7846,1.982508 -4.305552,3.733591 -2.629713,2.989104 -2.243743,6.001819 0.371094,2.840586 3.834374,6.082312 1.725658,1.639616 4.724158,3.778315 v 0 q -1.09e-4,0 -2.22e-4,0 h 5.54e-4 q 0.779651,0.556104 1.645356,1.145922 l 2.173312,1.462823 q 0.531567,0.27722 1.165529,0.288285 1.506195,-0.02507 2.305237,-1.354746 0.672617,-1.358949 -0.08564,-2.632471 -0.238123,-0.379432 -0.611599,-0.669391 -1.929803,-1.32194 -3.430466,-2.400774 -2.940281,-2.113787 -4.233073,-3.294234 -2.172337,-1.924838 -2.336414,-3.08097 -0.143814,-0.818804 1.265936,-2.205149 0.796934,-0.8082 2.576618,-2.156344 h 5.55e-4 q -8.9e-5,-1.11e-4 -2.22e-4,-3.32e-4 v 0 q 1.241717,-0.940613 2.961783,-2.144043 0.395044,-0.343011 0.613396,-0.751413 h 6.65e-4 Q 68.48068,28.063713 68.228201,26.203675 h 5.54e-4 q -0.519604,-0.263767 -1.187243,-0.292337 z"
    style="stroke-width:0.11087;stroke-linejoin:miter" 
	/>
</svg>
