<svg
  xmlns="http://www.w3.org/2000/svg"
  viewBox="0 0 100 100"
  height="1"
  width="1"
>
  <path
    d="m 75.55762,61.55901 q -1.62639,-0.92936 -2.09108,-2.84618 -0.46468,-1.91683 0.46469,-3.54322 0.81319,-1.27788 1.33596,-2.73002 0.52277,-1.45214 0.75512,-2.96236 0.46468,-1.97491 1.80065,-3.25279 1.33596,-1.27788 3.31087,-1.27788 1.97491,0 3.25279,1.39405 1.27788,1.39406 1.04554,3.36896 -0.34852,2.67194 -1.2198,5.2277 -0.87128,2.55576 -2.26533,4.87918 -0.92937,1.62639 -2.84619,2.14916 -1.91682,0.52277 -3.54322,-0.4066 z M 53.25279,36.34991 Z m 0,-33.22491 q 5.80855,0 9.87453,4.06599 4.06599,4.06598 4.06599,9.87453 v 22.07249 q 0,2.32342 -1.45214,3.48513 -1.45214,1.16171 -3.1947,1.16171 -1.74257,0 -3.1947,-1.21979 -1.45214,-1.2198 -1.45214,-3.54322 V 17.06552 q 0,-1.97491 -1.33597,-3.31087 -1.33596,-1.33597 -3.31087,-1.33597 -1.97491,0 -3.31088,1.33597 -1.33596,1.33596 -1.33596,3.31087 v 3.48513 q 0,2.32342 -1.45214,3.48513 -1.45214,1.16171 -3.1947,1.16171 -1.74257,0 -3.1947,-1.21979 -1.45214,-1.2198 -1.45214,-3.54322 v -3.36896 q 0,-5.80855 4.06598,-9.87453 Q 47.44424,3.125 53.25279,3.125 Z m -4.64684,83.64312 v -9.64219 q -10.68773,-1.39405 -18.296935,-9.00325 -7.6092,-7.6092 -9.235595,-18.41311 -0.232342,-1.9749 1.04554,-3.36896 1.277881,-1.39405 3.252788,-1.39405 1.974907,0 3.368959,1.33597 1.394052,1.33596 1.742565,3.31087 1.626394,8.24814 8.015798,13.41775 6.38941,5.16961 14.75372,5.16961 3.94981,0 7.49303,-1.21979 3.54321,-1.2198 6.44749,-3.42705 l 6.62175,6.62175 q -3.36896,2.67193 -7.37686,4.53067 -4.0079,1.85873 -8.53857,2.43959 v 9.64219 q 0,1.97491 -1.33597,3.31088 -1.33596,1.33596 -3.31087,1.33596 -1.97491,0 -3.31088,-1.33596 -1.33596,-1.33597 -1.33596,-3.31088 z m 37.6394,8.829 L 7.249071,16.60084 Q 5.97119,15.32296 5.97119,13.34805 q 0,-1.97491 1.277881,-3.25279 1.277881,-1.27788 3.252788,-1.27788 1.974907,0 3.252788,1.27788 L 92.75093,89.09154 q 1.27788,1.27788 1.27788,3.25279 0,1.97491 -1.27788,3.25279 -1.27788,1.27788 -3.25279,1.27788 -1.97491,0 -3.25279,-1.27788 z"
  />
</svg>
