<svg
  xmlns="http://www.w3.org/2000/svg"
  viewBox="0 0 100 100"
  height="1"
  width="1"
>
  <path
    d="M 63.058036,44.977685 51.5625,33.482145 h 5.133929 v -6.25 q 0,-0.78125 0.669642,-1.06027 0.669643,-0.27902 1.227679,0.27902 l 9.93304,9.93304 q 0.66964,0.66964 0.66964,1.5625 0,0.89285 -0.66964,1.5625 z m 28.013394,28.01339 -8.25893,-8.25893 h 5.13393 V 15.625005 H 33.705357 L 24.776786,6.696435 H 87.94643 q 3.68303,0 6.3058,2.62276 2.62277,2.62277 2.62277,6.30581 v 49.10714 q 0,2.90179 -1.6183,5.07813 -1.61831,2.17633 -4.18527,3.1808 z m -11.16072,14.0625 H 7.589286 q -1.897322,0 -3.180804,-1.28348 Q 3.125,84.486605 3.125,82.589285 q 0,-1.89732 1.283482,-3.1808 1.283482,-1.28348 3.180804,-1.28348 H 70.87054 l -4.46429,-4.46429 H 16.517857 q -3.683036,0 -6.305803,-2.62277 -2.622768,-2.62276 -2.622768,-6.3058 v -49.77679 l -2.790179,-2.90178 q -1.227678,-1.33929 -1.227678,-3.125 0,-1.78572 1.339285,-3.125 1.227679,-1.22768 3.125,-1.22768 1.897322,0 3.125,1.22768 l 82.142856,82.14286 q 1.22768,1.22767 1.22768,3.125 0,1.89732 -1.22768,3.125 -1.22768,1.22767 -3.125,1.22767 -1.89732,0 -3.125,-1.22767 z M 43.303571,50.669645 v 0.66964 q 0,1.89732 -1.283482,3.18081 -1.283482,1.28348 -3.180803,1.28348 -1.897322,0 -3.180804,-1.28348 Q 34.375,53.236605 34.375,51.339285 v -4.46428 q 0,-1.22768 0.111607,-2.34375 0.111607,-1.11607 0.669643,-2.12054 L 16.517857,23.772325 v 40.95982 h 40.848214 z m 14.955358,-10.49107 z m -21.316965,4.01786 z"
  />
</svg>
