<svg
  xmlns="http://www.w3.org/2000/svg"
  viewBox="0 0 100 100"
  height="1"
  width="1"
>
  <path
    d="m 31,31 c 0,2.6125 -2.1375,4.75 -4.75,4.75 h -19 C 4.6375,35.75 2.5,33.6125 2.5,31 V 12 C 2.5,9.3875 4.6375,7.25 7.25,7.25 9.8625,7.25 12,9.3875 12,12 v 9.7375 C 20.645,10.1 34.3725,2.5 50,2.5 76.22,2.5 97.5,23.78 97.5,50 97.5,76.22 76.22,97.5 50,97.5 23.78,97.5 2.5,76.22 2.5,50 2.5,47.3875 4.6375,45.25 7.25,45.25 9.8625,45.25 12,47.3875 12,50 12,70.995 29.005,88 50,88 70.995,88 88,70.995 88,50 88,29.005 70.995,12 50,12 37.9825,12 27.3425,17.5575 20.36,26.25 h 5.89 c 2.6125,0 4.75,2.1375 4.75,4.75 z"
    style="stroke-width:4.75;stroke-linecap:round;stroke-linejoin:round" 
	/>
</svg>
