<svg
  xmlns="http://www.w3.org/2000/svg"
  viewBox="0 0 100 100"
  height="1"
  width="1"
>
  <path
    d="M 13.05556,97.5 Q 8.70139,97.5 5.60069,94.39931 2.5,91.29861 2.5,86.94444 V 13.05556 Q 2.5,8.70139 5.60069,5.60069 8.70139,2.5 13.05556,2.5 h 58.97916 q 2.11111,0 4.02431,0.79167 1.91319,0.79166 3.36458,2.24305 l 15.04167,15.04167 q 1.45139,1.45139 2.24305,3.36458 Q 97.5,25.85417 97.5,27.96528 v 58.97916 q 0,4.35417 -3.10069,7.45487 Q 91.29861,97.5 86.94444,97.5 Z M 86.94444,28.09722 71.90278,13.05556 H 13.05556 V 86.94444 H 86.94444 Z M 50,81.66667 q 6.59722,0 11.21528,-4.61806 4.61805,-4.61805 4.61805,-11.21528 0,-6.59722 -4.61805,-11.21527 Q 56.59722,50 50,50 q -6.59722,0 -11.21528,4.61806 -4.61805,4.61805 -4.61805,11.21527 0,6.59723 4.61805,11.21528 Q 43.40278,81.66667 50,81.66667 Z M 23.61111,39.44444 h 36.94445 q 2.24305,0 3.76041,-1.51736 1.51736,-1.51736 1.51736,-3.76041 V 23.61111 q 0,-2.24305 -1.51736,-3.76042 -1.51736,-1.51736 -3.76041,-1.51736 H 23.61111 q -2.24305,0 -3.76042,1.51736 -1.51736,1.51737 -1.51736,3.76042 v 10.55556 q 0,2.24305 1.51736,3.76041 1.51737,1.51736 3.76042,1.51736 z M 13.05556,28.09722 V 86.94444 13.05556 Z"
    style="stroke-width:0.131944" 
	/>
</svg>
