<svg
  xmlns="http://www.w3.org/2000/svg"
  viewBox="0 0 100 100"
  height="1"
  width="1"
>
  <defs>
    <filter
      style="color-interpolation-filters:sRGB;"
      id="filter5"
      x="-0.08"
      y="-0.08"
      width="1.1822222"
      height="1.1822222"
    >
      <feFlood
        result="flood"
        in="SourceGraphic"
        flood-opacity="0.498039"
        flood-color="rgb(0,0,0)"
        id="feFlood4" 
      />
      <feGaussianBlur
        result="blur"
        in="SourceGraphic"
        stdDeviation="3.000000"
        id="feGaussianBlur4" 
      />
      <feOffset
        result="offset"
        in="blur"
        dx="2.000000"
        dy="2.000000"
        id="feOffset4" 
      />
      <feComposite
        result="comp1"
        operator="in"
        in="flood"
        in2="offset"
        id="feComposite4" 
      />
      <feComposite
        result="comp2"
        operator="over"
        in="SourceGraphic"
        in2="comp1"
        id="feComposite5"
      />
    </filter>
  </defs>
  <path
    d="m 89.999998,95 q 2.125004,0 3.562503,-1.437499 Q 95,92.125002 95,89.999998 V 60.000004 q 0,-2.125004 -1.437499,-3.562503 -1.437499,-1.437499 -3.562503,-1.437499 -2.124995,0 -3.562494,1.437499 -1.437508,1.437499 -1.437508,3.562503 v 18 l -63,-63 h 18 q 2.125004,0 3.562503,-1.437508 1.437499,-1.437499 1.437499,-3.562494 0,-2.1250041 -1.437499,-3.5625031 Q 42.125,5 39.999996,5 H 10.000002 Q 7.8749979,5 6.4374989,6.4374989 5,7.8749979 5,10.000002 v 29.999994 q 0,2.125004 1.4374989,3.562503 1.437499,1.437499 3.5625031,1.437499 2.124995,0 3.562494,-1.437499 1.437508,-1.437499 1.437508,-3.562503 v -18 l 63,63 h -18 q -2.125004,0 -3.562503,1.437508 -1.437499,1.437499 -1.437499,3.562494 0,2.125004 1.437499,3.562503 Q 57.875,95 60.000004,95 Z"
    style="stroke-width:0.125;filter:url(#filter5)"
    filter="url(#shadow)"
    transform="matrix(0.9398496,0,0,0.9398496,2.0676692,2.0676692)" 
  />
</svg>
