<svg
  xmlns="http://www.w3.org/2000/svg"
  viewBox="0 0 100 100"
  height="1"
  width="1"
>
  <path
    d="m 37.63514,72.77027 q -14.72973,0 -24.93244,-10.2027 Q 2.5,52.36486 2.5,37.63514 2.5,22.90541 12.7027,12.7027 22.90541,2.5 37.63514,2.5 q 14.72972,0 24.93243,10.2027 10.2027,10.20271 10.2027,24.93244 0,5.94594 -1.89189,11.21621 -1.89189,5.27027 -5.13514,9.32433 L 96.01351,88.44595 Q 97.5,89.93243 97.5,92.22973 q 0,2.2973 -1.48649,3.78378 Q 94.52703,97.5 92.22973,97.5 q -2.2973,0 -3.78378,-1.48649 L 58.17568,65.74324 q -4.05406,3.24325 -9.32433,5.13514 -5.27027,1.89189 -11.21621,1.89189 z m 0,-10.81081 q 10.13513,0 17.22972,-7.0946 7.0946,-7.09459 7.0946,-17.22972 0,-10.13514 -7.0946,-17.22973 -7.09459,-7.0946 -17.22972,-7.0946 -10.13514,0 -17.22973,7.0946 -7.0946,7.09459 -7.0946,17.22973 0,10.13513 7.0946,17.22972 7.09459,7.0946 17.22973,7.0946 z"
    style="stroke-width:0.135135" 
	/>
</svg>
