<svg
  xmlns="http://www.w3.org/2000/svg"
  viewBox="0 0 100 100"
  height="1"
  width="1"
>
  <path
    d="m 49.999999,62.33553 q -6.16777,0 -10.4852,-4.31744 -4.31743,-4.31743 -4.31743,-10.4852 V 17.92763 q 0,-6.16776 4.31743,-10.4852 4.31743,-4.31743 10.4852,-4.31743 6.16776,0 10.4852,4.31743 4.31744,4.31744 4.31744,10.4852 v 29.60526 q 0,6.16777 -4.31744,10.4852 -4.31744,4.31744 -10.4852,4.31744 z m 0,-29.60527 z m -4.93421,59.21052 V 81.7023 q -11.34868,-1.60362 -19.42845,-9.62171 -8.07978,-8.01809 -9.80675,-19.49013 -0.2467,-2.09704 1.1102,-3.57731 1.35691,-1.48026 3.45395,-1.48026 2.09704,0 3.51562,1.41859 1.41859,1.41858 1.91201,3.51562 1.72697,8.63487 8.57319,14.18586 6.84622,5.55098 15.60444,5.55098 8.88158,0 15.66612,-5.61266 6.78454,-5.61267 8.51151,-14.12418 0.49342,-2.09704 1.912,-3.51562 1.41859,-1.41859 3.51563,-1.41859 2.09705,0 3.45395,1.48026 1.35691,1.48027 1.1102,3.57731 -1.72698,11.22533 -9.74507,19.36677 -8.01809,8.14145 -19.49013,9.74507 v 10.23848 q 0,2.09705 -1.41858,3.51563 -1.41859,1.41859 -3.51563,1.41859 -2.09704,0 -3.51562,-1.41859 -1.41859,-1.41858 -1.41859,-3.51563 z m 4.93421,-39.47368 q 2.09704,0 3.51563,-1.41858 1.41858,-1.41858 1.41858,-3.51563 V 17.92763 q 0,-2.09704 -1.41858,-3.51562 -1.41859,-1.41859 -3.51563,-1.41859 -2.09704,0 -3.51562,1.41859 -1.41859,1.41858 -1.41859,3.51562 v 29.60526 q 0,2.09705 1.41859,3.51563 1.41858,1.41858 3.51562,1.41858 z"
  />
</svg>
