<svg
  xmlns="http://www.w3.org/2000/svg"
  viewBox="0 0 100 100"
  height="1"
  width="1"
>
  <path
    d="m 45.738636,45.738635 h 8.522728 v 5.96591 q 0,0.74574 0.639204,1.01207 0.639205,0.26634 1.171875,-0.26633 l 9.481537,-9.48154 q 0.6392,-0.6392 0.6392,-1.49147 0,-0.85228 -0.6392,-1.49148 l -9.481537,-9.48154 q -0.53267,-0.53267 -1.171875,-0.26633 -0.639204,0.26633 -0.639204,1.01207 v 5.96591 h -8.522728 q -5.326704,0 -9.055397,3.72869 -3.728694,3.7287 -3.728694,9.0554 v 4.26137 q 0,1.81108 1.225142,3.03622 1.225143,1.22514 3.036222,1.22514 1.81108,0 3.036222,-1.22514 1.225142,-1.22514 1.225142,-3.03622 v -4.26137 q 0,-1.81108 1.225142,-3.03622 1.225142,-1.22514 3.036221,-1.22514 z M 7.386364,88.352275 q -1.81108,0 -3.036222,-1.22515 Q 3.125,85.901985 3.125,84.090905 q 0,-1.81108 1.225142,-3.03622 1.225142,-1.22514 3.036222,-1.22514 H 92.61364 q 1.81108,0 3.03622,1.22514 1.22514,1.22514 1.22514,3.03622 0,1.81108 -1.22514,3.03622 -1.22514,1.22515 -3.03622,1.22515 z m 8.522727,-12.7841 q -3.515625,0 -6.019176,-2.50355 -2.503551,-2.50355 -2.503551,-6.01917 v -46.875 q 0,-3.51563 2.503551,-6.01918 2.503551,-2.50355 6.019176,-2.50355 H 84.09091 q 3.51562,0 6.01918,2.50355 2.50355,2.50355 2.50355,6.01918 v 46.875 q 0,3.51562 -2.50355,6.01917 -2.50356,2.50355 -6.01918,2.50355 z m 0,-8.52272 H 84.09091 v -46.875 H 15.909091 Z m 0,0 v -46.875 z"
  />
</svg>
