<svg
  xmlns="http://www.w3.org/2000/svg"
  viewBox="0 0 100 100"
  height="1"
  width="1"
>
  <path
    d="m 35.937501,54.687499 v 9.374998 q 0,1.992187 1.347652,3.339847 1.34766,1.34766 3.339847,1.34766 1.992187,0 3.339847,-1.34766 1.347652,-1.34766 1.347652,-3.339847 v -9.374998 h 9.374998 q 1.992187,0 3.339847,-1.347652 1.34766,-1.34766 1.34766,-3.339847 0,-1.992187 -1.34766,-3.339847 -1.34766,-1.347652 -3.339847,-1.347652 h -9.374998 v -9.374998 q 0,-1.992187 -1.347652,-3.339847 -1.34766,-1.347652 -3.339847,-1.347652 -1.992187,0 -3.339847,1.347652 -1.347652,1.34766 -1.347652,3.339847 v 9.374998 h -9.374998 q -1.992187,0 -3.339847,1.347652 -1.347652,1.34766 -1.347652,3.339847 0,1.992187 1.347652,3.339847 1.34766,1.347652 3.339847,1.347652 z M 12.499998,87.5 Q 8.6328114,87.5 5.8789094,84.746091 3.125,81.992189 3.125,78.125002 V 21.874998 q 0,-3.867187 2.7539094,-6.621089 Q 8.6328114,12.5 12.499998,12.5 h 56.250004 q 3.867187,0 6.621085,2.753909 2.753909,2.753902 2.753909,6.621089 V 42.968751 L 92.890618,28.203122 q 1.171875,-1.171875 2.578125,-0.585938 1.406257,0.585938 1.406257,2.226563 v 40.312506 q 0,1.640625 -1.406257,2.226563 -1.40625,0.585937 -2.578125,-0.585938 L 78.124996,57.031249 v 21.093753 q 0,3.867187 -2.753909,6.621089 Q 72.617189,87.5 68.750002,87.5 Z m 0,-9.374998 H 68.750002 V 21.874998 H 12.499998 Z m 0,0 V 21.874998 Z"
  />
</svg>
