<svg
  xmlns="http://www.w3.org/2000/svg"
  viewBox="0 0 100 100"
  height="1"
  width="1"
>
  <path
    d="m 50,57.125 q 6.09375,0 10.359372,-4.265621 Q 64.625,48.59375 64.625,42.5 64.625,36.40625 60.359372,32.140629 56.09375,27.875 50,27.875 q -6.09375,0 -10.359371,4.265629 Q 35.375,36.40625 35.375,42.5 q 0,6.09375 4.265629,10.359379 Q 43.90625,57.125 50,57.125 Z m 0,-6.5 q -3.4125,0 -5.76875,-2.35625 Q 41.875,45.9125 41.875,42.5 q 0,-3.4125 2.35625,-5.76875 Q 46.5875,34.375 50,34.375 q 3.4125,0 5.76875,2.35625 Q 58.125,39.0875 58.125,42.5 q 0,3.4125 -2.35625,5.76875 Q 53.4125,50.625 50,50.625 Z M 24,68.5 q -2.68125,0 -4.590621,-1.909371 Q 17.5,64.68125 17.5,62 V 23 q 0,-2.68125 1.909379,-4.590628 Q 21.31875,16.5 24,16.5 H 34.2375 L 38.3,12.1125 q 0.89375,-0.975 2.153129,-1.54375 Q 41.7125,10 43.09375,10 h 13.8125 q 1.38125,0 2.640622,0.56875 Q 60.80625,11.1375 61.7,12.1125 L 65.7625,16.5 H 76 q 2.68125,0 4.590622,1.909372 Q 82.5,20.31875 82.5,23 v 39 q 0,2.68125 -1.909378,4.590629 Q 78.68125,68.5 76,68.5 Z M 24,62 H 76 V 23 H 62.8375 L 56.90625,16.5 H 43.09375 L 37.1625,23 H 24 Z"
    style="stroke-width:3.5"
  />
  <path
    d="m -535.54828,-61.330725 c -41.25,0 -76.56248,-14.687484 -105.93751,-44.062485 -29.37501,-29.37503 -44.06249,-64.68751 -44.06249,-105.93751 v -150 c 0,-21.25 7.18748,-39.06248 21.56249,-53.43751 14.37503,-14.37501 32.18751,-21.56249 53.43751,-21.56249 21.25,0 39.06248,7.18748 53.43749,21.56249 14.37503,14.37503 21.56251,32.18751 21.56251,53.43751 v 150 h 900 v -150 c 0,-21.25 7.18748,-39.06248 21.56249,-53.43751 14.37503,-14.37501 32.18751,-21.56249 53.43751,-21.56249 21.25,0 39.06248,7.18748 53.43749,21.56249 14.37503,14.37503 21.56251,32.18751 21.56251,53.43751 v 150 c 0,41.25 -14.68748,76.56248 -44.06251,105.93751 -29.37501,29.375001 -64.68749,44.062485 -105.93749,44.062485 z"
    style="stroke-width:1.875"
    transform="matrix(0.07916667,0,0,0.07916667,56.772572,99.54285)" 
  />
</svg>
