<?xml version="1.0" encoding="UTF-8" standalone="no"?>
<svg
   viewBox="0 0 100 100"
   version="1.1"
   id="svg47"
   width="1"
   height="1"
   xmlns="http://www.w3.org/2000/svg"
   xmlns:svg="http://www.w3.org/2000/svg">
  <defs
     id="defs47" />
  <g
     transform="matrix(0.30265082,0,0,0.30265082,-41.567764,-104.20409)"
     id="g47">
    <path
       transform="matrix(0.57391,-0.81892,0.81892,0.57391,0,0)"
       d="m -310.9,464.31 a 23.944,23.944 0 0 1 23.944,23.944 v 6.2805 a 23.944,23.944 0 0 1 -23.944,23.944 23.944,23.944 0 0 1 -23.944,-23.944 V 488.254 A 23.944,23.944 0 0 1 -310.9,464.31"
       fill="#ffffff"
       stroke="#000000"
       stroke-linecap="round"
       stroke-linejoin="round"
       stroke-width="7.7717"
       id="path1" />
    <path
       transform="matrix(0.77717,0,0,0.77717,-52.749,-231.8)"
       d="m 409.11,969.53 c 0,18.41 -17.638,33.335 -39.396,33.335 -21.758,0 -39.396,-14.925 -39.396,-33.335 0,-18.41 17.638,-33.335 39.396,-33.335 21.758,0 39.396,14.925 39.396,33.335 z"
       fill="#53d753"
       stroke="#000000"
       stroke-linecap="round"
       stroke-linejoin="round"
       stroke-width="10"
       id="path2" />
    <path
       d="m 237.72,490.29 a 25.907,25.907 0 0 1 25.907,25.907 v 0.78507 a 25.907,25.907 0 0 1 -25.907,25.907 25.907,25.907 0 0 1 -25.907,-25.907 V 516.197 A 25.907,25.907 0 0 1 237.72,490.29"
       id="path3" />
    <path
       transform="matrix(-0.92665,-0.37592,-0.37592,0.92665,0,0)"
       d="m -412.78,327.12 h 0.27417 a 24.373,24.373 0 0 1 24.373,24.373 v 27.697 a 24.373,24.373 0 0 1 -24.373,24.373 H -412.78 a 24.373,24.373 0 0 1 -24.373,-24.373 v -27.697 a 24.373,24.373 0 0 1 24.373,-24.373"
       fill="#53d753"
       stroke="#000000"
       stroke-linecap="round"
       stroke-linejoin="round"
       stroke-width="7.7717"
       id="path4" />
    <path
       d="m 282.97,506.75 c -17.158,0 -30.966,15.367 -30.966,34.463 v 59.478 h -2.3801 c 0,0 -30.618,5.4785 -31.403,28.245 -0.785,22.7665 62.004,12.556 62.004,12.556 l 24.335,-7.8446 0.17003,-7.4802 c 5.6922,-6.2437 9.2046,-14.939 9.2046,-24.578 v -60.377 c 0,-19.096 -13.808,-34.463 -30.966,-34.463 z"
       fill="#53d753"
       stroke="#000000"
       stroke-linecap="round"
       stroke-linejoin="round"
       stroke-width="7.7717"
       id="path5" />
    <path
       d="m 249.89,475.38 a 25.907,25.907 0 0 1 25.907,25.907 v 0.78506 a 25.907,25.907 0 0 1 -25.907,25.907 25.907,25.907 0 0 1 -25.907,-25.907 V 501.287 A 25.907,25.907 0 0 1 249.89,475.38"
       id="path6" />
    <path
       transform="matrix(0.95386,0,0,0.95386,32.014,-227.76)"
       d="m 264.29,740.93 c 0,17.358 -15.03,31.429 -33.571,31.429 -18.541,0 -33.571,-14.071 -33.571,-31.429 0,-17.358 15.03,-31.429 33.571,-31.429 18.541,0 33.571,14.071 33.571,31.429 z"
       fill="#53d753"
       stroke="#000000"
       stroke-width="8.1477"
       id="path7" />
    <path
       transform="matrix(-0.15688,0.98762,-0.99993,0.01183,0,0)"
       d="m 640.01,-403.52 a 18.051,25.152 0 0 1 18.051,25.152 v 19.9 a 18.051,25.152 0 0 1 -18.051,25.152 18.051,25.152 0 0 1 -18.051,-25.152 v -19.9 a 18.051,25.152 0 0 1 18.051,-25.152"
       id="path8" />
    <path
       transform="matrix(0.99235,0.12342,0,1,0,0)"
       d="m 291.83,525.57 h 3.2883 a 26.045,26.045 0 0 1 26.045,26.045 v 20.606 a 26.045,26.045 0 0 1 -26.045,26.045 H 291.83 A 26.045,26.045 0 0 1 265.785,572.221 V 551.615 A 26.045,26.045 0 0 1 291.83,525.57"
       id="path9" />
    <path
       d="m 255.39,452.61 a 25.907,25.907 0 0 1 25.907,25.907 v 0.78507 a 25.907,25.907 0 0 1 -25.907,25.907 25.907,25.907 0 0 1 -25.907,-25.907 V 478.517 A 25.907,25.907 0 0 1 255.39,452.61"
       id="path10" />
    <path
       d="m 220.44,625.7 c 0,0 14.286,9.2857 33.214,7.1429 18.928,-2.1428 32.5,-2.1429 32.5,-2.1429 v 9.2857 l -32.143,3.5714 c 0,0 -25.476,1.9441 -33.571,-7.5 -6.4286,-7.5 0,-10.357 0,-10.357 z"
       fill="#ffffff"
       stroke="#000000"
       stroke-width="3"
       id="path11" />
    <path
       d="m 296.21,442.34 c -31.215,0 -56.345,25.13 -56.345,56.345 v 36.819 c 0,28.331 20.706,51.647 47.869,55.714 v 28.925 c -7.99,2.0179 -29.277,9.1074 -29.945,27.59 -0.82347,22.767 65.064,12.556 65.064,12.556 l 32.742,-9.51 -5.9294,-25.584 v -55.714 c 0,-5.9144 -0.37057,-10.16 -1.0686,-13.139 2.554,-6.4442 3.9587,-13.464 3.9587,-20.838 v -36.819 c 0,-31.215 -25.13,-56.345 -56.345,-56.345 z"
       fill="#53d753"
       stroke="#000000"
       stroke-linecap="round"
       stroke-linejoin="round"
       stroke-width="7.7717"
       id="path12" />
    <path
       transform="matrix(0.97054,0.24096,0,1,0,0)"
       d="m 337.06,399.63 h 1.8405 a 24.946,24.946 0 0 1 24.946,24.946 v 82.69 a 24.946,24.946 0 0 1 -24.946,24.946 H 337.06 a 24.946,24.946 0 0 1 -24.946,-24.946 v -82.69 A 24.946,24.946 0 0 1 337.06,399.63"
       id="path13" />
    <path
       transform="matrix(0.99626,0.08636,0,1,0,0)"
       d="m 277.74,421.14 h 21.821 a 21.004,21.004 0 0 1 21.004,21.004 v 16.618 a 21.004,21.004 0 0 1 -21.004,21.004 H 277.74 A 21.004,21.004 0 0 1 256.736,458.762 V 442.144 A 21.004,21.004 0 0 1 277.74,421.14"
       id="path14" />
    <path
       transform="matrix(1.942,0,0,1.942,-156.3,-1021.4)"
       d="m 264.29,740.93 c 0,17.358 -15.03,31.429 -33.571,31.429 -18.541,0 -33.571,-14.071 -33.571,-31.429 0,-17.358 15.03,-31.429 33.571,-31.429 18.541,0 33.571,14.071 33.571,31.429 z"
       fill="#53d753"
       stroke="#000000"
       stroke-width="4.002"
       id="path15" />
    <path
       transform="matrix(1.7453,0,0,1.7567,-106.19,-879.1)"
       d="m 264.29,740.93 a 33.5715,31.429468 0 1 1 -67.143,0 33.5715,31.429468 0 1 1 67.143,0 z"
       id="path16" />
    <g
       transform="matrix(0.78582,0,0,0.78582,52.946,106.02)"
       fill="#ffffff"
       stroke="#000000"
       id="g18">
      <path
         d="m 267.56,479.47 a 19.063,19.063 0 0 1 19.063,19.063 19.063,19.063 0 0 1 -19.063,19.063 19.063,19.063 0 0 1 -19.063,-19.063 19.063,19.063 0 0 1 19.063,-19.063"
         stroke-width="6.2174"
         id="path17" />
      <path
         d="m 260.77,477.86 a 19.063,19.063 0 0 1 19.063,19.063 19.063,19.063 0 0 1 -19.063,19.063 19.063,19.063 0 0 1 -19.063,-19.063 19.063,19.063 0 0 1 19.063,-19.063"
         stroke-width="4"
         id="path18" />
    </g>
    <path
       transform="matrix(0.99515,0.09841,0,1,0,0)"
       d="m 262.42,396.01 h 16.12 a 24.177,24.177 0 0 1 24.177,24.177 v 19.129 A 24.177,24.177 0 0 1 278.54,463.493 H 262.42 A 24.177,24.177 0 0 1 238.243,439.316 V 420.187 A 24.177,24.177 0 0 1 262.42,396.01"
       fill="#53d753"
       stroke="#000000"
       stroke-linecap="round"
       stroke-linejoin="round"
       stroke-width="7.7907"
       id="path19" />
    <path
       transform="matrix(0.70808,-0.12316,0.12705,0.35473,29.81,145.23)"
       d="m 264.29,740.93 a 33.5715,31.429468 0 1 1 -67.143,0 33.5715,31.429468 0 1 1 67.143,0 z"
       fill="#53d753"
       id="path20" />
    <path
       transform="matrix(0.9933,0.11554,0,1,0,0)"
       d="m 263.26,383.33 h 20.689 a 17.112,17.112 0 0 1 17.112,17.112 v 33.26 a 17.112,17.112 0 0 1 -17.112,17.112 H 263.26 a 17.112,17.112 0 0 1 -17.112,-17.112 v -33.26 A 17.112,17.112 0 0 1 263.26,383.33"
       id="path21" />
    <path
       transform="matrix(0.99691,0.07854,0.0773,0.99701,0,0)"
       d="m 215.25,383.55 h 46.33 a 23.242,23.242 0 0 1 23.242,23.242 v 9.1233 a 23.242,23.242 0 0 1 -23.242,23.242 h -46.33 a 23.242,23.242 0 0 1 -23.242,-23.242 V 406.792 A 23.242,23.242 0 0 1 215.25,383.55"
       stroke="#53d753"
       stroke-linecap="round"
       stroke-linejoin="round"
       stroke-width="6.2597"
       id="path22" />
    <path
       transform="matrix(0.99677,0.08026,0.07564,0.99714,0,0)"
       d="m 212.19,382.3 h 45.32 a 23.753,23.753 0 0 1 23.753,23.753 v 9.3241 a 23.753,23.753 0 0 1 -23.753,23.753 h -45.32 a 23.753,23.753 0 0 1 -23.753,-23.753 V 406.053 A 23.753,23.753 0 0 1 212.19,382.3"
       fill="#ffffff"
       stroke="#000000"
       stroke-linecap="round"
       stroke-linejoin="round"
       stroke-width="7.8194"
       id="path23" />
    <path
       d="m 239.58,524.78 c 0,0 57.805,30.671 112.42,-0.27755 0.22415,-0.12738 -0.27756,18.874 -0.27756,18.874 -54.338,31.877 -111.35,0 -111.35,0 z"
       fill="#53d753"
       stroke="#000000"
       stroke-width="7.7717"
       id="path24" />
    <path
       transform="translate(193.58,352.55)"
       d="m 161.38,130.47 c -2.1438,0.0566 -4.2518,0.40447 -6.3125,1.0625 l -7.625,2.4062 c -10.99,3.5095 -15.598,14.588 -10.312,24.844 l 10.844,21.062 c 1.6994,3.2975 4.2017,6.087 7.1875,8.25 -1.5117,3.9189 -2.3438,8.2388 -2.3438,12.75 0,18.28 13.684,33.094 30.594,33.094 16.91,0 30.625,-14.813 30.625,-33.094 0,-12.867 -6.8002,-24.023 -16.719,-29.5 -0.26129,-2.1847 -0.90199,-4.4338 -2.0312,-6.625 l -10.844,-21.031 c -4.2942,-8.3324 -13.773,-13.464 -23.062,-13.219 z"
       fill="#53d753"
       stroke="#000000"
       stroke-linecap="round"
       stroke-linejoin="round"
       stroke-width="7.7717"
       id="path25" />
    <path
       transform="matrix(0.95386,0,0,0.95386,125.83,-210.09)"
       d="m 264.29,740.93 c 0,17.358 -15.03,31.429 -33.571,31.429 -18.541,0 -33.571,-14.071 -33.571,-31.429 0,-17.358 15.03,-31.429 33.571,-31.429 18.541,0 33.571,14.071 33.571,31.429 z"
       fill="#53d753"
       stroke="#000000"
       stroke-width="8.1477"
       id="path26" />
    <path
       transform="matrix(0.96379,0.26664,0,1,0,0)"
       d="m 256.39,453.88 h 29.397 v 28.961 H 256.39 Z"
       fill="#ffffff"
       stroke="#000000"
       stroke-linecap="round"
       stroke-linejoin="round"
       stroke-width="7.9164"
       id="path27" />
    <path
       d="m 343.18,411.73 a 15.975,15.975 0 0 1 15.975,15.975 v 6.39 A 15.975,15.975 0 0 1 343.18,450.07 15.975,15.975 0 0 1 327.205,434.095 v -6.39 A 15.975,15.975 0 0 1 343.18,411.73"
       fill="#53d753"
       stroke="#000000"
       stroke-linecap="round"
       stroke-linejoin="round"
       stroke-width="7.7717"
       id="path28" />
    <path
       d="m 350.05,411.6 a 15.975,15.975 0 0 1 15.975,15.975 v 6.39 A 15.975,15.975 0 0 1 350.05,449.94 15.975,15.975 0 0 1 334.075,433.965 v -6.39 A 15.975,15.975 0 0 1 350.05,411.6"
       fill="#53d753"
       stroke="#000000"
       stroke-linecap="round"
       stroke-linejoin="round"
       stroke-width="7.7717"
       id="path29" />
    <g
       transform="matrix(0.85546,0,0,0.94127,-113.07,13.686)"
       id="g32">
      <path
         d="m 528.28,556.57 c -8.5735,-1.8641 -17.244,3.7096 -19.108,12.283 -1.864,8.5734 3.7029,17.275 12.276,19.139 l 17.467,3.7978 c 8.5735,1.8641 17.251,-3.7401 19.115,-12.314 1.864,-8.5739 -3.7096,-17.244 -12.283,-19.108 z m -3.187,14.658 17.467,3.7978 c 0.70679,0.15367 0.96617,0.55719 0.8125,1.264 -0.15367,0.70681 -0.56384,0.99671 -1.2706,0.84304 l -17.467,-3.7978 c -0.70679,-0.15368 -0.95953,-0.58774 -0.80586,-1.2945 0.15367,-0.70676 0.5572,-0.96618 1.264,-0.8125 z"
         id="path30" />
      <path
         d="m 523.59,575.97 c -8.7738,0 -16.062,7.2887 -16.062,16.062 0,8.7733 7.2887,16.062 16.062,16.062 h 17.875 c 8.7738,0 16.062,-7.2887 16.062,-16.062 0,-8.7733 -7.2887,-16.062 -16.062,-16.062 z m 0,15 h 17.875 c 0.7233,0 1.0625,0.3392 1.0625,1.0625 0,0.7233 -0.3392,1.0625 -1.0625,1.0625 H 523.59 c -0.7233,0 -1.0625,-0.3392 -1.0625,-1.0625 0,-0.7233 0.3392,-1.0625 1.0625,-1.0625 z"
         id="path31" />
      <path
         d="m 529.3,598.8 c -8.025,3.5468 -11.745,13.16 -8.1984,21.185 3.5466,8.025 13.172,11.774 21.197,8.227 l 16.321,-7.2132 c 8.025,-3.5468 11.761,-13.201 8.2144,-21.226 -3.5466,-8.025 -13.188,-11.733 -21.213,-8.1858 l -16.321,7.2132 z m 6.0637,13.72 16.321,-7.2132 c 0.66157,-0.29239 1.1375,-0.13189 1.4299,0.52968 0.2924,0.66157 0.10331,1.1502 -0.55826,1.4425 l -16.321,7.2132 c -0.66157,0.29239 -1.1216,0.0907 -1.414,-0.57089 -0.2924,-0.66159 -0.11926,-1.1089 0.54231,-1.4013 z"
         id="path32" />
    </g>
    <path
       d="m 364.1,540.29 a 23.944,23.944 0 0 1 23.944,23.944 v 6.2805 a 23.944,23.944 0 0 1 -23.944,23.944 23.944,23.944 0 0 1 -23.944,-23.944 V 564.234 A 23.944,23.944 0 0 1 364.1,540.29"
       fill="#ffffff"
       stroke="#000000"
       stroke-linecap="round"
       stroke-linejoin="round"
       stroke-width="7.7717"
       id="path33" />
    <path
       transform="matrix(0.99748,0.07096,0.08554,0.99633,0,0)"
       d="m 205.7,393.54 h 50.47 a 12.623,12.623 0 0 1 12.623,12.623 v 15.77 A 12.623,12.623 0 0 1 256.17,434.556 H 205.7 a 12.623,12.623 0 0 1 -12.623,-12.623 v -15.77 A 12.623,12.623 0 0 1 205.7,393.54"
       id="path34" />
    <path
       transform="matrix(0.97256,0.23267,-0.19386,0.98103,0,0)"
       d="m 436.12,451.59 h 14.01 a 8.0363,8.0363 0 0 1 8.0363,8.0363 8.0363,8.0363 0 0 1 -8.0363,8.0363 h -14.01 a 8.0363,8.0363 0 0 1 -8.0363,-8.0363 8.0363,8.0363 0 0 1 8.0363,-8.0363"
       fill="#ffffff"
       id="path35" />
    <path
       d="m 334.04,562.75 h 13.805 a 8.068,8.068 0 0 1 8.0681,8.068 8.068,8.068 0 0 1 -8.0681,8.0681 H 334.04 a 8.068,8.068 0 0 1 -8.0681,-8.0681 8.068,8.068 0 0 1 8.0681,-8.068"
       fill="#ffffff"
       id="path36" />
    <path
       transform="matrix(0.8993,-0.43733,0.37273,0.92794,0,0)"
       d="m 99.415,675.59 h 14.547 a 7.9525,7.9525 0 0 1 7.9525,7.9525 7.9525,7.9525 0 0 1 -7.9525,7.9525 H 99.415 a 7.9525,7.9525 0 0 1 -7.9525,-7.9525 7.9525,7.9525 0 0 1 7.9525,-7.9525"
       fill="#ffffff"
       id="path37" />
    <path
       d="m 350.54,563.6 c 0,0 3.0357,1.4286 5.5357,-1.0714 2.5,-2.5 2.8571,-4.4643 2.8571,-4.4643 0,0 4.2857,12.5 -8.3929,5.5357 z"
       id="path38" />
    <path
       d="m 355.11,577.1 c 0,0 3.0357,1.4286 5.5357,-1.0714 2.5,-2.5 2.8571,-4.4643 2.8571,-4.4643 0,0 4.2857,12.5 -8.3929,5.5357 z"
       id="path39" />
    <path
       d="m 356.89,586.39 c 0,0 3.0357,1.4286 5.5357,-1.0714 2.5,-2.5 2.8571,-4.4643 2.8571,-4.4643 0,0 4.2857,12.5 -8.3929,5.5357 z"
       id="path40" />
    <path
       d="m 247.87,405.03 c 0,0 -2.1825,21.429 4.3651,22.143 6.5476,0.714 5.2381,22.857 5.2381,22.857 l 6.1111,0.71429 v -14.286 c 0,0 0,-12.143 -6.1111,-12.857 -6.1111,-0.714 -4.3651,-18.571 -4.3651,-18.571 z"
       fill="#ffffff"
       id="path41" />
    <path
       d="m 257.33,406.28 c 0,0 -2.5581,15.34 4.0079,14.821 9.0476,-0.71428 5.2381,29.286 5.2381,29.286 l 3.4325,0.71429 0.35714,-21.071 c 0,0 -1.0714,-10.536 -7.1825,-11.25 -6.1111,-0.714 -3.1151,-11.786 -3.1151,-11.786 z"
       fill="#ffffff"
       id="path42" />
    <path
       d="m 357.82,412.89 c 0,0 -15.674,2.1274 -14.593,17.374 1.081,15.2466 3.7834,13.119 14.593,17.02"
       fill="none"
       stroke="#000000"
       stroke-width="3.6772"
       id="path43" />
    <path
       d="m 285.65,622.65 24.183,12.957 -13.673,4.6633 -20.255,-12.957 z"
       fill="#53d753"
       stroke="#000000"
       stroke-width="3.2966"
       id="path44" />
    <path
       d="m 244.69,602.71 22.612,10.221 -10.751,5.0479 -23.326,-9.8638 z"
       fill="#53d753"
       stroke="#000000"
       stroke-width="3.1479"
       id="path45" />
    <path
       transform="matrix(0.96379,0.26664,0,1,0,0)"
       d="m 255.08,453.98 h 29.397 v 28.961 H 255.08 Z"
       fill="none"
       stroke="#53d753"
       stroke-linecap="round"
       stroke-linejoin="round"
       stroke-width="2.0372"
       id="path46" />
    <path
       transform="translate(193.58,352.55)"
       d="m 68.214,291.06 c 0,0 5.1672,6.2062 21.429,8.5714 19.643,2.8571 25,2.5 37.857,-1.0714 12.857,-2.5 29.643,-8.5714 29.643,-8.5714 l 1.7857,8.2143 -29.286,7.5 c 0,0 -10.714,4.2857 -31.786,2.5 -21.072,-1.7857 -28.214,-5.7143 -28.214,-5.7143 0,0 -6.7857,-2.5 -1.4286,-11.429 z"
       fill="#ffffff"
       stroke="#000000"
       stroke-width="3"
       id="path47" />
  </g>
</svg>
