<svg
  xmlns="http://www.w3.org/2000/svg"
  viewBox="0 0 100 100"
  height="1"
  width="1"
>
  <path
    d="m 33.38192,81.02041 q -1.10787,0 -2.07726,-0.41546 Q 30.33528,80.1895 29.50437,79.3586 L 4.02332,53.87755 Q 3.19242,53.04665 2.84621,52.07726 2.5,51.10787 2.5,50 2.5,48.89213 2.84621,47.92274 3.19242,46.95335 4.02332,46.12245 L 29.50437,20.6414 q 0.83091,-0.83091 1.80029,-1.24636 0.96939,-0.41545 2.07726,-0.41545 2.21575,0 3.87756,1.59257 1.6618,1.59256 1.6618,4.08527 v 50.68513 q 0,2.49272 -1.6618,4.08528 -1.66181,1.59257 -3.87756,1.59257 z M 30.61224,68.69533 V 31.30466 L 11.91691,50 Z m 36.00584,12.32508 q -2.21575,0 -3.87756,-1.59257 -1.6618,-1.59256 -1.6618,-4.08528 V 24.65743 q 0,-2.49271 1.6618,-4.08527 1.66181,-1.59257 3.87756,-1.59257 1.10787,0 2.07726,0.41545 0.96938,0.41545 1.80029,1.24636 l 25.48105,25.48105 q 0.8309,0.8309 1.17711,1.80029 Q 97.5,48.89213 97.5,50 q 0,1.10787 -0.34621,2.07726 -0.34621,0.96939 -1.17711,1.80029 L 70.49563,79.3586 q -0.83091,0.8309 -1.80029,1.24635 -0.96939,0.41546 -2.07726,0.41546 z"
    style="stroke-width:0.138484" 
	/>
</svg>
