<svg
  xmlns="http://www.w3.org/2000/svg"
  viewBox="0 0 100 100"
  height="1"
  width="1"
>
  <path
    d="m 20.710065,49.290503 q 0,5.630662 2.127137,10.948514 2.127139,5.317844 6.631668,9.822373 l 1.25126,1.251253 v -7.25729 q 0,-2.127142 1.438944,-3.566089 1.438944,-1.438945 3.566082,-1.438945 2.12715,0 3.566094,1.438945 1.438944,1.438947 1.438944,3.566089 V 84.07548 q 0,2.127139 -1.438944,3.566086 -1.438944,1.438944 -3.566094,1.438944 H 15.705027 q -2.127137,0 -3.566083,-1.438944 Q 10.7,86.202619 10.7,84.07548 q 0,-2.12714 1.438944,-3.566086 1.438946,-1.438946 3.566083,-1.438946 h 8.758816 L 22.461834,77.318683 Q 15.955293,71.5629 13.327645,64.180479 10.7,56.798051 10.7,49.290503 q 0,-11.76182 6.006045,-21.333945 6.006031,-9.572124 16.141224,-14.702284 1.751756,-1.001006 3.691209,-0.125119 1.939452,0.875878 2.565075,2.877891 0.625636,1.876885 -0.06251,3.753769 -0.688182,1.876894 -2.439951,2.8779 -7.257292,4.004025 -11.574135,11.073634 -4.316835,7.0696 -4.316835,15.578154 z M 80.77045,48.79 q 0,-5.630654 -2.127146,-10.948507 -2.127128,-5.317843 -6.631658,-9.822372 L 70.760385,26.76786 v 7.257301 q 0,2.127139 -1.438945,3.566085 -1.438954,1.438945 -3.566092,1.438945 -2.127136,0 -3.56608,-1.438945 Q 60.750322,36.1523 60.750322,34.025161 V 14.005033 q 0,-2.127141 1.438945,-3.566087 Q 63.628212,9 65.755348,9 h 20.020129 q 2.127138,0 3.566084,1.438946 1.438943,1.438946 1.438943,3.566087 0,2.127141 -1.438943,3.566085 -1.438946,1.438945 -3.566084,1.438945 h -8.758805 l 2.002021,1.751759 q 6.131151,6.131167 8.946491,13.325903 2.81532,7.194727 2.81532,14.702275 0,11.761829 -6.006032,21.333954 -6.006043,9.572125 -16.141236,14.702276 -1.751756,1.001008 -3.691197,0.125128 -1.939452,-0.875878 -2.565087,-2.877892 -0.625626,-1.876886 0.06252,-3.753778 0.688192,-1.876884 2.439959,-2.87789 Q 72.136723,71.437772 76.453568,64.368163 80.770401,57.298556 80.770401,48.79 Z"
    style="stroke-width:0.1" 
	/>
</svg>
