<?xml version="1.0" encoding="UTF-8" standalone="no"?>
<svg
   width="1"
   height="1"
   viewBox="0 0 100 100"
   version="1.1"
   id="svg3858"
   xmlns="http://www.w3.org/2000/svg"
   xmlns:svg="http://www.w3.org/2000/svg">
  <defs
     id="defs3862" />
  <path
     id="Selection"
     fill="none"
     stroke="#000000"
     stroke-width="0.17148"
     d="M 86.134959,8.8759048 85.953862,6.9984081 c 0.01201,-1.86196 1.628566,-2.2738228 2.532946,-1.4706916 0.713897,0.6315222 1.039953,3.5334347 1.197832,4.5596585 0.07375,0.480505 0.18706,1.069125 -0.109823,1.496433 -0.401572,0.580038 -1.748706,0.731055 -2.421412,0.885503 l -6.349538,1.393468 4.257624,6.864371 6.553761,10.639774 c 0.276288,0.444468 0.523404,0.897516 1.03652,1.098299 0.796259,0.310613 3.033933,-0.437008 3.305187,1.647449 0.286125,2.198731 -2.898201,1.997249 -4.341707,2.035362 -0.423969,-0.0069 -0.67786,0.02567 -0.974743,-0.151092 -0.39814,-0.240253 -0.804846,-0.96616 -1.05025,-1.369443 l -1.681776,-2.745748 -8.305889,-13.385522 -2.94996,4.976668 -5.278702,8.580464 -1.585663,2.574138 c -0.262567,0.429024 -0.595488,1.088003 -1.033097,1.343701 -0.410139,0.238537 -1.041664,0.200784 -1.508445,0.200784 H 41.676951 35.670626 c -0.435888,-0.0017 -1.112027,0.05491 -1.441517,-0.274576 -0.365528,-0.365527 -0.283156,-1.450098 -0.274576,-1.956345 0.02574,-1.398615 0.477074,-1.371159 1.716093,-1.372874 h 29.001966 c 0.435886,-0.0017 1.110313,0.05491 1.441523,-0.274576 0.283153,-0.281438 0.29345,-0.885503 0.34665,-1.269908 l 0.394697,-3.088966 1.223571,-9.953338 c 0,0 0.360111,-2.874822 0.395548,-3.087028 0.03543,-0.212208 0.251009,-1.520674 0.32007,-1.694006 0.06905,-0.173332 0.179816,-0.453853 0.779297,-0.5901 1.247148,-0.283444 2.812656,-0.624532 3.507499,-0.786206 l 8.237248,-1.808762 C 82.610907,9.7287115 84.84757,9.181913 86.134959,8.8759048 Z M 20.91223,12.565412 c 3.143881,-0.403281 6.253441,0.609214 8.377964,3.013459 3.674154,4.159809 2.848714,11.037908 -1.856813,14.056515 -1.37459,0.882072 -2.517508,1.25618 -4.118622,1.486136 -1.029655,0.147585 -1.73497,0.06521 -2.745748,-0.111545 -6.567487,-1.15493 -9.858953,-8.843026 -6.160773,-14.40145 1.535903,-2.306429 3.845764,-3.552312 6.503992,-4.043115 z m 57.145882,1.983803 -4.461838,0.87864 c -0.427311,0.09781 -1.48957,0.267711 -1.791598,0.51826 -0.422157,0.346651 -0.535423,2.129671 -0.602353,2.721723 0,0 -0.561532,5.359389 -0.630965,5.988943 -0.06945,0.629558 -0.144939,1.51403 -0.235657,2.763129 l 5.560134,-9.09529 z M 5.8106142,26.905083 h 6.3495428 v 1.372874 H 7.1834882 v 3.603794 h 4.4618408 v 1.201265 H 7.1834882 v 4.633451 H 5.8106142 Z M 18.5097,36.686811 c -0.846035,1.50673 -3.214242,1.525607 -4.430952,0.4479 -1.51531,-1.3437 -1.347133,-3.756527 0.144152,-5.043596 0.519976,-0.449616 1.02794,-0.660696 1.71266,-0.70703 1.259613,-0.08924 1.901431,0.392985 2.917358,1.012494 v -0.686437 h 1.201265 l -0.171609,7.207589 h 19.906674 v 7.035981 H 24.687633 V 94.862349 H 17.308434 V 45.953712 H 2.5500378 v -7.044561 h 8.0656352 3.603795 c 0.811712,0.08408 1.379738,0.868342 2.574139,0.720759 1.668042,-0.205932 2.129671,-1.486136 1.716093,-2.943099 z m -2.402531,-4.230168 c -2.90706,0.842601 -1.86196,4.799911 0.858047,4.345146 2.179438,-0.363811 1.879122,-2.879603 1.417492,-3.511125 -0.518259,-0.710463 -1.455245,-0.911246 -2.275539,-0.834021 z m 44.103583,6.461088 h 37.23921 v 7.035981 H 82.34835 V 94.862349 H 74.969147 V 45.953712 H 60.210752 Z"
     style="fill:#000000;stroke-width:0.100075;stroke-linecap:round;stroke-linejoin:round;stroke-dasharray:none" />
</svg>
