<svg
  xmlns="http://www.w3.org/2000/svg"
  viewBox="0 0 100 100"
  width="1"
  height="1"
>
  <path
    d="m 86.932741,5.2164692 c -0.519225,0.23556 -0.941879,0.7883 -0.947892,1.72025 l 0.175535,1.89579 c -1.288728,0.30632 -3.516125,0.83654 -4.809681,1.12343 l -8.250185,1.8255698 c -0.695569,0.16184 -2.262275,0.48862 -3.510717,0.77236 -0.600104,0.13639 -0.703238,0.42331 -0.772357,0.59682 -0.06913,0.17351 -0.280502,1.50782 -0.315966,1.72025 -0.03547,0.21243 -0.386179,3.08943 -0.386179,3.08943 l -1.22875,9.93533 -0.421286,3.08943 c -0.05326,0.38481 -0.03252,1.01724 -0.315966,1.29897 -0.331554,0.32982 -1.03816,0.24395 -1.4745,0.24575 H 35.641168 c -1.240306,0.002 -1.659377,0.004 -1.685144,1.40428 -0.0086,0.50678 -0.120159,1.56499 0.24575,1.9309 0.329832,0.32983 1.003052,0.27906 1.439394,0.28086 h 6.038433 25.593126 c 0.467265,0 1.099042,0.0281 1.509608,-0.21065 0.438066,-0.25596 0.75527,-0.9046 1.018108,-1.33407 l 1.579824,-2.56282 5.301183,-8.60126 2.949,-4.98522 8.320401,13.41094 1.685144,2.73836 c 0.245659,0.4037 0.654661,1.12868 1.053214,1.36918 0.297193,0.17695 0.55859,0.16863 0.983001,0.17554 1.445005,-0.0382 4.604602,0.12969 4.318182,-2.07133 -0.271536,-2.08662 -2.502988,-1.30399 -3.300073,-1.61493 -0.51365,-0.20099 -0.741536,-0.6785 -1.018109,-1.12343 l -6.56504,-10.63747 -4.283075,-6.881 6.354397,-1.40429 c 0.673405,-0.15461 2.020406,-0.29704 2.422396,-0.87768 0.297191,-0.42775 0.214251,-1.0286 0.140427,-1.50961 -0.158042,-1.0272898 -0.51411,-3.9317498 -1.22875,-4.5639298 -0.452659,-0.40198 -1.060596,-0.48131 -1.579824,-0.24575 z M 20.896157,12.518759 c -2.66099,0.49131 -4.992434,1.7285 -6.529933,4.03733 -3.702024,5.5642 -0.395451,13.27291 6.178862,14.42904 1.011827,0.17694 1.707634,0.25306 2.738358,0.10532 1.602778,-0.23019 2.766629,-0.59151 4.142647,-1.4745 4.710417,-3.02174 5.538651,-9.91384 1.86068,-14.07797 -2.126733,-2.40674 -5.243466,-3.42292 -8.390614,-3.01922 z m 57.189579,2.00111 -2.176645,3.75647 -5.546934,9.12786 c 0.09081,-1.2504 0.176228,-2.14325 0.245751,-2.77347 0.06951,-0.63021 0.63193,-6.00332 0.63193,-6.00332 0.067,-0.59267 0.174227,-2.39135 0.596821,-2.73836 0.302341,-0.25081 1.36271,-0.39359 1.790467,-0.4915 z m -54.486326,0.31596 0.667035,0.59683 -1.22875,1.40428 4.563931,4.03733 -0.596821,0.70214 -4.59904,-4.03732 -1.228751,1.36918 -0.631928,-0.56172 z m -4.739469,5.40651 0.631929,0.59682 -1.228751,1.40429 4.599039,4.03732 -0.631928,0.70215 -4.59904,-4.03733 -1.193643,1.36918 -0.667036,-0.56171 c 1.501127,-1.70327 1.534975,-1.74695 3.08943,-3.51072 z m -13.0949741,6.63525 v 10.81301 h 1.3691795 v -4.63414 h 4.4586106 v -1.19365 H 7.1341464 v -3.61604 h 4.9852186 v -1.36918 z m 10.1459721,4.49372 c -0.685432,0.0464 -1.199735,0.25206 -1.720251,0.70214 -1.492835,1.28841 -1.657314,3.71034 -0.140429,5.05544 1.217975,1.07882 3.576589,1.0519 4.423503,-0.4564 0.414008,1.45848 -0.05047,2.74286 -1.720251,2.94901 -1.195642,0.14773 -1.750268,-0.65309 -2.562823,-0.73726 H 10.574649 2.5000002 v 7.05655 H 17.280119 v 48.9745 h 7.372505 v -48.9745 h 15.131191 v -7.05655 H 19.842942 l 0.175536,-7.19696 h -1.193644 v 0.70214 c -1.016983,-0.62015 -1.652973,-1.10744 -2.913895,-1.01811 z m 0.175536,1.05322 c 0.821146,-0.0773 1.763168,0.13137 2.281966,0.84257 0.46211,0.63218 0.742309,3.14653 -1.439394,3.51072 -2.722834,0.45523 -3.752653,-3.50982 -0.842572,-4.35329 z m 44.129711,6.45971 v 7.05655 h 14.78012 v 48.9745 h 7.372504 v -48.9745 H 97.5 v -7.05655 z"
    style="stroke-width:0.100179;stroke-linecap:round;stroke-linejoin:round"
  />
</svg>
