<?xml version="1.0" encoding="UTF-8" standalone="no"?>
<svg
   width="1"
   height="1"
   version="1.1"
   viewBox="0 0 100 100"
   id="svg18"
   xmlns="http://www.w3.org/2000/svg"
   xmlns:svg="http://www.w3.org/2000/svg">
  <defs
     id="defs18" />
  <g
     stroke-width="0"
     id="g18"
     transform="matrix(0.07916667,0,0,0.07916667,19.563583,8.491331)">
    <circle
       cx="384.45999"
       cy="524.32001"
       r="600"
       fill="#1a1a1a"
       id="circle1" />
    <rect
       x="713.08002"
       y="393.87"
       width="56.604"
       height="173.58"
       ry="18.191"
       fill="#37abc8"
       id="rect1" />
    <rect
       x="28.570999"
       y="329.20001"
       width="700"
       height="480.29999"
       ry="0"
       fill="#247083"
       id="rect2" />
    <rect
       x="-11.919"
       y="393.87"
       width="56.604"
       height="173.58"
       ry="19.365"
       fill="#37abc8"
       id="rect3" />
    <rect
       x="28.570999"
       y="329.22"
       width="350"
       height="480.29001"
       ry="0"
       fill="#2c89a0"
       id="rect4" />
    <rect
       x="157.14"
       y="449.51001"
       width="105.71"
       height="91.429001"
       ry="45.714001"
       fill="#1c241f"
       id="rect5" />
    <rect
       x="491.42999"
       y="443.79001"
       width="105.71"
       height="91.429001"
       ry="45.714001"
       fill="#1c241f"
       id="rect6" />
    <rect
       x="245.32001"
       y="629.10999"
       width="265.70999"
       height="114.29"
       ry="57.143002"
       fill="#1c241f"
       id="rect7" />
    <rect
       x="378.41"
       y="617.01001"
       width="143.84"
       height="68.966003"
       ry="0"
       fill="#247083"
       id="rect8" />
    <rect
       x="234.62"
       y="624.90997"
       width="143.84"
       height="61.084"
       ry="0"
       fill="#2c89a0"
       id="rect9" />
    <rect
       x="354.60999"
       y="123.46"
       width="24.242001"
       height="210.61"
       fill="#2c89a0"
       id="rect10" />
    <rect
       x="378.54999"
       y="123.56"
       width="24.242001"
       height="210.61"
       fill="#237183"
       id="rect11" />
    <ellipse
       cx="379.94"
       cy="119.62"
       rx="75"
       ry="67.5"
       fill="#237183"
       id="ellipse11" />
    <ellipse
       cx="374.97"
       cy="118.76"
       rx="57.583"
       ry="55.316002"
       fill="#2c89a0"
       id="ellipse12" />
    <ellipse
       cx="385.39999"
       cy="119.67"
       rx="55.316002"
       ry="59.849998"
       fill="#247083"
       id="ellipse13" />
    <rect
       transform="scale(1,-1)"
       x="278.01001"
       y="-922.71997"
       width="103.77"
       height="174.41"
       ry="0"
       fill="#2c89a0"
       id="rect13" />
    <rect
       transform="scale(1,-1)"
       x="378.60999"
       y="-922.71997"
       width="103.77"
       height="174.41"
       ry="0"
       fill="#247083"
       id="rect14" />
    <rect
       x="736.09998"
       y="409.60999"
       width="23.562"
       height="138.62"
       ry="14.852"
       fill="#216778"
       fill-opacity="0.68844"
       id="rect15" />
    <rect
       x="-2.1989999"
       y="409.60999"
       width="23.562"
       height="138.62"
       ry="14.852"
       fill="#216778"
       fill-opacity="0.68844"
       id="rect16" />
    <ellipse
       cx="550.09998"
       cy="497.73001"
       rx="30.452999"
       ry="24.622"
       fill="#333333"
       fill-opacity="0.68844"
       id="ellipse16" />
    <ellipse
       cx="377.01001"
       cy="714.14001"
       rx="99.782997"
       ry="20.733999"
       fill="#333333"
       fill-opacity="0.68844"
       id="ellipse17" />
    <ellipse
       cx="218.7"
       cy="497.73001"
       rx="30.452999"
       ry="24.622"
       fill="#333333"
       fill-opacity="0.68844"
       id="ellipse18" />
  </g>
</svg>
