<svg
  xmlns="http://www.w3.org/2000/svg"
  viewBox="0 0 100 100"
  height="1"
  width="1"
>
  <path
    d="m 40.952385,11.54762 q -1.92262,0 -3.22322,-1.3006 -1.30059,-1.30059 -1.30059,-3.22321 0,-1.92262 1.30059,-3.22321 Q 39.029765,2.5 40.952385,2.5 h 18.09523 q 1.92262,0 3.22322,1.3006 1.30059,1.30059 1.30059,3.22321 0,1.92262 -1.30059,3.22321 -1.3006,1.3006 -3.22322,1.3006 z m 9.04762,49.7619 q 1.92261,0 3.22321,-1.30059 1.3006,-1.3006 1.3006,-3.22322 V 38.69048 q 0,-1.92262 -1.3006,-3.22322 -1.3006,-1.30059 -3.22321,-1.30059 -1.92262,0 -3.22322,1.30059 -1.30059,1.3006 -1.30059,3.22322 v 18.09523 q 0,1.92262 1.30059,3.22322 1.3006,1.30059 3.22322,1.30059 z m 0,36.19048 q -8.36905,0 -15.77679,-3.22321 -7.40774,-3.22322 -12.9494,-8.76489 -5.54167,-5.54166 -8.76489,-12.9494 -3.22321,-7.40774 -3.22321,-15.77679 0,-8.36904 3.22321,-15.77678 3.22322,-7.40774 8.76489,-12.94941 5.54166,-5.54166 12.9494,-8.76488 7.40774,-3.22321 15.77679,-3.22321 7.0119,0 13.45833,2.2619 6.44643,2.26191 12.10119,6.55953 l 3.16667,-3.16667 q 1.24404,-1.24405 3.16666,-1.24405 1.92262,0 3.16667,1.24405 1.24405,1.24405 1.24405,3.16667 0,1.92262 -1.24405,3.16666 l -3.16667,3.16667 q 4.29762,5.65476 6.55953,12.10119 2.2619,6.44643 2.2619,13.45833 0,8.36905 -3.22321,15.77679 -3.22322,7.40774 -8.76488,12.9494 -5.54167,5.54167 -12.94941,8.76489 Q 58.369045,97.5 50.000005,97.5 Z m 0,-9.04762 q 13.11904,0 22.39285,-9.27381 9.27381,-9.27381 9.27381,-22.39286 0,-13.11904 -9.27381,-22.39285 -9.27381,-9.27381 -22.39285,-9.27381 -13.11905,0 -22.39286,9.27381 -9.27381,9.27381 -9.27381,22.39285 0,13.11905 9.27381,22.39286 9.27381,9.27381 22.39286,9.27381 z m 0,-31.66667 z"
    style="stroke-width:0.113095" 
	/>
</svg>
