<svg
  xmlns="http://www.w3.org/2000/svg"
  viewBox="0 0 100 100"
  height="1"
  width="1"
>
  <path
    d="M 14.375,96.23828 Q 9.47656,96.23828 5.98828,92.75 2.5,89.26172 2.5,84.36328 v -11.875 q 0,-2.52343 1.70703,-4.23047 1.70703,-1.70703 4.23047,-1.70703 2.52344,0 4.23047,1.70703 1.70703,1.70704 1.70703,4.23047 v 11.875 h 71.25 v -11.875 q 0,-2.52343 1.70703,-4.23047 1.70703,-1.70703 4.23047,-1.70703 2.52344,0 4.23047,1.70703 Q 97.5,69.96485 97.5,72.48828 v 11.875 q 0,4.89844 -3.48828,8.38672 -3.48828,3.48828 -8.38672,3.48828 z M 44.0625,24.09766 32.92969,35.23047 q -1.78125,1.78125 -4.23047,1.70703 -2.44922,-0.0742 -4.23047,-1.85547 -1.63281,-1.78125 -1.70703,-4.15625 -0.0742,-2.375 1.70703,-4.15625 l 21.375,-21.375 Q 46.73437,4.50391 47.77344,4.13281 48.8125,3.76172 50,3.76172 q 1.1875,0 2.22656,0.37109 1.03906,0.3711 1.92969,1.26172 l 21.375,21.375 q 1.78125,1.78125 1.70703,4.15625 -0.0742,2.375 -1.70703,4.15625 -1.78125,1.78125 -4.23047,1.85547 -2.44922,0.0742 -4.23047,-1.70703 L 55.9375,24.09766 v 42.45312 q 0,2.52344 -1.70703,4.23047 -1.70703,1.70703 -4.23047,1.70703 -2.52344,0 -4.23047,-1.70703 -1.70703,-1.70703 -1.70703,-4.23047 z"
    style="stroke-width:0.148438" 
	/>
</svg>
