<svg
  xmlns="http://www.w3.org/2000/svg"
  viewBox="0 0 100 100"
  height="1"
  width="1"
>
  <path
    d="M 12,88 Q 8.08125,88 5.290625,85.20937 2.5,82.41875 2.5,78.5 v -57 Q 2.5,17.58125 5.290625,14.79062 8.08125,12 12,12 h 57 q 3.91875,0 6.70937,2.79062 Q 78.5,17.58125 78.5,21.5 V 42.875 L 93.4625,27.9125 Q 94.65,26.725 96.075,27.31875 97.5,27.9125 97.5,29.575 v 40.85 q 0,1.6625 -1.425,2.25625 Q 94.65,73.275 93.4625,72.0875 L 78.5,57.125 V 78.5 q 0,3.91875 -2.79063,6.70937 Q 72.91875,88 69,88 Z m 0,-9.5 h 57 v -57 H 12 Z m 0,0 v -57 z"
    style="stroke-width:0.11875" 
	/>
</svg>
