<?xml version="1.0" encoding="UTF-8" standalone="no"?>
<svg
   width="32"
   height="32"
   viewBox="0 0 23.999995 23.999995"
   version="1.1"
   id="svg1"
   sodipodi:docname="faceMaskOffIcon1.svg"
   inkscape:version="1.3.2 (091e20e, 2023-11-25, custom)"
   xmlns:inkscape="http://www.inkscape.org/namespaces/inkscape"
   xmlns:sodipodi="http://sodipodi.sourceforge.net/DTD/sodipodi-0.dtd"
   xmlns="http://www.w3.org/2000/svg"
   xmlns:svg="http://www.w3.org/2000/svg">
  <defs
     id="defs1" />
  <sodipodi:namedview
     id="namedview1"
     pagecolor="#ffffff"
     bordercolor="#000000"
     borderopacity="0.25"
     inkscape:showpageshadow="2"
     inkscape:pageopacity="0.0"
     inkscape:pagecheckerboard="0"
     inkscape:deskcolor="#d1d1d1"
     inkscape:document-units="in"
     inkscape:zoom="32"
     inkscape:cx="14.9375"
     inkscape:cy="15.921875"
     inkscape:window-width="1920"
     inkscape:window-height="1009"
     inkscape:window-x="-8"
     inkscape:window-y="-8"
     inkscape:window-maximized="1"
     inkscape:current-layer="svg1" />
  <path
     id="Selection"
     style="fill:none;stroke:#fff;stroke-width:0.524982;stroke-dasharray:none;stroke-opacity:1"
     d="m 12.005596,2.5453901 c 0,0 0.173612,0.00825 0.173612,0.00825 0,0 0.162761,0 0.162761,0 0,0 0.0868,0.00549 0.0868,0.00549 0,0 0.157337,0 0.157337,0 0,0 0.09224,0.00549 0.09224,0.00549 0,0 0.162761,0 0.162761,0 0,0 0.08138,0.00549 0.08138,0.00549 0,0 0.401479,0.00549 0.401479,0.00549 0,0 0.0868,0.00549 0.0868,0.00549 0,0 0.157336,0 0.157336,0 0,0 0.09224,0.00549 0.09224,0.00549 0,0 0.151912,0 0.151912,0 0,0 0.09224,0.00549 0.09224,0.00549 0,0 0.05967,0 0.05967,0 0,0 0.320098,0.041859 0.320098,0.041859 0,0 0.754128,0.1030815 0.754128,0.1030815 0,0 0.509985,0.069796 0.509985,0.069796 0,0 0.222443,0.030318 0.222443,0.030318 0,0 0.103081,0.033158 0.103081,0.033158 0,0 0.292971,0.090588 0.292971,0.090588 0,0 0.808382,0.2495701 0.808382,0.2495701 0,0 0.515411,0.158964 0.515411,0.158964 0,0 0.265844,0.08271 0.265844,0.08271 0,0 0.276693,0.1739399 0.276693,0.1739399 0,0 0.656472,0.416283 0.656472,0.416283 0,0 0.450307,0.2855947 0.450307,0.2855947 0,0 0.227866,0.1462138 0.227866,0.1462138 0,0 0.22244,0.2062181 0.22244,0.2062181 0,0 0.504561,0.4720098 0.504561,0.4720098 0,0 0.50456,0.4720097 0.50456,0.4720097 0,0 0.162762,0.1521767 0.162762,0.1521767 0,0 0.04113,0.038654 0.04113,0.038654 0,0 0.161895,0.2165226 0.161895,0.2165226 0,0 0.264379,0.3689281 0.264379,0.3689281 0,0 0.420792,0.5859362 0.420792,0.5859362 0,0 0.205242,0.2875458 0.205242,0.2875458 0,0 0.09072,0.1953181 0.09072,0.1953181 0,0 0.211861,0.4503017 0.211861,0.4503017 0,0 0.390627,0.8300838 0.390627,0.8300838 0,0 0.124784,0.2658467 0.124784,0.2658467 0,0 0.04492,0.092227 0.04492,0.092227 0,0 0.01997,0.1247896 0.01997,0.1247896 0,0 0.03337,0.2224396 0.03337,0.2224396 0,0 0.113119,0.7487004 0.113119,0.7487004 0,0 0.07053,0.466588 0.07053,0.466588 0,0 0.03061,0.254993 0.03061,0.254993 0,0 -0.02029,0.227861 -0.02029,0.227861 0,0 -0.02898,0.363506 -0.02898,0.363506 0,0 -0.02572,0.292969 -0.02572,0.292969 0,0 -0.04297,0.52083 -0.04297,0.52083 0,0 -0.02952,0.336375 -0.02952,0.336375 0,0 -0.03424,0.168187 -0.03424,0.168187 0,0 -0.04341,0.200742 -0.04341,0.200742 0,0 -0.15191,0.699871 -0.15191,0.699871 0,0 -0.115072,0.531694 -0.115072,0.531694 0,0 -0.05219,0.233284 -0.05219,0.233284 0,0 -0.0081,0.04342 -0.0081,0.04342 0,0 -0.136123,0.336375 -0.136123,0.336375 0,0 -0.240941,0.591369 -0.240941,0.591369 0,0 -0.251737,0.618488 -0.251737,0.618488 0,0 -0.09956,0.244148 -0.09956,0.244148 0,0 -0.04037,0.09766 -0.04037,0.09766 -0.03473,0.06164 -0.06164,0.08106 -0.110733,0.130211 0,0 -0.157335,0.157334 -0.157335,0.157334 0,0 -0.13021,0.135634 -0.13021,0.135634 0,0 -0.390572,0.390627 -0.390572,0.390627 0,0 -0.05436,0.05972 -0.05436,0.05972 0,0 -0.34717,0.347219 -0.34717,0.347219 0,0 -0.173612,0.177037 -0.173612,0.177037 -0.03912,0.0316 -0.101618,0.06486 -0.146486,0.09032 0,0 -0.238717,0.136394 -0.238717,0.136394 0,0 -0.770404,0.441784 -0.770404,0.441784 0,0 -0.320098,0.185279 -0.320098,0.185279 0,0 -0.819233,0.454973 -0.819233,0.454973 0,0 -0.683597,0.378967 -0.683597,0.378967 0,0 -0.05425,0.03242 -0.05425,0.03242 0,0 -0.558814,0.301752 -0.558814,0.301752 0,0 -0.390627,0.211595 -0.390627,0.211595 0,0 -0.130209,0.07053 -0.130209,0.07053 0,0 -0.07053,0.04039 -0.07053,0.04039 0,0 -0.341797,0.160374 -0.341797,0.160374 0,0 -0.461159,0.211586 -0.461159,0.211586 0,0 -0.330948,0.151911 -0.330948,0.151911 0,0 -0.184464,0.08647 -0.184464,0.08647 0,0 -0.119358,0.04232 -0.119358,0.04232 0,0 -0.379775,0.135635 -0.379775,0.135635 0,0 -0.509987,0.182513 -0.509987,0.182513 0,0 -0.276694,0.09533 -0.276694,0.09533 0,0 -0.254992,0.03802 -0.254992,0.03802 0,0 -0.477435,0.07053 -0.477435,0.07053 0,0 -0.488285,0.07136 -0.488285,0.07136 0,0 -0.30382,0.04113 -0.30382,0.04113 0,0 -0.211591,-0.03106 -0.211591,-0.03106 0,0 -0.428604,-0.06513 -0.428604,-0.06513 0,0 -0.63477,-0.09685 -0.63477,-0.09685 0,0 -0.265844,-0.03948 -0.265844,-0.03948 0,0 -0.113934,-0.04195 -0.113934,-0.04195 0,0 -0.173611,-0.06165 -0.173611,-0.06165 0,0 -0.4937101,-0.17557 -0.4937101,-0.17557 0,0 -0.3363733,-0.119358 -0.3363733,-0.119358 0,0 -0.075951,-0.02665 -0.075951,-0.02665 0,0 -0.048829,-0.01392 -0.048829,-0.01392 0,0 -0.054252,-0.0295 -0.054252,-0.0295 0,0 -0.1356346,-0.06219 -0.1356346,-0.06219 0,0 -0.4611579,-0.211586 -0.4611579,-0.211586 0,0 -0.4611574,-0.211594 -0.4611574,-0.211594 0,0 -0.1356346,-0.0599 -0.1356346,-0.0599 0,0 -0.2766944,-0.151637 -0.2766944,-0.151637 0,0 -0.6510458,-0.352652 -0.6510458,-0.352652 0,0 -1.0362481,-0.572105 -1.0362481,-0.572105 0,0 -0.71615,-0.395454 -0.71615,-0.395454 0,0 -0.048829,-0.03014 -0.048829,-0.03014 0,0 -0.1519101,-0.08684 -0.1519101,-0.08684 0,0 -0.8951881,-0.513072 -0.8951881,-0.513072 0,0 -0.2983961,-0.171284 -0.2983961,-0.171284 0,0 -0.1681867,-0.09641 -0.1681867,-0.09641 -0.031362,-0.02309 -0.097168,-0.09604 -0.1257065,-0.127556 0,0 -0.1130105,-0.113936 -0.1130105,-0.113936 0,0 -0.5479635,-0.553384 -0.5479635,-0.553384 0,0 -0.3743512,-0.379781 -0.3743512,-0.379781 0,0 -0.1302085,-0.130204 -0.1302085,-0.130204 -0.022734,-0.02272 -0.058318,-0.05569 -0.07541,-0.08134 -0.018612,-0.02803 -0.030162,-0.06604 -0.042858,-0.09766 0,0 -0.068468,-0.168187 -0.068468,-0.168187 0,0 -0.2277576,-0.558815 -0.2277576,-0.558815 0,0 -0.3071306,-0.754124 -0.3071306,-0.754124 0,0 -0.1041129,-0.254994 -0.1041129,-0.254994 0,0 -0.034284,-0.07594 -0.034284,-0.07594 0,0 -0.014592,-0.08134 -0.014592,-0.08134 0,0 -0.042263,-0.195319 -0.042263,-0.195319 0,0 -0.1162118,-0.537115 -0.1162118,-0.537115 0,0 -0.1519102,-0.699873 -0.1519102,-0.699873 0,0 -0.078177,-0.358073 -0.078177,-0.358073 0,0 -0.00687,-0.08683 -0.00687,-0.08683 0,0 -0.016707,-0.20074 -0.016707,-0.20074 0,0 -0.059684,-0.716149 -0.059684,-0.716149 0,0 -0.043408,-0.52084 -0.043408,-0.52084 0,0 -0.020563,-0.265846 -0.020563,-0.265846 0,0 0.05176,-0.352642 0.05176,-0.352642 0,0 0.093045,-0.6184992 0.093045,-0.6184992 0,0 0.08599,-0.5696592 0.08599,-0.5696592 0,0 0.026205,-0.1736192 0.026205,-0.1736192 0,0 0.00751,-0.059721 0.00751,-0.059721 0,0 0.043077,-0.086832 0.043077,-0.086832 0,0 0.086531,-0.1844642 0.086531,-0.1844642 0,0 0.3012722,-0.6401974 0.3012722,-0.6401974 0,0 0.3038211,-0.6456197 0.3038211,-0.6456197 0,0 0.089351,-0.1898866 0.089351,-0.1898866 0,0 0.039121,-0.086832 0.039121,-0.086832 0,0 0.1773014,-0.2495702 0.1773014,-0.2495702 0,0 0.3038212,-0.4231802 0.3038212,-0.4231802 0,0 0.3580746,-0.4991311 0.3580746,-0.4991311 0,0 0.2054057,-0.2820684 0.2054057,-0.2820684 0,0 0.2092023,-0.1962891 0.2092023,-0.1962891 0,0 0.1356345,-0.1288015 0.1356345,-0.1288015 0,0 0.2061649,-0.1908665 0.2061649,-0.1908665 0,0 0.5913659,-0.5533832 0.5913659,-0.5533832 0,0 0.3038222,-0.2841841 0.3038222,-0.2841841 0,0 0.2332909,-0.1476795 0.2332909,-0.1476795 0,0 0.5588148,-0.3546026 0.5588148,-0.3546026 0,0 0.5479635,-0.3472293 0.5479635,-0.3472293 0,0 0.2821195,-0.1770814 0.2821195,-0.1770814 0,0 0.146485,-0.043691 0.146485,-0.043691 0,0 0.2278667,-0.070438 0.2278667,-0.070438 0,0 0.7378518,-0.2294924 0.7378518,-0.2294924 0,0 0.5913659,-0.1844641 0.5913659,-0.1844641 0,0 0.2983961,-0.090405 0.2983961,-0.090405 0,0 0.1139338,-0.014107 0.1139338,-0.014107 0,0 0.206164,-0.027113 0.206164,-0.027113 0,0 0.6510461,-0.086832 0.6510461,-0.086832 0,0 0.5316874,-0.070528 0.5316874,-0.070528 0,0 0.298397,-0.036455 0.298397,-0.036455 0,0 0.05968,0 0.05968,0 0,0 0.07595,-0.00549 0.07595,-0.00549 0,0 0.157336,0 0.157336,0 0,0 0.09224,-0.00549 0.09224,-0.00549 0,0 0.640195,-0.010808 0.640195,-0.010808 0,0 0.09224,-0.00549 0.09224,-0.00549 0,0 0.151912,0 0.151912,0 0,0 0.09224,-0.00549 0.09224,-0.00549 0,0 0.396053,-0.00549 0.396053,-0.00549 0,0 0.09224,-0.00549 0.09224,-0.00549 0.03261,-5.5e-5 0.06527,0.00183 0.09766,-0.00275 z m 1.760293,6.2694373 c -0.912988,0.033589 2.364511,-0.2822553 3.159092,-0.2494186 0.79458,0.032837 -2.246106,0.2158295 -3.159092,0.2494186 z m -3.531392,3.07e-5 C 11.147484,8.8484472 7.869985,8.5326028 7.0754049,8.5654395 6.2808248,8.5982762 9.3215101,8.781269 10.234497,8.8148581 Z m 4.428239,6.8422479 c 1.495207,-0.02811 -4.589606,0.02633 -5.3201094,0.01639 -0.7305032,-0.0099 3.8249024,0.01172 5.3201094,-0.01639 z" />
</svg>
