<?xml version="1.0" encoding="UTF-8" standalone="no"?>
<svg
   width="32"
   height="32"
   viewBox="0 0 23.999995 23.999995"
   version="1.1"
   id="svg1"
   sodipodi:docname="faceMaskIcon1.svg"
   inkscape:version="1.3.2 (091e20e, 2023-11-25, custom)"
   xmlns:inkscape="http://www.inkscape.org/namespaces/inkscape"
   xmlns:sodipodi="http://sodipodi.sourceforge.net/DTD/sodipodi-0.dtd"
   xmlns:xlink="http://www.w3.org/1999/xlink"
   xmlns="http://www.w3.org/2000/svg"
   xmlns:svg="http://www.w3.org/2000/svg">
  <defs
     id="defs1">
    <linearGradient
       id="linearGradient10"
       inkscape:collect="always">
      <stop
         style="stop-color:#f56314;stop-opacity:1;"
         offset="0"
         id="stop9" />
      <stop
         style="stop-color:#f56314;stop-opacity:0.39705881;"
         offset="1"
         id="stop10" />
    </linearGradient>
    <linearGradient
       id="linearGradient4"
       inkscape:collect="always">
      <stop
         style="stop-color:#2e91f5;stop-opacity:0.40000001;"
         offset="0"
         id="stop5" />
      <stop
         style="stop-color:#2e91f5;stop-opacity:1;"
         offset="1"
         id="stop4" />
    </linearGradient>
    <linearGradient
       inkscape:collect="always"
       xlink:href="#linearGradient4"
       id="linearGradient5"
       x1="1.3124997"
       y1="11.250014"
       x2="23.812517"
       y2="11.250014"
       gradientUnits="userSpaceOnUse" />
    <linearGradient
       inkscape:collect="always"
       xlink:href="#linearGradient10"
       id="linearGradient9"
       gradientUnits="userSpaceOnUse"
       x1="1.3124997"
       y1="11.250014"
       x2="23.812517"
       y2="11.250014"
       gradientTransform="translate(-1.1249984,0.74993438)" />
  </defs>
  <sodipodi:namedview
     id="namedview1"
     pagecolor="#ffffff"
     bordercolor="#000000"
     borderopacity="0.25"
     inkscape:showpageshadow="2"
     inkscape:pageopacity="0.0"
     inkscape:pagecheckerboard="0"
     inkscape:deskcolor="#d1d1d1"
     inkscape:document-units="in"
     inkscape:zoom="11.313709"
     inkscape:cx="17.058951"
     inkscape:cy="23.113553"
     inkscape:window-width="1920"
     inkscape:window-height="1009"
     inkscape:window-x="-8"
     inkscape:window-y="-8"
     inkscape:window-maximized="1"
     inkscape:current-layer="svg1" />
  <path
     id="Selection-7"
     style="fill:url(#linearGradient5);fill-opacity:1;stroke:#2e91f5;stroke-width:0.524982;stroke-dasharray:none;stroke-opacity:1"
     d="m 12.568106,1.7955042 c 0,0 0.173612,0.00825 0.173612,0.00825 0,0 0.162761,0 0.162761,0 0,0 0.0868,0.00549 0.0868,0.00549 0,0 0.157337,0 0.157337,0 0,0 0.09224,0.00549 0.09224,0.00549 0,0 0.162761,0 0.162761,0 0,0 0.08138,0.00549 0.08138,0.00549 0,0 0.401479,0.00549 0.401479,0.00549 0,0 0.0868,0.00549 0.0868,0.00549 0,0 0.157336,0 0.157336,0 0,0 0.09224,0.00549 0.09224,0.00549 0,0 0.151912,0 0.151912,0 0,0 0.09224,0.00549 0.09224,0.00549 0,0 0.05967,0 0.05967,0 0,0 0.320098,0.041859 0.320098,0.041859 0,0 0.754128,0.1030815 0.754128,0.1030815 0,0 0.509985,0.069796 0.509985,0.069796 0,0 0.222443,0.030318 0.222443,0.030318 0,0 0.103081,0.033158 0.103081,0.033158 0,0 0.292971,0.090588 0.292971,0.090588 0,0 0.808382,0.2495701 0.808382,0.2495701 0,0 0.515411,0.158964 0.515411,0.158964 0,0 0.265844,0.08271 0.265844,0.08271 0,0 0.276693,0.1739399 0.276693,0.1739399 0,0 0.656472,0.416283 0.656472,0.416283 0,0 0.450307,0.2855947 0.450307,0.2855947 0,0 0.227866,0.1462138 0.227866,0.1462138 0,0 0.22244,0.2062181 0.22244,0.2062181 0,0 0.504561,0.4720098 0.504561,0.4720098 0,0 0.50456,0.4720097 0.50456,0.4720097 0,0 0.162762,0.1521767 0.162762,0.1521767 0,0 0.04113,0.038654 0.04113,0.038654 0,0 0.161895,0.2165226 0.161895,0.2165226 0,0 0.264379,0.3689281 0.264379,0.3689281 0,0 0.420792,0.5859362 0.420792,0.5859362 0,0 0.205242,0.2875458 0.205242,0.2875458 0,0 0.09072,0.1953181 0.09072,0.1953181 0,0 0.211861,0.4503017 0.211861,0.4503017 0,0 0.390627,0.8300838 0.390627,0.8300838 0,0 0.124784,0.2658467 0.124784,0.2658467 0,0 0.04492,0.092227 0.04492,0.092227 0,0 0.01997,0.1247896 0.01997,0.1247896 0,0 0.03337,0.2224392 0.03337,0.2224392 0,0 0.113119,0.7487008 0.113119,0.7487008 0,0 0.07053,0.466588 0.07053,0.466588 0,0 0.03061,0.2549929 0.03061,0.2549929 0,0 -0.02029,0.227861 -0.02029,0.227861 0,0 -0.02898,0.363506 -0.02898,0.363506 0,0 -0.02572,0.292969 -0.02572,0.292969 0,0 -0.04297,0.52083 -0.04297,0.52083 0,0 -0.02952,0.336375 -0.02952,0.336375 0,0 -0.03424,0.168187 -0.03424,0.168187 0,0 -0.04341,0.200742 -0.04341,0.200742 0,0 -0.15191,0.699871 -0.15191,0.699871 0,0 -0.115072,0.531694 -0.115072,0.531694 0,0 -0.05219,0.233284 -0.05219,0.233284 0,0 -0.0081,0.04342 -0.0081,0.04342 0,0 -0.136123,0.336375 -0.136123,0.336375 0,0 -0.240941,0.591369 -0.240941,0.591369 0,0 -0.251737,0.618488 -0.251737,0.618488 0,0 -0.09956,0.244148 -0.09956,0.244148 0,0 -0.04037,0.09766 -0.04037,0.09766 -0.03473,0.06164 -0.06164,0.08106 -0.110733,0.130211 0,0 -0.157335,0.157334 -0.157335,0.157334 0,0 -0.13021,0.135634 -0.13021,0.135634 0,0 -0.390572,0.390627 -0.390572,0.390627 0,0 -0.05436,0.05972 -0.05436,0.05972 0,0 -0.34717,0.347219 -0.34717,0.347219 0,0 -0.173612,0.177037 -0.173612,0.177037 -0.03912,0.0316 -0.101618,0.06486 -0.146486,0.09032 0,0 -0.238717,0.136394 -0.238717,0.136394 0,0 -0.770404,0.441784 -0.770404,0.441784 0,0 -0.320098,0.185279 -0.320098,0.185279 0,0 -0.819233,0.454973 -0.819233,0.454973 0,0 -0.683597,0.378967 -0.683597,0.378967 0,0 -0.05425,0.03242 -0.05425,0.03242 0,0 -0.558814,0.301752 -0.558814,0.301752 0,0 -0.390627,0.211595 -0.390627,0.211595 0,0 -0.130209,0.07053 -0.130209,0.07053 0,0 -0.07053,0.04039 -0.07053,0.04039 0,0 -0.341797,0.160374 -0.341797,0.160374 0,0 -0.461159,0.211586 -0.461159,0.211586 0,0 -0.330948,0.151911 -0.330948,0.151911 0,0 -0.184464,0.08647 -0.184464,0.08647 0,0 -0.119358,0.04232 -0.119358,0.04232 0,0 -0.379775,0.135635 -0.379775,0.135635 0,0 -0.509987,0.182513 -0.509987,0.182513 0,0 -0.276694,0.09533 -0.276694,0.09533 0,0 -0.254992,0.03802 -0.254992,0.03802 0,0 -0.477435,0.07053 -0.477435,0.07053 0,0 -0.488285,0.07136 -0.488285,0.07136 0,0 -0.30382,0.04113 -0.30382,0.04113 0,0 -0.211591,-0.03106 -0.211591,-0.03106 0,0 -0.428604,-0.06513 -0.428604,-0.06513 0,0 -0.63477,-0.09685 -0.63477,-0.09685 0,0 -0.265844,-0.03948 -0.265844,-0.03948 0,0 -0.113934,-0.04195 -0.113934,-0.04195 0,0 -0.173611,-0.06165 -0.173611,-0.06165 0,0 -0.49371,-0.17557 -0.49371,-0.17557 0,0 -0.3363743,-0.119358 -0.3363743,-0.119358 0,0 -0.07595,-0.02665 -0.07595,-0.02665 0,0 -0.04883,-0.01392 -0.04883,-0.01392 0,0 -0.05425,-0.0295 -0.05425,-0.0295 0,0 -0.135634,-0.06219 -0.135634,-0.06219 0,0 -0.461158,-0.211586 -0.461158,-0.211586 0,0 -0.461158,-0.211594 -0.461158,-0.211594 0,0 -0.135634,-0.0599 -0.135634,-0.0599 0,0 -0.276695,-0.151637 -0.276695,-0.151637 0,0 -0.651045,-0.352652 -0.651045,-0.352652 0,0 -1.0362486,-0.572105 -1.0362486,-0.572105 0,0 -0.71615,-0.395454 -0.71615,-0.395454 0,0 -0.048829,-0.03014 -0.048829,-0.03014 0,0 -0.1519101,-0.08684 -0.1519101,-0.08684 0,0 -0.8951881,-0.513072 -0.8951881,-0.513072 0,0 -0.2983961,-0.171284 -0.2983961,-0.171284 0,0 -0.1681867,-0.09641 -0.1681867,-0.09641 -0.031362,-0.02309 -0.097168,-0.09604 -0.1257065,-0.127556 0,0 -0.1130105,-0.113936 -0.1130105,-0.113936 0,0 -0.5479635,-0.553384 -0.5479635,-0.553384 0,0 -0.3743512,-0.379781 -0.3743512,-0.379781 0,0 -0.1302085,-0.130204 -0.1302085,-0.130204 -0.022734,-0.02272 -0.058318,-0.05569 -0.07541,-0.08134 -0.018612,-0.02803 -0.030162,-0.06604 -0.042858,-0.09766 0,0 -0.068468,-0.168187 -0.068468,-0.168187 0,0 -0.2277576,-0.558815 -0.2277576,-0.558815 0,0 -0.3071306,-0.754124 -0.3071306,-0.754124 0,0 -0.1041129,-0.254994 -0.1041129,-0.254994 0,0 -0.034284,-0.07594 -0.034284,-0.07594 0,0 -0.014592,-0.08134 -0.014592,-0.08134 0,0 -0.042263,-0.195319 -0.042263,-0.195319 0,0 -0.1162118,-0.537115 -0.1162118,-0.537115 0,0 -0.1519102,-0.699873 -0.1519102,-0.699873 0,0 -0.078177,-0.358073 -0.078177,-0.358073 0,0 -0.00687,-0.08683 -0.00687,-0.08683 0,0 -0.016707,-0.20074 -0.016707,-0.20074 0,0 -0.059684,-0.716149 -0.059684,-0.716149 0,0 -0.043408,-0.52084 -0.043408,-0.52084 0,0 -0.020563,-0.265846 -0.020563,-0.265846 0,0 0.05176,-0.3526419 0.05176,-0.3526419 0,0 0.093045,-0.6184988 0.093045,-0.6184988 0,0 0.08599,-0.56966 0.08599,-0.56966 0,0 0.026205,-0.1736188 0.026205,-0.1736188 0,0 0.00751,-0.059721 0.00751,-0.059721 0,0 0.043077,-0.086832 0.043077,-0.086832 0,0 0.086531,-0.1844642 0.086531,-0.1844642 0,0 0.3012722,-0.6401974 0.3012722,-0.6401974 0,0 0.3038211,-0.6456197 0.3038211,-0.6456197 0,0 0.089351,-0.1898866 0.089351,-0.1898866 0,0 0.039121,-0.086832 0.039121,-0.086832 0,0 0.1773014,-0.2495702 0.1773014,-0.2495702 0,0 0.3038212,-0.4231802 0.3038212,-0.4231802 0,0 0.3580746,-0.4991311 0.3580746,-0.4991311 0,0 0.2054057,-0.2820684 0.2054057,-0.2820684 0,0 0.2092023,-0.1962891 0.2092023,-0.1962891 0,0 0.1356345,-0.1288015 0.1356345,-0.1288015 0,0 0.2061649,-0.1908665 0.2061649,-0.1908665 0,0 0.5913659,-0.5533832 0.5913659,-0.5533832 0,0 0.3038222,-0.2841841 0.3038222,-0.2841841 0,0 0.2332909,-0.1476795 0.2332909,-0.1476795 0,0 0.5588148,-0.3546026 0.5588148,-0.3546026 0,0 0.5479635,-0.3472293 0.5479635,-0.3472293 0,0 0.2821197,-0.1770814 0.2821197,-0.1770814 0,0 0.146485,-0.043691 0.146485,-0.043691 0,0 0.227867,-0.070438 0.227867,-0.070438 0,0 0.737851,-0.2294924 0.737851,-0.2294924 0,0 0.591366,-0.1844641 0.591366,-0.1844641 0,0 0.298396,-0.090405 0.298396,-0.090405 0,0 0.113934,-0.014107 0.113934,-0.014107 0,0 0.206164,-0.027113 0.206164,-0.027113 0,0 0.651046,-0.086832 0.651046,-0.086832 0,0 0.5316883,-0.070528 0.5316883,-0.070528 0,0 0.298397,-0.036455 0.298397,-0.036455 0,0 0.05968,0 0.05968,0 0,0 0.07595,-0.00549 0.07595,-0.00549 0,0 0.157336,0 0.157336,0 0,0 0.09224,-0.00549 0.09224,-0.00549 0,0 0.640195,-0.010808 0.640195,-0.010808 0,0 0.09224,-0.00549 0.09224,-0.00549 0,0 0.151912,0 0.151912,0 0,0 0.09224,-0.00549 0.09224,-0.00549 0,0 0.396053,-0.00549 0.396053,-0.00549 0,0 0.09224,-0.00549 0.09224,-0.00549 0.03261,-5.5e-5 0.06527,0.00183 0.09766,-0.00275 z m 3.471924,5.5175062 c -0.0624,-0.00641 -0.07975,0.00825 -0.135686,0.00825 0,0 -0.08138,0 -0.08138,0 0,0 -0.0868,0.00549 -0.0868,0.00549 0,0 -0.08138,0 -0.08138,0 0,0 -0.108506,0.00549 -0.108506,0.00549 -0.06538,1.1e-4 -0.05241,0.010442 -0.108507,0.025097 0,0 -0.206163,0.055507 -0.206163,0.055507 0,0 -0.233289,0.066224 -0.233289,0.066224 0,0 -0.09224,0.054774 -0.09224,0.054774 0,0 -0.233288,0.1348289 -0.233288,0.1348289 -0.04194,0.024089 -0.101345,0.055324 -0.135417,0.087749 -0.02431,0.023265 -0.02778,0.038654 -0.04628,0.064209 0,0 -0.09272,0.1193674 -0.09272,0.1193674 -0.02203,0.028303 -0.07933,0.088023 -0.07037,0.1247808 0.01156,0.047721 0.0981,0.072268 0.138618,0.092017 0.08518,0.041585 0.164603,0.057155 0.25499,0.080971 0,0 0.23329,0.058713 0.23329,0.058713 0,0 0.211587,0.024181 0.211587,0.024181 0,0 0.24414,0.027204 0.24414,0.027204 0,0 0.10308,0.014473 0.10308,0.014473 0,0 0.320095,0.02354 0.320095,0.02354 0,0 0.211587,0.015296 0.211587,0.015296 0,0 0.238714,-0.041035 0.238714,-0.041035 0,0 0.298394,-0.051294 0.298394,-0.051294 0.05284,-0.01493 0.0868,-0.039111 0.135632,-0.063568 0,0 0.238715,-0.1193675 0.238715,-0.1193675 0,0 0.227864,-0.1268966 0.227864,-0.1268966 0,0 0.07595,-0.039111 0.07595,-0.039111 0,0 0.09766,-0.056331 0.09766,-0.056331 0,0 0.112685,-0.05917 0.112685,-0.05917 0.0093,-0.00825 0.01454,-0.016854 0.01606,-0.029036 0.0055,-0.043599 -0.04042,-0.065674 -0.06907,-0.087932 -0.05447,-0.042499 -0.107584,-0.087931 -0.168184,-0.1212634 0,0 -0.05967,-0.030318 -0.05967,-0.030318 -0.04926,-0.026929 -0.0606,-0.024089 -0.108506,-0.044881 -0.06776,-0.029494 -0.04238,-0.029494 -0.135633,-0.058072 0,0 -0.119357,-0.028761 -0.119357,-0.028761 0,0 -0.211587,-0.061095 -0.211587,-0.061095 0,0 -0.157336,-0.018869 -0.157336,-0.018869 z m -2.82511,6.5650346 c -0.04975,-0.0064 -0.121854,0.0046 -0.173612,0.0083 0,0 -0.233292,0.01694 -0.233292,0.01694 0,0 -0.04883,0 -0.04883,0 0,0 -0.20074,0.01557 -0.20074,0.01557 0,0 -0.271269,-0.0207 -0.271269,-0.0207 0,0 -0.124783,-0.0064 -0.124783,-0.0064 0,0 -0.21159,-0.01484 -0.21159,-0.01484 0,0 -0.401478,0.07978 -0.401478,0.07978 0,0 -0.347224,0.07502 -0.347224,0.07502 0,0 -0.113934,0.04315 -0.113934,0.04315 0,0 -0.211589,0.07795 -0.211589,0.07795 -0.100044,0.03729 -0.202801,0.07053 -0.298397,0.118277 0,0 -0.29297,0.146488 -0.29297,0.146488 -0.03597,0.01804 -0.119576,0.05615 -0.145943,0.07987 -0.01937,0.01741 -0.03521,0.05038 -0.04965,0.07337 0,0 -0.08654,0.141057 -0.08654,0.141057 0,0 -0.0817,0.130213 -0.0817,0.130213 -0.01036,0.0196 -0.02355,0.04223 -0.02007,0.06513 0.0037,0.02428 0.02507,0.04195 0.04059,0.05972 0,0 0.09826,0.108504 0.09826,0.108504 0.03814,0.04223 0.148168,0.170038 0.185386,0.196839 0.03923,0.02821 0.101021,0.05156 0.146485,0.07127 0,0 0.211589,0.09343 0.211589,0.09343 0,0 0.0868,0.04388 0.0868,0.04388 0,0 0.113933,0.04278 0.113933,0.04278 0,0 0.20074,0.08033 0.20074,0.08033 0,0 0.249569,0.100317 0.249569,0.100317 0,0 0.09766,0.0392 0.09766,0.0392 0,0 0.320098,0.0633 0.320098,0.0633 0,0 0.206165,0.04039 0.206165,0.04039 0.04785,0.0083 0.04547,0.01484 0.09766,0.01493 0,0 0.124783,0.0055 0.124783,0.0055 0,0 0.325523,0.0055 0.325523,0.0055 0,0 0.0868,0.0055 0.0868,0.0055 0,0 0.151912,0 0.151912,0 0,0 0.07053,-0.0055 0.07053,-0.0055 0,0 0.124784,0 0.124784,0 0,0 0.09224,-0.0055 0.09224,-0.0055 0,0 0.119358,0 0.119358,0 0,0 0.07596,-0.0055 0.07596,-0.0055 0,0 0.02713,0 0.02713,0 0.05501,-1.1e-4 0.10905,-0.0142 0.162762,-0.02491 0,0 0.227867,-0.04452 0.227867,-0.04452 0,0 0.249567,-0.04873 0.249567,-0.04873 0,0 0.119358,-0.04781 0.119358,-0.04781 0,0 0.227866,-0.09213 0.227866,-0.09213 0,0 0.200739,-0.08033 0.200739,-0.08033 0,0 0.0434,-0.01429 0.0434,-0.01429 0,0 0.09224,-0.04397 0.09224,-0.04397 0,0 0.260419,-0.11442 0.260419,-0.11442 0,0 0.146485,-0.06714 0.146485,-0.06714 0.0428,-0.02867 0.0696,-0.06293 0.103516,-0.09983 0,0 0.138348,-0.151911 0.138348,-0.151911 0.01726,-0.01988 0.08534,-0.09202 0.09359,-0.108504 0.0049,-0.01008 0.0066,-0.02134 0.005,-0.03251 -0.0038,-0.02766 -0.07329,-0.132273 -0.09196,-0.162765 0,0 -0.09972,-0.162766 -0.09972,-0.162766 -0.01281,-0.02089 -0.02544,-0.05312 -0.04145,-0.0687 -0.03418,-0.03352 -0.08621,-0.05093 -0.12907,-0.06925 0,0 -0.151912,-0.07502 -0.151912,-0.07502 0,0 -0.15191,-0.07603 -0.15191,-0.07603 0,0 -0.04883,-0.02876 -0.04883,-0.02876 0,0 -0.04883,-0.01512 -0.04883,-0.01512 0,0 -0.211591,-0.07978 -0.211591,-0.07978 0,0 -0.211589,-0.07795 -0.211589,-0.07795 0,0 -0.151911,-0.05569 -0.151911,-0.05569 0,0 -0.162762,-0.03115 -0.162762,-0.03115 z M 9.3570264,7.3117104 c -0.0624,-0.00641 -0.07975,0.00825 -0.135686,0.00825 0,0 -0.08138,0 -0.08138,0 0,0 -0.0868,0.00549 -0.0868,0.00549 0,0 -0.08138,0 -0.08138,0 0,0 -0.108506,0.00549 -0.108506,0.00549 -0.06538,1.1e-4 -0.05241,0.010442 -0.108507,0.025097 0,0 -0.206163,0.055507 -0.206163,0.055507 0,0 -0.2332896,0.066224 -0.2332896,0.066224 0,0 -0.09224,0.054774 -0.09224,0.054774 0,0 -0.233288,0.1348289 -0.233288,0.1348289 -0.04194,0.024089 -0.101345,0.055324 -0.135417,0.087749 -0.02431,0.023265 -0.02778,0.038654 -0.04628,0.064209 0,0 -0.09272,0.1193674 -0.09272,0.1193674 -0.02203,0.028303 -0.07933,0.088023 -0.07037,0.1247808 0.01156,0.047721 0.0981,0.072268 0.138618,0.092017 0.08518,0.041585 0.164603,0.057155 0.25499,0.080971 0,0 0.23329,0.058713 0.23329,0.058713 0,0 0.2115876,0.024181 0.2115876,0.024181 0,0 0.24414,0.027204 0.24414,0.027204 0,0 0.10308,0.014473 0.10308,0.014473 0,0 0.320095,0.02354 0.320095,0.02354 0,0 0.211587,0.015296 0.211587,0.015296 0,0 0.238714,-0.041035 0.238714,-0.041035 0,0 0.298394,-0.051294 0.298394,-0.051294 0.05284,-0.01493 0.0868,-0.039111 0.1356316,-0.063568 0,0 0.238715,-0.1193675 0.238715,-0.1193675 0,0 0.227864,-0.1268966 0.227864,-0.1268966 0,0 0.07595,-0.039111 0.07595,-0.039111 0,0 0.09766,-0.056331 0.09766,-0.056331 0,0 0.112685,-0.05917 0.112685,-0.05917 0.0093,-0.00825 0.01454,-0.016854 0.01606,-0.029036 0.0055,-0.043599 -0.04042,-0.065674 -0.06907,-0.087932 -0.05447,-0.042499 -0.107584,-0.087931 -0.168184,-0.1212634 0,0 -0.05967,-0.030318 -0.05967,-0.030318 -0.04926,-0.026929 -0.0606,-0.024089 -0.108506,-0.044881 -0.06776,-0.029494 -0.04238,-0.029494 -0.135633,-0.058072 0,0 -0.119357,-0.028761 -0.119357,-0.028761 0,0 -0.2115866,-0.061095 -0.2115866,-0.061095 0,0 -0.157336,-0.018869 -0.157336,-0.018869 z" />
  <path
     id="Selection-7-7"
     style="fill:url(#linearGradient9);fill-opacity:1;stroke:#f56314;stroke-width:0.524982;stroke-dasharray:none;stroke-opacity:1"
     d="m 11.443108,2.5454385 c 0,0 0.173612,0.00825 0.173612,0.00825 0,0 0.162761,0 0.162761,0 0,0 0.0868,0.00549 0.0868,0.00549 0,0 0.157337,0 0.157337,0 0,0 0.09224,0.00549 0.09224,0.00549 0,0 0.162761,0 0.162761,0 0,0 0.08138,0.00549 0.08138,0.00549 0,0 0.401479,0.00549 0.401479,0.00549 0,0 0.0868,0.00549 0.0868,0.00549 0,0 0.157336,0 0.157336,0 0,0 0.09224,0.00549 0.09224,0.00549 0,0 0.151912,0 0.151912,0 0,0 0.09224,0.00549 0.09224,0.00549 0,0 0.05967,0 0.05967,0 0,0 0.320098,0.041859 0.320098,0.041859 0,0 0.754128,0.1030815 0.754128,0.1030815 0,0 0.509985,0.069796 0.509985,0.069796 0,0 0.222443,0.030318 0.222443,0.030318 0,0 0.103081,0.033158 0.103081,0.033158 0,0 0.292971,0.090588 0.292971,0.090588 0,0 0.808382,0.2495701 0.808382,0.2495701 0,0 0.515411,0.158964 0.515411,0.158964 0,0 0.265844,0.08271 0.265844,0.08271 0,0 0.276693,0.1739399 0.276693,0.1739399 0,0 0.656472,0.416283 0.656472,0.416283 0,0 0.450307,0.2855947 0.450307,0.2855947 0,0 0.227866,0.1462138 0.227866,0.1462138 0,0 0.22244,0.2062181 0.22244,0.2062181 0,0 0.504561,0.4720098 0.504561,0.4720098 0,0 0.50456,0.4720097 0.50456,0.4720097 0,0 0.162762,0.1521767 0.162762,0.1521767 0,0 0.04113,0.038654 0.04113,0.038654 0,0 0.161895,0.2165226 0.161895,0.2165226 0,0 0.264379,0.3689281 0.264379,0.3689281 0,0 0.420792,0.5859362 0.420792,0.5859362 0,0 0.205242,0.2875458 0.205242,0.2875458 0,0 0.09072,0.1953181 0.09072,0.1953181 0,0 0.211861,0.4503017 0.211861,0.4503017 0,0 0.390627,0.8300838 0.390627,0.8300838 0,0 0.124784,0.2658467 0.124784,0.2658467 0,0 0.04492,0.092227 0.04492,0.092227 0,0 0.01997,0.1247896 0.01997,0.1247896 0,0 0.03337,0.2224392 0.03337,0.2224392 0,0 0.113119,0.7487004 0.113119,0.7487004 0,0 0.07053,0.466588 0.07053,0.466588 0,0 0.03061,0.254993 0.03061,0.254993 0,0 -0.02029,0.227861 -0.02029,0.227861 0,0 -0.02898,0.363506 -0.02898,0.363506 0,0 -0.02572,0.292969 -0.02572,0.292969 0,0 -0.04297,0.52083 -0.04297,0.52083 0,0 -0.02952,0.336375 -0.02952,0.336375 0,0 -0.03424,0.168187 -0.03424,0.168187 0,0 -0.04341,0.200742 -0.04341,0.200742 0,0 -0.15191,0.699871 -0.15191,0.699871 0,0 -0.115072,0.531694 -0.115072,0.531694 0,0 -0.05219,0.233284 -0.05219,0.233284 0,0 -0.0081,0.04342 -0.0081,0.04342 0,0 -0.136123,0.336375 -0.136123,0.336375 0,0 -0.240941,0.591369 -0.240941,0.591369 0,0 -0.251737,0.618488 -0.251737,0.618488 0,0 -0.09956,0.244148 -0.09956,0.244148 0,0 -0.04037,0.09766 -0.04037,0.09766 -0.03473,0.06164 -0.06164,0.08106 -0.110733,0.130211 0,0 -0.157335,0.157334 -0.157335,0.157334 0,0 -0.13021,0.135634 -0.13021,0.135634 0,0 -0.390572,0.390627 -0.390572,0.390627 0,0 -0.05436,0.05972 -0.05436,0.05972 0,0 -0.34717,0.347219 -0.34717,0.347219 0,0 -0.173612,0.177037 -0.173612,0.177037 -0.03912,0.0316 -0.101618,0.06486 -0.146486,0.09032 0,0 -0.238717,0.136394 -0.238717,0.136394 0,0 -0.770404,0.441784 -0.770404,0.441784 0,0 -0.320098,0.185279 -0.320098,0.185279 0,0 -0.819233,0.454973 -0.819233,0.454973 0,0 -0.683597,0.378967 -0.683597,0.378967 0,0 -0.05425,0.03242 -0.05425,0.03242 0,0 -0.558814,0.301752 -0.558814,0.301752 0,0 -0.390627,0.211595 -0.390627,0.211595 0,0 -0.130209,0.07053 -0.130209,0.07053 0,0 -0.07053,0.04039 -0.07053,0.04039 0,0 -0.341797,0.160374 -0.341797,0.160374 0,0 -0.461159,0.211586 -0.461159,0.211586 0,0 -0.330948,0.151911 -0.330948,0.151911 0,0 -0.184464,0.08647 -0.184464,0.08647 0,0 -0.119358,0.04232 -0.119358,0.04232 0,0 -0.379775,0.135635 -0.379775,0.135635 0,0 -0.509987,0.182513 -0.509987,0.182513 0,0 -0.276694,0.09533 -0.276694,0.09533 0,0 -0.254992,0.03802 -0.254992,0.03802 0,0 -0.477435,0.07053 -0.477435,0.07053 0,0 -0.488285,0.07136 -0.488285,0.07136 0,0 -0.30382,0.04113 -0.30382,0.04113 0,0 -0.211591,-0.03106 -0.211591,-0.03106 0,0 -0.428604,-0.06513 -0.428604,-0.06513 0,0 -0.63477,-0.09685 -0.63477,-0.09685 0,0 -0.2658443,-0.03948 -0.2658443,-0.03948 0,0 -0.113934,-0.04195 -0.113934,-0.04195 0,0 -0.173611,-0.06165 -0.173611,-0.06165 0,0 -0.4937101,-0.17557 -0.4937101,-0.17557 0,0 -0.336375,-0.119358 -0.336375,-0.119358 0,0 -0.07595,-0.02665 -0.07595,-0.02665 0,0 -0.04883,-0.01392 -0.04883,-0.01392 0,0 -0.05425,-0.0295 -0.05425,-0.0295 0,0 -0.135634,-0.06219 -0.135634,-0.06219 0,0 -0.461158,-0.211586 -0.461158,-0.211586 0,0 -0.461158,-0.211594 -0.461158,-0.211594 0,0 -0.135634,-0.0599 -0.135634,-0.0599 0,0 -0.276695,-0.151637 -0.276695,-0.151637 0,0 -0.651045,-0.352652 -0.651045,-0.352652 0,0 -1.036248,-0.572105 -1.036248,-0.572105 0,0 -0.71615,-0.395454 -0.71615,-0.395454 0,0 -0.04883,-0.03014 -0.04883,-0.03014 0,0 -0.15191,-0.08684 -0.15191,-0.08684 0,0 -0.895188,-0.513072 -0.895188,-0.513072 0,0 -0.298397,-0.171284 -0.298397,-0.171284 0,0 -0.168186,-0.09641 -0.168186,-0.09641 -0.03136,-0.02309 -0.09717,-0.09604 -0.125707,-0.127556 0,0 -0.11301,-0.113936 -0.11301,-0.113936 0,0 -0.547964,-0.553384 -0.547964,-0.553384 0,0 -0.374351,-0.379781 -0.374351,-0.379781 0,0 -0.1302085,-0.130204 -0.1302085,-0.130204 -0.022734,-0.02272 -0.058318,-0.05569 -0.07541,-0.08134 -0.018612,-0.02803 -0.030162,-0.06604 -0.042858,-0.09766 0,0 -0.068468,-0.168187 -0.068468,-0.168187 0,0 -0.2277576,-0.558815 -0.2277576,-0.558815 0,0 -0.3071306,-0.754124 -0.3071306,-0.754124 0,0 -0.1041129,-0.254994 -0.1041129,-0.254994 0,0 -0.034284,-0.07594 -0.034284,-0.07594 0,0 -0.014592,-0.08134 -0.014592,-0.08134 0,0 -0.042263,-0.195319 -0.042263,-0.195319 0,0 -0.1162118,-0.537115 -0.1162118,-0.537115 0,0 -0.1519102,-0.699873 -0.1519102,-0.699873 0,0 -0.078177,-0.358073 -0.078177,-0.358073 0,0 -0.00687,-0.08683 -0.00687,-0.08683 0,0 -0.016707,-0.20074 -0.016707,-0.20074 0,0 -0.059684,-0.716149 -0.059684,-0.716149 0,0 -0.043408,-0.52084 -0.043408,-0.52084 0,0 -0.020563,-0.265846 -0.020563,-0.265846 0,0 0.05176,-0.352642 0.05176,-0.352642 0,0 0.093045,-0.6184984 0.093045,-0.6184984 0,0 0.08599,-0.56966 0.08599,-0.56966 0,0 0.026205,-0.1736188 0.026205,-0.1736188 0,0 0.00751,-0.059721 0.00751,-0.059721 0,0 0.043077,-0.086832 0.043077,-0.086832 0,0 0.086531,-0.1844642 0.086531,-0.1844642 0,0 0.30127217,-0.6401974 0.30127217,-0.6401974 0,0 0.3038211,-0.6456197 0.3038211,-0.6456197 0,0 0.089351,-0.1898866 0.089351,-0.1898866 0,0 0.039121,-0.086832 0.039121,-0.086832 0,0 0.1773014,-0.2495702 0.1773014,-0.2495702 0,0 0.3038209,-0.4231802 0.3038209,-0.4231802 0,0 0.358075,-0.4991311 0.358075,-0.4991311 0,0 0.205406,-0.2820684 0.205406,-0.2820684 0,0 0.209202,-0.1962891 0.209202,-0.1962891 0,0 0.135634,-0.1288015 0.135634,-0.1288015 0,0 0.206165,-0.1908665 0.206165,-0.1908665 0,0 0.591366,-0.5533832 0.591366,-0.5533832 0,0 0.303822,-0.2841841 0.303822,-0.2841841 0,0 0.233291,-0.1476795 0.233291,-0.1476795 0,0 0.558815,-0.3546026 0.558815,-0.3546026 0,0 0.547964,-0.3472293 0.547964,-0.3472293 0,0 0.282119,-0.1770814 0.282119,-0.1770814 0,0 0.146485,-0.043691 0.146485,-0.043691 0,0 0.227867,-0.070438 0.227867,-0.070438 0,0 0.737851,-0.2294924 0.737851,-0.2294924 0,0 0.591366,-0.1844641 0.591366,-0.1844641 0,0 0.298396,-0.090405 0.298396,-0.090405 0,0 0.113934,-0.014107 0.113934,-0.014107 0,0 0.206164,-0.027113 0.206164,-0.027113 0,0 0.6510456,-0.086832 0.6510456,-0.086832 0,0 0.531689,-0.070528 0.531689,-0.070528 0,0 0.2983975,-0.036455 0.2983975,-0.036455 0,0 0.05968,0 0.05968,0 0,0 0.07595,-0.00549 0.07595,-0.00549 0,0 0.157336,0 0.157336,0 0,0 0.09224,-0.00549 0.09224,-0.00549 0,0 0.6401953,-0.010808 0.6401953,-0.010808 0,0 0.09224,-0.00549 0.09224,-0.00549 0,0 0.151912,0 0.151912,0 0,0 0.09224,-0.00549 0.09224,-0.00549 0,0 0.396053,-0.00549 0.396053,-0.00549 0,0 0.09224,-0.00549 0.09224,-0.00549 0.03261,-5.5e-5 0.06527,0.00183 0.09766,-0.00275 z m 3.471924,5.5175062 c -0.0624,-0.00641 -0.07975,0.00825 -0.135686,0.00825 0,0 -0.08138,0 -0.08138,0 0,0 -0.0868,0.00549 -0.0868,0.00549 0,0 -0.08138,0 -0.08138,0 0,0 -0.108506,0.00549 -0.108506,0.00549 -0.06538,1.1e-4 -0.05241,0.010442 -0.108507,0.025097 0,0 -0.206163,0.055507 -0.206163,0.055507 0,0 -0.233289,0.066224 -0.233289,0.066224 0,0 -0.09224,0.054774 -0.09224,0.054774 0,0 -0.233288,0.1348289 -0.233288,0.1348289 -0.04194,0.024089 -0.101345,0.055324 -0.135417,0.087749 -0.02431,0.023265 -0.02778,0.038654 -0.04628,0.064209 0,0 -0.09272,0.1193674 -0.09272,0.1193674 -0.02203,0.028303 -0.07933,0.088023 -0.07037,0.1247808 0.01156,0.047721 0.0981,0.072268 0.138618,0.092017 0.08518,0.041585 0.164603,0.057155 0.25499,0.080971 0,0 0.23329,0.058713 0.23329,0.058713 0,0 0.211587,0.024181 0.211587,0.024181 0,0 0.24414,0.027204 0.24414,0.027204 0,0 0.10308,0.014473 0.10308,0.014473 0,0 0.320095,0.02354 0.320095,0.02354 0,0 0.211587,0.015296 0.211587,0.015296 0,0 0.238714,-0.041035 0.238714,-0.041035 0,0 0.298394,-0.051294 0.298394,-0.051294 0.05284,-0.01493 0.0868,-0.039111 0.135632,-0.063568 0,0 0.238715,-0.1193675 0.238715,-0.1193675 0,0 0.227864,-0.1268966 0.227864,-0.1268966 0,0 0.07595,-0.039111 0.07595,-0.039111 0,0 0.09766,-0.056331 0.09766,-0.056331 0,0 0.112685,-0.05917 0.112685,-0.05917 0.0093,-0.00825 0.01454,-0.016854 0.01606,-0.029036 0.0055,-0.043599 -0.04042,-0.065674 -0.06907,-0.087932 -0.05447,-0.042499 -0.107584,-0.087931 -0.168184,-0.1212634 0,0 -0.05967,-0.030318 -0.05967,-0.030318 -0.04926,-0.026929 -0.0606,-0.024089 -0.108506,-0.044881 -0.06776,-0.029494 -0.04238,-0.029494 -0.135633,-0.058072 0,0 -0.119357,-0.028761 -0.119357,-0.028761 0,0 -0.211587,-0.061095 -0.211587,-0.061095 0,0 -0.157336,-0.018869 -0.157336,-0.018869 z m -2.82511,6.5650343 c -0.04975,-0.0064 -0.121854,0.0046 -0.173612,0.0083 0,0 -0.233292,0.01694 -0.233292,0.01694 0,0 -0.04883,0 -0.04883,0 0,0 -0.20074,0.01557 -0.20074,0.01557 0,0 -0.271269,-0.0207 -0.271269,-0.0207 0,0 -0.124783,-0.0064 -0.124783,-0.0064 0,0 -0.21159,-0.01484 -0.21159,-0.01484 0,0 -0.401478,0.07978 -0.401478,0.07978 0,0 -0.347224,0.07502 -0.347224,0.07502 0,0 -0.1139343,0.04315 -0.1139343,0.04315 0,0 -0.211589,0.07795 -0.211589,0.07795 -0.100044,0.03729 -0.202801,0.07053 -0.298397,0.118277 0,0 -0.2929701,0.146488 -0.2929701,0.146488 -0.03597,0.01804 -0.119576,0.05615 -0.145943,0.07987 -0.01937,0.01741 -0.03521,0.05038 -0.04965,0.07337 0,0 -0.08654,0.141057 -0.08654,0.141057 0,0 -0.0817,0.130213 -0.0817,0.130213 -0.01036,0.0196 -0.02355,0.04223 -0.02007,0.06513 0.0037,0.02428 0.02507,0.04195 0.04059,0.05972 0,0 0.09826,0.108504 0.09826,0.108504 0.03814,0.04223 0.148168,0.170038 0.185386,0.196839 0.03923,0.02821 0.101021,0.05156 0.146485,0.07127 0,0 0.2115891,0.09343 0.2115891,0.09343 0,0 0.0868,0.04388 0.0868,0.04388 0,0 0.113933,0.04278 0.113933,0.04278 0,0 0.20074,0.08033 0.20074,0.08033 0,0 0.2495693,0.100317 0.2495693,0.100317 0,0 0.09766,0.0392 0.09766,0.0392 0,0 0.320098,0.0633 0.320098,0.0633 0,0 0.206165,0.04039 0.206165,0.04039 0.04785,0.0083 0.04547,0.01484 0.09766,0.01493 0,0 0.124783,0.0055 0.124783,0.0055 0,0 0.325523,0.0055 0.325523,0.0055 0,0 0.0868,0.0055 0.0868,0.0055 0,0 0.151912,0 0.151912,0 0,0 0.07053,-0.0055 0.07053,-0.0055 0,0 0.124784,0 0.124784,0 0,0 0.09224,-0.0055 0.09224,-0.0055 0,0 0.119358,0 0.119358,0 0,0 0.07596,-0.0055 0.07596,-0.0055 0,0 0.02713,0 0.02713,0 0.05501,-1.1e-4 0.10905,-0.0142 0.162762,-0.02491 0,0 0.227867,-0.04452 0.227867,-0.04452 0,0 0.249567,-0.04873 0.249567,-0.04873 0,0 0.119358,-0.04781 0.119358,-0.04781 0,0 0.227866,-0.09213 0.227866,-0.09213 0,0 0.200739,-0.08033 0.200739,-0.08033 0,0 0.0434,-0.01429 0.0434,-0.01429 0,0 0.09224,-0.04397 0.09224,-0.04397 0,0 0.260419,-0.11442 0.260419,-0.11442 0,0 0.146485,-0.06714 0.146485,-0.06714 0.0428,-0.02867 0.0696,-0.06293 0.103516,-0.09983 0,0 0.138348,-0.151911 0.138348,-0.151911 0.01726,-0.01988 0.08534,-0.09202 0.09359,-0.108504 0.0049,-0.01008 0.0066,-0.02134 0.005,-0.03251 -0.0038,-0.02766 -0.07329,-0.132273 -0.09196,-0.162765 0,0 -0.09972,-0.162766 -0.09972,-0.162766 -0.01281,-0.02089 -0.02544,-0.05312 -0.04145,-0.0687 -0.03418,-0.03352 -0.08621,-0.05093 -0.12907,-0.06925 0,0 -0.151912,-0.07502 -0.151912,-0.07502 0,0 -0.15191,-0.07603 -0.15191,-0.07603 0,0 -0.04883,-0.02876 -0.04883,-0.02876 0,0 -0.04883,-0.01512 -0.04883,-0.01512 0,0 -0.211591,-0.07978 -0.211591,-0.07978 0,0 -0.211589,-0.07795 -0.211589,-0.07795 0,0 -0.151911,-0.05569 -0.151911,-0.05569 0,0 -0.162762,-0.03115 -0.162762,-0.03115 z M 8.232028,8.0616447 c -0.0624,-0.00641 -0.07975,0.00825 -0.135686,0.00825 0,0 -0.08138,0 -0.08138,0 0,0 -0.0868,0.00549 -0.0868,0.00549 0,0 -0.08138,0 -0.08138,0 0,0 -0.108506,0.00549 -0.108506,0.00549 -0.06538,1.1e-4 -0.05241,0.010442 -0.108507,0.025097 0,0 -0.206163,0.055507 -0.206163,0.055507 0,0 -0.23329,0.066224 -0.23329,0.066224 0,0 -0.09224,0.054774 -0.09224,0.054774 0,0 -0.233288,0.1348289 -0.233288,0.1348289 -0.04194,0.024089 -0.101345,0.055324 -0.135417,0.087749 -0.02431,0.023265 -0.02778,0.038654 -0.04628,0.064209 0,0 -0.09272,0.1193674 -0.09272,0.1193674 -0.02203,0.028303 -0.07933,0.088023 -0.07037,0.1247808 0.01156,0.047721 0.0981,0.072268 0.138618,0.092017 0.08518,0.041585 0.164603,0.057155 0.25499,0.080971 0,0 0.23329,0.058713 0.23329,0.058713 0,0 0.211588,0.024181 0.211588,0.024181 0,0 0.24414,0.027204 0.24414,0.027204 0,0 0.10308,0.014473 0.10308,0.014473 0,0 0.320095,0.02354 0.320095,0.02354 0,0 0.211587,0.015296 0.211587,0.015296 0,0 0.238714,-0.041035 0.238714,-0.041035 0,0 0.2983936,-0.051294 0.2983936,-0.051294 0.05284,-0.01493 0.0868,-0.039111 0.135632,-0.063568 0,0 0.238715,-0.1193675 0.238715,-0.1193675 0,0 0.227864,-0.1268966 0.227864,-0.1268966 0,0 0.07595,-0.039111 0.07595,-0.039111 0,0 0.09766,-0.056331 0.09766,-0.056331 0,0 0.112685,-0.05917 0.112685,-0.05917 0.0093,-0.00825 0.01454,-0.016854 0.01606,-0.029036 0.0055,-0.043599 -0.04042,-0.065674 -0.06907,-0.087932 -0.05447,-0.042499 -0.107584,-0.087931 -0.168184,-0.1212634 0,0 -0.05967,-0.030318 -0.05967,-0.030318 -0.04926,-0.026929 -0.0606,-0.024089 -0.108506,-0.044881 -0.06776,-0.029494 -0.04238,-0.029494 -0.135633,-0.058072 0,0 -0.119357,-0.028761 -0.119357,-0.028761 0,0 -0.211587,-0.061095 -0.211587,-0.061095 0,0 -0.157336,-0.018869 -0.157336,-0.018869 z" />
</svg>
