{
	"asset":{
		"generator":"Khronos glTF Blender I/O v3.6.27",
		"version":"2.0"
	},
	"extensionsUsed":[
		"KHR_materials_specular",
		"KHR_materials_ior",
		"KHR_materials_transmission"
	],
	"scene":0,
	"scenes":[
		{
			"name":"Scene",
			"nodes":[
				6
			]
		}
	],
	"nodes":[
		{
			"mesh":0,
			"name":"base"
		},
		{
			"mesh":1,
			"name":"battery"
		},
		{
			"mesh":2,
			"name":"body.003"
		},
		{
			"mesh":3,
			"name":"brain"
		},
		{
			"mesh":4,
			"name":"caseRim"
		},
		{
			"mesh":5,
			"name":"glassCase"
		},
		{
			"children":[
				0,
				1,
				2,
				3,
				4,
				5
			],
			"name":"angryHamster"
		}
	],
	"materials":[
		{
			"doubleSided":true,
			"extensions":{
				"KHR_materials_specular":{
					"specularColorTexture":{
						"index":0
					}
				},
				"KHR_materials_ior":{
					"ior":1.4500000476837158
				}
			},
			"name":"pasted__Base_0",
			"normalTexture":{
				"index":1
			},
			"pbrMetallicRoughness":{
				"baseColorTexture":{
					"index":2
				},
				"metallicFactor":0,
				"metallicRoughnessTexture":{
					"index":3
				}
			}
		},
		{
			"doubleSided":true,
			"extensions":{
				"KHR_materials_specular":{
					"specularColorTexture":{
						"index":4
					}
				},
				"KHR_materials_ior":{
					"ior":1.4500000476837158
				}
			},
			"name":"FrontColor_0",
			"normalTexture":{
				"index":5
			},
			"occlusionTexture":{
				"index":6
			},
			"pbrMetallicRoughness":{
				"baseColorTexture":{
					"index":7
				},
				"metallicFactor":0,
				"metallicRoughnessTexture":{
					"index":6
				}
			}
		},
		{
			"doubleSided":true,
			"extensions":{
				"KHR_materials_specular":{
					"specularColorTexture":{
						"index":8
					}
				},
				"KHR_materials_ior":{
					"ior":1.4500000476837158
				}
			},
			"name":"lambert2",
			"normalTexture":{
				"index":9
			},
			"pbrMetallicRoughness":{
				"baseColorTexture":{
					"index":10
				},
				"metallicFactor":0,
				"metallicRoughnessTexture":{
					"index":11
				}
			}
		},
		{
			"doubleSided":true,
			"extensions":{
				"KHR_materials_specular":{
					"specularColorTexture":{
						"index":12,
						"texCoord":1
					}
				},
				"KHR_materials_ior":{
					"ior":1.4500000476837158
				}
			},
			"name":"pasted__Beefy_Deefy",
			"normalTexture":{
				"index":13,
				"texCoord":2
			},
			"pbrMetallicRoughness":{
				"baseColorTexture":{
					"index":14
				},
				"metallicFactor":0,
				"metallicRoughnessTexture":{
					"index":15,
					"texCoord":1
				}
			}
		},
		{
			"doubleSided":true,
			"extensions":{
				"KHR_materials_specular":{
					"specularColorTexture":{
						"index":16,
						"texCoord":1
					}
				},
				"KHR_materials_ior":{
					"ior":1.4500000476837158
				}
			},
			"name":"pasted__Rim",
			"normalTexture":{
				"index":17
			},
			"pbrMetallicRoughness":{
				"baseColorTexture":{
					"index":18
				},
				"metallicFactor":0,
				"metallicRoughnessTexture":{
					"index":19,
					"texCoord":1
				}
			}
		},
		{
			"alphaMode":"BLEND",
			"doubleSided":true,
			"extensions":{
				"KHR_materials_transmission":{
					"transmissionFactor":1
				},
				"KHR_materials_specular":{
					"specularColorTexture":{
						"index":20
					}
				},
				"KHR_materials_ior":{
					"ior":1.4500000476837158
				}
			},
			"name":"pasted__GLASS.001",
			"normalTexture":{
				"index":21
			},
			"pbrMetallicRoughness":{
				"baseColorFactor":[
					0.5682595372200012,
					0.707601010799408,
					0.7036699056625366,
					1
				],
				"metallicFactor":0,
				"metallicRoughnessTexture":{
					"index":22
				}
			}
		}
	],
	"meshes":[
		{
			"name":"pasted__polySurface1_pasted__Base_0.010",
			"primitives":[
				{
					"attributes":{
						"POSITION":0,
						"NORMAL":1,
						"TEXCOORD_0":2,
						"TEXCOORD_1":3,
						"TEXCOORD_2":4,
						"TEXCOORD_3":5,
						"TEXCOORD_4":6,
						"TEXCOORD_5":7,
						"TEXCOORD_6":8,
						"TEXCOORD_7":9
					},
					"indices":10,
					"material":0
				}
			]
		},
		{
			"name":"polySurface82_FrontColor_0",
			"primitives":[
				{
					"attributes":{
						"POSITION":11,
						"NORMAL":12,
						"TEXCOORD_0":13,
						"TEXCOORD_1":14,
						"TEXCOORD_2":15
					},
					"indices":16,
					"material":1
				}
			]
		},
		{
			"name":"polySurface104_lambert2_0",
			"primitives":[
				{
					"attributes":{
						"POSITION":17,
						"NORMAL":18,
						"TEXCOORD_0":19,
						"TEXCOORD_1":20,
						"TEXCOORD_2":21
					},
					"indices":22,
					"material":2
				}
			]
		},
		{
			"name":"pasted__polySurface1_pasted__Beefy Deefy_0.001",
			"primitives":[
				{
					"attributes":{
						"POSITION":23,
						"NORMAL":24,
						"TEXCOORD_0":25,
						"TEXCOORD_1":26,
						"TEXCOORD_2":27,
						"TEXCOORD_3":28,
						"TEXCOORD_4":29,
						"TEXCOORD_5":30,
						"TEXCOORD_6":31,
						"TEXCOORD_7":32
					},
					"indices":33,
					"material":3
				}
			]
		},
		{
			"name":"pasted__polySurface1_pasted__Rim_0",
			"primitives":[
				{
					"attributes":{
						"POSITION":34,
						"NORMAL":35,
						"TEXCOORD_0":36,
						"TEXCOORD_1":37,
						"TEXCOORD_2":38,
						"TEXCOORD_3":39,
						"TEXCOORD_4":40,
						"TEXCOORD_5":41,
						"TEXCOORD_6":42,
						"TEXCOORD_7":43
					},
					"indices":44,
					"material":4
				}
			]
		},
		{
			"name":"pasted__polySurface1_pasted__GLASS_0",
			"primitives":[
				{
					"attributes":{
						"POSITION":45,
						"NORMAL":46,
						"TEXCOORD_0":47,
						"TEXCOORD_1":48,
						"TEXCOORD_2":49,
						"TEXCOORD_3":50,
						"TEXCOORD_4":51,
						"TEXCOORD_5":52,
						"TEXCOORD_6":53,
						"TEXCOORD_7":54
					},
					"indices":55,
					"material":5
				}
			]
		}
	],
	"textures":[
		{
			"sampler":0,
			"source":0
		},
		{
			"sampler":0,
			"source":1
		},
		{
			"sampler":0,
			"source":2
		},
		{
			"sampler":0,
			"source":3
		},
		{
			"sampler":0,
			"source":4
		},
		{
			"sampler":0,
			"source":5
		},
		{
			"sampler":0,
			"source":6
		},
		{
			"sampler":0,
			"source":7
		},
		{
			"sampler":0,
			"source":8
		},
		{
			"sampler":0,
			"source":9
		},
		{
			"sampler":0,
			"source":10
		},
		{
			"sampler":0,
			"source":11
		},
		{
			"sampler":0,
			"source":12
		},
		{
			"sampler":0,
			"source":13
		},
		{
			"sampler":0,
			"source":14
		},
		{
			"sampler":0,
			"source":15
		},
		{
			"sampler":0,
			"source":16
		},
		{
			"sampler":0,
			"source":17
		},
		{
			"sampler":0,
			"source":18
		},
		{
			"sampler":0,
			"source":19
		},
		{
			"sampler":0,
			"source":20
		},
		{
			"sampler":0,
			"source":21
		},
		{
			"sampler":0,
			"source":22
		}
	],
	"images":[
		{
			"mimeType":"image/png",
			"name":"Image",
			"uri":"texs2/Image.png"
		},
		{
			"mimeType":"image/png",
			"name":"pasted__Base_normal",
			"uri":"texs2/pasted__Base_normal.png"
		},
		{
			"mimeType":"image/png",
			"name":"pasted__Base_diffuse",
			"uri":"texs2/pasted__Base_diffuse.png"
		},
		{
			"mimeType":"image/png",
			"name":"pasted__Base_specularGlossiness",
			"uri":"texs2/pasted__Base_specularGlossiness.png"
		},
		{
			"mimeType":"image/png",
			"name":"Image",
			"uri":"texs2/Image-1.png"
		},
		{
			"mimeType":"image/png",
			"name":"FrontColor_normal",
			"uri":"texs2/FrontColor_normal.png"
		},
		{
			"mimeType":"image/png",
			"name":"FrontColor_occlusion-FrontColor_specularGlossiness",
			"uri":"texs2/FrontColor_occlusion-FrontColor_specularGlossiness.png"
		},
		{
			"mimeType":"image/png",
			"name":"FrontColor_diffuse",
			"uri":"texs2/FrontColor_diffuse.png"
		},
		{
			"mimeType":"image/png",
			"name":"Image",
			"uri":"texs2/Image-2.png"
		},
		{
			"mimeType":"image/png",
			"name":"lambert2_normal",
			"uri":"texs2/lambert2_normal.png"
		},
		{
			"mimeType":"image/png",
			"name":"lambert2_diffuse",
			"uri":"texs2/lambert2_diffuse.png"
		},
		{
			"mimeType":"image/png",
			"name":"lambert2_specularGlossiness",
			"uri":"texs2/lambert2_specularGlossiness.png"
		},
		{
			"mimeType":"image/png",
			"name":"Image",
			"uri":"texs2/Image-3.png"
		},
		{
			"mimeType":"image/png",
			"name":"pasted__Beefy_Deefy_normal",
			"uri":"texs2/pasted__Beefy_Deefy_normal.png"
		},
		{
			"mimeType":"image/png",
			"name":"pasted__Beefy_Deefy_diffuse",
			"uri":"texs2/pasted__Beefy_Deefy_diffuse.png"
		},
		{
			"mimeType":"image/png",
			"name":"pasted__Beefy_Deefy_specularGlossiness",
			"uri":"texs2/pasted__Beefy_Deefy_specularGlossiness.png"
		},
		{
			"mimeType":"image/png",
			"name":"Image",
			"uri":"texs2/Image-4.png"
		},
		{
			"mimeType":"image/png",
			"name":"pasted__Rim_normal",
			"uri":"texs2/pasted__Rim_normal.png"
		},
		{
			"mimeType":"image/png",
			"name":"pasted__Rim_diffuse",
			"uri":"texs2/pasted__Rim_diffuse.png"
		},
		{
			"mimeType":"image/png",
			"name":"pasted__Rim_specularGlossiness",
			"uri":"texs2/pasted__Rim_specularGlossiness.png"
		},
		{
			"mimeType":"image/png",
			"name":"Image",
			"uri":"texs2/Image-5.png"
		},
		{
			"mimeType":"image/png",
			"name":"pasted__GLASS_normal",
			"uri":"texs2/pasted__GLASS_normal.png"
		},
		{
			"mimeType":"image/png",
			"name":"pasted__GLASS_specularGlossiness",
			"uri":"texs2/pasted__GLASS_specularGlossiness.png"
		}
	],
	"accessors":[
		{
			"bufferView":0,
			"componentType":5126,
			"count":1843,
			"max":[
				-0.08799310028553009,
				1.0816391706466675,
				-0.419192910194397
			],
			"min":[
				-0.5371206998825073,
				1.0068821907043457,
				-0.7731058597564697
			],
			"type":"VEC3"
		},
		{
			"bufferView":1,
			"componentType":5126,
			"count":1843,
			"type":"VEC3"
		},
		{
			"bufferView":2,
			"componentType":5126,
			"count":1843,
			"type":"VEC2"
		},
		{
			"bufferView":3,
			"componentType":5126,
			"count":1843,
			"type":"VEC2"
		},
		{
			"bufferView":4,
			"componentType":5126,
			"count":1843,
			"type":"VEC2"
		},
		{
			"bufferView":5,
			"componentType":5126,
			"count":1843,
			"type":"VEC2"
		},
		{
			"bufferView":6,
			"componentType":5126,
			"count":1843,
			"type":"VEC2"
		},
		{
			"bufferView":7,
			"componentType":5126,
			"count":1843,
			"type":"VEC2"
		},
		{
			"bufferView":8,
			"componentType":5126,
			"count":1843,
			"type":"VEC2"
		},
		{
			"bufferView":9,
			"componentType":5126,
			"count":1843,
			"type":"VEC2"
		},
		{
			"bufferView":10,
			"componentType":5123,
			"count":5076,
			"type":"SCALAR"
		},
		{
			"bufferView":11,
			"componentType":5126,
			"count":22523,
			"max":[
				1.3126857280731201,
				1.2735029458999634,
				0.647141695022583
			],
			"min":[
				-1.1135194301605225,
				-0.04426980018615723,
				-1.129183053970337
			],
			"type":"VEC3"
		},
		{
			"bufferView":12,
			"componentType":5126,
			"count":22523,
			"type":"VEC3"
		},
		{
			"bufferView":13,
			"componentType":5126,
			"count":22523,
			"type":"VEC2"
		},
		{
			"bufferView":14,
			"componentType":5126,
			"count":22523,
			"type":"VEC2"
		},
		{
			"bufferView":15,
			"componentType":5126,
			"count":22523,
			"type":"VEC2"
		},
		{
			"bufferView":16,
			"componentType":5123,
			"count":76662,
			"type":"SCALAR"
		},
		{
			"bufferView":17,
			"componentType":5126,
			"count":21629,
			"max":[
				0.15568137168884277,
				1.025234341621399,
				-0.24188607931137085
			],
			"min":[
				-0.7807751893997192,
				-0.03156977891921997,
				-1.0189402103424072
			],
			"type":"VEC3"
		},
		{
			"bufferView":18,
			"componentType":5126,
			"count":21629,
			"type":"VEC3"
		},
		{
			"bufferView":19,
			"componentType":5126,
			"count":21629,
			"type":"VEC2"
		},
		{
			"bufferView":20,
			"componentType":5126,
			"count":21629,
			"type":"VEC2"
		},
		{
			"bufferView":21,
			"componentType":5126,
			"count":21629,
			"type":"VEC2"
		},
		{
			"bufferView":22,
			"componentType":5123,
			"count":102765,
			"type":"SCALAR"
		},
		{
			"bufferView":23,
			"componentType":5126,
			"count":18161,
			"max":[
				-0.2602051794528961,
				1.2808531522750854,
				-0.5310624837875366
			],
			"min":[
				-0.3637074828147888,
				1.1532071828842163,
				-0.6734472513198853
			],
			"type":"VEC3"
		},
		{
			"bufferView":24,
			"componentType":5126,
			"count":18161,
			"type":"VEC3"
		},
		{
			"bufferView":25,
			"componentType":5126,
			"count":18161,
			"type":"VEC2"
		},
		{
			"bufferView":26,
			"componentType":5126,
			"count":18161,
			"type":"VEC2"
		},
		{
			"bufferView":27,
			"componentType":5126,
			"count":18161,
			"type":"VEC2"
		},
		{
			"bufferView":28,
			"componentType":5126,
			"count":18161,
			"type":"VEC2"
		},
		{
			"bufferView":29,
			"componentType":5126,
			"count":18161,
			"type":"VEC2"
		},
		{
			"bufferView":30,
			"componentType":5126,
			"count":18161,
			"type":"VEC2"
		},
		{
			"bufferView":31,
			"componentType":5126,
			"count":18161,
			"type":"VEC2"
		},
		{
			"bufferView":32,
			"componentType":5126,
			"count":18161,
			"type":"VEC2"
		},
		{
			"bufferView":33,
			"componentType":5123,
			"count":81414,
			"type":"SCALAR"
		},
		{
			"bufferView":34,
			"componentType":5126,
			"count":596,
			"max":[
				-0.1449766755104065,
				1.0968133211135864,
				-0.48220294713974
			],
			"min":[
				-0.4801378548145294,
				1.070747971534729,
				-0.7100960612297058
			],
			"type":"VEC3"
		},
		{
			"bufferView":35,
			"componentType":5126,
			"count":596,
			"type":"VEC3"
		},
		{
			"bufferView":36,
			"componentType":5126,
			"count":596,
			"type":"VEC2"
		},
		{
			"bufferView":37,
			"componentType":5126,
			"count":596,
			"type":"VEC2"
		},
		{
			"bufferView":38,
			"componentType":5126,
			"count":596,
			"type":"VEC2"
		},
		{
			"bufferView":39,
			"componentType":5126,
			"count":596,
			"type":"VEC2"
		},
		{
			"bufferView":40,
			"componentType":5126,
			"count":596,
			"type":"VEC2"
		},
		{
			"bufferView":41,
			"componentType":5126,
			"count":596,
			"type":"VEC2"
		},
		{
			"bufferView":42,
			"componentType":5126,
			"count":596,
			"type":"VEC2"
		},
		{
			"bufferView":43,
			"componentType":5126,
			"count":596,
			"type":"VEC2"
		},
		{
			"bufferView":44,
			"componentType":5123,
			"count":2592,
			"type":"SCALAR"
		},
		{
			"bufferView":45,
			"componentType":5126,
			"count":520,
			"max":[
				-0.08799313008785248,
				1.3479870557785034,
				-0.4260827302932739
			],
			"min":[
				-0.5371207594871521,
				1.0711523294448853,
				-0.7662129998207092
			],
			"type":"VEC3"
		},
		{
			"bufferView":46,
			"componentType":5126,
			"count":520,
			"type":"VEC3"
		},
		{
			"bufferView":47,
			"componentType":5126,
			"count":520,
			"type":"VEC2"
		},
		{
			"bufferView":48,
			"componentType":5126,
			"count":520,
			"type":"VEC2"
		},
		{
			"bufferView":49,
			"componentType":5126,
			"count":520,
			"type":"VEC2"
		},
		{
			"bufferView":50,
			"componentType":5126,
			"count":520,
			"type":"VEC2"
		},
		{
			"bufferView":51,
			"componentType":5126,
			"count":520,
			"type":"VEC2"
		},
		{
			"bufferView":52,
			"componentType":5126,
			"count":520,
			"type":"VEC2"
		},
		{
			"bufferView":53,
			"componentType":5126,
			"count":520,
			"type":"VEC2"
		},
		{
			"bufferView":54,
			"componentType":5126,
			"count":520,
			"type":"VEC2"
		},
		{
			"bufferView":55,
			"componentType":5123,
			"count":2658,
			"type":"SCALAR"
		}
	],
	"bufferViews":[
		{
			"buffer":0,
			"byteLength":22116,
			"byteOffset":0,
			"target":34962
		},
		{
			"buffer":0,
			"byteLength":22116,
			"byteOffset":22116,
			"target":34962
		},
		{
			"buffer":0,
			"byteLength":14744,
			"byteOffset":44232,
			"target":34962
		},
		{
			"buffer":0,
			"byteLength":14744,
			"byteOffset":58976,
			"target":34962
		},
		{
			"buffer":0,
			"byteLength":14744,
			"byteOffset":73720,
			"target":34962
		},
		{
			"buffer":0,
			"byteLength":14744,
			"byteOffset":88464,
			"target":34962
		},
		{
			"buffer":0,
			"byteLength":14744,
			"byteOffset":103208,
			"target":34962
		},
		{
			"buffer":0,
			"byteLength":14744,
			"byteOffset":117952,
			"target":34962
		},
		{
			"buffer":0,
			"byteLength":14744,
			"byteOffset":132696,
			"target":34962
		},
		{
			"buffer":0,
			"byteLength":14744,
			"byteOffset":147440,
			"target":34962
		},
		{
			"buffer":0,
			"byteLength":10152,
			"byteOffset":162184,
			"target":34963
		},
		{
			"buffer":0,
			"byteLength":270276,
			"byteOffset":172336,
			"target":34962
		},
		{
			"buffer":0,
			"byteLength":270276,
			"byteOffset":442612,
			"target":34962
		},
		{
			"buffer":0,
			"byteLength":180184,
			"byteOffset":712888,
			"target":34962
		},
		{
			"buffer":0,
			"byteLength":180184,
			"byteOffset":893072,
			"target":34962
		},
		{
			"buffer":0,
			"byteLength":180184,
			"byteOffset":1073256,
			"target":34962
		},
		{
			"buffer":0,
			"byteLength":153324,
			"byteOffset":1253440,
			"target":34963
		},
		{
			"buffer":0,
			"byteLength":259548,
			"byteOffset":1406764,
			"target":34962
		},
		{
			"buffer":0,
			"byteLength":259548,
			"byteOffset":1666312,
			"target":34962
		},
		{
			"buffer":0,
			"byteLength":173032,
			"byteOffset":1925860,
			"target":34962
		},
		{
			"buffer":0,
			"byteLength":173032,
			"byteOffset":2098892,
			"target":34962
		},
		{
			"buffer":0,
			"byteLength":173032,
			"byteOffset":2271924,
			"target":34962
		},
		{
			"buffer":0,
			"byteLength":205530,
			"byteOffset":2444956,
			"target":34963
		},
		{
			"buffer":0,
			"byteLength":217932,
			"byteOffset":2650488,
			"target":34962
		},
		{
			"buffer":0,
			"byteLength":217932,
			"byteOffset":2868420,
			"target":34962
		},
		{
			"buffer":0,
			"byteLength":145288,
			"byteOffset":3086352,
			"target":34962
		},
		{
			"buffer":0,
			"byteLength":145288,
			"byteOffset":3231640,
			"target":34962
		},
		{
			"buffer":0,
			"byteLength":145288,
			"byteOffset":3376928,
			"target":34962
		},
		{
			"buffer":0,
			"byteLength":145288,
			"byteOffset":3522216,
			"target":34962
		},
		{
			"buffer":0,
			"byteLength":145288,
			"byteOffset":3667504,
			"target":34962
		},
		{
			"buffer":0,
			"byteLength":145288,
			"byteOffset":3812792,
			"target":34962
		},
		{
			"buffer":0,
			"byteLength":145288,
			"byteOffset":3958080,
			"target":34962
		},
		{
			"buffer":0,
			"byteLength":145288,
			"byteOffset":4103368,
			"target":34962
		},
		{
			"buffer":0,
			"byteLength":162828,
			"byteOffset":4248656,
			"target":34963
		},
		{
			"buffer":0,
			"byteLength":7152,
			"byteOffset":4411484,
			"target":34962
		},
		{
			"buffer":0,
			"byteLength":7152,
			"byteOffset":4418636,
			"target":34962
		},
		{
			"buffer":0,
			"byteLength":4768,
			"byteOffset":4425788,
			"target":34962
		},
		{
			"buffer":0,
			"byteLength":4768,
			"byteOffset":4430556,
			"target":34962
		},
		{
			"buffer":0,
			"byteLength":4768,
			"byteOffset":4435324,
			"target":34962
		},
		{
			"buffer":0,
			"byteLength":4768,
			"byteOffset":4440092,
			"target":34962
		},
		{
			"buffer":0,
			"byteLength":4768,
			"byteOffset":4444860,
			"target":34962
		},
		{
			"buffer":0,
			"byteLength":4768,
			"byteOffset":4449628,
			"target":34962
		},
		{
			"buffer":0,
			"byteLength":4768,
			"byteOffset":4454396,
			"target":34962
		},
		{
			"buffer":0,
			"byteLength":4768,
			"byteOffset":4459164,
			"target":34962
		},
		{
			"buffer":0,
			"byteLength":5184,
			"byteOffset":4463932,
			"target":34963
		},
		{
			"buffer":0,
			"byteLength":6240,
			"byteOffset":4469116,
			"target":34962
		},
		{
			"buffer":0,
			"byteLength":6240,
			"byteOffset":4475356,
			"target":34962
		},
		{
			"buffer":0,
			"byteLength":4160,
			"byteOffset":4481596,
			"target":34962
		},
		{
			"buffer":0,
			"byteLength":4160,
			"byteOffset":4485756,
			"target":34962
		},
		{
			"buffer":0,
			"byteLength":4160,
			"byteOffset":4489916,
			"target":34962
		},
		{
			"buffer":0,
			"byteLength":4160,
			"byteOffset":4494076,
			"target":34962
		},
		{
			"buffer":0,
			"byteLength":4160,
			"byteOffset":4498236,
			"target":34962
		},
		{
			"buffer":0,
			"byteLength":4160,
			"byteOffset":4502396,
			"target":34962
		},
		{
			"buffer":0,
			"byteLength":4160,
			"byteOffset":4506556,
			"target":34962
		},
		{
			"buffer":0,
			"byteLength":4160,
			"byteOffset":4510716,
			"target":34962
		},
		{
			"buffer":0,
			"byteLength":5316,
			"byteOffset":4514876,
			"target":34963
		}
	],
	"samplers":[
		{
			"magFilter":9729,
			"minFilter":9987
		}
	],
	"buffers":[
		{
			"byteLength":4520192,
			"uri":"angryHamster.bin"
		}
	]
}
