<svg
  xmlns="http://www.w3.org/2000/svg"
  viewBox="0 0 100 100"
  height="1"
  width="1"
>
  <path
    d="M 2.5,37.59722 V 26.38194 L 26.38194,2.5 h 11.21528 z m 0,-25.86111 V 2.5 h 9.23611 z m 69.53472,8.84028 Q 70.71528,19.125 69.19792,17.73958 67.68056,16.35417 66.09722,15.29861 L 78.89583,2.5 h 11.21528 z m -56.34028,45.125 10.15973,-10.15972 q 0.92361,1.45139 1.91319,2.63889 0.98958,1.1875 2.17708,2.24305 -3.69444,0.92361 -7.45486,2.30903 -3.76041,1.38542 -6.79514,2.96875 z M 79.02778,39.70833 v -0.26389 q 0,-2.50694 -0.39584,-4.88194 -0.39583,-2.375 -1.1875,-4.61806 L 97.5,9.88889 V 21.23611 Z M 44.19444,10.94444 52.77083,2.5 h 11.21528 l -8.44444,8.44444 Q 54.09028,10.68056 52.77083,10.54861 51.45139,10.41667 50,10.41667 q -1.45139,0 -2.90278,0.13194 -1.45139,0.13195 -2.90278,0.39583 z M 2.5,63.85417 V 52.63889 l 19,-19 q -0.26389,1.45139 -0.39583,2.90278 -0.13195,1.45139 -0.13195,2.90277 0,1.45139 0.13195,2.77084 0.13194,1.31944 0.39583,2.63889 z M 96.04861,74.80556 Q 94.99306,73.22222 93.60764,71.77083 92.22222,70.31944 90.63889,69.13194 L 97.5,62.27083 V 73.48611 Z M 80.74306,63.98611 Q 79.81944,63.59028 78.89583,63.26042 77.97222,62.93056 77.04861,62.66667 75.86111,62.27083 74.73958,61.875 73.61806,61.47917 72.43056,61.21528 L 97.5,36.01389 V 47.36111 Z M 50,60.55556 q -8.70833,0 -14.90972,-6.20139 -6.20139,-6.20139 -6.20139,-14.90973 0,-8.70833 6.20139,-14.90972 Q 41.29167,18.33333 50,18.33333 q 8.70833,0 14.90972,6.20139 6.20139,6.20139 6.20139,14.90972 0,8.70834 -6.20139,14.90973 Q 58.70833,60.55556 50,60.55556 Z M 50,50 q 4.35417,0 7.45486,-3.10069 3.1007,-3.1007 3.1007,-7.45487 0,-4.35416 -3.1007,-7.45486 Q 54.35417,28.88889 50,28.88889 q -4.35417,0 -7.45486,3.10069 -3.1007,3.1007 -3.1007,7.45486 0,4.35417 3.1007,7.45487 Q 45.64583,50 50,50 Z M 7.77778,92.22222 v -4.09028 q 0,-4.48611 2.24305,-8.3125 2.24306,-3.82638 6.20139,-5.80555 6.72917,-3.43056 15.23959,-5.80556 8.51041,-2.375 18.53819,-2.375 10.02778,0 18.53819,2.375 8.51042,2.375 15.23959,5.80556 3.95833,1.97917 6.20139,5.80555 2.24305,3.82639 2.24305,8.3125 v 4.09028 q 0,2.24306 -1.51736,3.76042 Q 89.1875,97.5 86.94444,97.5 H 13.05556 Q 10.8125,97.5 9.29514,95.98264 7.77778,94.46528 7.77778,92.22222 Z m 10.6875,-5.27778 h 63.06944 q -0.26389,-1.1875 -0.92361,-2.04513 -0.65972,-0.85764 -1.71528,-1.38542 -4.75,-2.375 -12.07291,-4.75 Q 59.5,76.38889 50,76.38889 q -9.5,0 -16.82292,2.375 -7.32291,2.375 -12.07291,4.75 -1.05556,0.52778 -1.71528,1.45139 -0.65972,0.92361 -0.92361,1.97916 z m 31.53472,0 z m 0,-47.5 z"
    style="stroke-width:0.131944" 
  />
</svg>
