<svg
  xmlns="http://www.w3.org/2000/svg"
  viewBox="0 0 8.4666665 8.4666666"
  width="1px"
  height="1px"
>
  <path
    d="m 1.4257168,5.1310426 0.7851606,0.784738 -4.372e-4,-0.7851088 z m -5e-5,-2.5890227 v 2.4164546 0.1708 L 2.2158661,5.9201383 H 2.4823673 7.036148 V 4.7424822 a 2.3718405,2.1969058 0 0 0 0,-6.646e-4 2.3718405,2.1969058 0 0 0 0,-6.644e-4 2.3718405,2.1969058 0 0 0 0,-6.646e-4 2.3718405,2.1969058 0 0 0 0,-6.647e-4 2.3718405,2.1969058 0 0 0 -2.3719271,-2.1971393 2.3718405,2.1969058 0 0 0 -0.002,0 V 2.5420199 Z M 1.0452881,2.1608049 V 6.3058618 H 7.4213786 V 4.8603756 a 2.695588,2.695588 0 0 0 0,-0.00331 2.695588,2.695588 0 0 0 -2.695583,-2.6955829 2.695588,2.695588 0 0 0 -0.002,0 v -6.646e-4 z" 
    style="fill:none;stroke:white;stroke-width:0.255202;stroke-linecap:round;stroke-linejoin:round;"
  />
</svg>
