<svg
  xmlns="http://www.w3.org/2000/svg"
  viewBox="0 0 8.4666665 8.4666666"
  width="1px"
  height="1px"
>
  <path
    id="tintColorPath"
    d="M 1.4257528 2.5419637 L 1.4257528 4.9583537 L 1.4257528 5.1294027 L 1.4273031 5.130953 L 2.210201 5.1304362 L 2.2107178 5.9148844 L 2.2158854 5.9200521 L 2.4825358 5.9200521 L 7.036263 5.9200521 L 7.036263 4.7423462 A 2.3718405 2.1969058 0 0 0 7.036263 4.7418294 A 2.3718405 2.1969058 0 0 0 7.036263 4.7413127 A 2.3718405 2.1969058 0 0 0 7.036263 4.7407959 A 2.3718405 2.1969058 0 0 0 7.036263 4.7402791 A 2.3718405 2.1969058 0 0 0 7.036263 4.7397624 A 2.3718405 2.1969058 0 0 0 4.6643148 2.5424805 A 2.3718405 2.1969058 0 0 0 4.6622477 2.5424805 L 4.6622477 2.5419637 L 1.4257528 2.5419637 z" 
    style="stroke:white;stroke-width:0.255202;stroke-linecap:round;stroke-linejoin:round;"
  />
  <path
    d="M 1.4227569,5.1286893 2.2079175,5.9134273 2.2074803,5.1283185 Z M 1.0452881,2.1608049 V 6.3058618 H 7.4213786 V 4.8603756 a 2.695588,2.695588 0 0 0 0,-0.00331 2.695588,2.695588 0 0 0 -2.695583,-2.6955829 2.695588,2.695588 0 0 0 -0.002,0 v -6.646e-4 z" 
    style="fill:none;stroke:white;stroke-width:0.255202;stroke-linecap:round;stroke-linejoin:round;"
  />
</svg>
