{
	"asset":{
		"generator":"Khronos glTF Blender I/O v3.6.27",
		"version":"2.0"
	},
	"scene":0,
	"scenes":[
		{
			"name":"Scene",
			"nodes":[
				0
			]
		}
	],
	"nodes":[
		{
			"mesh":0,
			"name":"bird2"
		}
	],
	"materials":[
		{
			"doubleSided":true,
			"name":"bird2.001",
			"pbrMetallicRoughness":{
				"baseColorTexture":{
					"index":0
				},
				"metallicFactor":0,
				"roughnessFactor":0.6000000238418579
			}
		}
	],
	"meshes":[
		{
			"name":"Object_0.003",
			"primitives":[
				{
					"attributes":{
						"POSITION":0,
						"NORMAL":1,
						"TEXCOORD_0":2
					},
					"indices":3,
					"material":0
				}
			]
		}
	],
	"textures":[
		{
			"sampler":0,
			"source":0
		}
	],
	"images":[
		{
			"mimeType":"image/jpeg",
			"name":"bird2_baseColor",
			"uri":"texs/bird2_baseColor.jpg"
		}
	],
	"accessors":[
		{
			"bufferView":0,
			"componentType":5126,
			"count":11409,
			"max":[
				0.3198885917663574,
				0.5401843190193176,
				0.40702760219573975
			],
			"min":[
				-0.7352986931800842,
				-0.44416818022727966,
				-0.3177834749221802
			],
			"type":"VEC3"
		},
		{
			"bufferView":1,
			"componentType":5126,
			"count":11409,
			"type":"VEC3"
		},
		{
			"bufferView":2,
			"componentType":5126,
			"count":11409,
			"type":"VEC2"
		},
		{
			"bufferView":3,
			"componentType":5123,
			"count":61569,
			"type":"SCALAR"
		}
	],
	"bufferViews":[
		{
			"buffer":0,
			"byteLength":136908,
			"byteOffset":0,
			"target":34962
		},
		{
			"buffer":0,
			"byteLength":136908,
			"byteOffset":136908,
			"target":34962
		},
		{
			"buffer":0,
			"byteLength":91272,
			"byteOffset":273816,
			"target":34962
		},
		{
			"buffer":0,
			"byteLength":123138,
			"byteOffset":365088,
			"target":34963
		}
	],
	"samplers":[
		{
			"magFilter":9729,
			"minFilter":9987
		}
	],
	"buffers":[
		{
			"byteLength":488228,
			"uri":"bird2.bin"
		}
	]
}
