{
  "accessors": [
    {
      "bufferView": 2,
      "componentType": 5126,
      "count": 40783,
      "max": [
        11.928449630737305,
        7.170921802520752,
        22.332990646362305
      ],
      "min": [
        -12.971232414245605,
        -13.84097671508789,
        -6.664585113525391
      ],
      "type": "VEC3"
    },
    {
      "bufferView": 2,
      "byteOffset": 489396,
      "componentType": 5126,
      "count": 40783,
      "max": [
        0.999815821647644,
        0.9999629259109497,
        0.999983012676239
      ],
      "min": [
        -0.9999683499336243,
        -0.999981701374054,
        -0.9994735717773438
      ],
      "type": "VEC3"
    },
    {
      "bufferView": 1,
      "componentType": 5126,
      "count": 40783,
      "max": [
        0.9978700280189514,
        0.9994609951972961
      ],
      "min": [
        0.002145000034943223,
        0.001972000114619732
      ],
      "type": "VEC2"
    },
    {
      "bufferView": 0,
      "componentType": 5125,
      "count": 214326,
      "type": "SCALAR"
    }
  ],
  "asset": {
    "extras": {
      "author": "Xenio (https://sketchfab.com/xenio3d)",
      "license": "CC-BY-4.0 (http://creativecommons.org/licenses/by/4.0/)",
      "source": "https://sketchfab.com/3d-models/bird-702f93b8e9ea46b6a8e97eb1c1534b53",
      "title": "Bird"
    },
    "generator": "Sketchfab-12.63.0",
    "version": "2.0"
  },
  "bufferViews": [
    {
      "buffer": 0,
      "byteLength": 857304,
      "name": "floatBufferViews",
      "target": 34963
    },
    {
      "buffer": 0,
      "byteLength": 326264,
      "byteOffset": 857304,
      "byteStride": 8,
      "name": "floatBufferViews",
      "target": 34962
    },
    {
      "buffer": 0,
      "byteLength": 978792,
      "byteOffset": 1183568,
      "byteStride": 12,
      "name": "floatBufferViews",
      "target": 34962
    }
  ],
  "buffers": [
    {
      "byteLength": 2162360,
      "uri": "scene.bin"
    }
  ],
  "images": [
    {
      "uri": "textures/bird2_baseColor.jpeg"
    }
  ],
  "materials": [
    {
      "doubleSided": true,
      "name": "bird2",
      "pbrMetallicRoughness": {
        "baseColorTexture": {
          "index": 0
        },
        "metallicFactor": 0.0,
        "roughnessFactor": 0.6
      }
    }
  ],
  "meshes": [
    {
      "name": "Object_0",
      "primitives": [
        {
          "attributes": {
            "NORMAL": 1,
            "POSITION": 0,
            "TEXCOORD_0": 2
          },
          "indices": 3,
          "material": 0,
          "mode": 4
        }
      ]
    }
  ],
  "nodes": [
    {
      "children": [
        1
      ],
      "matrix": [
        1.0,
        0.0,
        0.0,
        0.0,
        0.0,
        2.220446049250313e-16,
        -1.0,
        0.0,
        0.0,
        1.0,
        2.220446049250313e-16,
        0.0,
        0.0,
        0.0,
        0.0,
        1.0
      ],
      "name": "Sketchfab_model"
    },
    {
      "children": [
        2
      ],
      "name": "Bird03.obj.cleaner"
    },
    {
      "mesh": 0,
      "name": "Object_2"
    }
  ],
  "samplers": [
    {
      "magFilter": 9729,
      "minFilter": 9987,
      "wrapS": 10497,
      "wrapT": 10497
    }
  ],
  "scene": 0,
  "scenes": [
    {
      "name": "Sketchfab_Scene",
      "nodes": [
        0
      ]
    }
  ],
  "textures": [
    {
      "sampler": 0,
      "source": 0
    }
  ]
}
