{
	"asset":{
		"generator":"Khronos glTF Blender I/O v3.6.27",
		"version":"2.0"
	},
	"scene":0,
	"scenes":[
		{
			"name":"Scene",
			"nodes":[
				0
			]
		}
	],
	"nodes":[
		{
			"mesh":0,
			"name":"bird2",
			"rotation":[
				-0.100055992603302,
				-0.7146360278129578,
				-0.6766541004180908,
				0.14636759459972382
			],
			"scale":[
				0.06646338850259781,
				0.06646338105201721,
				0.06646338105201721
			]
		}
	],
	"materials":[
		{
			"doubleSided":true,
			"name":"bird2.001",
			"pbrMetallicRoughness":{
				"baseColorTexture":{
					"index":0
				},
				"metallicFactor":0,
				"roughnessFactor":0.6000000238418579
			}
		}
	],
	"meshes":[
		{
			"name":"Object_0.003",
			"primitives":[
				{
					"attributes":{
						"POSITION":0,
						"NORMAL":1,
						"TEXCOORD_0":2
					},
					"indices":3,
					"material":0
				}
			]
		}
	],
	"textures":[
		{
			"sampler":0,
			"source":0
		}
	],
	"images":[
		{
			"mimeType":"image/jpeg",
			"name":"bird2_baseColor",
			"uri":"texs2/bird2_baseColor.jpg"
		}
	],
	"accessors":[
		{
			"bufferView":0,
			"componentType":5126,
			"count":40808,
			"max":[
				13.010619163513184,
				9.823668479919434,
				18.408945083618164
			],
			"min":[
				-11.889062881469727,
				-11.188230514526367,
				-10.588630676269531
			],
			"type":"VEC3"
		},
		{
			"bufferView":1,
			"componentType":5126,
			"count":40808,
			"type":"VEC3"
		},
		{
			"bufferView":2,
			"componentType":5126,
			"count":40808,
			"type":"VEC2"
		},
		{
			"bufferView":3,
			"componentType":5123,
			"count":214326,
			"type":"SCALAR"
		}
	],
	"bufferViews":[
		{
			"buffer":0,
			"byteLength":489696,
			"byteOffset":0,
			"target":34962
		},
		{
			"buffer":0,
			"byteLength":489696,
			"byteOffset":489696,
			"target":34962
		},
		{
			"buffer":0,
			"byteLength":326464,
			"byteOffset":979392,
			"target":34962
		},
		{
			"buffer":0,
			"byteLength":428652,
			"byteOffset":1305856,
			"target":34963
		}
	],
	"samplers":[
		{
			"magFilter":9729,
			"minFilter":9987
		}
	],
	"buffers":[
		{
			"byteLength":1734508,
			"uri":"scene.bin"
		}
	]
}
