{
	"asset":{
		"generator":"Khronos glTF Blender I/O v3.6.27",
		"version":"2.0"
	},
	"extensionsUsed":[
		"KHR_materials_specular",
		"KHR_materials_ior"
	],
	"scene":0,
	"scenes":[
		{
			"name":"Scene",
			"nodes":[
				0
			]
		}
	],
	"nodes":[
		{
			"mesh":0,
			"name":"spinosaurus"
		}
	],
	"materials":[
		{
			"doubleSided":true,
			"extensions":{
				"KHR_materials_specular":{
					"specularColorTexture":{
						"index":0
					},
					"specularColorFactor":[
						2.3620583147143557,
						2.3620583147143557,
						2.3620583147143557
					]
				},
				"KHR_materials_ior":{
					"ior":1.4500000476837158
				}
			},
			"name":"Material.008",
			"pbrMetallicRoughness":{
				"baseColorTexture":{
					"index":1
				},
				"metallicFactor":0,
				"metallicRoughnessTexture":{
					"index":2
				}
			}
		}
	],
	"meshes":[
		{
			"name":"su101.007",
			"primitives":[
				{
					"attributes":{
						"POSITION":0,
						"NORMAL":1,
						"TEXCOORD_0":2
					},
					"indices":3,
					"material":0
				}
			]
		}
	],
	"textures":[
		{
			"sampler":0,
			"source":0
		},
		{
			"sampler":0,
			"source":1
		},
		{
			"sampler":0,
			"source":2
		}
	],
	"images":[
		{
			"mimeType":"image/png",
			"name":"Image",
			"uri":"texs/Image.png"
		},
		{
			"mimeType":"image/png",
			"name":"Material_diffuse",
			"uri":"texs/Material_diffuse.png"
		},
		{
			"mimeType":"image/png",
			"name":"Material_diffuse",
			"uri":"texs/Material_diffuse-1.png"
		}
	],
	"accessors":[
		{
			"bufferView":0,
			"componentType":5126,
			"count":67111,
			"max":[
				0.3958514630794525,
				1.3847700357437134,
				1.4985443353652954
			],
			"min":[
				-0.403428316116333,
				0.0010845661163330078,
				-1.502179503440857
			],
			"type":"VEC3"
		},
		{
			"bufferView":1,
			"componentType":5126,
			"count":67111,
			"type":"VEC3"
		},
		{
			"bufferView":2,
			"componentType":5126,
			"count":67111,
			"type":"VEC2"
		},
		{
			"bufferView":3,
			"componentType":5125,
			"count":286812,
			"type":"SCALAR"
		}
	],
	"bufferViews":[
		{
			"buffer":0,
			"byteLength":805332,
			"byteOffset":0,
			"target":34962
		},
		{
			"buffer":0,
			"byteLength":805332,
			"byteOffset":805332,
			"target":34962
		},
		{
			"buffer":0,
			"byteLength":536888,
			"byteOffset":1610664,
			"target":34962
		},
		{
			"buffer":0,
			"byteLength":1147248,
			"byteOffset":2147552,
			"target":34963
		}
	],
	"samplers":[
		{
			"magFilter":9729,
			"minFilter":9987
		}
	],
	"buffers":[
		{
			"byteLength":3294800,
			"uri":"spinosaurus.bin"
		}
	]
}
