<svg
  xmlns="http://www.w3.org/2000/svg"
  viewBox="0 0 100 100"
  height="1"
  width="1"
>
  <g id="g3">
    <path
  		d="M 26.52733,56.817794 50,70.359714 73.47267,56.817794 54.51398,45.871404 v 15.46036 h -9.02795 v -15.46036 z m 18.9587,-21.32854 v -1.91844 c 6.01281,-0.004 4.13733,-0.0636 9.02795,0 v 1.91844 l 31.59782,18.16875 c 1.42943,0.82757 2.53911,1.93725 3.32906,3.32906 0.78994,1.39181 1.18492,2.91528 1.18492,4.5704 v 8.57655 c 0,1.65513 -0.39498,3.17859 -1.18492,4.5704 -0.78995,1.39181 -1.89963,2.5015 -3.32906,3.32906 l -31.59782,18.16875 c -1.42943,0.82756 -2.93409,1.24134 -4.51398,1.24134 -1.57989,0 -3.08455,-0.41378 -4.51397,-1.24134 L 13.8882,78.033474 c -1.42943,-0.82756 -2.53911,-1.93725 -3.32906,-3.32906 -0.78994,-1.39181 -1.18492,-2.91527 -1.18492,-4.5704 v -8.57655 c 0,-1.65512 0.39498,-3.17859 1.18492,-4.5704 0.78995,-1.39181 1.89963,-2.50149 3.32906,-3.32906 z m 0,42.65707 -27.08385,-15.57322 v 7.56091 L 50,88.415614 81.59783,70.134014 v -7.56091 l -27.08385,15.57322 c -1.42943,0.82756 -2.93409,1.24134 -4.51398,1.24134 -1.57989,0 -3.08455,-0.41378 -4.51397,-1.24134 z"
  		style="stroke-width:0.112849" 
			id="joystickBottom"
		/>
    <ellipse
       cx="50.000004"
       cy="18.398232"
       rx="11.40603"
       ry="11.33832" 
       style="stroke-width:9.1198"
       id="joystickTop"
		/>
  </g>
</svg>
