{
	"asset":{
		"generator":"Khronos glTF Blender I/O v3.6.27",
		"version":"2.0"
	},
	"extensionsUsed":[
		"KHR_materials_specular"
	],
	"scene":0,
	"scenes":[
		{
			"name":"Scene",
			"nodes":[
				0
			]
		}
	],
	"nodes":[
		{
			"mesh":0,
			"name":"hardHat"
		}
	],
	"materials":[
		{
			"doubleSided":true,
			"extensions":{
				"KHR_materials_specular":{
					"specularColorTexture":{
						"index":0
					}
				}
			},
			"name":"blinn2SG",
			"normalTexture":{
				"index":1
			},
			"pbrMetallicRoughness":{
				"baseColorTexture":{
					"index":2
				},
				"metallicRoughnessTexture":{
					"index":3
				}
			}
		}
	],
	"meshes":[
		{
			"name":"Object_1.002",
			"primitives":[
				{
					"attributes":{
						"POSITION":0,
						"NORMAL":1,
						"TEXCOORD_0":2
					},
					"indices":3,
					"material":0
				}
			]
		}
	],
	"textures":[
		{
			"sampler":0,
			"source":0
		},
		{
			"sampler":0,
			"source":1
		},
		{
			"sampler":0,
			"source":2
		},
		{
			"sampler":0,
			"source":3
		}
	],
	"images":[
		{
			"mimeType":"image/png",
			"name":"Image",
			"uri":"texs2/Image.png"
		},
		{
			"mimeType":"image/png",
			"name":"blinn2SG_normal",
			"uri":"texs2/blinn2SG_normal.png"
		},
		{
			"mimeType":"image/png",
			"name":"blinn2SG_baseColor",
			"uri":"texs2/blinn2SG_baseColor.png"
		},
		{
			"mimeType":"image/png",
			"name":"blinn2SG_metallicRoughness",
			"uri":"texs2/blinn2SG_metallicRoughness.png"
		}
	],
	"accessors":[
		{
			"bufferView":0,
			"componentType":5126,
			"count":1274,
			"max":[
				0.6147617101669312,
				0.4058964252471924,
				0.7223399877548218
			],
			"min":[
				-0.6147433519363403,
				-0.3547462821006775,
				-0.9297974109649658
			],
			"type":"VEC3"
		},
		{
			"bufferView":1,
			"componentType":5126,
			"count":1274,
			"type":"VEC3"
		},
		{
			"bufferView":2,
			"componentType":5126,
			"count":1274,
			"type":"VEC2"
		},
		{
			"bufferView":3,
			"componentType":5123,
			"count":5973,
			"type":"SCALAR"
		}
	],
	"bufferViews":[
		{
			"buffer":0,
			"byteLength":15288,
			"byteOffset":0,
			"target":34962
		},
		{
			"buffer":0,
			"byteLength":15288,
			"byteOffset":15288,
			"target":34962
		},
		{
			"buffer":0,
			"byteLength":10192,
			"byteOffset":30576,
			"target":34962
		},
		{
			"buffer":0,
			"byteLength":11946,
			"byteOffset":40768,
			"target":34963
		}
	],
	"samplers":[
		{
			"magFilter":9729,
			"minFilter":9987
		}
	],
	"buffers":[
		{
			"byteLength":52716,
			"uri":"hardHat.bin"
		}
	]
}
