<svg
  xmlns="http://www.w3.org/2000/svg"
  viewBox="0 0 100 100"
  height="1"
  width="1"
>
  <path
    d="M 50,97.5 Q 40.14375,97.5 31.475,93.75937 22.80625,90.01875 16.39375,83.60625 9.98125,77.19375 6.240625,68.525 2.5,59.85625 2.5,50 2.5,40.14375 6.240625,31.475 9.98125,22.80625 16.39375,16.39375 22.80625,9.98125 31.475,6.24062 40.14375,2.5 50,2.5 q 9.85625,0 18.525,3.74062 8.66875,3.74063 15.08125,10.15313 6.4125,6.4125 10.15312,15.08125 Q 97.5,40.14375 97.5,50 97.5,59.85625 93.75937,68.525 90.01875,77.19375 83.60625,83.60625 77.19375,90.01875 68.525,93.75937 59.85625,97.5 50,97.5 Z M 50,88 Q 65.79375,88 76.89687,76.89687 88,65.79375 88,50 88,34.20625 76.89687,23.10312 65.79375,12 50,12 34.20625,12 23.10313,23.10312 12,34.20625 12,50 12,65.79375 23.10313,76.89687 34.20625,88 50,88 Z M 66.625,50 q 2.96875,0 5.04687,-2.07813 Q 73.75,45.84375 73.75,42.875 73.75,41.09375 72.91875,39.49062 72.0875,37.8875 70.6625,36.9375 l 1.06875,-0.59375 q 0.95,-0.59375 1.1875,-1.48438 0.2375,-0.89062 -0.35625,-1.84062 -0.59375,-0.95 -1.425,-1.1875 -0.83125,-0.2375 -1.78125,0.35625 l -12.5875,7.125 q -0.95,0.475 -1.12813,1.36562 -0.17812,0.89063 0.29688,1.84063 0.59375,0.95 1.48437,1.24687 0.89063,0.29688 1.84063,-0.29687 L 59.5,43.35 Q 59.7375,46.2 61.75625,48.1 63.775,50 66.625,50 Z m -33.25,0 q 2.85,0 4.86875,-1.9 Q 40.2625,46.2 40.5,43.35 l 0.2375,0.11875 q 0.95,0.59375 1.84063,0.35625 0.89062,-0.2375 1.48437,-1.1875 0.475,-0.95 0.2375,-1.84063 -0.2375,-0.89062 -1.1875,-1.48437 l -12.46875,-7.125 q -0.95,-0.475 -1.78125,-0.2375 -0.83125,0.2375 -1.425,1.1875 -0.59375,0.95 -0.35625,1.78125 0.2375,0.83125 1.1875,1.425 l 1.06875,0.59375 q -1.425,0.95 -2.25625,2.55312 Q 26.25,41.09375 26.25,42.875 q 0,2.96875 2.07813,5.04687 Q 30.40625,50 33.375,50 Z M 50,54.75 q -8.43125,0 -14.84375,5.40312 -6.4125,5.40313 -9.025,13.59688 h 47.7375 Q 71.25625,65.55625 64.84375,60.15312 58.43125,54.75 50,54.75 Z M 50,50 Z"
    style="stroke-width:0.11875" 
	/>
</svg>
