<svg
  xmlns="http://www.w3.org/2000/svg"
  viewBox="0 0 100 100"
  height="1"
  width="1"
>
  <path
    d="m 63.19444,48.68056 q -2.77083,0 -4.68402,-1.9132 -1.9132,-1.91319 -1.9132,-4.68403 0,-2.77083 1.9132,-4.68402 1.91319,-1.9132 4.68402,-1.9132 2.77084,0 4.68403,1.9132 1.9132,1.91319 1.9132,4.68402 0,2.77084 -1.9132,4.68403 -1.91319,1.9132 -4.68403,1.9132 z m -26.38888,0 q -2.77084,0 -4.68403,-1.9132 -1.9132,-1.91319 -1.9132,-4.68403 0,-2.77083 1.9132,-4.68402 1.91319,-1.9132 4.68403,-1.9132 2.77083,0 4.68402,1.9132 1.9132,1.91319 1.9132,4.68402 0,2.77084 -1.9132,4.68403 -1.91319,1.9132 -4.68402,1.9132 z M 50,76.38889 q -7.91667,0 -14.31597,-4.35417 Q 29.28472,67.68056 26.25,60.55556 h 47.5 q -3.03472,7.125 -9.43403,11.47916 Q 57.91667,76.38889 50,76.38889 Z M 50,97.5 Q 40.10417,97.5 31.46181,93.73958 22.81944,89.97917 16.42014,83.57986 10.02083,77.18056 6.26042,68.53819 2.5,59.89583 2.5,50 2.5,40.10417 6.26042,31.46181 10.02083,22.81944 16.42014,16.42014 22.81944,10.02083 31.46181,6.26042 40.10417,2.5 50,2.5 q 9.89583,0 18.53819,3.76042 8.64237,3.76041 15.04167,10.15972 6.39931,6.3993 10.15972,15.04167 Q 97.5,40.10417 97.5,50 q 0,9.89583 -3.76042,18.53819 -3.76041,8.64237 -10.15972,15.04167 -6.3993,6.39931 -15.04167,10.15972 Q 59.89583,97.5 50,97.5 Z m 0,-10.55556 q 15.30556,0 26.125,-10.81944 Q 86.94444,65.30556 86.94444,50 86.94444,34.69444 76.125,23.875 65.30556,13.05556 50,13.05556 h -1.58333 q -0.79167,0 -1.58334,0.26388 -0.79166,0.79167 -1.05555,1.71528 -0.26389,0.92361 -0.26389,1.97917 0,2.77083 1.91319,4.68403 1.9132,1.91319 4.68403,1.91319 1.1875,0 2.17708,-0.39583 0.98959,-0.39584 2.04514,-0.39584 1.58334,0 2.63889,1.1875 1.05556,1.1875 1.05556,2.77084 0,3.03472 -2.83681,3.89236 -2.8368,0.85764 -5.07986,0.85764 -5.9375,0 -10.22569,-4.2882 -4.2882,-4.28819 -4.2882,-10.22569 v -0.79167 q 0,-0.39583 0.13195,-1.05555 Q 26.77778,19.125 19.91667,28.49306 13.05556,37.86111 13.05556,50 q 0,15.30556 10.81944,26.125 Q 34.69444,86.94444 50,86.94444 Z M 50,50 Z"
    style="stroke-width:0.131944" 
	/>
</svg>
