<svg
  xmlns="http://www.w3.org/2000/svg"
  viewBox="0 0 100 100"
  height="1"
  width="1"
>
  <path
    d="m 66.625,45.25 q 2.96875,0 5.04687,-2.07813 Q 73.75,41.09375 73.75,38.125 73.75,35.15625 71.67187,33.07812 69.59375,31 66.625,31 63.65625,31 61.57812,33.07812 59.5,35.15625 59.5,38.125 q 0,2.96875 2.07812,5.04687 Q 63.65625,45.25 66.625,45.25 Z m -33.25,0 q 2.96875,0 5.04688,-2.07813 Q 40.5,41.09375 40.5,38.125 40.5,35.15625 38.42188,33.07812 36.34375,31 33.375,31 30.40625,31 28.32813,33.07812 26.25,35.15625 26.25,38.125 q 0,2.96875 2.07813,5.04687 Q 30.40625,45.25 33.375,45.25 Z M 50,97.5 Q 40.14375,97.5 31.475,93.75937 22.80625,90.01875 16.39375,83.60625 9.98125,77.19375 6.240625,68.525 2.5,59.85625 2.5,50 2.5,40.14375 6.240625,31.475 9.98125,22.80625 16.39375,16.39375 22.80625,9.98125 31.475,6.24062 40.14375,2.5 50,2.5 q 9.85625,0 18.525,3.74062 8.66875,3.74063 15.08125,10.15313 6.4125,6.4125 10.15312,15.08125 Q 97.5,40.14375 97.5,50 97.5,59.85625 93.75937,68.525 90.01875,77.19375 83.60625,83.60625 77.19375,90.01875 68.525,93.75937 59.85625,97.5 50,97.5 Z M 50,50 Z m 0,38 Q 65.9125,88 76.95625,76.95625 88,65.9125 88,50 88,34.0875 76.95625,23.04375 65.9125,12 50,12 34.0875,12 23.04375,23.04375 12,34.0875 12,50 12,65.9125 23.04375,76.95625 34.0875,88 50,88 Z m 0,-30.875 q -6.76875,0 -12.70625,3.325 -5.9375,3.325 -9.5,9.14375 -0.7125,1.425 0.11875,2.79062 Q 28.74375,73.75 30.40625,73.75 H 69.475 q 1.6625,0 2.49375,-1.36563 Q 72.8,71.01875 72.0875,69.59375 68.525,63.775 62.64687,60.45 56.76875,57.125 50,57.125 Z"
    style="stroke-width:0.11875" 
	/>
</svg>
