<svg
  xmlns="http://www.w3.org/2000/svg"
  viewBox="0 0 100 100"
  height="1"
  width="1"
>
  <path
    d="m 71.11111,79.02778 q 3.29861,0 5.60764,-2.30903 2.30903,-2.30903 2.30903,-5.60764 0,-3.29861 -2.30903,-5.60764 -2.30903,-2.30903 -5.60764,-2.30903 -3.29861,0 -5.60764,2.30903 -2.30903,2.30903 -2.30903,5.60764 0,3.29861 2.30903,5.60764 2.30903,2.30903 5.60764,2.30903 z M 50,57.91667 q 3.29861,0 5.60764,-2.30903 2.30903,-2.30903 2.30903,-5.60764 0,-3.29861 -2.30903,-5.60764 Q 53.29861,42.08333 50,42.08333 q -3.29861,0 -5.60764,2.30903 -2.30903,2.30903 -2.30903,5.60764 0,3.29861 2.30903,5.60764 Q 46.70139,57.91667 50,57.91667 Z M 28.88889,36.80556 q 3.29861,0 5.60764,-2.30903 2.30903,-2.30903 2.30903,-5.60764 0,-3.29861 -2.30903,-5.60764 -2.30903,-2.30903 -5.60764,-2.30903 -3.29861,0 -5.60764,2.30903 -2.30903,2.30903 -2.30903,5.60764 0,3.29861 2.30903,5.60764 2.30903,2.30903 5.60764,2.30903 z M 13.05556,97.5 Q 8.70139,97.5 5.60069,94.39931 2.5,91.29861 2.5,86.94444 V 13.05556 Q 2.5,8.70139 5.60069,5.60069 8.70139,2.5 13.05556,2.5 h 73.88888 q 4.35417,0 7.45487,3.10069 Q 97.5,8.70139 97.5,13.05556 v 73.88888 q 0,4.35417 -3.10069,7.45487 Q 91.29861,97.5 86.94444,97.5 Z m 0,-10.55556 H 86.94444 V 13.05556 H 13.05556 Z m 0,-73.88888 v 73.88888 z"
    style="stroke-width:0.131944" 
	/>
</svg>
