<svg
  xmlns="http://www.w3.org/2000/svg"
  viewBox="0 0 100 100"
  height="1"
  width="1"
  fill="#f2f2f2"
  stroke="#f2f2f2"
>
  <path
    d="m 39.44444,81.66667 q -15.4375,0 -26.19097,-10.75348 Q 2.5,60.15972 2.5,44.72222 V 13.05556 Q 2.5,8.70139 5.60069,5.60069 8.70139,2.5 13.05556,2.5 h 65.97222 q 7.65278,0 13.0625,5.40972 5.40972,5.40972 5.40972,13.0625 0,7.65278 -5.40972,13.0625 -5.40972,5.40972 -13.0625,5.40972 h -2.63889 v 5.27778 q 0,15.4375 -10.75347,26.19097 Q 54.88194,81.66667 39.44444,81.66667 Z M 13.05556,28.88889 H 65.83333 V 13.05556 H 13.05556 Z m 26.38888,42.22222 q 10.95139,0 18.67014,-7.71875 7.71875,-7.71875 7.71875,-18.67014 V 39.44444 H 13.05556 v 5.27778 q 0,10.95139 7.71875,18.67014 7.71875,7.71875 18.67013,7.71875 z M 76.38889,28.88889 h 2.63889 q 3.29861,0 5.60764,-2.30903 2.30902,-2.30903 2.30902,-5.60764 0,-3.29861 -2.30902,-5.60764 -2.30903,-2.30902 -5.60764,-2.30902 H 76.38889 Z M 7.77778,97.5 Q 5.53472,97.5 4.01736,95.98264 2.5,94.46528 2.5,92.22222 q 0,-2.24305 1.51736,-3.76041 1.51736,-1.51737 3.76042,-1.51737 h 73.88889 q 2.24305,0 3.76041,1.51737 1.51736,1.51736 1.51736,3.76041 0,2.24306 -1.51736,3.76042 Q 83.90972,97.5 81.66667,97.5 Z M 39.44444,39.44444 Z"
    style="stroke-width:0.131944" 
	/>
</svg>
