<svg
  xmlns="http://www.w3.org/2000/svg"
  viewBox="0 0 100 100"
  height="1"
  width="1"
>
  <path
    d="m 35.275,45.0125 2.49375,2.6125 q 0.95,0.95 2.43438,0.95 1.48437,0 2.55312,-1.06875 0.95,-0.95 0.95,-2.43438 0,-1.48437 -0.95,-2.55312 L 40.2625,40.025 42.875,37.29375 q 0.95,-0.95 0.89063,-2.43438 -0.0594,-1.48437 -1.00938,-2.55312 -1.06875,-0.95 -2.55312,-0.95 -1.48438,0 -2.43438,0.95 L 35.275,34.8 32.425,32.1875 q -0.95,-0.95 -2.43438,-0.89063 -1.48437,0.0594 -2.55312,1.12813 -0.95,0.95 -1.00938,2.43437 -0.0594,1.48438 1.00938,2.43438 L 30.05,40.025 27.4375,42.6375 q -0.95,0.95 -0.95,2.43437 0,1.48438 1.06875,2.55313 0.95,0.95 2.43437,1.00937 1.48438,0.0594 2.43438,-1.00937 z m 29.45,0 2.73125,2.73125 q 0.95,0.95 2.43437,0.89062 1.48438,-0.0594 2.55313,-1.12812 0.95,-0.95 0.95,-2.43438 0,-1.48437 -0.95,-2.55312 L 69.95,40.025 72.5625,37.29375 q 0.95,-0.95 0.89062,-2.43438 -0.0594,-1.48437 -1.12812,-2.55312 -0.95,-0.95 -2.43438,-1.00938 -1.48437,-0.0594 -2.43437,1.00938 L 64.725,34.8 62.1125,32.30625 q -0.95,-0.95 -2.43438,-0.95 -1.48437,0 -2.55312,1.06875 -0.95,0.95 -1.00938,2.43437 -0.0594,1.48438 1.00938,2.43438 l 2.6125,2.73125 -2.6125,2.6125 q -0.95,0.95 -0.95,2.43437 0,1.48438 1.06875,2.43438 0.95,1.06875 2.43437,1.06875 1.48438,0 2.55313,-1.06875 z M 50,97.5 Q 40.14375,97.5 31.475,93.75937 22.80625,90.01875 16.39375,83.60625 9.98125,77.19375 6.240625,68.525 2.5,59.85625 2.5,50 2.5,40.14375 6.240625,31.53437 9.98125,22.925 16.39375,16.45312 22.80625,9.98125 31.475,6.24062 40.14375,2.5 50,2.5 59.85625,2.5 68.46562,6.24062 77.075,9.98125 83.54687,16.45312 90.01875,22.925 93.75937,31.53437 97.5,40.14375 97.5,50 q 0,9.85625 -3.74063,18.525 -3.74062,8.66875 -10.2125,15.08125 Q 77.075,90.01875 68.46562,93.75937 59.85625,97.5 50,97.5 Z M 50,50 Z m 0,38 Q 65.79375,88 76.89687,76.95625 88,65.9125 88,50 88,34.20625 76.89687,23.10312 65.79375,12 50,12 34.0875,12 23.04375,23.10312 12,34.20625 12,50 12,65.9125 23.04375,76.95625 34.0875,88 50,88 Z m 0,-30.875 q -6.76875,0 -12.70625,3.325 -5.9375,3.325 -9.5,9.14375 -0.7125,1.425 0.11875,2.79062 Q 28.74375,73.75 30.40625,73.75 H 69.475 q 1.6625,0 2.49375,-1.36563 Q 72.8,71.01875 72.0875,69.59375 68.525,63.775 62.64687,60.45 56.76875,57.125 50,57.125 Z"
    style="stroke-width:0.11875"
	/>
</svg>
