<svg
  xmlns="http://www.w3.org/2000/svg"
  viewBox="0 0 100 100"
  height="1"
  width="1"
  fill="#f2f2f2"
  stroke="#f2f2f2"
>
  <path
    d="m 12.45059,70.08893 q -3.1917,0 -5.35079,-2.15909 Q 4.94071,65.77075 4.94071,62.57905 V 53.1917 q 0,-1.12648 0.18775,-2.15909 Q 5.3162,50 5.6917,49.06126 L 22.58893,9.25889 Q 24.09091,6.06719 26.90711,4.2836 29.72332,2.5 33.10277,2.5 h 46.93675 q 6.19566,0 10.60771,4.41206 4.41206,4.41205 4.41206,10.6077 v 45.05929 q 0,2.25297 -0.84486,4.22431 -0.84487,1.97134 -2.53459,3.66107 L 68.02371,94.12055 Q 66.33399,95.81028 64.26877,96.65514 62.20356,97.5 60.13834,97.5 q -4.88142,0 -8.44862,-3.75494 -3.56719,-3.75494 -2.62846,-9.5751 L 51.50197,70.08893 Z M 35.35573,17.51976 19.96047,53.94269 v 1.12648 H 69.90118 L 65.39526,75.34585 80.03952,61.07708 V 17.51976 Z m 44.68379,0 v 43.55732 z"
    style="stroke-width:0.187747" 
	/>
</svg>
