<svg
  xmlns="http://www.w3.org/2000/svg"
  viewBox="0 0 100 100"
  height="1"
  width="1"
>
  <path
    d="m 12.67857,87.29871 q -4.41071,0 -7.29464,-2.88393 Q 2.5,81.53085 2.5,77.12014 q 0,-4.24107 2.88393,-7.20982 2.88393,-2.96875 7.29464,-2.96875 4.24107,0 7.20982,2.96875 2.96875,2.96875 2.96875,7.20982 0,4.41071 -2.96875,7.29464 -2.96875,2.88393 -7.20982,2.88393 z m 0,-47.5 q -4.41071,0 -7.29464,-2.88393 Q 2.5,34.03085 2.5,29.62014 q 0,-4.24107 2.88393,-7.20982 2.88393,-2.96875 7.29464,-2.96875 4.24107,0 7.20982,2.96875 2.96875,2.96875 2.96875,7.20982 0,4.41071 -2.96875,7.29464 -2.96875,2.88393 -7.20982,2.88393 z m 30.53572,20.35714 q -2.88393,0 -4.83483,-1.95089 -1.95089,-1.95089 -1.95089,-4.83482 0,-2.88393 1.95089,-4.83482 1.9509,-1.9509 4.83483,-1.9509 h 13.57142 q 2.88393,0 4.83483,1.9509 1.95089,1.95089 1.95089,4.83482 0,2.88393 -1.95089,4.83482 -1.9509,1.95089 -4.83483,1.95089 z m 40.71428,-6.78571 q 0,-9.16072 -2.45982,-17.64286 -2.45982,-8.48214 -7.20982,-15.60714 -1.52679,-2.375 -1.35714,-5.25893 0.16964,-2.88393 2.375,-4.75 2.20535,-1.8660703 4.91964,-1.4419603 2.71428,0.4241 4.41071,2.7991003 6.10715,8.99107 9.5,19.59375 Q 97.5,41.66478 97.5,53.37014 q 0,9.5 -2.29018,18.15178 -2.29018,8.65179 -6.36161,16.45536 -1.35714,2.54464 -4.07142,3.22322 -2.71429,0.67857 -5.08929,-0.84822 -2.375,-1.52678 -2.96875,-4.32589 -0.59375,-2.79911 0.76339,-5.34375 3.05357,-6.27679 4.75,-13.0625 1.69643,-6.78572 1.69643,-14.25 z"
    style="stroke-width:0.169643" 
	/>
</svg>
