<svg
  xmlns="http://www.w3.org/2000/svg"
  viewBox="0 0 100 100"
  height="1"
  width="1"
>
  <path
    d="m 50,91.978125 q -1.6625,0 -3.38438,-0.59375 -1.72187,-0.59375 -3.02812,-1.9 l -8.19375,-7.48125 Q 22.80625,70.484375 12.653125,59.143745 2.5,47.803125 2.5,34.146875 q 0,-11.1625 7.48125,-18.64375 7.48125,-7.48125 18.64375,-7.48125 6.29375,0 11.875,2.67187 5.58125,2.67188 9.5,7.30313 3.91875,-4.63125 9.5,-7.30313 5.58125,-2.67187 11.875,-2.67187 11.1625,0 18.64375,7.48125 7.48125,7.48125 7.48125,18.64375 0,13.65625 -10.09375,25.05625 -10.09375,11.4 -22.91875,22.91875 l -8.075,7.3625 q -1.30625,1.30625 -3.02813,1.9 Q 51.6625,91.978125 50,91.978125 Z m -4.5125,-64.48125 q -3.44375,-4.86875 -7.3625,-7.42188 -3.91875,-2.55312 -9.5,-2.55312 -7.125,0 -11.875,4.75 -4.75,4.75 -4.75,11.875 0,6.175 4.39375,13.12187 4.39375,6.94688 10.50937,13.47813 6.11563,6.53125 12.5875,12.23125 6.47188,5.7 10.50938,9.38125 4.0375,-3.68125 10.50937,-9.38125 6.47188,-5.7 12.5875,-12.23125 6.11563,-6.53125 10.50938,-13.47813 Q 88,40.321875 88,34.146875 q 0,-7.125 -4.75,-11.875 -4.75,-4.75 -11.875,-4.75 -5.58125,0 -9.5,2.55312 -3.91875,2.55313 -7.3625,7.42188 -0.83125,1.1875 -2.01875,1.78125 -1.1875,0.59375 -2.49375,0.59375 -1.30625,0 -2.49375,-0.59375 -1.1875,-0.59375 -2.01875,-1.78125 z M 50,49.940625 Z"
    style="stroke-width:0.11875" 
	/>
</svg>
