<svg
  xmlns="http://www.w3.org/2000/svg"
  viewBox="0 0 100 100"
  height="1"
  width="1"
  fill="#f2f2f2"
  stroke="#f2f2f2"
>
  <path
    d="m 87.54941,29.91107 q 3.1917,0 5.35079,2.15909 2.15909,2.15909 2.15909,5.35079 v 9.38735 q 0,1.12648 -0.18775,2.15909 Q 94.6838,50 94.3083,50.93874 L 77.41107,90.74111 Q 75.90909,93.93281 73.09289,95.7164 70.27668,97.5 66.89723,97.5 H 19.96048 Q 13.76482,97.5 9.35277,93.08794 4.94071,88.67589 4.94071,82.48024 V 37.42095 q 0,-2.25297 0.84486,-4.22431 0.84487,-1.97134 2.53459,-3.66107 L 31.97629,5.87945 Q 33.66601,4.18972 35.73123,3.34486 37.79644,2.5 39.86166,2.5 q 4.88142,0 8.44862,3.75494 3.56719,3.75494 2.62846,9.5751 L 48.49803,29.91107 Z M 64.64427,82.48024 80.03953,46.05731 V 44.93083 H 30.09882 L 34.60474,24.65415 19.96048,38.92292 v 43.55732 z m -44.68379,0 V 38.92292 Z"
    style="stroke-width:0.187747"
  />
</svg>
