<svg
  xmlns="http://www.w3.org/2000/svg"
  viewBox="0 0 100 100"
  height="1"
  width="1"
  fill="#f2f2f2"
  stroke="#f2f2f2"
>
  <path
    d="M 50,97.5 Q 40.14375,97.5 31.475,93.75938 22.80625,90.01875 16.39375,83.60625 9.98125,77.19375 6.24063,68.525 2.5,59.85625 2.5,50 2.5,40.14375 6.24063,31.475 9.98125,22.80625 16.39375,16.39375 22.80625,9.98125 31.475,6.24063 40.14375,2.5 50,2.5 q 9.85625,0 18.525,3.74063 8.66875,3.74062 15.08125,10.15312 6.4125,6.4125 10.15313,15.08125 Q 97.5,40.14375 97.5,50 97.5,59.85625 93.75938,68.525 90.01875,77.19375 83.60625,83.60625 77.19375,90.01875 68.525,93.75938 59.85625,97.5 50,97.5 Z M 50,88 Q 65.9125,88 76.95625,76.95625 88,65.9125 88,50 88,34.0875 76.95625,23.04375 65.9125,12 50,12 34.0875,12 23.04375,23.04375 12,34.0875 12,50 12,65.9125 23.04375,76.95625 34.0875,88 50,88 Z m 0,-38 z m -0.11875,33.25 q 1.6625,0 2.90937,-1.24687 1.24688,-1.24688 1.24688,-2.90938 V 77.3125 q 5.9375,-1.06875 10.2125,-4.63125 4.275,-3.5625 4.275,-10.56875 0,-4.9875 -2.85,-9.14375 Q 62.825,48.8125 54.275,45.725 47.15,43.35 44.41875,41.56875 41.6875,39.7875 41.6875,36.7 q 0,-3.0875 2.19687,-4.86875 Q 46.08125,30.05 50.2375,30.05 q 2.375,0 4.15625,0.83125 1.78125,0.83125 2.96875,2.25625 1.1875,1.425 2.67188,1.95938 1.48437,0.53437 2.79062,-0.0594 1.78125,-0.7125 2.43437,-2.43438 0.65313,-1.72187 -0.29687,-3.14687 -1.9,-2.73125 -4.69062,-4.63125 -2.79063,-1.9 -5.99688,-2.1375 v -1.78125 q 0,-1.6625 -1.24687,-2.90937 -1.24688,-1.24688 -2.90938,-1.24688 -1.6625,0 -2.90937,1.24688 -1.24688,1.24687 -1.24688,2.90937 v 1.78125 q -5.9375,1.30625 -9.2625,5.225 -3.325,3.91875 -3.325,8.7875 0,5.58125 3.26563,9.025 3.26562,3.44375 10.27187,5.9375 7.48125,2.73125 10.39063,4.86875 2.90937,2.1375 2.90937,5.58125 0,3.91875 -2.79062,5.75938 -2.79063,1.84062 -6.70938,1.84062 -3.0875,0 -5.58125,-1.48438 -2.49375,-1.48437 -4.15625,-4.45312 -0.95,-1.6625 -2.49375,-2.25625 -1.54375,-0.59375 -3.0875,0 -1.6625,0.59375 -2.43437,2.25625 -0.77188,1.6625 -0.0594,3.20625 1.9,4.0375 5.10625,6.59062 3.20625,2.55313 7.71875,3.50313 v 2.01875 q 0,1.6625 1.24688,2.90938 1.24687,1.24687 2.90937,1.24687 z"
    style="stroke-width:0.11875" 
	/>
</svg>
