<svg
  xmlns="http://www.w3.org/2000/svg"
  viewBox="0 0 100 100"
  height="1"
  width="1"
>
  <path
    d="m 49.985011,97.41823 c -10.715587,0 -19.866986,-1.528233 -27.454201,-4.58469 C 14.943603,89.777075 11.15,85.551973 11.15,80.158223 c 0,-2.301332 0.719167,-4.368931 2.1575,-6.202807 1.438333,-1.833877 3.452001,-3.469979 6.041006,-4.908318 l 7.011872,6.256752 c -1.726002,0.575326 -3.254232,1.312475 -4.584692,2.211439 -1.330458,0.898962 -1.995688,1.779931 -1.995688,2.642934 0,1.869835 2.912626,3.775621 8.737879,5.717376 5.825252,1.941755 12.980965,2.912628 21.467134,2.912628 8.486164,0 15.641873,-0.970873 21.467126,-2.912628 5.825252,-1.941755 8.737879,-3.847541 8.737879,-5.717376 0,-0.863003 -0.665229,-1.743972 -1.995688,-2.642934 -1.33046,-0.898964 -2.858689,-1.636113 -4.584691,-2.211439 l 7.011881,-6.256752 c 2.588999,1.438339 4.602663,3.074441 6.040997,4.908318 1.438332,1.833876 2.157499,3.901475 2.157499,6.202807 0,5.39375 -3.793603,9.618852 -11.38081,12.675317 -7.587214,3.056457 -16.73861,4.58469 -27.454193,4.58469 z m 0.02999,-11.548219 c -1.582167,0 -3.110398,-0.269683 -4.58469,-0.809059 -1.474294,-0.539376 -2.822734,-1.348435 -4.045318,-2.427177 L 14.200487,58.577629 c -0.934918,-0.791083 -1.672063,-1.761956 -2.211439,-2.912618 -0.539376,-1.150662 -0.809064,-2.337292 -0.809064,-3.559873 v -8.630004 c 0,-1.222583 0.233728,-2.409208 0.701184,-3.559873 0.467462,-1.150672 1.168652,-2.12155 2.103569,-2.912633 l 27.1845,-25.350623 C 42.391823,10.501334 43.758242,9.6383327 45.268496,9.063004 46.778741,8.4876673 48.360909,8.2 50.014997,8.2 c 1.65408,0 3.236247,0.2876673 4.746501,0.863004 1.510246,0.5753287 2.876662,1.43833 4.099248,2.589001 l 27.1845,25.350623 c 0.934919,0.791083 1.636107,1.761961 2.10357,2.912633 0.467454,1.150665 0.701184,2.33729 0.701184,3.559873 v 8.630004 c 0,1.222581 -0.269689,2.409211 -0.809064,3.559873 -0.539377,1.150662 -1.276519,2.121535 -2.21143,2.912618 l -27.18451,24.056146 c -1.222587,1.078743 -2.571026,1.887802 -4.045319,2.427178 -1.474287,0.539376 -3.002514,0.809059 -4.58468,0.809059 z M 49.583497,65.589516 c 1.00683,0 1.959725,-0.161815 2.858683,-0.485442 0.898963,-0.323627 1.743987,-0.845018 2.53507,-1.564193 L 78.925495,42.288511 53.03549,17.908754 c -0.503415,-0.359584 -1.006832,-0.62927 -1.510247,-0.809064 -0.503416,-0.179796 -1.04279,-0.269692 -1.618127,-0.269692 -0.575329,0 -1.114706,0.08989 -1.618127,0.269692 -0.503415,0.179794 -0.934914,0.44948 -1.294496,0.809064 l -26.321507,24.81125 23.516755,20.819877 c 0.791083,0.719175 1.636105,1.240566 2.535061,1.564193 0.898958,0.323627 1.851855,0.485442 2.858693,0.485442 z M 37.06999,48.113759 c 1.510253,0 2.786775,-0.521401 3.829567,-1.564193 1.042791,-1.042783 1.564186,-2.319308 1.564186,-3.829562 0,-1.510247 -0.521395,-2.786767 -1.564186,-3.829558 -1.042792,-1.042791 -2.319314,-1.564186 -3.829567,-1.564186 -1.510247,0 -2.786771,0.521395 -3.829568,1.564186 -1.04279,1.042791 -1.564186,2.319311 -1.564186,3.829558 0,1.510254 0.521396,2.786779 1.564186,3.829562 1.042797,1.042792 2.319321,1.564193 3.829568,1.564193 z M 50.014997,35.16876 c 1.510246,0 2.786766,-0.521397 3.829556,-1.564188 1.042792,-1.042798 1.564188,-2.319319 1.564188,-3.829566 0,-1.510254 -0.521396,-2.786776 -1.564188,-3.829567 -1.04279,-1.042791 -2.31931,-1.564186 -3.829556,-1.564186 -1.510254,0 -2.786777,0.521395 -3.829568,1.564186 -1.042792,1.042791 -1.564186,2.319313 -1.564186,3.829567 0,1.510247 0.521394,2.786768 1.564186,3.829566 1.042791,1.042791 2.319314,1.564188 3.829568,1.564188 z m 0.03204,25.671744 c 1.510253,0 2.786776,-0.521401 3.829567,-1.564183 1.042791,-1.042792 1.564186,-2.319318 1.564186,-3.829566 0,-1.510249 -0.521395,-2.786773 -1.564186,-3.829566 -1.042791,-1.042791 -2.319314,-1.564183 -3.829567,-1.564183 -1.510248,0 -2.786769,0.521392 -3.829567,1.564183 -1.04279,1.042793 -1.564187,2.319317 -1.564187,3.829566 0,1.510248 0.521397,2.786774 1.564187,3.829566 1.042798,1.042782 2.319319,1.564183 3.829567,1.564183 z m 12.94501,-12.945002 c 1.510246,0 2.786766,-0.521391 3.829558,-1.564183 1.042791,-1.042801 1.564187,-2.319317 1.564187,-3.829566 0,-1.510255 -0.521396,-2.786775 -1.564187,-3.829567 -1.042791,-1.04279 -2.319311,-1.564187 -3.829557,-1.564187 -1.510255,0 -2.786776,0.521397 -3.829568,1.564187 -1.04279,1.042792 -1.564186,2.319312 -1.564186,3.829567 0,1.510249 0.521396,2.786765 1.564186,3.829566 1.042792,1.042792 2.319314,1.564183 3.829567,1.564183 z"
    style="stroke-width:0.107875"
	/>
</svg>
