<svg
  xmlns="http://www.w3.org/2000/svg"
  viewBox="0 0 100 100"
  height="1"
  width="1"
  fill="#f2f2f2"
  stroke="#f2f2f2"
>
  <path
    d="m 50.000005,97.5 q -16.08523,0 -27.47444,-4.58807 -11.3892,-4.58807 -11.3892,-12.68466 0,-3.45454 2.15909,-6.20738 2.15909,-2.75284 6.04546,-4.91194 l 7.01704,6.26137 q -2.59091,0.86363 -4.58807,2.21307 -1.99716,1.34943 -1.99716,2.64488 0,2.80682 8.74432,5.72159 8.74432,2.91478 21.48296,2.91478 12.73863,0 21.48295,-2.91478 8.74432,-2.91477 8.74432,-5.72159 0,-1.29545 -1.99716,-2.64488 -1.99716,-1.34944 -4.58807,-2.21307 l 7.01705,-6.26137 q 3.88636,2.1591 6.04545,4.91194 2.15909,2.75284 2.15909,6.20738 0,8.09659 -11.3892,12.68466 Q 66.085225,97.5 50.000005,97.5 Z m 0,-17.27273 q -2.375,0 -4.58807,-0.80966 -2.21307,-0.80966 -4.0483,-2.42897 L 14.159095,52.91477 Q 12.755685,51.72727 11.946025,50 q -0.80966,-1.72727 -0.80966,-3.5625 v -8.63636 q 0,-1.83523 0.7017,-3.5625 0.70171,-1.72728 2.10512,-2.91478 L 41.147725,5.95455 q 1.83523,-1.72728 4.10228,-2.59091 2.26704,-0.86364 4.75,-0.86364 2.48295,0 4.75,0.86364 2.26704,0.86363 4.10227,2.59091 l 27.20454,25.36931 q 1.40341,1.1875 2.10512,2.91478 0.7017,1.72727 0.7017,3.5625 v 8.63636 q 0,1.83523 -0.80966,3.5625 -0.80966,1.72727 -2.21306,2.91477 l -27.20455,24.07387 q -1.83523,1.61931 -4.0483,2.42897 -2.21306,0.80966 -4.58806,0.80966 z m -0.43182,-20.29545 q 1.51136,0 2.86079,-0.4858 1.34944,-0.48579 2.53694,-1.56534 l 23.9659,-21.26704 -25.90909,-24.39773 q -0.75568,-0.53977 -1.51136,-0.80966 -0.75568,-0.26989 -1.61932,-0.26989 -0.86363,0 -1.61932,0.26989 -0.75568,0.26989 -1.29545,0.80966 l -26.34091,24.82954 23.53409,20.83523 q 1.1875,1.07955 2.53693,1.56534 1.34943,0.4858 2.8608,0.4858 z M 37.045455,42.44318 q 2.26705,0 3.83239,-1.56534 1.56534,-1.56534 1.56534,-3.83239 0,-2.26704 -1.56534,-3.83238 -1.56534,-1.56534 -3.83239,-1.56534 -2.26704,0 -3.83239,1.56534 -1.56534,1.56534 -1.56534,3.83238 0,2.26705 1.56534,3.83239 1.56535,1.56534 3.83239,1.56534 z m 5.39773,5.82955 q 4.64204,2.26704 9.76988,1.45738 5.12785,-0.80966 9.01421,-4.2642 3.67045,-3.13068 4.80398,-7.88068 1.13352,-4.75 -1.13353,-8.96023 z m 7.55682,-18.78409 q 2.26704,0 3.83238,-1.56534 1.56534,-1.56535 1.56534,-3.83239 0,-2.26705 -1.56534,-3.83239 -1.56534,-1.56534 -3.83238,-1.56534 -2.26705,0 -3.83239,1.56534 -1.56534,1.56534 -1.56534,3.83239 0,2.26704 1.56534,3.83239 1.56534,1.56534 3.83239,1.56534 z m -0.21591,6.04545 z"
    style="stroke-width:0.107955" 
	/>
</svg>
