<svg
  xmlns="http://www.w3.org/2000/svg"
  viewBox="0 0 100 100"
  height="1"
  width="1"
>
  <path
    d="m 49.999995,87.87975 q 11.66456,-3.6076 19.48102,-14.25 7.81645,-10.64241 9.13924,-23.75 H 49.999995 V 12 l -28.86076,10.82278 v 24.89241 q 0,0.84177 0.24051,2.16456 h 28.62025 z m 0,9.62025 q -0.84177,0 -1.56329,-0.12025 -0.72152,-0.12026 -1.44304,-0.36076 -16.23417,-5.4114 -25.85443,-20.02215 -9.62025,-14.61076 -9.62025,-31.44621 V 22.82278 q 0,-3.00632 1.74367,-5.41139 1.74367,-2.40506 4.50949,-3.48734 L 46.632905,3.10127 Q 48.316455,2.5 49.999995,2.5 q 1.68355,0 3.36709,0.60127 l 28.86076,10.82278 q 2.76582,1.08228 4.50949,3.48734 1.74368,2.40507 1.74368,5.41139 v 22.72785 q 0,16.83545 -9.62026,31.44621 -9.62025,14.61075 -25.85443,20.02215 -0.72152,0.2405 -1.44304,0.36076 Q 50.841765,97.5 49.999995,97.5 Z"
    style="stroke-width:0.120253" 
	/>
</svg>
