<svg
  xmlns="http://www.w3.org/2000/svg"
  viewBox="0 0 100 100"
  height="1"
  width="1"
>
  <path
    d="m 45.203588,2.672925 q 7.45401,0 14.55307,2.24804 7.09906,2.24803 13.01495,6.38915 1.65644,1.18318 1.89308,3.13542 0.23664,1.95224 -1.06486,3.49037 -1.30149,1.65645 -3.31289,1.89308 -2.01141,0.23664 -3.66785,-1.06485 -4.25944,-3.3129 -9.99785,-4.96935 -5.7384,-1.65645 -11.41765,-1.65645 -11.71345,0 -20.17317,6.15252 -8.45971,6.15252 -13.42906,14.78972 -0.94654,1.77476 -2.7804604,2.48467 -1.83393,0.7099 -3.60869,-0.11832 -1.89308,-0.94654 -2.48467,-2.83963 -0.59159,-1.89308 0.35495,-3.66784 6.0342,-11.12187 16.7419504,-18.6942 10.70775,-7.57233 25.37915,-7.57233 z m -0.35496,94.65415 q -13.13326,0 -24.07765,-7.0399 -10.9443804,-7.03991 -17.5701704,-18.51672 -0.94654,-1.77477 -0.47327,-3.78617 0.47327,-2.0114 2.12972,-3.07626 1.65644,-1.06486 3.54953,-0.53243 1.8930804,0.53243 2.8396204,2.18888 5.3243,9.3471 14.0798,15.32214 8.75551,5.97504 19.52242,5.97504 15.97289,0 27.21307,-11.12186 11.24018,-11.12186 11.24018,-26.85811 -0.23663,-1.89309 1.3015,-3.3129 1.53813,-1.41981 3.43121,-1.30149 2.36635,0.11831 3.49037,1.41981 1.12402,1.30149 1.24234,3.43121 0,9.82037 -3.72701,18.45756 -3.72701,8.63719 -10.23448,15.02635 -6.50747,6.38915 -15.26298,10.057 -8.75551,3.66785 -18.6942,3.66785 z m -16.44616,-59.27716 -2.60298,2.60299 q -1.06486,1.06486 -1.0057,2.48467 0.0591,1.41981 1.12401,2.48467 1.06486,1.06486 2.48467,1.06486 1.41982,0 2.48468,-1.06486 l 4.14112,-4.14112 q 1.41981,-1.41981 1.41981,-3.31289 0,-1.89309 -1.41981,-3.3129 l -4.25944,-4.25944 q -0.94654,-0.94654 -2.48467,-0.94654 -1.53813,0 -2.48467,0.94654 -1.06486,1.06486 -1.06486,2.48468 0,1.41981 1.06486,2.48467 z m 59.63212,-2.24804 q -3.90449,0 -6.68495,-2.78046 -2.78047,-2.78047 -2.78047,-6.68495 0,-4.25944 2.60299,-8.40056 2.60299,-4.14112 4.85103,-7.57233 0.35495,-0.59159 0.88738,-0.82822 0.53243,-0.23664 1.12402,-0.23664 0.59159,0 1.12402,0.23664 0.53243,0.23663 0.88738,0.82822 2.24803,3.43121 4.85102,7.57233 2.60299,4.14112 2.60299,8.40056 0,3.90448 -2.78046,6.68495 -2.78047,2.78046 -6.68495,2.78046 z m -25.4383,2.24804 2.48467,-2.48467 q 1.06486,-1.06486 1.06486,-2.48467 0,-1.41982 -1.06486,-2.48468 -1.06486,-1.06486 -2.48467,-1.06486 -1.41982,0 -2.48468,1.06486 l -4.25943,4.25944 q -1.41981,1.41981 -1.41981,3.3129 0,1.89308 1.41981,3.31289 l 4.25943,4.25944 q 1.06486,1.06486 2.54383,1.0057 1.47898,-0.0592 2.54383,-1.12402 1.06486,-1.06486 1.06486,-2.54383 0,-1.47897 -1.06486,-2.54383 z m -17.15607,11.95008 z m -18.33924,23.66354 q 0.82822,0 1.71561,-0.47327 0.88738,-0.47327 1.36065,-1.18318 2.60299,-3.54953 6.50747,-5.67925 3.90449,-2.12971 8.75551,-2.12971 4.85103,0 8.75551,2.12971 3.90448,2.12972 6.50747,5.67925 0.47327,0.70991 1.3015,1.18318 0.82822,0.47327 1.65645,0.47327 2.12971,0 3.13541,-1.89308 1.0057,-1.89308 -0.41411,-4.0228 -3.07626,-4.61439 -8.63719,-7.63149 -5.56093,-3.0171 -12.30504,-3.0171 -3.07626,0 -6.0342,0.65074 -2.95794,0.65075 -5.56093,1.95224 l -16.80111,-9.70205 q 0,-1.89308 -0.94654,-3.54953 -0.94655,-1.65644 -2.60299,-2.60299 -2.60299,-1.41981 -5.3834604,-0.65074 -2.78046,0.76906 -4.31859,3.25373 -1.41982,2.60299 -0.65075,5.38346 0.76906,2.78046 3.25374,4.31859 1.65644,0.94655 3.54953,0.94655 1.8930804,0 3.5495304,-0.94655 l 13.96148,8.04561 q -0.94654,0.94654 -1.65644,1.89308 l -1.41982,1.89308 q -1.30149,2.0114 -0.29579,3.84533 1.0057,1.83392 3.0171,1.83392 z"
    style="stroke-width:0.118318"
	/>
</svg>
