<svg
  xmlns="http://www.w3.org/2000/svg"
  viewBox="0 0 100 100"
  height="1"
  width="1"
>
  <path
    d="m 50,76.125 q 6.8875,0 12.70625,-3.325 Q 68.525,69.475 72.0875,63.775 72.8,62.35 71.96875,60.925 71.1375,59.5 69.475,59.5 h -38.95 q -1.6625,0 -2.49375,1.425 Q 27.2,62.35 27.9125,63.775 31.475,69.475 37.35312,72.8 43.23125,76.125 50,76.125 Z m -14.725,-35.8625 2.49375,2.49375 q 1.06875,1.06875 2.49375,1.06875 1.425,0 2.49375,-1.06875 1.06875,-1.06875 1.00937,-2.49375 -0.0594,-1.425 -1.00937,-2.49375 L 38.6,33.49375 q -1.425,-1.425 -3.38438,-1.425 -1.95937,0 -3.38437,1.425 l -4.275,4.275 q -1.06875,1.06875 -1.06875,2.49375 0,1.425 1.06875,2.49375 0.95,0.95 2.43437,1.00938 1.48438,0.0594 2.55313,-0.89063 z m 29.45,0 2.73125,2.6125 q 1.06875,0.95 2.49375,0.95 1.425,0 2.49375,-1.06875 1.06875,-1.06875 1.06875,-2.49375 0,-1.425 -1.06875,-2.49375 l -4.275,-4.275 q -1.425,-1.425 -3.38438,-1.425 -1.95937,0 -3.38437,1.425 l -4.275,4.275 q -0.95,1.06875 -0.95,2.49375 0,1.425 1.06875,2.49375 1.06875,1.06875 2.49375,1.06875 1.425,0 2.49375,-1.06875 z M 50,97.5 Q 40.14375,97.5 31.475,93.75938 22.80625,90.01875 16.39375,83.60625 9.98125,77.19375 6.240625,68.525 2.5,59.85625 2.5,50 2.5,40.14375 6.240625,31.475 9.98125,22.80625 16.39375,16.39375 22.80625,9.98125 31.475,6.24063 40.14375,2.5 50,2.5 q 9.85625,0 18.525,3.74063 8.66875,3.74062 15.08125,10.15312 6.4125,6.4125 10.15312,15.08125 Q 97.5,40.14375 97.5,50 97.5,59.85625 93.75937,68.525 90.01875,77.19375 83.60625,83.60625 77.19375,90.01875 68.525,93.75938 59.85625,97.5 50,97.5 Z M 50,50 Z m 0,38 Q 65.9125,88 76.95625,76.95625 88,65.9125 88,50 88,34.0875 76.95625,23.04375 65.9125,12 50,12 34.0875,12 23.04375,23.04375 12,34.0875 12,50 12,65.9125 23.04375,76.95625 34.0875,88 50,88 Z"
    style="stroke-width:0.11875" 
	/>
</svg>
