<?xml version="1.0" encoding="UTF-8" standalone="no"?>
<svg
   width="32"
   height="32"
   viewBox="0 0 24.003008 24.002979"
   version="1.1"
   id="svg1"
   sodipodi:docname="threeDim_threeDGlassesOffIcon.svg"
   inkscape:version="1.3.2 (091e20e, 2023-11-25, custom)"
   xmlns:inkscape="http://www.inkscape.org/namespaces/inkscape"
   xmlns:sodipodi="http://sodipodi.sourceforge.net/DTD/sodipodi-0.dtd"
   xmlns:xlink="http://www.w3.org/1999/xlink"
   xmlns="http://www.w3.org/2000/svg"
   xmlns:svg="http://www.w3.org/2000/svg">
  <defs
     id="defs1">
    <linearGradient
       id="linearGradient5"
       inkscape:collect="always">
      <stop
         style="stop-color:#2e91f5;stop-opacity:0.85497838;"
         offset="0.09934854"
         id="stop5" />
      <stop
         style="stop-color:#2e91f5;stop-opacity:0.4025974;"
         offset="1"
         id="stop6" />
    </linearGradient>
    <linearGradient
       id="linearGradient3"
       inkscape:collect="always">
      <stop
         style="stop-color:#f56314;stop-opacity:0.85497838;"
         offset="0.09771987"
         id="stop3" />
      <stop
         style="stop-color:#f56314;stop-opacity:0.3982684;"
         offset="1"
         id="stop4" />
    </linearGradient>
    <linearGradient
       inkscape:collect="always"
       xlink:href="#linearGradient3"
       id="linearGradient4"
       x1="0.1875235"
       y1="12.001489"
       x2="22.690343"
       y2="12.001489"
       gradientUnits="userSpaceOnUse" />
    <linearGradient
       inkscape:collect="always"
       xlink:href="#linearGradient5"
       id="linearGradient6"
       x1="1.3126235"
       y1="11.251301"
       x2="23.815526"
       y2="11.251301"
       gradientUnits="userSpaceOnUse" />
  </defs>
  <sodipodi:namedview
     id="namedview1"
     pagecolor="#ffffff"
     bordercolor="#000000"
     borderopacity="0.25"
     inkscape:showpageshadow="2"
     inkscape:pageopacity="0.0"
     inkscape:pagecheckerboard="0"
     inkscape:deskcolor="#d1d1d1"
     inkscape:document-units="mm"
     inkscape:zoom="28.859386"
     inkscape:cx="17.117481"
     inkscape:cy="21.258249"
     inkscape:window-width="1920"
     inkscape:window-height="1009"
     inkscape:window-x="-8"
     inkscape:window-y="-8"
     inkscape:window-maximized="1"
     inkscape:current-layer="svg1" />
  <path
     id="path1-5"
     style="display:inline;fill:url(#linearGradient6);stroke:#2e91f5;stroke-width:0.450056;stroke-linecap:round;stroke-linejoin:round;stroke-dasharray:none;stroke-opacity:1"
     d="m 10.007224,9.0140563 h -7.35095 v 4.6342927 h 3.6754744 c 0.3819297,0 1.3998761,0.04155 1.7066991,-0.09109 0.345174,-0.150211 0.536138,-0.505773 1.024338,-1.021139 0.488199,-0.515365 0.923663,-0.691948 0.9444385,-1.764227 z m 12.464652,0 h -7.510752 v 1.5980317 c 0.008,1.243269 0.34917,1.203319 0.931653,1.786601 0.582482,0.583281 0.728702,0.970005 1.172956,1.153778 0.333987,0.137431 1.326366,0.09588 1.730668,0.09588 h 3.515671 z M 1.5376515,7.8954337 h 9.5881945 c 0.404302,1.8952662 2.403441,1.9016582 2.876458,0 h 9.588194 v 6.7117353 h -6.072522 c -1.901659,-0.0032 -1.04831,-0.41389 -2.55845,-1.724277 C 14.323509,12.33317 13.409435,11.9832 12.564075,11.9832 c -0.950828,0 -1.866502,0.402704 -2.553656,1.041917 -1.3503375,1.252857 -0.6679775,1.572464 -2.2404415,1.582052 h -6.232326 z" />
  <path
     d="m 0.4125105,8.6456216 h 9.5881935 c 0.404302,1.8952664 2.403441,1.9016584 2.876458,0 h 9.588194 v 6.7117354 h -6.072522 c -1.901659,-0.0032 -1.04831,-0.41389 -2.55845,-1.724277 -0.636017,-0.549722 -1.550091,-0.899692 -2.395451,-0.899692 -0.950828,0 -1.8665016,0.402704 -2.5536551,1.041917 -1.3503372,1.252857 -0.6679774,1.572464 -2.2404414,1.582052 h -6.232326 z"
     id="Selection"
     style="display:inline;fill:url(#linearGradient4);stroke:#f56314;stroke-width:0.449974;stroke-linecap:round;stroke-linejoin:round;stroke-dasharray:none;stroke-opacity:1" />
  <path
     d="m 21.346734,9.7642442 h -7.510752 v 1.5980318 c 0.008,1.243269 0.34917,1.203319 0.931653,1.786601 0.582482,0.583281 0.728702,0.970005 1.172956,1.153778 0.333987,0.137431 1.326366,0.09588 1.730668,0.09588 h 3.515671 z"
     id="path2"
     style="display:inline;fill:#362aff;fill-opacity:1;stroke:#f56314;stroke-width:0.449974;stroke-linecap:round;stroke-linejoin:round;stroke-dasharray:none;stroke-opacity:1" />
  <path
     d="M 8.8820821,9.7642442 H 1.531133 v 4.6342928 h 3.6754744 c 0.3819297,0 1.3998763,0.04155 1.7066986,-0.09109 0.3451749,-0.150211 0.5361389,-0.505773 1.0243388,-1.021139 0.4881989,-0.515365 0.9236622,-0.691948 0.9444373,-1.764227 z"
     id="path1"
     style="display:inline;fill:#ff2a2a;stroke:#f56314;stroke-width:0.449974;stroke-linecap:round;stroke-linejoin:round;stroke-dasharray:none;stroke-opacity:1" />
</svg>
