<?xml version="1.0" encoding="UTF-8" standalone="no"?>
<svg
   width="32"
   height="32"
   viewBox="0 0 24.003008 24.002979"
   version="1.1"
   id="svg1"
   sodipodi:docname="glassesOffIcon4.svg"
   inkscape:version="1.3.2 (091e20e, 2023-11-25, custom)"
   xmlns:inkscape="http://www.inkscape.org/namespaces/inkscape"
   xmlns:sodipodi="http://sodipodi.sourceforge.net/DTD/sodipodi-0.dtd"
   xmlns="http://www.w3.org/2000/svg"
   xmlns:svg="http://www.w3.org/2000/svg">
  <defs
     id="defs1" />
  <sodipodi:namedview
     id="namedview1"
     pagecolor="#ffffff"
     bordercolor="#000000"
     borderopacity="0.25"
     inkscape:showpageshadow="2"
     inkscape:pageopacity="0.0"
     inkscape:pagecheckerboard="0"
     inkscape:deskcolor="#d1d1d1"
     inkscape:document-units="mm"
     inkscape:zoom="14.429693"
     inkscape:cx="14.033563"
     inkscape:cy="20.963717"
     inkscape:window-width="1920"
     inkscape:window-height="1009"
     inkscape:window-x="-8"
     inkscape:window-y="-8"
     inkscape:window-maximized="1"
     inkscape:current-layer="svg1" />
  <path
     d="m 22.002744,9.7431452 h -7.581585 v 1.6131028 c 0.0081,1.254995 0.352463,1.214667 0.940439,1.80345 0.587976,0.588782 0.735575,0.979153 1.184018,1.16466 0.337138,0.138727 1.338875,0.09679 1.74699,0.09679 h 3.548827 z"
     id="path2"
     style="fill:#362aff;fill-opacity:1;stroke:#fff;stroke-width:0.4500564;stroke-linecap:round;stroke-linejoin:round;stroke-dasharray:none;stroke-opacity:1" />
  <path
     d="m 9.4205391,9.7431452 h -7.420275 v 4.6779988 h 3.7101374 c 0.3855316,0 1.4130784,0.04194 1.7227942,-0.09195 C 7.781626,14.177566 7.974391,13.818651 8.467195,13.298425 8.9599981,12.778199 9.3995681,12.599951 9.4205391,11.517559 Z"
     id="path1"
     style="fill:#ff2a2a;stroke:#fff;stroke-width:0.4500564;stroke-linecap:round;stroke-linejoin:round;stroke-dasharray:none;stroke-opacity:1" />
  <path
     d="m 0.8710919,8.6139729 h 9.6786191 c 0.408115,1.9131401 2.426107,1.9195931 2.903586,0 h 9.678619 v 6.7750331 h -6.129792 c -1.919593,-0.0032 -1.058196,-0.417793 -2.582578,-1.740538 -0.642015,-0.554907 -1.56471,-0.908177 -2.418042,-0.908177 -0.959796,0 -1.884105,0.406502 -2.5777389,1.051743 -1.3630721,1.264673 -0.674277,1.587294 -2.2615708,1.596972 H 0.8710919 Z"
     id="Selection"
     style="fill:none;stroke:#fff;stroke-width:0.4500564;stroke-linecap:round;stroke-linejoin:round;stroke-dasharray:none;stroke-opacity:1" />
</svg>
