{
  "accessors": [
    {
      "bufferView": 2,
      "componentType": 5126,
      "count": 5576,
      "max": [
        11.9144868850708,
        16.890174865722656,
        32.146732330322266
      ],
      "min": [
        -12.630756378173828,
        -14.459247589111328,
        1.2744330167770386
      ],
      "type": "VEC3"
    },
    {
      "bufferView": 2,
      "byteOffset": 66912,
      "componentType": 5126,
      "count": 5576,
      "max": [
        0.9998486638069153,
        0.9999560117721558,
        0.9996488094329834
      ],
      "min": [
        -0.9998113512992859,
        -0.9987100958824158,
        -0.9974582195281982
      ],
      "type": "VEC3"
    },
    {
      "bufferView": 1,
      "componentType": 5126,
      "count": 5576,
      "max": [
        0.9483343958854675,
        0.9451477527618408
      ],
      "min": [
        0.058717284351587296,
        0.06248345598578453
      ],
      "type": "VEC2"
    },
    {
      "bufferView": 0,
      "componentType": 5125,
      "count": 31728,
      "type": "SCALAR"
    },
    {
      "bufferView": 2,
      "byteOffset": 133824,
      "componentType": 5126,
      "count": 2681,
      "max": [
        10.14227294921875,
        5.808307647705078,
        33.15279006958008
      ],
      "min": [
        -8.585891723632813,
        -12.30243968963623,
        21.98514747619629
      ],
      "type": "VEC3"
    },
    {
      "bufferView": 2,
      "byteOffset": 165996,
      "componentType": 5126,
      "count": 2681,
      "max": [
        0.9999979734420776,
        0.9997442960739136,
        0.9994727373123169
      ],
      "min": [
        -0.999973475933075,
        -0.9996867775917053,
        -0.9287590980529785
      ],
      "type": "VEC3"
    },
    {
      "bufferView": 1,
      "byteOffset": 44608,
      "componentType": 5126,
      "count": 2681,
      "max": [
        9.2896089553833,
        12.975318908691406
      ],
      "min": [
        -9.2896089553833,
        -9.932562828063965
      ],
      "type": "VEC2"
    },
    {
      "bufferView": 0,
      "byteOffset": 126912,
      "componentType": 5125,
      "count": 15696,
      "type": "SCALAR"
    },
    {
      "bufferView": 2,
      "byteOffset": 198168,
      "componentType": 5126,
      "count": 997,
      "max": [
        11.051482200622559,
        12.248764991760254,
        13.287976264953613
      ],
      "min": [
        -11.831106185913086,
        -9.954584121704102,
        5.238114833831787
      ],
      "type": "VEC3"
    },
    {
      "bufferView": 2,
      "byteOffset": 210132,
      "componentType": 5126,
      "count": 997,
      "max": [
        0.9825588464736938,
        0.9969110488891602,
        0.5679306983947754
      ],
      "min": [
        -0.9996516704559326,
        -0.9298405647277832,
        -0.9948338270187378
      ],
      "type": "VEC3"
    },
    {
      "bufferView": 1,
      "byteOffset": 66056,
      "componentType": 5126,
      "count": 997,
      "max": [
        0.666666567325592,
        0.6000000238418579
      ],
      "min": [
        0.4358915090560913,
        0.19999998807907104
      ],
      "type": "VEC2"
    },
    {
      "bufferView": 0,
      "byteOffset": 189696,
      "componentType": 5125,
      "count": 4128,
      "type": "SCALAR"
    },
    {
      "bufferView": 2,
      "byteOffset": 222096,
      "componentType": 5126,
      "count": 598,
      "max": [
        3.0777103900909424,
        0.7028718590736389,
        31.21613311767578
      ],
      "min": [
        -12.79537296295166,
        -16.68140983581543,
        20.06647300720215
      ],
      "type": "VEC3"
    },
    {
      "bufferView": 2,
      "byteOffset": 229272,
      "componentType": 5126,
      "count": 598,
      "max": [
        0.9908919930458069,
        0.9986732602119446,
        0.9922439455986023
      ],
      "min": [
        -0.9953294992446899,
        -0.989730715751648,
        -0.994243323802948
      ],
      "type": "VEC3"
    },
    {
      "bufferView": 1,
      "byteOffset": 74032,
      "componentType": 5126,
      "count": 598,
      "max": [
        1.000000238418579,
        0.5
      ],
      "min": [
        0.0,
        -1.1920928955078125e-07
      ],
      "type": "VEC2"
    },
    {
      "bufferView": 0,
      "byteOffset": 206208,
      "componentType": 5125,
      "count": 2160,
      "type": "SCALAR"
    },
    {
      "bufferView": 2,
      "byteOffset": 236448,
      "componentType": 5126,
      "count": 174,
      "max": [
        -4.740013599395752,
        -3.4345550537109375,
        29.059886932373047
      ],
      "min": [
        -13.04662799835205,
        -15.734172821044922,
        22.65181541442871
      ],
      "type": "VEC3"
    },
    {
      "bufferView": 2,
      "byteOffset": 238536,
      "componentType": 5126,
      "count": 174,
      "max": [
        -0.4982975125312805,
        0.26851293444633484,
        0.6468216776847839
      ],
      "min": [
        -0.9986406564712524,
        -0.8621277809143066,
        -0.5668882131576538
      ],
      "type": "VEC3"
    },
    {
      "bufferView": 1,
      "byteOffset": 78816,
      "componentType": 5126,
      "count": 174,
      "max": [
        1.000000238418579,
        1.0
      ],
      "min": [
        0.0,
        0.800000011920929
      ],
      "type": "VEC2"
    },
    {
      "bufferView": 0,
      "byteOffset": 214848,
      "componentType": 5125,
      "count": 600,
      "type": "SCALAR"
    },
    {
      "bufferView": 2,
      "byteOffset": 240624,
      "componentType": 5126,
      "count": 2946,
      "max": [
        10.318920135498047,
        5.288136959075928,
        3.9437923431396484
      ],
      "min": [
        -12.115965843200684,
        -8.224737167358398,
        0.047754641622304916
      ],
      "type": "VEC3"
    },
    {
      "bufferView": 2,
      "byteOffset": 275976,
      "componentType": 5126,
      "count": 2946,
      "max": [
        0.9882652759552002,
        0.9973695278167725,
        0.9989708065986633
      ],
      "min": [
        -0.9976969361305237,
        -0.9985812902450562,
        -0.9999919533729553
      ],
      "type": "VEC3"
    },
    {
      "bufferView": 1,
      "byteOffset": 80208,
      "componentType": 5126,
      "count": 2946,
      "max": [
        1.0,
        1.0
      ],
      "min": [
        0.0,
        0.0
      ],
      "type": "VEC2"
    },
    {
      "bufferView": 0,
      "byteOffset": 217248,
      "componentType": 5125,
      "count": 11328,
      "type": "SCALAR"
    },
    {
      "bufferView": 2,
      "byteOffset": 311328,
      "componentType": 5126,
      "count": 5282,
      "max": [
        0.6404074430465698,
        0.32635998725891113,
        23.287588119506836
      ],
      "min": [
        -21.109582901000977,
        -19.218658447265625,
        13.263481140136719
      ],
      "type": "VEC3"
    },
    {
      "bufferView": 2,
      "byteOffset": 374712,
      "componentType": 5126,
      "count": 5282,
      "max": [
        0.967503547668457,
        0.9033139944076538,
        0.9998205900192261
      ],
      "min": [
        -0.9979251623153687,
        -0.9995851516723633,
        -0.9999548196792603
      ],
      "type": "VEC3"
    },
    {
      "bufferView": 1,
      "byteOffset": 103776,
      "componentType": 5126,
      "count": 5282,
      "max": [
        0.4166666567325592,
        0.09079824388027191
      ],
      "min": [
        0.2499999701976776,
        0.0
      ],
      "type": "VEC2"
    },
    {
      "bufferView": 0,
      "byteOffset": 262560,
      "componentType": 5125,
      "count": 26688,
      "type": "SCALAR"
    }
  ],
  "asset": {
    "extras": {
      "author": "gustavopujadas (https://sketchfab.com/gustavopujadas)",
      "license": "CC-BY-4.0 (http://creativecommons.org/licenses/by/4.0/)",
      "source": "https://sketchfab.com/3d-models/bird-3ds-d4e05c6b66844b219c194f5feaa4c302",
      "title": "Bird 3ds"
    },
    "generator": "Sketchfab-12.65.0",
    "version": "2.0"
  },
  "bufferViews": [
    {
      "buffer": 0,
      "byteLength": 369312,
      "name": "floatBufferViews",
      "target": 34963
    },
    {
      "buffer": 0,
      "byteLength": 146032,
      "byteOffset": 369312,
      "byteStride": 8,
      "name": "floatBufferViews",
      "target": 34962
    },
    {
      "buffer": 0,
      "byteLength": 438096,
      "byteOffset": 515344,
      "byteStride": 12,
      "name": "floatBufferViews",
      "target": 34962
    }
  ],
  "buffers": [
    {
      "byteLength": 953440,
      "uri": "scene.bin"
    }
  ],
  "materials": [
    {
      "doubleSided": true,
      "name": "body",
      "pbrMetallicRoughness": {
        "baseColorFactor": [
          0.0,
          0.0,
          0.0,
          1.0
        ],
        "metallicFactor": 0.0,
        "roughnessFactor": 0.6
      }
    },
    {
      "doubleSided": true,
      "name": "cresta",
      "pbrMetallicRoughness": {
        "baseColorFactor": [
          0.92549,
          0.4,
          0.113725,
          1.0
        ],
        "metallicFactor": 0.0,
        "roughnessFactor": 0.6
      }
    },
    {
      "doubleSided": true,
      "name": "plumas",
      "pbrMetallicRoughness": {
        "metallicFactor": 0.0,
        "roughnessFactor": 0.6
      }
    },
    {
      "doubleSided": true,
      "name": "ojos",
      "pbrMetallicRoughness": {
        "metallicFactor": 0.0,
        "roughnessFactor": 0.6
      }
    },
    {
      "doubleSided": true,
      "name": "pupila",
      "pbrMetallicRoughness": {
        "baseColorFactor": [
          0.0,
          0.0,
          0.0,
          1.0
        ],
        "metallicFactor": 0.0,
        "roughnessFactor": 0.6
      }
    },
    {
      "doubleSided": true,
      "name": "patas",
      "pbrMetallicRoughness": {
        "baseColorFactor": [
          0.886275,
          0.886275,
          0.886275,
          1.0
        ],
        "metallicFactor": 0.0,
        "roughnessFactor": 0.6
      }
    },
    {
      "doubleSided": true,
      "name": "pico",
      "pbrMetallicRoughness": {
        "baseColorFactor": [
          0.886275,
          0.886275,
          0.886275,
          1.0
        ],
        "metallicFactor": 0.0,
        "roughnessFactor": 0.6
      }
    }
  ],
  "meshes": [
    {
      "name": "Object_0",
      "primitives": [
        {
          "attributes": {
            "NORMAL": 1,
            "POSITION": 0,
            "TEXCOORD_0": 2
          },
          "indices": 3,
          "material": 0,
          "mode": 4
        }
      ]
    },
    {
      "name": "Object_1",
      "primitives": [
        {
          "attributes": {
            "NORMAL": 5,
            "POSITION": 4,
            "TEXCOORD_0": 6
          },
          "indices": 7,
          "material": 1,
          "mode": 4
        }
      ]
    },
    {
      "name": "Object_2",
      "primitives": [
        {
          "attributes": {
            "NORMAL": 9,
            "POSITION": 8,
            "TEXCOORD_0": 10
          },
          "indices": 11,
          "material": 2,
          "mode": 4
        }
      ]
    },
    {
      "name": "Object_3",
      "primitives": [
        {
          "attributes": {
            "NORMAL": 13,
            "POSITION": 12,
            "TEXCOORD_0": 14
          },
          "indices": 15,
          "material": 3,
          "mode": 4
        }
      ]
    },
    {
      "name": "Object_4",
      "primitives": [
        {
          "attributes": {
            "NORMAL": 17,
            "POSITION": 16,
            "TEXCOORD_0": 18
          },
          "indices": 19,
          "material": 4,
          "mode": 4
        }
      ]
    },
    {
      "name": "Object_5",
      "primitives": [
        {
          "attributes": {
            "NORMAL": 21,
            "POSITION": 20,
            "TEXCOORD_0": 22
          },
          "indices": 23,
          "material": 5,
          "mode": 4
        }
      ]
    },
    {
      "name": "Object_6",
      "primitives": [
        {
          "attributes": {
            "NORMAL": 25,
            "POSITION": 24,
            "TEXCOORD_0": 26
          },
          "indices": 27,
          "material": 6,
          "mode": 4
        }
      ]
    }
  ],
  "nodes": [
    {
      "children": [
        1
      ],
      "matrix": [
        1.0,
        0.0,
        0.0,
        0.0,
        0.0,
        2.220446049250313e-16,
        -1.0,
        0.0,
        0.0,
        1.0,
        2.220446049250313e-16,
        0.0,
        0.0,
        0.0,
        0.0,
        1.0
      ],
      "name": "Sketchfab_model"
    },
    {
      "children": [
        2,
        3,
        4,
        5,
        6,
        7,
        8
      ],
      "matrix": [
        1.0,
        0.0,
        0.0,
        0.0,
        0.0,
        1.0,
        0.0,
        0.0,
        0.0,
        0.0,
        1.0,
        0.0,
        -0.0010000000474974513,
        -0.0010000000474974513,
        -0.0010000000474974513,
        1.0
      ],
      "name": "3DSMeshMatrix"
    },
    {
      "mesh": 0,
      "name": "Object_2"
    },
    {
      "mesh": 1,
      "name": "Object_3"
    },
    {
      "mesh": 2,
      "name": "Object_4"
    },
    {
      "mesh": 3,
      "name": "Object_5"
    },
    {
      "mesh": 4,
      "name": "Object_6"
    },
    {
      "mesh": 5,
      "name": "Object_7"
    },
    {
      "mesh": 6,
      "name": "Object_8"
    }
  ],
  "scene": 0,
  "scenes": [
    {
      "name": "Sketchfab_Scene",
      "nodes": [
        0
      ]
    }
  ]
}
