<?xml version="1.0" encoding="UTF-8" standalone="no"?>
<svg
   width="32"
   height="32"
   viewBox="0 0 24.002959 24.002976"
   version="1.1"
   id="svg1"
   sodipodi:docname="threeDim_americaGlassesIcon.svg"
   inkscape:version="1.3.2 (091e20e, 2023-11-25, custom)"
   xmlns:inkscape="http://www.inkscape.org/namespaces/inkscape"
   xmlns:sodipodi="http://sodipodi.sourceforge.net/DTD/sodipodi-0.dtd"
   xmlns:xlink="http://www.w3.org/1999/xlink"
   xmlns="http://www.w3.org/2000/svg"
   xmlns:svg="http://www.w3.org/2000/svg">
  <defs
     id="defs1">
    <linearGradient
       id="linearGradient32"
       inkscape:collect="always">
      <stop
         style="stop-color:#2e91f5;stop-opacity:0.40043291;"
         offset="0"
         id="stop32" />
      <stop
         style="stop-color:#2e91f5;stop-opacity:0.85281384;"
         offset="0.90390879"
         id="stop33" />
    </linearGradient>
    <linearGradient
       id="linearGradient30"
       inkscape:collect="always">
      <stop
         style="stop-color:#f56314;stop-opacity:0.85281384;"
         offset="0.1009772"
         id="stop30" />
      <stop
         style="stop-color:#f56314;stop-opacity:0.40043291;"
         offset="1"
         id="stop31" />
    </linearGradient>
    <linearGradient
       inkscape:collect="always"
       xlink:href="#linearGradient30"
       id="linearGradient31"
       x1="0.18752318"
       y1="12.001484"
       x2="22.690304"
       y2="12.001484"
       gradientUnits="userSpaceOnUse" />
    <linearGradient
       inkscape:collect="always"
       xlink:href="#linearGradient32"
       id="linearGradient33"
       x1="1.3126487"
       y1="11.25113"
       x2="23.815457"
       y2="11.25113"
       gradientUnits="userSpaceOnUse" />
  </defs>
  <sodipodi:namedview
     id="namedview1"
     pagecolor="#ffffff"
     bordercolor="#000000"
     borderopacity="0.25"
     inkscape:showpageshadow="2"
     inkscape:pageopacity="0.0"
     inkscape:pagecheckerboard="0"
     inkscape:deskcolor="#d1d1d1"
     inkscape:document-units="mm"
     inkscape:zoom="11.313709"
     inkscape:cx="10.783378"
     inkscape:cy="15.070213"
     inkscape:window-width="1920"
     inkscape:window-height="1009"
     inkscape:window-x="-8"
     inkscape:window-y="-8"
     inkscape:window-maximized="1"
     inkscape:current-layer="svg1" />
  <path
     id="path1-7"
     style="display:inline;fill:url(#linearGradient33);fill-opacity:1;stroke:#2e91f5;stroke-width:0.300037;stroke-linecap:round;stroke-linejoin:round;stroke-dasharray:none;stroke-opacity:1"
     d="M 5.3815585,7.8708571 C 5.7230207,8.3255215 4.959957,10.621734 4.6391213,10.846184 4.3182854,11.070635 2.2998805,11.37082 2.1033819,10.898657 1.9068833,10.426495 2.4219016,8.7711909 3.0233676,8.2143964 3.6248334,7.6576018 5.0400952,7.4161929 5.3815585,7.8708571 Z m 9.9509375,0.198548 c 0.539651,-0.1834539 1.263655,-0.3375449 1.71216,-0.3733824 0.595632,-0.047594 1.182917,-0.057986 1.783834,-0.025925 0.351047,0.018729 0.920391,0.044944 1.508779,0.1306298 0.676226,0.09848 2.288537,0.3558437 1.909715,0.685522 -0.216924,0.1887817 -0.728292,0.060666 -1.185341,-0.01349 -0.457049,-0.074156 -0.796435,-0.1454973 -1.646306,-0.1840661 -0.849872,-0.038567 -2.404387,0.00983 -2.891263,0.067968 -0.67715,0.080843 -0.696599,0.09816 -1.125725,0.1881986 -0.429125,0.09004 -1.433481,0.4494779 -1.617193,0.2859034 -0.18371,-0.1635751 1.01169,-0.5779034 1.55134,-0.7613583 z M 11.0293,8.4862498 C 10.808035,8.5441998 9.8581042,8.4256458 9.444727,8.3986778 9.0313506,8.3717098 7.0846212,8.3010428 6.8230369,8.3010428 c -0.2615835,0 -0.4890035,0.028476 -0.6450729,-0.07952 C 6.0218938,8.1135255 6.0523203,7.8246063 6.216953,7.75612 6.3815844,7.687633 6.4589851,7.672637 7.1812172,7.712491 7.7688599,7.756801 11.579863,8.1064005 11.029302,8.4862488 m 4.365923,0.555708 c 0.646212,-0.09097 1.27575,-0.08061 1.649025,-0.094741 0.373271,-0.014134 1.075475,-0.014134 1.448748,0 0.373275,0.014134 0.449036,0.012564 0.822142,0.036716 0.373106,0.024152 0.878719,0.05732 1.416835,0.1009164 0.538117,0.043597 1.584776,0.1989193 1.728688,0.2306633 0.143911,0.03175 0.499116,0.131254 0.456289,0.347518 -0.04283,0.216265 -0.390503,0.20546 -0.472818,0.203483 -0.08231,-0.002 -0.647889,-0.07295 -1.580455,-0.134996 -0.932564,-0.06204 -3.227788,-0.157086 -4.014935,-0.179321 -0.787148,-0.02224 -1.153508,-0.02195 -1.521254,-0.01358 -0.367747,0.0083 -1.412714,0.172556 -1.459401,-0.04131 -0.0467,-0.213861 0.880922,-0.3643901 1.527136,-0.4553594 z m -4.102517,0.3003717 c -0.22291,0.05432 -1.274012,0.0728 -1.4971347,0.08041 -0.2231214,0.0076 -0.6117329,0.03135 -1.0711036,0.0513 -0.4593709,0.01996 -1.1926837,0.04862 -1.5804535,0.06586 -0.3877698,0.01724 -0.6282836,0.0396 -0.8047837,0.04482 -0.1765011,0.0052 -0.5790062,-0.014 -0.6202591,-0.246322 -0.052413,-0.2951496 0.4970083,-0.3846297 1.0957805,-0.3911536 0.5987722,-0.00653 5.1038211,0.098287 4.4779541,0.3951136 v -1.2e-5 M 9.778106,10.42298 c -0.2410185,0.04018 -1.8212604,0.27341 -2.3164739,0.332208 -0.5474668,0.05445 -1.084138,0.120894 -1.6320271,0.15247 -0.1623262,-0.0293 -0.4117678,-0.145632 -0.2765792,-0.366139 0.1392762,-0.227173 1.1260737,-0.275262 1.2617281,-0.288432 0.1356565,-0.01318 2.4038923,-0.252073 3.095057,-0.2996275 1.0919591,-0.07512 1.3219771,0.06867 1.0735991,0.2006055 -0.185934,0.09396 -0.714828,0.194344 -1.205307,0.268915 z m 4.264308,-0.383567 c 0.07307,-0.1949925 1.160581,-0.1108285 1.694693,-0.045469 0.534111,0.065349 1.640142,0.186668 2.297897,0.244589 0.625728,0.04337 0.864106,0.063 1.379986,0.09753 0.515879,0.03452 1.328126,0.0939 1.712158,0.126436 0.553169,0.04687 1.097463,0.091 1.646307,0.13237 0.216044,0.03435 0.43199,0.149486 0.351651,0.384578 -0.08034,0.235091 -0.393797,0.20513 -0.483356,0.206776 -0.08956,0.0017 -0.113407,0.0024 -0.263409,0 -0.150003,-0.0024 -0.863539,-0.02588 -1.167873,-0.04548 -0.143592,-0.0092 -1.336736,-0.09275 -2.058889,-0.163281 -0.68176,-0.06658 -1.986822,-0.260603 -2.699941,-0.366138 -0.713119,-0.105535 -1.105789,-0.167139 -1.580452,-0.253532 -0.474667,-0.08639 -0.901841,-0.12338 -0.828772,-0.318373 z m 0.374987,0.780099 c 0.0562,-0.221683 1.515956,0.160993 2.260745,0.326282 0.744788,0.16529 3.038459,0.54782 3.790317,0.639009 0.356297,0.03318 0.357863,0.03521 0.790227,0.05992 0.432364,0.02471 1.699949,0.03756 1.689665,0.284095 -0.01028,0.246539 -0.481694,0.315799 -1.228699,0.30857 -0.453791,-0.0044 -1.388533,-0.06182 -2.349718,-0.223041 -1.381047,-0.23163 -2.852811,-0.533221 -3.33867,-0.669777 -0.826191,-0.23221 -1.67007,-0.503381 -1.613867,-0.725064 z m -3.73646,0.179672 C 10.50519,11.117068 9.7517812,11.353532 8.9220259,11.599758 8.091128,11.846321 5.2014843,12.27726 4.9050387,12.31162 4.6085933,12.34598 4.3986282,12.35709 3.8702587,12.37324 3.3418891,12.3894 2.1569299,12.44737 2.010278,12.37914 1.8636261,12.31083 1.8212882,12.113793 1.930073,11.945139 c 0.1087881,-0.16865 0.8866845,-0.146471 1.3286571,-0.166192 0.3928264,-0.01753 1.041182,-0.06308 1.4458383,-0.103704 0.4950992,-0.04972 3.1652112,-0.386392 3.6848151,-0.495555 0.5196049,-0.109161 2.7471585,-0.486021 2.2915565,-0.180428 z m 4.208192,0.548308 c 0.172919,-0.04845 1.998851,0.813886 2.771203,1.022097 0.772618,0.208283 3.456422,0.522857 4.245461,0.540992 0.346714,0.0079 0.438321,-0.0074 0.599047,0.04659 0.165012,0.05541 0.09939,0.387958 0,0.482698 -0.102816,0.098 -0.136645,0.102399 -1.180073,0.114582 -0.791357,-0.01652 -2.173283,-0.188196 -3.355011,-0.511107 -0.654656,-0.178887 -1.235765,-0.450598 -1.649761,-0.657771 -1.286314,-0.667209 -1.603786,-0.989626 -1.430866,-1.038074 z m -4.518358,0.09968 c -0.02604,0.223351 -0.4610873,0.4209 -1.3170452,0.839617 -0.4787602,0.227842 -1.4665592,0.5515 -2.4097547,0.77814 -0.7763802,0.186555 -1.5127643,0.323398 -1.8047892,0.35781 -0.5736536,0.0676 -1.7198351,0.01916 -1.8438634,0 -0.124028,-0.01917 -0.8561813,-0.104232 -0.8922973,-0.329274 -0.036118,-0.225041 0.1605029,-0.240264 0.237068,-0.242994 0.076568,-0.0027 0.8058011,0.04998 1.1161961,0.04544 0.3103948,-0.0046 0.6387324,-0.02054 0.987783,-0.06586 0.3490506,-0.04532 2.6509779,-0.533714 3.1085046,-0.663963 0.4575267,-0.130249 2.8442461,-0.942283 2.8181991,-0.718931 z m 5.110627,0.93829 c 0.06767,-0.08471 0.873183,0.547007 1.497133,0.885159 0.62395,0.338151 1.545871,0.759933 2.568237,0.870566 1.022367,0.110634 1.374231,0.06142 1.843863,0 0.469634,-0.06141 0.877281,-0.137754 0.790228,0.137632 -0.08705,0.275386 -1.333266,0.543362 -2.095627,0.481345 -0.730427,-0.05941 -1.244204,-0.177439 -1.840399,-0.401181 -0.775095,-0.29088 -1.390625,-0.646546 -1.798944,-0.926643 -0.719598,-0.493628 -1.032166,-0.962158 -0.964491,-1.046878 z m -6.2242929,0.312904 c 0.070061,0.08255 -0.3169746,0.42343 -0.9936055,0.852787 -0.3929814,0.249367 -1.0579057,0.615478 -1.7878302,0.855039 -0.5268503,0.172911 -1.0481285,0.245568 -1.5047827,0.267742 -0.9077005,0.04408 -1.1424196,-0.0059 -1.5804534,-0.140267 -0.4380339,-0.134372 -0.764272,-0.302579 -0.7243754,-0.518257 0.039476,-0.213413 0.7993586,0.007 1.2511929,0.06586 0.4711401,0.06141 1.5343575,0.02305 2.3706806,-0.174508 0.8363231,-0.197557 1.709269,-0.594165 2.0927165,-0.814765 0.3834476,-0.220602 0.8064013,-0.476185 0.8764572,-0.393628 z M 13.490648,9.8640265 c 0.163992,0.6496755 0.454526,1.3166735 0.760363,1.8489575 0.305836,0.53229 0.363115,0.582941 0.896246,1.251191 0.533132,0.668253 2.788418,2.615995 4.614927,2.831647 1.208918,0.07567 1.789865,-0.05729 2.502387,-0.618353 0.712519,-0.56106 1.03501,-1.118317 1.308483,-2.344998 0.273474,-1.226682 -0.01943,-4.3959671 -1.571892,-5.3590552 -1.552467,-0.9630883 -3.453231,-0.7771319 -4.19813,-0.7870919 -0.744898,-0.00996 -1.59481,-0.00112 -2.518801,0 -0.47789,5.9e-4 -1.597646,-2.7e-4 -2.720179,0.00223 -1.122534,-0.00248 -2.242292,-0.00162 -2.7201817,-0.00221 -0.9239908,-0.00112 -1.7739027,-0.00996 -2.518801,0 C 6.5801748,6.6963034 4.6794102,6.5103461 3.1269449,7.4734343 1.5744796,8.4365225 1.2815783,11.605808 1.5550514,12.83249 c 0.273473,1.226681 0.5959643,1.783938 1.3084848,2.344998 0.7125203,0.561061 1.2959938,0.727112 2.5023854,0.618353 1.872705,-0.168828 4.0817949,-2.163393 4.6149258,-2.831646 0.5331726,-0.66825 0.5904536,-0.718902 0.8962906,-1.251191 0.305837,-0.532289 0.59637,-1.199287 0.760362,-1.8489625 0.16259,-0.6441277 0.22451,-1.1659938 0.926574,-1.1748647 0.702065,0.00886 0.763984,0.5307225 0.926574,1.1748497 z" />
  <path
     id="path1"
     style="display:inline;fill:url(#linearGradient31);stroke:#f56314;stroke-width:0.30001;stroke-linecap:round;stroke-linejoin:round;stroke-dasharray:none;stroke-opacity:1"
     d="M 4.2564193,8.6212106 C 4.5978815,9.075875 3.8348178,11.372088 3.5139821,11.596538 3.1931462,11.820989 1.1747413,12.121174 0.97824273,11.649011 0.78174413,11.176849 1.2967624,9.5215444 1.8982284,8.9647499 2.4996942,8.4079553 3.914956,8.1665464 4.2564193,8.6212106 Z m 9.9509377,0.198548 c 0.539651,-0.1834539 1.263655,-0.3375449 1.71216,-0.3733824 0.595632,-0.047594 1.182917,-0.057986 1.783834,-0.025925 0.351047,0.018729 0.920391,0.044944 1.508779,0.1306298 0.676226,0.09848 2.288537,0.3558437 1.909715,0.685522 -0.216924,0.1887817 -0.728292,0.060666 -1.185341,-0.01349 -0.457049,-0.074156 -0.796435,-0.1454973 -1.646306,-0.1840661 -0.849872,-0.038567 -2.404387,0.00983 -2.891263,0.067968 -0.67715,0.080843 -0.696599,0.09816 -1.125725,0.1881986 -0.429125,0.09004 -1.433481,0.4494779 -1.617193,0.2859034 -0.18371,-0.1635751 1.01169,-0.5779034 1.55134,-0.7613583 z M 9.904161,9.2366033 C 9.682896,9.294553 8.732965,9.1759997 8.3195878,9.1490318 7.9062114,9.1220641 5.959482,9.0513971 5.6978977,9.0513971 c -0.2615835,0 -0.4890035,0.028476 -0.6450729,-0.07952 C 4.8967546,8.863879 4.9271811,8.5749598 5.0918138,8.5064735 5.2564452,8.4379865 5.3338459,8.4229905 6.056078,8.4628445 c 0.5876427,0.04431 4.398646,0.3939095 3.848085,0.7737578 m 4.365923,0.555708 c 0.646212,-0.09097 1.27575,-0.08061 1.649025,-0.094741 0.373271,-0.014134 1.075475,-0.014134 1.448748,0 0.373275,0.014134 0.449036,0.012564 0.822142,0.036716 0.373106,0.024152 0.878719,0.05732 1.416835,0.1009164 0.538117,0.043597 1.584776,0.1989193 1.728688,0.2306633 0.143911,0.03175 0.499116,0.131254 0.456289,0.347518 -0.04283,0.216265 -0.390503,0.20546 -0.472818,0.203483 -0.08231,-0.002 -0.647889,-0.07295 -1.580455,-0.134996 -0.932564,-0.06204 -3.227788,-0.157086 -4.014935,-0.179321 -0.787148,-0.02224 -1.153508,-0.02195 -1.521254,-0.01358 -0.367747,0.0083 -1.412714,0.172556 -1.459401,-0.04131 -0.0467,-0.213861 0.880922,-0.3643901 1.527136,-0.4553594 z m -4.102517,0.3003717 c -0.22291,0.05432 -1.2740123,0.0728 -1.4971349,0.08041 -0.2231214,0.0076 -0.6117329,0.03135 -1.0711036,0.0513 -0.4593709,0.01996 -1.1926837,0.04862 -1.5804535,0.06586 -0.3877698,0.01724 -0.6282836,0.0396 -0.8047837,0.04482 -0.1765011,0.0052 -0.5790062,-0.014 -0.6202591,-0.246322 -0.052413,-0.2951496 0.4970083,-0.3846297 1.0957805,-0.3911536 0.5987722,-0.00653 5.1038213,0.098287 4.4779543,0.3951136 v -1.2e-5 m -1.5146022,1.080636 c -0.2410185,0.04018 -1.8212604,0.27341 -2.3164739,0.332208 -0.5474668,0.05445 -1.084138,0.120894 -1.6320271,0.15247 C 4.5421396,11.628712 4.292698,11.51238 4.4278866,11.291873 4.5671628,11.0647 5.5539603,11.016611 5.6896147,11.003441 c 0.1356565,-0.01318 2.4038923,-0.252073 3.095057,-0.299628 1.0919593,-0.07512 1.3219773,0.06867 1.0735993,0.200606 -0.185934,0.09396 -0.7148281,0.194344 -1.2053072,0.268915 z m 4.2643082,-0.383567 c 0.07307,-0.194993 1.160581,-0.110829 1.694693,-0.04547 0.534111,0.06535 1.640142,0.186668 2.297897,0.244589 0.625728,0.04337 0.864106,0.063 1.379986,0.09753 0.515879,0.03452 1.328126,0.0939 1.712158,0.126436 0.553169,0.04687 1.097463,0.091 1.646307,0.13237 0.216044,0.03435 0.43199,0.149486 0.351651,0.384578 -0.08034,0.235091 -0.393797,0.20513 -0.483356,0.206776 -0.08956,0.0017 -0.113407,0.0024 -0.263409,0 -0.150003,-0.0024 -0.863539,-0.02588 -1.167873,-0.04548 -0.143592,-0.0092 -1.336736,-0.09275 -2.058889,-0.163281 -0.68176,-0.06658 -1.986822,-0.260603 -2.699941,-0.366138 -0.713119,-0.105535 -1.105789,-0.167139 -1.580452,-0.253532 -0.474667,-0.08639 -0.901841,-0.12338 -0.828772,-0.318373 z m 0.374987,0.780099 c 0.0562,-0.221683 1.515956,0.160993 2.260745,0.326282 0.744788,0.16529 3.038459,0.54782 3.790317,0.639009 0.356297,0.03318 0.357863,0.03521 0.790227,0.05992 0.432364,0.02471 1.699949,0.03756 1.689665,0.284095 -0.01028,0.246539 -0.481694,0.315799 -1.228699,0.30857 -0.453791,-0.0044 -1.388533,-0.06182 -2.349718,-0.223041 -1.381047,-0.23163 -2.852811,-0.533221 -3.33867,-0.669777 -0.826191,-0.23221 -1.67007,-0.503381 -1.613867,-0.725064 z m -3.73646,0.179672 c -0.1757512,0.117884 -0.92916,0.354348 -1.7589153,0.600574 -0.8308979,0.246563 -3.7205416,0.677502 -4.0169872,0.711862 -0.2964454,0.03436 -0.5064105,0.04547 -1.03478,0.06162 -0.5283696,0.01616 -1.7133288,0.07413 -1.85998067,0.0059 -0.1466519,-0.06831 -0.1889898,-0.265347 -0.080205,-0.434001 0.1087881,-0.16865 0.88668447,-0.146471 1.32865707,-0.166192 0.3928264,-0.01753 1.041182,-0.06308 1.4458383,-0.103704 0.4950992,-0.04972 3.1652112,-0.386392 3.6848151,-0.495555 0.5196049,-0.109161 2.7471587,-0.486021 2.2915567,-0.180428 z m 4.208192,0.548308 c 0.172919,-0.04845 1.998851,0.813886 2.771203,1.022097 0.772618,0.208283 3.456422,0.522857 4.245461,0.540992 0.346714,0.0079 0.438321,-0.0074 0.599047,0.04659 0.165012,0.05541 0.09939,0.387958 0,0.482698 -0.102816,0.098 -0.136645,0.102399 -1.180073,0.114582 -0.791357,-0.01652 -2.173283,-0.188196 -3.355011,-0.511107 C 16.189965,13.814811 15.608856,13.5431 15.19486,13.335927 13.908546,12.668718 13.591074,12.346301 13.763994,12.297853 Z m -4.5183578,0.09968 c -0.026043,0.223351 -0.4610877,0.4209 -1.3170456,0.839617 -0.4787602,0.227842 -1.4665592,0.5515 -2.4097547,0.77814 -0.7763802,0.186555 -1.5127643,0.323398 -1.8047892,0.35781 -0.5736536,0.0676 -1.7198351,0.01916 -1.8438634,0 -0.124028,-0.01917 -0.8561813,-0.104232 -0.89229727,-0.329274 -0.036118,-0.225041 0.16050287,-0.240264 0.23706797,-0.242994 0.076568,-0.0027 0.8058011,0.04998 1.1161961,0.04544 0.3103948,-0.0046 0.6387324,-0.02054 0.987783,-0.06586 0.3490506,-0.04532 2.6509779,-0.533714 3.1085046,-0.663963 0.4575267,-0.130249 2.8442463,-0.942283 2.8181986,-0.718931 z m 5.1106268,0.93829 c 0.06767,-0.08471 0.873183,0.547007 1.497133,0.885159 0.62395,0.338151 1.545871,0.759933 2.568237,0.870566 1.022367,0.110634 1.374231,0.06142 1.843863,0 0.469634,-0.06141 0.877281,-0.137754 0.790228,0.137632 -0.08705,0.275386 -1.333266,0.543362 -2.095627,0.481345 -0.730427,-0.05941 -1.244204,-0.177439 -1.840399,-0.401181 -0.775095,-0.29088 -1.390625,-0.646546 -1.798944,-0.926643 -0.719598,-0.493628 -1.032166,-0.962158 -0.964491,-1.046878 z M 8.1319699,13.64872 c 0.070061,0.08255 -0.3169746,0.42343 -0.9936055,0.852787 -0.3929814,0.249367 -1.0579057,0.615478 -1.7878302,0.855039 -0.5268503,0.172911 -1.0481285,0.245568 -1.5047827,0.267742 -0.9077005,0.04408 -1.1424196,-0.0059 -1.5804534,-0.140267 -0.4380339,-0.134372 -0.764272,-0.302579 -0.7243754,-0.518257 0.039476,-0.213413 0.7993586,0.007 1.2511929,0.06586 0.4711401,0.06141 1.5343575,0.02305 2.3706806,-0.174508 0.8363231,-0.197557 1.709269,-0.594165 2.0927165,-0.814765 0.3834476,-0.220602 0.8064013,-0.476185 0.8764572,-0.393628 z m 4.2335391,-3.03434 c 0.163992,0.649676 0.454526,1.316674 0.760363,1.848958 0.305836,0.53229 0.363115,0.582941 0.896246,1.251191 0.533132,0.668253 2.788418,2.615995 4.614927,2.831647 1.208918,0.07567 1.789865,-0.05729 2.502387,-0.618353 0.712519,-0.56106 1.03501,-1.118317 1.308483,-2.344998 0.273474,-1.226682 -0.01943,-4.3959676 -1.571892,-5.3590557 -1.552467,-0.9630883 -3.453231,-0.7771319 -4.19813,-0.7870919 -0.744898,-0.00996 -1.59481,-0.00112 -2.518801,0 -0.47789,5.9e-4 -1.597646,-2.7e-4 -2.720179,0.00223 -1.122534,-0.00248 -2.242292,-0.00162 -2.7201819,-0.00221 -0.9239908,-0.00112 -1.7739027,-0.00996 -2.518801,0 C 5.4550356,7.4466569 3.554271,7.2606996 2.0018057,8.2237878 0.44934043,9.186876 0.15643917,12.356162 0.42991225,13.582844 c 0.27347298,1.226681 0.59596425,1.783938 1.30848475,2.344998 0.7125203,0.561061 1.2959938,0.727112 2.5023854,0.618353 1.872705,-0.168828 4.0817949,-2.163393 4.6149258,-2.831646 0.5331726,-0.66825 0.5904538,-0.718902 0.8962908,-1.251191 0.305837,-0.532289 0.59637,-1.199287 0.760362,-1.848963 0.16259,-0.6441277 0.22451,-1.1659938 0.926574,-1.1748647 0.702065,0.00886 0.763984,0.5307225 0.926574,1.1748497 z" />
</svg>
