<?xml version="1.0" encoding="UTF-8" standalone="no"?>
<svg
   width="32"
   height="32"
   viewBox="0 0 99.999697 100.00033"
   version="1.1"
   id="svg1"
   sodipodi:docname="threeDim_classicalCurlyBeardIcon.svg"
   inkscape:version="1.3.2 (091e20e, 2023-11-25, custom)"
   xmlns:inkscape="http://www.inkscape.org/namespaces/inkscape"
   xmlns:sodipodi="http://sodipodi.sourceforge.net/DTD/sodipodi-0.dtd"
   xmlns:xlink="http://www.w3.org/1999/xlink"
   xmlns="http://www.w3.org/2000/svg"
   xmlns:svg="http://www.w3.org/2000/svg">
  <defs
     id="defs1">
    <linearGradient
       id="linearGradient4"
       inkscape:collect="always">
      <stop
         style="stop-color:#2e92f5;stop-opacity:0.40043291;"
         offset="0"
         id="stop5" />
      <stop
         style="stop-color:#2e92f5;stop-opacity:0.84848487;"
         offset="0.89902282"
         id="stop4" />
    </linearGradient>
    <linearGradient
       id="linearGradient2"
       inkscape:collect="always">
      <stop
         style="stop-color:#f56314;stop-opacity:0.84848487;"
         offset="0.1009772"
         id="stop2" />
      <stop
         style="stop-color:#f56314;stop-opacity:0.40476191;"
         offset="1"
         id="stop3" />
    </linearGradient>
    <linearGradient
       inkscape:collect="always"
       xlink:href="#linearGradient2"
       id="linearGradient3"
       x1="0.78093611"
       y1="50.000165"
       x2="94.531641"
       y2="50.000165"
       gradientUnits="userSpaceOnUse" />
    <linearGradient
       inkscape:collect="always"
       xlink:href="#linearGradient4"
       id="linearGradient5"
       x1="5.4684516"
       y1="46.876231"
       x2="99.219159"
       y2="46.876231"
       gradientUnits="userSpaceOnUse" />
  </defs>
  <sodipodi:namedview
     id="namedview1"
     pagecolor="#ffffff"
     bordercolor="#000000"
     borderopacity="0.25"
     inkscape:showpageshadow="2"
     inkscape:pageopacity="0.0"
     inkscape:pagecheckerboard="0"
     inkscape:deskcolor="#d1d1d1"
     inkscape:document-units="in"
     inkscape:zoom="16.881285"
     inkscape:cx="12.321337"
     inkscape:cy="16.142136"
     inkscape:window-width="1920"
     inkscape:window-height="1009"
     inkscape:window-x="-8"
     inkscape:window-y="-8"
     inkscape:window-maximized="1"
     inkscape:current-layer="svg1" />
  <path
     id="path55"
     style="fill:url(#linearGradient5);fill-opacity:1;stroke:#2e92f5;stroke-width:1.87501;stroke-linecap:round;stroke-linejoin:round;stroke-dasharray:none;stroke-opacity:1"
     d="m 44.069466,24.941209 c -2.518098,0.914378 -3.041925,2.622056 -4.192461,4.787461 -0.868306,1.634191 -1.832378,2.825881 -2.405912,4.096392 -0.482393,1.068554 -0.68395,2.288194 -0.585196,2.957806 0.17378,1.178245 0.758745,1.359242 1.726588,1.818993 0.967845,0.459752 2.54204,0.753238 4.039015,0.572538 1.496999,-0.180673 4.257796,-0.475363 4.793353,-0.704912 0.535602,-0.22951 1.109212,-0.341016 1.973746,-0.845887 0.864554,-0.504862 1.681691,-1.274546 2.648397,-1.317538 0.924742,-0.04109 1.450065,0.652523 2.371566,0.740323 0.819728,0.07814 0.840231,0.06611 2.009368,-0.54499 1.169142,-0.611072 0.626963,-0.197128 3.593812,-1.536468 2.137934,-0.965138 1.960127,-1.490519 1.687935,-2.196032 -0.272179,-0.705519 -2.11691,-3.290149 -3.998549,-5.567142 -0.963378,-1.165772 -1.878479,-2.53227 -3.440193,-2.973418 -1.173332,-0.331431 -1.854706,0.507362 -3.665505,0.535727 -1.810811,0.02835 -4.037855,-0.737216 -6.555964,0.177147 z M 78.549854,14.002752 80.929625,9.4800724 c 0.321429,-1.144768 -0.05076,-2.472812 0.437033,-3.2848626 0.634422,-0.9417543 2.484101,-1.3872552 3.29897,0 0.496264,0.7697566 0.380644,2.5996936 0.369375,3.5781026 -0.02526,2.1006206 -0.603404,2.9013916 -0.422955,4.2294396 0.380666,2.816793 1.897611,3.428659 2.529211,5.357278 l 1.440821,7.894953 c 0.874092,3.411738 2.264161,5.464428 2.60534,6.767094 l 0.764099,7.331022 c 0.445504,1.95681 1.703063,3.214366 1.739717,4.511392 0.04235,1.449288 -0.899462,2.887305 -0.73592,5.075341 l 1.017879,5.63924 0.377844,5.639247 c 0.172001,3.56118 3.194618,6.846035 3.685235,8.17691 0.437055,1.184241 0.265056,3.665508 -0.397573,4.742596 -0.273485,0.442693 -0.625949,0.755673 -1.068631,1.020698 -3.152326,1.889158 -4.046159,-1.748164 -5.884536,-1.894769 -1.161701,-0.09309 -1.342148,1.595902 -2.836558,1.920166 -1.525417,0.329894 -2.472795,-1.198356 -3.366628,-1.514136 -1.776376,-0.628789 -1.048906,2.515082 -2.859098,3.157972 -0.812044,0.290422 -1.939889,-0.248141 -2.791433,-0.363739 -1.375967,-0.191725 -2.777334,0.248143 -3.94748,0.961487 -1.480294,0.902276 -1.697406,1.641032 -2.399477,2.148563 -0.800777,0.575212 -1.970925,0.507539 -2.760417,1.457735 -0.775411,0.936119 -0.521636,1.982215 -1.48594,3.307425 -1.539532,2.111915 -5.190945,3.189003 -7.734239,3.09031 -2.12881,-0.08459 -5.357278,-0.927658 -6.245454,-3.09031 -0.301709,-0.74156 -0.214301,-1.483106 -0.231225,-2.255696 -0.04232,-2.171108 -1.767535,-2.791805 -2.558445,-3.410725 -0.790889,-0.618901 -1.126392,-1.42288 -1.953261,-1.282225 -0.826841,0.140693 -1.231851,1.379892 -2.086205,3.001177 -0.594931,1.133484 -0.391936,1.928623 -1.144774,2.701202 -1.25755,1.297025 -3.640133,0.984033 -5.236048,0.704893 C 39.59112,84.541274 37.947269,84.076044 36.856099,83.024314 36.032752,82.229184 35.702854,81.208487 35.102278,80.2639 34.022355,78.563682 30.20459,73.945129 28.360551,73.389663 27.16786,73.031568 25.721386,74.01279 23.849161,73.054119 21.954376,72.087002 17.409132,67.874465 16.103656,66.165789 L 14.882754,64.231531 C 13.960738,63.047288 11.944706,63.019083 10.430568,60.244587 8.8966915,57.43059 9.4831733,54.568669 9.0376727,52.631602 8.6852208,51.094901 7.9774951,50.626826 7.5573708,48.402172 c -0.1015063,-1.015064 -0.050752,-1.81021 0,-2.819643 L 7.1316082,41.353099 C 6.9370541,39.881263 6.3195562,38.259975 6.418243,36.841708 6.6917466,32.995723 7.5714689,32.211874 8.4088984,28.946753 l 0.473696,-3.383545 1.8496736,-7.331025 0.194553,-2.537657 c 0.124064,-1.229359 1.327772,-5.327063 1.564367,-5.8658686 0.236597,-0.538804 0.529205,-1.169096 0.967656,-1.758398 0.43845,-0.589301 2.633782,-2.442932 2.795782,-2.1388478 0.162111,0.3042917 0.784172,4.4700504 -0.01849,6.6615294 -0.802663,2.19148 2.608541,0.912767 3.665518,-0.563934 1.056977,-1.476701 1.409812,-0.54701 1.246273,0.569574 -0.954365,7.444278 0.524431,1.025844 1.525408,3.394824 0.142042,1.542997 -0.03386,2.424872 0,3.341255 -0.07889,1.147578 -0.0011,1.165588 -0.457871,3.0209 0.955859,-0.874082 1.487041,-1.464469 1.633661,-2.713568 h 0.845886 c 0.335306,1.553361 0.59288,4.293937 1.691771,0.563922 1.815836,0.107146 2.323367,0.501894 1.409811,2.255699 3.346894,-1.406982 3.544268,-0.383469 5.639255,-1.237806 l 1.973732,-1.068646 c 1.206813,-0.611849 4.982272,-2.165466 6.20318,-2.199301 1.094023,-0.03388 2.134449,-0.03103 3.09594,0.561111 1.110944,0.679521 1.421095,1.505677 2.083707,2.14291 1.57617,1.51413 3.307413,1.683308 5.252949,0.955845 -0.476511,-0.516258 -0.486256,-0.970956 0,-0.845886 l 1.127866,0.281963 c 0.721816,-1.491575 2.780156,-3.087483 4.51139,-3.124139 0.623136,-0.01406 0.110194,-0.168837 2.255699,0.586481 2.145505,0.755317 0.970304,-1.322272 2.297994,-1.801746 1.327689,-0.479474 1.816535,0.875578 3.059296,1.779189 1.24276,0.903611 6.604306,4.550317 8.192771,3.926663 1.588464,-0.623654 1.839998,-3.245199 2.12519,-4.208962 0.285191,-0.963762 0.492472,-5.844743 2.934261,-4.206537 z"
     sodipodi:nodetypes="ccccsccccccsccssccccccccccccccccccccccccccccccsccccccccccccccccccccssszzccccccccccccccccczzzzzcc" />
  <path
     id="path55-8"
     style="fill:url(#linearGradient3);fill-opacity:1;stroke:#f56314;stroke-width:1.87501;stroke-linecap:round;stroke-linejoin:round;stroke-dasharray:none;stroke-opacity:1"
     d="m 39.38195,28.065143 c -2.518098,0.914378 -3.041925,2.622056 -4.192461,4.787461 -0.868306,1.634191 -1.832378,2.825881 -2.405912,4.096392 -0.482393,1.068554 -0.68395,2.288194 -0.585196,2.957806 0.17378,1.178245 0.758745,1.359242 1.726588,1.818993 0.967845,0.459752 2.54204,0.753238 4.039015,0.572538 1.496999,-0.180673 4.257796,-0.475363 4.793353,-0.704912 0.535602,-0.22951 1.109212,-0.341016 1.973746,-0.845887 0.864554,-0.504862 1.681691,-1.274546 2.648397,-1.317538 0.924742,-0.04109 1.450065,0.652523 2.371566,0.740323 0.819728,0.07814 0.840231,0.06611 2.009368,-0.54499 1.169142,-0.611072 0.626963,-0.197128 3.593812,-1.536468 2.137934,-0.965138 1.960127,-1.490519 1.687935,-2.196032 -0.272179,-0.705519 -2.11691,-3.290149 -3.998549,-5.567142 -0.963378,-1.165772 -1.878479,-2.53227 -3.440193,-2.973418 -1.173332,-0.331431 -1.854706,0.507362 -3.665505,0.535727 -1.810811,0.02835 -4.037855,-0.737216 -6.555964,0.177147 z m 34.48039,-10.938457 2.37977,-4.52268 c 0.32143,-1.144768 -0.0508,-2.472812 0.43703,-3.2848622 0.63442,-0.941755 2.4841,-1.387256 3.29897,0 0.49627,0.7697562 0.38065,2.5996932 0.36938,3.5781022 -0.0253,2.100621 -0.60341,2.901392 -0.42296,4.22944 0.38067,2.816793 1.89761,3.428659 2.52921,5.357278 l 1.44082,7.894953 c 0.8741,3.411738 2.26417,5.464428 2.60534,6.767094 l 0.7641,7.331022 c 0.44551,1.95681 1.70307,3.214366 1.73972,4.511392 0.0423,1.449288 -0.89946,2.887305 -0.73592,5.075341 l 1.01788,5.63924 0.37784,5.639247 c 0.172,3.56118 3.19462,6.846035 3.68524,8.17691 0.43705,1.184241 0.26505,3.665508 -0.39757,4.742596 -0.27349,0.442693 -0.62595,0.755673 -1.06864,1.020698 -3.15232,1.889158 -4.04615,-1.748164 -5.88453,-1.894769 -1.1617,-0.09309 -1.34215,1.595902 -2.83656,1.920166 -1.52542,0.329894 -2.47279,-1.198356 -3.36663,-1.514136 -1.77637,-0.628789 -1.0489,2.515082 -2.8591,3.157972 -0.81204,0.290422 -1.93988,-0.248141 -2.79143,-0.363739 -1.37597,-0.191725 -2.77733,0.248143 -3.94748,0.961487 -1.48029,0.902276 -1.6974,1.641032 -2.39948,2.148563 -0.80077,0.575212 -1.97092,0.507539 -2.76041,1.457735 -0.77541,0.936119 -0.52164,1.982215 -1.48594,3.307425 -1.53953,2.111915 -5.190948,3.189003 -7.734242,3.09031 -2.12881,-0.08459 -5.357278,-0.927658 -6.245454,-3.09031 -0.301709,-0.74156 -0.214301,-1.483106 -0.231225,-2.255696 -0.04232,-2.171108 -1.767535,-2.791805 -2.558445,-3.410725 -0.790889,-0.618901 -1.126392,-1.42288 -1.953261,-1.282225 -0.826841,0.140693 -1.231851,1.379892 -2.086205,3.001177 -0.594931,1.133484 -0.391936,1.928623 -1.144774,2.701202 -1.25755,1.297025 -3.640133,0.984033 -5.236048,0.704893 -1.457732,-0.256579 -3.101583,-0.721809 -4.192753,-1.773539 -0.823347,-0.79513 -1.153245,-1.815827 -1.753821,-2.760414 -1.079923,-1.700218 -4.897688,-6.318771 -6.741727,-6.874237 -1.192691,-0.358095 -2.639165,0.623127 -4.51139,-0.335544 -1.894785,-0.967117 -6.440029,-5.179654 -7.745505,-6.88833 L 10.195238,67.355465 C 9.2732222,66.171222 7.2571906,66.143017 5.7430526,63.368521 c -1.533877,-2.813997 -0.947395,-5.675918 -1.392895,-7.612985 -0.352452,-1.536701 -1.060178,-2.004776 -1.480302,-4.22943 -0.101507,-1.015064 -0.05075,-1.81021 0,-2.819643 l -0.425763,-4.22943 c -0.194554,-1.471836 -0.812052,-3.093124 -0.713365,-4.511391 0.273504,-3.845985 1.153226,-4.629834 1.990655,-7.894955 l 0.473696,-3.383545 1.849674,-7.331025 0.194553,-2.537657 c 0.124064,-1.229359 1.327772,-5.327063 1.5643666,-5.865869 0.236597,-0.538804 0.529205,-1.169096 0.967656,-1.758398 0.43845,-0.589301 2.6337818,-2.4429322 2.7957818,-2.1388482 0.162111,0.304292 0.784172,4.4700512 -0.01849,6.6615302 -0.802663,2.19148 2.608541,0.912767 3.665518,-0.563934 1.056977,-1.476701 1.409812,-0.54701 1.246273,0.569574 -0.954365,7.444278 0.524431,1.025844 1.525408,3.394824 0.142042,1.542997 -0.03386,2.424872 0,3.341255 -0.07889,1.147578 -0.0011,1.165588 -0.457871,3.0209 0.955859,-0.874082 1.487041,-1.464469 1.633661,-2.713568 h 0.845886 c 0.335306,1.553361 0.59288,4.293937 1.691771,0.563922 1.815836,0.107146 2.323367,0.501894 1.409811,2.255699 3.346894,-1.406982 3.544268,-0.383469 5.639255,-1.237806 l 1.973732,-1.068646 c 1.206813,-0.611849 4.982272,-2.165466 6.20318,-2.199301 1.094023,-0.03388 2.134449,-0.03103 3.09594,0.561111 1.110944,0.679521 1.421095,1.505677 2.083707,2.14291 1.57617,1.51413 3.307413,1.683308 5.252949,0.955845 -0.476511,-0.516258 -0.486256,-0.970956 0,-0.845886 l 1.127866,0.281963 c 0.721816,-1.491575 2.780156,-3.087483 4.51139,-3.124139 0.623136,-0.01406 0.110194,-0.168837 2.255699,0.586481 2.145505,0.755317 0.970304,-1.322272 2.297994,-1.801746 1.327689,-0.479474 1.816535,0.875578 3.059291,1.779189 1.24276,0.903611 6.60431,4.550317 8.19278,3.926663 1.58846,-0.623654 1.83999,-3.245199 2.12519,-4.208962 0.28519,-0.963762 0.49247,-5.844743 2.93426,-4.206537 z"
     sodipodi:nodetypes="ccccsccccccsccssccccccccccccccccccccccccccccccsccccccccccccccccccccssszzccccccccccccccccczzzzzcc" />
</svg>
