{
  "accessors": [
    {
      "bufferView": 2,
      "componentType": 5126,
      "count": 3953,
      "max": [
        -534.4169921875,
        21707.21484375,
        91461.3125
      ],
      "min": [
        -11661.8916015625,
        -1046.0166015625,
        62413.94140625
      ],
      "type": "VEC3"
    },
    {
      "bufferView": 2,
      "byteOffset": 47436,
      "componentType": 5126,
      "count": 3953,
      "max": [
        0.9999070763587952,
        0.9991324543952942,
        0.9998319149017334
      ],
      "min": [
        -0.9998874664306641,
        -0.9990654587745667,
        -0.9934139847755432
      ],
      "type": "VEC3"
    },
    {
      "bufferView": 1,
      "componentType": 5126,
      "count": 3953,
      "max": [
        1.0,
        0.7252452373504639
      ],
      "min": [
        0.4568014144897461,
        -5.960464477539063e-08
      ],
      "type": "VEC2"
    },
    {
      "bufferView": 0,
      "componentType": 5125,
      "count": 23490,
      "type": "SCALAR"
    },
    {
      "bufferView": 2,
      "byteOffset": 94872,
      "componentType": 5126,
      "count": 32771,
      "max": [
        -433.2021484375,
        331.863525390625,
        102465.765625
      ],
      "min": [
        -11907.2060546875,
        -20180.2890625,
        62516.87890625
      ],
      "type": "VEC3"
    },
    {
      "bufferView": 2,
      "byteOffset": 488124,
      "componentType": 5126,
      "count": 32771,
      "max": [
        1.0,
        0.9999943375587463,
        0.9999707341194153
      ],
      "min": [
        -0.9999927878379822,
        -0.99998939037323,
        -0.9999576210975647
      ],
      "type": "VEC3"
    },
    {
      "bufferView": 1,
      "byteOffset": 31624,
      "componentType": 5126,
      "count": 32771,
      "max": [
        0.489696204662323,
        1.0
      ],
      "min": [
        0.0,
        0.0025703907012939453
      ],
      "type": "VEC2"
    },
    {
      "bufferView": 0,
      "byteOffset": 93960,
      "componentType": 5125,
      "count": 195000,
      "type": "SCALAR"
    }
  ],
  "asset": {
    "extras": {
      "author": "victorberdugo1 (https://sketchfab.com/victorberdugo1)",
      "license": "CC-BY-4.0 (http://creativecommons.org/licenses/by/4.0/)",
      "source": "https://sketchfab.com/3d-models/boxer-d699377d68544a0abeabd1d4d4f31dee",
      "title": "Boxer"
    },
    "generator": "Sketchfab-16.7.0",
    "version": "2.0"
  },
  "bufferViews": [
    {
      "buffer": 0,
      "byteLength": 873960,
      "name": "floatBufferViews",
      "target": 34963
    },
    {
      "buffer": 0,
      "byteLength": 293792,
      "byteOffset": 873960,
      "byteStride": 8,
      "name": "floatBufferViews",
      "target": 34962
    },
    {
      "buffer": 0,
      "byteLength": 881376,
      "byteOffset": 1167752,
      "byteStride": 12,
      "name": "floatBufferViews",
      "target": 34962
    }
  ],
  "buffers": [
    {
      "byteLength": 2049128,
      "uri": "scene.bin"
    }
  ],
  "extensionsUsed": [
    "KHR_materials_specular"
  ],
  "images": [
    {
      "uri": "textures/material_baseColor.jpeg"
    },
    {
      "uri": "textures/material_metallicRoughness.png"
    },
    {
      "uri": "textures/material_specularf0.png"
    }
  ],
  "materials": [
    {
      "doubleSided": true,
      "extensions": {
        "KHR_materials_specular": {
          "specularColorFactor": [
            1.0,
            1.0,
            1.0
          ],
          "specularFactor": 1.0,
          "specularTexture": {
            "index": 2
          }
        }
      },
      "name": "material",
      "pbrMetallicRoughness": {
        "baseColorTexture": {
          "index": 0
        },
        "metallicRoughnessTexture": {
          "index": 1
        },
        "roughnessFactor": 0.6
      }
    }
  ],
  "meshes": [
    {
      "name": "Object_0",
      "primitives": [
        {
          "attributes": {
            "NORMAL": 1,
            "POSITION": 0,
            "TEXCOORD_0": 2
          },
          "indices": 3,
          "material": 0,
          "mode": 4
        }
      ]
    },
    {
      "name": "Object_1",
      "primitives": [
        {
          "attributes": {
            "NORMAL": 5,
            "POSITION": 4,
            "TEXCOORD_0": 6
          },
          "indices": 7,
          "material": 0,
          "mode": 4
        }
      ]
    }
  ],
  "nodes": [
    {
      "children": [
        1
      ],
      "matrix": [
        1.0,
        0.0,
        0.0,
        0.0,
        0.0,
        2.220446049250313e-16,
        -1.0,
        0.0,
        0.0,
        1.0,
        2.220446049250313e-16,
        0.0,
        0.0,
        0.0,
        0.0,
        1.0
      ],
      "name": "Sketchfab_model"
    },
    {
      "children": [
        2,
        5
      ],
      "name": "BOXER_H.3DS"
    },
    {
      "children": [
        3
      ],
      "matrix": [
        500.0,
        0.0,
        -4.371138857095502e-05,
        0.0,
        0.0,
        -500.0,
        0.0,
        -0.0,
        4.371138857095502e-05,
        0.0,
        500.0,
        0.0,
        -6149.357421875,
        -14134.376953125,
        87121.0859375,
        1.0
      ],
      "name": "Object01"
    },
    {
      "children": [
        4
      ],
      "matrix": [
        0.001999999999999985,
        -0.0,
        1.7484555428381878e-10,
        0.0,
        0.0,
        -0.002,
        -0.0,
        0.0,
        -1.7484555428381875e-10,
        0.0,
        0.001999999999999985,
        0.0,
        12.298730076484468,
        -28.26875390625,
        -174.24217079981088,
        1.0
      ],
      "name": "3DSMeshMatrix"
    },
    {
      "mesh": 0,
      "name": "Object_4"
    },
    {
      "children": [
        6
      ],
      "matrix": [
        500.0,
        0.0,
        4.371138857095502e-05,
        0.0,
        0.0,
        -500.0,
        0.0,
        -0.0,
        -4.371138857095502e-05,
        0.0,
        500.0,
        0.0,
        -6149.357421875,
        -14134.376953125,
        87121.0859375,
        1.0
      ],
      "name": "boxer"
    },
    {
      "children": [
        7
      ],
      "matrix": [
        0.001999999999999985,
        -0.0,
        -1.7484555428381878e-10,
        0.0,
        -0.0,
        -0.002,
        0.0,
        0.0,
        1.7484555428381875e-10,
        -0.0,
        0.001999999999999985,
        0.0,
        12.298699611015348,
        -28.26875390625,
        -174.2421729501865,
        1.0
      ],
      "name": "3DSMeshMatrix"
    },
    {
      "mesh": 1,
      "name": "Object_7"
    }
  ],
  "samplers": [
    {
      "magFilter": 9729,
      "minFilter": 9987,
      "wrapS": 33071,
      "wrapT": 33071
    },
    {
      "magFilter": 9729,
      "minFilter": 9987,
      "wrapS": 10497,
      "wrapT": 10497
    }
  ],
  "scene": 0,
  "scenes": [
    {
      "name": "Sketchfab_Scene",
      "nodes": [
        0
      ]
    }
  ],
  "textures": [
    {
      "sampler": 0,
      "source": 0
    },
    {
      "sampler": 1,
      "source": 1
    },
    {
      "sampler": 1,
      "source": 2
    }
  ]
}
