<?xml version="1.0" encoding="UTF-8" standalone="no"?>
<svg
   width="32"
   height="32"
   viewBox="0 0 99.999734 99.999821"
   version="1.1"
   id="svg1"
   sodipodi:docname="threeDim_memeGlassesOffIcon.svg"
   inkscape:version="1.3.2 (091e20e, 2023-11-25, custom)"
   xmlns:inkscape="http://www.inkscape.org/namespaces/inkscape"
   xmlns:sodipodi="http://sodipodi.sourceforge.net/DTD/sodipodi-0.dtd"
   xmlns:xlink="http://www.w3.org/1999/xlink"
   xmlns="http://www.w3.org/2000/svg"
   xmlns:svg="http://www.w3.org/2000/svg">
  <defs
     id="defs1">
    <linearGradient
       id="linearGradient4"
       inkscape:collect="always">
      <stop
         style="stop-color:#2e91f5;stop-opacity:0.4025974;"
         offset="0"
         id="stop4" />
      <stop
         style="stop-color:#2e91f5;stop-opacity:0.84848487;"
         offset="0.89902282"
         id="stop5" />
    </linearGradient>
    <linearGradient
       id="linearGradient2"
       inkscape:collect="always">
      <stop
         style="stop-color:#f56314;stop-opacity:0.85064936;"
         offset="0.10423452"
         id="stop2" />
      <stop
         style="stop-color:#f56314;stop-opacity:0.3982684;"
         offset="1"
         id="stop3" />
    </linearGradient>
    <linearGradient
       inkscape:collect="always"
       xlink:href="#linearGradient2"
       id="linearGradient3"
       x1="0.78124828"
       y1="49.999889"
       x2="94.531037"
       y2="49.999889"
       gradientUnits="userSpaceOnUse" />
    <linearGradient
       inkscape:collect="always"
       xlink:href="#linearGradient4"
       id="linearGradient5"
       x1="5.4687378"
       y1="46.87445"
       x2="99.218526"
       y2="46.87445"
       gradientUnits="userSpaceOnUse" />
  </defs>
  <sodipodi:namedview
     id="namedview1"
     pagecolor="#ffffff"
     bordercolor="#000000"
     borderopacity="0.25"
     inkscape:showpageshadow="2"
     inkscape:pageopacity="0.0"
     inkscape:pagecheckerboard="0"
     inkscape:deskcolor="#d1d1d1"
     inkscape:document-units="mm"
     inkscape:zoom="19.50431"
     inkscape:cx="19.585415"
     inkscape:cy="18.585636"
     inkscape:window-width="1920"
     inkscape:window-height="1009"
     inkscape:window-x="-8"
     inkscape:window-y="-8"
     inkscape:window-maximized="1"
     inkscape:current-layer="svg1" />
  <path
     id="path1-9-1"
     style="fill:url(#linearGradient5);stroke:#2e91f5;stroke-width:2.49976;stroke-linecap:round;stroke-linejoin:round;stroke-dasharray:none;stroke-opacity:1"
     d="m 87.999075,42.918356 2.550443,2.597987 m -10.215242,-2.728901 4.80212,4.891642 m -12.126658,-4.764431 4.80212,4.891641 m -24.877823,-4.80112 4.80212,4.891642 m -12.774696,-4.80226 7.501047,7.64088 m -15.012408,-7.517884 7.501047,7.64088 m 52.690041,-11.12805 c -0.63918,-0.247647 -1.458644,-0.141914 -2.1429,-0.141914 0,0 -4.233891,0 -4.233891,0 0,0 -14.613762,0 -14.613762,0 0,0 -49.577552,0 -49.577552,0 0,0 -11.199327,0 -11.199327,0 0,0 -2.32181,0 -2.32181,0 -0.292285,0.0059 -0.651475,-0.0059 -0.874104,0.222598 -0.245839,0.249031 -0.215795,0.702567 -0.218519,1.029513 -0.0098,1.389834 -0.04237,1.666698 -1.502348,1.669485 0,0 -3.141279,0 -3.141279,0 -0.2922756,0.0059 -0.6514674,-0.0059 -0.8740852,0.222599 -0.2622341,0.267102 -0.2185284,0.815258 -0.2185284,1.168621 -9.142e-4,1.33141 -0.0059,1.527573 1.3657584,1.515056 0,0 3.4144522,0 3.4144522,0 0.151586,0.01256 0.394693,0.01107 0.538094,0 1.014777,-0.31024 0.218529,-1.775217 0.773037,-2.445778 0.310027,-0.374255 0.849504,-0.319988 1.283822,-0.310258 0,0 13.794307,0 13.794307,0 0,0 0.816721,0 0.816721,0 1.450454,0.296339 0.361933,2.102163 1.137698,2.629443 0.527185,0.357536 1.791904,-0.146082 2.314979,0.479972 0.525826,0.628835 -0.08336,2.00893 0.553138,2.441609 0.527196,0.357549 1.791895,-0.146085 2.31498,0.479971 0.491682,0.588491 -0.01091,1.886524 0.456179,2.360923 0.456167,0.464681 1.615707,-0.0251 2.181137,0.464681 0.768927,0.666394 -0.192567,2.33588 0.886388,2.664209 0.184384,0.02363 0.6064,0.01532 0.811262,0 0,0 17.345321,0 17.345321,0 0,0 0.680149,0 0.680149,0 1.241496,-0.208681 0.300466,-1.822512 0.923258,-2.568216 0.554509,-0.66362 1.916186,-0.05427 2.41196,-0.560674 0.439787,-0.446579 0.02191,-1.654167 0.378322,-2.249618 0.564058,-0.93908 2.230301,0.04037 2.626374,-0.887601 0.07923,-0.185041 0.07793,-0.473026 0.08188,-0.674749 0,0 0,-2.921596 0,-2.921596 0,-0.313027 -0.01911,-0.81526 0.10106,-1.097683 0.290914,-0.691436 1.785063,-0.774908 2.298599,-0.329714 0.678777,0.587089 -0.01091,1.950507 0.647373,2.398486 0.527187,0.357536 1.791895,-0.146082 2.314992,0.479972 0.491671,0.588491 -0.01091,1.886509 0.456157,2.360923 0.45617,0.464668 1.615709,-0.0251 2.181139,0.464668 0.768936,0.666408 -0.192577,2.335877 0.88639,2.664207 0.18437,0.02363 0.606397,0.01532 0.811275,0 0,0 17.345295,0 17.345295,0 0,0 0.680155,0 0.680155,0 1.241551,-0.208681 0.30053,-1.822511 0.923315,-2.568218 0.554505,-0.663619 1.916181,-0.05425 2.411962,-0.560657 0.409732,-0.417376 0.07649,-1.551234 0.31959,-2.127195 0.437039,-1.037856 1.996755,-0.230942 2.548523,-0.794401 0.223994,-0.226769 0.213064,-0.592663 0.218529,-0.890388 0,0 0,-3.338954 0,-3.338954 -9.13e-4,-0.570402 0.08055,-0.816663 -0.315491,-1.249322 z" />
  <path
     id="path1-9-1-8"
     style="fill:url(#linearGradient3);stroke:#f56314;stroke-width:2.49976;stroke-linecap:round;stroke-linejoin:round;stroke-dasharray:none;stroke-opacity:1"
     d="m 83.311586,46.043795 2.550443,2.597987 m -10.215243,-2.728901 4.80212,4.891642 m -12.126657,-4.764431 4.80212,4.891641 m -24.877824,-4.80112 4.80212,4.891642 m -12.774695,-4.80226 7.501047,7.64088 m -15.012409,-7.517884 7.501047,7.64088 m 52.690042,-11.12805 c -0.639181,-0.247647 -1.458645,-0.141914 -2.1429,-0.141914 0,0 -4.233891,0 -4.233891,0 0,0 -14.613762,0 -14.613762,0 0,0 -49.577552,0 -49.577552,0 0,0 -11.199327,0 -11.199327,0 0,0 -2.3218101,0 -2.3218101,0 -0.292285,0.0059 -0.651475,-0.0059 -0.874104,0.222598 -0.245839,0.249031 -0.215795,0.702567 -0.218519,1.029513 -0.0098,1.389834 -0.04237,1.666698 -1.5023487,1.669485 0,0 -3.1412787,0 -3.1412787,0 -0.2922756,0.0059 -0.6514674,-0.0059 -0.8740852,0.222599 -0.2622341,0.267102 -0.2185284,0.815258 -0.2185284,1.168621 -9.142e-4,1.33141 -0.0059,1.527573 1.3657584,1.515056 0,0 3.4144519,0 3.4144519,0 0.151586,0.01256 0.394693,0.01107 0.538094,0 1.0147777,-0.31024 0.218529,-1.775217 0.7730377,-2.445778 0.310027,-0.374255 0.849504,-0.319988 1.283822,-0.310258 0,0 13.7943071,0 13.7943071,0 0,0 0.816721,0 0.816721,0 1.450454,0.296339 0.361933,2.102163 1.137698,2.629443 0.527185,0.357536 1.791904,-0.146082 2.314979,0.479972 0.525826,0.628835 -0.08336,2.00893 0.553138,2.441609 0.527196,0.357549 1.791895,-0.146085 2.31498,0.479971 0.491682,0.588491 -0.01091,1.886524 0.456179,2.360923 0.456167,0.464681 1.615707,-0.0251 2.181137,0.464681 0.768927,0.666394 -0.192567,2.33588 0.886388,2.664209 0.184384,0.02363 0.6064,0.01532 0.811262,0 0,0 17.345321,0 17.345321,0 0,0 0.680149,0 0.680149,0 1.241496,-0.208681 0.300466,-1.822512 0.923258,-2.568216 0.554509,-0.66362 1.916186,-0.05427 2.41196,-0.560674 0.439787,-0.446579 0.02191,-1.654167 0.378322,-2.249618 0.564058,-0.93908 2.230301,0.04037 2.626374,-0.887601 0.07923,-0.185041 0.07793,-0.473026 0.08188,-0.674749 0,0 0,-2.921596 0,-2.921596 0,-0.313027 -0.01911,-0.81526 0.101059,-1.097683 0.290915,-0.691436 1.785064,-0.774908 2.2986,-0.329714 0.678777,0.587089 -0.01091,1.950507 0.647373,2.398486 0.527187,0.357536 1.791894,-0.146082 2.314991,0.479972 0.491671,0.588491 -0.01091,1.886509 0.456158,2.360923 0.456169,0.464668 1.615708,-0.0251 2.181139,0.464668 0.768936,0.666408 -0.192577,2.335877 0.88639,2.664207 0.18437,0.02363 0.606397,0.01532 0.811275,0 0,0 17.345295,0 17.345295,0 0,0 0.680155,0 0.680155,0 1.241551,-0.208681 0.30053,-1.822511 0.923315,-2.568218 0.554505,-0.663619 1.916181,-0.05425 2.411962,-0.560657 0.409732,-0.417376 0.07649,-1.551234 0.31959,-2.127195 0.437039,-1.037856 1.996755,-0.230942 2.548523,-0.794401 0.223994,-0.226769 0.213064,-0.592663 0.218529,-0.890388 0,0 0,-3.338954 0,-3.338954 -9.13e-4,-0.570402 0.08055,-0.816663 -0.315491,-1.249322 z" />
</svg>
