{
	"asset":{
		"generator":"Khronos glTF Blender I/O v3.6.27",
		"version":"2.0"
	},
	"scene":0,
	"scenes":[
		{
			"name":"Scene",
			"nodes":[
				0
			]
		}
	],
	"nodes":[
		{
			"mesh":0,
			"name":"oniMask"
		}
	],
	"materials":[
		{
			"doubleSided":true,
			"name":"OniMask",
			"normalTexture":{
				"index":0
			},
			"occlusionTexture":{
				"index":1
			},
			"pbrMetallicRoughness":{
				"baseColorTexture":{
					"index":2
				},
				"metallicRoughnessTexture":{
					"index":1
				}
			}
		}
	],
	"meshes":[
		{
			"name":"HeadLow_OniMask_0",
			"primitives":[
				{
					"attributes":{
						"POSITION":0,
						"NORMAL":1,
						"TEXCOORD_0":2
					},
					"indices":3,
					"material":0
				}
			]
		}
	],
	"textures":[
		{
			"sampler":0,
			"source":0
		},
		{
			"sampler":0,
			"source":1
		},
		{
			"sampler":0,
			"source":2
		}
	],
	"images":[
		{
			"mimeType":"image/png",
			"name":"OniMask_normal",
			"uri":"texs/OniMask_normal.png"
		},
		{
			"mimeType":"image/png",
			"name":"OniMask_metallicRoughness",
			"uri":"texs/OniMask_metallicRoughness.png"
		},
		{
			"mimeType":"image/png",
			"name":"OniMask_baseColor",
			"uri":"texs/OniMask_baseColor.png"
		}
	],
	"accessors":[
		{
			"bufferView":0,
			"componentType":5126,
			"count":3158,
			"max":[
				0.49128401279449463,
				0.7777937054634094,
				0.37059348821640015
			],
			"min":[
				-0.49157360196113586,
				-0.6418588757514954,
				-0.4297785460948944
			],
			"type":"VEC3"
		},
		{
			"bufferView":1,
			"componentType":5126,
			"count":3158,
			"type":"VEC3"
		},
		{
			"bufferView":2,
			"componentType":5126,
			"count":3158,
			"type":"VEC2"
		},
		{
			"bufferView":3,
			"componentType":5123,
			"count":12015,
			"type":"SCALAR"
		}
	],
	"bufferViews":[
		{
			"buffer":0,
			"byteLength":37896,
			"byteOffset":0,
			"target":34962
		},
		{
			"buffer":0,
			"byteLength":37896,
			"byteOffset":37896,
			"target":34962
		},
		{
			"buffer":0,
			"byteLength":25264,
			"byteOffset":75792,
			"target":34962
		},
		{
			"buffer":0,
			"byteLength":24030,
			"byteOffset":101056,
			"target":34963
		}
	],
	"samplers":[
		{
			"magFilter":9729,
			"minFilter":9987
		}
	],
	"buffers":[
		{
			"byteLength":125088,
			"uri":"oniMask.bin"
		}
	]
}
