{
	"asset":{
		"generator":"Khronos glTF Blender I/O v3.6.27",
		"version":"2.0"
	},
	"scene":0,
	"scenes":[
		{
			"name":"Scene",
			"nodes":[
				2
			]
		}
	],
	"nodes":[
		{
			"mesh":0,
			"name":"body.001",
			"rotation":[
				0,
				-1,
				0,
				7.549790126404332e-08
			],
			"scale":[
				0.7480736970901489,
				0.7480736970901489,
				0.7480736970901489
			]
		},
		{
			"mesh":1,
			"name":"wiskers",
			"rotation":[
				0,
				-1,
				0,
				7.549790126404332e-08
			],
			"scale":[
				0.7480736970901489,
				0.7480736970901489,
				0.7480736970901489
			]
		},
		{
			"children":[
				0,
				1
			],
			"name":"happyHamster"
		}
	],
	"materials":[
		{
			"doubleSided":true,
			"name":"hamster.002",
			"normalTexture":{
				"index":0
			},
			"pbrMetallicRoughness":{
				"baseColorTexture":{
					"index":1
				},
				"metallicRoughnessTexture":{
					"index":2
				}
			}
		},
		{
			"doubleSided":true,
			"name":"base.001",
			"normalTexture":{
				"index":3
			},
			"pbrMetallicRoughness":{
				"baseColorFactor":[
					0.32488566637039185,
					0.32488566637039185,
					0.32488566637039185,
					1
				],
				"baseColorTexture":{
					"index":4
				},
				"metallicRoughnessTexture":{
					"index":5
				}
			}
		}
	],
	"meshes":[
		{
			"name":"nose_low_hamster_0.001",
			"primitives":[
				{
					"attributes":{
						"POSITION":0,
						"NORMAL":1,
						"TEXCOORD_0":2
					},
					"indices":3,
					"material":0
				}
			]
		},
		{
			"name":"Plane_base_0.025",
			"primitives":[
				{
					"attributes":{
						"POSITION":4,
						"NORMAL":5,
						"TEXCOORD_0":6
					},
					"indices":7,
					"material":1
				}
			]
		}
	],
	"textures":[
		{
			"sampler":0,
			"source":0
		},
		{
			"sampler":0,
			"source":1
		},
		{
			"sampler":0,
			"source":2
		},
		{
			"sampler":0,
			"source":3
		},
		{
			"sampler":0,
			"source":4
		},
		{
			"sampler":0,
			"source":5
		}
	],
	"images":[
		{
			"mimeType":"image/png",
			"name":"hamster_normal",
			"uri":"texs/hamster_normal.png"
		},
		{
			"mimeType":"image/png",
			"name":"hamster_baseColor",
			"uri":"texs/hamster_baseColor.png"
		},
		{
			"mimeType":"image/png",
			"name":"hamster_metallicRoughness",
			"uri":"texs/hamster_metallicRoughness.png"
		},
		{
			"mimeType":"image/png",
			"name":"base_normal",
			"uri":"texs/base_normal.png"
		},
		{
			"mimeType":"image/png",
			"name":"base_baseColor",
			"uri":"texs/base_baseColor.png"
		},
		{
			"mimeType":"image/png",
			"name":"base_metallicRoughness",
			"uri":"texs/base_metallicRoughness.png"
		}
	],
	"accessors":[
		{
			"bufferView":0,
			"componentType":5126,
			"count":11897,
			"max":[
				0.7691118121147156,
				1.0279152393341064,
				0.9288288354873657
			],
			"min":[
				-0.7696749567985535,
				-1.2319416999816895,
				-0.8344708681106567
			],
			"type":"VEC3"
		},
		{
			"bufferView":1,
			"componentType":5126,
			"count":11897,
			"type":"VEC3"
		},
		{
			"bufferView":2,
			"componentType":5126,
			"count":11897,
			"type":"VEC2"
		},
		{
			"bufferView":3,
			"componentType":5123,
			"count":66816,
			"type":"SCALAR"
		},
		{
			"bufferView":4,
			"componentType":5126,
			"count":648,
			"max":[
				0.7034667730331421,
				0.8807742595672607,
				0.563718855381012
			],
			"min":[
				-0.708229124546051,
				0.6490157842636108,
				0.47535914182662964
			],
			"type":"VEC3"
		},
		{
			"bufferView":5,
			"componentType":5126,
			"count":648,
			"type":"VEC3"
		},
		{
			"bufferView":6,
			"componentType":5126,
			"count":648,
			"type":"VEC2"
		},
		{
			"bufferView":7,
			"componentType":5123,
			"count":2736,
			"type":"SCALAR"
		}
	],
	"bufferViews":[
		{
			"buffer":0,
			"byteLength":142764,
			"byteOffset":0,
			"target":34962
		},
		{
			"buffer":0,
			"byteLength":142764,
			"byteOffset":142764,
			"target":34962
		},
		{
			"buffer":0,
			"byteLength":95176,
			"byteOffset":285528,
			"target":34962
		},
		{
			"buffer":0,
			"byteLength":133632,
			"byteOffset":380704,
			"target":34963
		},
		{
			"buffer":0,
			"byteLength":7776,
			"byteOffset":514336,
			"target":34962
		},
		{
			"buffer":0,
			"byteLength":7776,
			"byteOffset":522112,
			"target":34962
		},
		{
			"buffer":0,
			"byteLength":5184,
			"byteOffset":529888,
			"target":34962
		},
		{
			"buffer":0,
			"byteLength":5472,
			"byteOffset":535072,
			"target":34963
		}
	],
	"samplers":[
		{
			"magFilter":9729,
			"minFilter":9987
		}
	],
	"buffers":[
		{
			"byteLength":540544,
			"uri":"happyHamster.bin"
		}
	]
}
