{
	"asset":{
		"generator":"Khronos glTF Blender I/O v3.6.27",
		"version":"2.0"
	},
	"scene":0,
	"scenes":[
		{
			"name":"Scene",
			"nodes":[
				4
			]
		}
	],
	"nodes":[
		{
			"mesh":0,
			"name":"Glasses_01 - Default_0"
		},
		{
			"mesh":1,
			"name":"Glasses_02 - Default_0"
		},
		{
			"mesh":2,
			"name":"Glasses_03 - Default_0"
		},
		{
			"mesh":3,
			"name":"Glasses_07 - Default_0"
		},
		{
			"children":[
				0,
				1,
				2,
				3
			],
			"name":"glasses2"
		}
	],
	"materials":[
		{
			"doubleSided":true,
			"name":"01_-_Default",
			"pbrMetallicRoughness":{
				"baseColorFactor":[
					0.36862701177597046,
					0.36862701177597046,
					0.36862701177597046,
					1
				],
				"roughnessFactor":0.2421875
			}
		},
		{
			"alphaMode":"BLEND",
			"doubleSided":true,
			"name":"02_-_Default.001",
			"pbrMetallicRoughness":{
				"baseColorFactor":[
					1,
					1,
					1,
					0.25
				],
				"roughnessFactor":0
			}
		},
		{
			"doubleSided":true,
			"name":"03_-_Default.001",
			"pbrMetallicRoughness":{
				"baseColorFactor":[
					0.02745099924504757,
					0.02745099924504757,
					0.02745099924504757,
					1
				],
				"metallicFactor":0.7761051654815674,
				"roughnessFactor":0.37023627758026123
			}
		},
		{
			"alphaMode":"BLEND",
			"doubleSided":true,
			"name":"07_-_Default.001",
			"pbrMetallicRoughness":{
				"baseColorFactor":[
					1,
					1,
					1,
					0.4346417784690857
				],
				"roughnessFactor":0
			}
		}
	],
	"meshes":[
		{
			"name":"Glasses_01 - Default_0.001",
			"primitives":[
				{
					"attributes":{
						"POSITION":0,
						"NORMAL":1,
						"TEXCOORD_0":2
					},
					"indices":3,
					"material":0
				}
			]
		},
		{
			"name":"Glasses_02 - Default_0",
			"primitives":[
				{
					"attributes":{
						"POSITION":4,
						"NORMAL":5,
						"TEXCOORD_0":6
					},
					"indices":7,
					"material":1
				}
			]
		},
		{
			"name":"Glasses_03 - Default_0",
			"primitives":[
				{
					"attributes":{
						"POSITION":8,
						"NORMAL":9,
						"TEXCOORD_0":10
					},
					"indices":11,
					"material":2
				}
			]
		},
		{
			"name":"Glasses_07 - Default_0",
			"primitives":[
				{
					"attributes":{
						"POSITION":12,
						"NORMAL":13,
						"TEXCOORD_0":14
					},
					"indices":15,
					"material":3
				}
			]
		}
	],
	"accessors":[
		{
			"bufferView":0,
			"componentType":5126,
			"count":2281,
			"max":[
				0.7917888164520264,
				0.21011009812355042,
				1.0405105352401733
			],
			"min":[
				-0.7917883396148682,
				-0.37700751423835754,
				-0.021410498768091202
			],
			"type":"VEC3"
		},
		{
			"bufferView":1,
			"componentType":5126,
			"count":2281,
			"type":"VEC3"
		},
		{
			"bufferView":2,
			"componentType":5126,
			"count":2281,
			"type":"VEC2"
		},
		{
			"bufferView":3,
			"componentType":5123,
			"count":5724,
			"type":"SCALAR"
		},
		{
			"bufferView":4,
			"componentType":5126,
			"count":96,
			"max":[
				0.7086281776428223,
				0.19563600420951843,
				0.035927459597587585
			],
			"min":[
				-0.7086275815963745,
				-0.36253347992897034,
				0.005292241461575031
			],
			"type":"VEC3"
		},
		{
			"bufferView":5,
			"componentType":5126,
			"count":96,
			"type":"VEC3"
		},
		{
			"bufferView":6,
			"componentType":5126,
			"count":96,
			"type":"VEC2"
		},
		{
			"bufferView":7,
			"componentType":5123,
			"count":264,
			"type":"SCALAR"
		},
		{
			"bufferView":8,
			"componentType":5126,
			"count":366,
			"max":[
				0.7800332903862,
				-0.050090838223695755,
				1.548209547996521
			],
			"min":[
				-0.7800325751304626,
				-0.2999337613582611,
				1.0365118980407715
			],
			"type":"VEC3"
		},
		{
			"bufferView":9,
			"componentType":5126,
			"count":366,
			"type":"VEC3"
		},
		{
			"bufferView":10,
			"componentType":5126,
			"count":366,
			"type":"VEC2"
		},
		{
			"bufferView":11,
			"componentType":5123,
			"count":1164,
			"type":"SCALAR"
		},
		{
			"bufferView":12,
			"componentType":5126,
			"count":404,
			"max":[
				0.2480067014694214,
				-0.025651566684246063,
				0.07486699521541595
			],
			"min":[
				-0.24800609052181244,
				-0.1668664515018463,
				0.03253800794482231
			],
			"type":"VEC3"
		},
		{
			"bufferView":13,
			"componentType":5126,
			"count":404,
			"type":"VEC3"
		},
		{
			"bufferView":14,
			"componentType":5126,
			"count":404,
			"type":"VEC2"
		},
		{
			"bufferView":15,
			"componentType":5123,
			"count":744,
			"type":"SCALAR"
		}
	],
	"bufferViews":[
		{
			"buffer":0,
			"byteLength":27372,
			"byteOffset":0,
			"target":34962
		},
		{
			"buffer":0,
			"byteLength":27372,
			"byteOffset":27372,
			"target":34962
		},
		{
			"buffer":0,
			"byteLength":18248,
			"byteOffset":54744,
			"target":34962
		},
		{
			"buffer":0,
			"byteLength":11448,
			"byteOffset":72992,
			"target":34963
		},
		{
			"buffer":0,
			"byteLength":1152,
			"byteOffset":84440,
			"target":34962
		},
		{
			"buffer":0,
			"byteLength":1152,
			"byteOffset":85592,
			"target":34962
		},
		{
			"buffer":0,
			"byteLength":768,
			"byteOffset":86744,
			"target":34962
		},
		{
			"buffer":0,
			"byteLength":528,
			"byteOffset":87512,
			"target":34963
		},
		{
			"buffer":0,
			"byteLength":4392,
			"byteOffset":88040,
			"target":34962
		},
		{
			"buffer":0,
			"byteLength":4392,
			"byteOffset":92432,
			"target":34962
		},
		{
			"buffer":0,
			"byteLength":2928,
			"byteOffset":96824,
			"target":34962
		},
		{
			"buffer":0,
			"byteLength":2328,
			"byteOffset":99752,
			"target":34963
		},
		{
			"buffer":0,
			"byteLength":4848,
			"byteOffset":102080,
			"target":34962
		},
		{
			"buffer":0,
			"byteLength":4848,
			"byteOffset":106928,
			"target":34962
		},
		{
			"buffer":0,
			"byteLength":3232,
			"byteOffset":111776,
			"target":34962
		},
		{
			"buffer":0,
			"byteLength":1488,
			"byteOffset":115008,
			"target":34963
		}
	],
	"buffers":[
		{
			"byteLength":116496,
			"uri":"glasses2.bin"
		}
	]
}
