{
	"asset":{
		"generator":"Khronos glTF Blender I/O v3.6.27",
		"version":"2.0"
	},
	"extensionsUsed":[
		"KHR_materials_unlit"
	],
	"scene":0,
	"scenes":[
		{
			"name":"Scene",
			"nodes":[
				0
			]
		}
	],
	"nodes":[
		{
			"mesh":0,
			"name":"bicornHat"
		}
	],
	"materials":[
		{
			"doubleSided":true,
			"extensions":{
				"KHR_materials_unlit":{}
			},
			"name":"material_0.002",
			"pbrMetallicRoughness":{
				"baseColorTexture":{
					"index":0,
					"texCoord":0
				},
				"metallicFactor":0,
				"roughnessFactor":0.9
			}
		}
	],
	"meshes":[
		{
			"name":"Object_0.007",
			"primitives":[
				{
					"attributes":{
						"POSITION":0,
						"NORMAL":1,
						"TEXCOORD_0":2
					},
					"indices":3,
					"material":0
				}
			]
		}
	],
	"textures":[
		{
			"sampler":0,
			"source":0
		}
	],
	"images":[
		{
			"mimeType":"image/jpeg",
			"name":"material_0_baseColor",
			"uri":"texs2/material_0_baseColor.jpg"
		}
	],
	"accessors":[
		{
			"bufferView":0,
			"componentType":5126,
			"count":66903,
			"max":[
				0.57802814245224,
				0.4624596834182739,
				1.2148637771606445
			],
			"min":[
				-0.5776630640029907,
				-0.4625401496887207,
				-1.2148637771606445
			],
			"type":"VEC3"
		},
		{
			"bufferView":1,
			"componentType":5126,
			"count":66903,
			"type":"VEC3"
		},
		{
			"bufferView":2,
			"componentType":5126,
			"count":66903,
			"type":"VEC2"
		},
		{
			"bufferView":3,
			"componentType":5125,
			"count":301464,
			"type":"SCALAR"
		}
	],
	"bufferViews":[
		{
			"buffer":0,
			"byteLength":802836,
			"byteOffset":0,
			"target":34962
		},
		{
			"buffer":0,
			"byteLength":802836,
			"byteOffset":802836,
			"target":34962
		},
		{
			"buffer":0,
			"byteLength":535224,
			"byteOffset":1605672,
			"target":34962
		},
		{
			"buffer":0,
			"byteLength":1205856,
			"byteOffset":2140896,
			"target":34963
		}
	],
	"samplers":[
		{
			"magFilter":9729,
			"minFilter":9987
		}
	],
	"buffers":[
		{
			"byteLength":3346752,
			"uri":"bicornHat.bin"
		}
	]
}
