{
  "accessors": [
    {
      "bufferView": 2,
      "componentType": 5126,
      "count": 65532,
      "max": [
        0.09140200167894363,
        0.07312748581171036,
        0.1921030879020691
      ],
      "min": [
        -0.09140200167894363,
        -0.07312748581171036,
        -0.1921030879020691
      ],
      "type": "VEC3"
    },
    {
      "bufferView": 2,
      "byteOffset": 786384,
      "componentType": 5126,
      "count": 65532,
      "max": [
        0.9999195337295532,
        0.9999827146530151,
        0.9998601078987122
      ],
      "min": [
        -0.9999871253967285,
        -0.9999746084213257,
        -0.9995896816253662
      ],
      "type": "VEC3"
    },
    {
      "bufferView": 1,
      "componentType": 5126,
      "count": 65532,
      "max": [
        0.9991297721862793,
        0.9990671873092651
      ],
      "min": [
        0.00012889920617453754,
        0.00012889920617453754
      ],
      "type": "VEC2"
    },
    {
      "bufferView": 0,
      "componentType": 5125,
      "count": 325194,
      "type": "SCALAR"
    },
    {
      "bufferView": 2,
      "byteOffset": 1572768,
      "componentType": 5126,
      "count": 13897,
      "max": [
        0.09106793999671936,
        0.07312748581171036,
        0.18886931240558624
      ],
      "min": [
        -0.09023304283618927,
        -0.07221078127622604,
        -0.1856168657541275
      ],
      "type": "VEC3"
    },
    {
      "bufferView": 2,
      "byteOffset": 1739532,
      "componentType": 5126,
      "count": 13897,
      "max": [
        0.9999063611030579,
        0.9999827146530151,
        0.9994381666183472
      ],
      "min": [
        -0.9999871253967285,
        -0.9999775290489197,
        -0.9988628029823303
      ],
      "type": "VEC3"
    },
    {
      "bufferView": 1,
      "byteOffset": 524256,
      "componentType": 5126,
      "count": 13897,
      "max": [
        0.9991991519927979,
        0.9992238879203796
      ],
      "min": [
        0.00012889920617453754,
        0.0006444960599765182
      ],
      "type": "VEC2"
    },
    {
      "bufferView": 0,
      "byteOffset": 1300776,
      "componentType": 5125,
      "count": 51642,
      "type": "SCALAR"
    }
  ],
  "asset": {
    "extras": {
      "author": "alban (https://sketchfab.com/alban)",
      "license": "CC-BY-4.0 (http://creativecommons.org/licenses/by/4.0/)",
      "source": "https://sketchfab.com/3d-models/bicorn-hat-596276d408ac40f1817bc7c1d710fa63",
      "title": "Bicorn hat"
    },
    "generator": "Sketchfab-12.65.0",
    "version": "2.0"
  },
  "bufferViews": [
    {
      "buffer": 0,
      "byteLength": 1507344,
      "name": "floatBufferViews",
      "target": 34963
    },
    {
      "buffer": 0,
      "byteLength": 635432,
      "byteOffset": 1507344,
      "byteStride": 8,
      "name": "floatBufferViews",
      "target": 34962
    },
    {
      "buffer": 0,
      "byteLength": 1906296,
      "byteOffset": 2142776,
      "byteStride": 12,
      "name": "floatBufferViews",
      "target": 34962
    }
  ],
  "buffers": [
    {
      "byteLength": 4049072,
      "uri": "scene.bin"
    }
  ],
  "extensionsUsed": [
    "KHR_materials_unlit"
  ],
  "images": [
    {
      "uri": "textures/material_0_baseColor.jpeg"
    }
  ],
  "materials": [
    {
      "doubleSided": true,
      "extensions": {
        "KHR_materials_unlit": {}
      },
      "name": "material_0",
      "pbrMetallicRoughness": {
        "baseColorTexture": {
          "index": 0
        },
        "metallicFactor": 0.0
      }
    }
  ],
  "meshes": [
    {
      "name": "Object_0",
      "primitives": [
        {
          "attributes": {
            "NORMAL": 1,
            "POSITION": 0,
            "TEXCOORD_0": 2
          },
          "indices": 3,
          "material": 0,
          "mode": 4
        }
      ]
    },
    {
      "name": "Object_1",
      "primitives": [
        {
          "attributes": {
            "NORMAL": 5,
            "POSITION": 4,
            "TEXCOORD_0": 6
          },
          "indices": 7,
          "material": 0,
          "mode": 4
        }
      ]
    }
  ],
  "nodes": [
    {
      "children": [
        1
      ],
      "matrix": [
        1.0881919015031087,
        0.11729595263039272,
        2.6044933461120738e-17,
        0.0,
        0.0,
        2.430267756988228e-16,
        -1.0944952964782715,
        0.0,
        -0.11729595263039272,
        1.0881919015031087,
        2.4162714085187636e-16,
        0.0,
        -8.134894535771764e-09,
        2.3655568615055245e-09,
        5.252591387406912e-25,
        1.0
      ],
      "name": "Sketchfab_model"
    },
    {
      "children": [
        2
      ],
      "name": "root"
    },
    {
      "children": [
        3
      ],
      "matrix": [
        1.0,
        0.0,
        0.0,
        0.0,
        0.0,
        2.220446049250313e-16,
        1.0,
        0.0,
        0.0,
        -1.0,
        2.220446049250313e-16,
        0.0,
        0.0,
        0.0,
        0.0,
        1.0
      ],
      "name": "GLTF_SceneRootNode"
    },
    {
      "children": [
        4,
        5
      ],
      "name": "_0"
    },
    {
      "mesh": 0,
      "name": "Object_4"
    },
    {
      "mesh": 1,
      "name": "Object_5"
    }
  ],
  "samplers": [
    {
      "magFilter": 9729,
      "minFilter": 9987,
      "wrapS": 10497,
      "wrapT": 10497
    }
  ],
  "scene": 0,
  "scenes": [
    {
      "name": "Sketchfab_Scene",
      "nodes": [
        0
      ]
    }
  ],
  "textures": [
    {
      "sampler": 0,
      "source": 0
    }
  ]
}
