<?xml version="1.0" encoding="UTF-8" standalone="no"?>
<svg
   width="32"
   height="32"
   viewBox="0 0 24.00299 24.002987"
   version="1.1"
   id="svg1"
   sodipodi:docname="mustacheOffIcon3.svg"
   inkscape:version="1.3.2 (091e20e, 2023-11-25, custom)"
   xmlns:inkscape="http://www.inkscape.org/namespaces/inkscape"
   xmlns:sodipodi="http://sodipodi.sourceforge.net/DTD/sodipodi-0.dtd"
   xmlns="http://www.w3.org/2000/svg"
   xmlns:svg="http://www.w3.org/2000/svg">
  <defs
     id="defs1" />
  <sodipodi:namedview
     id="namedview1"
     pagecolor="#ffffff"
     bordercolor="#000000"
     borderopacity="0.25"
     inkscape:showpageshadow="2"
     inkscape:pageopacity="0.0"
     inkscape:pagecheckerboard="0"
     inkscape:deskcolor="#d1d1d1"
     inkscape:document-units="px"
     inkscape:zoom="16"
     inkscape:cx="14.75"
     inkscape:cy="22.71875"
     inkscape:window-width="1920"
     inkscape:window-height="1009"
     inkscape:window-x="-8"
     inkscape:window-y="-8"
     inkscape:window-maximized="1"
     inkscape:current-layer="svg1" />
  <path
     id="path1"
     style="fill:none;fill-opacity:1;stroke:#fff;stroke-width:0.749786;stroke-linecap:round;stroke-linejoin:round;stroke-dasharray:none;stroke-opacity:1"
     d="m 13.538862,14.428748 c 1.830861,0.884734 4.886088,1.417943 6.889515,1.021998 1.072162,-0.212179 2.353996,-0.811571 2.444698,-2.065372 0.05358,-0.736084 -0.396626,-1.598648 -0.990133,-2.018223 -0.534576,-0.378886 -1.089329,-0.429877 -1.415453,0.216836 0.365045,0.1167 1.018915,0.313711 1.184274,0.688091 0.25443,0.577386 -0.749966,1.076958 -1.213732,1.041092 C 19.745057,13.25986 19.155656,12.639943 18.714247,12.154455 17.95003,11.312774 17.010459,10.194982 16.154914,9.4858941 15.289779,8.76869 14.438415,8.4055604 13.31327,8.4183409 c 0,0 -0.769979,0.092346 -1.324729,0.090276 C 11.433793,8.5065569 10.68972,8.4145119 10.68972,8.4145119 9.5645782,8.4017316 8.7132218,8.7649101 7.8480801,9.4820654 6.9925337,10.191152 6.052963,11.308944 5.2887464,12.150667 4.8473371,12.636155 4.2579352,13.256081 3.5649586,13.30941 3.1011944,13.345282 2.0967953,12.845705 2.3512267,12.26832 2.5165858,11.893939 3.1704572,11.696928 3.5355005,11.580228 3.2093763,10.933516 2.6546245,10.984507 2.1200482,11.363392 1.5265405,11.782967 1.0763285,12.645531 1.129914,13.381616 c 0.090702,1.2538 1.3725376,1.853191 2.4446985,2.06537 2.0034271,0.395947 5.0586551,-0.137263 6.8895145,-1.021996 0.579503,-0.280303 0.893225,-0.432943 1.537367,-0.835827 0.541989,0.325808 0.476995,0.32669 1.537368,0.839585 z"
     sodipodi:nodetypes="cccccccccczcccccccccccc" />
</svg>
