<?xml version="1.0" encoding="UTF-8" standalone="no"?>
<svg
   width="32"
   height="32"
   viewBox="0 0 23.999996 23.999941"
   version="1.1"
   id="svg1"
   sodipodi:docname="threeDim_defaultGlassesOffIcon.svg"
   inkscape:version="1.3.2 (091e20e, 2023-11-25, custom)"
   xmlns:inkscape="http://www.inkscape.org/namespaces/inkscape"
   xmlns:sodipodi="http://sodipodi.sourceforge.net/DTD/sodipodi-0.dtd"
   xmlns:xlink="http://www.w3.org/1999/xlink"
   xmlns="http://www.w3.org/2000/svg"
   xmlns:svg="http://www.w3.org/2000/svg">
  <defs
     id="defs1">
    <linearGradient
       id="linearGradient4"
       inkscape:collect="always">
      <stop
         style="stop-color:#3391f0;stop-opacity:0.4025974;"
         offset="0"
         id="stop4" />
      <stop
         style="stop-color:#2e91f5;stop-opacity:0.84848487;"
         offset="0.90390879"
         id="stop3" />
    </linearGradient>
    <linearGradient
       id="linearGradient1"
       inkscape:collect="always">
      <stop
         style="stop-color:#f56314;stop-opacity:0.85064936;"
         offset="0.0960912"
         id="stop1" />
      <stop
         style="stop-color:#f56314;stop-opacity:0.40476191;"
         offset="1"
         id="stop2" />
    </linearGradient>
    <linearGradient
       inkscape:collect="always"
       xlink:href="#linearGradient1"
       id="linearGradient2"
       x1="0.75000035"
       y1="11.999971"
       x2="23.249996"
       y2="11.999971"
       gradientUnits="userSpaceOnUse"
       gradientTransform="translate(-0.56250038)" />
    <linearGradient
       inkscape:collect="always"
       xlink:href="#linearGradient4"
       id="linearGradient3"
       gradientUnits="userSpaceOnUse"
       x1="0.75000035"
       y1="11.999971"
       x2="23.249996"
       y2="11.999971"
       gradientTransform="translate(0.56249963,-0.75004972)" />
  </defs>
  <sodipodi:namedview
     id="namedview1"
     pagecolor="#ffffff"
     bordercolor="#000000"
     borderopacity="0.25"
     inkscape:showpageshadow="2"
     inkscape:pageopacity="0.0"
     inkscape:pagecheckerboard="0"
     inkscape:deskcolor="#d1d1d1"
     inkscape:document-units="in"
     inkscape:zoom="15.60309"
     inkscape:cx="15.317479"
     inkscape:cy="16.054512"
     inkscape:window-width="1920"
     inkscape:window-height="1009"
     inkscape:window-x="-8"
     inkscape:window-y="-8"
     inkscape:window-maximized="1"
     inkscape:current-layer="svg1" />
  <path
     id="path2-8-5-9-4"
     style="fill:url(#linearGradient3);stroke:#2e92f5;stroke-width:0.450207;stroke-linecap:round;stroke-linejoin:round;stroke-dasharray:none;stroke-opacity:1"
     d="m 17.279858,8.9625826 -2.087512,2.0875104 m 5.904202,0.246512 -2.300542,2.300541 M 19.042382,9.1224915 15.765077,12.399796 M 20.84339,9.4980663 17.136068,13.205388 m -9.2818261,-4.2453846 2.08751,2.0875106 m -5.904201,0.246512 2.300542,2.300541 m -0.246376,-4.474655 3.277304,3.277304 M 4.2907088,9.4954873 7.9980309,13.202809 M 1.5376033,7.8390307 c 0,0 0.9071835,-0.10402 0.9071835,-0.10402 0,0 1.7052319,-0.1233449 1.7052319,-0.1233449 0,0 0.8526162,-0.056841 0.8526162,-0.056841 0,0 2.216802,0 2.216802,0 0.712218,0.00111 2.157119,0.2438482 2.8420541,0.4558655 0,0 1.250506,0.4984966 1.250506,0.4984966 0.259757,0.076744 1.072589,0.1290284 1.364182,0.125618 0.18701,-0.00226 0.915713,-0.069346 1.079978,-0.1159557 0,0 1.307349,-0.5081589 1.307349,-0.5081589 0.684931,-0.2120173 2.129832,-0.454729 2.842054,-0.4558655 0,0 2.159961,0 2.159961,0 0,0 0.852614,0.056841 0.852614,0.056841 0,0 1.762073,0.1233449 1.762073,0.1233449 0,0 0.907184,0.10402 0.907184,0.10402 0,0 0,0.8526158 0,0.8526158 0,0 -0.05453,0.5115699 -0.05453,0.5115699 -0.611041,0.2398689 -0.628663,0.6320739 -0.738933,1.1936626 0,0 -0.381975,1.705234 -0.381975,1.705234 -0.171117,0.572957 -0.411555,1.234019 -0.784433,1.705232 -0.807137,1.021999 -1.953623,1.150456 -3.153538,1.136815 -1.050997,-0.01253 -2.558422,-0.387087 -3.351354,-1.097032 -0.359237,-0.321717 -0.776448,-0.97937 -1.024848,-1.403973 -0.228498,-0.39163 -0.497353,-1.03962 -0.61729,-1.477866 -0.128462,-0.468938 -0.18132,-0.9935807 -0.747461,-1.1379577 -0.345592,-0.0881 -0.681523,0.106861 -0.861141,0.3990247 -0.109707,0.177912 -0.191553,0.625251 -0.259768,0.852616 -0.121635,0.403571 -0.372876,1.000971 -0.584889,1.364183 -0.248398,0.424603 -0.665611,1.082256 -1.024847,1.403973 C 9.2094489,14.557073 7.7020239,14.93166 6.6510319,14.94416 5.4511119,14.9578 4.3046271,14.829344 3.4974846,13.807345 3.1246063,13.336132 2.884169,12.67507 2.7130774,12.102113 c 0,0 -0.3819721,-1.705234 -0.3819721,-1.705234 C 2.2225386,9.8352903 2.2009396,9.4419493 1.5921718,9.2032164 c 0,0 -0.054567,-0.5115699 -0.054567,-0.5115699 z M 5.2299989,8.2448754 C 4.5172119,8.3619687 3.7828248,8.5177123 3.3337811,9.1463746 3.033091,9.5664303 3.0694697,9.9694343 3.070038,10.45372 c 0.00175,1.123176 0.4410872,2.6522 1.3664598,3.357604 0.4916751,0.37515 1.2618711,0.557041 1.8734821,0.564429 0.931625,0.01077 2.240106,-0.197238 3.012576,-0.741209 1.0498551,-0.739503 1.4920811,-2.179852 1.4778701,-3.408188 -0.0028,-0.2313437 -0.0324,-0.4598447 -0.10061,-0.6820927 C 10.504851,8.9133264 9.9875969,8.5881958 9.3793979,8.4159669 8.4727819,8.1601821 7.5269469,8.2369179 6.5941849,8.2448754 Z m 11.3113731,0 c -0.619567,0.1028824 -1.367591,0.2438483 -1.806976,0.7332499 -0.411529,0.458709 -0.416647,1.0686127 -0.409824,1.6461167 0.01134,0.96403 0.488832,2.030932 1.146481,2.726095 0.646856,0.684375 2.081522,1.01462 3.002916,1.025416 0.683797,0.0082 1.386354,-0.06595 1.989438,-0.417778 0.305805,-0.178484 0.48997,-0.385384 0.701986,-0.662206 0.699145,-0.913436 0.891269,-2.003074 0.889563,-3.126255 -5.85e-4,-0.2364577 0.003,-0.3939077 -0.06932,-0.6252507 C 21.812246,8.9906309 21.378548,8.6791419 20.861293,8.4756501 20.030277,8.149383 18.755335,8.2369179 17.848718,8.2448754 Z" />
  <path
     id="path2-8-5-9"
     style="fill:url(#linearGradient2);stroke:#f56314;stroke-width:0.450207;stroke-linecap:round;stroke-linejoin:round;stroke-dasharray:none;stroke-opacity:1"
     d="m 16.154859,9.7126324 -2.087512,2.0875106 m 5.904202,0.246512 -2.300542,2.300541 m 0.246376,-4.4746547 -3.277305,3.2773047 m 5.078313,-2.90173 -3.707322,3.707322 M 6.7292416,9.7100532 8.8167524,11.797564 m -5.9042013,0.246512 2.3005417,2.300541 M 4.9667174,9.8699618 8.2440215,13.147266 M 3.165709,10.245537 6.8730313,13.952859 M 0.41260347,8.5890805 c 0,0 0.90718353,-0.10402 0.90718353,-0.10402 0,0 1.7052319,-0.1233449 1.7052319,-0.1233449 0,0 0.8526162,-0.056841 0.8526162,-0.056841 0,0 2.2168016,0 2.2168016,0 0.7122186,0.00111 2.1571191,0.2438482 2.8420539,0.4558655 0,0 1.2505064,0.4984966 1.2505064,0.4984966 0.259758,0.076744 1.07259,0.1290284 1.364182,0.125618 0.187011,-0.00226 0.915714,-0.069346 1.079979,-0.1159557 0,0 1.307349,-0.5081589 1.307349,-0.5081589 0.684931,-0.2120173 2.129832,-0.454729 2.842054,-0.4558655 0,0 2.159961,0 2.159961,0 0,0 0.852614,0.056841 0.852614,0.056841 0,0 1.762073,0.1233449 1.762073,0.1233449 0,0 0.907184,0.10402 0.907184,0.10402 0,0 0,0.8526158 0,0.8526158 0,0 -0.05453,0.5115699 -0.05453,0.5115699 -0.611041,0.2398688 -0.628663,0.6320738 -0.738933,1.1936628 0,0 -0.381975,1.705234 -0.381975,1.705234 -0.171117,0.572957 -0.411555,1.234019 -0.784433,1.705232 -0.807137,1.021999 -1.953623,1.150456 -3.153538,1.136815 -1.050997,-0.01253 -2.558422,-0.387087 -3.351354,-1.097032 -0.359237,-0.321717 -0.776448,-0.97937 -1.024848,-1.403973 -0.228498,-0.39163 -0.497353,-1.03962 -0.61729,-1.477866 -0.128462,-0.468938 -0.18132,-0.993581 -0.747461,-1.137958 -0.345592,-0.0881 -0.681523,0.106861 -0.861141,0.399025 -0.109707,0.177912 -0.191553,0.625251 -0.259768,0.852616 -0.121635,0.403571 -0.372876,1.000971 -0.5848894,1.364183 C 9.6538346,13.617808 9.236621,14.275461 8.8773851,14.597178 8.0844488,15.307123 6.5770241,15.68171 5.5260321,15.69421 4.3261124,15.707846 3.1796273,15.579394 2.3724848,14.557395 1.9996065,14.086182 1.7591692,13.42512 1.5880776,12.852163 c 0,0 -0.3819721,-1.705234 -0.3819721,-1.705234 -0.1085667,-0.561589 -0.1301657,-0.95493 -0.73893348,-1.1936628 0,0 -0.0545668,-0.5115699 -0.0545668,-0.5115699 z M 4.104999,8.9949252 C 3.3922121,9.1120185 2.657825,9.2677621 2.2087813,9.8964244 1.9080912,10.31648 1.9444699,10.719484 1.9450382,11.20377 c 0.00175,1.123176 0.4410872,2.6522 1.3664598,3.357604 0.4916752,0.37515 1.2618714,0.557041 1.8734818,0.564429 0.9316254,0.01077 2.2401067,-0.197238 3.0125766,-0.741209 1.0498542,-0.739503 1.4920802,-2.179852 1.4778692,-3.408188 -0.0028,-0.231344 -0.0324,-0.459845 -0.10061,-0.682093 C 9.3798507,9.6633762 8.862597,9.3382456 8.2543977,9.1660167 7.347782,8.9102319 6.4019475,8.9869677 5.4691853,8.9949252 Z m 11.311374,0 c -0.619567,0.1028824 -1.367592,0.2438483 -1.806976,0.7332499 -0.411529,0.4587089 -0.416647,1.0686129 -0.409824,1.6461169 0.01134,0.96403 0.488832,2.030932 1.146481,2.726095 0.646856,0.684375 2.081522,1.01462 3.002916,1.025416 0.683797,0.0082 1.386354,-0.06595 1.989438,-0.417778 0.305805,-0.178484 0.48997,-0.385384 0.701986,-0.662206 0.699145,-0.913436 0.891269,-2.003074 0.889563,-3.126255 -5.85e-4,-0.236458 0.003,-0.393908 -0.06932,-0.625251 C 20.687247,9.7406807 20.253549,9.4291917 19.736294,9.2256999 18.905278,8.8994328 17.630336,8.9869677 16.723719,8.9949252 Z" />
</svg>
