{
  "asset": {
    "generator": "Khronos glTF Blender I/O v3.6.27",
    "version": "2.0"
  },
  "scene": 0,
  "scenes": [
    {
      "name": "Scene",
      "nodes": [2]
    }
  ],
  "nodes": [
    {
      "mesh": 0,
      "name": "Object_47"
    },
    {
      "children": [0],
      "name": "bearded dragon_Rocky_(Pogona sp.)_67.21.obj.cleaner.materialmer"
    },
    {
      "children": [1],
      "name": "beardedDragon"
    }
  ],
  "materials": [
    {
      "doubleSided": true,
      "name": "material_0.001",
      "pbrMetallicRoughness": {
        "baseColorTexture": {
          "index": 0
        },
        "metallicFactor": 0,
        "roughnessFactor": 0.45227745175361633
      }
    }
  ],
  "meshes": [
    {
      "name": "Object_45",
      "primitives": [
        {
          "attributes": {
            "POSITION": 0,
            "NORMAL": 1,
            "TEXCOORD_0": 2
          },
          "indices": 3,
          "material": 0
        }
      ]
    }
  ],
  "textures": [
    {
      "sampler": 0,
      "source": 0
    }
  ],
  "images": [
    {
      "mimeType": "image/jpeg",
      "name": "material_0_baseColor",
      "uri": "texs/material_0_baseColor.jpg"
    }
  ],
  "accessors": [
    {
      "bufferView": 0,
      "componentType": 5126,
      "count": 322757,
      "max": [0.4452056884765625, 0.7713044881820679, 1.677711009979248],
      "min": [-0.6671477556228638, 0.014437609352171421, -1.4025708436965942],
      "type": "VEC3"
    },
    {
      "bufferView": 1,
      "componentType": 5126,
      "count": 322757,
      "type": "VEC3"
    },
    {
      "bufferView": 2,
      "componentType": 5126,
      "count": 322757,
      "type": "VEC2"
    },
    {
      "bufferView": 3,
      "componentType": 5125,
      "count": 322773,
      "type": "SCALAR"
    }
  ],
  "bufferViews": [
    {
      "buffer": 0,
      "byteLength": 3873084,
      "byteOffset": 0,
      "target": 34962
    },
    {
      "buffer": 0,
      "byteLength": 3873084,
      "byteOffset": 3873084,
      "target": 34962
    },
    {
      "buffer": 0,
      "byteLength": 2582056,
      "byteOffset": 7746168,
      "target": 34962
    },
    {
      "buffer": 0,
      "byteLength": 1291092,
      "byteOffset": 10328224,
      "target": 34963
    }
  ],
  "samplers": [
    {
      "magFilter": 9729,
      "minFilter": 9987
    }
  ],
  "buffers": [
    {
      "byteLength": 11619316,
      "uri": "beardedDragon.bin"
    }
  ]
}
