<?xml version="1.0" encoding="UTF-8" standalone="no"?>
<svg
   width="32"
   height="32"
   viewBox="0 0 99.999758 99.999758"
   version="1.1"
   id="svg1"
   sodipodi:docname="disguiseMustacheIcon.svg"
   inkscape:version="1.3.2 (091e20e, 2023-11-25, custom)"
   xmlns:inkscape="http://www.inkscape.org/namespaces/inkscape"
   xmlns:sodipodi="http://sodipodi.sourceforge.net/DTD/sodipodi-0.dtd"
   xmlns="http://www.w3.org/2000/svg"
   xmlns:svg="http://www.w3.org/2000/svg">
  <defs
     id="defs1" />
  <sodipodi:namedview
     id="namedview1"
     pagecolor="#ffffff"
     bordercolor="#000000"
     borderopacity="0.25"
     inkscape:showpageshadow="2"
     inkscape:pageopacity="0.0"
     inkscape:pagecheckerboard="0"
     inkscape:deskcolor="#d1d1d1"
     inkscape:document-units="mm"
     inkscape:zoom="12.703094"
     inkscape:cx="7.6359349"
     inkscape:cy="24.12798"
     inkscape:window-width="1920"
     inkscape:window-height="1009"
     inkscape:window-x="-8"
     inkscape:window-y="-8"
     inkscape:window-maximized="1"
     inkscape:current-layer="svg1" />
  <path
     id="Selection"
     fill="none"
     stroke="#000000"
     stroke-width="1"
     d="M 9.874419,22.466792 7.84916,21.328849 C 7.492207,21.117462 7.082092,20.936455 6.875769,20.555453 6.526412,19.907369 6.574511,17.7049 6.583372,16.897327 6.596032,15.813813 6.945387,13.942979 7.165634,12.846807 7.390944,11.727851 7.58461,10.593706 8.07447,9.555759 8.355474,8.959574 9.206084,7.098866 9.760498,6.891277 c 0.713905,-0.329104 1.563248,0.156958 2.012603,0 0.492391,-0.116452 0.94048,-0.745548 1.301229,-1.094906 0.582263,-0.56201 1.06073,-0.775927 1.863239,-0.79618 l 2.278418,0.197463 c 0.62783,-0.113922 1.469579,-0.905039 2.278417,-1.130349 0.867064,-0.243031 1.540464,0.275942 2.151838,0.272145 0.660742,-0.0025 1.202499,-0.540491 1.898682,-0.625299 1.056933,-0.127845 1.708813,0.84428 2.278417,0.777193 0.499986,-0.06076 0.770864,-0.729093 1.518945,-0.855672 0.922759,-0.156957 2.374618,0.62783 2.858148,0.59492 0.546821,-0.03671 0.734157,-0.654412 1.572108,-0.736688 0.96453,-0.09367 1.642992,0.535428 2.151839,0.531631 0.512644,-0.0025 0.668336,-0.440495 1.392366,-0.354421 0.646818,0.07595 1.7278,0.480999 2.278417,0.832888 0.32784,0.208855 1.064528,0.830357 1.392367,0.870862 0.502517,0.06076 0.845545,-0.563276 1.380974,-0.412647 0.388597,0.108858 0.888582,0.959467 1.13288,1.302495 0.274675,0.3848 1.183511,1.665777 1.320216,2.02526 l 0.484797,2.278418 c 0.536693,2.334112 0.870861,4.306208 0.870861,6.708673 0,0.605047 0.04937,1.983489 -0.193666,2.493602 -0.179741,0.374673 -1.678433,1.449326 -2.084751,1.574639 -0.396192,0.156958 -1.770837,-0.04304 -2.404996,0 1.058198,0.437963 2.093612,0.968328 3.03789,1.632866 0.851874,0.598717 1.311355,1.160727 2.278417,1.601221 0.882254,0.401255 2.322947,1.282243 5.189729,1.282243 2.86678,0 3.630812,-0.527283 5.442886,-1.410088 0.707575,-0.345559 1.354392,-1.002503 2.025259,-1.473376 1.061996,-0.746815 1.378443,-0.812636 2.404996,-1.377177 h -1.265787 c -0.354421,-0.05063 -0.72403,-0.360749 -1.01263,-0.573401 -1.07845,-0.794915 -1.386037,-0.821497 -1.392366,-2.231584 v -2.531574 c 0.0038,-2.146776 0.627831,-4.239123 1.037946,-6.328938 0.08734,-0.444291 0.162021,-1.125285 0.329105,-1.518944 L 58.90343,6.391291 c 0.205058,-0.299992 0.686057,-1.065792 1.010099,-1.191106 0.564541,-0.217715 0.941746,0.453152 1.47844,0.367079 0.313915,-0.05063 1.072122,-0.655678 1.392366,-0.85947 0.513909,-0.327839 1.549324,-0.722765 2.151838,-0.805041 0.851876,-0.116452 0.967062,0.427836 1.645524,0.307587 0.524036,-0.09367 1.335406,-0.663273 2.02526,-0.555681 0.739216,0.115187 0.968323,0.750612 1.645526,0.750612 0.560737,0.0012 1.94804,-0.692386 2.65815,-0.60125 0.755674,0.09747 1.126554,0.887318 1.645524,0.903773 0.4734,0.01645 1.17465,-0.810104 2.02526,-0.822762 0.7696,-0.01266 1.47338,0.61011 2.02526,0.662007 0.54936,0.0519 0.97086,-0.360749 1.89868,-0.294928 1.11389,0.07721 1.86831,1.003769 2.65815,1.129082 0.80632,0.173413 1.81894,-0.563276 3.16448,0 1.09111,0.415178 1.40628,1.426542 2.15183,1.699953 0.6658,0.248094 1.27719,-0.443026 2.139191,0 0.5253,0.26708 1.40502,2.129054 1.68603,2.727771 0.45441,0.969594 0.64807,2.115132 0.85819,3.164469 0.42911,2.148041 0.65821,3.482181 0.6329,5.696044 -0.005,0.425304 -0.1405,1.780963 -0.31771,2.125257 -0.17595,0.341762 -0.62277,0.545554 -0.94807,0.732891 l -2.02527,1.192371 3.5442,0.499987 c 0.42278,0.0481 1.38731,0.117718 1.70503,0.36328 0.62529,0.483532 1.05692,2.406263 1.05692,3.187254 l -0.12024,1.012629 c -0.13544,0.894912 -0.11899,1.501224 -1.12276,1.518945 h -2.27842 l -0.23416,1.645523 -0.36329,3.037891 c -0.77593,5.945403 -2.02652,11.832581 -5.935271,16.581816 -2.95562,3.589772 -7.60738,5.43529 -12.20093,5.442885 h -2.025259 l -1.518946,-0.115186 c -2.825236,-0.197463 -5.598577,-0.829092 -8.101038,-2.202471 -1.948048,-1.06959 -4.000821,-2.587103 -5.53369,-4.119971 l 3.707158,4.412368 1.496161,2.784732 c 0.39366,0.499987 0.777193,0.743018 1.194903,1.160727 l 1.250598,1.370849 c 1.396163,1.60755 2.574612,3.542939 3.242947,5.569464 0.22278,0.674665 0.624034,1.973364 0.567074,2.658151 -0.09873,1.197441 -1.083514,3.522692 -1.724003,4.556842 -0.222779,0.35948 -1.28604,1.64299 -1.284774,1.89868 0.0025,0.46707 1.274647,1.30503 1.624005,1.66703 0.51391,0.53291 0.801243,1.66199 1.026554,2.38349 l 2.870808,8.98709 1.299965,4.05052 2.413857,4.556832 -2.65816,-1.46831 -1.645519,-0.55695 -0.88605,1.64553 -2.278421,-2.025262 -0.632894,2.025262 -2.02526,-1.51895 c -0.33923,0.6329 -0.825293,1.20376 -1.392366,1.64552 l -0.506315,-1.39236 -0.22531,0.50125 c -0.735422,1.39869 -1.517679,-0.49619 -2.174623,-0.49619 -0.272145,0 -1.167056,1.00377 -1.524008,1.26073 l -1.392366,-2.025262 c -0.188602,0.663272 -1.094906,2.503722 -1.518945,3.037892 -0.411381,-0.72277 -0.987314,-1.72401 -1.139209,-2.53158 l -2.025259,2.27842 -1.392367,-2.531582 c -0.183539,0.643022 -1.075919,2.591072 -1.518945,3.037892 l -1.265787,-2.15183 c -0.40885,0.57592 -1.208828,1.81766 -1.772103,2.15183 l -1.139209,-3.164462 -1.392365,2.278412 h -0.253158 l -1.645524,-2.02526 -1.392366,1.64553 -1.265788,-1.772112 h -0.253156 l -1.012631,2.531582 c -0.475936,-0.52277 -1.401227,-1.99741 -1.645523,-2.658152 l -1.772103,1.898682 -1.392366,-1.51895 c -0.431633,0.68099 -1.259459,1.67211 -1.898681,2.15184 l -0.886051,-2.784732 -2.025261,2.404992 -0.379736,-2.404992 -3.417625,3.037892 1.951844,-4.430262 0.696183,-1.64552 0.531631,-1.89868 2.153103,-8.3542 1.113894,-4.029 2.667014,-2.29994 c -0.834154,-0.65188 -1.422745,-1.70502 -1.859442,-2.65815 -0.373407,-0.8139 -1.041743,-2.675874 -1.041743,-3.544205 0,-0.612647 0.339231,-1.679702 0.537959,-2.278419 0.683526,-2.048044 1.659448,-3.787236 3.051814,-5.442886 l 1.591095,-1.76071 c 0.55315,-0.527834 1.249332,-1.015162 1.682231,-1.656916 l 1.25946,-2.531575 2.847468,-4.001882 c -1.737926,1.737926 -3.452515,3.018365 -5.663846,4.2158 -2.401199,1.30123 -5.146691,1.887289 -7.847882,2.075892 l -1.518945,0.115186 C 23.45885,56.016559 20.074135,55.765862 16.583093,53.516558 13.31483,51.411553 11.255393,48.290122 9.823788,44.744651 8.231427,40.799192 7.736504,37.005626 7.163103,32.846249 L 6.846656,30.441253 C 6.796026,30.142527 6.744127,29.721019 6.512488,29.50457 6.251736,29.260273 5.778331,29.30331 5.444164,29.302044 H 4.684691 c -0.256955,0 -0.71517,0.03292 -0.924025,-0.125313 C 3.464472,28.952686 3.360678,28.141317 3.30878,27.783099 L 3.18853,26.77047 c 0,-0.7696 0.397457,-2.561955 0.944277,-3.099915 0.350623,-0.345559 1.320217,-0.391127 1.817671,-0.460746 1.112627,-0.154426 2.975866,-0.283537 3.923941,-0.743017 z m 14.556556,0.903772 -2.658153,0.270878 c -3.634076,0.464545 -8.411158,1.617677 -9.700995,5.534024 -0.245564,0.743016 -0.297461,1.251863 -0.298726,2.025259 -0.0038,2.574612 0.325307,3.394843 0.90124,5.822623 1.445529,6.098564 4.313804,12.564205 10.997161,14.256563 0.832888,0.210121 1.668309,0.416444 2.531576,0.42657 2.818908,0.03291 4.564429,0.04431 7.214988,-1.178447 4.988468,-2.302468 7.420046,-8.007372 8.279516,-13.12495 0.188602,-1.121488 0.453152,-2.683469 0.454418,-3.797363 v -1.518945 c -0.0013,-0.778459 -0.09493,-1.52654 -0.307587,-2.278417 -1.222751,-4.332791 -5.550478,-5.741611 -9.565556,-6.221345 l -2.531575,-0.21645 z m 46.074661,0 -2.404994,0.270878 c -2.813846,0.399989 -6.394758,1.51768 -8.012434,4.015078 -1.740459,2.687267 -1.479706,5.847938 -0.984783,8.860513 1.018958,6.197295 3.625215,12.98065 10.38958,14.729968 0.910106,0.235437 1.840462,0.448089 2.784731,0.45948 2.530311,0.02911 4.453041,0.02278 6.835261,-1.051869 5.48592,-2.473348 7.73396,-7.921298 9.09721,-13.378108 0.40252,-1.610081 0.98985,-3.940396 1.02782,-5.569464 0.0139,-0.616438 -0.0924,-1.554387 -0.23924,-2.151838 -1.07085,-4.380891 -6.56944,-5.512505 -10.39211,-5.968188 l -2.78473,-0.21645 z M 48.734094,34.153807 c -1.32528,0.317713 -2.120194,1.335406 -2.469551,2.616383 l -0.494923,3.03789 c -0.354421,1.959439 -1.059338,4.228235 -1.753874,6.233497 -0.73203,1.938377 -0.758573,1.977121 -2.276394,5.15859 l -2.332846,4.556835 c -1.307558,2.846755 -2.383781,7.227084 -2.570814,8.738957 -0.187033,1.511873 -0.189361,2.633934 0,4.045494 0.189361,1.41156 0.545788,3.051637 1.434137,4.556841 1.620208,2.42904 2.649293,3.55939 5.527694,4.31887 1.551855,0.40884 3.715086,0.72529 5.316308,0.74428 1.917667,0.0215 4.459369,-0.27342 6.328937,-0.71517 1.346797,-0.31898 2.783466,-0.72404 3.923941,-1.53667 1.586031,-1.12781 2.425759,-2.494919 3.113837,-4.0771 0.688078,-1.582181 0.737814,-2.927763 0.882996,-4.430254 l 0.02294,-1.518947 C 63.391578,62.301122 62.724842,58.775905 61.22615,55.503844 60.764138,54.493746 59.919857,53.083659 59.238864,52.212797 58.507239,51.27738 57.774225,50.531836 57.03766,48.921749 56.403163,47.488599 56.087049,46.274214 55.635167,44.87123 l -1.331608,-5.06315 c -0.381002,-1.592361 -0.349358,-3.569521 -1.531603,-4.80493 -1.020224,-1.065793 -2.667014,-1.001237 -4.037862,-0.849343 z"
     sodipodi:nodetypes="ccccccccccccccccccccccccccsccccczccccccccccccccccccccccccccccccccccccccccccccccccccccccccccccccccccccsccccccccccccccccccccccccccccccccscccccccccccccccscccccccccccccccccccccccccccccccccccccccczzccccczccccccccc"
     style="stroke-width:1.87499546;stroke-linecap:round;stroke-linejoin:round;stroke-dasharray:none" />
</svg>
