<?xml version="1.0" encoding="UTF-8" standalone="no"?>
<svg
   width="32"
   height="32"
   viewBox="0 0 99.999758 99.999758"
   version="1.1"
   id="svg1"
   sodipodi:docname="disguiseMustacheOffIcon.svg"
   inkscape:version="1.3.2 (091e20e, 2023-11-25, custom)"
   xmlns:inkscape="http://www.inkscape.org/namespaces/inkscape"
   xmlns:sodipodi="http://sodipodi.sourceforge.net/DTD/sodipodi-0.dtd"
   xmlns="http://www.w3.org/2000/svg"
   xmlns:svg="http://www.w3.org/2000/svg">
  <defs
     id="defs1" />
  <sodipodi:namedview
     id="namedview1"
     pagecolor="#ffffff"
     bordercolor="#000000"
     borderopacity="0.25"
     inkscape:showpageshadow="2"
     inkscape:pageopacity="0.0"
     inkscape:pagecheckerboard="0"
     inkscape:deskcolor="#d1d1d1"
     inkscape:document-units="mm"
     inkscape:zoom="64"
     inkscape:cx="22.421875"
     inkscape:cy="12.632812"
     inkscape:window-width="1920"
     inkscape:window-height="1009"
     inkscape:window-x="-8"
     inkscape:window-y="-8"
     inkscape:window-maximized="1"
     inkscape:current-layer="svg1" />
  <path
     id="Selection-9"
     style="fill:none;stroke:#000000;stroke-width:1.87499546;stroke-linecap:round;stroke-linejoin:round;stroke-dasharray:none;stroke-opacity:1"
     d="m 58.545443,60.054827 1.399822,1.760287 c 0.332297,0.422049 1.169968,1.39808 1.522566,1.750677 l 1.055657,1.157162 c 1.178528,1.356966 2.173282,2.990668 2.737442,4.7013 0.188053,0.569499 0.526756,1.665757 0.478675,2.2438 -0.08331,1.010785 -0.914613,2.973578 -1.455264,3.846525 -0.188053,0.303445 -1.085573,1.386882 -1.084509,1.602715 0.0017,0.394264 1.075958,1.101603 1.37086,1.407175 0.433802,0.44984 0.676343,1.40292 0.866532,2.011953 l 2.423311,7.586195 1.097331,3.419128 2.037581,3.846518 -2.243808,-1.23943 -1.389009,-0.470137 -0.747933,1.389029 -1.92327,-1.709567 -0.534236,1.709567 -1.709564,-1.28218 c -0.286351,0.534247 -0.696644,1.016122 -1.175328,1.38902 l -0.427387,-1.175319 -0.190189,0.423116 c -0.620783,1.180662 -1.281105,-0.418845 -1.835642,-0.418845 -0.229727,0 -0.985139,0.847303 -1.286448,1.064208 l -1.175329,-1.709567 c -0.159201,0.559884 -0.924227,2.113445 -1.282168,2.564349 -0.347255,-0.610105 -0.833409,-1.455272 -0.961631,-2.136962 l -1.709564,1.923264 -1.175329,-2.136962 c -0.154921,0.54279 -0.908198,2.187179 -1.282168,2.564349 l -1.06848,-1.816404 c -0.345119,0.486146 -1.020399,1.534324 -1.495866,1.816404 l -0.961631,-2.671189 -1.17532,1.923256 h -0.213698 l -1.389026,-1.709567 -1.17532,1.389029 -1.068479,-1.495878 h -0.213698 l -0.854782,2.136962 c -0.401742,-0.441281 -1.182799,-1.686054 -1.389018,-2.243802 l -1.495866,1.602718 -1.175328,-1.28218 c -0.364348,0.574841 -1.063137,1.411465 -1.602716,1.816415 l -0.747933,-2.350651 -1.709564,2.030105 -0.320546,-2.030105 -2.884884,2.564349 1.647588,-3.739677 0.58766,-1.389018 0.44876,-1.602715 1.817485,-7.051959 0.940258,-3.400963 2.251287,-1.941427 c -0.704132,-0.550265 -1.200973,-1.439243 -1.569601,-2.243799 -0.315194,-0.68703 -0.879354,-2.258761 -0.879354,-2.991737 0,-0.517149 0.286351,-1.417872 0.454103,-1.923261 0.576982,-1.728797 1.400776,-3.196885 2.576096,-4.594453 l 1.343081,-1.486252 c 0.559661,-0.486772 0.972149,-0.939353 1.420005,-1.398637 l 1.763976,-2.110999 m 6.965482,-16.44525 c -1.118696,0.268188 -1.789696,1.127244 -2.084598,2.208544 L 46.268745,48.2684 c -0.299174,1.654003 -0.894211,3.56914 -1.480479,5.261824 -0.617921,1.636224 -0.640333,1.668929 -1.921556,4.354473 l -1.969199,3.846519 c -1.103738,2.403005 -2.012206,6.100531 -2.170082,7.376735 -0.157876,1.276203 -0.159843,2.223358 0,3.414885 0.159842,1.191527 0.460712,2.57595 1.210587,3.846524 1.367653,2.050403 2.236321,3.004555 4.666038,3.645648 1.309957,0.34511 3.135985,0.612232 4.487608,0.628262 1.618745,0.01815 3.764246,-0.230799 5.342389,-0.60369 1.136854,-0.269257 2.349577,-0.611177 3.312279,-1.297135 1.338801,-0.952008 2.047635,-2.106013 2.628449,-3.441564 0.580823,-1.335552 0.622809,-2.471386 0.745359,-3.73967 l 0.01933,-1.282174 C 61.143668,67.255243 60.580964,64.279534 59.315889,61.51752 58.925896,60.664875 58.213214,59.474591 57.638376,58.739479 57.0208,57.949874 56.402043,57.320545 55.780297,55.961437 55.244703,54.751685 54.977868,53.726597 54.596418,52.54231 L 53.472387,48.2684 C 53.150777,46.924255 53.177485,45.255293 52.179531,44.212458 51.318334,43.3128 49.928244,43.367293 48.771081,43.49551 Z M 43.31895,42.676782 c -0.937523,1.170679 -2.564604,2.664443 -4.431235,3.675223 -2.026901,1.098395 -4.344428,1.5931 -6.62456,1.752303 l -1.282173,0.09723 c -3.384936,0.0054 -6.242045,-0.206216 -9.188906,-2.1049 -2.758808,-1.776877 -4.497221,-4.411742 -5.705669,-7.404548 -1.344145,-3.330444 -1.76192,-6.532671 -2.245939,-10.043688 l -0.26712,-2.030107 c -0.04274,-0.252161 -0.08655,-0.607964 -0.282078,-0.790674 -0.220106,-0.206216 -0.619717,-0.169887 -0.901795,-0.170956 h -0.641087 c -0.216901,0 -0.603689,0.02779 -0.779988,-0.105779 -0.250024,-0.189121 -0.337638,-0.874015 -0.381447,-1.176394 l -0.101505,-0.854781 c 0,-0.649635 0.335502,-2.162599 0.797084,-2.616702 0.295968,-0.291694 1.114422,-0.330159 1.534334,-0.388926 0.939191,-0.130354 2.51199,-0.239339 3.31228,-0.627196 l -1.709563,-0.960561 c -0.301312,-0.178436 -0.647498,-0.331228 -0.82166,-0.65284 -0.2949,-0.547061 -0.254298,-2.40621 -0.246818,-3.0879 0.01069,-0.914616 0.305584,-2.493826 0.491499,-3.419128 0.190189,-0.944533 0.353666,-1.9018888 0.767167,-2.7780414 0.237202,-0.5032521 0.955219,-2.0739146 1.423212,-2.2491448 0.602622,-0.2778035 1.31957,0.1324915 1.698879,0 0.415638,-0.0983 0.793879,-0.6293325 1.098395,-0.9242329 0.4915,-0.4744043 0.895384,-0.6549761 1.572798,-0.6720721 l 1.92326,0.1666827 c 0.529965,-0.096164 1.240502,-0.7639622 1.923259,-0.9541511 0.731907,-0.2051475 1.300338,0.2329284 1.816411,0.2297233 0.557747,-0.00211 1.015055,-0.4562397 1.602717,-0.5278279 0.892179,-0.1079166 1.442445,0.7126743 1.923259,0.6560447 0.422049,-0.051289 0.650703,-0.6154425 1.282173,-0.7222905 0.77892,-0.1324906 2.004465,0.5299644 2.412622,0.5021844 0.461583,-0.030988 0.619718,-0.5524028 1.327049,-0.6218537 0.81418,-0.079069 1.386884,0.4519659 1.816412,0.4487608 0.432734,-0.00211 0.564157,-0.371831 1.175325,-0.2991741 0.545993,0.064111 1.458472,0.4060212 1.92326,0.703058 0.276736,0.1762989 0.89859,0.7009216 1.175325,0.7351127 0.424185,0.051289 0.713743,-0.475473 1.165709,-0.3483239 0.328023,0.091889 0.750071,0.809906 0.956288,1.0994631 0.231859,0.3248176 0.999026,1.4061169 1.114422,1.709564 l 0.409227,1.9232602 c 0.453033,1.9702725 0.735112,3.6349595 0.735112,5.6629295 0,0.510733 0.04167,1.674305 -0.163478,2.104902 -0.151723,0.316269 -1.4168,1.223406 -1.759782,1.329185 -0.334433,0.132492 -1.4948,-0.03633 -2.030107,0 0.893247,0.369694 1.767262,0.817386 2.564346,1.378336 0.719085,0.50539 1.106942,0.979794 1.92326,1.351624 0.744728,0.338708 1.960847,1.082368 4.380757,1.082368 2.419909,0 3.064844,-0.445091 4.594454,-1.190285 0.597278,-0.291693 1.14327,-0.846233 1.709563,-1.243707 0.896453,-0.630402 1.163572,-0.685963 2.030107,-1.162503 h -1.068477 c -0.299174,-0.04274 -0.611169,-0.304516 -0.854782,-0.48402 -0.910342,-0.671004 -1.169983,-0.693443 -1.175325,-1.883727 v -2.136954 c 0.0032,-1.812138 0.529965,-3.578331 0.876151,-5.3423875 0.07373,-0.3750353 0.136766,-0.9498764 0.277805,-1.2821724 l 1.126174,-1.7095649 c 0.173094,-0.2532294 0.579115,-0.8996571 0.852646,-1.0054373 0.47654,-0.1837777 0.794947,0.382515 1.247982,0.309859 0.264982,-0.042738 0.905,-0.5534714 1.175325,-0.7254964 0.433801,-0.2767357 1.307816,-0.610101 1.816411,-0.6795518 0.719086,-0.0983 0.816317,0.3611452 1.389021,0.2596405 0.442349,-0.079069 1.127244,-0.5598825 1.709564,-0.4690618 0.623987,0.097232 0.817381,0.6336071 1.389022,0.6336071 0.47333,0.00101 1.644381,-0.5844574 2.2438,-0.5075276 0.63788,0.082276 0.950948,0.7490036 1.389021,0.7628936 0.399607,0.013886 0.991546,-0.6838256 1.709564,-0.6945105 0.649635,-0.010687 1.243711,0.5150065 1.709564,0.5588138 0.463726,0.04381 0.819523,-0.3045157 1.602715,-0.2489548 0.940258,0.065175 1.577079,0.8473022 2.2438,0.9530815 0.680631,0.1463816 1.535405,-0.4754729 2.671203,0 0.921029,0.3504604 1.18707,1.2041738 1.816404,1.4349657 0.562016,0.2094213 1.078103,-0.3739675 1.805736,0 0.443416,0.2254477 1.186006,1.7971789 1.423213,2.3025683 0.383577,0.8184545 0.547049,1.7854265 0.724416,2.6711945 0.36222,1.813205 0.555608,2.939381 0.534244,4.808148 -0.0042,0.359008 -0.118599,1.503348 -0.268186,1.793974 -0.148523,0.288488 -0.525693,0.460513 -0.800285,0.618648 l -1.709573,1.006505 2.991733,0.42205 c 0.356877,0.0406 1.171057,0.09937 1.439251,0.306652 0.52782,0.408159 0.892168,2.031177 0.892168,2.690427 l -0.101497,0.854781 c -0.114328,0.755414 -0.100442,1.267214 -0.947745,1.282173 h -1.923261 l -0.19766,1.38902 -0.30666,2.564347 c -0.654979,5.018638 -1.710628,9.988127 -5.010086,13.997055 -2.4949,3.030201 -6.421547,4.588041 -10.299058,4.594452 H 69.01878 l -1.282174,-0.09723 c -2.38484,-0.166683 -4.725875,-0.699854 -6.838254,-1.859152 -1.644388,-0.902863 -3.248044,-2.294823 -4.318961,-3.839856 -1.070917,-1.545034 -1.441205,-2.422075 -1.822648,-3.606363 l -1.124038,-4.27391 c -0.321612,-1.344145 -0.294901,-3.013107 -1.292858,-4.055941 -0.861193,-0.899658 -2.251282,-0.845165 -3.408443,-0.716948 -1.118697,0.268188 -1.7897,1.127244 -2.0846,2.208543 l -0.417774,2.564346 c -0.299175,1.654003 -0.925044,3.657722 -1.363904,4.941233 -0.438859,1.283511 -0.808654,2.039842 -1.746176,3.210521 z M 28.416636,20.64978 26.172834,20.878434 c -3.067599,0.392132 -7.100033,1.365515 -8.188811,4.671384 -0.207286,0.627195 -0.251093,1.056723 -0.252161,1.709563 -0.0032,2.173284 0.274599,2.865658 0.760756,4.914997 1.220201,5.147924 3.641371,10.605706 9.282931,12.034261 0.703059,0.177367 1.408255,0.351529 2.136956,0.360076 2.379499,0.02778 3.85293,0.0374 6.090321,-0.994751 4.21087,-1.943561 6.263415,-6.759189 6.988912,-11.079043 0.159203,-0.946671 0.382515,-2.265172 0.383583,-3.205433 v -1.282173 c -0.0011,-0.657113 -0.08013,-1.288584 -0.25964,-1.923259 -1.03215,-3.657398 -4.685274,-4.846613 -8.074485,-5.251566 l -2.136955,-0.18271 z m 38.892578,0 -2.030105,0.228654 c -2.375226,0.337639 -5.397948,1.281105 -6.763462,3.38921 -1.469158,2.268378 -1.249051,4.936366 -0.831276,7.479343 0.860124,5.231265 3.060119,10.957236 8.77006,12.433872 0.76824,0.198737 1.553572,0.378241 2.350649,0.387856 2.135888,0.02457 3.758905,0.01923 5.769786,-0.887904 4.630779,-2.087804 6.528396,-6.686532 7.679144,-11.292739 0.339775,-1.359103 0.835553,-3.32617 0.867604,-4.7013 0.01173,-0.520348 -0.078,-1.31209 -0.201947,-1.816411 -0.903927,-3.698001 -5.545401,-4.65322 -8.772196,-5.037871 l -2.350648,-0.18271 z" />
  <path
     style="fill:none;stroke:#000000;stroke-width:1.875;stroke-linecap:round;stroke-linejoin:round;stroke-dasharray:none;stroke-opacity:1"
     d="m 21.965009,32.994142 8.548998,8.548997"
     id="path1" />
  <path
     style="fill:none;stroke:#000000;stroke-width:1.875;stroke-linecap:round;stroke-linejoin:round;stroke-dasharray:none;stroke-opacity:1"
     d="M 22.207362,26.015947 35.769085,39.577669"
     id="path1-1" />
  <path
     style="fill:none;stroke:#000000;stroke-width:1.875;stroke-linecap:round;stroke-linejoin:round;stroke-dasharray:none;stroke-opacity:1"
     d="M 27.792642,24.325853 38.669348,35.202559"
     id="path1-1-7" />
  <path
     style="fill:none;stroke:#000000;stroke-width:1.875;stroke-linecap:round;stroke-linejoin:round;stroke-dasharray:none;stroke-opacity:1"
     d="m 34.254055,23.707205 5.962197,5.962197"
     id="path1-1-7-8" />
  <path
     style="fill:none;stroke:#000000;stroke-width:1.875;stroke-linecap:round;stroke-linejoin:round;stroke-dasharray:none;stroke-opacity:1"
     d="m 78.807739,32.831804 -8.548998,8.548997"
     id="path1-7" />
  <path
     style="fill:none;stroke:#000000;stroke-width:1.875;stroke-linecap:round;stroke-linejoin:round;stroke-dasharray:none;stroke-opacity:1"
     d="M 78.565386,25.853609 65.003663,39.415331"
     id="path1-1-2" />
  <path
     style="fill:none;stroke:#000000;stroke-width:1.875;stroke-linecap:round;stroke-linejoin:round;stroke-dasharray:none;stroke-opacity:1"
     d="M 72.980106,24.163515 62.1034,35.040221"
     id="path1-1-7-6" />
  <path
     style="fill:none;stroke:#000000;stroke-width:1.875;stroke-linecap:round;stroke-linejoin:round;stroke-dasharray:none;stroke-opacity:1"
     d="m 66.518693,23.544867 -5.962197,5.962197"
     id="path1-1-7-8-0" />
</svg>
