<?xml version="1.0" encoding="UTF-8" standalone="no"?>
<svg
   width="32"
   height="32"
   viewBox="0 0 99.999804 99.999425"
   version="1.1"
   id="svg1"
   sodipodi:docname="mustacheIcon2.svg"
   inkscape:version="1.3.2 (091e20e, 2023-11-25, custom)"
   xmlns:inkscape="http://www.inkscape.org/namespaces/inkscape"
   xmlns:sodipodi="http://sodipodi.sourceforge.net/DTD/sodipodi-0.dtd"
   xmlns="http://www.w3.org/2000/svg"
   xmlns:svg="http://www.w3.org/2000/svg">
  <defs
     id="defs1" />
  <sodipodi:namedview
     id="namedview1"
     pagecolor="#ffffff"
     bordercolor="#000000"
     borderopacity="0.25"
     inkscape:showpageshadow="2"
     inkscape:pageopacity="0.0"
     inkscape:pagecheckerboard="0"
     inkscape:deskcolor="#d1d1d1"
     inkscape:document-units="px"
     inkscape:zoom="13.635764"
     inkscape:cx="7.0403096"
     inkscape:cy="23.577703"
     inkscape:window-width="1920"
     inkscape:window-height="1009"
     inkscape:window-x="-8"
     inkscape:window-y="-8"
     inkscape:window-maximized="1"
     inkscape:current-layer="svg1" />
  <path
     id="Selection"
     fill="none"
     stroke="#fff"
     stroke-width="1"
     d="m 84.634381,35.907344 c 0.587358,-0.233079 1.727113,-0.736528 2.330786,-0.715551 0.904345,0.0303 2.281841,1.18404 3.030022,1.715458 0.720212,0.512773 1.650196,1.116447 2.179286,1.818014 0.424203,0.561719 0.813443,1.629219 1.144415,2.30981 1.540651,3.186184 1.060508,2.062744 1.678166,5.360807 0.111878,0.601345 0.32631,1.253963 0.314656,1.86463 -0.01165,0.587358 -0.738859,2.757321 -0.955621,3.496179 -0.305334,1.032538 -1.212009,4.14647 -1.727114,4.885328 -0.461495,0.664274 -1.519672,1.466065 -2.167631,2.01147 -1.160732,0.978929 -2.370409,2.204923 -3.729258,2.894835 0,0 -4.195415,1.449751 -4.195415,1.449751 -2.100038,0.776151 -4.253685,1.799366 -6.526201,1.811021 0,0 -8.390831,0 -8.390831,0 -2.421687,-0.0047 -5.955159,-0.813445 -8.390831,-1.354188 0,0 -6.060043,-1.757413 -6.060043,-1.757413 -0.813446,-0.254055 -2.239887,-0.813445 -3.030023,-0.853067 -1.219002,-0.06061 -4.957583,1.265616 -6.293123,1.69215 -2.810929,0.902015 -8.782403,2.267855 -11.653932,2.272518 0,0 -8.157753,0 -8.157753,0 -2.428679,-0.0047 -3.799181,-0.815776 -6.060043,-1.554635 0,0 -5.593888,-1.960192 -5.593888,-1.960192 C 11.557238,60.816458 10.771764,59.907451 10.049219,59.254831 9.3196841,58.595219 7.5109939,57.122161 7.0401752,56.378642 6.713865,55.865868 6.1334992,53.849737 5.9190669,53.155163 5.175546,50.742799 4.6604423,50.188072 4.6884117,47.561276 c 0.032631,-2.703712 0.764498,-4.407517 1.9205679,-6.75928 0.3402949,-0.692244 0.7341977,-1.731774 1.2050166,-2.291163 0.4195415,-0.494127 1.4474182,-1.235317 2.0021454,-1.636212 1.9671824,-1.412457 3.1582154,-2.438002 5.3608074,-0.734197 -3.055661,0.615326 -3.386632,0.808782 -5.593886,3.030021 -0.4731496,0.477811 -1.0814849,1.044193 -1.4031334,1.631551 -0.3962337,0.724874 -1.0232152,3.391294 -0.8530678,4.195415 0.163155,0.762167 0.8530678,1.505688 1.342533,2.097708 0.3799181,0.456834 0.9696069,1.195693 1.4008012,1.56862 0.85773,0.74352 3.265432,1.680496 4.407518,1.806358 1.011559,0.111878 3.997297,-1.251632 5.127729,-1.668843 0,0 4.195414,-1.545311 4.195414,-1.545311 0,0 6.526203,-3.027691 6.526203,-3.027691 2.540556,-1.198026 3.61738,-2.256202 6.526201,-2.260862 0,0 6.75928,0 6.75928,0 2.249211,0.03031 5.06946,1.731773 6.293125,1.701473 0,0 5.127728,-1.664182 5.127728,-1.664182 0,0 7.924674,0 7.924674,0 2.734013,-0.03263 5.064798,1.512681 7.458518,2.701382 0,0 9.789301,4.118499 9.789301,4.118499 0.950961,0.363603 4.088198,1.701474 4.894651,1.694481 0.512772,-0.0047 3.49851,-1.009229 3.962337,-1.291255 0.848407,-0.515104 3.006714,-2.838898 3.314377,-3.76422 0.272702,-0.818105 -0.256386,-3.894742 -0.71555,-4.661572 -0.510442,-0.848406 -2.892506,-3.202501 -3.76422,-3.663995 -1.058177,-0.564052 -2.07207,-0.503451 -3.263101,-1.230657 z"
     style="stroke-width:3.12489;stroke-linecap:round;stroke-linejoin:round;stroke-dasharray:none" />
</svg>
