<?xml version="1.0" encoding="UTF-8" standalone="no"?>
<svg
   width="32"
   height="32"
   viewBox="0 0 24.003047 24.003026"
   version="1.1"
   id="svg1"
   sodipodi:docname="MoustacheOffIcon1.svg"
   inkscape:version="1.3.2 (091e20e, 2023-11-25, custom)"
   xmlns:inkscape="http://www.inkscape.org/namespaces/inkscape"
   xmlns:sodipodi="http://sodipodi.sourceforge.net/DTD/sodipodi-0.dtd"
   xmlns="http://www.w3.org/2000/svg"
   xmlns:svg="http://www.w3.org/2000/svg">
  <defs
     id="defs1" />
  <sodipodi:namedview
     id="namedview1"
     pagecolor="#ffffff"
     bordercolor="#000000"
     borderopacity="0.25"
     inkscape:showpageshadow="2"
     inkscape:pageopacity="0.0"
     inkscape:pagecheckerboard="0"
     inkscape:deskcolor="#d1d1d1"
     inkscape:document-units="mm"
     inkscape:zoom="22.627417"
     inkscape:cx="13.788582"
     inkscape:cy="15.313281"
     inkscape:window-width="1920"
     inkscape:window-height="1009"
     inkscape:window-x="-8"
     inkscape:window-y="-8"
     inkscape:window-maximized="1"
     inkscape:current-layer="svg1" />
  <path
     id="Selection-7"
     style="fill:none;fill-rule:nonzero;stroke:#000000;stroke-width:0.461566;stroke-linecap:round;stroke-linejoin:round;stroke-dasharray:none;stroke-opacity:1"
     d="m 20.190153,15.377797 c 0.942753,-0.559336 1.92006,-1.529569 2.305138,-2.572857 l 0.279512,-0.767956 c 0.191413,-0.52774 0.208049,-0.700277 0.247369,-1.047251 v 0 c -0.109985,0.211174 -0.311892,0.628065 -0.488155,0.892714 -0.219494,0.33288 -0.533997,0.809128 -0.806551,1.111322 -0.358678,0.397286 -1.031584,0.896957 -1.515618,1.114817 -1.005135,0.453008 -2.550364,0.526134 -3.581127,0.104806 -1.629436,-0.665994 -2.456052,-2.01583 -2.90049,-3.662085 L 13.165078,8.2790912 c -0.45215,-0.9278471 -1.10831,-0.076255 -1.16356,-0.1157059 -0.05525,0.040394 -0.71141,-0.8111974 -1.163559,0.1166498 L 10.272806,10.552251 C 9.828368,12.198505 9.0017523,13.548342 7.3723163,14.214335 6.341553,14.635663 4.7963238,14.562538 3.7911896,14.10953 3.3071551,13.89167 2.634249,13.391998 2.2755718,12.994713 2.0030171,12.692519 1.6885145,12.21627 1.4690197,11.883391 1.2927565,11.618742 1.0908502,11.201851 0.98086445,10.990677 v 0 c 0.0393209,0.346974 0.055957,0.51951 0.24736955,1.04725 l 0.2795129,0.767956 c 0.3850779,1.043289 1.362384,2.013522 2.305137,2.572858 2.9793751,1.765498 7.0390911,0.367492 8.1886341,-2.660891 1.149543,3.02744 5.20926,4.425445 8.188635,2.659947 z"
     sodipodi:nodetypes="cccsscccccccccccccssccccc" />
</svg>
