<?xml version="1.0" encoding="UTF-8" standalone="no"?>
<svg
   width="32"
   height="32"
   viewBox="0 0 24.00299 24.002987"
   version="1.1"
   id="svg1"
   sodipodi:docname="mustacheIcon3.svg"
   inkscape:version="1.3.2 (091e20e, 2023-11-25, custom)"
   xmlns:inkscape="http://www.inkscape.org/namespaces/inkscape"
   xmlns:sodipodi="http://sodipodi.sourceforge.net/DTD/sodipodi-0.dtd"
   xmlns="http://www.w3.org/2000/svg"
   xmlns:svg="http://www.w3.org/2000/svg">
  <defs
     id="defs1" />
  <sodipodi:namedview
     id="namedview1"
     pagecolor="#ffffff"
     bordercolor="#000000"
     borderopacity="0.25"
     inkscape:showpageshadow="2"
     inkscape:pageopacity="0.0"
     inkscape:pagecheckerboard="0"
     inkscape:deskcolor="#d1d1d1"
     inkscape:document-units="mm"
     inkscape:zoom="16"
     inkscape:cx="15.0625"
     inkscape:cy="22.96875"
     inkscape:window-width="1920"
     inkscape:window-height="1009"
     inkscape:window-x="-8"
     inkscape:window-y="-8"
     inkscape:window-maximized="1"
     inkscape:current-layer="svg1" />
  <path
     id="path1-7"
     style="fill:none;fill-opacity:1;stroke:#000000;stroke-width:0.450056;stroke-linecap:round;stroke-linejoin:round;stroke-dasharray:none;stroke-opacity:1"
     d="m 11.008788,14.135092 c -0.344265,0.190517 -0.890017,0.391958 -1.4906679,0.562069 -1.89753,0.53664 -4.905175,0.531378 -6.751847,-0.184141 -0.9882237,-0.383189 -2.11148633,-1.17149 -1.98697173,-2.384191 0.07278,-0.712012 0.64800283,-1.459977 1.28548123,-1.760741 0.5743445,-0.271827 1.1127394,-0.227106 1.3152948,0.445447 -0.3682826,0.04998 -1.02593,0.128022 -1.2468995,0.457722 -0.3402227,0.50858 0.5348874,1.154829 0.9838405,1.198672 0.6707997,0.06576 1.3380937,-0.427032 1.8414127,-0.81636 0.871601,-0.675183 1.95716,-1.584491 2.893649,-2.1176236 0.947011,-0.53927 1.821246,-0.742703 2.8936489,-0.541024 l 1.255765,0.348101 1.255766,-0.348129 c 1.072403,-0.201678 1.946637,0.0018 2.893648,0.541025 0.936489,0.5331316 2.022048,1.4424406 2.893649,2.1176246 0.503319,0.389327 1.170613,0.882124 1.841413,0.816359 0.448953,-0.04384 1.324063,-0.690092 0.98384,-1.198672 -0.220969,-0.3297 -0.878617,-0.407741 -1.246899,-0.457722 0.202555,-0.672554 0.74095,-0.717274 1.315295,-0.445447 0.637478,0.300764 1.212701,1.048729 1.285481,1.760742 0.124515,1.2127 -0.998748,2.001001 -1.986972,2.384191 -1.846672,0.715519 -4.854316,0.72078 -6.751847,0.184141 -0.60065,-0.170112 -1.146402,-0.371553 -1.490667,-0.562069 -0.329452,-0.18232 -0.577714,-0.386495 -0.992707,-0.386482 -0.414993,1.3e-5 -0.663255,0.204189 -0.992706,0.386508 z"
     sodipodi:nodetypes="scccccccccccccccccccccszs" />
</svg>
