<?xml version="1.0" encoding="UTF-8" standalone="no"?>
<svg
   width="32"
   height="32"
   viewBox="0 0 24.00299 24.002987"
   version="1.1"
   id="svg1"
   sodipodi:docname="mustacheOffIcon4.svg"
   inkscape:version="1.3.2 (091e20e, 2023-11-25, custom)"
   xmlns:inkscape="http://www.inkscape.org/namespaces/inkscape"
   xmlns:sodipodi="http://sodipodi.sourceforge.net/DTD/sodipodi-0.dtd"
   xmlns="http://www.w3.org/2000/svg"
   xmlns:svg="http://www.w3.org/2000/svg">
  <defs
     id="defs1" />
  <sodipodi:namedview
     id="namedview1"
     pagecolor="#ffffff"
     bordercolor="#000000"
     borderopacity="0.25"
     inkscape:showpageshadow="2"
     inkscape:pageopacity="0.0"
     inkscape:pagecheckerboard="0"
     inkscape:deskcolor="#d1d1d1"
     inkscape:document-units="mm"
     inkscape:zoom="22.627417"
     inkscape:cx="12.860505"
     inkscape:cy="14.694563"
     inkscape:window-width="1920"
     inkscape:window-height="1009"
     inkscape:window-x="-8"
     inkscape:window-y="-8"
     inkscape:window-maximized="1"
     inkscape:current-layer="svg1" />
  <path
     id="path1"
     style="fill:none;stroke:#000000;stroke-width:0.465748;stroke-linecap:round;stroke-linejoin:round;stroke-dasharray:none;stroke-opacity:1"
     d="M 11.989678,9.4104978 C 11.272524,8.8400994 10.076677,9.0159682 9.2607958,9.3739453 8.0186288,9.9177231 6.2057614,12.184855 4.6707592,13.066991 3.1060309,13.955396 2.555853,13.574533 0.98296285,13.717249 c 0.051637,0.275565 0.0850471,0.552289 0.25756225,0.778793 0.6807795,0.894288 3.0398249,0.293857 3.5127892,0.204808 0.4729616,-0.08907 3.0208828,-0.935518 3.0208828,-0.935518 1.8908924,-0.664854 3.7400249,-1.754937 4.2218299,-3.047718 0.49494,1.295627 2.643603,2.482941 4.232765,3.027859 v 0 c 0,0 2.547918,0.84647 3.020883,0.935518 0.47296,0.08907 2.832009,0.68948 3.512788,-0.204807 0.172513,-0.226505 0.205891,-0.503235 0.257563,-0.778794 -1.572889,-0.142715 -2.123068,0.238148 -3.687796,-0.650258 -1.535002,-0.882136 -3.347868,-3.1492686 -4.590037,-3.6930457 -0.818437,-0.3591 -2.019227,-0.5349474 -2.735548,0.041592 -0.0014,-0.00246 -0.003,-0.00492 -0.0045,-0.00736"
     sodipodi:nodetypes="ccccccccscccccccc" />
</svg>
