<?xml version="1.0" encoding="UTF-8" standalone="no"?>
<svg
   width="32"
   height="32"
   viewBox="0 0 99.999804 99.999425"
   version="1.1"
   id="svg1"
   sodipodi:docname="mustacheIconOff2.svg"
   inkscape:version="1.3.2 (091e20e, 2023-11-25, custom)"
   xmlns:inkscape="http://www.inkscape.org/namespaces/inkscape"
   xmlns:sodipodi="http://sodipodi.sourceforge.net/DTD/sodipodi-0.dtd"
   xmlns="http://www.w3.org/2000/svg"
   xmlns:svg="http://www.w3.org/2000/svg">
  <defs
     id="defs1" />
  <sodipodi:namedview
     id="namedview1"
     pagecolor="#ffffff"
     bordercolor="#000000"
     borderopacity="0.25"
     inkscape:showpageshadow="2"
     inkscape:pageopacity="0.0"
     inkscape:pagecheckerboard="0"
     inkscape:deskcolor="#d1d1d1"
     inkscape:document-units="mm"
     inkscape:zoom="16"
     inkscape:cx="12.3125"
     inkscape:cy="20.03125"
     inkscape:window-width="1920"
     inkscape:window-height="1009"
     inkscape:window-x="-8"
     inkscape:window-y="-8"
     inkscape:window-maximized="1"
     inkscape:current-layer="svg1" />
  <path
     id="path1"
     style="fill:none;stroke:#000000;stroke-width:1.29915;stroke-linecap:round;stroke-linejoin:round;stroke-dasharray:none;stroke-opacity:1"
     d="m 55.809932,35.127686 8.208833,2.19955 c 2.841102,0.725043 4.826558,2.972694 6.976174,4.868412 l 8.997205,6.983271 c 0.884137,0.640586 3.762537,2.897194 4.599845,3.113788 0.53245,0.137506 3.904079,-0.07438 4.462815,-0.237784 1.021798,-0.298092 3.902485,-2.106159 4.47801,-2.979266 0.509551,-0.771749 0.815434,-4.105562 0.552645,-5.02733 C 93.792194,43.027822 91.97811,39.928155 91.203231,39.208162 90.263667,38.330182 89.196597,38.111539 88.1647,37.02768 v 0 c 0.673111,-0.07841 1.993472,-0.283566 2.612969,-0.09428 0.928363,0.282389 2.035023,1.859839 2.662534,2.617975 0.603713,0.731059 1.399491,1.614505 1.752826,2.48808 0.283506,0.699601 0.390411,1.913418 0.544348,2.710274 0.711544,3.728049 0.526006,2.431066 0.250411,6.018821 -0.05106,0.653954 -0.01008,1.389499 -0.191607,2.018826 -0.175092,0.605185 -1.530667,2.651116 -1.960278,3.356304 -0.60287,0.984814 -2.406352,3.958751 -3.145001,4.581131 -0.662417,0.560002 -1.981082,1.09684 -2.803655,1.481954 -1.47406,0.691863 -3.0674,1.626064 -4.666463,1.963556 l -4.748241,0.337267 c -2.390766,0.221101 -4.905641,0.683245 -7.262878,0.06456 l -8.691707,-2.328935 c -2.507229,-0.676974 -5.942922,-2.495511 -8.31584,-3.731681 0,0 -2.358897,-1.152537 -5.222101,-2.647298 -2.914968,1.938097 -8.531996,5.515612 -11.505194,6.317453 l -8.45027,2.264244 c -2.517054,0.669278 -4.161837,0.209463 -6.708843,0.07163 L 15.977177,64.039737 C 14.992287,63.773158 13.926344,63.049569 12.996753,62.574097 12.057978,62.093319 9.7755731,61.069455 9.0815041,60.429954 8.6011691,59.98937 7.4404003,58.062029 7.0254953,57.402067 5.5857458,55.109573 4.8982011,54.67792 4.1980879,51.949174 3.4814552,49.139458 3.7666614,47.171419 4.311436,44.414454 4.4717956,43.602938 4.5912941,42.4168 4.9237326,41.706674 c 0.2974367,-0.628291 1.1564489,-1.681353 1.6197953,-2.250592 1.6456828,-2.009109 2.5947782,-3.402008 5.3492511,-2.248456 -2.9944379,1.485511 -3.2835849,1.777771 -4.9534648,4.691295 -0.357495,0.626272 -0.8304412,1.381811 -1.0005976,2.079504 -0.2092477,0.860844 -0.1186269,3.796899 0.2808109,4.582629 0.3805501,0.744211 1.3015722,1.322903 1.9729069,1.800297 0.5203387,0.367766 1.3362487,0.969446 1.8864126,1.236063 1.094855,0.532112 3.848958,0.834411 5.066929,0.647792 1.078884,-0.164874 3.793234,-2.405991 4.848398,-3.151921 l 3.916942,-2.765191 5.919856,-4.94765 c 2.299134,-1.946133 3.120871,-3.341135 6.132697,-4.153327 l 7.001654,-1.876088 c 2.223457,-0.563779 6.153307,0.06125 6.930803,0.06915 0.777496,0.0079 5.913806,-0.292489 5.913806,-0.292489 z"
     sodipodi:nodetypes="cccccccccsscccccccccccccccccccccccscccccccccccccczc" />
</svg>
