<?xml version="1.0" encoding="UTF-8" standalone="no"?>
<svg
   width="32"
   height="32"
   viewBox="0 0 99.999804 99.999425"
   version="1.1"
   id="svg1"
   sodipodi:docname="Moustache2.svg"
   inkscape:version="1.3.2 (091e20e, 2023-11-25, custom)"
   xmlns:inkscape="http://www.inkscape.org/namespaces/inkscape"
   xmlns:sodipodi="http://sodipodi.sourceforge.net/DTD/sodipodi-0.dtd"
   xmlns="http://www.w3.org/2000/svg"
   xmlns:svg="http://www.w3.org/2000/svg">
  <defs
     id="defs1" />
  <sodipodi:namedview
     id="namedview1"
     pagecolor="#ffffff"
     bordercolor="#000000"
     borderopacity="0.25"
     inkscape:showpageshadow="2"
     inkscape:pageopacity="0.0"
     inkscape:pagecheckerboard="0"
     inkscape:deskcolor="#d1d1d1"
     inkscape:document-units="mm"
     inkscape:zoom="38.567764"
     inkscape:cx="16.74974"
     inkscape:cy="17.851696"
     inkscape:window-width="1920"
     inkscape:window-height="1009"
     inkscape:window-x="-8"
     inkscape:window-y="-8"
     inkscape:window-maximized="1"
     inkscape:current-layer="svg1" />
  <path
     id="Selection"
     fill="none"
     stroke="#000000"
     stroke-width="1"
     d="m 85.736864,35.458485 c 0.606053,-0.240497 1.782084,-0.759971 2.404972,-0.738326 0.933129,0.03126 2.354468,1.221726 3.126464,1.770059 0.743136,0.529094 1.70272,1.151982 2.248649,1.875879 0.437705,0.579598 0.839335,1.681075 1.180841,2.383327 1.589687,3.287597 1.094263,2.1284 1.73158,5.531436 0.115439,0.620483 0.336696,1.293875 0.324671,1.923978 -0.01202,0.606053 -0.762376,2.845082 -0.986038,3.607458 -0.315052,1.065403 -1.250586,4.278446 -1.782085,5.040822 -0.476184,0.685417 -1.568041,1.512727 -2.236624,2.075491 -1.197676,1.010088 -2.445856,2.275103 -3.847955,2.986975 0,0 -4.32895,1.495893 -4.32895,1.495893 -2.16688,0.800856 -4.389074,1.856638 -6.733922,1.868663 0,0 -8.6579,0 -8.6579,0 -2.498766,-0.0048 -6.144704,-0.839335 -8.6579,-1.397289 0,0 -6.252927,-1.813349 -6.252927,-1.813349 -0.839336,-0.262142 -2.311179,-0.839335 -3.126464,-0.880219 -1.257801,-0.06253 -5.115376,1.305899 -6.493425,1.746009 -2.900397,0.930725 -9.061935,2.340038 -12.024861,2.344848 0,0 -8.417403,0 -8.417403,0 -2.505981,-0.0048 -3.920104,-0.84174 -6.252927,-1.604116 0,0 -5.771933,-2.022582 -5.771933,-2.022582 C 10.333771,61.160423 9.5232964,60.222484 8.7777544,59.549092 8.0249985,58.868484 6.1587401,57.348542 5.6729358,56.581356 5.3362397,56.052262 4.7374016,53.971961 4.5161442,53.255279 3.748958,50.766133 3.2174592,50.19375 3.2463188,47.483346 c 0.03367,-2.789768 0.7888309,-4.547802 1.9816971,-6.974419 0.351126,-0.714277 0.7575662,-1.786894 1.2433706,-2.364088 0.432895,-0.509854 1.4934877,-1.274635 2.0658711,-1.68829 2.0297964,-1.457413 3.2587374,-2.515601 5.5314354,-0.757566 -3.152918,0.634912 -3.494424,0.834525 -5.7719326,3.126463 -0.4882093,0.49302 -1.1159071,1.077428 -1.4477932,1.683481 -0.4088453,0.747946 -1.0557828,3.499234 -0.8802199,4.32895 0.1683481,0.786426 0.8802199,1.553612 1.385264,2.164475 0.3920105,0.471374 1.0004684,1.23375 1.4453881,1.618546 0.88503,0.767186 3.3693656,1.733985 4.5478026,1.863853 1.043757,0.115439 4.124527,-1.29147 5.290938,-1.72196 0,0 4.32895,-1.594496 4.32895,-1.594496 0,0 6.733922,-3.124059 6.733922,-3.124059 2.62142,-1.236156 3.732517,-2.328013 6.733922,-2.332823 0,0 6.97442,0 6.97442,0 2.320798,0.03127 5.230814,1.786894 6.493425,1.75563 0,0 5.290938,-1.71715 5.290938,-1.71715 0,0 8.176906,0 8.176906,0 2.821032,-0.03367 5.226004,1.560826 7.695911,2.787362 0,0 10.100883,4.249586 10.100883,4.249586 0.981228,0.375176 4.218321,1.75563 5.050441,1.748415 0.529094,-0.0048 3.609864,-1.041353 4.088453,-1.332355 0.87541,-0.531499 3.102414,-2.929256 3.41987,-3.88403 0.281382,-0.844145 -0.264547,-4.018708 -0.738326,-4.809944 -0.526689,-0.87541 -2.98457,-3.304432 -3.88403,-3.780616 -1.091857,-0.582004 -2.13802,-0.519474 -3.366961,-1.269826 z"
     style="stroke-width:1.24999755;stroke-linecap:round;stroke-linejoin:round;stroke-dasharray:none" />
</svg>
