<?xml version="1.0" encoding="UTF-8" standalone="no"?>
<svg
   width="32"
   height="32"
   viewBox="0 0 24.00299 24.002987"
   version="1.1"
   id="svg1"
   sodipodi:docname="mustacheIcon3.svg"
   inkscape:version="1.3.2 (091e20e, 2023-11-25, custom)"
   xmlns:inkscape="http://www.inkscape.org/namespaces/inkscape"
   xmlns:sodipodi="http://sodipodi.sourceforge.net/DTD/sodipodi-0.dtd"
   xmlns="http://www.w3.org/2000/svg"
   xmlns:svg="http://www.w3.org/2000/svg">
  <defs
     id="defs1" />
  <sodipodi:namedview
     id="namedview1"
     pagecolor="#ffffff"
     bordercolor="#000000"
     borderopacity="0.25"
     inkscape:showpageshadow="2"
     inkscape:pageopacity="0.0"
     inkscape:pagecheckerboard="0"
     inkscape:deskcolor="#d1d1d1"
     inkscape:document-units="mm"
     inkscape:zoom="16"
     inkscape:cx="14.75"
     inkscape:cy="22.84375"
     inkscape:window-width="1920"
     inkscape:window-height="1009"
     inkscape:window-x="-8"
     inkscape:window-y="-8"
     inkscape:window-maximized="1"
     inkscape:current-layer="svg1" />
  <path
     id="path1"
     style="fill:none;fill-opacity:1;stroke:#000000;stroke-width:0.470886;stroke-linecap:round;stroke-linejoin:round;stroke-dasharray:none;stroke-opacity:1"
     d="m 13.558607,14.460948 c 1.854376,0.896096 4.948842,1.436154 6.978,1.035123 1.085931,-0.214903 2.384229,-0.821994 2.476096,-2.091898 0.05427,-0.745538 -0.401721,-1.61918 -1.00285,-2.044144 -0.541442,-0.383751 -1.103319,-0.435397 -1.433632,0.219621 0.369733,0.118199 1.032001,0.31774 1.199484,0.696929 0.257698,0.584801 -0.759598,1.090789 -1.22932,1.054462 -0.701874,-0.05399 -1.298846,-0.681872 -1.745924,-1.173596 -0.774032,-0.852491 -1.72567,-1.98464 -2.592204,-2.7028336 -0.876245,-0.7264155 -1.738544,-1.0942089 -2.878139,-1.0812643 0,0 -0.779869,0.093532 -1.341743,0.091435 -0.561873,-0.00209 -1.315502,-0.095314 -1.315502,-0.095314 C 9.5332793,8.3565245 8.6709887,8.7243675 7.7947357,9.4507335 6.9282012,10.168927 5.9765633,11.301075 5.2025316,12.153608 4.7554531,12.645332 4.1584813,13.273219 3.4566046,13.327234 2.9868842,13.363567 1.9695852,12.857573 2.2272844,12.272772 2.3947673,11.893583 3.0570366,11.694042 3.4267682,11.575843 3.0964555,10.920825 2.5345788,10.972471 1.9931368,11.356222 c -0.6011304,0.424964 -1.0571245,1.298606 -1.00285084,2.044144 0.0918671,1.269903 1.39016554,1.876993 2.47609654,2.091897 2.0291578,0.401032 5.1236251,-0.139026 6.9779995,-1.035122 0.586946,-0.283903 0.904697,-0.438503 1.557112,-0.846561 0.54895,0.329992 0.483122,0.330885 1.557113,0.850368 z"
     sodipodi:nodetypes="cccccccccczcccccccccccc" />
</svg>
