<?xml version="1.0" encoding="UTF-8" standalone="no"?>
<svg
   width="32"
   height="32"
   viewBox="0 0 24.00299 24.002987"
   version="1.1"
   id="svg1"
   sodipodi:docname="mustacheOffIcon4.svg"
   inkscape:version="1.3.2 (091e20e, 2023-11-25, custom)"
   xmlns:inkscape="http://www.inkscape.org/namespaces/inkscape"
   xmlns:sodipodi="http://sodipodi.sourceforge.net/DTD/sodipodi-0.dtd"
   xmlns="http://www.w3.org/2000/svg"
   xmlns:svg="http://www.w3.org/2000/svg">
  <defs
     id="defs1" />
  <sodipodi:namedview
     id="namedview1"
     pagecolor="#ffffff"
     bordercolor="#000000"
     borderopacity="0.25"
     inkscape:showpageshadow="2"
     inkscape:pageopacity="0.0"
     inkscape:pagecheckerboard="0"
     inkscape:deskcolor="#d1d1d1"
     inkscape:document-units="px"
     inkscape:zoom="22.627417"
     inkscape:cx="12.860505"
     inkscape:cy="14.694563"
     inkscape:window-width="1920"
     inkscape:window-height="1009"
     inkscape:window-x="-8"
     inkscape:window-y="-8"
     inkscape:window-maximized="1"
     inkscape:current-layer="svg1" />
  <path
     id="path1"
     style="fill:none;stroke:#fff;stroke-width:0.74978203;stroke-linecap:round;stroke-linejoin:round;stroke-dasharray:none;stroke-opacity:1"
     d="M 11.98983,9.4438228 C 11.281919,8.8807761 10.101485,9.0543782 9.2961197,9.4077415 8.0699627,9.9445107 6.2804607,12.182422 4.7652428,13.053188 c -1.544561,0.876955 -2.0876478,0.501001 -3.6402655,0.641877 0.050971,0.272013 0.083951,0.545171 0.2542426,0.768756 0.6720052,0.882761 3.0006455,0.290069 3.467514,0.202168 0.4668657,-0.08792 2.9819475,-0.92346 2.9819475,-0.92346 1.8665212,-0.656285 3.6918206,-1.732319 4.1674156,-3.008437 0.488561,1.278928 2.609531,2.450939 4.178211,2.988834 v 0 c 0,0 2.515078,0.835559 2.981947,0.92346 0.466864,0.08792 2.795508,0.680594 3.467513,-0.202167 0.170289,-0.223586 0.203237,-0.49675 0.254243,-0.768756 -1.552616,-0.140877 -2.095704,0.235078 -3.640265,-0.641877 -1.515217,-0.870767 -3.304718,-3.1086791 -4.530877,-3.6454476 -0.807889,-0.3544717 -1.993202,-0.5280526 -2.700291,0.041056 -0.0014,-0.00243 -0.003,-0.00486 -0.0044,-0.00727"
     sodipodi:nodetypes="ccccccccscccccccc" />
</svg>
