<?xml version="1.0" encoding="UTF-8" standalone="no"?>
<svg
   width="32"
   height="32"
   viewBox="0 0 24.003047 24.003026"
   version="1.1"
   id="svg1"
   sodipodi:docname="threeDim_mustacheIcon1.svg"
   inkscape:version="1.3.2 (091e20e, 2023-11-25, custom)"
   xmlns:inkscape="http://www.inkscape.org/namespaces/inkscape"
   xmlns:sodipodi="http://sodipodi.sourceforge.net/DTD/sodipodi-0.dtd"
   xmlns:xlink="http://www.w3.org/1999/xlink"
   xmlns="http://www.w3.org/2000/svg"
   xmlns:svg="http://www.w3.org/2000/svg">
  <defs
     id="defs1">
    <linearGradient
       id="linearGradient3"
       inkscape:collect="always">
      <stop
         style="stop-color:#2e91f5;stop-opacity:0.3982684;"
         offset="0"
         id="stop4" />
      <stop
         style="stop-color:#2e91f5;stop-opacity:0.85064936;"
         offset="0.90065145"
         id="stop3" />
    </linearGradient>
    <linearGradient
       id="linearGradient1"
       inkscape:collect="always">
      <stop
         style="stop-color:#f56314;stop-opacity:0.85281384;"
         offset="0.10260586"
         id="stop1" />
      <stop
         style="stop-color:#f56214;stop-opacity:0.4025974;"
         offset="1"
         id="stop2" />
    </linearGradient>
    <linearGradient
       inkscape:collect="always"
       xlink:href="#linearGradient1"
       id="linearGradient2"
       x1="0.18752372"
       y1="12.001451"
       x2="22.690369"
       y2="12.001451"
       gradientUnits="userSpaceOnUse" />
    <linearGradient
       inkscape:collect="always"
       xlink:href="#linearGradient3"
       id="linearGradient4"
       x1="1.312666"
       y1="11.251356"
       x2="23.815512"
       y2="11.251356"
       gradientUnits="userSpaceOnUse" />
  </defs>
  <sodipodi:namedview
     id="namedview1"
     pagecolor="#ffffff"
     bordercolor="#000000"
     borderopacity="0.25"
     inkscape:showpageshadow="2"
     inkscape:pageopacity="0.0"
     inkscape:pagecheckerboard="0"
     inkscape:deskcolor="#d1d1d1"
     inkscape:document-units="px"
     inkscape:zoom="19.290407"
     inkscape:cx="13.063488"
     inkscape:cy="18.999081"
     inkscape:window-width="1920"
     inkscape:window-height="1009"
     inkscape:window-x="-8"
     inkscape:window-y="-8"
     inkscape:window-maximized="1"
     inkscape:current-layer="svg1" />
  <path
     id="Selection-2"
     fill="none"
     stroke="#000000"
     stroke-width="1"
     d="m 1.8065329,7.8518136 c 0.02942,0.2231061 0.073978,0.6586317 0.1449748,0.9506557 0.087337,0.3665984 0.212709,0.8912399 0.3570897,1.2477357 0.190131,0.468791 0.6262439,1.130091 0.9857105,1.480049 0.7462642,0.727253 2.0950061,1.291704 3.1466679,1.250706 1.662458,-0.06478 2.8329514,-0.996405 3.7598402,-2.314845 L 11.43726,8.6307561 C 11.878722,8.20415 12.294039,8.3942813 12.501401,8.9213007 h 0.118831 c 0.18419,-0.538309 0.636345,-0.7046737 1.064141,-0.2905446 l 1.236445,1.8353589 c 0.906688,1.289921 2.222749,2.348713 3.878673,2.316033 1.696918,-0.03268 3.374229,-1.15564 4.013544,-2.731943 0.142006,-0.3505538 0.288371,-0.9221003 0.357092,-1.2477357 0.06871,-0.3256368 0.124758,-0.6906915 0.144974,-0.9506557 0.106643,0.4450307 0.125069,0.738245 0.125367,1.0035366 2.97e-4,0.2652915 -0.0066,0.600694 -0.0066,0.600694 -0.0018,1.1966368 -0.540092,2.4360528 -1.324382,3.3272938 -0.190725,0.216273 -0.358278,0.347583 -0.576928,0.529989 -2.234041,1.857342 -5.662339,1.758118 -7.783488,-0.238257 -0.611391,-0.575742 -0.860937,-1.093848 -1.188319,-1.836547 -0.343423,0.737946 -0.570392,1.248329 -1.190694,1.831793 C 9.0362069,15.266328 4.978693,15.195625 2.9032944,12.664506 2.2468049,11.862983 1.6924544,10.68536 1.687701,9.6342932 V 8.8618843 c 5.942e-4,-0.530584 0.041594,-0.689198 0.1188319,-1.0100707 z"
     sodipodi:nodetypes="ccccccccccccczczcccccccccc"
     style="stroke:#2e91f5;stroke-width:0.75007;stroke-linecap:round;stroke-linejoin:round;stroke-dasharray:none;stroke-opacity:1;fill:url(#linearGradient4)" />
  <path
     id="Selection"
     fill="none"
     stroke="#000000"
     stroke-width="1"
     d="m 0.68139061,8.6019085 c 0.02942,0.2231061 0.073978,0.6586317 0.1449748,0.9506557 0.087337,0.3665984 0.21270899,0.8912398 0.35708969,1.2477358 0.190131,0.468791 0.6262439,1.130091 0.9857105,1.480049 0.7462642,0.727253 2.0950061,1.291704 3.1466679,1.250706 1.662458,-0.06478 2.8329514,-0.996405 3.7598392,-2.314845 L 10.312117,9.380851 c 0.441462,-0.4266061 0.856779,-0.2364748 1.064141,0.2905446 h 0.118831 c 0.18419,-0.538309 0.636345,-0.7046737 1.064141,-0.2905446 l 1.236445,1.835359 c 0.906688,1.289921 2.222749,2.348713 3.878673,2.316033 1.696918,-0.03268 3.374229,-1.15564 4.013544,-2.731943 0.142006,-0.350554 0.288371,-0.9221004 0.357092,-1.2477358 0.06871,-0.3256368 0.124758,-0.6906915 0.144974,-0.9506557 0.106643,0.4450307 0.125069,0.738245 0.125367,1.0035366 2.97e-4,0.2652915 -0.0066,0.6006939 -0.0066,0.6006939 -0.0018,1.196637 -0.540092,2.436053 -1.324382,3.327294 -0.190725,0.216273 -0.358278,0.347583 -0.576928,0.529989 -2.234041,1.857342 -5.662339,1.758118 -7.783488,-0.238257 -0.611391,-0.575742 -0.860937,-1.093848 -1.188319,-1.836547 -0.343423,0.737946 -0.570392,1.248329 -1.190694,1.831793 C 7.9110646,16.016423 3.8535507,15.94572 1.7781521,13.414601 1.1216626,12.613078 0.56731211,11.435455 0.56255871,10.384388 V 9.6119792 c 5.942e-4,-0.530584 0.041594,-0.689198 0.1188319,-1.0100707 z"
     sodipodi:nodetypes="ccccccccccccczczcccccccccc"
     style="stroke:#f56314;stroke-width:0.75007;stroke-linecap:round;stroke-linejoin:round;stroke-dasharray:none;stroke-opacity:1;fill:url(#linearGradient2)" />
</svg>
