<?xml version="1.0" encoding="UTF-8" standalone="no"?>
<svg
   width="32"
   height="32"
   viewBox="0 0 99.999804 99.999425"
   version="1.1"
   id="svg1"
   sodipodi:docname="threeDim_mustacheIcon2.svg"
   inkscape:version="1.3.2 (091e20e, 2023-11-25, custom)"
   xmlns:inkscape="http://www.inkscape.org/namespaces/inkscape"
   xmlns:sodipodi="http://sodipodi.sourceforge.net/DTD/sodipodi-0.dtd"
   xmlns:xlink="http://www.w3.org/1999/xlink"
   xmlns="http://www.w3.org/2000/svg"
   xmlns:svg="http://www.w3.org/2000/svg">
  <defs
     id="defs1">
    <linearGradient
       id="linearGradient3"
       inkscape:collect="always">
      <stop
         style="stop-color:#f56314;stop-opacity:0.84848487;"
         offset="0.10260586"
         id="stop3" />
      <stop
         style="stop-color:#f56314;stop-opacity:0.4025974;"
         offset="1"
         id="stop4" />
    </linearGradient>
    <linearGradient
       id="linearGradient1"
       inkscape:collect="always">
      <stop
         style="stop-color:#2e91f5;stop-opacity:0.4025974;"
         offset="0"
         id="stop2" />
      <stop
         style="stop-color:#2e91f5;stop-opacity:0.85064936;"
         offset="0.90390879"
         id="stop1" />
    </linearGradient>
    <linearGradient
       inkscape:collect="always"
       xlink:href="#linearGradient1"
       id="linearGradient2"
       x1="5.4687393"
       y1="46.874705"
       x2="99.218555"
       y2="46.874705"
       gradientUnits="userSpaceOnUse" />
    <linearGradient
       inkscape:collect="always"
       xlink:href="#linearGradient3"
       id="linearGradient4"
       x1="0.78124851"
       y1="49.999713"
       x2="94.531065"
       y2="49.999713"
       gradientUnits="userSpaceOnUse" />
  </defs>
  <sodipodi:namedview
     id="namedview1"
     pagecolor="#ffffff"
     bordercolor="#000000"
     borderopacity="0.25"
     inkscape:showpageshadow="2"
     inkscape:pageopacity="0.0"
     inkscape:pagecheckerboard="0"
     inkscape:deskcolor="#d1d1d1"
     inkscape:document-units="px"
     inkscape:zoom="27.271528"
     inkscape:cx="16.354052"
     inkscape:cy="16.005704"
     inkscape:window-width="1920"
     inkscape:window-height="1009"
     inkscape:window-x="-8"
     inkscape:window-y="-8"
     inkscape:window-maximized="1"
     inkscape:current-layer="svg1" />
  <path
     id="Selection-5"
     fill="none"
     stroke="#000000"
     stroke-width="1"
     d="m 86.978126,32.782336 c 0.587358,-0.233079 1.727113,-0.736528 2.330786,-0.715551 0.904345,0.0303 2.281841,1.18404 3.030022,1.715458 0.720212,0.512773 1.650196,1.116447 2.179286,1.818014 0.424203,0.561719 0.813443,1.629219 1.144415,2.30981 1.540651,3.186184 1.060508,2.062744 1.678166,5.360807 0.111878,0.601345 0.32631,1.253963 0.314656,1.86463 -0.01165,0.587358 -0.738859,2.757321 -0.955621,3.496179 -0.305334,1.032538 -1.212009,4.14647 -1.727114,4.885328 -0.461495,0.664274 -1.519672,1.466065 -2.167631,2.01147 -1.160732,0.978929 -2.370409,2.204923 -3.729258,2.894835 0,0 -4.195415,1.449751 -4.195415,1.449751 -2.100038,0.776151 -4.253685,1.799366 -6.526201,1.811021 0,0 -8.390831,0 -8.390831,0 -2.421687,-0.0047 -5.955159,-0.813445 -8.390831,-1.354188 0,0 -6.060043,-1.757413 -6.060043,-1.757413 -0.813446,-0.254055 -2.239887,-0.813445 -3.030023,-0.853067 -1.219002,-0.06061 -4.957583,1.265616 -6.293123,1.69215 -2.810929,0.902015 -8.782403,2.267855 -11.653932,2.272518 0,0 -8.157753,0 -8.157753,0 -2.428679,-0.0047 -3.799181,-0.815776 -6.060043,-1.554635 0,0 -5.593888,-1.960192 -5.593888,-1.960192 C 13.900983,57.69145 13.115509,56.782443 12.392964,56.129823 11.663429,55.470211 9.8547393,53.997153 9.3839206,53.253634 9.0576104,52.74086 8.4772446,50.724729 8.2628123,50.030155 7.5192914,47.617791 7.0041877,47.063064 7.0321571,44.436268 c 0.032631,-2.703712 0.764498,-4.407517 1.9205679,-6.75928 0.3402949,-0.692244 0.7341977,-1.731774 1.205017,-2.291163 0.419541,-0.494127 1.447418,-1.235317 2.002145,-1.636212 1.967182,-1.412457 3.158215,-2.438002 5.360807,-0.734197 -3.055661,0.615326 -3.386632,0.808782 -5.593886,3.030021 -0.473149,0.477811 -1.081485,1.044193 -1.403133,1.631551 -0.396234,0.724874 -1.0232152,3.391294 -0.8530678,4.195415 0.163155,0.762167 0.8530678,1.505688 1.3425328,2.097708 0.379918,0.456834 0.969607,1.195693 1.400801,1.56862 0.85773,0.74352 3.265432,1.680496 4.407518,1.806358 1.011559,0.111878 3.997297,-1.251632 5.127729,-1.668843 0,0 4.195414,-1.545311 4.195414,-1.545311 0,0 6.526203,-3.027691 6.526203,-3.027691 2.540556,-1.198026 3.61738,-2.256202 6.526201,-2.260862 0,0 6.75928,0 6.75928,0 2.249211,0.03031 5.06946,1.731773 6.293125,1.701473 0,0 5.127728,-1.664182 5.127728,-1.664182 0,0 7.924674,0 7.924674,0 2.734013,-0.03263 5.064798,1.512681 7.458518,2.701382 0,0 9.789301,4.118499 9.789301,4.118499 0.950961,0.363603 4.088198,1.701474 4.894651,1.694481 0.512772,-0.0047 3.49851,-1.009229 3.962337,-1.291255 0.848407,-0.515104 3.006714,-2.838898 3.314377,-3.76422 0.272702,-0.818105 -0.256386,-3.894742 -0.71555,-4.661572 -0.510442,-0.848406 -2.892506,-3.202501 -3.76422,-3.663995 -1.058177,-0.564052 -2.07207,-0.503451 -3.263101,-1.230657 z"
     style="stroke-width:3.12489;stroke-linecap:round;stroke-linejoin:round;stroke-dasharray:none;stroke:#2e91f5;stroke-opacity:1;fill:url(#linearGradient2)" />
  <path
     id="Selection"
     fill="none"
     stroke="#000000"
     stroke-width="1"
     d="m 82.290636,35.907344 c 0.587358,-0.233079 1.727113,-0.736528 2.330786,-0.715551 0.904345,0.0303 2.281841,1.18404 3.030022,1.715458 0.720212,0.512773 1.650196,1.116447 2.179286,1.818014 0.424203,0.561719 0.813443,1.629219 1.144415,2.30981 1.540651,3.186184 1.060508,2.062744 1.678166,5.360807 0.111878,0.601345 0.32631,1.253963 0.314656,1.86463 -0.01165,0.587358 -0.738859,2.757321 -0.955621,3.496179 -0.305334,1.032538 -1.212009,4.14647 -1.727114,4.885328 -0.461495,0.664274 -1.519672,1.466065 -2.167631,2.01147 -1.160732,0.978929 -2.370409,2.204923 -3.729258,2.894835 0,0 -4.195415,1.449751 -4.195415,1.449751 -2.100038,0.776151 -4.253685,1.799366 -6.526201,1.811021 0,0 -8.390831,0 -8.390831,0 -2.421687,-0.0047 -5.955159,-0.813445 -8.390831,-1.354188 0,0 -6.060043,-1.757413 -6.060043,-1.757413 -0.813446,-0.254055 -2.239887,-0.813445 -3.030023,-0.853067 -1.219002,-0.06061 -4.957583,1.265616 -6.293123,1.69215 -2.810929,0.902015 -8.782403,2.267855 -11.653932,2.272518 0,0 -8.157753,0 -8.157753,0 -2.428679,-0.0047 -3.799181,-0.815776 -6.060043,-1.554635 0,0 -5.593888,-1.960192 -5.593888,-1.960192 C 9.2134926,60.816458 8.4280186,59.907451 7.7054736,59.254831 6.9759387,58.595219 5.1672485,57.122161 4.6964298,56.378642 4.3701196,55.865868 3.7897538,53.849737 3.5753215,53.155163 2.8318006,50.742799 2.3166969,50.188072 2.3446663,47.561276 2.3772973,44.857564 3.1091643,43.153759 4.2652342,40.801996 4.6055291,40.109752 4.9994319,39.070222 5.4702508,38.510833 5.8897923,38.016706 6.917669,37.275516 7.4723962,36.874621 9.4395786,35.462164 10.630612,34.436619 12.833204,36.140424 9.7775426,36.75575 9.4465716,36.949206 7.2393176,39.170445 6.766168,39.648256 6.1578327,40.214638 5.8361842,40.801996 5.4399505,41.52687 4.812969,44.19329 4.9831164,44.997411 c 0.163155,0.762167 0.8530678,1.505688 1.342533,2.097708 0.3799181,0.456834 0.9696069,1.195693 1.4008012,1.56862 0.85773,0.74352 3.2654324,1.680496 4.4075184,1.806358 1.011559,0.111878 3.997297,-1.251632 5.127729,-1.668843 0,0 4.195414,-1.545311 4.195414,-1.545311 0,0 6.526203,-3.027691 6.526203,-3.027691 2.540556,-1.198026 3.61738,-2.256202 6.526201,-2.260862 0,0 6.75928,0 6.75928,0 2.249211,0.03031 5.06946,1.731773 6.293125,1.701473 0,0 5.127728,-1.664182 5.127728,-1.664182 0,0 7.924674,0 7.924674,0 2.734013,-0.03263 5.064798,1.512681 7.458518,2.701382 0,0 9.789301,4.118499 9.789301,4.118499 0.950961,0.363603 4.088198,1.701474 4.894651,1.694481 0.512772,-0.0047 3.49851,-1.009229 3.962337,-1.291255 0.848407,-0.515104 3.006714,-2.838898 3.314377,-3.76422 0.272702,-0.818105 -0.256386,-3.894742 -0.71555,-4.661572 -0.510442,-0.848406 -2.892506,-3.202501 -3.76422,-3.663995 -1.058177,-0.564052 -2.07207,-0.503451 -3.263101,-1.230657 z"
     style="stroke-width:3.12489;stroke-linecap:round;stroke-linejoin:round;stroke-dasharray:none;stroke:#f56314;stroke-opacity:1;fill:url(#linearGradient4)" />
</svg>
