<?xml version="1.0" encoding="UTF-8" standalone="no"?>
<svg
   width="32"
   height="32"
   viewBox="0 0 99.999758 99.999758"
   version="1.1"
   id="svg1"
   sodipodi:docname="threeDim_disguiseMustacheIcon.svg"
   inkscape:version="1.3.2 (091e20e, 2023-11-25, custom)"
   xmlns:inkscape="http://www.inkscape.org/namespaces/inkscape"
   xmlns:sodipodi="http://sodipodi.sourceforge.net/DTD/sodipodi-0.dtd"
   xmlns:xlink="http://www.w3.org/1999/xlink"
   xmlns="http://www.w3.org/2000/svg"
   xmlns:svg="http://www.w3.org/2000/svg">
  <defs
     id="defs1">
    <linearGradient
       id="linearGradient12"
       inkscape:collect="always">
      <stop
         style="stop-color:#2e91f5;stop-opacity:0.4025974;"
         offset="0"
         id="stop11" />
      <stop
         style="stop-color:#2e91f5;stop-opacity:0.85497838;"
         offset="1"
         id="stop12" />
    </linearGradient>
    <linearGradient
       id="linearGradient9"
       inkscape:collect="always">
      <stop
         style="stop-color:#f56314;stop-opacity:0.85064936;"
         offset="0"
         id="stop9" />
      <stop
         style="stop-color:#f56314;stop-opacity:0.40476191;"
         offset="1"
         id="stop10" />
    </linearGradient>
    <linearGradient
       id="linearGradient7"
       inkscape:collect="always">
      <stop
         style="stop-color:#f56314;stop-opacity:0.84632033;"
         offset="0"
         id="stop7" />
      <stop
         style="stop-color:#f56314;stop-opacity:0.40043291;"
         offset="1"
         id="stop8" />
    </linearGradient>
    <linearGradient
       id="linearGradient3"
       inkscape:collect="always">
      <stop
         style="stop-color:#2e91f5;stop-opacity:0.4025974;"
         offset="0"
         id="stop3" />
      <stop
         style="stop-color:#2e91f5;stop-opacity:0.84848487;"
         offset="1"
         id="stop4" />
    </linearGradient>
    <linearGradient
       inkscape:collect="always"
       xlink:href="#linearGradient7"
       id="linearGradient8"
       x1="55.709208"
       y1="37.849508"
       x2="87.96354"
       y2="37.849508"
       gradientUnits="userSpaceOnUse" />
    <linearGradient
       inkscape:collect="always"
       xlink:href="#linearGradient9"
       id="linearGradient10"
       x1="9.9093511"
       y1="37.849956"
       x2="42.038323"
       y2="37.849956"
       gradientUnits="userSpaceOnUse" />
    <linearGradient
       inkscape:collect="always"
       xlink:href="#linearGradient12"
       id="linearGradient11"
       x1="12.20622"
       y1="37.021832"
       x2="44.335194"
       y2="37.021832"
       gradientUnits="userSpaceOnUse" />
    <linearGradient
       inkscape:collect="always"
       xlink:href="#linearGradient3"
       id="linearGradient13"
       x1="58.006077"
       y1="37.021385"
       x2="90.260422"
       y2="37.021385"
       gradientUnits="userSpaceOnUse" />
  </defs>
  <sodipodi:namedview
     id="namedview1"
     pagecolor="#ffffff"
     bordercolor="#000000"
     borderopacity="0.25"
     inkscape:showpageshadow="2"
     inkscape:pageopacity="0.0"
     inkscape:pagecheckerboard="0"
     inkscape:deskcolor="#d1d1d1"
     inkscape:document-units="px"
     inkscape:zoom="16"
     inkscape:cx="15.25"
     inkscape:cy="21.28125"
     inkscape:window-width="1920"
     inkscape:window-height="1009"
     inkscape:window-x="-8"
     inkscape:window-y="-8"
     inkscape:window-maximized="1"
     inkscape:current-layer="svg1" />
  <path
     style="display:inline;stroke:#2e91f5;stroke-width:2.49999;stroke-linecap:round;stroke-linejoin:round;stroke-dasharray:none;stroke-opacity:1;fill:url(#linearGradient13)"
     d="m 70.738887,23.199942 -2.345624,0.264191 c -2.744382,0.390115 -6.236895,1.480214 -7.814636,3.91596 -1.697493,2.620928 -1.443177,5.703574 -0.960473,8.64178 0.659906,4.013541 3.311583,14.699419 12.84909,14.814475 2.46784,0.02838 4.34311,0.02222 6.66652,-1.025902 5.35049,-2.41229 7.54304,-7.72575 8.87263,-13.047851 0.39259,-1.570333 0.96542,-3.843122 1.00245,-5.431974 0.0136,-0.60122 -0.0901,-1.516015 -0.23334,-2.098717 -1.04441,-4.272743 -6.40726,-5.376422 -10.13556,-5.820855 l -2.71599,-0.211107 z"
     id="path10" />
  <path
     style="display:inline;stroke:#2e91f5;stroke-width:2.49999;stroke-linecap:round;stroke-linejoin:round;stroke-dasharray:none;stroke-opacity:1;fill:url(#linearGradient11)"
     d="m 25.801642,23.199942 -2.592533,0.264191 c -3.544364,0.453077 -8.203517,1.577742 -9.461514,5.39741 -0.239503,0.724673 -0.290118,1.220958 -0.291351,1.975261 -0.0037,2.511055 0.317275,3.311037 0.878991,5.678885 1.409845,5.948012 4.207312,12.25404 10.725682,13.90462 0.812327,0.204934 1.627124,0.406163 2.469081,0.416039 2.74932,0.0321 4.45175,0.04322 7.036876,-1.149356 4.86532,-2.245627 7.236872,-7.809697 8.075125,-12.800942 0.183946,-1.093802 0.441965,-2.617224 0.443199,-3.70362 v -1.481447 c -0.0013,-0.759242 -0.09259,-1.488856 -0.299993,-2.222172 -1.192565,-4.225829 -5.413456,-5.599871 -9.329417,-6.067762 l -2.469079,-0.211107 z"
     id="Selection-4-7" />
  <path
     id="Selection"
     fill="none"
     stroke="#000000"
     stroke-width="1"
     d="M 10.864971,23.146393 8.889708,22.036542 C 8.5415667,21.830373 8.1415761,21.653835 7.9403465,21.282238 7.5996137,20.650152 7.6465253,18.502055 7.6551676,17.714418 7.6675146,16.657652 8.0082458,14.833002 8.2230557,13.76389 8.4428036,12.672557 8.6316887,11.56641 9.1094558,10.554086 9.3835229,9.9726176 10.213135,8.1578446 10.753862,7.9553796 c 0.696281,-0.320979 1.524658,0.153083 1.96292,0 0.480234,-0.113577 0.917263,-0.7271428 1.269105,-1.0678768 0.56789,-0.5481356 1.034545,-0.7567718 1.817243,-0.7765248 l 2.222172,0.1925884 c 0.612331,-0.1111096 1.433301,-0.8826969 2.222172,-1.1024447 0.845659,-0.2370315 1.502435,0.26913 2.098716,0.2654266 0.644431,-0.00243 1.172814,-0.5271482 1.85181,-0.6098626 1.030842,-0.1246889 1.66663,0.8234378 2.222173,0.7580069 0.487643,-0.05926 0.751833,-0.7110943 1.481447,-0.8345485 0.899979,-0.1530824 2.315997,0.6123312 2.787591,0.5802336 0.533321,-0.035804 0.716033,-0.638257 1.533298,-0.7185019 0.940719,-0.091358 1.602432,0.5222103 2.098717,0.518507 0.499989,-0.00243 0.651838,-0.4296208 1.357994,-0.3456716 0.630851,0.074075 1.685148,0.4691249 2.222172,0.812327 0.319747,0.2036991 1.038248,0.8098585 1.357993,0.8493635 0.490112,0.05926 0.824673,-0.5493707 1.346883,-0.4024602 0.379004,0.1061707 0.866647,0.9357813 1.104915,1.2703413 0.267893,0.3752998 1.154293,1.6246548 1.287624,1.9752628 l 0.472829,2.2221734 c 0.523444,2.276492 0.849362,4.199904 0.849362,6.543061 0,0.59011 0.04815,1.934524 -0.188885,2.432044 -0.175304,0.365423 -1.636999,1.413547 -2.033286,1.535766 -0.386411,0.153083 -1.727121,-0.04198 -2.345625,0 1.032075,0.427151 2.041928,0.944425 2.962895,1.592557 0.830845,0.583937 1.278983,1.132073 2.222172,1.561692 0.860474,0.39135 2.265602,1.250589 5.061614,1.250589 2.796009,0 3.54118,-0.514266 5.308521,-1.375278 0.690107,-0.337028 1.320955,-0.977754 1.975262,-1.437003 1.035779,-0.728379 1.344414,-0.792575 2.345625,-1.34318 h -1.234539 c -0.345671,-0.04938 -0.706156,-0.351843 -0.987632,-0.559246 -1.051826,-0.77529 -1.351821,-0.801217 -1.357994,-2.176493 v -2.469079 c 0.0037,-2.09378 0.612332,-4.134475 1.012323,-6.1727 0.08518,-0.433323 0.158021,-1.0975064 0.320981,-1.4814474 l 1.301204,-1.975265 c 0.199996,-0.2925858 0.66912,-1.0394812 0.985163,-1.1617016 0.550605,-0.2123405 0.918498,0.4419648 1.441943,0.3580168 0.306165,-0.04938 1.045655,-0.6394914 1.357993,-0.8382526 0.501223,-0.3197457 1.511077,-0.7049225 2.098717,-0.7851674 0.830847,-0.1135772 0.943189,0.4172743 1.604903,0.2999938 0.5111,-0.091358 1.302439,-0.6468992 1.975264,-0.5419633 0.720966,0.1123435 0.944418,0.7320822 1.604902,0.7320822 0.546896,0.00117 1.89995,-0.6752935 2.592531,-0.5864074 0.73702,0.095064 1.098744,0.8654134 1.604902,0.8814621 0.461714,0.016044 1.145652,-0.7901054 1.975264,-0.802451 0.750602,-0.012347 1.437008,0.5950487 1.975263,0.6456646 0.535798,0.050618 0.946894,-0.3518434 1.851809,-0.2876473 1.086393,0.075303 1.822188,0.9789895 2.59253,1.101209 0.786415,0.1691323 1.774037,-0.5493707 3.086361,0 1.064175,0.4049283 1.371564,1.3913261 2.098709,1.6579871 0.649364,0.241969 1.24566,-0.432089 2.086382,0 0.512332,0.260487 1.370335,2.0764964 1.644408,2.6604334 0.443192,0.945658 0.632072,2.062917 0.837005,3.086349 0.418516,2.095015 0.64196,3.396219 0.617275,5.55543 -0.0049,0.414805 -0.137032,1.736998 -0.309867,2.072792 -0.171607,0.333326 -0.607395,0.532086 -0.924665,0.714799 l -1.975274,1.162936 3.456707,0.487644 c 0.412343,0.04691 1.353062,0.114812 1.662939,0.354311 0.609853,0.471596 1.030828,2.346861 1.030828,3.108574 l -0.117271,0.98763 c -0.132097,0.87282 -0.116053,1.464164 -1.095043,1.481448 h -2.222175 l -0.228379,1.6049 -0.354322,2.962897 c -0.756775,5.798633 -1.976492,11.540478 -5.78875,16.172471 -2.882657,3.501153 -7.419581,5.301113 -11.899734,5.30852 H 71.97469 L 70.493241,55.749354 C 67.73775,55.556766 65.032872,54.940729 62.592188,53.601253 60.69223,52.558068 58.690132,51.078017 57.195104,49.58299 l 3.615642,4.303443 1.459227,2.715986 c 0.383941,0.487644 0.758006,0.724676 1.165404,1.132073 l 1.219726,1.337008 c 1.361696,1.567865 2.511054,3.455476 3.16289,5.431975 0.217281,0.65801 0.608629,1.924648 0.553075,2.59253 -0.09629,1.167881 -1.056766,3.43573 -1.681444,4.444351 -0.217279,0.350606 -1.254291,1.602431 -1.253057,1.851807 0.0025,0.455541 1.243181,1.272814 1.583915,1.625879 0.501223,0.519754 0.781463,1.620961 1.001211,2.324649 l 2.79994,8.765232 1.267872,3.950527 2.354268,4.44434 -2.59254,-1.432062 -1.604897,-0.543201 -0.864177,1.604908 -2.222175,-1.975266 -0.617269,1.975266 -1.975265,-1.481452 c -0.330855,0.617275 -0.804919,1.174043 -1.357994,1.604898 l -0.493815,-1.357988 -0.219748,0.488876 c -0.717267,1.364162 -1.480213,-0.483942 -2.120939,-0.483942 -0.265427,0 -1.138247,0.978992 -1.486386,1.229608 l -1.357994,-1.975266 c -0.183946,0.646898 -1.067877,2.441915 -1.481448,2.962898 -0.401225,-0.704927 -0.962941,-1.68145 -1.111085,-2.469084 l -1.975263,2.222173 -1.357995,-2.469087 c -0.179008,0.627148 -1.049358,2.527108 -1.481448,2.962899 l -1.234539,-2.09871 c -0.398757,0.561702 -1.178986,1.772789 -1.728356,2.09871 l -1.111086,-3.086343 -1.357993,2.222165 h -0.246909 l -1.604901,-1.975263 -1.357993,1.604908 -1.234541,-1.728366 H 40.00011 l -0.987632,2.469087 C 38.54829,94.363291 37.645841,92.925055 37.407576,92.280625 l -1.728356,1.85181 -1.357994,-1.481452 c -0.420977,0.664178 -1.228367,1.630831 -1.851808,2.098718 l -0.864178,-2.715988 -1.975265,2.345622 -0.370362,-2.345622 -3.333256,2.962899 1.90366,-4.320896 0.678997,-1.604897 0.518507,-1.851809 2.09995,-8.147965 1.086396,-3.929539 2.601176,-2.243162 c -0.813562,-0.635788 -1.387623,-1.662931 -1.81354,-2.592531 -0.364189,-0.793807 -1.016025,-2.609816 -1.016025,-3.456712 0,-0.597522 0.330856,-1.638235 0.524678,-2.222173 0.666653,-1.997485 1.618483,-3.693742 2.976476,-5.30852 l 1.551817,-1.717245 c 0.539494,-0.514804 1.21849,-0.990101 1.640702,-1.616012 l 1.228369,-2.46908 2.777174,-3.90309 c -1.695022,1.695022 -3.367285,2.943852 -5.524026,4.111727 -2.341922,1.269108 -5.019638,1.840699 -7.654146,2.024646 l -1.481449,0.112342 C 24.114052,55.867952 20.812892,55.623431 17.408032,53.429653 14.220451,51.376614 12.211854,48.332239 10.81559,44.874293 9.2625382,41.026233 8.779833,37.326317 8.2205871,33.269619 L 7.911952,30.923993 C 7.862572,30.632641 7.8119542,30.221539 7.5860335,30.010435 7.3317185,29.772167 6.8700002,29.814143 6.5440825,29.812908 H 5.8033581 c -0.2506117,0 -0.697515,0.0321 -0.9012142,-0.12222 C 4.6132619,29.472173 4.5120302,28.680835 4.4614134,28.33146 L 4.344132,27.34383 c 0,-0.750603 0.3876452,-2.498711 0.9209661,-3.02339 0.3419674,-0.337028 1.2876258,-0.381472 1.7727993,-0.449372 1.0851603,-0.150615 2.9024028,-0.276538 3.8270736,-0.724675 z m 37.900371,11.398505 c -1.292563,0.309869 -2.067854,1.30244 -2.408587,2.551794 l -0.482704,2.962896 c -0.345672,1.911067 -1.033188,4.123855 -1.710578,6.079615 -0.71396,1.890525 -0.739847,1.928312 -2.220198,5.031243 l -2.275257,4.444342 c -1.27528,2.77648 -2.324933,7.048674 -2.50735,8.523224 -0.182415,1.474551 -0.184686,2.568912 0,3.945626 0.184687,1.376714 0.532315,2.976304 1.398734,4.44435 1.58021,2.369075 2.583891,3.47152 5.391235,4.212252 1.513545,0.398747 3.623373,0.707386 5.185068,0.725907 1.870326,0.02097 4.349282,-0.26667 6.172699,-0.697515 1.313549,-0.311106 2.714752,-0.706166 3.827073,-1.498736 1.546877,-1.099968 2.365874,-2.433328 3.036967,-3.976451 0.671092,-1.543123 0.7196,-2.855488 0.861198,-4.320887 l 0.02237,-1.48145 c 0.005,-3.493749 -0.645309,-6.931942 -2.107004,-10.123228 -0.450606,-0.985162 -1.274045,-2.360439 -1.938227,-3.209803 -0.713564,-0.912325 -1.428482,-1.639465 -2.146863,-3.209803 -0.618834,-1.397772 -0.927145,-2.582178 -1.367871,-3.950527 l -1.298735,-4.938159 c -0.371597,-1.553053 -0.340735,-3.481403 -1.493794,-4.686314 -0.995039,-1.039483 -2.601176,-0.97652 -3.938182,-0.828376 z"
     sodipodi:nodetypes="ccccccccccccccccccccccccccsccccczccccccccccccccccccccccccccccccccccccccccccccccccccccccccccccccccccccsccccccccccccccccccccccccccccccccscccccccccccccccscccccccccccczzccccczcccccccccc"
     style="stroke-width:2.49999;stroke-linecap:round;stroke-linejoin:round;stroke-dasharray:none" />
  <path
     style="display:inline;stroke:#f56314;stroke-width:2.49999;stroke-linecap:round;stroke-linejoin:round;stroke-dasharray:none;stroke-opacity:1;fill:url(#linearGradient10);fill-opacity:1"
     d="m 23.504772,24.028065 -2.592533,0.264191 c -3.544364,0.453077 -8.203517,1.577742 -9.461513,5.39741 -0.239503,0.724673 -0.290118,1.220958 -0.291351,1.975261 -0.0037,2.511055 0.317275,3.311037 0.878991,5.678885 1.409844,5.948012 4.207311,12.25404 10.725681,13.90462 0.812327,0.204934 1.627124,0.406163 2.469081,0.416039 2.74932,0.0321 4.45175,0.04322 7.036876,-1.149356 4.86532,-2.245627 7.236872,-7.809697 8.075125,-12.800942 0.183946,-1.093802 0.441965,-2.617224 0.443199,-3.70362 v -1.481447 c -0.0013,-0.759242 -0.09259,-1.488856 -0.299993,-2.222172 -1.192565,-4.225829 -5.413456,-5.599871 -9.329417,-6.067762 l -2.469079,-0.211107 z"
     id="Selection-4" />
  <path
     style="display:inline;stroke:#f56314;stroke-width:2.49999;stroke-linecap:round;stroke-linejoin:round;stroke-dasharray:none;stroke-opacity:1;fill:url(#linearGradient8);fill-opacity:1"
     d="m 68.442017,24.028065 -2.345624,0.264191 c -2.744382,0.390115 -6.236895,1.480214 -7.814636,3.91596 -1.697493,2.620928 -1.443177,5.703574 -0.960473,8.64178 0.659906,4.013541 3.311583,14.699419 12.849086,14.814475 2.467847,0.02838 4.343112,0.02222 6.666523,-1.025902 5.350493,-2.41229 7.543037,-7.72575 8.872633,-13.047851 0.392584,-1.570333 0.965414,-3.843122 1.002447,-5.431974 0.01356,-0.60122 -0.09012,-1.516015 -0.233335,-2.098717 -1.044414,-4.272743 -6.407263,-5.376422 -10.135566,-5.820855 l -2.715985,-0.211107 z"
     id="path4" />
</svg>
