<?xml version="1.0" encoding="UTF-8" standalone="no"?>
<svg
   width="32"
   height="32"
   viewBox="0 0 99.999804 99.999425"
   version="1.1"
   id="svg1"
   sodipodi:docname="threeDim_mustacheOffIcon2.svg"
   inkscape:version="1.3.2 (091e20e, 2023-11-25, custom)"
   xmlns:inkscape="http://www.inkscape.org/namespaces/inkscape"
   xmlns:sodipodi="http://sodipodi.sourceforge.net/DTD/sodipodi-0.dtd"
   xmlns:xlink="http://www.w3.org/1999/xlink"
   xmlns="http://www.w3.org/2000/svg"
   xmlns:svg="http://www.w3.org/2000/svg">
  <defs
     id="defs1">
    <linearGradient
       id="linearGradient3"
       inkscape:collect="always">
      <stop
         style="stop-color:#f56314;stop-opacity:0.85497838;"
         offset="0.10260586"
         id="stop3" />
      <stop
         style="stop-color:#f56314;stop-opacity:0.4025974;"
         offset="1"
         id="stop4" />
    </linearGradient>
    <linearGradient
       id="linearGradient1"
       inkscape:collect="always">
      <stop
         style="stop-color:#2e91f5;stop-opacity:0.39610389;"
         offset="0"
         id="stop2" />
      <stop
         style="stop-color:#2e91f5;stop-opacity:0.84848487;"
         offset="0.90228015"
         id="stop1" />
    </linearGradient>
    <linearGradient
       inkscape:collect="always"
       xlink:href="#linearGradient1"
       id="linearGradient2"
       x1="5.4687393"
       y1="46.873658"
       x2="99.218553"
       y2="46.873658"
       gradientUnits="userSpaceOnUse" />
    <linearGradient
       inkscape:collect="always"
       xlink:href="#linearGradient3"
       id="linearGradient4"
       x1="0.78121678"
       y1="49.999713"
       x2="94.531097"
       y2="49.999713"
       gradientUnits="userSpaceOnUse" />
  </defs>
  <sodipodi:namedview
     id="namedview1"
     pagecolor="#ffffff"
     bordercolor="#000000"
     borderopacity="0.25"
     inkscape:showpageshadow="2"
     inkscape:pageopacity="0.0"
     inkscape:pagecheckerboard="0"
     inkscape:deskcolor="#d1d1d1"
     inkscape:document-units="px"
     inkscape:zoom="16"
     inkscape:cx="12.3125"
     inkscape:cy="19.78125"
     inkscape:window-width="1920"
     inkscape:window-height="1009"
     inkscape:window-x="-8"
     inkscape:window-y="-8"
     inkscape:window-maximized="1"
     inkscape:current-layer="svg1" />
  <path
     id="path1-4"
     style="fill:url(#linearGradient2);stroke:#2e91f5;stroke-width:3.12493;stroke-linecap:round;stroke-linejoin:round;stroke-dasharray:none;stroke-opacity:1"
     d="m 58.042557,32.291276 8.04825,2.156524 c 2.78553,0.710859 4.73215,2.914544 6.83971,4.773178 l 8.82121,6.846667 c 0.86684,0.628056 3.68893,2.840521 4.50986,3.052878 0.52203,0.134816 3.82771,-0.07292 4.37552,-0.233132 1.00181,-0.292262 3.82614,-2.06496 4.39041,-2.920988 0.49958,-0.756652 0.79948,-4.02525 0.54183,-4.928988 -0.28753,-1.000541 -2.06612,-4.039574 -2.82584,-4.745483 -0.92119,-0.860805 -1.96738,-1.075171 -2.9791,-2.137829 v 0 c 0.65995,-0.07687 1.95448,-0.278018 2.56186,-0.09243 0.9102,0.276865 1.99521,1.823457 2.61045,2.566763 0.5919,0.716758 1.37211,1.582923 1.71854,2.43941 0.27796,0.685915 0.38277,1.875988 0.5337,2.657257 0.69762,3.655121 0.51571,2.38351 0.24551,5.901083 -0.0501,0.641161 -0.01,1.362318 -0.18786,1.979334 -0.17167,0.593347 -1.50072,2.599257 -1.92193,3.29065 -0.59108,0.965549 -2.35928,3.881311 -3.08348,4.491517 -0.64946,0.549047 -1.94233,1.075383 -2.74881,1.452965 -1.44523,0.678329 -3.0074,1.594255 -4.57518,1.925145 l -4.65536,0.33067 c -2.344,0.216776 -4.80968,0.669879 -7.1208,0.0633 l -8.52169,-2.283378 c -2.45818,-0.663731 -5.82667,-2.446695 -8.15317,-3.658684 0,0 -2.31275,-1.12999 -5.119944,-2.595512 -2.857948,1.900185 -8.365098,5.407718 -11.280136,6.193873 l -8.284969,2.219952 c -2.467816,0.656186 -4.080425,0.205366 -6.577607,0.07023 L 18.988989,60.63777 c -0.965624,-0.261372 -2.010715,-0.970806 -2.922122,-1.436977 -0.920412,-0.471374 -3.158168,-1.475209 -3.83866,-2.1022 -0.470939,-0.431966 -1.609001,-2.321606 -2.01579,-2.968658 -1.4115864,-2.247649 -2.0856814,-2.670858 -2.7720994,-5.346226 -0.702614,-2.754753 -0.422987,-4.684294 0.111131,-7.387328 0.157223,-0.795642 0.274383,-1.958577 0.600319,-2.654812 0.291618,-0.616 1.133827,-1.648463 1.588109,-2.206567 1.6134914,-1.969808 2.5440214,-3.335459 5.2446114,-2.204473 -2.935861,1.456452 -3.219352,1.742995 -4.856566,4.599526 -0.3505024,0.614022 -0.8141974,1.354781 -0.9810254,2.038825 -0.205154,0.844006 -0.116306,3.722627 0.275318,4.492987 0.373106,0.729653 1.2761124,1.297025 1.9343144,1.765079 0.51016,0.360573 1.310109,0.950483 1.84951,1.211885 1.073438,0.521702 3.773667,0.818088 4.967813,0.63512 1.057779,-0.161649 3.719032,-2.358926 4.753555,-3.090264 l 3.840322,-2.7111 5.804054,-4.850866 c 2.254159,-1.908065 3.059821,-3.275778 6.012731,-4.072082 l 6.86469,-1.839388 c 2.179963,-0.552752 6.03294,0.06005 6.795226,0.0678 0.762287,0.0078 5.798127,-0.286767 5.798127,-0.286767 z"
     sodipodi:nodetypes="cccccccccsscccccccccccccccccccccccscccccccccccccczc" />
  <path
     id="path1"
     style="fill:url(#linearGradient4);stroke:#f56314;stroke-width:3.12499387;stroke-linecap:round;stroke-linejoin:round;stroke-dasharray:none;stroke-opacity:1"
     d="m 53.355063,35.417331 8.048255,2.156524 c 2.785526,0.710859 4.732144,2.914544 6.83971,4.773178 l 8.821205,6.846667 c 0.866842,0.628056 3.688936,2.840521 4.509865,3.052878 0.522034,0.134816 3.827709,-0.07292 4.375515,-0.233132 1.00181,-0.292262 3.826147,-2.06496 4.390413,-2.920988 0.499584,-0.756652 0.799483,-4.02525 0.541834,-4.928988 -0.287528,-1.000541 -2.066125,-4.039574 -2.825845,-4.745483 -0.921185,-0.860805 -1.967382,-1.075171 -2.979094,-2.137829 v 0 c 0.659943,-0.07687 1.954477,-0.278018 2.561856,-0.09243 0.910202,0.276865 1.995214,1.823457 2.61045,2.566763 0.591904,0.716758 1.372115,1.582923 1.718539,2.43941 0.277959,0.685915 0.382773,1.875988 0.533699,2.657257 0.697625,3.655121 0.515717,2.38351 0.245512,5.901083 -0.05006,0.641161 -0.0099,1.362318 -0.187858,1.979334 -0.171668,0.593347 -1.500725,2.599257 -1.921933,3.29065 -0.591076,0.965549 -2.359279,3.881311 -3.083479,4.491517 -0.649459,0.549047 -1.942329,1.075383 -2.748811,1.452965 -1.445226,0.678329 -3.007397,1.594255 -4.57518,1.925145 l -4.655358,0.33067 c -2.343999,0.216776 -4.80968,0.669879 -7.120805,0.0633 L 59.93187,62.002444 C 57.473686,61.338713 54.1052,59.555749 51.7787,58.34376 c 0,0 -2.312753,-1.12999 -5.119947,-2.595512 -2.857948,1.900185 -8.365098,5.407718 -11.280136,6.193873 l -8.284969,2.219952 c -2.467816,0.656186 -4.080425,0.205366 -6.577607,0.07023 L 14.301499,63.763825 C 13.335875,63.502453 12.290784,62.793019 11.379377,62.326848 10.458965,61.855474 8.2212089,60.851639 7.5407159,60.224648 7.069777,59.792682 5.9317146,57.903042 5.5249258,57.25599 4.1133401,55.008341 3.4392448,54.585132 2.7528269,51.909764 2.0502127,49.155011 2.3298399,47.22547 2.8639577,44.522436 c 0.1572228,-0.795642 0.2743837,-1.958577 0.6003192,-2.654812 0.2916184,-0.616 1.133827,-1.648463 1.5881095,-2.206567 1.6134908,-1.969808 2.5440203,-3.335459 5.2446116,-2.204473 -2.9358621,1.456452 -3.219353,1.742995 -4.8565674,4.599526 -0.3505019,0.614022 -0.8141965,1.354781 -0.9810244,2.038825 -0.2051544,0.844006 -0.1163064,3.722627 0.2753178,4.492987 0.3731059,0.729653 1.2761114,1.297025 1.9343137,1.765079 0.5101601,0.360573 1.3101102,0.950483 1.8495112,1.211885 1.073438,0.521702 3.7736671,0.818088 4.9678131,0.63512 1.057779,-0.161649 3.719032,-2.358926 4.753555,-3.090264 l 3.840322,-2.7111 5.804054,-4.850866 c 2.254159,-1.908065 3.059821,-3.275778 6.012731,-4.072082 l 6.86469,-1.839388 c 2.179963,-0.552752 6.03294,0.06005 6.795226,0.0678 0.762287,0.0078 5.798123,-0.286767 5.798123,-0.286767 z"
     sodipodi:nodetypes="cccccccccsscccccccccccccccccccccccscccccccccccccczc" />
</svg>
