<?xml version="1.0" encoding="UTF-8" standalone="no"?>
<svg
   width="32"
   height="32"
   viewBox="0 0 99.999741 100.00025"
   version="1.1"
   id="svg1"
   sodipodi:docname="dogEarsIcon.svg"
   inkscape:version="1.3.2 (091e20e, 2023-11-25, custom)"
   xmlns:inkscape="http://www.inkscape.org/namespaces/inkscape"
   xmlns:sodipodi="http://sodipodi.sourceforge.net/DTD/sodipodi-0.dtd"
   xmlns="http://www.w3.org/2000/svg"
   xmlns:svg="http://www.w3.org/2000/svg">
  <defs
     id="defs1" />
  <sodipodi:namedview
     id="namedview1"
     pagecolor="#ffffff"
     bordercolor="#000000"
     borderopacity="0.25"
     inkscape:showpageshadow="2"
     inkscape:pageopacity="0.0"
     inkscape:pagecheckerboard="0"
     inkscape:deskcolor="#d1d1d1"
     inkscape:document-units="in"
     inkscape:zoom="8.982488"
     inkscape:cx="18.424739"
     inkscape:cy="33.565311"
     inkscape:window-width="1920"
     inkscape:window-height="1009"
     inkscape:window-x="-8"
     inkscape:window-y="-8"
     inkscape:window-maximized="1"
     inkscape:current-layer="svg1" />
  <path
     id="Selection-1"
     d="m 87.964977,73.970718 c 1.23712,0.615285 1.506421,0.388947 1.688535,0.04435 0.54116,-1.026405 0.0946,-2.283017 -0.2482,-3.863324 -0.342779,-1.580286 -0.688422,-3.780032 -0.882381,-4.927248 -0.193953,-1.147278 -0.19838,-2.176859 -0.232337,-3.010088 -0.03393,-0.833226 -0.01604,-1.983273 -0.01604,-1.983273 v -1.170871 -0.910573 c 0,0 0.134685,-1.404518 0.356875,-3.025987 0.222197,-1.621444 1.386272,-6.600342 1.386272,-6.600342 l 1.136956,-4.813189 c 0,0 0.867045,-3.707042 1.075576,-4.796648 0.208519,-1.089606 0.315047,-1.707637 0.315047,-1.707637 0,0 0.109836,-0.649136 0.158401,-0.978489 0.04847,-0.329351 0.105711,-0.642082 0.166418,-1.085944 0.06082,-0.443869 0.133597,-1.089767 0.167696,-1.657179 0.03408,-0.567405 -0.04749,-1.507847 -0.05658,-1.742 -0.0088,-0.234164 -0.0727,-0.828857 -0.371892,-1.838319 -0.299192,-1.009478 -0.808132,-2.263313 -2.283319,-3.232451 -0.591893,-0.390257 -1.076702,-0.572841 -1.662808,-0.736252 -0.586106,-0.163412 -1.100518,-0.31575 -2.195829,-0.28973 -0.755797,0.01688 -1.229419,-0.0054 -2.606263,0.742569 -1.376873,0.747832 -3.013425,2.624348 -3.762083,3.549909 -0.748624,0.925554 -0.890913,1.097653 -1.335593,1.647221 -0.444678,0.549556 -0.838717,1.057642 -1.332485,1.650177 -0.493756,0.592549 -1.634307,1.900801 -1.634307,1.900801 l -2.288177,2.567907 -1.100947,1.175944 -0.851661,0.915835 -0.663446,0.729497 -0.721864,0.81539 -0.861287,0.950156 -1.01867,1.042648 -1.24486,1.183119 c 0,0 -1.003963,0.819965 -1.497507,1.212699 -0.493598,0.39274 -1.065062,0.791204 -1.488338,1.09984 -0.423328,0.308621 -0.725255,0.542203 -1.052033,0.75099 -0.326752,0.208778 -0.625514,0.44207 -0.910203,0.635692 -0.284694,0.193607 -0.486757,0.322254 -0.79261,0.522058 -0.305822,0.19982 -0.901977,0.622519 -1.277893,0.852772 -0.376016,0.230228 -1.173898,0.531767 -0.831264,1.432597 0.342664,0.900838 2.643171,2.018401 3.308581,2.288338 0.665368,0.26994 1.17543,0.37155 1.464858,0.322762 0.289455,-0.04875 0.986579,-0.440369 1.119891,-0.53858 0.133367,-0.0982 0.980407,-0.745824 2.00221,-1.561902 1.021817,-0.816064 2.469884,-2.055364 3.993058,-3.474011 1.523205,-1.418665 3.71892,-3.630297 5.084239,-5.000202 1.365263,-1.369943 2.310452,-2.352946 3.125967,-3.200134 0.815526,-0.847167 1.149744,-1.172867 1.776973,-1.873225 0.627253,-0.700371 1.730921,-1.981354 2.06522,-2.313722 0.334339,-0.33237 1.251991,-1.21551 2.087162,-0.45972 1.002957,0.909303 0.619792,1.70632 0.06437,4.044612 -0.555487,2.338287 -2.512022,9.423211 -3.032696,11.183121 -0.520655,1.759927 -0.662677,2.151032 -0.842669,3.008988 -0.179964,0.857945 -0.294197,1.278644 -0.372257,1.860798 -0.07806,0.582097 -0.216922,1.971799 -0.259848,2.614329 -0.04285,0.642501 -0.01107,1.340109 0.0037,1.931996 0.01586,0.591896 0.12189,1.618335 0.248723,2.537741 0.126863,0.919403 0.348245,2.317454 0.455559,2.776265 0.107281,0.458827 0.319612,1.252249 0.434367,1.616723 0.114753,0.364463 0.310317,0.769304 0.645236,1.35037 0.334918,0.581029 1.48298,2.233397 1.48298,2.233397 1.553226,1.713213 2.676131,2.984142 3.913245,3.599472 z m -75.93164,0 c -1.23712,0.615285 -1.506421,0.388947 -1.688534,0.04435 -0.5411613,-1.026405 -0.0946,-2.283017 0.248198,-3.863324 0.342784,-1.580286 0.688423,-3.780032 0.882388,-4.927248 0.193947,-1.147278 0.198373,-2.176859 0.232328,-3.010088 0.03393,-0.833226 0.01604,-1.983273 0.01604,-1.983273 v -1.170871 -0.910573 c 0,0 -0.134684,-1.404518 -0.356882,-3.025987 C 11.144682,53.50226 9.9806027,48.523362 9.9806027,48.523362 l -1.136959,-4.813189 c 0,0 -0.867045,-3.707042 -1.0755771,-4.796648 -0.208519,-1.089606 -0.315045,-1.707637 -0.315045,-1.707637 0,0 -0.109836,-0.649136 -0.158403,-0.978489 -0.04847,-0.329351 -0.10571,-0.642082 -0.166418,-1.085944 -0.06081,-0.443869 -0.133592,-1.089767 -0.167695,-1.657179 -0.03408,-0.567405 0.04749,-1.507847 0.05658,-1.742 0.0086,-0.234162 0.07271,-0.828854 0.371891,-1.838317 0.299205,-1.009465 0.8081481,-2.2633 2.2833301,-3.232439 0.5918933,-0.390256 1.0767003,-0.57284 1.6628133,-0.736251 0.586102,-0.163412 1.100513,-0.31575 2.195825,-0.28973 0.755797,0.01688 1.229421,-0.0054 2.606262,0.742569 1.376877,0.747832 3.013425,2.624348 3.762084,3.549908 0.748623,0.925554 0.890914,1.097653 1.335592,1.647221 0.444677,0.54956 0.838726,1.057642 1.332486,1.650178 0.493759,0.592548 1.634307,1.900801 1.634307,1.900801 l 2.288176,2.567906 1.100948,1.175944 0.851664,0.915835 0.663443,0.729498 0.721864,0.81539 0.861288,0.950156 1.018673,1.042647 1.24486,1.183119 c 0,0 1.003959,0.819965 1.497503,1.2127 0.493601,0.39274 1.065066,0.791204 1.488338,1.099839 0.423327,0.308623 0.725259,0.542205 1.052037,0.750993 0.326752,0.208775 0.625514,0.442067 0.910198,0.63569 0.284694,0.193606 0.486758,0.322254 0.792611,0.522057 0.305821,0.19982 0.90198,0.622519 1.277895,0.852772 0.376014,0.230228 1.173901,0.531767 0.831262,1.4326 -0.342664,0.900836 -2.643168,2.018398 -3.308578,2.288336 -0.665372,0.269939 -1.17543,0.371549 -1.464861,0.322763 -0.289455,-0.04875 -0.98658,-0.44037 -1.119891,-0.538581 -0.133368,-0.0982 -0.980404,-0.745824 -2.00221,-1.561902 -1.021816,-0.816063 -2.469885,-2.055363 -3.993058,-3.47401 -1.523205,-1.418667 -3.718921,-3.630298 -5.084239,-5.000203 -1.365264,-1.369944 -2.310448,-2.352946 -3.125967,-3.200133 -0.815527,-0.847168 -1.149736,-1.172866 -1.77697,-1.873226 -0.627256,-0.700372 -1.730917,-1.981355 -2.065218,-2.313722 -0.334336,-0.33237 -1.251997,-1.215511 -2.087163,-0.459721 -1.002957,0.909305 -0.619797,1.70632 -0.06437,4.044613 0.555481,2.338286 2.512013,9.42321 3.032691,11.183123 0.520651,1.759925 0.662672,2.15103 0.842664,3.008986 0.179965,0.857945 0.294198,1.278644 0.37226,1.860797 0.07806,0.582099 0.216923,1.971799 0.259846,2.614329 0.04285,0.642504 0.01107,1.34011 -0.0037,1.931996 -0.01586,0.591896 -0.121916,1.618335 -0.248729,2.537742 -0.126862,0.919404 -0.34824,2.317455 -0.455558,2.776265 -0.107281,0.458827 -0.31961,1.252248 -0.434366,1.616722 -0.114753,0.364464 -0.310313,0.769304 -0.645233,1.35037 -0.334921,0.581029 -1.482983,2.233397 -1.482983,2.233397 -1.553224,1.713213 -2.67613,2.984142 -3.913247,3.599474 z"
     style="fill:none;stroke:#fff;stroke-width:3.0000075;stroke-dasharray:none;stroke-opacity:1;stroke-linejoin:round;stroke-linecap:round" />
</svg>
