<?xml version="1.0" encoding="UTF-8" standalone="no"?>
<svg
   width="32"
   height="32"
   viewBox="0 0 24.003047 24.003026"
   version="1.1"
   id="svg1"
   sodipodi:docname="mustacheOffIcon1.svg"
   inkscape:version="1.3.2 (091e20e, 2023-11-25, custom)"
   xmlns:inkscape="http://www.inkscape.org/namespaces/inkscape"
   xmlns:sodipodi="http://sodipodi.sourceforge.net/DTD/sodipodi-0.dtd"
   xmlns="http://www.w3.org/2000/svg"
   xmlns:svg="http://www.w3.org/2000/svg">
  <defs
     id="defs1" />
  <sodipodi:namedview
     id="namedview1"
     pagecolor="#ffffff"
     bordercolor="#000000"
     borderopacity="0.25"
     inkscape:showpageshadow="2"
     inkscape:pageopacity="0.0"
     inkscape:pagecheckerboard="0"
     inkscape:deskcolor="#d1d1d1"
     inkscape:document-units="px"
     inkscape:zoom="22.627417"
     inkscape:cx="13.788582"
     inkscape:cy="15.224893"
     inkscape:window-width="1920"
     inkscape:window-height="1009"
     inkscape:window-x="-8"
     inkscape:window-y="-8"
     inkscape:window-maximized="1"
     inkscape:current-layer="svg1" />
  <path
     id="Selection-7"
     style="fill:none;fill-rule:nonzero;stroke:#fff;stroke-width:0.749779;stroke-linecap:round;stroke-linejoin:round;stroke-dasharray:none;stroke-opacity:1"
     d="m 20.083085,15.332415 c 0.930426,-0.552022 1.894955,-1.509569 2.274998,-2.539216 l 0.275858,-0.757914 c 0.18891,-0.520841 0.205328,-0.691121 0.244134,-1.033558 v 0 c -0.108547,0.208413 -0.307814,0.619852 -0.481772,0.881041 -0.216625,0.328527 -0.527015,0.798549 -0.796005,1.096791 -0.353989,0.392092 -1.018097,0.88523 -1.495801,1.100241 -0.991993,0.447084 -2.517018,0.519255 -3.534304,0.103435 -1.60813,-0.657285 -2.423938,-1.989472 -2.862565,-3.614202 L 13.149864,8.3265263 C 12.703626,7.410811 12.056046,8.251268 12.001519,8.2123332 11.946992,8.2521994 11.29941,7.4117424 10.853173,8.3274579 L 10.29541,10.569965 C 9.8567822,12.194693 9.0409747,13.526881 7.4328439,14.184166 6.415558,14.599985 4.890533,14.527816 3.8985411,14.080732 3.4208354,13.86572 2.7567277,13.372581 2.4027403,12.980491 2.1337493,12.682249 1.8233589,12.212226 1.6067341,11.8837 1.4327756,11.622511 1.2335092,11.211071 1.1249615,11.002658 v 0 c 0.038807,0.342438 0.055226,0.512717 0.2441351,1.033557 l 0.2758582,0.757915 c 0.380043,1.029648 1.3445706,1.987195 2.274997,2.539217 2.9404191,1.742414 6.9470532,0.362687 8.0815672,-2.626099 1.134512,2.987855 5.141148,4.367581 8.081566,2.625167 z"
     sodipodi:nodetypes="cccsscccccccccccccssccccc" />
</svg>
