<?xml version="1.0" encoding="UTF-8" standalone="no"?>
<svg
   width="32"
   height="32"
   viewBox="0 0 24.003047 24.003026"
   version="1.1"
   id="svg1"
   sodipodi:docname="mustacheIcon1.svg"
   inkscape:version="1.3.2 (091e20e, 2023-11-25, custom)"
   xmlns:inkscape="http://www.inkscape.org/namespaces/inkscape"
   xmlns:sodipodi="http://sodipodi.sourceforge.net/DTD/sodipodi-0.dtd"
   xmlns="http://www.w3.org/2000/svg"
   xmlns:svg="http://www.w3.org/2000/svg">
  <defs
     id="defs1" />
  <sodipodi:namedview
     id="namedview1"
     pagecolor="#ffffff"
     bordercolor="#000000"
     borderopacity="0.25"
     inkscape:showpageshadow="2"
     inkscape:pageopacity="0.0"
     inkscape:pagecheckerboard="0"
     inkscape:deskcolor="#d1d1d1"
     inkscape:document-units="px"
     inkscape:zoom="19.290407"
     inkscape:cx="12.752453"
     inkscape:cy="16.199762"
     inkscape:window-width="1920"
     inkscape:window-height="1009"
     inkscape:window-x="-8"
     inkscape:window-y="-8"
     inkscape:window-maximized="1"
     inkscape:current-layer="svg1" />
  <path
     id="Selection"
     fill="none"
     stroke="#fff"
     stroke-width="1"
     d="m 1.2439618,8.6019757 c 0.02942,0.2231061 0.073978,0.6586317 0.1449748,0.9506557 0.087337,0.366598 0.212709,0.8912396 0.3570897,1.2477356 0.190131,0.468791 0.6262439,1.130091 0.9857105,1.480049 0.7462642,0.727253 2.0950061,1.291704 3.1466679,1.250706 1.662458,-0.06478 2.8329514,-0.996405 3.7598397,-2.314845 L 10.874689,9.3809182 c 0.441462,-0.4266061 0.856779,-0.2364748 1.064141,0.2905449 h 0.118831 c 0.18419,-0.5383093 0.636345,-0.704674 1.064141,-0.2905449 l 1.236445,1.8353588 c 0.906688,1.289921 2.222749,2.348713 3.878673,2.316033 1.696918,-0.03268 3.374229,-1.15564 4.013544,-2.731943 0.142006,-0.350554 0.288371,-0.9221006 0.357092,-1.2477356 0.06871,-0.3256368 0.124758,-0.6906915 0.144974,-0.9506557 0.106643,0.4450307 0.125069,0.738245 0.125367,1.0035366 2.97e-4,0.2652913 -0.0066,0.6006937 -0.0066,0.6006937 -0.0018,1.196637 -0.540092,2.436053 -1.324382,3.327294 -0.190725,0.216273 -0.358278,0.347583 -0.576928,0.529989 -2.234041,1.857342 -5.662339,1.758118 -7.783488,-0.238257 -0.611391,-0.575742 -0.860937,-1.093848 -1.188319,-1.836547 -0.343423,0.737946 -0.570392,1.248329 -1.190694,1.831793 C 8.4736358,16.01649 4.4161219,15.945787 2.3407233,13.414668 1.6842338,12.613145 1.1298833,11.435522 1.1251299,10.384455 V 9.6120464 c 5.942e-4,-0.530584 0.041594,-0.689198 0.1188319,-1.0100707 z"
     sodipodi:nodetypes="ccccccccccccczczcccccccccc"
     style="stroke-width:0.75007;stroke-linecap:round;stroke-linejoin:round;stroke-dasharray:none" />
</svg>
