{
	"asset":{
		"generator":"Khronos glTF Blender I/O v3.6.27",
		"version":"2.0"
	},
	"scene":0,
	"scenes":[
		{
			"name":"Scene",
			"nodes":[
				0
			]
		}
	],
	"nodes":[
		{
			"mesh":0,
			"name":"eyeProtectionGlasses"
		}
	],
	"materials":[
		{
			"alphaMode":"BLEND",
			"doubleSided":true,
			"name":"material_0.001",
			"normalTexture":{
				"index":0
			},
			"pbrMetallicRoughness":{
				"baseColorFactor":[
					0.5726820230484009,
					0.5726820230484009,
					0.5726820230484009,
					1
				],
				"baseColorTexture":{
					"index":1
				},
				"metallicFactor":0.10495233535766602,
				"metallicRoughnessTexture":{
					"index":2
				},
				"roughnessFactor":0.29933351278305054
			}
		}
	],
	"meshes":[
		{
			"name":"Object_3",
			"primitives":[
				{
					"attributes":{
						"POSITION":0,
						"NORMAL":1,
						"TEXCOORD_0":2
					},
					"indices":3,
					"material":0
				}
			]
		}
	],
	"textures":[
		{
			"sampler":0,
			"source":0
		},
		{
			"sampler":0,
			"source":1
		},
		{
			"sampler":0,
			"source":2
		}
	],
	"images":[
		{
			"mimeType":"image/png",
			"name":"material_0_normal",
			"uri":"texs2/material_0_normal.png"
		},
		{
			"mimeType":"image/png",
			"name":"material_0_baseColor",
			"uri":"texs2/material_0_baseColor.png"
		},
		{
			"mimeType":"image/png",
			"name":"material_0_metallicRoughness",
			"uri":"texs2/material_0_metallicRoughness.png"
		}
	],
	"accessors":[
		{
			"bufferView":0,
			"componentType":5126,
			"count":27323,
			"max":[
				0.7617307305335999,
				0.44466811418533325,
				0.44854307174682617
			],
			"min":[
				-0.763405978679657,
				-0.48433181643486023,
				-0.15293587744235992
			],
			"type":"VEC3"
		},
		{
			"bufferView":1,
			"componentType":5126,
			"count":27323,
			"type":"VEC3"
		},
		{
			"bufferView":2,
			"componentType":5126,
			"count":27323,
			"type":"VEC2"
		},
		{
			"bufferView":3,
			"componentType":5123,
			"count":100947,
			"type":"SCALAR"
		}
	],
	"bufferViews":[
		{
			"buffer":0,
			"byteLength":327876,
			"byteOffset":0,
			"target":34962
		},
		{
			"buffer":0,
			"byteLength":327876,
			"byteOffset":327876,
			"target":34962
		},
		{
			"buffer":0,
			"byteLength":218584,
			"byteOffset":655752,
			"target":34962
		},
		{
			"buffer":0,
			"byteLength":201894,
			"byteOffset":874336,
			"target":34963
		}
	],
	"samplers":[
		{
			"magFilter":9729,
			"minFilter":9987
		}
	],
	"buffers":[
		{
			"byteLength":1076232,
			"uri":"eyeProtectionGlasses.bin"
		}
	]
}
