{
	"asset":{
		"generator":"Khronos glTF Blender I/O v3.6.27",
		"version":"2.0"
	},
	"scene":0,
	"scenes":[
		{
			"name":"Scene",
			"nodes":[
				0
			]
		}
	],
	"nodes":[
		{
			"mesh":0,
			"name":"masqueradeFaceMask"
		}
	],
	"materials":[
		{
			"name":"Masks2",
			"normalTexture":{
				"index":0
			},
			"pbrMetallicRoughness":{
				"baseColorTexture":{
					"index":1
				},
				"metallicRoughnessTexture":{
					"index":2
				}
			}
		}
	],
	"meshes":[
		{
			"name":"Object_6",
			"primitives":[
				{
					"attributes":{
						"POSITION":0,
						"NORMAL":1,
						"TEXCOORD_0":2
					},
					"indices":3,
					"material":0
				}
			]
		}
	],
	"textures":[
		{
			"sampler":0,
			"source":0
		},
		{
			"sampler":0,
			"source":1
		},
		{
			"sampler":0,
			"source":2
		}
	],
	"images":[
		{
			"mimeType":"image/png",
			"name":"Masks2_normal",
			"uri":"tex2/Masks2_normal.png"
		},
		{
			"mimeType":"image/png",
			"name":"Masks2_baseColor",
			"uri":"tex2/Masks2_baseColor.png"
		},
		{
			"mimeType":"image/png",
			"name":"Masks2_metallicRoughness",
			"uri":"tex2/Masks2_metallicRoughness.png"
		}
	],
	"accessors":[
		{
			"bufferView":0,
			"componentType":5126,
			"count":2461,
			"max":[
				0.6336845755577087,
				0.6891868114471436,
				0.38294854760169983
			],
			"min":[
				-0.6336564421653748,
				-0.42173123359680176,
				-0.6125378608703613
			],
			"type":"VEC3"
		},
		{
			"bufferView":1,
			"componentType":5126,
			"count":2461,
			"type":"VEC3"
		},
		{
			"bufferView":2,
			"componentType":5126,
			"count":2461,
			"type":"VEC2"
		},
		{
			"bufferView":3,
			"componentType":5123,
			"count":12096,
			"type":"SCALAR"
		}
	],
	"bufferViews":[
		{
			"buffer":0,
			"byteLength":29532,
			"byteOffset":0,
			"target":34962
		},
		{
			"buffer":0,
			"byteLength":29532,
			"byteOffset":29532,
			"target":34962
		},
		{
			"buffer":0,
			"byteLength":19688,
			"byteOffset":59064,
			"target":34962
		},
		{
			"buffer":0,
			"byteLength":24192,
			"byteOffset":78752,
			"target":34963
		}
	],
	"samplers":[
		{
			"magFilter":9729,
			"minFilter":9987
		}
	],
	"buffers":[
		{
			"byteLength":102944,
			"uri":"masqueradeMask.bin"
		}
	]
}
