<?xml version="1.0" encoding="UTF-8" standalone="no"?>
<svg
   width="32"
   height="32"
   viewBox="0 0 24.00299 24.002987"
   version="1.1"
   id="svg1"
   sodipodi:docname="mustacheIcon3.svg"
   inkscape:version="1.3.2 (091e20e, 2023-11-25, custom)"
   xmlns:inkscape="http://www.inkscape.org/namespaces/inkscape"
   xmlns:sodipodi="http://sodipodi.sourceforge.net/DTD/sodipodi-0.dtd"
   xmlns="http://www.w3.org/2000/svg"
   xmlns:svg="http://www.w3.org/2000/svg">
  <defs
     id="defs1" />
  <sodipodi:namedview
     id="namedview1"
     pagecolor="#ffffff"
     bordercolor="#000000"
     borderopacity="0.25"
     inkscape:showpageshadow="2"
     inkscape:pageopacity="0.0"
     inkscape:pagecheckerboard="0"
     inkscape:deskcolor="#d1d1d1"
     inkscape:document-units="px"
     inkscape:zoom="16"
     inkscape:cx="15.0625"
     inkscape:cy="22.84375"
     inkscape:window-width="1920"
     inkscape:window-height="1009"
     inkscape:window-x="-8"
     inkscape:window-y="-8"
     inkscape:window-maximized="1"
     inkscape:current-layer="svg1" />
  <path
     id="path1-7"
     style="fill:none;fill-opacity:1;stroke:#fff;stroke-width:0.750068;stroke-linecap:round;stroke-linejoin:round;stroke-dasharray:none;stroke-opacity:1"
     d="m 11.040158,14.065181 c -0.333387,0.184496 -0.861894,0.379571 -1.4435633,0.544308 -1.8375682,0.519681 -4.7501717,0.514586 -6.538489,-0.178323 -0.9569959,-0.37108 -2.0447635,-1.134471 -1.9241836,-2.308851 0.07048,-0.689513 0.627526,-1.413841 1.2448602,-1.705101 0.5561952,-0.263237 1.0775768,-0.219929 1.2737315,0.43137 -0.3566448,0.0484 -0.9935106,0.123977 -1.2074975,0.443259 -0.3294717,0.492509 0.517985,1.118336 0.9527511,1.160794 0.6496025,0.06368 1.29581,-0.413538 1.7832242,-0.790563 C 6.0250502,11.008227 7.0763056,10.127652 7.9832014,9.6113666 8.900287,9.0891375 9.7468962,8.8921331 10.78541,9.087439 l 1.216084,0.3371011 1.216083,-0.3371282 c 1.038516,-0.195305 1.885124,0.00174 2.802209,0.5239286 0.906896,0.5162855 1.958152,1.3968605 2.80221,2.0507085 0.487414,0.377024 1.133622,0.854249 1.783224,0.790562 0.434767,-0.04246 1.282223,-0.668285 0.952751,-1.160795 -0.213986,-0.319281 -0.850852,-0.394855 -1.207497,-0.443258 0.196155,-0.651301 0.717536,-0.694607 1.273732,-0.43137 0.617333,0.29126 1.174379,1.015588 1.24486,1.705102 0.12058,1.174378 -0.967188,1.937769 -1.924184,2.308851 -1.788317,0.692909 -4.70092,0.698003 -6.538488,0.178323 -0.581671,-0.164738 -1.110177,-0.359813 -1.443563,-0.544309 -0.319041,-0.176558 -0.559458,-0.374281 -0.961337,-0.374269 -0.401879,1.3e-5 -0.642296,0.197737 -0.961336,0.374295 z"
     sodipodi:nodetypes="scccccccccccccccccccccszs" />
</svg>
