<?xml version="1.0" encoding="UTF-8" standalone="no"?>
<svg
   width="32"
   height="32"
   viewBox="0 0 24.00299 24.002987"
   version="1.1"
   id="svg1"
   sodipodi:docname="threeDim_mustacheIcon3.svg"
   inkscape:version="1.3.2 (091e20e, 2023-11-25, custom)"
   xmlns:inkscape="http://www.inkscape.org/namespaces/inkscape"
   xmlns:sodipodi="http://sodipodi.sourceforge.net/DTD/sodipodi-0.dtd"
   xmlns:xlink="http://www.w3.org/1999/xlink"
   xmlns="http://www.w3.org/2000/svg"
   xmlns:svg="http://www.w3.org/2000/svg">
  <defs
     id="defs1">
    <linearGradient
       id="linearGradient3"
       inkscape:collect="always">
      <stop
         style="stop-color:#2e91f5;stop-opacity:0.3982684;"
         offset="0"
         id="stop4" />
      <stop
         style="stop-color:#2e91f5;stop-opacity:0.85497838;"
         offset="0.90228015"
         id="stop3" />
    </linearGradient>
    <linearGradient
       id="linearGradient1"
       inkscape:collect="always">
      <stop
         style="stop-color:#f56314;stop-opacity:0.85497838;"
         offset="0.09934854"
         id="stop1" />
      <stop
         style="stop-color:#f56314;stop-opacity:0.4025974;"
         offset="1"
         id="stop2" />
    </linearGradient>
    <linearGradient
       inkscape:collect="always"
       xlink:href="#linearGradient1"
       id="linearGradient2"
       x1="0.18752335"
       y1="12.001494"
       x2="22.690325"
       y2="12.001494"
       gradientUnits="userSpaceOnUse" />
    <linearGradient
       inkscape:collect="always"
       xlink:href="#linearGradient3"
       id="linearGradient4"
       x1="1.3126635"
       y1="11.251477"
       x2="23.815465"
       y2="11.251477"
       gradientUnits="userSpaceOnUse" />
  </defs>
  <sodipodi:namedview
     id="namedview1"
     pagecolor="#ffffff"
     bordercolor="#000000"
     borderopacity="0.25"
     inkscape:showpageshadow="2"
     inkscape:pageopacity="0.0"
     inkscape:pagecheckerboard="0"
     inkscape:deskcolor="#d1d1d1"
     inkscape:document-units="px"
     inkscape:zoom="16"
     inkscape:cx="15.0625"
     inkscape:cy="22.71875"
     inkscape:window-width="1920"
     inkscape:window-height="1009"
     inkscape:window-x="-8"
     inkscape:window-y="-8"
     inkscape:window-maximized="1"
     inkscape:current-layer="svg1" />
  <path
     id="path1-7-3"
     style="fill:url(#linearGradient4);fill-opacity:1;stroke:#2e91f5;stroke-width:0.750068;stroke-linecap:round;stroke-linejoin:round;stroke-dasharray:none;stroke-opacity:1"
     d="m 11.602728,13.315164 c -0.333387,0.184496 -0.861894,0.379571 -1.443563,0.544308 -1.8375687,0.519681 -4.7501717,0.514586 -6.5384887,-0.178323 -0.956996,-0.37108 -2.044764,-1.134471 -1.924184,-2.308851 0.07048,-0.689513 0.627526,-1.4138411 1.24486,-1.7051011 0.556196,-0.263237 1.077577,-0.219929 1.273732,0.4313701 -0.356645,0.0484 -0.993511,0.123977 -1.207498,0.443259 -0.329471,0.492509 0.517985,1.118336 0.952751,1.160794 0.649603,0.06368 1.29581,-0.413538 1.783225,-0.790563 C 6.5876203,10.25821 7.6388763,9.3776349 8.5457713,8.8613494 9.4628573,8.3391203 10.309466,8.1421159 11.34798,8.3374218 l 1.216084,0.3371011 1.216083,-0.3371282 c 1.038516,-0.195305 1.885124,0.00174 2.802209,0.5239286 0.906896,0.5162856 1.958152,1.3968607 2.80221,2.0507087 0.487414,0.377024 1.133622,0.854249 1.783224,0.790562 0.434767,-0.04246 1.282223,-0.668285 0.952751,-1.160795 -0.213986,-0.319281 -0.850852,-0.394855 -1.207497,-0.443258 0.196155,-0.6513011 0.717536,-0.6946071 1.273732,-0.4313701 0.617333,0.29126 1.174379,1.0155881 1.24486,1.7051021 0.12058,1.174378 -0.967188,1.937769 -1.924184,2.308851 -1.788317,0.692909 -4.70092,0.698003 -6.538488,0.178323 -0.581671,-0.164738 -1.110177,-0.359813 -1.443563,-0.544309 -0.319041,-0.176558 -0.559458,-0.374281 -0.961337,-0.374269 -0.401879,1.3e-5 -0.642296,0.197737 -0.961336,0.374295 z"
     sodipodi:nodetypes="scccccccccccccccccccccszs" />
  <path
     id="path1-7"
     style="fill:url(#linearGradient2);fill-opacity:1;stroke:#f56314;stroke-width:0.750068;stroke-linecap:round;stroke-linejoin:round;stroke-dasharray:none;stroke-opacity:1"
     d="m 10.477588,14.065181 c -0.333387,0.184496 -0.8618939,0.379571 -1.4435632,0.544308 -1.8375682,0.519681 -4.7501717,0.514586 -6.538489,-0.178323 -0.9569959,-0.37108 -2.04476354,-1.134471 -1.92418364,-2.308851 0.07048,-0.689513 0.62752604,-1.413841 1.24486024,-1.705101 0.5561952,-0.263237 1.0775768,-0.219929 1.2737315,0.43137 -0.3566448,0.0484 -0.9935106,0.123977 -1.2074975,0.443259 -0.3294717,0.492509 0.517985,1.118336 0.9527511,1.160794 0.6496025,0.06368 1.29581,-0.413538 1.7832242,-0.790563 C 5.4624803,11.008227 6.5137357,10.127652 7.4206315,9.6113666 8.3377171,9.0891375 9.1843263,8.8921331 10.22284,9.087439 l 1.216084,0.3371011 1.216083,-0.3371282 c 1.038516,-0.195305 1.885124,0.00174 2.802209,0.5239286 0.906896,0.5162855 1.958152,1.3968605 2.80221,2.0507085 0.487414,0.377024 1.133622,0.854249 1.783224,0.790562 0.434767,-0.04246 1.282223,-0.668285 0.952751,-1.160795 -0.213986,-0.319281 -0.850852,-0.394855 -1.207497,-0.443258 0.196155,-0.651301 0.717536,-0.694607 1.273732,-0.43137 0.617333,0.29126 1.174379,1.015588 1.24486,1.705102 0.12058,1.174378 -0.967188,1.937769 -1.924184,2.308851 -1.788317,0.692909 -4.70092,0.698003 -6.538488,0.178323 -0.581671,-0.164738 -1.110177,-0.359813 -1.443563,-0.544309 -0.319041,-0.176558 -0.559458,-0.374281 -0.961337,-0.374269 -0.401879,1.3e-5 -0.642296,0.197737 -0.961336,0.374295 z"
     sodipodi:nodetypes="scccccccccccccccccccccszs" />
</svg>
