<?xml version="1.0" encoding="UTF-8" standalone="no"?>
<svg
   height="1"
   viewBox="0 0 100 100"
   width="1"
   fill="#5f6368"
   version="1.1"
   id="svg1"
   xmlns="http://www.w3.org/2000/svg"
   xmlns:svg="http://www.w3.org/2000/svg">
  <defs
     id="defs1" />
  <path
     d="m 28.625,71.375 33.25,-9.5 9.5,-33.25 -33.25,9.5 z M 50,57.125 q -2.96875,0 -5.04687,-2.07812 Q 42.875,52.96875 42.875,50 q 0,-2.96875 2.07813,-5.04687 Q 47.03125,42.875 50,42.875 q 2.96875,0 5.04688,2.07813 Q 57.125,47.03125 57.125,50 q 0,2.96875 -2.07812,5.04688 Q 52.96875,57.125 50,57.125 Z M 50,97.5 Q 40.14375,97.5 31.475,93.75938 22.80625,90.01875 16.39375,83.60625 9.98125,77.19375 6.24063,68.525 2.5,59.85625 2.5,50 2.5,40.14375 6.24063,31.475 9.98125,22.80625 16.39375,16.39375 22.80625,9.98125 31.475,6.24063 40.14375,2.5 50,2.5 q 9.85625,0 18.525,3.74063 8.66875,3.74062 15.08125,10.15312 6.4125,6.4125 10.15313,15.08125 Q 97.5,40.14375 97.5,50 97.5,59.85625 93.75938,68.525 90.01875,77.19375 83.60625,83.60625 77.19375,90.01875 68.525,93.75938 59.85625,97.5 50,97.5 Z M 50,88 Q 65.79375,88 76.89688,76.89688 88,65.79375 88,50 88,34.20625 76.89688,23.10312 65.79375,12 50,12 34.20625,12 23.10312,23.10312 12,34.20625 12,50 12,65.79375 23.10312,76.89688 34.20625,88 50,88 Z m 0,-38 z"
     id="path1"
     style="fill:#000000;stroke-width:0.11875" />
</svg>
