<svg
  xmlns="http://www.w3.org/2000/svg"
  viewBox="0 0 100 100"
  width="1"
  height="1"
>
  <path
    d="m 53.334033,92.387699 c -2.078579,-2.697603 -3.310467,-5.59397 -4.930823,-8.995834 -2.310109,-4.34098 -3.569877,-7.130069 -4.308364,-11.429697 m 24.528715,-9.827962 c 0.01642,0.03284 2.478029,3.035999 5.415562,5.284275 3.085228,2.363157 5.763578,4.376504 7.74117,6.346551 M 63.902674,66.119925 c 0,0 1.362095,2.412385 3.561142,5.120168 2.06776,2.543674 5.349919,5.152991 7.680253,7.844359 3.068817,3.561142 4.460138,5.942419 5.19782,7.279165 M 57.338356,67.859468 c 0,0 1.001058,2.231869 3.462681,6.055587 1.624666,2.478029 3.676014,6.43303 6.006348,8.582844 2.65855,2.822656 2.572526,6.528579 2.572526,6.528579 M 52.365887,69.352851 c 0,0 0.640019,2.773427 2.002114,6.121226 1.115935,2.757016 3.313832,5.933295 4.593876,8.838007 1.821599,4.184363 2.408774,6.530351 2.664976,8.071295 M 29.554879,96.315785 C 29.19382,87.847818 30.014383,85.615949 27.766102,76.655656 26.223491,70.419553 24.254194,66.924055 22.777222,61.803886 21.119733,56.027287 19.512299,51.219406 19.282549,45.541273 19.184075,39.879552 21.4553,31.567257 25.22978,24.527026 l 46.93887,3.96e-4 5.568326,14.301356 c 4.529377,2.93753 4.808359,12.48861 1.870827,16.082574 -0.08205,5.793011 -0.08205,12.045525 0.06564,15.327684 0.886184,3.397032 2.67496,3.610375 6.104815,7.204339 1.85442,1.69031 2.588654,4.505552 0.545962,7.212809 -1.715003,1.977233 -2.721803,2.113792 -5.964779,1.719971 -1.059755,3.132653 -1.580124,3.637172 -3.754478,4.500243 -1.681129,0.27513 -2.155355,0.144827 -4.073184,-0.254501 -1.380059,-0.367121 -2.194634,-0.849637 -3.167139,-1.589672 -0.995272,1.29547 -0.993441,2.127529 -2.737838,3.007955 -2.251442,0.681498 -2.758781,0.614533 -5.010223,0.334156 -0.72279,1.483776 -1.27223,1.909863 -2.224054,2.566294 -1.677777,0.698966 -2.082267,0.617879 -3.607576,-0.05301 -1.235973,-0.833701 -1.318596,-1.030372 -2.45092,-2.499909 z"
    style="fill:#f56114;stroke:#000000;stroke-width:2.36847;stroke-linecap:round;stroke-linejoin:round"
  />
  <path
    d="m 25.232037,24.520947 c 0,0 -5.835441,0.04685 -10.102245,-0.100844 -3.971412,0.04923 -3.790893,-9.846477 0.131288,-9.797244 l 11.904604,0.104634 C 31.777116,8.7211408 33.573572,3.088174 45.520779,3.4430382 59.566162,3.1435778 61.466052,6.2081815 67.989116,14.579796 c 2.822655,0.04923 5.792859,0.01019 10.125308,0.02665 3.790892,-0.16411 4.562199,9.534671 -0.08205,9.731601 -2.560085,0.114877 -2.483082,0.135994 -5.87678,0.135864 z"
    style="fill:#000000;stroke:#000000;stroke-width:1.84644;stroke-linecap:round;stroke-linejoin:round"
  />
  <path
    d="m 77.495518,38.719665 c -2.785018,-1.221474 -6.011057,-0.842712 -8.751658,0.2076 -3.659607,1.624666 -5.628905,5.382738 -4.890418,8.467965 0.919006,2.986765 2.638325,4.622673 3.872946,5.79301 3.282159,2.904712 9.011202,2.811891 11.88309,1.728779 0,0 1.260906,-1.462704 1.674136,-4.031537 0.250879,-1.741569 0.341692,-3.641912 0.18436,-4.707486 -0.206506,-1.398714 -0.553515,-2.944862 -1.342232,-4.58602 C 79.02366,39.69123 78.341976,39.19936 77.495518,38.719686 Z M 45.046671,53.155398 C 41.026028,50.250686 38.597227,45.146929 44.89898,39.91189 c 4.956059,-3.167282 9.485436,-0.361059 11.733717,2.674955 3.282159,4.398094 3.70884,10.880357 -2.658547,12.324507 -3.232926,0.738486 -6.580729,-0.04922 -8.927479,-1.755954 z"
    style="fill:#ffffff;stroke:#000000;stroke-width:1.89478;stroke-linecap:round;stroke-linejoin:round"
  />
  <path
    d="m 77.394172,47.132284 c 0,0.63165 -0.512058,1.143708 -1.143713,1.143708 -0.63165,0 -1.143708,-0.512058 -1.143708,-1.143708 0,-0.631655 0.512058,-1.143713 1.143708,-1.143713 0.631655,0 1.143713,0.512058 1.143713,1.143713 z m -24.917038,0.467759 c 0,0.633579 -0.513616,1.147194 -1.14719,1.147194 -0.633579,0 -1.147195,-0.513615 -1.147195,-1.147194 0,-0.633579 0.513616,-1.147195 1.147195,-1.147195 0.633574,0 1.14719,0.513616 1.14719,1.147195 z"
    style="fill:#000000;stroke:#000000;stroke-width:1.84644;stroke-linecap:round;stroke-linejoin:round"
  />
</svg>
