<svg
  xmlns="http://www.w3.org/2000/svg"
  viewBox="0 0 100 100"
  width="1"
  height="1"
>
  <path
    d="m 2.5,50.674255 44.54723,-44.54723 2.97602,-2.92952 2.92952,2.92952 44.54723,44.54723 -5.90553,5.90553 -3.99902,-3.99902 v 44.22173 h -75.1909 v -44.22173 l -3.99902,3.99902 z M 79.2254,44.210725 49.97675,14.962065 20.7281,44.210725 v 44.22173 h 58.4508 v -44.22173 z" 
    style="stroke-width:5;stroke-linecap:round;stroke-linejoin:round;"
  />
  <path
    d="m 24.504345,60.023287 c 13.646974,-4.389388 19.50268,1.281931 25.463088,7.084196 4.291101,4.14822 8.598286,8.399175 17.499295,6.500073 l 1.382061,6.540294 C 56.233293,83.596899 52.784034,79.716773 46.616199,73.799649 42.101587,69.433835 36.547859,64.346706 26.530978,66.378444 Z m 2.949053,-9.260307 c 13.646974,-4.389389 19.50268,1.28193 25.463088,7.084195 4.291101,4.14822 8.598286,8.399175 17.499295,6.500074 l 1.382061,6.540294 C 59.182346,74.336591 55.733087,70.456465 49.565252,64.539341 45.06475,60.12922 39.496912,55.086398 29.480031,57.118137 Z m 3.005494,-9.437538 c 13.646974,-4.389389 19.50268,1.28193 25.463088,7.084195 4.291101,4.148221 8.598289,8.399166 17.499294,6.500074 l 1.382062,6.540294 C 62.18784,64.899053 58.738584,61.018918 52.570749,55.101794 48.056133,50.73599 42.502409,45.648851 32.485525,47.680599 Z" 
    style="stroke-width:1;stroke-linecap:round;stroke-linejoin:round;"
  />
</svg>
