<svg
  xmlns="http://www.w3.org/2000/svg"
  viewBox="0 0 100 100"
  height="1"
  width="1"
>
  <path
    d="m 16.039189,76.349713 c -3.76088,0 -6.9576398,-1.31631 -9.5902598,-3.94893 -2.63262,-2.63262 -3.94893,-5.82937 -3.94893,-9.59026 v -18.05226 c 0,-1.2787 0.4325,-2.35055 1.29751,-3.21555 0.865,-0.86501 1.93685,-1.29751 3.21555,-1.29751 H 65.795719 c 0.37609,-2.5574 1.39153,-4.79513 3.04632,-6.71318 1.65479,-1.91806 3.68567,-3.29078 6.09264,-4.11817 l 16.58551,-5.52851 c 1.20348,-0.37609 2.36936,-0.30087 3.49762,0.22566 1.12827,0.52652 1.88045,1.39152 2.25654,2.59501 0.37609,1.20348 0.28206,2.36936 -0.28207,3.49762 -0.56413,1.12827 -1.44794,1.88045 -2.65142,2.25653 l -16.58552,5.52851 c -0.90261,0.30087 -1.63598,0.8462 -2.20011,1.63598 -0.56414,0.78979 -0.8462,1.6736 -0.8462,2.65143 v 20.53444 c 0,3.76089 -1.31631,6.95764 -3.94893,9.59026 -2.63263,2.63262 -5.82938,3.94893 -9.59027,3.94893 z m 0,-9.02613 h 45.13064 c 1.2787,0 2.35056,-0.4325 3.21556,-1.2975 0.86501,-0.86501 1.29751,-1.93686 1.29751,-3.21556 v -13.53919 h -54.15677 v 13.53919 c 0,1.2787 0.4325,2.35055 1.2975,3.21556 0.86501,0.865 1.93686,1.2975 3.21556,1.2975 z"
    style="stroke-width:0.112827" 
  />
</svg>
