<svg
  xmlns="http://www.w3.org/2000/svg"
  viewBox="0 0 100 100"
  height="1"
  width="1"
>
  <path
    d="m 13.359987,97.49997 c -2.518998,0 -4.6754114,-0.89692 -6.469242,-2.69075 C 5.0969137,93.015386 4.199998,90.858972 4.199998,88.339984 V 33.380046 c 0,-1.908333 0.5152493,-3.625831 1.545748,-5.152492 1.0304987,-1.526662 2.4235803,-2.633496 4.1792445,-3.320496 L 69.128391,15.272615 c 1.068661,-0.381673 2.118243,-0.362572 3.148748,0.05727 1.030494,0.419835 1.736576,1.164089 2.118246,2.23275 0.38166,1.068662 0.362568,2.118252 -0.05727,3.148741 -0.419828,1.030508 -1.164075,1.736588 -2.232744,2.118252 l -9.614801,1.861444 24.149314,-0.470987 c 2.51852,-0.04908 4.675406,0.896916 6.469233,2.69075 1.793835,1.793825 2.690757,3.950239 2.690757,6.469235 v 54.959939 c 0,2.518987 -0.896922,4.675402 -2.690757,6.469236 C 91.31529,96.60309 89.158882,97.5 86.639884,97.5 Z m 0,-9.159986 H 86.639896 V 56.280012 H 13.359987 Z m 18.319974,-4.579992 c 3.205997,0 5.915828,-1.106836 8.129488,-3.320506 2.213668,-2.213659 3.320501,-4.923493 3.320501,-8.129488 0,-3.205995 -1.106833,-5.915827 -3.320501,-8.129488 -2.21366,-2.213669 -4.923491,-3.320504 -8.129488,-3.320504 -3.205991,0 -5.915821,1.106835 -8.129488,3.320504 -2.213663,2.213661 -3.320495,4.923493 -3.320495,8.129488 0,3.205995 1.106832,5.915829 3.320495,8.129488 2.213667,2.21367 4.923497,3.320506 8.129488,3.320506 z M 13.359987,47.120026 h 54.959934 v -4.579994 c 0,-1.29766 0.438914,-2.385405 1.316742,-3.263239 0.877831,-0.877836 1.965584,-1.316754 3.263251,-1.316754 1.297662,0 2.385409,0.438918 3.263243,1.316754 0.877834,0.877834 1.316751,1.965579 1.316751,3.263239 v 4.579994 h 9.159988 V 33.380046 H 13.359987 Z m 0,41.219958 V 56.280012 Z"
    style="stroke-width:0.1145" 
  />
</svg>
