<svg
  xmlns="http://www.w3.org/2000/svg"
  viewBox="0 0 100 100"
  height="1"
  width="1"
>
  <path
    d="m 4.616235,84.279313 q -1.73901,-1.27362 -2.05384,-3.31157 -0.31482,-2.03796 0.95879,-3.77697 l 35.96094,-49.1015 -15.54881,-11.38763 q -1.9436,-1.42345 -2.12228,-3.75461 -0.17868,-2.33115 1.65396,-3.97507 6.42429,-5.98211 15.1834,-6.24657 8.75911,-0.26447 15.81745,4.90492 l 20.45896,14.98372 q 1.73901,1.27362 2.05384,3.31157 0.31482,2.03796 -0.95879,3.77697 l -5.99349,8.18358 18.07577,-2.79237 q 1.4177,-0.21901 2.96869,0.13108 1.55098,0.35009 2.77852,1.24911 l 1.53442,1.12378 q 1.73901,1.27362 2.05384,3.31157 0.31482,2.03796 -0.95879,3.77697 l -17.98047,24.55075 q -1.27362,1.73901 -3.31157,2.05384 -2.03796,0.31483 -3.77697,-0.95879 l -1.53442,-1.12378 q -1.22754,-0.89902 -2.02933,-2.27206 -0.8018,-1.37304 -1.02081,-2.79075 l -2.79237,-18.07577 -35.96094,49.10151 q -1.27361,1.73901 -3.31157,2.05384 -2.03795,0.31482 -3.77696,-0.95879 z m 10.08528,-5.18684 8.18358,5.99349 17.98047,-24.55075 -8.18358,-5.99349 z m 23.97396,-32.73434 8.18358,5.99349 17.98047,-24.55075 -16.36717,-11.98698 q -2.65966,-1.94788 -5.79909,-2.59692 -3.13943,-0.64903 -6.30189,0.021 l 17.28782,12.66124 z m 1.09504,7.08854 z"
    style="stroke-width:0.126795" 
  />
</svg>
