<svg
  xmlns="http://www.w3.org/2000/svg"
  viewBox="0 0 100 100"
  height="1"
  width="1"
>
  <path
    d="m 63.963466,97.499997 q -8.306783,0 -14.121531,-5.814743 -5.814747,-5.814747 -5.814747,-14.121531 0,-8.306783 5.814747,-14.121531 5.814748,-5.814747 14.121531,-5.814747 8.306783,0 14.121531,5.814747 5.814748,5.814748 5.814748,14.121531 0,8.306784 -5.814748,14.121531 -5.814748,5.814743 -14.121531,5.814743 z m 0,-13.290847 q 2.824306,0 4.734867,-1.91056 1.91056,-1.91056 1.91056,-4.734867 0,-2.824305 -1.91056,-4.734866 -1.910561,-1.91056 -4.734867,-1.91056 -2.824306,0 -4.734866,1.91056 -1.91056,1.910561 -1.91056,4.734866 0,2.824307 1.91056,4.734867 1.91056,1.91056 4.734866,1.91056 z M 78.734069,39.144012 q -7.661929,0 -12.991967,-5.330038 -5.330038,-5.330038 -5.330038,-12.991967 0,-7.661929 5.330038,-12.9919665 5.330038,-5.330038 12.991967,-5.330038 7.66193,0 12.991968,5.330038 5.330038,5.3300375 5.330038,12.9919665 0,7.661929 -5.330038,12.991967 -5.330038,5.330038 -12.991968,5.330038 z m 0,-6.662547 q 4.913628,0 8.286545,-3.372914 3.372913,-3.372916 3.372913,-8.286544 0,-4.913628 -3.372913,-8.286544 -3.372917,-3.3729125 -8.286545,-3.3729125 -4.913627,0 -8.286544,3.3729125 -3.372913,3.372916 -3.372913,8.286544 0,4.913628 3.372913,8.286544 3.372917,3.372914 8.286544,3.372914 z M 28.853016,63.43883 q -10.687501,0 -18.298296,-7.610796 -7.610795,-7.610795 -7.610795,-18.298295 0,-10.687501 7.610795,-18.298296 7.610795,-7.610795 18.298296,-7.610795 10.6875,0 18.298296,7.610795 7.610795,7.610795 7.610795,18.298296 0,10.6875 -7.610795,18.298295 -7.610796,7.610796 -18.298296,7.610796 z m 0,-12.954545 q 5.34375,0 9.149148,-3.805399 3.805398,-3.805398 3.805398,-9.149147 0,-5.34375 -3.805398,-9.149148 -3.805398,-3.805398 -9.149148,-3.805398 -5.34375,0 -9.149148,3.805398 -3.805397,3.805398 -3.805397,9.149148 0,5.343749 3.805397,9.149147 3.805398,3.805399 9.149148,3.805399 z" 
    style="stroke-width:0.166135"
  />
</svg>
