<?xml version="1.0" encoding="UTF-8" standalone="no"?>
<svg
   viewBox="0 0 100 100"
   version="1.1"
   id="svg41"
   width="1"
   height="1"
   xmlns:xlink="http://www.w3.org/1999/xlink"
   xmlns="http://www.w3.org/2000/svg"
   xmlns:svg="http://www.w3.org/2000/svg">
  <defs
     id="defs4">
    <linearGradient
       id="b">
      <stop
         stop-color="#f00"
         offset="0"
         id="stop1" />
      <stop
         stop-color="#870000"
         offset="1"
         id="stop2" />
    </linearGradient>
    <radialGradient
       id="c"
       cx="160.61"
       cy="285.31"
       r="8.5188999"
       gradientTransform="matrix(0.70181,0.71236,-0.84698,0.83444,289.54,-67.013)"
       gradientUnits="userSpaceOnUse">
      <stop
         stop-color="#00f"
         offset="0"
         id="stop3" />
      <stop
         stop-color="#008"
         offset="1"
         id="stop4" />
    </radialGradient>
    <radialGradient
       id="i"
       cx="147.25"
       cy="115.69"
       r="10.416"
       gradientTransform="matrix(0.77206,0.58402,-0.37806,0.49979,77.301,-27.99)"
       gradientUnits="userSpaceOnUse"
       xlink:href="#b" />
    <radialGradient
       id="h"
       cx="304.85001"
       cy="102.97"
       r="8.1738005"
       gradientTransform="matrix(0.97931,0.57625,-0.33348,0.56674,40.646,-131.33)"
       gradientUnits="userSpaceOnUse"
       xlink:href="#b" />
    <radialGradient
       id="g"
       cx="276.34"
       cy="120.5"
       r="9.8640003"
       gradientTransform="matrix(0.92257,0.75772,-0.61404,0.74764,95.391,-178.79)"
       gradientUnits="userSpaceOnUse"
       xlink:href="#b" />
    <radialGradient
       id="f"
       cx="231.60001"
       cy="149.55"
       r="13.554"
       gradientTransform="matrix(0.64898,0.7608,-0.52051,0.444,159.14,-93.057)"
       gradientUnits="userSpaceOnUse"
       xlink:href="#b" />
    <radialGradient
       id="e"
       cx="234.55"
       cy="191.91"
       r="8.6220999"
       gradientTransform="matrix(0.72709,0.68654,-1.06,1.1226,267.44,-184.94)"
       gradientUnits="userSpaceOnUse"
       xlink:href="#b" />
    <radialGradient
       id="d"
       cx="188.66"
       cy="229.61"
       r="9.4155998"
       gradientTransform="matrix(0.67941,0.73376,-0.93661,0.86723,275.54,-107.75)"
       gradientUnits="userSpaceOnUse"
       xlink:href="#b" />
    <radialGradient
       id="a"
       cx="160.61"
       cy="285.31"
       r="8.5188999"
       gradientTransform="matrix(0.70181,0.71236,-0.84698,0.83444,289.54,-67.013)"
       gradientUnits="userSpaceOnUse"
       xlink:href="#b" />
    <radialGradient
       xlink:href="#b"
       id="radialGradient41"
       gradientUnits="userSpaceOnUse"
       gradientTransform="matrix(0.70181,0.71236,-0.84698,0.83444,289.54,-67.013)"
       cx="160.61"
       cy="285.31"
       r="8.5188999" />
    <radialGradient
       xlink:href="#b"
       id="radialGradient42"
       gradientUnits="userSpaceOnUse"
       gradientTransform="matrix(0.70181,0.71236,-0.84698,0.83444,289.54,-67.013)"
       cx="160.61"
       cy="285.31"
       r="8.5188999" />
    <radialGradient
       xlink:href="#b"
       id="radialGradient43"
       gradientUnits="userSpaceOnUse"
       gradientTransform="matrix(0.70181,0.71236,-0.84698,0.83444,289.54,-67.013)"
       cx="160.61"
       cy="285.31"
       r="8.5188999" />
    <radialGradient
       xlink:href="#b"
       id="radialGradient44"
       gradientUnits="userSpaceOnUse"
       gradientTransform="matrix(0.70181,0.71236,-0.84698,0.83444,289.54,-67.013)"
       cx="160.61"
       cy="285.31"
       r="8.5188999" />
    <radialGradient
       xlink:href="#b"
       id="radialGradient45"
       gradientUnits="userSpaceOnUse"
       gradientTransform="matrix(0.70181,0.71236,-0.84698,0.83444,289.54,-67.013)"
       cx="160.61"
       cy="285.31"
       r="8.5188999" />
    <radialGradient
       xlink:href="#c"
       id="radialGradient46"
       gradientUnits="userSpaceOnUse"
       gradientTransform="matrix(0.70181,0.71236,-0.84698,0.83444,289.54,-67.013)"
       cx="160.61"
       cy="285.31"
       r="8.5188999" />
    <radialGradient
       xlink:href="#c"
       id="radialGradient47"
       gradientUnits="userSpaceOnUse"
       gradientTransform="matrix(0.70181,0.71236,-0.84698,0.83444,289.54,-67.013)"
       cx="160.61"
       cy="285.31"
       r="8.5188999" />
    <radialGradient
       xlink:href="#c"
       id="radialGradient48"
       gradientUnits="userSpaceOnUse"
       gradientTransform="matrix(0.70181,0.71236,-0.84698,0.83444,289.54,-67.013)"
       cx="160.61"
       cy="285.31"
       r="8.5188999" />
    <radialGradient
       xlink:href="#c"
       id="radialGradient49"
       gradientUnits="userSpaceOnUse"
       gradientTransform="matrix(0.70181,0.71236,-0.84698,0.83444,289.54,-67.013)"
       cx="160.61"
       cy="285.31"
       r="8.5188999" />
    <radialGradient
       xlink:href="#b"
       id="radialGradient50"
       gradientUnits="userSpaceOnUse"
       gradientTransform="matrix(0.70181,0.71236,-0.84698,0.83444,289.54,-67.013)"
       cx="160.61"
       cy="285.31"
       r="8.5188999" />
    <radialGradient
       xlink:href="#b"
       id="radialGradient51"
       gradientUnits="userSpaceOnUse"
       gradientTransform="matrix(0.70181,0.71236,-0.84698,0.83444,289.54,-67.013)"
       cx="160.61"
       cy="285.31"
       r="8.5188999" />
  </defs>
  <g
     transform="matrix(0.32540927,0,0,0.32540927,-43.603628,-28.256191)"
     id="g41">
    <path
       transform="matrix(1.2221,0,0,1.211,223.21,-218.2)"
       d="m 172.17,288.35 a 8.519,8.0705947 0 1 1 -17.038,0 8.519,8.0705947 0 1 1 17.038,0 z"
       fill="url(#a)"
       id="path4"
       style="fill:url(#radialGradient41)" />
    <path
       transform="translate(-0.45186,0.45186)"
       d="m 290.54,124.7 a 9.864,9.4156 0 1 1 -19.728,0 9.864,9.4156 0 1 1 19.728,0 z"
       fill="url(#g)"
       id="path5"
       style="fill:url(#g)" />
    <path
       transform="translate(4.4366,-0.85063)"
       d="m 201.76,233.65 a 9.4156,8.9672 0 1 1 -18.831,0 9.4156,8.9672 0 1 1 18.831,0 z"
       fill="url(#d)"
       id="path6"
       style="fill:url(#d)" />
    <path
       transform="translate(-0.27111,-0.27111)"
       d="m 245.7,195.54 a 7.6221,8.5189 0 1 1 -15.244,0 7.6221,8.5189 0 1 1 15.244,0 z"
       fill="url(#e)"
       id="path7"
       style="fill:url(#e)" />
    <path
       transform="translate(116.1,13.801)"
       d="m 172.17,288.35 a 8.519,8.0705947 0 1 1 -17.038,0 8.519,8.0705947 0 1 1 17.038,0 z"
       fill="url(#a)"
       id="path8"
       style="fill:url(#radialGradient42)" />
    <path
       transform="matrix(0.78355,0,0,0.83113,177.38,14.986)"
       d="m 172.17,288.35 a 8.519,8.0705947 0 1 1 -17.038,0 8.519,8.0705947 0 1 1 17.038,0 z"
       fill="url(#a)"
       id="path9"
       style="fill:url(#radialGradient43)" />
    <path
       transform="matrix(1.2917,0,0,1.308,123.66,-129.49)"
       d="m 172.17,288.35 a 8.519,8.0705947 0 1 1 -17.038,0 8.519,8.0705947 0 1 1 17.038,0 z"
       fill="url(#a)"
       id="path10"
       style="fill:url(#radialGradient44)" />
    <path
       transform="translate(191.02,-84.838)"
       d="m 172.17,288.35 a 8.519,8.0705947 0 1 1 -17.038,0 8.519,8.0705947 0 1 1 17.038,0 z"
       fill="url(#a)"
       id="path11"
       style="fill:url(#radialGradient45)" />
    <path
       transform="matrix(1.2221,0,0,1.211,147.57,-172.25)"
       d="m 172.17,288.35 a 8.519,8.0705947 0 1 1 -17.038,0 8.519,8.0705947 0 1 1 17.038,0 z"
       fill="url(#c)"
       id="path12"
       style="fill:url(#radialGradient46)" />
    <path
       transform="matrix(1.2221,0,0,1.211,62.361,-60.651)"
       d="m 172.17,288.35 a 8.519,8.0705947 0 1 1 -17.038,0 8.519,8.0705947 0 1 1 17.038,0 z"
       fill="url(#c)"
       id="path13"
       style="fill:url(#radialGradient47)" />
    <path
       transform="matrix(0.98724,0,0,0.97767,132.72,-43.512)"
       d="m 172.17,288.35 a 8.519,8.0705947 0 1 1 -17.038,0 8.519,8.0705947 0 1 1 17.038,0 z"
       fill="url(#c)"
       id="path14"
       style="fill:url(#radialGradient48)" />
    <path
       transform="matrix(1.084,0,0,1.1527,38.555,-163.75)"
       d="m 172.17,288.35 a 8.519,8.0705947 0 1 1 -17.038,0 8.519,8.0705947 0 1 1 17.038,0 z"
       fill="url(#c)"
       id="path15"
       style="fill:url(#radialGradient49)" />
    <path
       d="M 164,288.36 Z"
       fill="none"
       stroke="#000000"
       id="path16" />
    <path
       d="m 196.48,225.08 17.174,-50.308 m 41.114,107.63 -54.502,-42.704 m 41.738,131.66 18.277,-73.595"
       fill="none"
       stroke="#646464"
       stroke-width="5"
       id="path17" />
    <path
       d="m 350.8,186.7 1.5314,8.8567 m -128.45,-31.961 48.071,-33.366 m 16.267,0.45186 51.51,40.276 m -190.73,-53.596 59.246,45.782"
       fill="none"
       stroke="#646464"
       stroke-linejoin="round"
       stroke-width="5"
       id="path18" />
    <path
       d="m 325.94,253.59 -55.628,31.249 m 76.551,-101.41 -9.6217,53.708"
       fill="none"
       stroke="#646464"
       stroke-linejoin="round"
       stroke-width="5"
       id="path19" />
    <path
       d="m 298.7,244.71 5.894,9.4055 m -22.784,40.436 10.696,-49.289 m -22.227,48.892 9.003,7.485"
       fill="none"
       stroke="#646464"
       stroke-linejoin="round"
       stroke-width="5"
       id="path20" />
    <path
       d="m 300.65,235.21 46.079,-27.378 m -102.67,-7.8667 43.38,33.499"
       fill="none"
       stroke="#646464"
       stroke-width="5"
       id="path21" />
    <path
       transform="translate(-0.18074,-1.1748)"
       d="m 249.29,155.64 a 12.554,12.554 0 1 1 -25.108,0 12.554,12.554 0 1 1 25.108,0 z"
       fill="url(#f)"
       id="path22"
       style="fill:url(#f)" />
    <path
       d="m 160.51,118.87 a 9.4156,8.9672 0 1 1 -18.831,0 9.4156,8.9672 0 1 1 18.831,0 z"
       fill="url(#i)"
       id="path23"
       style="fill:url(#i)" />
    <path
       transform="translate(0.64136,0.16034)"
       d="m 172.17,288.35 a 8.519,8.0705947 0 1 1 -17.038,0 8.519,8.0705947 0 1 1 17.038,0 z"
       fill="url(#a)"
       id="path24"
       style="fill:url(#radialGradient50)" />
    <path
       transform="matrix(1.1223,0,0,1.1589,222.49,-18.454)"
       d="m 172.17,288.35 a 8.519,8.0705947 0 1 1 -17.038,0 8.519,8.0705947 0 1 1 17.038,0 z"
       fill="url(#a)"
       id="path25"
       style="fill:url(#radialGradient51)" />
    <path
       d="m 314.75,105.42 a 7.174,8.070725 0 1 1 -14.348,0 7.174,8.070725 0 1 1 14.348,0 z"
       fill="url(#h)"
       id="path26"
       style="fill:url(#h)" />
    <g
       fill="none"
       stroke="#000000"
       stroke-opacity="0.45833"
       id="g34">
      <path
         d="m 151.51,127.71 12.309,152.68 m 61.161,-130.9 -70.563,-29.61 m 87.843,254.01 -5.3506,-206.42"
         id="path27" />
      <path
         d="M 249.26,152.81 416.82,132.111"
         id="path28" />
      <path
         d="m 309.88,257.62 89.886,53.975"
         id="path29" />
      <path
         d="M 172.23,285.62 299.3,256.631"
         id="path30" />
      <path
         d="m 167.07,290.09 75.551,84.151"
         id="path31" />
      <path
         d="M 242.03,374.18 400.99,319.339"
         id="path32" />
      <path
         d="m 423,141.68 -13.708,167.04 m -96.885,-201.89 100.76,22.074"
         id="path33" />
      <path
         d="m 308.17,113.98 -2.9208,134.07 m -145.16,-131.44 141.3,-10.446"
         id="path34" />
    </g>
    <path
       d="m 221.59,176.03 14.279,17.08"
       fill="none"
       stroke="#323232"
       stroke-width="5"
       id="path35" />
    <path
       d="m 356.76,171.27 57.495,-34.399"
       fill="none"
       stroke="#646464"
       stroke-width="5"
       id="path36" />
    <path
       transform="matrix(1.3764,0,0,1.3576,17.019,-18.799)"
       d="m 172.17,288.35 a 8.519,8.0705947 0 1 1 -17.038,0 8.519,8.0705947 0 1 1 17.038,0 z"
       fill="url(#a)"
       id="path37"
       style="fill:url(#a)" />
    <path
       d="m 245.13,361.7 15.022,-63.501"
       fill="none"
       stroke="#323232"
       stroke-linejoin="round"
       stroke-width="5"
       id="path38" />
    <path
       d="m 270.39,294.45 8.5351,7.1695"
       fill="none"
       stroke="#323232"
       stroke-linejoin="round"
       stroke-width="5"
       id="path39" />
    <path
       d="m 282,294.45 10.584,-49.504"
       fill="none"
       stroke="#323232"
       stroke-linejoin="round"
       stroke-width="5"
       id="path40" />
    <path
       d="m 299.07,244.6 5.8039,9.5593"
       fill="none"
       stroke="#323232"
       stroke-linejoin="round"
       stroke-width="5"
       id="path41" />
  </g>
</svg>
