<svg
  xmlns="http://www.w3.org/2000/svg"
  viewBox="0 0 100 100"
  width="1"
  height="1"
>
  <path
    d="M 94.491371,52.62846 A 44.491371,10.201018 0 0 1 50,62.829478 44.491371,10.201018 0 0 1 5.5086288,52.62846 44.491371,10.201018 0 0 1 50,42.427442 44.491371,10.201018 0 0 1 94.491371,52.62846 Z M 97.124504,50 A 47.124504,13.142292 0 0 1 50,63.142292 47.124504,13.142292 0 0 1 2.8754959,50 47.124504,13.142292 0 0 1 50,36.857708 47.124504,13.142292 0 0 1 97.124504,50 Z" 
    style="stroke-width:0.760338"
  />
</svg>
