<svg
  xmlns="http://www.w3.org/2000/svg"
  viewBox="0 0 100 100"
  height="1"
  width="1"
>
  <path
    d="M 31,88 H 69 V 73.75 Q 69,65.9125 63.41875,60.33125 57.8375,54.75 50,54.75 42.1625,54.75 36.58125,60.33125 31,65.9125 31,73.75 Z m -14.25,9.5 q -2.01875,0 -3.38437,-1.36562 Q 12,94.76875 12,92.75 12,90.73125 13.36563,89.36563 14.73125,88 16.75,88 H 21.5 V 73.75 q 0,-7.24375 3.38437,-13.59687 Q 28.26875,53.8 34.325,50 28.26875,46.2 24.88437,39.84688 21.5,33.49375 21.5,26.25 V 12 H 16.75 Q 14.73125,12 13.36563,10.63437 12,9.26875 12,7.25 12,5.23125 13.36563,3.86563 14.73125,2.5 16.75,2.5 h 66.5 q 2.01875,0 3.38438,1.36563 Q 88,5.23125 88,7.25 88,9.26875 86.63438,10.63437 85.26875,12 83.25,12 H 78.5 v 14.25 q 0,7.24375 -3.38437,13.59688 Q 71.73125,46.2 65.675,50 71.73125,53.8 75.11563,60.15313 78.5,66.50625 78.5,73.75 V 88 h 4.75 q 2.01875,0 3.38438,1.36563 Q 88,90.73125 88,92.75 88,94.76875 86.63438,96.13438 85.26875,97.5 83.25,97.5 Z"
    style="stroke-width:0.11875"
  />
</svg>
