<svg
  xmlns="http://www.w3.org/2000/svg"
  viewBox="0 0 100 100"
  height="1"
  width="1"
>
  <path
    d="m 54.31818,90.375 3.88636,-4.42614 -3.67045,-1.83522 q -1.83523,-0.97159 -2.26705,-3.02273 -0.43181,-2.05114 0.97159,-3.67046 l 7.55682,-8.63636 q 0.53978,-0.75568 1.45739,-1.13352 0.91761,-0.37784 1.78125,-0.37784 2.80682,0 3.94034,2.48295 1.13352,2.48296 -0.7017,4.64205 l -3.88637,4.42613 3.67046,1.83523 q 1.83522,0.97159 2.26704,3.02273 0.43182,2.05113 -0.97159,3.67045 l -7.55682,8.63637 Q 60.25568,96.74432 59.33807,97.12216 58.42045,97.5 57.55682,97.5 54.75,97.5 53.61648,95.01705 52.48295,92.53409 54.31818,90.375 Z m -25.90909,0 3.88636,-4.42614 -3.67045,-1.83522 q -1.835229,-0.97159 -2.267047,-3.02273 -0.431818,-2.05114 0.971587,-3.67046 l 7.55682,-8.63636 q 0.53977,-0.75568 1.45739,-1.13352 0.91761,-0.37784 1.78125,-0.37784 2.80682,0 3.94034,2.48295 1.13352,2.48296 -0.70171,4.64205 l -3.88636,4.42613 3.67046,1.83523 q 1.83522,0.97159 2.26704,3.02273 0.43182,2.05113 -0.97159,3.67045 l -7.55682,8.63637 Q 34.34659,96.74432 33.42898,97.12216 32.51136,97.5 31.64773,97.5 q -2.80682,0 -3.94035,-2.48295 -1.133518,-2.48296 0.70171,-4.64205 z m 2.15909,-27.42045 q -9.823864,0 -16.786932,-6.96307 Q 6.81818,49.02841 6.81818,39.20455 q 0,-8.96023 5.9375,-15.65341 5.9375,-6.69319 14.68182,-7.88069 3.45454,-6.1534 9.44602,-9.66193 Q 42.875,2.5 50,2.5 q 9.71591,0 16.89488,6.20739 7.17898,6.20738 8.69035,15.49147 7.44886,0.64773 12.52272,6.15341 5.07387,5.50568 5.07387,13.17046 0,8.09659 -5.66762,13.7642 -5.66761,5.66762 -13.7642,5.66762 z m 0,-8.63637 H 73.75 q 4.53409,0 7.66477,-3.13068 3.13068,-3.13068 3.13068,-7.66477 0,-4.53409 -3.13068,-7.66478 Q 78.28409,32.72727 73.75,32.72727 h -6.47727 v -4.31818 q 0,-7.125 -5.07387,-12.19886 Q 57.125,11.13636 50,11.13636 q -5.18182,0 -9.44602,2.80682 Q 36.28977,16.75 34.13068,21.5 l -1.07955,2.59091 h -2.69886 q -6.153408,0.21591 -10.525567,4.58807 -4.372159,4.37216 -4.372159,10.52557 0,6.26136 4.426136,10.6875 4.426136,4.42613 10.6875,4.42613 z M 50,32.72727 Z"
    style="stroke-width:0.107955" 
  />
</svg>
