<svg
  xmlns="http://www.w3.org/2000/svg"
  viewBox="0 0 100 100"
  width="1"
  height="1"
>
  <path
    d="m 13.709647,13.683446 c -5.0047997,0.044 -8.8426997,0.826 -10.3811997,2.2602 -0.3071,0.265 -0.534,0.5531 -0.6724,0.8641 -1.4294,3.2112 7.0802,7.6262 19.0066997,9.8612 0.3191,0.06 0.6373,0.1173 0.9547,0.1728 v 7.3313 c -3.2168,0.3959 -5.2691,1.1112 -5.3009,2.0196 0,0.1624 0.057,0.3277 0.1807,0.4961 l -0.035,1.6637 c -0.054,0.1063 -0.055,0.1307 -0.1027,0.3038 -0.027,0.1809 0,0.3611 0.085,0.5419 l -0.029,1.374 c 0,0.01 -0.01,0.018 -0.051,0.1844 -0.021,0.1379 -0.01,0.2772 0.038,0.4169 l -0.1462,6.8797 c 0.01,-0.01 0.01,-0.011 0.016,-0.017 -0.097,1.436 1.3143,1.8875 2.0024,2.1922 1.1078,0.3715 2.223,0.6822 3.3435,0.9414 v 4.7765 h -0.098 c -0.1845,0 -0.3342,0.1242 -0.3342,0.2773 v 0.6696 c 0,0.086 0.048,0.1635 0.122,0.2143 l -15.6083997,20.1338 c -0.2762,-0.053 -0.5721,0.045 -0.7236,0.2601 l -0.5489,0.7783 c -0.1883,0.2671 -0.082,0.6132 0.2372,0.773 l 0.4466,0.2235 c 0.3193,0.1598 0.7308,0.073 0.9191,-0.1943 l 0.5489,-0.7783 c 0.1786,-0.2534 0.092,-0.5777 -0.1897,-0.7468 l 15.2291997,-19.6445 v 17.4717 c -0.4881,0.043 -0.8683,0.3857 -0.8683,0.8021 v 1.2371 l -5.9946,4.7627 c -0.2762,-0.033 -0.5721,0.028 -0.7236,0.1601 l -0.5488,0.4794 c -0.1884,0.1646 -0.082,0.3777 0.2371,0.4761 l 0.4466,0.1377 c 0.3193,0.098 0.7308,0.045 0.9192,-0.1197 l 0.5488,-0.4794 c 0.1787,-0.156 0.092,-0.3558 -0.1897,-0.4599 l 5.5222,-4.3874 c 0.1783,0.1822 0.4502,0.2987 0.755,0.2987 h 1.3732 c 0.5369,0 0.9721,-0.3612 0.9721,-0.8068 v -1.2986 c 0,-0.1863 -0.076,-0.3577 -0.2041,-0.4943 l 0.5902,-0.4689 c 1.1781,2.5994 2.9215,4.8291 5.3524,6.6413 v 0.4716 c 0,0.2744 0.4352,0.4969 0.9721,0.4969 h 0.4822 c 4.0978,2.4251 9.126,3.0058 13.5582,1.3426 2.4716,-0.2639 3.5873,-0.5364 3.5873,-0.5364 1.6732,-0.7233 3.6021,-1.3104 5.5521,-2.0063 l -3.9799,3.1621 c -0.2762,-0.033 -0.5721,0.028 -0.7236,0.1602 l -0.5489,0.4794 c -0.1883,0.1645 -0.082,0.3776 0.2372,0.4761 l 0.4466,0.1376 c 0.3193,0.098 0.7308,0.045 0.9192,-0.1196 l 0.5488,-0.4794 c 0.1787,-0.156 0.092,-0.3558 -0.1897,-0.4599 l 5.0719,-4.0297 c 1.5249,-0.6165 3.0188,-1.3464 4.3679,-2.3082 l 1.284,-0.3558 -0.04,-0.6399 c 0.4767,-0.4295 0.9269,-0.8985 1.3441,-1.4138 v 2.2279 c -0.4383,0.016 -0.7797,0.1429 -0.7797,0.2971 v 0.4809 c 0,0.165 0.3909,0.2988 0.8731,0.2988 h 1.2332 c 0.4822,0 0.8731,-0.1338 0.8731,-0.2988 v -0.4809 c 0,-0.1451 -0.3022,-0.266 -0.7028,-0.2931 v -4.2297 l 0.3002,-0.2385 1.4045,2.0638 v 7.5816 c -0.488,0.026 -0.8682,0.2375 -0.8682,0.494 v 0.7999 c 0,0.2744 0.4352,0.4968 0.9721,0.4968 h 1.3732 c 0.5369,0 0.9722,-0.2224 0.9722,-0.4968 v -0.7999 c 0,-0.2412 -0.3364,-0.4423 -0.7826,-0.4874 v -4.8177 c 0.201,0.031 0.3119,0.017 0.798,-0.01 0.3311,-0.017 0.5623,-0.1231 0.5164,-0.2366 l -0.1336,-0.3308 c -0.029,-0.073 -0.1657,-0.131 -0.347,-0.1589 l -0.8338,-1.2252 v -1.3875 l 3.045,6.6833 -9e-4,-3e-4 c -0.28,-0.099 -0.5878,0.039 -0.6876,0.3085 l -0.2907,0.7853 c -0.1,0.2694 0.046,0.5682 0.3263,0.6673 l 0.3915,0.1386 c 0.2062,0.073 0.4273,0.017 0.5695,-0.1247 l 0.014,0.052 c 0.051,0.1888 0.3913,0.3187 0.76,0.2901 l 0.5156,-0.04 c 0.3686,-0.029 0.6261,-0.2048 0.5751,-0.3936 l -0.1489,-0.5503 c -0.033,-0.1211 -0.1845,-0.2178 -0.3863,-0.2642 l -0.687,-1.5079 1.094,-2.2123 5.4189,5.8474 c -0.2321,0.09 -0.3355,0.2494 -0.2336,0.3962 l 0.3632,0.5235 c 0.1246,0.1796 0.5092,0.2717 0.8589,0.2056 l 0.4892,-0.092 c 0.3497,-0.066 0.5322,-0.2653 0.4076,-0.4449 l -0.3631,-0.5236 c -0.1247,-0.1796 -0.5092,-0.2716 -0.859,-0.2056 l -0.09,0.017 -4.6349,-5.0013 c 0.3042,0.06 0.5483,0.01 0.9463,-0.041 0.3142,-0.04 0.4781,-0.1595 0.3662,-0.2675 l -0.3262,-0.3148 c -0.1119,-0.108 -0.4573,-0.1633 -0.7714,-0.1236 l -0.081,0.01 -1.0932,-0.7897 5.735,-11.597 -2.9839,12.2733 c -0.1616,0.07 -0.283,0.2147 -0.3092,0.3963 l -0.1192,0.8254 c -0.041,0.2832 0.1652,0.5476 0.4603,0.5905 l 0.4127,0.06 c 0.2951,0.043 0.5675,-0.1519 0.6084,-0.4351 l 0.1191,-0.8254 c 0.028,-0.1921 -0.058,-0.3754 -0.2084,-0.4869 l 2.7845,-11.453 v 12.2485 c -0.3571,0.068 -0.6264,0.3693 -0.6264,0.7312 v 1.1997 c 0,0.4117 0.3484,0.7455 0.7782,0.7455 h 1.0992 c 0.4298,0 0.7782,-0.3338 0.7782,-0.7455 v -1.1997 c 0,-0.3848 -0.3043,-0.7013 -0.695,-0.7411 v -16.1426 l 12.1904,18.1501 c -0.2256,0.1563 -0.2948,0.4559 -0.1518,0.6899 l 0.4393,0.7192 c 0.1508,0.2467 0.4802,0.3271 0.7358,0.1795 l 0.3574,-0.2065 c 0.2556,-0.1477 0.3406,-0.4674 0.1899,-0.7142 l -0.4394,-0.7191 c -0.1212,-0.1985 -0.3581,-0.2892 -0.5792,-0.2403 l -12.494,-18.6022 c 0.06,-0.047 0.098,-0.1182 0.098,-0.1979 v -0.6187 c 0,-0.1415 -0.1197,-0.2563 -0.2675,-0.2563 h -0.079 v -17.5291 h 0.045 c 0.206,0 0.3729,-0.1778 0.3729,-0.3971 v -1.3162 h 0.645 c 0.206,0 0.373,-0.1778 0.373,-0.3971 v -1.1363 c 0,-0.1563 -0.085,-0.2911 -0.2083,-0.3559 1.4929,-0.4335 0.7357,-1.2728 2.7504,-1.6946 2.0397,-0.4284 2.441,0.2131 5.3509,0 2.909,-0.2142 6.2869,-0.8557 6.2869,-0.8557 -0.4281,0 -7.9419,0.027 -15.6158,0.054 v -0.7112 h -1.3342 v 0.7204 c -6.8519,0.024 -13.9917,0.048 -14.0842,0.048 0,0 3.1435,0.5349 5.7522,0.7491 2.6078,0.2131 2.8423,-0.3218 4.6818,0.1065 1.849,0.4298 1.1151,1.199 2.7079,1.6131 -0.1005,0.071 -0.1668,0.1927 -0.1668,0.3309 v 1.1363 c 0,0.2193 0.167,0.3971 0.3729,0.3971 h 0.7362 v 19.2769 c -0.08,0.044 -0.1338,0.1269 -0.1338,0.2217 v 0.6187 c 0,0.095 0.054,0.1774 0.1338,0.2217 v 0.5352 l -0.2318,0.9534 c -0.287,0.5804 -4.7486,9.6024 -6.6732,13.4941 l -0.9715,-0.7018 -3.8205,-4.1226 -0.2896,-0.6356 v -0.3567 c 0.1,-0.03 0.1672,-0.085 0.1672,-0.1479 v -0.4123 c 0,-0.063 -0.067,-0.1183 -0.1672,-0.1479 v -10.59 c 4.1598,-0.273 7.0664,-0.8921 7.0729,-1.6128 0,-0.05 -0.012,-0.093 -0.034,-0.1368 h 0.2672 c 0,0 1.8646,-2.6981 0,-4.8768 -0.7666,-0.8961 -1.8497,-1.5324 -3.2399,-1.9757 1.3598,-0.3812 2.7024,-0.8111 4.0206,-1.3029 0.5616,-0.2496 1.7293,-0.6734 1.5151,-1.3886 0.01,0 0.01,0 0.015,0.01 l -0.7534,-3.4698 c 0.025,-0.077 0.025,-0.1497 -0.01,-0.2167 l -0.059,-0.085 c -4e-4,-4e-4 -9e-4,-9e-4 0,0 l -0.1504,-0.693 c 0.052,-0.1028 0.062,-0.1985 0.023,-0.2866 l -0.059,-0.085 c -0.016,-0.019 -0.036,-0.037 -0.057,-0.055 l -0.1821,-0.8391 c 0.091,-0.1025 0.1272,-0.1947 0.1094,-0.2766 -0.2006,-0.8315 -6.0868,-0.4123 -13.1559,0.9308 l -0.8036,0.1526 c -6.3722,1.2619 -11.3596,2.8404 -11.6845,3.6694 l -0.039,0.01 0.3481,1.6032 c -0.093,0.1358 -0.1187,0.2605 -0.069,0.3718 0,0 0,0 0,0 0.033,-0.043 0.073,-0.086 0.119,-0.1308 l 0.034,0.1572 -4.6471,-0.2593 v -0.1488 c 0.1313,-0.3154 0.1224,-0.695 0.022,-1.0463 l 0.1282,-6.0359 c 0.082,0.09 0.1534,0.1801 0.2121,0.2703 -7e-4,-0.01 0,-0.01 6e-4,-0.013 0.037,-0.2538 -0.034,-0.5108 -0.2018,-0.7677 l 0.033,-1.5325 c 0.061,0.071 0.1153,0.1425 0.1617,0.2138 0,0 0,-0.01 0,-0.011 0.033,-0.2285 -0.021,-0.4596 -0.1544,-0.6909 l 0.068,-3.1786 h -0.045 c -0.8082,-2.2355 -13.2833,-4.1665 -23.0961,-3.3754 v -6.8901 c 1.7076,0.261 3.2924,0.4477 4.927,0.5899 4.0104,0.3431 10.4548,0.495 14.228,-0.9676 4.5411,-1.7486 2.9993,-5.0733 -4.175,-8.1418 l -0.053,0.01 c -6.5406,-2.7854 -15.698,-4.519 -23.069,-4.7926 l -0.096,-0.066 c -0.021,0 -0.041,0.01 -0.06,0.01 l -0.054,-0.038 c -0.7645,-0.024 -1.5041,-0.038 -2.2222,-0.031 z m 68.1739,24.124 15.6158,0.054 c 0,0 -3.3779,-0.6415 -6.2869,-0.8556 -2.9099,-0.2142 -3.3112,0.4273 -5.3509,0 -2.0152,-0.423 -1.257,-1.2626 -2.7514,-1.695 0.1239,-0.065 0.2094,-0.1998 0.2094,-0.3566 v -1.1363 c 0,-0.2193 -0.167,-0.3971 -0.3729,-0.3971 h -1.0631 v -1.4826 c 0,-0.2584 -0.2187,-0.4679 -0.4885,-0.4679 h -0.3572 c -0.2698,0 -0.4885,0.2095 -0.4885,0.4679 v 1.4826 h -0.7362 c -0.2059,0 -0.3729,0.1778 -0.3729,0.3971 v 1.1363 c 0,0.1387 0.067,0.2606 0.1679,0.3316 -1.5964,0.4151 -0.8593,1.1825 -2.709,1.6134 -1.8395,0.4273 -2.074,-0.1076 -4.6818,0.1066 -2.6087,0.2142 -5.7522,0.749 -5.7522,0.749 z m -30.0656,12.8685 0.01,0.046 c 0,-2e-4 0,-3e-4 -0.01,-4e-4 z m -27.5338,0.8417 c 2.4478,0.4573 4.917,0.6914 7.3892,0.7954 v 0.2604 0 c -2.7078,1.7885 -4.9671,4.3858 -6.3484,7.4868 l -0.7512,-1.316 -0.2895,-1.0318 v -0.5793 c 0.1,-0.048 0.1671,-0.1373 0.1671,-0.2399 v -0.6696 c 0,-0.1026 -0.067,-0.192 -0.1671,-0.24 z m 42.6118,9.6815 v 10.4793 h -0.098 c -0.1846,0 -0.3342,0.077 -0.3342,0.1709 v 0.4124 c 0,0.053 0.048,0.1006 0.122,0.1319 l -0.4834,0.3841 -0.3457,-0.2498 c 0.8439,-2.3664 1.2766,-5.69 0.7502,-8.727 l 0.019,-0.1596 h -0.047 c -0.152,-0.8281 -0.3676,-1.6337 -0.6415,-2.4113 0.3586,-0.01 0.7118,-0.021 1.0586,-0.035 z m -42.6118,0.9386 0.1363,0.4855 c -0.048,0.1827 -0.094,0.3667 -0.1363,0.552 z m 0,9.6425 c 0.2328,0.991 0.5441,1.9596 0.9294,2.8905 l -0.9145,0.7266 c 0,-9e-4 -0.01,0 -0.015,0 z m 42.6118,1.1092 v 0.4617 l -0.3044,-0.2199 z m -0.5985,0.4755 0.5985,0.4324 v 0.6329 l -0.6806,-1.0001 z m 3.2202,1.4971 c 0.061,0.066 0.6505,0.7019 1.074,1.1589 l -0.8139,-0.588 z m 0.5632,1.2362 1.7621,1.273 c 0.6515,0.7029 1.367,1.475 1.4504,1.565 -0.2348,0.4748 -0.9522,1.9255 -0.9991,2.0202 z m 3.8433,2.7764 0.7045,0.509 c -0.071,0.018 -0.1286,0.042 -0.17,0.068 z"
    style="stroke-width:0.019" 
  />
</svg>
