<?xml version="1.0" encoding="UTF-8" standalone="no"?>
<!-- Creator: CorelDRAW X6 -->

<svg
   xml:space="preserve"
   width="1"
   height="1"
   version="1.1"
   style="clip-rule:evenodd;fill-rule:evenodd;image-rendering:optimizeQuality;shape-rendering:geometricPrecision;text-rendering:geometricPrecision"
   viewBox="0 0 100 100"
   id="svg1"
   xmlns="http://www.w3.org/2000/svg"
   xmlns:svg="http://www.w3.org/2000/svg">
 <defs
   id="defs1">
  <style
   type="text/css"
   id="style1">
   <![CDATA[
    .fil0 {fill:black}
   ]]>
  </style>
 <style
   type="text/css"
   id="style1-3">
   <![CDATA[
    .fil0 {fill:black}
   ]]>
  </style></defs>
 <g
   id="Layer_x0020_1">
  <metadata
   id="CorelCorpID_0Corel-Layer" />
  <path
   class="fil0"
   d="m 65.32608,63.478174 c 0.2567,0 0.33569,0.0395 0.43442,0.21721 0.13823,0.23696 0.13823,0.2962 0.13823,0.6319 -0.19746,-0.0395 -0.11848,0.0395 -0.39493,-0.3357 -0.11848,-0.15797 -0.21722,-0.2567 -0.17772,-0.53316 z m 4.08757,30.88392 c -0.0197,-0.23696 0.0198,-0.21721 -0.23696,-0.25671 0.0395,0.21722 0.0198,0.21722 0.23696,0.25671 z m -28.356336,-0.43443 c 0.256709,0 0.256709,-0.0592 0.256709,-0.31595 -0.256709,0 -0.256709,0.0593 -0.256709,0.31595 z m -0.770123,-2.29062 c -0.01975,-0.19747 0.05924,-0.27646 0.07899,-0.53316 -0.118478,0.0592 -0.197468,0.0592 -0.217214,0.23696 -0.05924,0.43443 0.09874,0.27645 0.138227,0.2962 z m -3.218719,-29.28444 c 0.217212,0.11848 0.533161,0.0197 0.730627,-0.0592 -0.07898,-0.0395 0.09874,-0.0395 -0.17772,-0.0592 -0.236961,-0.0197 -0.454173,0 -0.552907,0.11848 z m -2.744801,21.76093 c 0.177721,-0.0395 0.138226,-0.0197 0.256711,-0.17773 0.118478,-0.15797 0.157971,-0.21721 0.177719,-0.43442 -0.276455,0.079 -0.414684,0.2962 -0.43443,0.61215 z m 1.875941,-20.02321 c 0.138229,0.079 0.138229,0.079 0.513417,-0.11848 0.454177,-0.23696 0.335694,-0.079 0.394934,-0.29621 -0.276454,-0.15797 -0.750375,0.25671 -0.908351,0.39494 z m 31.022148,25.37457 c -0.0197,0.55292 0.0395,0.57266 0.21722,0.6319 0.079,-0.11848 0.0197,0.13823 0.0592,-0.15797 v -0.65165 c -0.37519,0.0592 -0.0197,-0.0395 -0.27646,0.19747 z m -29.580635,0.0593 c 0.09874,0.27645 0.05924,0.2962 0.276456,0.47392 0,-0.11848 0.01975,-0.27645 0,-0.39494 -0.01975,-0.0987 -0.01975,-0.0987 -0.03949,-0.13823 -0.197468,-0.57265 -0.118482,-0.53316 -0.315948,-0.63189 0,0.25671 -0.01975,0.45417 0.07898,0.69114 z m 30.291525,0.61214 c 0.13822,-0.0395 0.17772,0.0197 0.2962,-0.2567 0.13823,-0.35544 0.25671,-0.73063 0.27645,-1.16506 -0.23696,0.0395 -0.19746,0.0197 -0.27645,0.2962 -0.0987,0.31595 -0.2962,0.71089 -0.27646,1.12556 z m -0.98734,-29.7781 h 0.39494 c 0.0395,0.11848 0.0395,0.11848 0.0987,0.19747 0.13822,0.19747 0.0987,0.11848 0.079,0.65164 0.23696,-0.0395 0.23696,-0.0592 0.43442,-0.15797 0.0987,-0.59241 -0.45417,-1.12557 -0.49366,-1.40202 0,-0.0197 -0.0197,-0.0197 -0.0197,-0.0395 -0.35544,0.0592 -0.49367,0.5924 -0.49367,0.75038 z m 8.13566,-17.3179 c -0.17772,0.39493 0.27646,0.35544 0.17772,1.20455 -0.51341,0.0395 -0.77012,-0.0197 -0.78987,0.49367 l 0.67139,0.51341 0.61215,0.17772 c 0.0198,0 0.27646,-0.15797 0.31595,-0.35544 l 0.0987,-0.73063 c -0.0395,-0.17772 -0.079,-0.17772 -0.19746,-0.2962 0,0 -0.079,-0.84911 -0.6319,-1.02683 l -0.0987,-0.0197 c -0.23696,-0.0197 -0.079,0 -0.13823,0.0395 z m 9.4587,11.37413 c -0.0395,-0.0987 -0.079,-0.0987 -0.079,-0.21722 -0.0197,-0.27645 0.53316,-1.06632 0.65164,-1.36252 0.15798,-0.41469 0.23697,-1.04658 0.65165,-1.65873 0.41468,0.0592 0.37519,0.33569 0.41468,1.00708 0.0198,0.25671 0.0987,0.27646 0.0395,0.59241 -0.0395,0.19747 -0.11848,0.31594 -0.23696,0.45417 -0.11848,0.15798 -0.19747,0.19747 -0.31595,0.3357 -0.2962,0.31595 -0.5924,0.92809 -1.12556,0.84911 z m -17.53512,-2.34987 c 0.0198,-0.27645 0.13823,-0.2962 0.15797,-0.69114 0,-0.11847 0,-0.15797 0.0197,-0.27645 0.27646,0 0.5924,0.43443 0.21722,0.73063 -0.13823,0.11848 -0.17773,0.21722 -0.39494,0.23696 z m -1.08607,1.40202 c -0.41468,-0.0395 -0.27646,-0.0197 -0.55291,-0.15797 -0.0395,-0.41468 -0.0395,-0.27646 -0.0987,-0.33569 -0.15798,0.0987 -0.0987,-0.0593 -0.13823,0.19746 -0.0198,0.0592 0,0.27646 0,0.35544 -0.0395,0.0987 -0.67139,0.71089 -0.69114,0.82937 -0.0592,0.25671 0.21722,0.19746 0.37519,0.21721 0.2962,0.0395 0.3357,0.25671 0.41468,0.78987 0.0592,0.47392 0.15798,1.04658 0.13823,1.5205 -0.21721,-0.11848 -0.21721,-0.27645 -0.41468,-0.67139 l -0.57266,-1.38227 c -0.11848,-0.37519 -0.25671,-0.55291 -0.23696,-1.02683 0.11848,-0.0987 0.19747,-0.17772 0.2962,-0.2962 0.23696,-0.31595 0.25671,-0.43443 0.59241,-0.61215 0.19746,-0.11848 0.13822,-0.13823 0.31594,-0.31595 0.0987,-0.0987 0.19747,-0.17772 0.2962,-0.27645 0.0197,-0.0197 0.13823,-0.13823 0.13823,-0.13823 0.23696,-0.37519 -0.15797,0.0197 0.45418,-0.53317 0.2567,-0.21721 0.11848,0.0395 0.27645,-0.33569 h 0.19747 c 0.0198,0.33569 -0.0395,0.31595 -0.13823,0.55291 -0.0987,0.17772 -0.0592,0.21721 -0.11848,0.41468 l -0.49367,1.2243 z m -2.05366,3.31746 0.35544,0.0197 c 0.0395,0.43443 -0.079,0.49367 -0.0592,0.90835 0.35544,0.0197 0.2567,0.079 0.2962,0.39494 0.0198,0.13823 -0.0198,0.079 0.0592,0.17772 0.0987,0.17772 0.0592,0.0592 0.11848,0.11848 0.45417,-0.27645 0.0198,-0.47392 0.55291,-0.35544 0.11848,0.23696 0.0197,0.19747 -0.0395,0.43443 l 0.35544,0.13822 c 0.13822,0.0395 0.17772,0.079 0.31595,0.11849 0.0592,0.45417 0.21721,0.65164 0.21721,1.24404 -0.13823,0.27646 -0.2962,0.35544 -0.31595,0.69114 l 0.49367,-0.0592 c 0.0197,0.47392 0.19747,0.51341 0.19747,0.94784 -0.21722,0 -0.31595,-0.0395 -0.47392,-0.13823 l -0.41468,-0.21721 c -0.17773,-0.079 -0.23697,-0.11848 -0.39494,-0.21721 -0.0592,-0.0395 -0.11848,-0.079 -0.15798,-0.0987 l -0.57265,-0.33569 c -0.6319,-0.43443 -0.41468,0 -0.69114,-1.2638 -0.0987,-0.45417 -0.079,-1.22429 -0.2567,-2.21163 -0.19747,-1.04658 0.5529,-0.27646 0.47392,-1.99442 -0.21722,0 -0.19747,-0.0197 -0.3357,0.079 l -0.65164,0.73062 c -0.0198,0.41469 0.0198,0.29621 -0.079,0.6319 0.0592,0.2962 0.13823,0.37519 0.15798,0.75038 0.0395,0.51341 0.27645,2.19189 0.2567,2.46834 -0.53316,-0.0197 -0.37519,0.0395 -0.67139,-0.25671 0.079,-0.43442 0.39494,-0.39493 0.17773,-0.98733 0,-0.0197 -0.0198,-0.0395 -0.0198,-0.0395 l -0.11848,-0.17772 c 0,0 -0.0198,-0.0197 -0.0198,-0.0395 -0.079,-0.13823 -0.43443,-2.56708 -0.49367,-2.96201 -0.0987,-0.73064 -0.45417,-1.50076 -0.45417,-2.01417 0,-0.35545 -0.079,-0.57266 -0.0592,-0.80962 l 1.08607,-0.53316 c 0.0197,0 0.0197,-0.0197 0.0395,-0.0197 0.78987,-0.39494 0.86886,-0.17772 1.46126,-0.51342 0.0592,-0.0395 0.11848,-0.0592 0.19747,-0.0987 l 0.23696,-0.0987 c 0.25671,-0.15798 0.15797,-0.15798 0.41468,-0.19747 -0.0395,0.2962 -0.11848,0.25671 -0.35544,0.5924 -0.0987,0.13823 -0.25671,0.51342 -0.33569,0.65164 -0.51342,1.10582 -0.57266,1.14532 -0.43443,2.27088 0.0197,0.23696 0.49366,0.77013 0.19746,1.50075 -0.13822,0.3357 -0.2567,0.43443 -0.19746,0.73064 z m -9.32047,-5.66732 0.37519,-0.0197 c 0.0395,0.2962 0.0592,0.43443 0.23696,0.6319 l 0.37519,0.55291 c 0.079,0.0592 0.0395,0.0395 0.11848,0.0592 0.0197,0.0197 0.13822,0.0592 0.15797,0.0592 0.27646,0.11848 0.39494,0.0197 0.6319,0.11848 0.19746,0.49367 -0.0987,1.34278 -0.25671,1.87594 -0.0395,0.15797 0.0198,-0.0395 -0.0395,0.11848 -0.21721,0.55291 -0.27645,1.16506 -0.49366,1.71797 -0.0592,0.15797 -0.11848,0.43443 -0.17773,0.5924 -0.079,0.19747 -0.21721,0.2962 -0.47391,0.3357 -0.0395,0.19746 -0.11849,0.19746 -0.25671,0.2962 -0.53317,0.37518 -0.17773,0.33569 -1.12557,0.65164 0.43443,0.41468 0.82937,-0.13823 1.14531,0.31595 0.0592,0.0987 -0.33569,1.55999 -0.37519,1.7772 -0.0592,0.27646 0.0592,0.35545 0.0395,0.6319 -0.27646,0.2962 -0.31595,0.43443 -0.49367,0.9281 -0.11848,0.31595 -0.3357,0.61215 -0.53316,0.90835 -0.15798,0.23696 -0.21722,0.43443 -0.37519,0.65164 -0.21722,0.29621 -0.51342,0.94785 -0.55291,1.30329 -0.43443,0.19747 -0.73063,0.57266 -1.12557,0.80962 -0.80961,0.47392 -0.33569,0.0592 -0.86885,0.63189 -0.86886,0.9281 1.59948,0 1.97467,0.079 0.079,0.17772 0.0592,0.39493 0.0395,0.6319 v 0.21721 c -0.0987,0.9281 -0.13823,1.24404 -0.78987,1.91543 -0.0987,0.0987 -0.3357,0.41469 -0.3357,0.41469 -0.17772,0.13822 -0.86886,0.53316 -0.5924,0.78987 0.0395,0.0395 0.079,0.079 0.25671,0.0197 0.2962,-0.079 0.53316,-0.31595 0.86885,-0.2962 0.0198,0.35544 0.0198,0.13823 -0.0592,0.35544 l -0.2567,0.78988 c -0.0395,0.19746 0.0197,0.2567 -0.0592,0.45417 -0.15798,0.31595 -0.3357,0.47392 -0.53317,0.71088 l -0.33569,0.43443 c -0.13823,0.17772 -0.31595,0.37519 -0.45418,0.53316 l -0.43443,0.5924 c -0.217211,0.43444 -0.552905,0.69114 -0.730627,1.02684 -0.07899,0.13822 -0.03949,0.0592 -0.05924,0.23696 l 0.07899,0.0592 c 0.454176,0.35544 1.244047,0.11848 1.737707,0.0592 0.0395,0.0592 0.11849,0.11848 0.13823,0.19747 0.0987,0.31595 -0.0197,0.84911 0.0198,1.1848 0.0197,0.23696 0.079,0.43443 0.0197,0.67139 -0.0395,0.17772 -0.17772,0.27646 -0.2567,0.53316 l -0.49367,1.04658 c -0.13823,0.25671 -0.0198,0.37519 -0.19747,0.61215 -0.17772,0.21722 -0.27645,0.19747 -0.25671,0.49367 l 0.31595,0.0198 1.28354,-1.24405 c 0.23696,-0.19747 0.2962,-0.43443 0.61215,-0.53316 0.27645,0.19747 0.13823,0.31595 0.27645,0.6319 0.0395,0.0987 0.11849,0.21721 0.15798,0.2962 l 0.19747,0.39493 c 0,0 0.0197,0.0197 0.0197,0.0197 0,0 0.0198,0.0197 0.0198,0.0395 l 0.25671,0.41468 c 0.31595,0.82937 0.11848,1.65873 0.0592,2.50784 -0.0395,0.57266 -0.13823,1.20455 -0.0987,1.85619 0.3357,0.0197 0.31595,0 0.51342,-0.19746 0,0 0.0198,-0.0198 0.0395,-0.0198 l 0.2567,-0.31595 c 0.0198,-0.0395 0.13823,-0.17772 0.13823,-0.19746 0.079,-0.079 0,0 0.0987,-0.079 0.47392,-0.39494 0.49367,-1.28354 0.6319,-1.61923 0.23696,-0.53317 0.0197,-0.9281 0.45418,-0.90836 0.079,0.13823 0.0592,0.19747 0.0987,0.35545 0.0592,0.19746 0.0395,0.15797 0.17772,0.2567 0.82936,0.57266 0.39493,0.17772 0.98734,0.90836 0.15797,0.19746 0.2962,0.35544 0.43443,0.55291 0.47391,0.67138 0.21721,0.73062 0.41468,1.481 0.13822,0.47392 -0.0592,1.38227 0.11848,1.77721 0,0 0.0395,0.19747 0.2962,-0.0395 0.0592,-0.0592 0.11848,-0.19746 0.17772,-0.2962 0.41468,-0.57265 0.39493,-0.2962 0.67139,-1.1848 l 0.11848,-0.23696 c 0,-0.0197 0.0198,-0.0197 0.0198,-0.0395 0,0 0.0197,-0.0197 0.0197,-0.0395 0.0198,-0.0592 0.0198,-0.33569 0.0395,-0.41468 0.21721,0 0.21721,0.0395 0.33569,0.17772 0.15798,0.19747 0.25671,0.19747 0.45418,0.41468 0.17772,0.21721 -0.0395,-0.0395 0.079,0.079 0.35544,0.35544 0.37519,0.61215 0.55291,1.12556 0.079,0.23696 0.25671,0.49367 0.35544,0.73063 0.3357,0.78987 -0.2567,2.19189 0.2962,3.33721 0.079,0.15797 0.079,0.29619 0.079,0.49366 0.11848,0.0198 0.2962,0.0395 0.39494,-0.0395 0.41468,-0.33569 0.57265,-1.06632 0.90835,-1.14531 0.0395,0.0592 0.17772,0.35544 0.19746,0.37519 0.11849,0.17772 0.15798,0.0987 0.27646,0.33569 l 0.3357,0.0197 c 0.11848,0.27645 0.2962,0.37519 0.51341,0.53316 0.0395,0.0395 0.21722,0.19747 0.27646,0.25671 0.33569,0.41468 0.2567,0.33569 1.24404,0.2962 0.69114,-0.0197 0.86886,-0.39494 1.50075,-0.27645 0.25671,0.0395 0.0198,0.0197 0.19747,0.079 0.21722,0.0592 0.78987,0.0197 1.06633,0.0395 0.0197,0.15797 0.19746,0.35544 0.31594,0.45417 l 0.079,1.44151 c -0.17772,0.23697 -0.35544,0.27646 -0.55291,0.55291 -0.53316,0.079 0,-0.11848 -0.51341,-0.079 -0.17772,0.31595 0.0395,0.51341 -0.45418,0.53316 0,-0.0197 -0.0198,-0.0395 -0.0198,-0.0395 -0.0197,0.0592 -0.0395,-0.0593 -0.0592,-0.079 -0.0593,-0.079 0,-0.0198 -0.0987,-0.079 -0.23696,0.11848 -0.17772,0.11848 -0.19747,0.45418 -0.2567,0.0987 -0.15797,0.13822 -0.55291,0.13822 0,0 0,-0.15797 0,-0.17772 l -0.0592,-0.17772 c -0.21722,0.11848 -0.21722,0.37519 -0.35545,0.51342 -0.17772,0.19747 -0.2962,0.0987 -0.49367,0 -0.0197,0 -0.0395,-0.0197 -0.0592,-0.0197 l -0.19747,0.35544 h -0.31594 c -0.0987,-0.13822 -0.21722,-0.41468 -0.37519,-0.49367 -0.19747,0.13823 -0.11848,0.29621 -0.13823,0.55291 -0.079,0.0395 -0.0592,0.0395 -0.0987,0.11848 H 63.1344 c -0.11848,-1.00708 -0.11848,-0.43443 0.13822,-1.20455 l 0.0987,-0.23696 c 0,0 0.0197,-0.0197 0.0197,-0.0197 0.11848,-0.17772 0.0592,-0.45417 0.079,-0.63189 0.0198,-0.21722 0.11848,-0.35544 0.15798,-0.47392 0.0395,-0.15798 0.0592,-0.88861 0.079,-1.12557 -0.23696,-0.0395 -0.2962,0.0197 -0.43443,0.15797 -0.49366,0.53317 -0.13822,-0.13822 -0.51341,0.6319 l -0.13823,0.43443 c -0.11848,0.35544 -0.2962,0.69114 -0.57266,0.86886 l -0.69113,0.47392 c -0.25671,0.19747 -0.25671,0.15797 -0.55291,0.31595 -0.27645,0.13822 -0.96759,0.65164 -1.26379,0.71088 -0.47392,0.079 -1.12557,0.27646 -1.54025,0.51342 l -0.41468,0.11847 c -0.0198,-0.2962 0.19747,-0.31594 0.2962,-0.53316 0.17772,-0.33569 0.33569,-0.31594 0.49367,-0.73063 0.11848,-0.27645 -0.0592,0.15798 0.0198,-0.0987 0.0395,-0.11848 0.0987,-0.19747 0.15797,-0.27645 l 0.17772,-0.27646 c 0.0987,-0.23696 -0.0198,-0.11848 0.13823,-0.31595 0.23696,-0.2962 0.13822,-0.39493 0.27645,-0.5924 0.11848,-0.15797 0.11848,-0.0592 0.17772,-0.27645 l 0.35545,-0.98734 c 0.079,-0.17772 0.19746,-0.5924 0.19746,-0.75038 -0.21721,-0.0987 -0.39493,-0.2962 -0.61215,-0.0592 0,0 -0.0198,0.0197 -0.0198,0.0395 l -0.5529,0.59241 c -0.0198,0.0197 -0.079,0.079 -0.0987,0.079 l -0.0987,0.11848 c 0,0 -0.0197,0.0197 -0.0197,0.0197 -0.23696,0.21721 -0.53316,0.39494 -0.82936,0.57266 -0.17772,0.0987 -0.0592,0 -0.21722,0.13822 -0.25671,0.21722 -0.67139,0.37519 -0.98733,0.57266 -0.0987,0.0592 -0.0987,0.0395 -0.17772,0.0987 -0.0197,0.0197 -0.13823,0.0987 -0.15798,0.11848 -0.27645,0.21722 -0.53316,0.25671 -0.9281,0.17773 -0.0197,0 -0.0395,0 -0.0395,0 -0.0198,0 -0.079,-0.0197 -0.0987,-0.0197 -0.0395,-0.0197 -0.0987,-0.0197 -0.13823,-0.0395 -0.84911,-0.21722 -1.57974,0.0197 -2.31037,-0.0592 -0.0197,-0.31595 0.19747,-0.41469 0.37519,-0.55291 0.17772,-0.13823 0.19747,-0.25671 0.35544,-0.37519 l 0.80962,-0.69114 c 0.079,-0.13823 0.15797,-0.31594 0.33569,-0.41468 0.0198,0 0.0198,-0.0197 0.0395,-0.0197 0.43443,-0.27645 0.35545,-0.43443 0.67139,-0.6319 l 0.45418,-0.35544 c 0.23696,-0.21721 0.33569,-0.2567 0.49367,-0.5529 l 0.35544,-0.39494 c 0.079,-0.0987 0.0592,-0.0395 0.11848,-0.17772 -0.0592,-0.0395 -0.0592,-0.0592 -0.17772,-0.0592 -0.21721,0 -0.15797,0.0395 -0.17772,0.0592 -0.11848,0.0592 -0.23696,0.0987 -0.33569,0.13823 -0.17773,0.079 -0.75038,0.63189 -1.02684,0.80961 l -1.50075,0.86886 c -0.65164,0.21722 -1.44151,0.11848 -2.21164,0.17772 -0.23696,0.0197 -0.55291,0.11848 -0.75038,0.13823 -0.57265,0.0395 -1.224288,0.17772 -1.777197,0.0592 -0.809618,-0.17772 -2.547333,-1.5205 -2.507837,-2.29063 0.236959,-0.15797 1.402019,-0.57265 1.678472,-0.69113 l 0.710885,-0.27645 c 0.09873,-0.0593 0.197466,-0.13823 0.296202,-0.21722 0.454175,-0.31595 0.770115,-0.0987 1.303285,-0.65164 0.19746,-0.19747 0.2567,-0.3357 0.49366,-0.47392 0.25671,-0.15798 0.49367,-0.21722 0.35544,-0.57266 -0.33569,-0.13823 -0.35544,0.0395 -0.65164,0.079 -0.5924,0.079 -0.789863,0.0592 -1.382265,0.2567 -0.296202,0.0987 -0.217216,0.15798 -0.631899,0.13823 -0.473921,0 -1.007084,-0.0592 -1.559993,-0.0592 -0.552909,0 -1.303284,0.21721 -1.856196,-0.079 l -0.552907,-0.2567 c -0.315948,-0.19747 -0.513416,-0.55291 -0.908352,-0.71089 -0.11848,-0.0395 -0.177718,-0.079 -0.256707,-0.15797 -0.197466,-0.17772 -0.236961,-0.17772 -0.414681,-0.37519 -0.157975,-0.19747 -0.967591,-1.00708 -1.007086,-1.24404 -0.01975,-0.17772 0.07899,-0.17772 0.217217,-0.19747 0.572655,-0.11848 1.066323,-0.27646 1.678473,-0.2962 0.473922,-0.0197 1.796955,-0.43443 2.093155,-0.61215 0.414684,-0.25671 0.809618,-0.27646 1.303288,-0.37519 0.335693,-0.0592 0.888602,-0.96759 0.908348,-0.98734 0.177722,-0.39493 -0.315946,-0.27645 -0.671389,-0.27645 -0.493668,0.0197 -2.36961,0.079 -2.665812,-0.079 l -1.066322,-0.63189 c -0.355443,-0.25671 -0.691138,-0.53317 -1.066327,-0.71089 -0.552909,-0.25671 -1.263792,-0.71088 -1.540245,-1.2243 -0.05924,-0.11848 0.01975,0.0395 -0.05924,-0.0987 -0.118481,-0.19747 -0.296202,-1.48101 -0.09873,-1.69822 0.177719,-0.11848 0.454173,0.0592 0.671385,0.11848 0.256709,0.079 0.612153,0.0592 0.928099,0.0592 0.631897,0.0197 1.362527,-0.0592 1.954929,-0.0197 0.355441,0.0197 0.394936,0.17772 0.809617,0.19747 0.49367,0.0197 1.244047,-0.0197 1.678475,-0.2962 l 0.533163,-0.47392 -0.01975,-0.3357 c -0.315949,-0.15797 -0.552909,-0.0987 -0.888604,-0.19747 l -1.816701,-0.35544 c -0.177719,-0.079 0,0 -0.157975,-0.13823 l -1.461259,-1.32303 -0.177722,-0.35544 c -0.07899,-0.17772 -0.03949,0.0198 -0.07899,-0.19747 -0.118482,-0.47392 0.03949,-0.47392 -0.513416,-0.53316 -0.177719,-0.61215 -0.07899,-1.79696 -0.177719,-2.19189 -0.157976,-0.5924 -0.217217,-1.69822 0.217212,-2.07341 0.177721,-0.0592 0.592404,0.35544 0.98734,0.41468 0.236959,0.0395 0.157971,0.0197 0.315946,0.13823 0,0 0.118479,0.0987 0.138229,0.0987 l 0.05924,0.0395 c 0.01975,0 0.05924,0.0395 0.07899,0.0395 0.09873,0.0592 0.177721,0.13823 0.276455,0.17772 0.335695,0.19747 1.105819,0.45418 1.323035,0.5924 l 0.691136,0.27646 c 0.493666,0.13823 1.204552,0.27645 1.678472,0.19747 0.05924,-0.45418 -0.612147,-0.23697 -0.829363,-0.55291 -0.217214,-0.3357 -0.355443,-0.53317 -0.691134,-0.78987 -0.138229,-0.0987 -0.236965,-0.23696 -0.394938,-0.2962 -0.236961,-0.0987 -1.145311,-0.84912 -1.204552,-1.02683 -0.03949,-0.47393 -0.07899,-0.65165 -0.217215,-1.00709 -0.138226,-0.35544 -0.09873,-0.079 -0.217212,-0.35544 l -0.157975,-0.35544 c -0.236961,-0.31595 -0.07899,-1.5205 0,-1.91544 0.05924,-0.33569 0.177721,-0.49367 0.236961,-0.71088 0.09874,-0.35544 0.01975,-0.55291 0.217216,-0.84911 0.2962,0.0197 0.217212,0.13823 0.552909,0.67139 l 0.197466,0.31595 c 0.05924,0.0592 0.05924,0.079 0.118481,0.17772 l 0.177721,0.17772 c 0.47392,0.45417 0.217215,0.27645 0.928097,0.80962 0.236961,0.17772 0.315948,0.2962 0.572653,0.41468 l 0.19747,0.0987 c 0.01975,0 0.01975,0.0198 0.03949,0.0198 l 1.125563,1.10581 c 0.177721,0.25671 0.256709,0.27646 0.552909,0.27646 0.01975,-0.27646 -0.05924,-0.33569 -0.138227,-0.55291 -0.11848,-0.2962 -0.05924,-0.27645 -0.09873,-0.5924 -0.07899,-0.15798 -0.355443,-0.21722 -0.434431,-0.53317 -0.05924,-0.17772 0,-0.2567 -0.07899,-0.45417 -0.05924,-0.17772 -0.05924,-0.25671 -0.09874,-0.41468 -0.09873,-0.3357 -0.17772,-0.37519 -0.236961,-0.77012 -0.11848,-0.82937 0,-2.11291 0.19747,-2.92252 0.05924,-0.27646 0.05924,-0.67139 0.138227,-0.90836 0.177719,-0.5529 -0.01975,-0.45417 -0.05924,-0.84911 0.05924,-0.21721 0.07899,-0.11848 0.11848,-0.33569 l 0.157973,-0.80962 c 0.03949,-0.13822 0,-0.0197 0.07899,-0.17772 l 0.276453,-0.47392 c 0.01975,-0.0395 0.05924,-0.079 0.09874,-0.13823 0.09873,-0.11848 0.17772,-0.37519 0.355442,-0.61215 0.07899,-0.0987 0.03949,-0.079 0.138228,-0.15797 0.493672,0.0987 0.691132,0.73063 1.046572,1.02683 0.0987,0.0987 0.079,0.0395 0.15798,0.17772 l 0.17772,0.23696 c 0.2567,0.31595 0.53316,0.6319 0.9281,0.78987 0.0592,0.0197 0.079,0.0197 0.13822,0.0395 l 0.079,0.0395 c 0.19747,0.0987 0.35544,0.15797 0.61215,0.15797 0.0987,-0.15797 0.0987,-0.49367 0.0987,-0.47392 l -0.5924,-0.67139 c 0,-0.0197 -0.0198,-0.0197 -0.0198,-0.0395 -0.19746,-0.37519 -0.0592,-0.37519 0.0395,-0.78987 0.0395,-0.17772 0.079,-0.90835 0.079,-1.12557 0,-0.35544 0.0592,-0.27645 0.0987,-0.51341 0.17772,-0.96759 -0.49367,-0.57266 0.8886,-1.59949 0.13823,-0.0987 0.21722,-0.15797 0.37519,-0.27646 l 0.43443,-0.41468 c 0.079,-0.0987 0.0592,-0.11848 0.11848,-0.21721 0,0 0.0198,-0.0197 0.0198,-0.0395 l 0.11848,-0.11849 c 0.0395,-0.0395 0.079,-0.079 0.0987,-0.079 0.079,-0.079 0.27646,-0.31595 0.25671,-0.37519 z m -28.297101,7.46427 -1.026831,-0.2567 c -0.177721,-0.0592 -0.217214,-0.0395 -0.414682,-0.0592 -0.09873,-0.079 -0.07899,-0.0987 -0.177721,-0.13822 l -0.829363,-0.29621 -0.05924,-0.49366 c 0.217215,-0.13823 0.394935,-0.3357 0.533163,-0.55291 0,0 0.01975,-0.0198 0.01975,-0.0395 l 0.217215,-0.21722 c 0.256708,-0.17772 0.572656,-0.27645 0.84911,-0.41468 0.03949,-0.0197 0.177721,-0.13823 0.197468,-0.13823 0.355441,-0.17772 0.691136,-0.15797 1.026831,-0.25671 0.473922,-0.13822 0.868857,-0.37519 1.481006,-0.47392 0.533163,-0.079 0.592403,-0.15797 0.947845,-0.39494 0.276454,-0.19746 0.572656,-0.23695 0.908351,-0.35544 0.01975,0 0.138229,-0.0592 0.197466,-0.079 0.09874,-0.0395 0.138229,-0.079 0.236963,-0.11848 0.533162,-0.21722 1.224296,-0.15798 1.796954,-0.17772 0.434429,0 0.671391,-0.11848 1.204552,-0.11848 1.974676,0.0197 1.856193,-0.3357 2.764546,-0.43443 l 2.586824,-0.65165 c 0.296202,-0.079 0.592404,-0.35544 0.928097,-0.39493 0.473925,-0.0592 0.90835,-0.23696 1.323034,-0.39493 0.612149,-0.21722 0.592402,-0.39494 1.125565,-0.59241 l 1.184806,-0.49367 c 0.454175,-0.11848 1.046577,-0.23696 1.441511,-0.47392 l 3.297708,-1.54025 c 0.355441,-0.25671 0.868858,-0.25671 1.263794,-0.41468 0.177721,-0.079 0.335699,-0.0987 0.513409,-0.15797 0.35544,-0.0987 0.61215,-0.25671 0.9281,-0.37519 l 0.8886,-0.37519 c 0.15798,-0.0592 0.2962,-0.13823 0.43444,-0.19747 l 0.96759,-0.35544 c 0.2962,-0.079 1.16505,-0.47392 1.34278,-0.45417 0.13822,0 0.0592,0.0197 0.13822,0.0592 -0.0987,0.17772 0.0197,0.079 -0.15797,0.13822 -0.0987,0.0395 -0.13822,0.0395 -0.23697,0.0593 l -0.63189,0.27645 c -0.21722,0.13823 -0.31595,0.27645 -0.57266,0.39494 -0.41468,0.15797 -0.49366,0.11847 -0.8491,0.37518 l -1.14531,0.71089 c -0.15798,0.0592 -0.2962,0.0987 -0.45418,0.17772 l -2.053663,1.10581 c -0.296202,0.25671 -0.86886,0.53317 -1.125567,0.73063 -0.355441,0.27646 -0.671389,0.61215 -1.105816,0.78987 -0.651643,0.27646 -1.441515,0.94785 -1.935185,1.16506 -0.07899,0.0395 -0.09873,0.0395 -0.197466,0.0987 l -0.967592,0.63189 c -0.177719,0.0987 -0.23696,0.13823 -0.394936,0.23696 l -0.375187,0.25671 c -0.236961,0.13823 -0.454173,0.35544 -0.710882,0.47393 -0.434427,0.19746 -0.829365,0.45417 -1.244046,0.67138 l -2.19189,0.86886 c -0.177721,0.0592 -0.375189,0.0592 -0.533162,0.11848 l -0.691136,0.25671 c -0.315951,0.079 0.01975,-0.0197 -0.217213,0.0987 -0.572657,0.31595 -1.994424,0.61215 -2.823787,0.9281 -0.552911,0.21721 -1.402018,0.31595 -1.737715,0.43443 -0.197468,0.079 -0.11848,0.079 -0.217214,0.11848 -0.414682,0.15797 -1.184804,0.11848 -1.638981,0.21721 -0.217212,0.0395 -0.09873,0.13823 -0.473922,0.15798 -0.454175,0.0197 -0.296202,0.11848 -1.145312,0.11848 -0.493669,0 -0.710883,0.13823 -1.145312,0.13823 -0.473922,0 -0.829363,0.0592 -1.204551,0.0592 z m -9.636417,-5.33162 c -0.157974,-0.17772 -0.197468,-0.15798 -0.473922,-0.19747 l -0.908351,-0.11848 c -0.335695,-0.0592 -0.03949,0 -0.236961,-0.0987 -0.157974,-0.079 -0.355441,-0.0395 -0.572656,-0.11848 -0.335694,-0.13823 -1.283539,-0.3357 -1.717967,-0.35545 -0.315948,-0.0197 -0.434429,0.079 -0.454176,-0.23695 0.05924,-0.25671 1.5205,-0.55291 1.816702,-0.6714 0.434428,-0.15797 1.007084,-0.19746 1.421766,-0.39493 0.770123,-0.37519 1.619234,-0.49367 2.448598,-0.69114 0.315948,-0.079 0.691136,-0.2567 0.928097,-0.2962 0.434429,-0.079 0.157974,0 0.473922,-0.13823 0.217214,-0.0987 0.296201,-0.0592 0.572656,-0.0987 0.197467,-0.0197 0.256709,-0.079 0.43443,-0.11848 0.296201,-0.079 0.710883,-0.13823 1.007084,-0.25671 0.177721,-0.079 0.296201,-0.11848 0.473922,-0.15797 0.315948,-0.079 0.67139,-0.13823 1.007085,-0.21722 0.533162,-0.13822 0.434428,-0.0592 1.007084,-0.2567 l 0.651643,-0.21722 c 0.118481,-0.0198 0.217214,-0.0198 0.335695,-0.0395 l 1.342779,-0.47393 c 0.236961,-0.079 0.572656,-0.079 0.770124,-0.13822 0.256707,-0.079 0.612149,0 0.770123,-0.19747 0.157974,0 0.335695,0 0.473922,0 l 1.954927,-0.55291 c 0.09874,-0.0198 0.710885,-0.11848 0.829365,-0.15797 l 2.409106,-0.51342 c 0.394934,-0.0197 0.375188,-0.13822 0.868856,-0.11848 l 0.11848,0.2962 c 0.533163,-0.0395 0.315949,-0.19747 1.204551,-0.17772 1.856195,0 2.448599,0.0592 4.265302,-0.13822 0.375187,-0.0395 0.967589,-0.0592 1.342779,-0.15798 0.157973,-0.0395 0.2962,-0.0395 0.493668,-0.0592 0.651641,-0.0197 1.540247,-0.33569 2.527584,-0.37519 l 1.145312,-0.0987 c 0.710884,0 1.263791,-0.0987 1.89569,-0.0987 l 2.369609,0.0395 c 0.47392,0 0.80961,-0.0987 1.26379,-0.0987 1.06633,0 1.75746,-0.17773 2.70531,-0.17773 0.77012,0 0.90835,0.11848 1.8167,-0.0395 0.31595,-0.0592 1.54025,-0.21721 1.79695,-0.0395 -0.33569,0.23696 -0.71088,0.15797 -1.2243,0.23696 l -1.79695,0.51342 c -0.15797,0.0592 -0.11848,0.0987 -0.23696,0.15797 -0.0395,0.0197 -0.25671,0.0592 -0.31595,0.0987 -0.19746,0.11848 0.19747,-0.13823 -0.0987,0.079 l -0.35544,0.19747 c -0.29621,0.15797 -0.43443,0.13822 -0.73063,0.2567 -0.0198,0 -0.0198,0.0197 -0.0395,0.0197 -0.0197,0 -0.0197,0.0198 -0.0395,0.0198 l -0.96759,0.31594 c -0.31595,0.079 -0.55291,0.3357 -1.02683,0.51342 -0.0592,0.0198 -0.17772,0.0592 -0.25671,0.0987 -0.0198,0 -0.0987,0.0395 -0.11848,0.0592 -0.0198,0 -0.0198,0.0197 -0.0395,0.0197 l -2.981765,1.10582 c -0.355443,0.17772 -0.651641,0.37519 -1.026832,0.53316 l -2.330117,0.96759 c -0.05924,0.0395 -0.01975,0.0198 -0.118481,0.0395 l -1.777208,0.47392 c -0.01974,0 -0.05924,0.0197 -0.07899,0.0395 -0.37519,0.13823 -0.651643,0.35544 -1.046579,0.49367 -0.138227,0.0395 -0.197468,0.0395 -0.335693,0.0987 -0.355445,0.13823 -0.710886,0.3357 -1.125567,0.37519 -0.572655,0.0592 -1.342781,0.29621 -1.89569,0.45418 l -2.60657,0.49367 c -1.007085,0.11848 -1.184806,0.11848 -2.25113,0.13822 -0.572655,0 -0.947845,0.0987 -1.441513,0.11848 -0.592402,0.0395 -0.710882,0.13823 -1.244045,0.25671 -1.619235,0.35545 -2.902773,0.19747 -4.344287,0.23697 -1.441513,0.0395 -2.962013,0.21721 -4.443019,0 -0.276455,-0.0395 -0.355442,-0.079 -0.631896,-0.0987 -0.730631,-0.0395 -2.270878,-0.079 -2.863281,-0.27645 -0.276454,-0.079 -0.434428,-0.0395 -0.770123,-0.0592 z m 56.179518,-8.41212 c 0.15797,-0.39493 0.13823,-0.25671 0.17772,-0.80962 0.0198,-0.0592 0.0987,0.0197 0.21722,-0.39493 0.23695,-0.75038 0.11847,-0.27645 0.33569,-0.5924 0.0592,-0.079 0.0592,-0.15798 0.11848,-0.23696 0.19747,-0.25671 0.25671,0.0987 0.33569,-0.35545 0.23697,-0.0395 0.41469,-0.15797 0.71089,-0.2567 0.37519,-0.11848 0.98734,-0.35545 1.38227,-0.13823 l 0.9281,0.75038 c 0.0395,0.0395 0.15797,0.079 0.21721,0.13822 0.55291,0.43443 0.8886,0.96759 1.08607,1.61924 0.079,0.27645 0.3357,1.44151 0.2962,1.73771 -0.0395,0.23696 -0.0395,0.47392 -0.0592,0.67139 -0.0198,0.13823 -0.11848,0.27646 -0.19747,0.47392 -0.11848,0.35544 -0.0592,0.13823 -0.23697,0.37519 -0.0395,0.0592 -0.39493,0.94784 -1.10581,0.98734 -0.82937,0.0395 -1.00709,0.079 -1.59949,-0.13823 l -0.079,-0.0395 c -0.67138,-0.27646 -1.04657,-0.53317 -1.46125,-1.06633 l -0.13823,-0.15797 c 0,0 -0.0198,-0.0197 -0.0198,-0.0395 -0.079,-0.079 0.0198,0.0395 -0.079,-0.0987 l -0.5529,-1.34278 c -0.13823,-0.35544 0,-0.80961 -0.23697,-1.12556 z m -5.21315,-8.1949 c 0.0198,-0.27646 0.11849,-0.39494 0.23697,-0.55291 l 0.80961,-1.54025 c 0.3357,-0.77012 0.3752,-0.47392 0.61215,-0.94784 l 0.61215,-1.32303 c 0.25671,-1.02684 0.57266,-1.34278 0.67139,-1.71797 l 0.77013,-1.95493 c 0.0592,-0.11848 0.0987,-0.15798 0.13822,-0.25671 0.35545,-0.84911 0.53317,-1.75746 0.82937,-2.62632 0.19746,-0.55291 0.43443,-1.89569 0.63189,-2.48809 l 0.19747,-0.63189 c 0.0395,-0.35545 0,-0.31595 0.0987,-0.6319 0.0395,-0.13823 0.0395,-0.13823 0.079,-0.31595 l 0.25671,-1.30328 c 0.0395,-0.17773 0.0592,-0.11848 0.0987,-0.29621 0.0592,-0.37518 0.0198,-0.2567 0.15798,-0.57265 l 0.27645,-0.67139 c 0,-0.0197 0.0395,-0.0592 0.0395,-0.079 0,0 0.0592,-0.11848 0.0592,-0.11848 l 0.49368,-1.40202 c 0.47392,-1.24404 0.45417,-0.96759 1.00708,-2.1129 0.0987,-0.21722 0.21721,-0.25671 0.31595,-0.49367 0.15797,-0.33569 0.39493,-0.69114 0.51341,-1.04658 0.0987,-0.33569 0.2962,-0.63189 0.31595,-0.65164 0.0592,-0.11848 -0.0198,0.0592 0.0395,-0.11848 0.0592,-0.15798 0.0592,-0.13823 0.13823,-0.27646 l 0.77012,-1.54024 c 0.0987,-0.17772 0.21722,-0.2962 0.31595,-0.47392 0.29621,-0.5134199 0.43443,-1.0070899 0.90835,-1.4020199 0.13823,-0.0987 0.27646,-0.3554498 0.37519,-0.4344298 0.17772,-0.13823 -0.21721,0.1579698 0.15797,-0.079 l 0.27646,-0.23696 c 0.73063,-0.6319 1.26379,-1.36253 1.91544,-2.01417 0.13822,-0.13823 0.27645,-0.21721 0.39493,-0.35544 l 1.36253,-1.40202 c 0.0592,-0.0592 0.13823,-0.0987 0.19746,-0.15797 l 0.43443,-0.47393 c 0,0 0.0197,-0.0197 0.0197,-0.0395 0.11848,-0.13823 0.17772,-0.19747 0.35544,-0.23696 0.0198,0.43443 -0.31595,2.31037 -0.43443,2.76454 -0.0592,0.21722 -0.13822,0.3357 -0.21721,0.57266 -0.0592,0.19747 -0.0987,0.43443 -0.15798,0.61215 -0.13822,0.37519 -0.13822,0.82936 -0.33569,1.2045498 l -1.10582,4.3837799 c -0.0592,0.17772 -0.079,0.45418 -0.0987,0.6319 -0.0592,0.53316 -0.079,0.27645 -0.23696,0.55291 l -0.13823,0.45417 c 0,0.0197 -0.0198,0.0197 -0.0198,0.0395 -0.27645,0.55291 -0.41468,1.2243 -0.65164,1.65873 0,0.0197 -0.0198,0.0197 -0.0198,0.0395 l -0.0395,0.079 c -0.0987,0.17772 -0.13823,0.37519 -0.21722,0.53317 l -2.21163,4.2258 c 0,0 -0.0592,0.11848 -0.0592,0.11848 -0.11848,0.21722 -0.0395,0.0395 -0.15797,0.23696 -0.0395,0.079 -0.079,0.21722 -0.11849,0.2962 l -0.90835,1.79696 c -0.0395,0.079 -0.0395,0.11848 -0.0592,0.17772 l -1.34278,2.29062 c -0.13822,0.35545 -0.35544,0.65164 -0.5924,0.96759 l -1.26379,1.8562 c -0.21721,0.33569 -0.3357,0.86885 -0.6319,1.14531 -0.45417,0.41468 -0.78987,0.8886 -1.2243,1.30328 l -0.84911,1.04658 c -0.17772,0.21722 -0.19746,0.21722 -0.39493,0.41469 -0.11848,0.11847 -0.27646,0.2567 -0.37519,0.37518 -0.11848,0.11848 -0.27646,0.31595 -0.39493,0.41469 -0.17772,0.13822 -0.0987,0.0197 -0.19747,0.17772 l -1.38228,1.34278 c -0.17772,0.21721 -0.37519,0.39493 -0.51341,0.61214 l -0.17772,0.23697 c -0.0395,0.0592 -0.0592,0.0592 -0.0987,0.13822 -0.0987,0.13823 -0.0987,0.17773 -0.25671,0.23696 z m 6.69416,-21.56346 c -0.0198,-0.41468 -0.0395,-1.26379 -0.17772,-1.57974 h -0.35545 c 0.0198,0.57266 0.0198,1.08607 0,1.65873 0,0.51342 -0.079,0.2962 -0.13822,0.6319 -0.0395,0.23696 -0.0395,0.5529 -0.0395,0.80961 l -0.15797,0.53316 c -0.13823,0.59241 -0.079,1.44152 -0.21721,2.03392 -0.11848,0.43443 -0.35545,0.80962 -0.49367,1.75746 -0.079,0.51342 -0.73063,3.89011 -0.90835,4.40353 l -0.31595,0.84911 c -0.079,0.23696 0.0197,0.079 -0.13823,0.21721 -0.0198,0.0395 -0.2962,1.34278 -0.45418,1.71797 -0.0592,0.11848 -0.11848,0.15798 -0.17772,0.27646 l -1.08607,2.42885 c 0,0.0197 -0.0197,0.079 -0.0395,0.0987 l -0.37519,0.96759 c 0,0.0197 -0.0198,0.0197 -0.0198,0.0395 l -0.31594,0.71089 c -0.079,0.15797 -0.15798,0.45417 -0.25671,0.61215 l -1.32303,2.13265 c -0.11849,0.17772 -0.25671,0.39493 -0.37519,0.5529 -0.079,0.0987 -0.0987,0.13823 -0.15798,0.25671 -0.0197,0.0592 -0.0395,0.0987 -0.079,0.15798 -0.0395,0.0987 -0.0395,0.079 -0.079,0.13822 -0.13823,0.17772 -0.23696,0.25671 -0.39494,0.47393 -0.0987,0.15797 -0.2567,0.37518 -0.33569,0.53316 -0.13823,0.31595 -0.0592,0.33569 -0.27646,0.57265 l -0.51341,0.6319 c -0.19747,0.23696 -0.37519,0.61215 -0.61215,0.82936 -0.13823,0.13823 -0.2962,0.35545 -0.37519,0.51342 l -1.12556,1.44151 c -0.31595,0.49367 -0.73064,0.86886 -0.9281,1.20455 -0.23696,0.37519 -0.5924,0.59241 -0.84911,0.94785 -0.11848,0.15797 -0.079,0.15797 -0.2962,0.19747 0.0197,-0.15798 0.0987,-0.2962 0.11848,-0.41469 0.0395,-0.15797 0.0395,-0.27645 0.079,-0.45417 0.0395,-0.19747 0.0987,-0.0987 0.13822,-0.35544 0.0395,-0.25671 0,-0.21722 0.079,-0.43443 0.15797,-0.55291 0.15797,-1.24405 0.33569,-1.75746 0.25671,-0.75038 0.31595,-1.83645 0.41468,-2.68556 0.0198,-0.11848 0.0593,-0.31595 0.079,-0.43443 0.0395,-0.19746 0.0198,-0.37519 0.0395,-0.55291 l 0.21722,-1.34278 c 0.0198,-0.15797 0,-0.35544 0.0198,-0.51341 0.0592,-0.55291 0.23696,-1.24405 0.31594,-1.79696 0.079,-0.51341 0.21722,-0.77012 0.25671,-1.32303 l 0.17772,-0.84911 c 0.0395,-0.11848 0.11848,-0.19747 0.17772,-0.3357 l 0.25671,-0.84911 c 0.13823,-0.35544 0.23696,-1.12556 0.43443,-1.36252 l 0.71088,-1.69822 c 0.11849,-0.51342 0.13823,-0.35544 0.35544,-0.69114 0.11848,-0.17772 0.15798,-0.5924 0.23697,-0.78987 0.0987,-0.21721 0.19747,-0.51342 0.31594,-0.71088 0.17773,-0.2962 0.43443,-1.08607 0.6319,-1.50076 0.21721,-0.43442 0.47392,-0.98733 0.75038,-1.40202 l 0.51341,-1.02683 c 0.0395,-0.11848 0.079,-0.23696 0.15798,-0.35544 0.0395,-0.079 0.0395,-0.079 0.0987,-0.13823 l 0.11848,-0.17772 c 0.0198,-0.0197 0.0987,-0.11848 0.11848,-0.13822 0.13823,-0.19747 0.82937,-1.30329 1.06633,-1.2638 0.0987,-0.51341 0.41468,-0.63189 0.69113,-0.96759 0.0395,-0.0395 0.0987,-0.11848 0.11848,-0.15797 l 0.61215,-0.77012 c 0.17772,-0.17772 0.3357,-0.3357 0.55291,-0.55291 0.23696,-0.21722 0.21722,-0.45418 0.53317,-0.55291 0.39493,-0.11848 0.51341,-0.65165 1.1848,-1.00709 0,0 0.13823,-0.0987 0.13823,-0.0987 0.19746,-0.15797 0.2962,-0.23696 0.27645,-0.55291 -0.19747,-0.0197 -0.11848,-0.0197 -0.27645,0.0395 -0.3357,0.0987 -0.77013,0.45418 -0.82937,0.49367 l -1.57974,1.57974 c -0.25671,0.25671 -0.90835,0.9281 -1.10582,1.2243 l -0.13822,0.21722 c 0,0 -0.0198,0.0197 -0.0198,0.0395 l -0.49367,0.67139 c -0.0395,0.0987 0,0.0197 -0.0592,0.11848 l -0.65164,0.67139 c -0.0395,0.0592 -0.0198,0.0592 -0.0592,0.11848 -0.079,0.11848 -0.0198,0 -0.0987,0.13823 -0.079,0.11848 -0.0395,0.11848 -0.11848,0.21721 -0.21721,0.23696 -0.65164,1.04658 -1.00708,1.50076 l -1.20455,2.05366 c -0.41468,0.8886 -0.3357,1.06632 -0.65165,1.65872 -0.51341,0.9281 -0.47392,1.36253 -0.84911,2.21164 l -0.45417,1.04658 c -0.0395,0.13823 -0.0198,0.21721 -0.0592,0.35544 -0.0395,0.17772 0,0.0987 -0.13823,0.19747 -0.0395,0.47392 -0.13823,0.61215 -0.27645,0.96759 l -0.51342,1.55999 c -0.0395,0.0987 -0.0592,0.17772 -0.0987,0.25671 -0.079,0.19747 -0.13823,0.25671 -0.17772,0.45417 -0.0395,0.23697 -0.0592,0.31595 -0.13823,0.51342 -0.15798,0.49367 -0.15798,1.04658 -0.2962,1.56 l -0.13823,0.47392 c -0.27646,1.06632 -0.23696,1.04657 -0.39493,2.09315 -0.0593,0.39494 -0.0987,0.6319 -0.11848,1.12557 -0.0197,0.27645 -0.0987,0.2962 -0.15798,0.69113 -0.0395,0.29621 0.0198,-0.0395 -0.0987,0.23697 -0.0987,0.23696 -0.0395,0.78987 -0.079,1.12556 l -0.19747,1.04658 c -0.0395,0.51341 -0.079,1.55999 -0.31595,2.07341 -0.0987,0.21721 -0.079,0.31595 -0.11848,0.57265 -0.0592,0.31595 -0.27645,0.80962 -0.39493,1.5205 -1.20455,0.0592 -2.25113,-0.11848 -3.45568,0.0197 -1.06633,0.11848 -2.13265,0.17772 -3.19898,0.0987 -1.00708,-0.079 -3.37669,0.0395 -4.561498,0.15797 -0.651643,0.0592 -1.796954,-0.11848 -2.389358,0.0395 -1.066324,0.2962 -2.784292,-0.0197 -4.028337,0.3357 l -2.389359,0.37519 c -0.138226,0.0197 -0.23696,0 -0.394934,0.0197 l -0.710882,0.0987 c -0.592402,0.079 0.05924,0.079 -1.105818,0.0987 l -1.717969,0.13823 c -0.177719,0.0395 -0.236961,0.11848 -0.473921,0.11848 -0.631897,0 -1.28354,-0.0197 -1.895689,0 -0.651643,0.0197 -1.145313,0.13822 -1.796954,0.17772 -0.78987,0.0395 -2.19189,0.41468 -3.337202,0.53316 -0.276455,0.0198 -1.342779,0.21721 -1.57974,0.2962 -0.355442,0.13823 -0.493669,0.0592 -0.888604,0.11848 -0.157975,0.0197 -0.217215,0.079 -0.355442,0.0987 -0.631896,0.079 -1.125565,0.21721 -1.717968,0.39493 -0.631896,0.19747 -1.204552,0.2962 -1.836448,0.39494 -0.256708,0.0395 -0.138227,0.079 -0.355441,0.11848 -0.177721,0.0197 -0.236961,-0.0198 -0.414682,0.0395 -0.05924,0.0197 0,0.0197 -0.157974,0.079 l -0.631896,0.13823 c -0.256708,0.0592 -0.572657,0.19746 -0.750378,0.23695 l -1.283539,0.37519 c -0.315948,0.079 -0.651643,0.0987 -0.987338,0.21722 -0.394935,0.13823 -0.888604,0.21721 -1.283539,0.37519 -0.01975,0 -0.01975,0.0197 -0.03949,0.0197 -0.217214,0.0987 -0.612149,0.13823 -0.90835,0.25671 -0.256708,0.0987 -0.454175,0.19747 -0.691136,0.27646 l -2.13265,0.75037 c -0.315948,0.0592 -0.434428,0.13823 -0.710883,0.25671 l -1.323033,0.6319 c -0.01975,0.49366 0.03949,0.39493 0.473922,0.43442 0.276455,0.11849 -0.11848,0.0987 0.829364,0.31595 l 2.804039,0.71089 c 0.473922,0.0592 0.572656,0.15797 0.928098,0.21721 0.276454,0.0395 0.730629,0.079 1.007084,0.15797 l 1.46126,0.23697 c 0.335695,0 0.315948,0.079 0.533162,0.11848 0.335695,0.0592 0.967591,0.11848 1.224299,0.21721 0.118481,0.0395 -0.05924,0.0395 0.197468,0.079 0.177721,0.0197 0.414683,0 0.572657,0.0197 0.197467,0.0395 0.11848,0.0592 0.454175,0.0987 l 0.157974,0.0197 c 0.01975,0 0.03949,0 0.03949,0 0.414681,0.0593 2.567078,0.079 2.922519,0 0.256708,-0.0592 0.572656,-0.0197 0.849111,-0.0592 0.493668,-0.0395 1.086071,-0.15797 1.619234,-0.13822 0.315948,0 0.414681,-0.079 0.454175,0.23696 -0.157974,-0.0395 -0.394935,0.15797 -0.552909,0.21721 -0.177721,0.0395 -0.276455,0.0395 -0.414682,0.11848 -0.394935,0.23697 -0.849111,0.2962 -1.224299,0.55291 -0.157974,0.0987 0.03949,-0.0197 -0.09873,0.079 l -0.315948,0.19747 c -0.07899,0.0395 -0.11848,0.0987 -0.177721,0.15797 -0.217214,0.19747 -0.533162,0.45418 -0.829363,0.5924 -0.05924,0.13823 -0.05924,0.25671 -0.138227,0.35545 l -0.236961,0.23696 c -0.355442,0.41468 -0.315949,0.67139 0.01975,0.98733 0.05924,0.0395 0.05924,0.079 0.118481,0.0987 0.01975,0 0.01975,0.0197 0.03949,0.0197 0.236961,0.13822 0.493669,0.17771 0.750377,0.2962 0.11848,0.0592 -0.03949,0.0395 0.217214,0.079 l 0.414682,0.11848 c 0.01975,0 0.01975,0.0198 0.03949,0.0198 l 0.17772,0.0395 c 0.256708,0.0592 0.592403,0.11848 0.809617,0.29621 0.118481,0.0987 0,0.0197 0.138227,0.0987 0.49367,0.0197 1.323033,0.13822 1.856195,0.0987 0.335695,-0.0197 0.770124,-0.23696 1.026832,-0.39493 0.572655,-0.31595 1.619234,-0.0395 2.270877,-0.21722 l 2.725051,-0.63189 c 0.355443,-0.079 0.513418,-0.25671 1.125564,-0.35544 0.276456,-0.0395 0.157975,-0.0197 0.355441,-0.11849 0.118483,-0.0395 0.25671,-0.11848 0.355444,-0.13822 l 1.856193,-0.69114 c 0.612152,-0.27645 1.105818,-0.15797 1.737715,-0.57266 0.552909,-0.37518 1.244047,-0.49366 1.856195,-0.78987 l 0.473924,-0.27645 c 0.315946,-0.19747 0.67139,-0.2962 0.96759,-0.53316 0.61215,-0.49367 1.421764,-0.96759 2.093156,-1.48101 l 1.974675,-1.24404 c 0.05924,-0.0198 0.118481,-0.0395 0.157976,-0.079 1.066323,-0.55291 1.145311,-0.96759 1.777207,-0.96759 0,0.45417 -0.177721,0.49367 -0.533162,0.71088 l -2.962014,1.97468 c -0.01975,0 -0.01975,0.0197 -0.03949,0.0197 -0.01975,0 -0.01975,0.0198 -0.0395,0.0198 -0.01975,0 -0.01975,0.0197 -0.03949,0.0197 l -0.414683,0.31595 c -0.07899,0.0592 -0.11848,0.0987 -0.177719,0.15797 -0.394936,0.41468 -1.026833,0.67139 -1.145313,1.38227 -0.09873,0.55291 0.05924,0.78987 -0.414683,1.06633 l -0.335693,0.19746 c -0.01975,0.0197 -0.05924,0.0395 -0.05924,0.0592 -0.05924,0.0395 -0.138224,0.0987 -0.197466,0.15798 -0.335694,0.27645 -0.730628,0.55291 -1.007084,0.8886 -0.09873,0.13823 -0.236961,0.15798 -0.335697,0.2962 -0.05924,0.079 -0.177719,0.27646 -0.236959,0.35544 -0.11848,0.17773 -0.552909,0.49367 -0.829364,1.06633 -0.118481,0.23696 -0.07899,0.8886 -0.07899,1.20455 0,0.3357 -0.01975,0.45418 -0.256709,0.67139 -0.03949,0.0395 -0.05924,0.0592 -0.09873,0.079 -0.335695,0.25671 -1.007086,-0.0197 -1.263795,0.35544 0.157975,0 0.236962,0.0197 0.394938,-0.0198 0.217212,-0.0395 0.177721,-0.0592 0.454175,-0.0395 -0.07899,0.33569 -0.276454,0.47392 -0.612151,0.51342 0,0.57265 -0.197466,0.37518 -0.217214,0.61215 -0.2962,0.0395 -1.066326,0.0592 -1.184804,0.41468 0.05924,0.0395 0.01975,0.0592 0.157975,0.0395 0.157971,-0.0197 0.05924,-0.0197 0.197466,-0.079 0.177722,-0.079 0.335695,-0.0987 0.533163,-0.079 l -0.236963,0.69113 c -0.03949,0.0987 -0.05924,0.079 -0.118478,0.21722 l -0.197468,0.41468 c -0.17772,0.27645 -0.394938,0.39493 -0.552909,0.65164 l -0.533163,0.75038 c -0.217216,0.23696 -0.31595,0.21721 -0.31595,0.55291 l 0.236962,0.15797 c -0.03949,0.39493 -0.335694,0.55291 -0.552909,0.84911 -0.2962,0.39494 -0.276453,0.25671 -0.849109,1.10582 l -0.236963,0.33569 c -0.276453,0.45418 -0.335696,0.23697 0.01975,0.65165 0.236963,-0.17772 0.355443,-0.51342 0.552909,-0.73063 0.05924,-0.079 0.09873,-0.17772 0.157975,-0.27646 l 0.315946,-0.0197 c 0.05924,0.5924 -0.236958,0.9281 -0.513414,1.36252 -0.09873,0.15798 -0.138227,0.53316 -0.217214,0.75038 -0.138229,0.39494 -0.03949,0.31595 -0.05924,0.80962 0.217212,-0.0987 0.157975,-0.13823 0.276453,-0.35544 0.17772,-0.3357 0.276456,-0.61216 0.513414,-0.86886 0.09874,-0.0987 0.17772,-0.17772 0.315949,-0.19747 0.296202,0.2962 -0.01975,0.84911 -0.276454,1.02683 -0.01974,0.39494 0.03949,0.23696 -0.11848,0.51342 -0.157973,0.27645 0.07899,0.41468 -0.138229,0.71088 l -0.612148,0.77012 c -0.05924,0.0592 -0.09873,0.11848 -0.157973,0.19747 -0.118483,0.15798 -0.197466,0.21721 -0.315949,0.37519 -0.11848,0.15798 0,0.0197 -0.11848,0.13822 -0.07899,0.079 -0.118481,0.11849 -0.157975,0.19747 0,0 -0.01975,0.0197 -0.01975,0.0395 l -0.03949,0.0592 c -0.256709,0.37519 -0.572653,0.77012 -0.61215,1.28354 0.138229,-0.0395 0.217214,-0.11848 0.335695,-0.23696 0.05924,-0.0593 0.07899,-0.079 0.138227,-0.13823 l 0.473923,-0.49367 c 0.138229,-0.19747 0.07899,-0.25671 0.355441,-0.27645 0.01975,0.11848 0.03949,0.23696 -0.01975,0.35544 0,0.0197 -0.01975,0.0197 -0.01975,0.0395 -0.138229,0.17772 -0.17772,0.0987 -0.217217,0.35544 -0.118478,0.67139 -1.066323,1.28354 -1.20455,2.05366 0.355441,-0.0197 0.276453,-0.079 0.434429,-0.2567 0.177719,-0.19747 0.138228,-0.23697 0.414682,-0.25671 0.03949,0.53316 -0.09873,0.53316 -0.138227,0.8886 0.47392,0.0395 0.138227,0.98734 0.118479,1.20455 0.01975,0 0.03949,0 0.03949,0.0198 0.01975,0.079 0.01975,0.0197 0.07899,0.0395 0.256705,0.11848 0.434427,0.45417 0.631895,0.63189 l 0.533162,0.51342 c 0.315951,0.43442 0.05924,0.55291 -0.09873,0.8886 0.01975,0.0197 0.03949,0 0.03949,0.0395 l 0.138227,0.079 c 0.01975,0.2962 -0.07899,0.69114 -0.394934,0.80962 -0.276455,0.11848 -0.552907,0.23696 -0.651643,0.57265 0.01975,0.0197 0.03949,0.19747 0.217214,-0.0197 0.17772,-0.19747 0.355442,-0.45418 0.750377,-0.35544 l -0.01975,0.61214 c -0.217214,0.0395 -0.572657,0.37519 -0.61215,0.71089 0.236961,-0.0592 0.197468,-0.0592 0.335695,-0.21722 0.11848,-0.11848 0.11848,-0.17772 0.315948,-0.19746 l 0.276453,1.7772 c 0,0.23697 -0.01975,0.45418 -0.01975,0.69114 l 0.296202,0.25671 c 0.03949,0.0395 0.03949,0.0592 0.07899,0.079 0.454177,0.45417 0.31595,1.26379 0.335694,1.91543 0,0.47392 0.0395,0.9281 0.07899,1.40202 0.01975,0.2962 0.236959,0.84911 0.355441,1.06633 0.118481,-0.25671 -0.05924,-1.16506 -0.05924,-1.87595 0,-0.19746 -0.01975,-0.55291 0.07899,-0.69113 0.236958,0.0592 0.276455,0.2962 0.315948,0.57265 0.01975,0.23696 0.05924,0.53316 0.118482,0.78987 0.07898,0.35544 -0.07899,0.9281 0.375188,1.40202 l -0.09873,-2.03391 c 0.276455,0.0592 0.256707,0.11848 0.454175,0.31595 0.197468,0.19746 0.236959,0.0592 0.276452,0.41468 l 0.138228,-0.0987 c 0.118481,-0.0592 0,-0.0197 0.177722,-0.0395 0.11848,0.11848 0.09873,0.17772 0.217212,0.33569 0.05924,-0.079 0.05924,0.079 0.07899,-0.23696 0.256709,-0.0197 0.454177,0.0395 0.651645,0.13823 l 0.17772,0.0592 c 0.31595,0.11848 0.533162,0.41468 0.493668,0.61215 -0.03949,0.2962 -0.37519,0.25671 -0.414681,0.63189 0.493668,-0.0197 -0.03949,-0.0987 0.454175,-0.2567 0.138227,0 0.157976,0.0987 0.256708,0.19747 0.355441,0.35544 -0.315949,0.11848 -0.394936,0.96759 0.217216,-0.079 0.05924,0.0592 0.19747,-0.13823 0.07899,-0.11848 0.217212,-0.47392 0.454173,-0.39494 0.19747,0.15798 0.157975,0.11849 0.157975,0.45418 0.01975,0.0197 0.03949,0 0.03949,0.0197 0,0 0.09873,0.079 0.157973,0.2567 l 0.315948,0.6319 c 0.05924,0.13823 0.138225,0.21722 0.197468,0.31595 0.01975,0.51341 -0.256709,0.69114 -0.276455,1.26379 0.11848,-0.0197 0.138226,0 0.217212,-0.079 0.118482,-0.11849 0.01975,-0.0395 0.07899,-0.21722 0.03949,-0.15797 0.138226,-0.23696 0.217212,-0.33569 0.315948,0.0592 0.177722,0.0592 0.335695,0.2962 0.11848,0.19746 0.197468,0.21721 0.138229,0.53316 -0.05924,0.27645 -0.394936,0.71088 -0.236961,0.98733 0.375187,-0.15797 0.177721,-0.67138 0.631895,-0.73062 0.01975,0.27645 -0.09873,0.61215 -0.138229,1.04658 l -0.09873,1.10581 c 0.05924,-0.079 0.03949,0 0.07898,-0.13822 l 0.09874,-0.39494 c 0.03949,-0.25671 0.03949,-0.43443 0.118479,-0.6319 0.09874,-0.21721 0,0 0.157975,-0.17772 0.157973,-0.17772 0.197468,-0.41468 0.315948,-0.61215 0.05924,-0.11848 0.05924,-0.079 0.09873,-0.13822 0.05924,0.80961 -0.533161,1.99442 -0.01975,2.05366 0.138227,-0.3357 0.01975,-0.71089 0.276453,-1.04658 0.276454,-0.3357 0.138227,-0.82936 0.552908,-0.80961 -0.01975,0.15797 -0.03949,0.2567 -0.07898,0.41468 -0.19747,0.71088 -0.19747,0.5529 -0.138229,1.44151 h 0.177722 c 0.03949,-0.21722 -0.01975,-0.73063 0.177719,-0.9281 0.118481,-0.13822 0.177722,-0.13822 0.296202,-0.27645 0.09873,-0.11848 0.0395,-0.0592 0.118481,-0.17773 l 0.138226,-0.15797 c 0.177724,0.35544 -0.256707,0.6319 0,0.98734 0.01975,0.0395 0.01975,0 0.05924,0.0987 0.09873,0.23696 0.03949,0.59241 0.157971,0.82937 0.05924,-0.0592 0.0395,0.0197 0.05924,-0.11848 0.03949,-0.23697 0.01975,-0.25671 0.138227,-0.49367 0.0395,0 0.118482,0 0.157975,-0.0197 0.217214,-0.079 0.03949,0 0.138229,-0.079 l 0.01975,-0.57265 0.236959,0.0197 c 0.09874,0.19747 -0.01975,0.45418 0.07899,0.67139 0,0.0197 0.03949,0.0592 0.05924,0.0592 0.11848,0.11849 -0.01975,-0.0197 0.11848,0.079 0,-0.37519 -0.05924,-1.1848 0.05924,-1.42176 l 0.315949,-0.0395 c 0.03949,0.31595 0.03949,0.90835 0.2962,1.10582 v -0.84911 c 0.256709,-0.0395 0.236962,0 0.375191,0.15797 0.157973,0.19747 0.197466,0.27646 0.394934,0.41468 0.296202,0.19747 0.355441,0.6319 0.572656,0.86886 0.177719,0.17772 0.2962,0.41468 0.572653,0.45418 -0.03949,-0.35544 -0.276453,-0.39494 -0.375187,-0.69114 -0.07899,-0.17772 -0.05924,-0.13823 -0.01975,-0.35544 0.394934,-0.0198 0.375188,0.13823 0.513417,0.45417 0.09874,0.25671 0.256707,0.47393 0.53316,0.53317 -0.07899,-0.31595 -0.197466,-0.3357 -0.177719,-0.71089 0.335695,0.0987 0.236963,0.29621 0.454175,0.51342 0.138229,-0.21721 0.01975,-0.17772 -0.03949,-0.35544 -0.07899,-0.23696 -0.355441,-0.75038 -0.07899,-0.84911 0.355441,-0.13823 0.908353,0.43443 1.046573,0.63189 0.17773,0.23696 0.3357,0.39494 0.71089,0.45418 l 0.0395,0.19747 c 0.39494,0 0.47392,0.11848 0.77013,0.25671 0.63189,0.27645 2.27087,0.5924 2.80403,0.45417 1.08607,-0.27645 1.61924,-0.96759 2.60658,-0.61215 0.23696,0.079 0.23696,0.13823 0.31594,0.23696 0.11848,0.0592 1.10582,0.17772 1.46127,0.3357 0.2567,0.11848 0.57265,0.2567 0.90835,0.2567 0.61214,0 1.24404,0.19747 1.81669,0.079 0.49368,-0.11848 0.6319,0.15798 0.94785,-0.13823 0.57266,-0.5529 0.57266,-0.2962 1.24405,-0.49366 0.23696,-0.079 0.0592,0 0.23696,-0.11848 0.37518,-0.21722 1.00708,-0.13823 1.12556,-0.29621 0.21722,-0.31594 0.39494,-0.0395 0.75038,-0.2567 l 0.19746,-0.11849 c 0.35545,-0.13822 0.75038,0.19747 1.20456,0.21722 -0.11848,-0.37519 -0.49367,-0.13823 -0.5924,-0.53316 0.33569,-0.2962 0.43442,0 1.02683,-0.0197 0,-0.17772 -0.0198,-0.19747 -0.11848,-0.2962 -0.079,-0.0987 -0.13823,-0.0987 -0.13823,-0.19747 -0.0198,-0.13822 0,-0.13822 0.11848,-0.15797 l 0.43443,0.079 c 0.31594,0.0987 0.0197,0.15798 0.45417,0.21722 -0.0197,-0.17772 -0.0395,-0.2962 -0.15797,-0.41468 -0.15798,-0.15798 -0.19747,-0.0592 -0.17772,-0.35544 0.079,-0.079 0.0987,-0.13823 0.25671,-0.13823 0.35544,-0.0198 0.15797,0.0395 0.2567,0.11848 0.13823,0.0987 0.0592,0.0197 0.23696,0.079 0.13823,0.0395 0.11849,0.079 0.29621,0.11849 -0.0198,-0.35544 -0.25671,-0.25671 -0.29621,-0.69114 0.13823,-0.15797 0.31595,-0.27645 0.53317,-0.3357 0.2962,-0.0987 0.51341,0.0987 0.78987,0.0987 -0.11848,-0.19747 -0.15798,-0.11848 -0.23696,-0.33569 0.21721,-0.31595 0.67139,-0.45418 0.92809,-0.67139 0.13823,-0.13823 0.19747,-0.13823 0.2962,-0.29621 -0.0395,-0.47392 -0.15797,-0.39493 -0.57265,-0.53316 0,-0.2962 0,-0.17772 0.17772,-0.33569 0.0987,-0.079 0.15797,-0.19747 0.25671,-0.25671 0.33569,-0.17772 0.0395,0.0592 0.31595,-0.19747 2.92252,-2.58682 7.6025,-9.51794 9.30072,-12.81564 -0.11848,0.0197 -0.27646,0.0592 -0.39494,0.0987 -2.31037,3.51492 -5.11441,8.05668 -8.74781,10.46578 l -0.25671,0.27646 c -0.079,0.079 -0.23696,0.0987 -0.33569,0.15797 l -0.59241,0.45418 c -0.13822,0.079 -0.23695,0.0987 -0.35544,0.15797 -0.35544,0.19747 0.13823,0.15797 -0.37519,0.15797 0,-0.2567 0,-0.19746 0.0987,-0.35544 0.079,-0.0987 0.0395,0 0.079,-0.13823 0.0592,-0.13822 0.0395,-0.079 0.0197,-0.23696 -0.9281,-0.51341 -1.40202,0.82937 -1.59948,0.88861 -0.21722,-0.0198 -0.45418,-0.0987 -0.69114,-0.11848 -0.39494,0.47392 -0.31595,0.0987 -0.67139,0.13822 l 0.0987,-0.90835 c -0.35544,0.0592 -0.27645,0.35544 -0.2962,0.67139 -0.94784,0.0395 -0.43443,-0.45417 -0.69113,-0.90835 -0.15798,0.17772 -0.11849,0.47392 -0.19747,0.75038 -0.0987,-0.0197 -0.37519,0 -0.43443,-0.0197 -0.17772,-0.0592 -0.0987,-0.11848 -0.15798,-0.25671 0,-0.0197 -0.0197,-0.0197 -0.0197,-0.0395 -0.25671,0.0987 -0.11848,0.13823 -0.21721,0.37519 -0.0593,0.15797 -0.13823,0.15797 -0.31595,0.23696 -0.37519,0.15797 -0.67139,0.13823 -0.94785,-0.0987 -0.0395,-0.33569 0.0198,-0.63189 -0.0197,-0.96758 -0.0593,-0.41469 -0.13823,-0.35545 -0.3357,-0.65165 -0.15798,-0.23696 -0.11848,-0.47392 -0.17772,-0.78987 -0.0987,-0.43443 -0.31595,-0.35544 -0.3357,-0.71088 0.31595,-0.17772 0.15798,0.0987 0.25671,-0.27645 l -0.53316,-0.0197 c -0.0198,-0.55291 0.17772,-0.23696 0.39494,-0.53317 -0.11849,-0.2962 -0.25671,-0.13822 -0.51342,-0.11848 -0.079,-0.11848 -0.0592,-0.0395 -0.15798,-0.15797 l -0.0592,-0.11848 c -0.0198,-0.11848 0,-0.079 0,-0.17772 0.13822,-0.079 0.35544,-0.079 0.47392,-0.19747 -0.3357,-0.13823 -0.43443,0.0197 -0.82937,0.0197 -0.11848,-0.0395 -0.27645,-0.11848 -0.23696,-0.2962 0.15798,-0.23696 -0.0395,-0.0197 0.21722,-0.13823 0.25671,-0.13823 0.11848,0 0.13822,-0.19747 -0.39493,-0.19747 -0.41468,0.45418 -0.94784,-0.0395 -0.0395,-0.0395 -0.0987,-0.079 -0.11848,-0.0987 -0.0198,0 -0.31595,-0.0987 -0.61215,-0.31595 l -0.55291,-0.43443 c -0.0592,-0.0592 -0.19747,-0.21722 -0.27645,-0.2962 -0.15798,-0.19747 -0.0198,-0.21722 -0.15798,-0.35544 -0.079,-0.079 -0.27645,-0.13823 -0.35544,-0.17772 -0.0592,-1.2243 0.0592,-0.71089 -0.27645,-1.30329 -0.15798,-0.27646 -0.0592,-0.17772 -0.0395,-0.47392 -0.15797,-0.079 -0.5924,-0.11848 -0.5924,-0.35545 0,-0.21721 0.23696,-0.0197 0.21721,-0.37518 l -0.37518,-0.0197 c -0.23697,0.25671 -0.15798,0.15797 -0.51342,0.19747 -0.0198,-0.37519 0.0198,-0.15798 0.0987,-0.37519 l -0.19747,-0.11848 c -0.53316,0.25671 -0.0197,0.35544 -1.1453,-0.17772 -0.15798,-0.079 -0.23697,-0.19747 -0.37519,-0.25671 -0.079,-0.0395 -0.17773,-0.0197 -0.25671,-0.0197 -0.0395,0 -0.13823,0 -0.17772,0 -0.41468,-0.079 -0.079,-1.24405 -0.079,-1.28355 -0.2962,-0.11848 -0.31595,0.0198 -0.39493,-0.35544 l 0.31594,-0.0987 v -0.21722 c -0.39493,-0.0395 -0.39493,0.15798 -0.71088,0.0197 l -0.0197,-0.21721 c 0.19746,-0.0987 0.15797,0 0.2962,-0.17773 -0.0593,-0.0395 0,-0.0395 -0.11849,-0.0395 -0.11848,0 -0.0395,0 -0.11848,0.0197 -0.49367,0.13823 -0.33569,0 -0.86885,-0.47392 -0.19747,-0.17772 -0.37519,-0.47392 -0.39494,-0.77012 l 0.3357,-0.0987 c -0.11848,-0.31595 -0.11848,-0.079 -0.2962,-0.31595 -0.0987,-0.13822 -0.0987,-0.23696 -0.0395,-0.41468 -0.21721,-0.0395 -0.0987,0 -0.17772,-0.0987 0.19747,-0.13823 0.0592,-0.15798 0.3357,-0.17772 0.0395,0.079 0.0395,-0.0197 0.0197,0.0987 0,0.0197 -0.0395,0.11848 -0.0395,0.13823 h 0.43443 c -0.079,-0.23696 0,-0.0395 -0.11848,-0.19747 -0.079,-0.0987 -0.079,-0.11848 -0.13823,-0.21721 -0.39493,0 -0.39493,0.0987 -0.69114,0.11848 -0.13822,-0.49367 -0.55291,-0.78987 -0.11848,-1.00709 0.23696,-0.11848 0.0592,0.0197 0.23696,-0.17772 0.15798,-0.17772 0.23696,-0.25671 0.55292,-0.25671 -0.0198,-0.35544 -0.0395,-0.23696 0.0987,-0.47392 0.37518,0 0.17772,0.079 0.51341,0.0987 -0.0395,-0.45418 -0.19746,-0.079 -0.35544,-0.47393 0.0592,-0.13823 0.079,-0.15797 0.23696,-0.23696 0.19747,-0.0198 0.49367,0.43443 0.43443,-0.11848 l -0.41468,-0.13823 v -0.39493 l 0.43443,-0.0395 c -0.13823,-0.23697 -0.13823,-0.11849 -0.41468,-0.19747 l -0.079,-0.37519 c -0.0395,-0.17772 -0.0592,-0.079 -0.0987,-0.2962 -0.079,-0.51342 -0.0592,-1.10582 0.19746,-1.54025 0.0987,-0.17772 0.15798,-0.25671 0.3357,-0.31595 l 0.13823,-0.0395 c 0.0197,0 0.0197,-0.0197 0.0395,-0.0197 -0.0592,-0.15797 -0.23696,-0.27645 -0.15797,-0.43443 0.0987,-0.19746 0.27645,-0.0197 0.47392,-0.13822 -0.079,-0.19747 -0.6319,-0.31595 -0.39494,-0.57266 0.11848,-0.13823 0.6319,-0.0395 0.78987,-0.13823 -0.11848,-0.2567 -0.55291,-0.13822 -0.84911,-0.15797 -0.0197,-0.19747 -0.0197,-0.15798 0,-0.33569 l -0.079,-0.9676 c -0.079,-0.53316 -0.2962,-0.45417 -0.21721,-1.20455 0.27646,-0.21721 0.45417,-0.17772 0.65164,-0.47392 0.55291,-0.80962 0.47392,-0.57266 0.55291,-1.61923 0.0198,-0.31595 0.0987,-0.45418 0.13823,-0.9676 0.0198,-0.49366 0.0395,-1.69822 0.13823,-2.0734 0.41468,-1.59949 -0.0987,-1.89569 0.57265,-2.23139 l 0.55291,-0.31595 c 0.71088,-0.57265 0.53316,-0.11848 0.55291,-2.05366 0,-0.53316 -0.0198,-1.02683 0,-1.55999 0.0197,-0.65164 -0.11848,-1.26379 0.2962,-1.71797 0.3357,-0.37519 0.57266,0.17772 1.12557,-1.71797 0.17772,-0.63189 -0.11848,-0.61215 0.57265,-1.02683 l 0.43443,-0.37519 c 0.15797,-0.13822 0.39493,-0.21721 0.49367,-0.2962 0.23696,-0.21721 0.82936,-1.02683 1.61923,-0.69113 0.27646,0.11847 0.37519,0.079 0.69114,0.11847 -0.0592,0.27646 -0.15797,0.21722 -0.33569,0.29621 l -1.57974,0.90835 c -0.13823,0.0987 -0.11849,0.13823 -0.23697,0.21721 -0.0592,0.0592 -0.15797,0.079 -0.25671,0.15798 l -1.00708,1.30328 c -0.13823,0.23696 -0.21721,0.31595 -0.45417,0.45418 -0.0592,0.57265 0.15797,1.16506 0.17771,1.85619 0.0198,1.26379 -0.079,2.38936 -0.079,3.6334 0,1.08608 0.13823,2.31038 -0.61215,3.15949 -0.31595,0.35544 -0.45417,1.08607 -0.0592,0.98733 0.19747,-0.0592 0.0592,-0.11848 0.31595,-0.19747 0.13822,0.27646 -0.11848,0.39494 0.11848,0.78988 0.25671,0.43442 0.0197,0.41468 0.0592,0.92809 0.23696,0.17772 0.15797,0.25671 0.5924,0.21722 0.0395,-0.0592 0.0987,-0.21722 0.13823,-0.27646 0.079,-0.11848 0.15797,-0.15797 0.27646,-0.19746 0.0987,0.0592 0.15797,0.079 0.21721,0.15797 0.0395,0.0395 0,0.0197 0.0592,0.0987 0.45417,0.57266 1.50075,1.24405 1.77721,1.56 l 2.62631,2.1129 c 0.37519,0.35544 0.80962,0.61215 1.16506,0.96759 0.13823,0.13823 0.21722,0.23696 0.35545,0.35544 0.0197,0.39494 0.13822,0.6319 0.47392,0.77013 0.75037,0.2962 0.23696,0.0987 1.02683,0.17772 0.17772,0.23696 0.35544,0.45417 0.61215,0.5924 0.27645,0.13823 0.13822,0.27646 0,0.45418 -0.0987,0.11847 -0.0592,-0.0592 -0.0987,0.15797 -0.0395,0.35544 0.35544,0.25671 0.6319,0.15797 0.21721,-0.079 0.41468,-0.35544 0.25671,-0.65164 -0.11848,-0.21722 -0.45418,-0.35544 -0.5924,-0.61215 -0.43444,-0.78987 -0.55291,-0.2962 -1.04658,-0.57265 0.0395,-0.27646 0.2567,-0.23697 0.47392,-0.3357 0.27645,-0.13823 0.51341,-0.43443 0.77012,-0.0592 l 0.51342,0.51342 c 0.2962,0.27645 0.39493,0.47392 0.94784,0.47392 0,-0.3357 -0.17772,-0.43443 -0.47392,-0.77013 l -0.84911,-0.77012 c -0.53316,-0.35544 -0.49367,-0.0592 -0.77013,0.17772 -0.0592,0.0395 -0.51341,0.21722 -0.61214,0.25671 -0.29621,0.0987 -0.3357,0.25671 -0.67139,0.0987 -0.21722,-0.0987 -0.41468,-0.17772 -0.57266,-0.35544 l -3.87036,-3.61366 c 0,0 -0.0198,-0.0197 -0.0395,-0.0197 0,0 -0.0197,-0.0198 -0.0395,-0.0198 -0.21721,-0.21721 -0.47392,-0.25671 -0.69113,-0.51341 -0.25672,-0.2962 -0.6319,-0.53317 -0.94785,-0.78987 l 0.15797,-0.39494 c 0.079,-0.61215 -0.11848,-0.5924 -0.15797,-0.86886 -0.0395,-0.2567 -0.0198,-0.73063 -0.0592,-1.06632 -0.0198,-0.19747 0.0395,-0.19747 0.0395,-0.43443 l -0.13822,-0.9281 c -0.0198,-0.17772 0.0197,-0.39493 0,-0.57265 -0.0395,-0.3357 -0.0987,-0.0592 -0.11848,-0.39494 -0.0987,-1.71796 -0.53317,-3.041 -0.53317,-5.01567 0,-0.43443 -0.11848,-0.82937 -0.0987,-1.08607 0.27646,-0.19748 0.53316,-0.43443 0.86886,-0.55291 0.2962,-0.11848 0.57265,-0.27646 0.8886,-0.35545 0.17772,-0.0395 0.0592,-0.0197 0.15797,-0.0592 0.29621,-0.15797 1.79696,-0.86885 2.13265,-0.84911 -0.079,0.2962 -0.53316,0.41468 -0.73063,0.6319 -0.23696,0.25671 -1.06632,0.73063 -1.30328,1.44151 -0.079,0.25671 0,0.43443 0.0197,0.6319 0.0197,0.35544 -0.39494,0.49367 -0.0197,3.25821 l 0.0197,0.13823 c 0,0.0592 0,0.11848 0,0.15797 0,0.15798 0.0395,0.21722 0.0395,0.29621 0.079,0.45417 -0.11848,0.75037 -0.21721,1.12556 -0.0395,0.13823 -0.0198,0.13823 -0.079,0.25671 -0.079,0.19747 0.0197,0.079 -0.17773,0.19747 -0.0197,0.21721 -0.0197,0.41468 -0.0197,0.63189 -0.0198,0.9281 0.0395,0.43443 0.51341,0.88861 0.15798,0.13822 0.11849,0.2962 0.29621,0.43442 0.27645,-0.0197 0.23696,-0.21721 0.5529,-0.0987 0.19747,0.079 0.13823,0.17772 0.41469,0.25671 1.02683,0.33569 0.90835,0.8886 1.10582,1.79695 0.0987,0.45418 0.0987,0.78987 0.13822,1.34278 0.25671,0.15798 0.13823,0.15798 0.2962,0.25671 0.2962,0.19747 0.39494,-0.0592 0.67139,0.25671 0.15798,0.17772 0.35545,0.13823 0.35545,0.47392 -0.079,0.23696 -0.19747,0.31595 -0.35545,0.45418 v 0.39493 c 0.47393,0.0197 0.21722,-0.23696 0.57266,-0.45417 0.13823,-0.079 0.17772,-0.079 0.35544,-0.079 l 0.0987,0.31595 h 0.2962 c -0.0198,-0.11848 0.0987,-0.21722 0.15797,-0.35544 0.23696,-0.41469 -0.0197,-0.59241 -0.19747,-0.98734 -0.0987,-0.19747 -0.23696,-0.2962 -0.45417,-0.35544 -0.23696,-0.0592 -0.45418,-0.0395 -0.69114,0 -0.2962,0.0592 -0.45417,0.0395 -0.71088,-0.0395 l -0.0395,-1.14531 c -0.0395,-0.35544 -0.13822,-0.57266 -0.11848,-0.8886 0.23696,-0.0197 0.27646,0.079 0.47393,0.19746 0.27645,0.15798 1.24404,0.49367 1.34278,0.77013 0.079,0.23696 -0.13823,0.33569 -0.15798,0.57265 0.61215,-0.0592 0.3357,-0.57265 1.14531,0.17772 0.11848,0.11849 0.55291,0.37519 0.67139,0.43443 0.25671,0.11848 0.43443,0.2962 0.65165,0.45418 l 1.36252,1.00708 c 0.079,0.0592 0.079,0.0592 0.15798,0.13823 0.0987,0.0987 0.17772,0.19747 0.2567,0.31595 0.17772,0.27645 0.45418,0.43443 0.73063,0.5924 0.13823,0.079 0.49367,0.15798 0.71089,0.0987 0.19747,-0.079 -0.0395,-0.0592 0.23696,-0.13822 0.13823,-0.0395 0.27645,-0.0197 0.41468,0 0.079,0.27645 0.11848,0.71088 0.31595,0.94784 0.23696,0.2962 0.33569,-0.0592 0.33569,-0.23696 0.0198,-0.39494 0.0395,-0.57266 -0.17772,-0.84911 -0.27645,-0.37519 -0.57265,-0.33569 -1.02683,-0.35544 0.0197,-0.13823 0,-0.11848 0.0592,-0.25671 0.11848,-0.27645 0.0198,-0.0395 0.15797,-0.17772 0,0 0.0198,-0.0197 0.0198,-0.0197 0.079,-0.0987 0.0198,-0.0395 0.0592,-0.11848 0.19747,-0.33569 0.43443,-0.0395 0.47393,-0.0395 0.29619,0.0987 0.98733,0.0395 1.1453,0.43443 v 1.12556 c 0.31595,0.0197 0.23697,-0.0987 0.35545,-0.37518 0.0395,-0.0987 0.079,-0.0987 0.11848,-0.25671 0.11848,-0.49367 -0.27646,-0.77013 -0.65165,-1.04658 -0.0987,-0.079 0,-0.0592 -0.21721,-0.11848 -0.27646,-0.079 -0.53316,-0.11848 -0.78987,-0.23696 -0.43443,-0.21722 -0.82936,0.21721 -1.02683,0.55291 0,0.0197 -0.0197,0.0197 -0.0197,0.0395 0,0.0197 -0.0197,0.0197 -0.0197,0.0395 -0.65165,1.02684 -0.73063,0.17772 -1.28354,-0.23696 -0.23696,-0.17772 -0.13823,-0.0987 -0.2962,-0.33569 -0.0987,-0.15798 -0.21722,-0.17772 -0.37519,-0.31595 l -1.18481,-0.78987 c -0.25671,-0.13823 -0.19747,-0.17772 -0.37519,-0.31595 -0.98734,-0.67139 -0.92809,-0.2962 -1.00708,-1.65873 -0.0198,-0.39493 -0.37519,-0.53316 -0.27646,-1.02683 0.0395,-0.2567 0,-0.39493 -0.079,-0.61215 -0.25671,-0.67139 0.27645,-0.35544 0.69113,-0.19747 0.3357,0.13823 0.84911,0.23697 1.16506,0.39494 0.37519,0.17772 0.84912,0.23696 1.18481,0.43443 l 0.33569,0.15797 c 1.2243,0.39494 0.90836,0.41469 1.46126,0.69114 0.27646,0.13823 0.23696,0.19747 0.47393,0.27645 l 0.41468,0.15798 c 0.43442,0.0987 0.27645,0.19747 0.21721,0.77012 l 0.37519,-0.0987 c 0.0987,-0.0592 0,0 0.0987,-0.0592 0.0198,-0.35544 -0.0395,-0.75038 -0.37519,-0.84911 l -0.45417,-0.11848 c -0.31595,-0.11848 -0.11848,0.0197 -0.19747,-0.13823 0.23696,-0.13823 0.90835,-0.27645 1.24405,-0.15797 0.25671,0.0987 0.69113,0.51341 0.69113,0.78986 -0.11848,0.079 -0.21721,0.13823 -0.33569,0.21722 -0.21721,0.15797 -0.27646,0.0395 -0.27646,0.33569 0.31595,-0.0197 0.37519,-0.15797 0.65165,-0.27645 0.0197,0 0.0197,-0.0197 0.0395,-0.0197 0.15798,-0.079 0.0198,-0.0197 0.11848,-0.0987 l 0.23696,-0.17772 c 0.13823,-0.13823 -0.43443,-0.71089 -0.57265,-0.80962 -0.86886,-0.63189 -1.65873,0.19747 -2.36962,-0.079 -0.35544,-0.13823 -0.41468,-0.3357 -1.44151,-0.65165 l -0.45417,-0.19747 c -0.3357,-0.19746 -0.69114,-0.19746 -1.04658,-0.33569 -0.15797,-0.0592 -0.37519,-0.0987 -0.55291,-0.15798 l -0.49367,-0.17772 c -0.39493,-0.13822 -0.69113,-0.23696 -1.04658,-0.35544 l -0.21721,-0.80962 c -0.0987,-0.43442 -0.27646,-1.16505 -0.0987,-1.57973 0.23696,0.079 0.13823,0.13822 0.19747,0.31594 0.0987,0.25671 0.3357,0.43443 0.37519,0.71089 0.0198,0.17772 -0.0198,0.37519 0,0.57265 0.23696,0.11848 0.13823,-0.0395 0.27646,0.17772 0.11848,0.17773 0.21721,0.57266 0.39493,0.65165 0.19747,0.0987 0.25671,-0.0198 0.27646,-0.19747 l -1.18481,-2.86328 c -0.079,-0.27646 -0.079,-0.55291 -0.17772,-0.78987 -0.17772,-0.43443 -0.19747,-0.21721 -0.0592,-0.80962 0.71088,-0.11848 1.00708,-0.47392 1.16506,-0.63189 0.19746,-0.23696 0.37519,-0.31595 0.61215,-0.55291 0.11848,-0.11848 0.0592,-0.0592 0.19746,-0.13823 l 0.53317,-0.61215 c 0.23696,-0.37519 0.21721,-0.6319 0.51341,-0.94784 0.35544,-0.0197 0.88861,-0.0987 1.18481,-0.0592 0.63189,0.0987 0.61215,-0.23697 1.04657,-0.17772 l -0.0197,0.33569 c -0.17772,-0.0395 -0.35544,0.47392 -0.25671,0.84911 l 0.15797,0.49367 c 0.0592,0.11848 0.13823,0.35544 0.17773,0.45417 0.13822,0.51342 0.0197,0.45418 0.37518,0.84912 0.21722,0.2567 0.35544,0.57265 0.77013,0.51341 -0.13823,-0.9281 -0.11848,-1.32303 0.31595,-2.07341 0.2567,-0.41468 0.2567,-0.31595 0.73063,-0.49367 0.2567,-0.0987 0.65164,-0.2962 0.96758,-0.27645 0.21722,0.41468 0.0987,0.73063 0.0592,1.2243 -0.0198,0.39493 -0.079,0.8886 -0.11848,1.28354 -0.079,0.80961 -0.0592,1.00708 -0.61215,1.481 -0.15798,0.13823 -0.21722,0.23696 -0.39494,0.35544 -0.45417,0.3357 -0.25671,0.31595 -0.73063,0.6319 -0.35544,0.23696 -0.47392,0.37519 -0.90835,0.47392 -0.35544,0.079 -0.5924,0.0592 -0.8886,0.15798 -0.3357,0.11848 -0.2962,0.2567 -0.78987,0.0395 -0.2962,-0.11848 -0.19747,-0.13823 -0.6319,-0.13823 0.079,0.2962 0.65164,0.73063 0.86886,0.90835 0.13822,0.11848 0.19747,0.21722 0.37519,0.27646 l 0.37518,0.0987 c 0.0592,0.0197 0.13823,0.0197 0.19747,0.0197 0.15798,0.0197 0.31595,0.0197 0.45418,0.0197 0.71088,0 1.95493,-0.11848 2.62632,0.0197 0.41468,0.079 0.2567,0.19747 0.71088,0.17772 0.98734,-0.0197 0.73063,-0.0987 1.42177,-0.35544 0.43442,-0.15797 0.41468,-0.43443 0.75037,-0.55291 0.51342,-0.19746 1.42177,-0.80961 1.97468,-1.12556 0,0 0.13822,-0.0987 0.13822,-0.0987 0.079,-0.079 0.0592,-0.11848 0.17773,-0.15797 l 0.0987,-0.0197 c 0.65164,-0.11848 1.02683,0.3357 1.55999,0.43443 0.43443,0.079 1.63898,-0.5924 1.8167,-0.78987 0.23697,-0.25671 0.78987,-0.63189 1.10582,-0.67139 l 0.75038,-0.17772 c 0.69113,-0.25671 0.57266,-0.25671 1.06632,-0.73063 1.08608,-1.06632 0.67139,-1.14531 0.94785,-1.71797 0.13823,-0.31594 0.17772,-0.11848 0.13823,-0.78987 -0.0198,-0.19747 -0.079,-0.55291 -0.11849,-0.75037 -0.0592,-0.25671 -0.19746,-0.43443 -0.23696,-0.69114 0.0987,-0.2962 0.3357,-0.5924 0.19747,-1.06633 -0.0987,-0.33569 -0.27646,-0.61214 -0.25671,-1.12556 0.31595,0.0197 0.13823,0.0395 0.3357,0.17772 0.079,0.0592 0.27645,0.13823 0.37519,0.21721 l 0.45417,0.3357 c 0.78987,0.5924 0.75038,0.69114 0.75038,1.67847 0,1.08608 0.17772,4.04809 0.53316,4.97619 0.23696,0.61215 -0.37519,0.92809 -0.71088,1.32303 -0.17772,0.21721 -0.37519,0.35544 -0.47392,0.63189 -0.11849,0.3357 -0.17773,0.45418 -0.39494,0.69114 -0.41468,0.43443 -0.31595,0.45418 -0.84911,0.77012 -0.079,0.0395 -0.0987,0.0593 -0.17772,0.11848 -0.39494,0.27646 -0.67139,0.0197 -1.16506,0.27646 v 0.51342 c 0.3357,-0.0197 0.19747,-0.13823 0.41468,-0.19747 0.31595,-0.0987 0.73063,-0.0197 1.00709,-0.25671 0.0987,-0.079 0.0987,-0.0987 0.19746,-0.15798 0.21722,-0.13822 0.27646,-0.31594 0.49367,-0.47392 0.13823,-0.0987 0.21722,-0.15797 0.31595,-0.2962 0.65165,-0.8886 0.27646,-0.5924 1.06633,-1.1848 l 0.27645,-0.17772 c 0.19747,-0.19747 0.41468,-0.43443 0.53317,-0.69114 0.15797,-0.37519 0.23695,-0.6319 0.11847,-1.12557 l -0.23696,-2.34986 c 0,-0.21721 -0.079,-0.35544 -0.0987,-0.53316 l -0.13823,-1.89569 c 0.0197,-0.2962 0.0987,-0.51342 -0.0592,-0.80962 l -0.13822,-0.19746 c -0.19747,-0.27646 -0.15798,-0.45418 -0.45418,-0.80962 -0.17772,-0.19747 -0.079,-0.17772 -0.31595,-0.3357 -0.0987,-0.0592 -0.11848,-0.079 -0.19747,-0.13822 l -0.98733,-0.71089 c -0.55291,-0.39493 -0.53317,-0.51341 -0.53317,-1.16505 0,-0.80962 -0.21721,-1.2638 -0.21721,-2.01417 -0.0592,-0.11849 -0.13823,-0.21722 -0.23696,-0.31595 l -0.11848,-0.0987 c -0.0198,0 -0.0198,-0.0197 -0.0395,-0.0197 -0.2962,-0.23697 -0.71088,-0.25671 -0.98733,-0.47392 -0.31595,-0.23697 -0.13823,-0.43443 -0.27646,-0.84911 l -0.37519,-0.78988 -0.80961,-0.92809 c -0.55291,-0.71089 -0.51342,-0.61215 -1.2243,-1.06633 -0.11848,-0.079 -0.079,-0.0592 -0.13823,-0.15797 -0.0987,-0.17772 -0.0987,-0.15798 -0.33569,-0.21722 -0.13823,-0.0395 -0.0592,0 -0.19747,-0.0592 -0.27646,-0.0987 -0.98734,-0.13823 -1.32303,-0.23696 -0.0987,-0.47392 -0.21722,-0.90835 -0.13823,-1.44151 l 0.23696,-1.26379 c 0.0395,-0.15798 0.079,-0.23696 0.19747,-0.31595 l 0.51341,-0.31595 c 0.0197,-0.0197 0.0987,-0.0395 0.11848,-0.0395 0.0198,0 0.0198,-0.0197 0.0395,-0.0197 l 0.0593,-0.0395 c 0,0 0.0197,-0.0197 0.0395,-0.0197 0.23696,-0.17772 0.31595,-0.0987 0.5924,-0.23696 0.3357,-0.15797 0.75038,-0.35544 1.04658,-0.55291 0.37519,-0.27645 1.02683,-0.78987 1.50075,-0.5924 l 0.9281,0.43443 c 0.15797,0.0592 0.13823,0.0592 0.27646,0.13822 0.47392,0.2962 0.92809,0.0987 1.22429,0.41469 0.0987,0.23696 -0.0592,1.30328 -0.11847,1.50075 -0.0592,0.23696 -0.27646,0.75038 -0.27646,0.9281 0.61215,0 0.82937,-0.65164 1.02683,-1.10582 0.27646,-0.65165 0.15797,-1.04658 -0.079,-1.73772 -0.2962,-0.0395 -0.41468,-0.13822 -0.71088,-0.19746 -0.43443,-0.0987 -0.45417,-0.0987 -0.73063,-0.27646 -0.0987,-0.0592 -0.17772,-0.0987 -0.2962,-0.17772 -0.0987,-0.0592 -0.23696,-0.11848 -0.3357,-0.17772 -0.2962,-0.11848 -0.57265,-0.17772 -0.82936,-0.3357 -0.41468,-0.23696 -0.8886,0.13823 -1.54025,0.43443 l -0.33569,0.17772 c -0.21721,0.0987 -0.39494,0.25671 -0.6319,0.3357 -1.00708,0.31595 -0.61215,0.27646 -1.30328,0.5924 -0.0987,0.0395 -0.53316,0.2962 -0.61215,0.35544 -0.23696,0.15798 -0.41468,0.98734 -0.57266,1.34278 l -0.15797,0.35544 c -0.17772,0.39494 -0.0198,1.40202 -0.2962,2.17215 l -0.5924,0.15797 c -0.45418,0.15798 -0.82937,0.49367 -1.20456,0.77012 -0.67139,0.47393 -0.73063,0.27646 -1.57974,0.23697 -0.5924,-0.0197 -0.92809,0.15797 -1.50075,0.0987 -0.0987,-0.15797 -0.0395,-0.13823 -0.25671,-0.17772 -0.0592,-0.41468 -0.2962,-0.55291 -0.55291,-0.77012 -0.13823,-0.11848 -0.23696,-0.15798 -0.35544,-0.27646 -0.37519,-0.31595 -0.69114,-0.67139 -1.14531,-0.86886 -0.2962,-0.13822 -0.75038,-0.19746 -1.08607,-0.23696 l -1.2243,-0.0197 c -0.37519,0.0395 -0.65165,0.23696 -1.02683,0.27645 -0.71089,0.0592 -0.71089,0.0197 -1.32303,0.37519 -0.21722,0.13823 -0.49367,0.25671 -0.75038,0.27645 0.0197,-0.21721 0.17772,-0.31594 0.31594,-0.47392 l 0.59241,-0.61215 c 0.27645,-0.21721 0.45417,-0.75038 0.75038,-1.04657 0.11848,-0.11848 0.11848,-0.15798 0.17772,-0.27646 0.11848,-0.23696 0.15797,-0.13823 0.2567,-0.39493 0.0395,-0.11848 0,-0.0395 0.0592,-0.15798 0.079,-0.15797 0.61215,-0.57266 0.77013,-0.78987 0,-0.0197 0.0197,-0.0197 0.0197,-0.0395 0.11848,-0.15798 0.13823,-0.13823 0.29621,-0.23696 0.15797,-0.11849 0.45417,-0.51342 0.63189,-0.67139 l 1.26379,-1.34278 c 0.13823,-0.15798 0.23696,-0.27646 0.41468,-0.45418 0.23697,-0.19747 0.21722,-0.27645 0.39494,-0.47392 0.079,-0.0987 0.0987,-0.0987 0.19747,-0.21722 0.31595,-0.41468 0.65164,-0.78986 0.90835,-1.22429 0.15797,-0.27646 0.43443,-0.37519 0.5924,-0.67139 0.0592,-0.11848 0.0592,-0.19747 0.13823,-0.31595 0.13823,-0.19747 0.23696,-0.23696 0.37519,-0.49367 l 0.21721,-0.31595 c 0,0 0.0198,-0.0197 0.0198,-0.0395 0,0 0.0198,-0.0197 0.0198,-0.0395 0,0 0.079,-0.11849 0.0987,-0.13823 l 0.69114,-1.04658 c 0.43442,-0.5924 0.71088,-1.28354 1.1848,-1.83645 l 0.51342,-0.80962 c 0.11848,-0.17772 0.19746,-0.35544 0.27645,-0.57265 l 0.51342,-1.2243 c 0.079,-0.19747 0.0395,-0.0987 0.13822,-0.25671 0.0592,-0.0987 0.0197,0 0.079,-0.0987 0.0395,-0.079 0.0395,-0.079 0.0592,-0.17772 0.11848,-0.27646 0.33569,-0.53317 0.43443,-0.82937 0.0987,-0.31594 -0.0197,-0.0592 0.13823,-0.31594 l 1.20455,-2.25114 c 0.0197,-0.0395 0.0592,-0.11847 0.0592,-0.11847 l 1.08607,-2.19189 c 0.0987,-0.17773 0.13823,-0.41469 0.25671,-0.61215 0.0198,-0.0197 0.0592,-0.0987 0.0592,-0.11848 l 0.37519,-1.06633 c 0,-0.0198 0.0197,-0.0198 0.0197,-0.0395 l 0.65165,-2.33012 c 0.0395,-0.079 0.11848,-0.23696 0.13822,-0.31595 l 0.61215,-1.99442 c 0.0395,-0.11848 0.079,-0.15797 0.13823,-0.27645 0.0197,-0.0395 0.0395,-0.11849 0.0592,-0.15798 0,-0.0198 0.0197,-0.0592 0.0395,-0.079 l 0.0197,-0.0987 c 0.13823,-0.7108799 0.5924,-1.9154297 0.67139,-2.3301197 0.0198,-0.17772 0.0395,-0.27645 0.0987,-0.39493 0.31595,-0.73063 0.78988,-4.22581 0.6319,-4.52201 -0.19747,-0.17772 -0.33569,-0.31595 -0.61215,-0.35544 -0.19747,0.0197 -1.75746,1.40202 -2.13265,1.73771 l -2.90277,3.13974 c -0.079,0.0592 -0.25671,0.27645 -0.3357,0.35544 -0.31594,0.35544 -0.27645,0.23696 -0.65164,0.80962 L 77.964,9.1549341 c -0.0395,0.0592 0,-0.0198 -0.0592,0.11848 -0.0987,0.23696 -0.21721,0.2567 -0.39494,0.51341 -0.31595,0.4739199 -0.8886,1.2835399 -1.08607,1.7969599 -0.13823,0.35544 -0.39493,0.65164 -0.63189,0.94784 -0.37519,0.45418 -0.59241,0.94785 -0.90835,1.40202 l -0.55292,0.8886 c -0.079,0.11849 -0.0395,0.13823 -0.23695,0.13823 z"
   id="path1"
   style="stroke-width:0.0197467;fill:#ffffff;fill-opacity:1" />
 </g>
</svg>
