<?xml version="1.0" encoding="UTF-8" standalone="no"?>
<!-- Creator: CorelDRAW X6 -->

<svg
   xml:space="preserve"
   width="1"
   height="1"
   version="1.1"
   style="clip-rule:evenodd;fill-rule:evenodd;image-rendering:optimizeQuality;shape-rendering:geometricPrecision;text-rendering:geometricPrecision"
   viewBox="0 0 100 100"
   id="svg1"
   xmlns="http://www.w3.org/2000/svg"
   xmlns:svg="http://www.w3.org/2000/svg">
 <defs
   id="defs1">
  <style
   type="text/css"
   id="style1">
   <![CDATA[
    .fil0 {fill:black}
   ]]>
  </style>
 <style
   type="text/css"
   id="style1-3">
   <![CDATA[
    .fil0 {fill:black}
   ]]>
  </style></defs>
 <g
   id="Layer_x0020_1">
  <metadata
   id="CorelCorpID_0Corel-Layer" />
  <path
   class="fil0"
   d="m 44.479161,56.32601 c 0.22703,0.150784 0.273687,0.232115 0.256621,0.447278 -0.01693,0.290766 -0.05174,0.343159 -0.248918,0.640057 -0.151435,-0.15092 -0.127987,-0.03466 -0.152095,-0.528876 -0.012,-0.209305 -0.04133,-0.354622 0.155994,-0.575926 z M 29.953408,86.041195 c 0.121764,-0.221142 0.145099,-0.180474 -0.05879,-0.366225 -0.09266,0.215314 -0.11008,0.203743 0.05879,0.366225 z M 5.1298284,69.000793 c 0.227036,0.150787 0.26181,0.09843 0.412622,-0.128643 -0.227038,-0.150788 -0.261869,-0.09835 -0.412622,0.128643 z m 0.664376,-2.47822 c 0.09853,-0.186246 0.214781,-0.209708 0.383031,-0.425136 -0.139557,-0.01723 -0.209416,-0.06363 -0.331295,0.08198 -0.307572,0.349419 -0.07505,0.302495 -0.05174,0.343156 z M 20.148865,38.732345 c 0.122512,0.232374 0.459964,0.330597 0.680951,0.376805 -0.04665,-0.08133 0.110528,0.02306 -0.122405,-0.156747 -0.198,-0.156612 -0.401678,-0.266777 -0.558593,-0.219986 z M 4.9392024,56.365767 c 0.180381,0.06946 0.13382,0.06377 0.331435,-0.0064 0.197574,-0.07012 0.267299,-0.09931 0.412351,-0.279818 -0.290905,-0.09252 -0.540737,0.01839 -0.743786,0.286216 z M 18.359716,39.758853 c 0.07585,0.151062 0.07585,0.151062 0.523667,0.196789 0.540868,0.0572 0.343296,0.127315 0.523275,-0.02999 -0.15171,-0.302097 -0.81443,-0.213723 -1.035342,-0.184264 z m 12.531711,40.663696 c -0.342201,0.477438 -0.301439,0.52967 -0.179057,0.686454 0.139462,-0.05838 -0.06378,0.133823 0.145146,-0.104939 l 0.382772,-0.576329 c -0.366597,-0.168025 0.0057,-0.0465 -0.360497,0.01225 z M 4.6950474,63.099669 c -0.07505,0.302495 -0.121591,0.29676 -0.03388,0.581529 0.0696,-0.10479 0.179852,-0.232895 0.231984,-0.349291 0.0405,-0.09889 0.0405,-0.09889 0.04627,-0.145449 0.161725,-0.62245 0.208384,-0.541129 0.09173,-0.744437 -0.150789,0.227038 -0.284242,0.390074 -0.336117,0.657647 z m 26.4307056,18.33428 c 0.145446,0.04626 0.145607,0.121813 0.412746,-0.05304 0.331034,-0.233162 0.656202,-0.495392 0.928839,-0.868013 -0.232772,-0.104248 -0.186208,-0.09856 -0.418481,0.09958 -0.272877,0.221456 -0.679532,0.454737 -0.905646,0.833073 z M 47.743849,54.517807 48.09314,54.74979 c -0.03466,0.127988 -0.03466,0.127988 -0.0287,0.232621 0.0063,0.255834 0.0177,0.162761 -0.312897,0.622724 0.232772,0.104249 0.244344,0.08683 0.476997,0.115462 0.435267,-0.465961 0.259472,-1.262245 0.386931,-1.529937 0.01157,-0.01742 -0.0058,-0.029 0.0057,-0.0465 -0.34913,-0.156424 -0.784578,0.233951 -0.877374,0.373671 z M 65.111482,43.980395 c -0.389156,0.244892 0.03573,0.476747 -0.550361,1.169713 -0.477269,-0.266637 -0.669534,-0.469782 -0.988549,-0.02735 l 0.292217,0.848434 0.437003,0.516748 c 0.01751,0.01163 0.337295,0.02268 0.488212,-0.128771 l 0.516456,-0.588205 c 0.06946,-0.18038 0.03453,-0.203582 -6.53e-4,-0.37795 0,0 0.428889,-0.797369 0.04428,-1.279314 l -0.07572,-0.0754 c -0.198,-0.156611 -0.06987,-0.04641 -0.145454,-0.04626 z m 1.68438,15.61538 c 0.02304,-0.110493 -0.01189,-0.133696 0.05772,-0.238517 0.144961,-0.256068 1.09788,-0.629897 1.376649,-0.822266 0.383304,-0.273963 0.824329,-0.786418 1.550648,-1.084234 0.331975,0.295936 0.134643,0.517272 -0.224798,1.134255 -0.133278,0.238668 -0.07509,0.302481 -0.313041,0.547138 -0.150925,0.151443 -0.290364,0.209828 -0.476345,0.262487 -0.197581,0.07012 -0.290637,0.05865 -0.476617,0.111313 -0.447549,0.105448 -1.069077,0.472847 -1.494219,0.08982 z M 52.667831,47.217587 c 0.179895,-0.232866 0.296236,-0.180769 0.545678,-0.518465 0.06958,-0.104779 0.09279,-0.139711 0.179807,-0.232925 0.244505,0.16239 0.268748,0.732186 -0.237052,0.773773 -0.191845,0.02359 -0.284779,0.08772 -0.488478,-0.02241 z m -1.784067,0.602022 c -0.343547,-0.278512 -0.232933,-0.179812 -0.396212,-0.464484 0.208644,-0.389951 0.127455,-0.267707 0.109889,-0.354864 -0.197696,-0.0055 -0.05246,-0.110421 -0.238239,0.09344 -0.05229,0.04073 -0.162389,0.244506 -0.208781,0.314357 -0.09291,0.06408 -1.011355,0.234355 -1.098417,0.32754 -0.203146,0.192263 0.07612,0.302228 0.204237,0.412485 0.238762,0.208919 0.146109,0.424224 -0.09721,0.942151 -0.226019,0.453915 -0.47503,1.018406 -0.770872,1.425947 -0.12251,-0.232372 -0.02972,-0.372083 0.02761,-0.837365 l 0.30546,-1.558874 c 0.115597,-0.401418 0.09773,-0.63979 0.393577,-1.047331 0.162761,-0.0177 0.279037,-0.04118 0.435948,-0.08798 0.395157,-0.140244 0.482218,-0.233428 0.883506,-0.19342 0.244231,0.0112 0.203439,-0.04107 0.465008,-0.09386 0.145267,-0.02931 0.279035,-0.04118 0.424347,-0.07051 0.029,-0.0058 0.203447,-0.04106 0.203447,-0.04106 0.429953,-0.192635 -0.151282,-0.07537 0.714861,-0.204763 0.354617,-0.04132 0.08158,0.104525 0.441678,-0.134505 l 0.174645,0.115991 c -0.179669,0.308521 -0.220519,0.25623 -0.447025,0.407808 -0.191683,0.09921 -0.179944,0.15733 -0.348364,0.297155 l -1.155749,0.792813 z m -3.764925,1.727715 0.302785,0.226203 c -0.220245,0.407418 -0.359845,0.390206 -0.585912,0.768585 0.302784,0.226205 0.180626,0.220652 0.02998,0.523276 -0.06368,0.133883 -0.06391,0.05823 -0.05203,0.191951 -0.0171,0.215154 0.01758,0.08713 0.0352,0.174379 0.564058,0.02228 0.295886,-0.407511 0.697784,0.0104 -0.0344,0.279165 -0.09857,0.186217 -0.290114,0.361015 l 0.233167,0.331024 c 0.09905,0.116124 0.110775,0.17426 0.209831,0.290381 -0.214416,0.436448 -0.190662,0.703906 -0.538631,1.227833 -0.284642,0.163311 -0.470745,0.140372 -0.685399,0.425669 l 0.471383,0.237619 c -0.260952,0.430713 -0.126926,0.570059 -0.382105,0.954275 -0.192112,-0.127592 -0.256228,-0.22052 -0.337947,-0.400627 l -0.239162,-0.435682 c -0.110784,-0.174266 -0.139986,-0.24398 -0.221704,-0.424087 -0.02916,-0.06971 -0.05838,-0.139463 -0.08174,-0.180088 l -0.309289,-0.633245 c -0.303682,-0.755387 -0.366749,-0.243578 0.131088,-1.523691 0.179482,-0.45965 0.649264,-1.129184 1.072056,-2.106781 0.440104,-1.041603 0.651383,0.08026 1.590641,-1.485519 -0.192112,-0.127592 -0.163073,-0.133415 -0.343302,-0.127317 l -1.005478,0.263404 c -0.261095,0.355128 -0.156478,0.273603 -0.441039,0.512458 -0.121626,0.296738 -0.09813,0.413019 -0.301045,0.756444 -0.266636,0.477268 -1.042994,2.100922 -1.222845,2.333817 -0.459962,-0.330594 -0.355025,-0.185447 -0.442999,-0.621404 0.325042,-0.337803 0.581268,-0.117298 0.737134,-0.768813 0.01157,-0.01742 0.0057,-0.04657 0.0057,-0.04657 l -3.95e-4,-0.226772 c 0,0 -0.0059,-0.02906 0.0057,-0.04657 0.01133,-0.168657 1.123656,-2.525542 1.303241,-2.909621 0.341879,-0.704164 0.479855,-1.594069 0.781426,-2.048137 0.208787,-0.314365 0.266506,-0.552872 0.423205,-0.750812 l 1.273707,0.16641 c 0.01742,0.01157 0.029,-0.0058 0.0465,0.0057 0.930557,0.114669 0.872823,0.35318 1.593937,0.404251 0.07556,-1.62e-4 0.139559,0.01724 0.232621,0.0287 l 0.267546,0.0519 c 0.319833,0.01106 0.232507,-0.04693 0.482741,0.06894 -0.208919,0.238762 -0.255574,0.157444 -0.662326,0.315147 -0.168486,0.06427 -0.528615,0.303287 -0.679655,0.379139 -1.103621,0.676427 -1.179217,0.676564 -1.718105,1.75322 -0.121764,0.221142 -0.01577,0.971084 -0.706886,1.443272 -0.319431,0.215708 -0.482209,0.233433 -0.603807,0.530203 z m -4.914242,-10.486999 0.343395,0.202959 c -0.13905,0.285165 -0.202822,0.41899 -0.161599,0.698049 l 0.007,0.709385 c 0.0351,0.09876 0.01173,0.05814 0.07001,0.12195 0.0058,0.029 0.08747,0.133547 0.104938,0.145148 0.174913,0.267175 0.33772,0.249406 0.489268,0.475956 -0.115339,0.552595 -0.876025,1.129599 -1.328942,1.50832 -0.127726,0.11651 0.04072,-0.0233 -0.104525,0.08158 -0.516877,0.361415 -0.928839,0.868012 -1.445716,1.229428 -0.145147,0.104939 -0.359965,0.314622 -0.505156,0.41953 -0.18586,0.128242 -0.366088,0.134378 -0.616319,0.01853 -0.15092,0.151435 -0.22078,0.105034 -0.401023,0.111175 -0.691919,0.01863 -0.354368,0.192492 -1.378236,-0.08483 0.140638,0.621928 0.814701,0.36491 0.827343,0.952173 -0.0056,0.122065 -1.213209,1.182498 -1.37573,1.351399 -0.214747,0.209732 -0.156429,0.349139 -0.336236,0.582064 -0.41849,0.09958 -0.534611,0.198631 -0.981765,0.530849 -0.290371,0.209837 -0.656467,0.344208 -1.005088,0.490186 -0.278908,0.116775 -0.447292,0.256623 -0.71459,0.355937 -0.366103,0.13438 -1.010833,0.536716 -1.254539,0.827877 -0.500208,-0.08053 -0.982554,0.0773 -1.471032,0.05489 -0.994407,-0.05642 -0.331663,-0.144824 -1.139589,0.0485 -1.313588,0.310468 1.414604,0.939517 1.700024,1.229767 -0.03453,0.203583 -0.17962,0.384056 -0.336237,0.582064 l -0.127586,0.192104 c -0.632448,0.76285 -0.852988,1.019053 -1.823675,1.230074 -0.145267,0.02931 -0.540482,0.169571 -0.540482,0.169571 -0.238367,0.01786 -1.081605,-0.03883 -0.987888,0.350604 0.01173,0.05814 0.02346,0.116273 0.215466,0.168211 0.308368,0.104111 0.65712,0.03374 0.942409,0.248389 -0.19127,0.325987 -0.06368,0.133883 -0.261139,0.279584 l -0.690996,0.547798 c -0.15092,0.151434 -0.13336,0.238601 -0.319131,0.366902 -0.325305,0.186635 -0.575274,0.221955 -0.889107,0.315534 l -0.552068,0.187036 c -0.226643,0.07599 -0.499813,0.146238 -0.714855,0.204755 l -0.732185,0.268748 c -0.447291,0.256637 -0.894965,0.286484 -1.249331,0.47899 -0.15105,0.07585 -0.0697,0.02916 -0.191581,0.174774 l 0.03509,0.09876 c 0.192899,0.581134 1.030659,0.835523 1.50208,1.073066 1.6e-4,0.07556 0.0352,0.174385 0.0063,0.25584 -0.09829,0.337406 -0.51618,0.739393 -0.678426,1.059485 -0.121765,0.221143 -0.185311,0.43062 -0.376944,0.605358 -0.139326,0.133977 -0.319568,0.140115 -0.540202,0.320753 l -1.051358,0.635634 c -0.27304,0.145843 -0.237894,0.320193 -0.534215,0.425402 -0.28477,0.08772 -0.360488,0.01226 -0.517014,0.285822 l 0.2678,0.203096 1.865923,-0.346319 c 0.325562,-0.03546 0.517143,-0.210232 0.854566,-0.111965 0.128505,0.337029 -0.06333,0.360625 -0.126674,0.721245 -0.02304,0.110493 -0.0228,0.261703 -0.03426,0.35476 l -0.05733,0.465273 c 0,0 0.0058,0.02899 0.0058,0.02899 0,0 0.0059,0.02906 -0.0057,0.04657 L 23.867,63.525592 c -0.207732,0.919092 -0.869533,1.536599 -1.420719,2.252744 -0.371308,0.483267 -0.829791,0.984127 -1.177597,1.583666 0.285327,0.21461 0.279431,0.185586 0.570063,0.126941 0,0 0.02914,-0.0058 0.04657,0.0057 l 0.412615,-0.128649 c 0.04072,-0.0233 0.226643,-0.07599 0.238238,-0.09344 0.116273,-0.02346 0,0 0.133696,-0.01189 0.651125,-0.07091 1.190546,-0.845207 1.509978,-1.0609 0.522749,-0.332356 0.562579,-0.809254 0.935245,-0.536587 -0.01133,0.168656 -0.06364,0.209419 -0.121497,0.37234 -0.06363,0.20941 -0.05785,0.162913 0.0064,0.331421 0.397124,0.993625 0.244891,0.389154 0.339658,1.383318 0.02373,0.267427 0.05318,0.488341 0.05945,0.744181 0.02477,0.872148 -0.237054,0.773758 -0.503174,1.553396 -0.156131,0.500331 -0.864286,1.187727 -0.939126,1.641385 0,0 -0.08106,0.197847 0.285165,0.13905 0.08713,-0.01758 0.220771,-0.105045 0.331162,-0.157573 0.703118,-0.262882 0.523267,-0.02998 1.289726,-0.653488 l 0.243973,-0.139977 c 0.01157,-0.01742 0.02908,-0.0058 0.04072,-0.0233 0,0 0.02899,-0.0058 0.04062,-0.02337 0.05229,-0.04073 0.214691,-0.285259 0.278512,-0.343547 0.192104,0.127586 0.168902,0.16252 0.192499,0.354359 0.02373,0.267441 0.111046,0.325433 0.158105,0.633529 0.02959,0.296494 -0.01173,-0.05814 0.02346,0.116272 0.105576,0.523138 -0.02774,0.761777 -0.172138,1.320235 -0.06932,0.255975 -0.06294,0.587397 -0.114807,0.854961 -0.167064,0.895759 -1.514522,1.787757 -1.698276,3.125462 -0.02292,0.186115 -0.104111,0.308359 -0.220102,0.483004 0.09315,0.0871 0.238763,0.208918 0.372493,0.197049 0.56393,-0.05331 1.132805,-0.606701 1.4761,-0.479374 1.61e-4,0.07556 -0.0516,0.418746 -0.04575,0.447808 4.04e-4,0.226778 0.08174,0.180087 0.04732,0.459279 l 0.285327,0.214609 c -0.0576,0.31409 0.04158,0.505808 0.140895,0.773106 0.01173,0.05814 0.07612,0.302238 0.09372,0.389427 0.05331,0.56393 0.02984,0.447672 0.926263,0.992699 0.622826,0.388545 1.000416,0.161068 1.489669,0.637027 0.203837,0.185723 0.0059,0.02905 0.128242,0.18586 0.157339,0.17995 0.687001,0.481384 0.919876,0.661284 -0.07537,0.151283 -0.03414,0.430343 0.01264,0.587255 l -0.776857,1.321296 c -0.296371,0.105183 -0.476746,0.03573 -0.813775,0.164229 -0.517938,-0.243303 0.06959,-0.10479 -0.407664,-0.37144 -0.342764,0.17504 -0.266636,0.477269 -0.714855,0.204755 0.01157,-0.01742 0.0057,-0.04657 0.0057,-0.04657 -0.05219,0.04079 -1.01e-4,-0.07565 -0.0059,-0.104641 -0.0061,-0.104705 0.01163,-0.01751 -0.04089,-0.127845 -0.279165,-0.0344 -0.226773,3.95e-4 -0.441426,0.285693 -0.285005,-0.06349 -0.2209,0.02945 -0.57019,-0.20253 0,0 0.09279,-0.139711 0.104387,-0.157178 l 0.05203,-0.191952 c -0.261707,-0.0228 -0.412495,0.204231 -0.615943,0.245289 -0.273169,0.07025 -0.319938,-0.08669 -0.436609,-0.289976 -0.01742,-0.01157 -0.02337,-0.04062 -0.04079,-0.05219 l -0.383426,0.198364 -0.279423,-0.185579 c -0.0061,-0.180219 0.05146,-0.494342 -0.04185,-0.656992 -0.255841,0.0063 -0.278776,0.19238 -0.447026,0.407808 -0.09307,-0.01147 -0.07556,1.6e-4 -0.156886,0.04681 l -0.314356,-0.208781 c 0.486762,-0.960271 0.150394,-0.453811 0.829782,-0.984134 l 0.22648,-0.151595 c 0,0 0.02899,-0.0058 0.02899,-0.0058 0.209176,-0.08758 0.319131,-0.366902 0.441034,-0.51245 0.145103,-0.180482 0.313566,-0.244763 0.418094,-0.326346 0.127731,-0.116518 0.574317,-0.751126 0.731016,-0.949067 -0.186369,-0.174122 -0.273535,-0.156562 -0.477006,-0.115468 -0.749778,0.181573 -0.04106,-0.203432 -0.825238,0.257291 l -0.377432,0.303021 c -0.313567,0.244763 -0.667931,0.43727 -1.016827,0.432059 l -0.889621,0.01318 c -0.34303,0.02386 -0.319828,-0.01107 -0.674587,-0.04535 -0.325685,-0.04014 -1.238516,0.008 -1.535278,-0.113623 -0.465545,-0.208506 -1.15786,-0.416641 -1.663796,-0.450649 L 18.93582,79.93166 c 0.156472,-0.273594 0.360225,-0.16343 0.575135,-0.29755 0.354358,-0.192499 0.482469,-0.08224 0.865773,-0.356204 0.267169,-0.174903 -0.145153,0.10495 0.07549,-0.07566 0.104524,-0.08158 0.203283,-0.11667 0.302094,-0.151707 l 0.319568,-0.140115 c 0.226479,-0.151595 0.05208,-0.116416 0.307838,-0.198236 0.383555,-0.122775 0.35422,-0.268093 0.592466,-0.361543 0.197574,-0.07012 0.139558,0.01723 0.319561,-0.140106 l 0.894317,-0.66443 c 0.17426,-0.110775 0.522606,-0.407942 0.615401,-0.547662 -0.134128,-0.214878 -0.175297,-0.493941 -0.506621,-0.411927 0,0 -0.02908,0.0058 -0.04072,0.0233 l -0.836967,0.199169 c -0.02908,0.0058 -0.116273,0.02346 -0.133697,0.01189 l -0.156884,0.04681 c 0,0 -0.02899,0.0058 -0.02899,0.0058 -0.337158,0.05292 -0.703518,0.03612 -1.069873,0.01931 -0.215153,-0.01709 -0.05235,-0.03477 -0.2733,-0.0053 -0.354632,0.04132 -0.81417,-0.06255 -1.209583,-0.07348 -0.122066,-0.0056 -0.110494,-0.02304 -0.215155,-0.0171 -0.02899,0.0058 -0.180227,0.0061 -0.209312,0.01199 -0.372089,0.02973 -0.622324,-0.08614 -0.925223,-0.387969 -0.01742,-0.01157 -0.03493,-0.0232 -0.03493,-0.0232 -0.01751,-0.01163 -0.0583,-0.06383 -0.07572,-0.0754 -0.02337,-0.04062 -0.07572,-0.0754 -0.09905,-0.116129 -0.623373,-0.690871 -1.408717,-0.910498 -2.008552,-1.409443 0.168162,-0.291002 0.418229,-0.250765 0.656596,-0.268619 0.238373,-0.01786 0.325434,-0.111047 0.534739,-0.123042 l 1.122008,-0.135693 c 0.151063,-0.07585 0.32529,-0.186633 0.540467,-0.169569 0.01751,0.01163 0.02908,-0.0058 0.0465,0.0057 0.5466,0.01068 0.569544,-0.175428 0.964958,-0.164494 l 0.610465,-0.04758 c 0.337157,-0.05291 0.447671,-0.02984 0.761376,-0.199016 l 0.546339,-0.140509 c 0.127844,-0.04089 0.07556,-1.62e-4 0.209177,-0.08759 -0.02915,-0.06971 -0.01758,-0.08713 -0.122405,-0.156748 -0.192104,-0.127586 -0.162913,-0.05785 -0.191952,-0.05203 -0.139559,-0.01723 -0.267546,-0.0519 -0.378084,-0.07492 -0.203591,-0.03453 -1.034812,0.118088 -1.383708,0.112877 l -1.837709,-0.11301 C 17.353741,72.991872 16.713167,72.440584 15.997255,72.040612 15.776113,71.918847 15.43866,71.820624 15.252414,71.7221 c -0.529662,-0.301434 -1.18717,-0.561955 -1.606553,-0.991548 -0.611647,-0.632739 -1.359774,-2.841027 -0.872477,-3.498942 0.302359,-5.23e-4 1.576333,0.317071 1.890427,0.37467 l 0.7911,0.17307 c 0.12215,0.0055 0.255836,-0.0063 0.389558,-0.01812 0.587264,-0.01265 0.739076,0.365066 1.53541,0.189215 0.290628,-0.05866 0.424215,-0.146115 0.714976,-0.129171 0.319833,0.01106 0.5642,0.09787 0.650729,-0.297688 -0.215693,-0.319433 -0.337558,-0.173846 -0.622723,-0.312897 -0.570331,-0.2781 -0.73334,-0.411599 -1.373278,-0.584898 -0.319941,-0.08669 -0.284904,0.01214 -0.640056,-0.248917 -0.419142,-0.278376 -0.855906,-0.643906 -1.344907,-0.968679 -0.489001,-0.324772 -1.280231,-0.573431 -1.595243,-1.160177 l -0.338217,-0.5518 c -0.163437,-0.36023 -0.129299,-0.790577 -0.385791,-1.162278 -0.08158,-0.104525 -0.110773,-0.174257 -0.134246,-0.290497 -0.07025,-0.273168 -0.105183,-0.296367 -0.146367,-0.575403 -0.02373,-0.267438 -0.264204,-1.459028 -0.159947,-1.691798 0.08692,-0.168779 0.174251,-0.11078 0.308102,-0.04706 0.576058,0.231585 1.105461,0.38184 1.65845,0.723951 0.430715,0.260954 1.844433,0.671295 2.210787,0.688101 0.517541,0.01654 0.878428,0.231056 1.37303,0.433714 0.331664,0.144824 1.354243,-0.333797 1.383308,-0.339665 0.389157,-0.24489 -0.117044,-0.43008 -0.431403,-0.638863 -0.448179,-0.272552 -2.142122,-1.322013 -2.31128,-1.635736 l -0.571906,-1.185197 c -0.16357,-0.435822 -0.298074,-0.87751 -0.525506,-1.25507 -0.338213,-0.55181 -0.700154,-1.37105 -0.643076,-1.987511 0.0172,-0.139582 -0.0057,0.04653 0.0056,-0.122088 0.0112,-0.244241 0.607964,-1.483814 0.910197,-1.559924 0.226771,-3.95e-4 0.366904,0.319133 0.524189,0.499149 0.180633,0.220657 0.506624,0.411929 0.786051,0.597512 0.547288,0.388592 1.239813,0.747975 1.74054,1.13088 0.302786,0.226204 0.244896,0.389159 0.600045,0.650205 0.425038,0.307399 1.111825,0.713315 1.658453,0.723954 l 0.749912,-0.105969 0.179719,-0.308499 c -0.18664,-0.325296 -0.431025,-0.412064 -0.669903,-0.696601 l -1.39798,-1.381469 c -0.110773,-0.174259 0,0 -0.05852,-0.215045 l -0.515227,-2.028434 0.0516,-0.418748 c 0.03453,-0.203576 -0.04656,-0.0057 0.04613,-0.221043 0.173588,-0.488737 0.313301,-0.395947 -0.140901,-0.773109 0.202392,-0.645785 0.985654,-1.635656 1.130314,-2.042931 0.208253,-0.61672 0.805405,-1.62952 1.410003,-1.706166 0.191953,0.05203 0.31515,0.662328 0.629639,0.946701 0.186368,0.174122 0.128141,0.110213 0.198233,0.307836 0,0 0.04681,0.156885 0.06427,0.168486 l 0.0292,0.06973 c 0.01747,0.0116 0.02919,0.06973 0.04666,0.08134 0.05254,0.11035 0.07599,0.226644 0.14011,0.319565 0.180903,0.371829 0.711222,1.051229 0.822143,1.301063 l 0.448862,0.65047 c 0.35541,0.412226 0.902939,0.952036 1.368473,1.16056 0.319172,-0.366886 -0.402199,-0.569147 -0.408728,-0.97616 0.0051,-0.424487 -0.0012,-0.680326 -0.147288,-1.104537 -0.06428,-0.168485 -0.07039,-0.348761 -0.175305,-0.493945 -0.151596,-0.22648 -0.514167,-1.423717 -0.462175,-1.615683 0.243455,-0.442347 0.312912,-0.622728 0.399445,-1.018275 0.08653,-0.395549 -0.04092,-0.127862 0.01668,-0.441945 l 0.06906,-0.407148 c -0.02398,-0.418619 0.823264,-1.39115 1.125107,-1.694044 0.249573,-0.262092 0.447155,-0.332218 0.627135,-0.489525 0.296108,-0.256357 0.34224,-0.4774 0.690866,-0.623375 0.250393,0.191408 0.110911,0.249841 0.09463,0.91856 l -0.01095,0.39542 c 0.01762,0.08716 0.0059,0.104663 3.96e-4,0.226773 l 0.05279,0.261569 c 0.152367,0.68005 0.02973,0.372086 0.34526,1.261193 0.105183,0.296367 0.105449,0.447549 0.262885,0.70312 l 0.11667,0.203283 c 0.01746,0.01161 0.0058,0.02911 0.02329,0.04071 l 0.345924,1.639138 c 0.0064,0.331428 0.06465,0.395293 0.326612,0.569278 0.179856,-0.232905 0.144788,-0.331687 0.202523,-0.570196 0.0692,-0.331557 0.109991,-0.279293 0.260651,-0.58192 0.02293,-0.186117 -0.186767,-0.400896 -0.07104,-0.726723 0.052,-0.191975 0.150783,-0.227029 0.196914,-0.448073 0.052,-0.191974 0.0984,-0.261834 0.156252,-0.424747 0.109867,-0.354892 0.0632,-0.436215 0.242787,-0.820294 0.382377,-0.803101 1.2411,-1.868688 1.891301,-2.468728 0.214782,-0.209708 0.446759,-0.55899 0.65581,-0.722174 0.481945,-0.384602 0.249307,-0.413276 0.446365,-0.785762 0.179979,-0.157307 0.139454,-0.05838 0.301965,-0.227296 l 0.615276,-0.623247 c 0.116114,-0.09905 0.01157,-0.01742 0.174251,-0.110782 L 34.10136,40.34804 c 0.04067,-0.02334 0.09879,-0.03507 0.168521,-0.06425 0.156912,-0.04679 0.377561,-0.227433 0.673928,-0.332611 0.127836,-0.0409 0.08133,-0.04667 0.215041,-0.05852 0.378635,0.377269 0.182084,1.052142 0.322455,1.522888 0.02931,0.145267 0.04666,0.08134 0.03533,0.249974 l 0.01799,0.313962 c 0.04145,0.430212 0.100363,0.872033 0.356866,1.243727 0.04079,0.05219 0.0583,0.06383 0.09905,0.116124 l 0.04667,0.08134 c 0.11667,0.203283 0.221566,0.348491 0.448605,0.49928 0.180081,-0.08174 0.377267,-0.378633 0.365667,-0.361166 l -0.129561,-0.941757 c 0.01157,-0.01742 -0.0059,-0.02905 0.0057,-0.04657 0.04575,-0.44781 0.168024,-0.366597 0.498895,-0.675371 0.139325,-0.133976 0.603423,-0.756954 0.731016,-0.949067 0.208781,-0.314356 0.214741,-0.209723 0.388862,-0.396092 0.725529,-0.75136 -0.100235,-0.796445 1.725413,-0.892659 0.180229,-0.0061 0.284903,-0.01211 0.494214,-0.02412 l 0.627794,-0.11157 c 0.127844,-0.04089 0.121951,-0.07001 0.232373,-0.12251 0,0 0.02908,-0.0058 0.04072,-0.0233 l 0.174385,-0.03521 c 0.05814,-0.01173 0.116272,-0.02346 0.133695,-0.01189 0.116272,-0.02346 0.430091,-0.117041 0.447421,-0.181036 z M 12.793799,29.040443 12.036437,28.210265 c -0.122406,-0.156748 -0.168905,-0.162524 -0.331978,-0.295936 -0.04092,-0.127862 -0.01188,-0.13369 -0.07599,-0.226636 l -0.55951,-0.749131 0.237577,-0.471397 c 0.273304,0.0053 0.546473,-0.06492 0.796311,-0.175828 0,0 0.0291,-0.0059 0.04067,-0.02334 l 0.319701,-0.06452 c 0.331427,-0.0064 0.668849,0.09187 0.994543,0.132008 0.04649,0.0057 0.238374,-0.01786 0.255839,-0.0063 0.418748,0.0516 0.70404,0.266254 1.058933,0.376111 0.500332,0.156132 0.988812,0.178533 1.588198,0.450783 0.517941,0.243306 0.61672,0.208261 1.070272,0.207464 0.360485,-0.01225 0.645647,0.126808 1.01214,0.219198 0.01746,0.0116 0.157026,0.02884 0.221045,0.04612 0.110529,0.02306 0.168656,0.01133 0.279168,0.03441 0.599129,0.12106 1.175581,0.579417 1.693643,0.898332 0.384216,0.255178 0.663382,0.289582 1.134917,0.602755 1.734861,1.177324 1.838831,0.793407 2.700185,1.239646 l 2.670597,0.943141 c 0.308368,0.104121 0.732712,0.03361 1.0528,0.195871 0.45392,0.226021 0.942545,0.323985 1.402088,0.427854 0.668986,0.167456 0.755912,-0.0013 1.34344,0.137207 l 1.337836,0.259333 c 0.471273,0.161992 1.064796,0.405177 1.553269,0.427585 l 3.821267,0.574816 c 0.465145,-0.01825 0.919219,0.28332 1.361296,0.37559 0.203583,0.03453 0.354873,0.109893 0.546856,0.16186 0.372332,0.121489 0.692183,0.132531 1.041208,0.213331 l 1.006273,0.19013 c 0.174493,0.04044 0.343158,0.05173 0.500216,0.08054 l 1.064533,0.253994 c 0.308367,0.104111 1.308762,0.265196 1.454348,0.387059 0.122244,0.08119 0.04079,0.05219 0.08747,0.133546 -0.191682,0.09921 -0.02898,0.08144 -0.2209,0.02945 -0.110494,-0.02304 -0.145446,-0.04626 -0.244412,-0.08675 L 43.52905,34.981893 c -0.273307,-0.0053 -0.441814,0.05891 -0.738452,0.01292 -0.45954,-0.103867 -0.506189,-0.185194 -0.971333,-0.166937 l -1.430498,-0.04402 c -0.174493,-0.04044 -0.319939,-0.08669 -0.506074,-0.109603 l -2.46583,-0.228303 c -0.412754,0.05305 -1.08161,-0.03882 -1.424632,-0.01497 -0.476746,0.03573 -0.953355,0.147028 -1.44196,0.04903 -0.738712,-0.138262 -1.831653,-0.0084 -2.395849,-0.106309 -0.09306,-0.01147 -0.11052,-0.02306 -0.232617,-0.0287 l -1.226918,-0.0094 c -0.215152,-0.01709 -0.290765,-0.01693 -0.488474,-0.02241 l -0.48261,0.0067 c -0.290766,-0.01693 -0.610458,0.04757 -0.907095,0.0016 -0.500199,-0.08054 -1.000277,-0.08549 -1.494614,-0.13696 l -2.448898,-0.519058 c -0.191952,-0.05203 -0.366596,-0.168025 -0.54113,-0.208388 l -0.762052,-0.17901 c -0.325836,-0.115717 0.02904,-0.0058 -0.250081,-0.04029 -0.692052,-0.05694 -2.123468,-0.630107 -3.042555,-0.837835 -0.616588,-0.132669 -1.42555,-0.544098 -1.792039,-0.636497 -0.221048,-0.04612 -0.15119,2.75e-4 -0.261701,-0.02281 -0.459541,-0.103866 -1.117452,-0.591155 -1.577126,-0.770615 -0.215307,-0.09266 -0.168512,0.06426 -0.511939,-0.138656 -0.413251,-0.249354 -0.331559,-0.0692 -1.082524,-0.567958 -0.436609,-0.289975 -0.709911,-0.295311 -1.094126,-0.550491 -0.419144,-0.278375 -0.768274,-0.4348 -1.100096,-0.655181 z M 7.4029434,18.664759 c -0.03532,-0.24997 -0.08185,-0.25571 -0.303153,-0.453021 l -0.733765,-0.638341 c -0.26212,-0.249541 -0.03493,-0.0232 -0.151596,-0.22648 -0.09331,-0.162661 -0.291155,-0.243716 -0.436872,-0.441157 -0.215698,-0.319435 -0.937994,-1.050834 -1.3106083,-1.323479 -0.2678572,-0.203007 -0.4306185,-0.18531 -0.2624977,-0.47634 0.2031814,-0.192241 1.669526,0.404123 2.001091,0.473314 0.477004,0.115467 1.006666,0.416913 1.489407,0.485847 0.901491,0.120538 1.722051,0.51451 2.5715436,0.827024 0.325833,0.115715 0.762034,0.178936 0.994808,0.28319 0.430618,0.18531 0.139714,0.09279 0.500337,0.156124 0.250084,0.04029 0.296739,0.121627 0.564441,0.24908 0.186215,0.09857 0.273441,0.08092 0.453811,0.150393 0.308367,0.104111 0.70991,0.295312 1.041468,0.364512 0.203583,0.03453 0.331559,0.0692 0.511934,0.138665 0.325832,0.115716 0.674981,0.272114 1.018272,0.399438 0.552725,0.190929 0.418989,0.20282 1.041463,0.36452 l 0.703915,0.190655 c 0.116417,0.05209 0.203738,0.110078 0.320095,0.162249 l 1.465955,0.369582 c 0.255976,0.06932 0.55287,0.266504 0.762298,0.330119 0.273439,0.08092 0.541394,0.359569 0.7971,0.277716 0.139714,0.09279 0.296893,0.197183 0.419143,0.278376 l 2.053739,0.659299 c 0.09896,0.04049 0.698312,0.312782 0.826293,0.347449 l 2.432226,0.961006 c 0.360857,0.214556 0.41301,0.09813 0.838022,0.40557 l -0.0692,0.331558 c 0.494739,0.278239 0.395422,0.01093 1.169714,0.55036 1.641645,1.090308 2.130803,1.490636 3.853484,2.383146 0.355023,0.185447 0.890524,0.515993 1.280369,0.649013 0.162916,0.05785 0.285166,0.13905 0.471381,0.237618 0.587892,0.365344 1.559398,0.607835 2.455814,1.152851 l 1.070907,0.585451 c 0.628716,0.417565 1.17569,0.655044 1.73455,1.026215 l 2.072516,1.426815 c 0.419142,0.278375 0.774006,0.388264 1.175689,0.655043 0.943079,0.626351 1.658721,0.875126 2.497013,1.431882 0.681106,0.45236 0.733764,0.63834 1.629918,1.032174 0.314204,0.133228 1.489806,0.712622 1.612451,1.020574 -0.436077,0.01239 -0.721503,-0.277853 -1.221976,-0.509569 l -1.890826,-0.601432 c -0.174485,-0.04043 -0.162762,0.0177 -0.302361,5.23e-4 -0.0465,-0.0057 -0.261812,-0.09843 -0.337406,-0.09829 -0.244231,-0.0112 0.25584,-0.0063 -0.133696,0.01189 l -0.430348,-0.03413 c -0.354762,-0.03428 -0.465405,-0.132935 -0.796962,-0.202133 -0.01751,-0.01164 -0.02908,0.0058 -0.0465,-0.0057 -0.01742,-0.01157 -0.02905,0.0059 -0.04657,-0.0057 l -1.041331,-0.28893 c -0.325835,-0.115716 -0.686189,-0.02787 -1.209721,-0.149071 -0.06399,-0.01726 -0.191952,-0.05203 -0.285013,-0.0635 -0.01751,-0.01164 -0.110494,-0.02304 -0.139559,-0.01724 -0.01751,-0.01163 -0.02908,0.0058 -0.0465,-0.0057 l -3.286663,-0.773451 c -0.418749,-0.05161 -0.796703,-0.05094 -1.221317,-0.131615 l -2.629141,-0.512933 c -0.07559,1.37e-4 -0.0291,0.0059 -0.127988,-0.03466 l -1.850164,-0.624771 c -0.01745,-0.01159 -0.06397,-0.01737 -0.09306,-0.01147 -0.413018,-0.09813 -0.785104,-0.06842 -1.215585,-0.178139 -0.145452,-0.04626 -0.197846,-0.08106 -0.354867,-0.109891 -0.395556,-0.08653 -0.825905,-0.120669 -1.215851,-0.329322 -0.541237,-0.284013 -1.361566,-0.526761 -1.943356,-0.711822 l -2.595264,-1.094461 c -0.960275,-0.486764 -1.117454,-0.591156 -2.072122,-1.200044 -0.506465,-0.336371 -0.896264,-0.469461 -1.344489,-0.741942 -0.547131,-0.313036 -0.70991,-0.295312 -1.25104,-0.5037 -1.640863,-0.636755 -2.683247,-1.530411 -3.981345,-2.342205 -1.298097,-0.811794 -2.747235,-1.547749 -3.929471,-2.609778 -0.2213,-0.197321 -0.267955,-0.278652 -0.500883,-0.458461 C 9.8020634,20.660916 8.4630474,19.721258 8.0550974,19.19866 7.8570014,18.966405 7.6940854,18.908547 7.4087634,18.693941 Z M 62.030116,44.22416 c 0.371689,-0.256491 0.273042,-0.145843 0.632739,-0.611648 0.05229,-0.04073 0.07572,0.0754 0.42409,-0.22169 0.650327,-0.524466 0.267161,-0.174909 0.644859,-0.326747 0.09876,-0.0351 0.145153,-0.104949 0.243973,-0.139977 0.325434,-0.111047 0.169063,0.238081 0.505676,-0.117185 0.232782,0.10426 0.459548,0.103877 0.779505,0.19054 0.401417,0.115596 1.082004,0.265586 1.303694,0.689676 l 0.380061,1.208803 c 0.01173,0.05814 0.0933,0.162658 0.110915,0.249831 0.233822,0.708988 0.21754,1.377703 0.0094,2.070024 -0.09252,0.2909 -0.549829,1.472079 -0.758748,1.71084 -0.174121,0.18637 -0.313309,0.39594 -0.446723,0.559015 -0.09871,0.110622 -0.267176,0.174911 -0.453021,0.30315 -0.313566,0.244762 -0.133552,0.08747 -0.429962,0.192629 -0.06971,0.02915 -0.906032,0.606307 -1.557947,0.223679 -0.756708,-0.452228 -0.937088,-0.521685 -1.333417,-1.061775 l -0.04666,-0.08134 c -0.431431,-0.638867 -0.612466,-1.086287 -0.666043,-1.801401 l -0.02946,-0.220905 c 0,0 -0.0059,-0.02905 0.0057,-0.04657 -0.02346,-0.116272 -0.0057,0.04657 -0.01189,-0.133696 l 0.299741,-1.51234 c 0.08653,-0.395552 0.475555,-0.716031 0.451561,-1.134656 z M 62.23312,33.914326 c 0.179901,-0.232875 0.336777,-0.279691 0.534352,-0.349808 l 1.620757,-0.886664 c 0.749257,-0.483919 0.610208,-0.198754 1.098144,-0.478714 l 1.318528,-0.810537 c 0.830192,-0.757364 1.295202,-0.851201 1.602903,-1.125031 l 1.829417,-1.276604 c 0.121952,-0.07001 0.180087,-0.08174 0.273032,-0.145849 0.813123,-0.542178 1.503855,-1.241145 2.276178,-1.835594 0.499409,-0.373016 1.497723,-1.421396 2.020328,-1.829338 l 0.545811,-0.442862 c 0.243721,-0.291162 0.185584,-0.27943 0.458461,-0.500886 0.11613,-0.09905 0.11613,-0.09905 0.255455,-0.233027 l 0.99257,-1.001851 c 0.139331,-0.133985 0.121951,-0.07001 0.261282,-0.203998 0.272733,-0.297041 0.168293,-0.215398 0.476088,-0.413664 l 0.638863,-0.431403 c 0.01157,-0.01742 0.06971,-0.02916 0.08134,-0.04666 0,0 0.121952,-0.07001 0.121952,-0.07001 l 1.260147,-0.949985 c 1.149877,-0.821872 0.970026,-0.588976 2.13177,-1.277132 0.214884,-0.134138 0.342893,-0.09945 0.569407,-0.251024 0.336891,-0.2041 0.755249,-0.379277 1.068816,-0.62404 0.284473,-0.238914 0.633129,-0.384869 0.662197,-0.390735 0.121951,-0.07001 -0.05229,0.04073 0.104525,-0.08158 0.145153,-0.104949 0.133552,-0.08747 0.284642,-0.16331 l 1.585825,-0.909851 c 0.191682,-0.09921 0.366097,-0.134372 0.557805,-0.233557 0.563551,-0.280086 0.97577,-0.635506 1.626889,-0.706413 0.180228,-0.0061 0.453292,-0.151976 0.587002,-0.163834 0.238374,-0.01786 -0.284893,0.01212 0.186116,0.02292 l 0.383692,-0.04718 c 1.017351,-0.129697 1.91805,-0.462706 2.877141,-0.656254 0.203443,-0.04107 0.372084,-0.02972 0.558063,-0.08238 l 2.028569,-0.439632 c 0.0872,-0.01758 0.18023,-0.0061 0.26743,-0.02373 l 0.66259,-0.163971 c 0,0 0.029,-0.0058 0.0407,-0.02337 0.18598,-0.05266 0.27316,-0.07025 0.45354,-7.9e-4 -0.23767,0.395846 -1.63651,1.85774 -2.008075,2.189821 -0.179948,0.157339 -0.319435,0.215708 -0.528474,0.378882 -0.168354,0.139872 -0.342474,0.326241 -0.499298,0.448598 -0.342622,0.250635 -0.609397,0.65231 -1.004425,0.868141 l -3.552983,3.227534 c -0.156748,0.122405 -0.33665,0.35528 -0.458463,0.500886 -0.36553,0.436761 -0.232252,0.198093 -0.534344,0.349814 l -0.389027,0.320481 c -0.01157,0.01742 -0.02908,0.0058 -0.04072,0.0233 -0.569269,0.326619 -1.085888,0.839211 -1.550638,1.08424 -0.01157,0.01742 -0.02908,0.0058 -0.04072,0.0233 l -0.08134,0.04666 c -0.191683,0.09921 -0.342635,0.250629 -0.505292,0.34395 l -4.438184,2.438274 c 0,0 -0.121951,0.07001 -0.121951,0.07001 -0.232378,0.122518 -0.05814,0.01173 -0.278899,0.116781 -0.08134,0.04667 -0.19746,0.145709 -0.278778,0.192363 l -1.858872,1.055704 c -0.08134,0.04667 -0.104524,0.08158 -0.156748,0.122405 l -2.533059,1.237125 c -0.33103,0.233176 -0.697122,0.367538 -1.092277,0.507781 l -2.208025,0.899315 c -0.389284,0.169302 -0.807252,0.571238 -1.231604,0.641758 -0.645254,0.09997 -1.220526,0.321931 -1.848321,0.4335 l -1.365714,0.426854 c -0.284771,0.08772 -0.30223,0.07612 -0.592866,0.13478 -0.174374,0.03518 -0.395288,0.06464 -0.5522,0.111433 -0.17438,0.0352 -0.430091,0.117042 -0.592866,0.13478 -0.238368,0.01786 -0.09887,-0.04056 -0.279036,0.04118 l -2.011243,0.375639 c -0.284765,0.08772 -0.5638,0.1289 -0.813631,0.239815 l -0.296371,0.105183 c -0.06971,0.02915 -0.08713,0.01758 -0.168481,0.06426 -0.168487,0.06428 -0.191688,0.09922 -0.366226,0.05879 z M 80.819662,18.775358 c 0.226066,-0.37838 0.707401,-1.140916 0.770743,-1.501536 l -0.314366,-0.208787 c -0.318862,0.518099 -0.620433,0.972166 -0.974319,1.467005 -0.301577,0.454077 -0.243853,0.21556 -0.493414,0.477673 -0.174122,0.186369 -0.359702,0.465791 -0.51049,0.692828 l -0.452883,0.378746 c -0.470227,0.442741 -0.916601,1.228498 -1.386805,1.671242 -0.359965,0.314622 -0.789927,0.507252 -1.46892,1.264348 -0.371447,0.407671 -2.931187,3.011306 -3.389942,3.360991 l -0.778188,0.565381 c -0.209057,0.163167 -0.02898,0.08144 -0.249839,0.110909 -0.04072,0.0233 -1.050697,1.013589 -1.410799,1.252618 -0.121952,0.07001 -0.197582,0.07013 -0.319568,0.140114 l -2.387215,1.510165 c -0.01157,0.01742 -0.06383,0.0583 -0.09291,0.06409 l -0.900175,0.635368 c -0.01157,0.01742 -0.02908,0.0058 -0.04072,0.0233 l -0.69699,0.443142 c -0.162659,0.0933 -0.406495,0.308879 -0.586608,0.390606 l -2.422802,1.109014 c -0.209185,0.08758 -0.459016,0.198494 -0.65659,0.268611 -0.127844,0.04089 -0.168487,0.06427 -0.290509,0.134243 -0.05219,0.04079 -0.09291,0.06408 -0.162665,0.09331 -0.09291,0.06409 -0.08134,0.04667 -0.151057,0.07584 -0.226644,0.07599 -0.360359,0.08786 -0.627671,0.187168 -0.180082,0.08174 -0.447407,0.181032 -0.610062,0.274354 -0.307837,0.198236 -0.249537,0.262115 -0.580873,0.34407 l -0.825238,0.257291 c -0.313834,0.09358 -0.691394,0.321012 -1.028551,0.373928 -0.203447,0.04106 -0.470751,0.140381 -0.633401,0.233694 l -1.842188,0.613752 c -0.569407,0.251024 -1.156547,0.339263 -1.528364,0.520167 -0.429953,0.192635 -0.871902,0.175966 -1.307722,0.339535 -0.197575,0.07012 -0.162658,0.0933 -0.377955,6.6e-4 0.110219,-0.128149 0.261276,-0.203988 0.34837,-0.297164 0.127724,-0.11651 0.197317,-0.221295 0.336642,-0.355271 0.150927,-0.151443 0.145268,-0.02931 0.331026,-0.233167 0.185723,-0.203836 0.127592,-0.192113 0.325048,-0.337813 0.464483,-0.396212 0.870451,-1.007466 1.329201,-1.357143 0.667803,-0.512859 1.358141,-1.438598 1.944216,-2.13157 0.0871,-0.09315 0.238031,-0.244599 0.325048,-0.337813 0.15092,-0.151434 0.237894,-0.320193 0.359707,-0.4658 l 0.980847,-1.059982 c 0.110301,-0.128081 0.20878,-0.314357 0.319082,-0.442436 0.37713,-0.454229 0.940312,-0.961069 1.334935,-1.403679 0.37144,-0.407664 0.644473,-0.553513 1.004171,-1.019319 l 0.655935,-0.646574 c 0.104525,-0.08158 0.220779,-0.105056 0.354365,-0.192507 l 0.725796,-0.600177 c 0.331034,-0.233162 0.870712,-0.856275 1.184545,-0.949854 l 1.626228,-1.084368 c 0.406371,-0.384476 0.331034,-0.233162 0.720323,-0.402473 0.209176,-0.08758 0.48769,-0.431131 0.673541,-0.559379 0.214878,-0.134129 0.476222,-0.338084 0.696985,-0.443134 0.331171,-0.157566 1.022161,-0.705356 1.44039,-0.956123 0.447278,-0.25662 0.999089,-0.594833 1.487178,-0.799202 L 71.6514,19.657678 c 0.104525,-0.08158 0.209057,-0.163168 0.348502,-0.221561 0.08134,-0.04667 0.08134,-0.04667 0.168486,-0.06428 l 0.209176,-0.08758 c 0.02908,-0.0058 0.156886,-0.04681 0.185974,-0.05265 0.238244,-0.09345 1.499045,-0.665487 1.68542,-0.491374 0.388862,-0.396093 0.737915,-0.315275 1.179597,-0.449789 0.05814,-0.01173 0.156886,-0.04681 0.197575,-0.07012 l 0.993754,-0.321536 c 0.261569,-0.05279 0.494084,-0.09971 0.813775,-0.164229 0.337163,-0.05293 0.458893,-0.27409 0.796316,-0.175823 0.418876,0.127192 0.836839,-0.274757 1.639408,-0.194747 0,0 0.180228,-0.0061 0.180228,-0.0061 0.267426,-0.02373 0.40115,-0.03559 0.569269,-0.326618 -0.163073,-0.133415 -0.09322,-0.08702 -0.267698,-0.127449 -0.354873,-0.109895 -0.947894,-0.05069 -1.023483,-0.05055 l -2.325066,0.469224 c -0.377827,0.07625 -1.348514,0.28727 -1.697144,0.433243 l -0.249832,0.110993 c 0,0 -0.02908,0.0058 -0.04072,0.0233 l -0.830977,0.303812 c -0.09291,0.06409 -0.01157,0.01742 -0.12195,0.07001 l -0.970687,0.211021 c -0.06971,0.02915 -0.05229,0.04073 -0.121952,0.07001 -0.139462,0.05838 -0.01751,-0.01163 -0.168486,0.06428 -0.139462,0.05838 -0.104524,0.08158 -0.232372,0.12251 -0.331291,0.08199 -1.191069,0.542845 -1.772206,0.735747 l -2.271618,1.108748 c -0.888702,0.542312 -0.923241,0.745882 -1.550641,1.084225 -0.999223,0.519254 -1.219476,0.926667 -2.050058,1.457249 l -1.016424,0.658837 c -0.116129,0.09905 -0.145098,0.180473 -0.261139,0.279582 -0.139324,0.133977 -0.05798,0.08729 -0.238244,0.09345 -0.313308,0.39594 -0.481822,0.460199 -0.812847,0.693366 l -1.370397,1.078102 c -0.09291,0.06408 -0.156747,0.122404 -0.23808,0.169062 -0.18586,0.128242 -0.273041,0.145844 -0.423952,0.297284 -0.174128,0.186378 -0.237943,0.244658 -0.42383,0.372882 -0.429696,0.343813 -0.754469,0.832815 -1.17829,1.205702 l -0.400627,0.337947 c -0.87085,0.78068 -0.824314,0.786415 -1.578775,1.619236 -0.284429,0.314459 -0.458462,0.500886 -0.765932,0.925877 -0.179807,0.232925 -0.261276,0.203988 -0.545681,0.51845 -0.208926,0.23877 0.04072,-0.02331 -0.226485,0.151604 -0.22648,0.151595 -0.498896,0.675371 -0.731011,0.949058 l -0.789393,0.809619 c -0.336506,0.430866 -0.98619,1.333274 -1.497328,1.648169 -0.21488,0.134129 -0.255455,0.233027 -0.441154,0.436866 -0.237943,0.244658 -0.720058,0.553656 -1.242407,1.112776 -1.100095,-0.655182 -1.921338,-1.427074 -3.067825,-2.012404 -1.012672,-0.521565 -1.990538,-1.095516 -2.8872,-1.791753 -0.844273,-0.661415 -3.009597,-1.948494 -4.127046,-2.539661 -0.611096,-0.330409 -1.519658,-1.160295 -2.136385,-1.368546 -1.117057,-0.364383 -2.450897,-1.652885 -3.759906,-2.069301 l -2.333568,-1.071659 c -0.13382,-0.06377 -0.20957,-0.139187 -0.360857,-0.214557 l -0.686683,-0.330323 c -0.570333,-0.278101 0.0059,0.104663 -1.035977,-0.562253 l -1.600591,-0.886862 c -0.180379,-0.06946 -0.279166,-0.0344 -0.488737,-0.173591 -0.558859,-0.371168 -1.12361,-0.771359 -1.676575,-1.113505 -0.587894,-0.365345 -1.09412,-0.550501 -1.693643,-0.898333 -0.721775,-0.429026 -2.182119,-0.920741 -3.264642,-1.4887 -0.256132,-0.144874 -1.315161,-0.596628 -1.571131,-0.665956 -0.395552,-0.08653 -0.471381,-0.237619 -0.855487,-0.417171 -0.151288,-0.07537 -0.238512,-0.05773 -0.372335,-0.121491 -0.605261,-0.3013 -1.123052,-0.46904 -1.751372,-0.659833 -0.674851,-0.196522 -1.239309,-0.445576 -1.856165,-0.729417 -0.250238,-0.115853 -0.168654,-0.01133 -0.383951,-0.103994 -0.168751,-0.08696 -0.197942,-0.156699 -0.389953,-0.208645 -0.06397,-0.01737 -0.01157,0.01742 -0.186118,-0.02292 l -0.640053,-0.248915 c -0.26181,-0.09843 -0.622452,-0.161736 -0.802827,-0.231202 l -1.355563,-0.422112 c -0.325833,-0.115716 -0.634298,-0.295477 -1.000809,-0.38784 -0.430481,-0.109727 -0.9134806,-0.329851 -1.3555626,-0.422112 -0.01746,-0.0116 -0.02904,0.0058 -0.04649,-0.0057 -0.250084,-0.0403 -0.622589,-0.237317 -0.954147,-0.306517 -0.285012,-0.0635 -0.517671,-0.09213 -0.773641,-0.16146 l -2.32691,-0.589099 C 4.6856444,14.116418 4.5344374,14.116719 4.220343,14.059118 L 2.6790625,13.840846 c -0.3074375,0.424999 -0.1970522,0.372477 0.1639695,0.662584 0.1749019,0.267181 -0.1627602,0.0177 0.5479166,0.766589 l 2.0623648,2.275782 c 0.384371,0.330733 0.413676,0.476083 0.693237,0.737258 0.221298,0.19732 0.599776,0.499032 0.797891,0.731261 l 1.153166,1.067907 c 0.296892,0.197183 0.233025,0.255452 0.401942,0.417959 0.26212,0.24954 0.786158,0.673137 0.955202,0.911242 0.08158,0.104525 -0.07559,1.38e-4 0.12824,0.185859 0.145607,0.121815 0.366751,0.243581 0.4948936,0.353795 0.151441,0.150925 0.07001,0.121952 0.343704,0.35407 l 0.128142,0.110214 c 0.01747,0.0116 0.03493,0.0232 0.03493,0.0232 0.331919,0.296025 2.223958,1.577741 2.584719,1.716654 0.26181,0.09843 0.518037,0.318949 0.78574,0.446401 0.459809,0.255041 1.053327,0.498235 1.513263,0.828876 0.279429,0.185584 0.413154,0.17371 0.262492,0.476348 -0.116514,-0.127727 -0.442077,-0.09227 -0.616588,-0.132669 -0.180381,-0.06946 -0.267703,-0.127452 -0.436345,-0.138793 -0.488479,-0.0224 -0.92495,-0.236795 -1.407561,-0.230138 -0.197689,-0.0055 0.04649,0.0057 -0.133722,0.01188 l -0.395421,-0.01093 c -0.09306,-0.01147 -0.16276,0.0177 -0.249968,0.03532 -0.308099,0.04706 -0.738316,0.08852 -1.08147,0.03677 -0.133587,0.08745 -0.203181,0.192242 -0.331037,0.233173 l -0.34876,0.07038 c -0.557936,0.157967 -0.673796,0.408203 -0.562479,0.88481 0.02919,0.06973 0.0059,0.104663 0.04681,0.156886 0.01746,0.0116 0.0059,0.02903 0.02336,0.04062 0.128384,0.261431 0.332224,0.447145 0.48966,0.702725 0.07001,0.121952 -0.05813,0.01174 0.145704,0.197458 l 0.297157,0.348365 c 0.01746,0.0116 0.0058,0.02911 0.02329,0.04071 l 0.133976,0.139325 c 0.192263,0.203144 0.454337,0.452756 0.542048,0.737532 0.04681,0.156885 -0.01157,0.01742 0.06427,0.168485 0.425037,0.307399 1.088921,0.899377 1.583671,1.177599 0.308466,0.17976 0.820297,0.242791 1.140123,0.253867 0.69205,0.05694 1.455276,0.916185 2.135989,1.141775 l 2.78124,1.041811 c 0.360763,0.138914 0.604863,0.07454 1.204247,0.346787 0.267703,0.127452 0.151287,0.07537 0.383957,0.103983 0.12799,0.03467 0.296632,0.046 0.395549,0.08654 l 2.047612,0.479052 c 0.703779,0.115075 1.070791,0.509833 1.873234,0.514245 0.709377,-0.007 1.390224,0.294138 2.105607,0.391736 l 0.581529,0.03388 c 0.395419,0.01094 0.767772,0.132403 1.168923,0.09682 0.83137,-0.07704 1.82578,-0.02062 2.721146,-0.08033 l 2.477166,0.05966 c 0.06402,0.01728 0.127988,0.03466 0.186121,0.02292 1.267844,0.137344 1.58128,-0.183008 2.140139,0.18816 -0.266775,0.401675 -0.447156,0.332218 -0.8891,0.31554 l -3.779552,0.0066 c -0.01747,-0.0116 -0.02904,0.0058 -0.04649,-0.0057 -0.01747,-0.0116 -0.0291,0.0059 -0.04657,-0.0057 -0.01747,-0.0116 -0.02904,0.0058 -0.04649,-0.0057 l -0.552338,0.03585 c -0.104631,0.0059 -0.16276,0.0177 -0.249967,0.03532 -0.592865,0.134769 -1.302513,-0.0093 -1.824861,0.549757 -0.412092,0.431009 -0.411568,0.73337 -0.993102,0.699498 l -0.412877,-0.02255 c -0.02904,0.0058 -0.07559,1.39e-4 -0.08717,0.01756 -0.07559,1.38e-4 -0.180222,0.0061 -0.267437,0.02373 -0.459277,0.04731 -0.970951,0.05984 -1.412634,0.194341 -0.168512,0.06425 -0.302366,5.32e-4 -0.470879,0.06477 -0.09879,0.03507 -0.319567,0.140115 -0.418351,0.17517 -0.209183,0.08759 -0.778978,0.111835 -1.359853,0.455919 -0.243973,0.139976 -0.591812,0.739492 -0.777398,1.018923 -0.197186,0.296898 -0.284247,0.390083 -0.621404,0.442999 -0.05813,0.01174 -0.08717,0.01756 -0.133722,0.01188 -0.447683,0.02986 -0.87911,-0.608974 -1.3265,-0.427982 0.139716,0.09279 0.198001,0.156612 0.360919,0.214471 0.215308,0.09266 0.191952,0.05203 0.42488,0.231843 -0.267039,0.250491 -0.522874,0.256756 -0.842971,0.0945 -0.336369,0.50646 -0.395019,0.215825 -0.551677,0.413805 -0.285166,-0.13905 -0.977848,-0.573989 -1.291437,-0.32919 0.0292,0.06973 -0.01731,0.06396 0.116514,0.127727 0.151283,0.07537 0.06397,0.01737 0.221045,0.04612 0.203584,0.03453 0.354869,0.109892 0.517941,0.243306 l -0.615535,0.472055 c -0.0929,0.0641 -0.09879,0.03507 -0.232376,0.12252 l -0.418222,0.250758 c -0.319562,0.140107 -0.581267,0.117301 -0.871767,0.251549 l -0.912302,0.350472 c -0.331296,0.08199 -0.407017,0.0065 -0.604204,0.303417 l 0.116783,0.2789 c -0.266903,0.326085 -0.621665,0.291819 -0.987758,0.426192 -0.493947,0.175307 -0.395288,0.06466 -1.40051,0.479247 l -0.406755,0.1577 c -0.511279,0.239299 -0.436087,0.01239 -0.365304,0.58793 0.313965,-0.01799 0.615936,-0.245294 0.918164,-0.321407 0.09879,-0.03507 0.19171,-0.09918 0.302106,-0.151713 l 0.290998,0.16816 c -0.295576,0.558724 -0.754724,0.681639 -1.2544,0.90346 -0.180114,0.08173 -0.435421,0.39034 -0.632871,0.536057 -0.354235,0.268097 -0.220511,0.256235 -0.527954,0.681243 0.25008,0.04029 0.22091,-0.02946 0.45328,-0.151971 0.354364,-0.192507 0.604078,-0.379017 0.96443,-0.466859 0.145301,-0.02929 0.261568,-0.05279 0.395421,0.01094 0.08798,0.435949 -0.516225,0.739365 -0.847649,0.745757 -0.24944,0.337697 -0.104259,0.232767 -0.406361,0.384484 -0.302098,0.151704 -0.173719,0.413146 -0.539815,0.547518 l -0.993753,0.321537 c -0.08716,0.01756 -0.156912,0.04679 -0.255705,0.08186 -0.197584,0.07013 -0.302228,0.07611 -0.499812,0.146239 -0.197581,0.07013 -0.01157,0.01742 -0.185975,0.05265 -0.116263,0.02348 -0.174386,0.0352 -0.255706,0.08186 0,0 -0.02904,0.0058 -0.04067,0.02334 l -0.0697,0.02916 c -0.4474186,0.181035 -0.9588216,0.344735 -1.2953306,0.775612 0.145453,0.04626 0.261701,0.02281 0.436081,-0.01239 0.08723,-0.01765 0.116264,-0.02347 0.203445,-0.04106 l 0.7091206,-0.158232 c 0.238243,-0.09345 0.220648,-0.18064 0.47674,-0.03572 -0.05213,0.116386 -0.104259,0.232767 -0.226248,0.302755 -0.01157,0.01742 -0.02904,0.0058 -0.04067,0.02334 -0.226642,0.07599 -0.215153,-0.01709 -0.400891,0.186766 -0.4991496,0.524195 -1.6970076,0.508836 -2.2716176,1.108748 0.325929,0.19136 0.290903,0.09252 0.534998,0.02815 0.273169,-0.07025 0.261445,-0.128385 0.517539,0.01654 -0.278246,0.49473 -0.400489,0.413542 -0.644203,0.704698 0.39594,0.31331 -0.457702,0.954411 -0.602754,1.134914 0.01746,0.0116 0.03493,0.0232 0.02329,0.04071 -0.02894,0.08146 0.0059,0.02903 0.04666,0.08134 0.157439,0.255571 0.117439,0.656853 0.187692,0.930021 l 0.169959,0.767249 c 0.02426,0.569794 -0.27238,0.523799 -0.609272,0.727899 0.0059,0.02903 0.03493,0.0232 0.01172,0.05813 l 0.07585,0.151062 c -0.156518,0.273565 -0.475828,0.564856 -0.824847,0.48406 -0.314095,-0.0576 -0.628187,-0.115201 -0.912692,0.123692 0.0059,0.02903 -0.08106,0.197842 0.203679,0.110166 0.27317,-0.07025 0.581139,-0.192901 0.872427,0.126407 l -0.377032,0.529785 c -0.215309,-0.09266 -0.726848,-0.0046 -0.958963,0.269151 0.244345,0.08683 0.209417,0.06364 0.424486,0.0051 0.17438,-0.0352 0.209176,-0.08758 0.395415,0.01095 l -0.799408,1.734167 c -0.139194,0.20958 -0.284247,0.390083 -0.423435,0.599653 l 0.111177,0.401024 c 0.01172,0.05813 1.52e-4,0.07555 0.02345,0.116267 0.134907,0.668453 -0.462905,1.3033 -0.8282092,1.891217 -0.2783744,0.419141 -0.5102208,0.844027 -0.7536705,1.286365 -0.1565174,0.273564 -0.2891868,0.890152 -0.3119922,1.15186 0.2555744,-0.157444 0.6319504,-1.065193 1.0495185,-1.693914 0.1159858,-0.174637 0.3073054,-0.500603 0.4758214,-0.564848 0.174796,0.191543 0.07052,0.42435 -0.05694,0.692044 -0.12172,0.221172 -0.260779,0.506332 -0.3591733,0.768168 -0.1389303,0.360748 -0.6150152,0.774427 -0.4917078,1.460348 l 1.1073771,-1.856813 c 0.209727,0.214744 0.157441,0.255573 0.216094,0.546208 0.05866,0.290627 0.174795,0.191545 9.19e-4,0.529134 l 0.180227,-0.0061 c 0.139559,0.01724 0.01157,-0.01742 0.180381,0.06946 0.03519,0.174379 -0.01707,0.215171 -0.0051,0.424477 0.09879,-0.03507 0.0059,0.104663 0.209047,-0.163173 0.238609,0.133365 0.378479,0.301713 0.49513,0.50502 l 0.122405,0.156749 c 0.209837,0.290371 0.227958,0.679923 0.07704,0.831369 -0.208909,0.238768 -0.482611,0.0067 -0.737915,0.315274 0.448179,0.272552 0.02305,-0.110488 0.552462,0.03975 0.12225,0.08119 0.08174,0.180085 0.111044,0.325432 0.105576,0.523138 -0.349023,-0.0808 -0.917638,0.62377 0.238513,0.05773 0.01761,0.08716 0.25584,-0.0063 0.139454,-0.05838 0.470482,-0.291555 0.633661,-0.08252 0.08185,0.255712 0.07012,0.197587 -0.127065,0.494476 0.0059,0.02903 0.03492,0.0232 0.02336,0.04062 0,0 0.04092,0.127862 -0.01106,0.319821 l -0.09174,0.744445 c -0.0288,0.157051 -0.0053,0.273305 -0.01095,0.395422 -0.284104,0.465669 -0.633005,0.460467 -0.986837,0.955328 0.116357,0.05217 0.122249,0.08119 0.238509,0.05772 0.174387,-0.0352 0.04067,-0.02334 0.197452,-0.145714 0.127716,-0.116516 0.261438,-0.128379 0.389287,-0.169301 0.244656,0.237941 0.122407,0.156748 0.122909,0.459146 -0.0112,0.244231 0.04706,0.308095 -0.190921,0.552729 -0.214776,0.209699 -0.766849,0.396732 -0.789518,0.734021 0.424612,0.08067 0.55154,-0.489387 0.988015,-0.275003 -0.144916,0.256097 -0.446888,0.483401 -0.737,0.844417 l -0.736859,0.920001 c 0.09879,-0.03507 0.03493,0.0232 0.15104,-0.07585 l 0.319311,-0.291292 c 0.185714,-0.203842 0.290104,-0.361021 0.475955,-0.489268 0.214913,-0.134106 0,0 0.244106,-0.06438 0.244105,-0.06439 0.418222,-0.250759 0.638999,-0.35581 0.121987,-0.06999 0.09879,-0.03507 0.168507,-0.06425 -0.423163,0.750827 -1.643035,1.450721 -1.223764,1.804686 0.319437,-0.215706 0.435036,-0.617121 0.859249,-0.763226 0.441686,-0.134512 0.609407,-0.652304 0.964555,-0.391259 -0.110257,0.12811 -0.185708,0.203833 -0.313429,0.320357 -0.592208,0.512721 -0.499412,0.373001 -0.968978,1.193699 l 0.15718,0.104387 c 0.162518,-0.168916 0.411697,-0.657781 0.702333,-0.716435 0.185975,-0.05265 0.238368,-0.01786 0.424349,-0.07051 0.156911,-0.04679 0.06971,-0.02916 0.209182,-0.08759 l 0.215039,-0.05852 c -0.0516,0.41875 -0.598206,0.408075 -0.579952,0.873218 -0.0057,0.04654 0.01746,0.01161 -0.0056,0.122089 -0.05186,0.267564 -0.31305,0.547132 -0.347451,0.826297 0.08717,-0.01756 0.02337,0.04062 0.121987,-0.06999 0.174119,-0.186384 0.168255,-0.215437 0.412226,-0.355416 0.03493,0.0232 0.10479,0.06959 0.151287,0.07537 0.238511,0.05773 0.03493,0.0232 0.168655,0.01133 l 0.353835,-0.494859 0.197999,0.15661 c -0.02867,0.232644 -0.284247,0.390082 -0.324507,0.640185 -0.01157,0.01742 1.52e-4,0.07555 0.01761,0.08716 0.03518,0.174388 -0.0059,-0.02903 0.05838,0.139462 0.220382,-0.331824 0.643545,-1.082651 0.887518,-1.222628 l 0.302631,0.15065 c -0.150658,0.302626 -0.498628,0.826553 -0.387582,1.151988 l 0.498758,-0.750965 c 0.250239,0.115853 0.209573,0.139188 0.239035,0.360093 0.02372,0.267437 0.01225,0.360494 0.105703,0.598729 0.145974,0.348631 -0.05681,0.767644 -0.0039,1.104803 0.05279,0.261569 0.01839,0.540735 0.239683,0.738054 0.1738546,-0.337552 -0.01252,-0.511676 0.07415,-0.831634 0.03453,-0.203577 0.0288,-0.157051 0.1913146,-0.325958 0.360915,0.214468 0.250626,0.342634 0.187299,0.70325 -0.06346,0.285037 -0.05134,0.569937 0.158356,0.784716 0.115726,-0.32583 0.02254,-0.412888 0.260392,-0.733112 0.238918,0.284475 0.03558,0.401162 0.100097,0.720853 0.249839,-0.110909 0.121858,-0.145577 0.173856,-0.337552 0.06933,-0.255969 0.126408,-0.87243 0.428898,-0.797363 0.395552,0.08653 0.548182,0.917772 0.554439,1.173598 0.018,0.313967 0.06491,0.546476 0.361941,0.819251 l -0.08106,0.197848 c 0.349291,0.231983 0.349548,0.38316 0.530327,0.679403 0.396468,0.615662 1.660421,1.857811 2.213151,2.04873 1.122919,0.393449 2.00043,0.09537 2.664867,0.98968 0.163167,0.209057 0.128376,0.26144 0.140234,0.395151 0.07001,0.121951 0.873613,0.806724 1.095183,1.155232 0.157435,0.255568 0.355677,0.563397 0.652575,0.760583 0.541386,0.359564 0.984255,0.90538 1.560304,1.136972 0.506212,0.185196 0.466065,0.51089 0.919487,0.434503 0.831236,-0.152619 0.680453,0.07441 1.390226,0.294141 0.255974,0.06932 0.05235,0.03477 0.279165,0.0344 0.459407,0.02826 0.971871,0.469295 1.169452,0.399169 0.377692,-0.151829 0.372492,0.197049 0.814429,0.213736 l 0.244237,0.01119 c 0.395554,0.08654 0.547655,0.61541 0.937738,0.899657 0.115596,-0.401418 -0.355415,-0.412229 -0.210756,-0.819504 0.470874,-0.06479 0.384208,0.255174 0.919716,0.585726 0.104387,-0.157179 0.09848,-0.186276 0.0692,-0.331558 -0.01189,-0.133695 -0.06428,-0.168486 -0.0063,-0.25584 0.06368,-0.133874 0.08119,-0.122243 0.197575,-0.07012 l 0.337812,0.325048 c 0.221447,0.272872 -0.07537,0.151292 0.274082,0.458887 0.08696,-0.16875 0.13905,-0.285166 0.103867,-0.459539 -0.04693,-0.232515 -0.139872,-0.168349 0.0516,-0.418747 0.116273,-0.02346 0.168488,-0.06428 0.308233,0.02854 0.325987,0.191271 0.116509,0.127724 0.157436,0.255568 0.06428,0.168486 0.04079,0.05219 0.163167,0.209056 0.09905,0.116129 0.05839,0.139469 0.192373,0.278785 0.19127,-0.325986 -0.07625,-0.377827 0.143995,-0.785245 0.215042,-0.05852 0.441815,-0.05891 0.66873,0.01628 0.319939,0.0867 0.396092,0.388863 0.640598,0.551252 0.0112,-0.244238 -0.07013,-0.197581 -0.01239,-0.436076 0.377689,-0.151844 0.860568,-0.0073 1.215183,-0.04864 0.203448,-0.04106 0.25584,-0.0063 0.435954,-0.08798 0.243441,-0.442344 0.09226,-0.442073 -0.193288,-0.807904 0.173985,-0.261964 0.104387,-0.157178 0.354359,-0.192498 0.133695,-0.01189 0.255703,-0.08186 0.377826,-0.07625 0.401281,0.04 1.61e-4,0.07556 0.395423,0.01095 4.104187,-0.571168 12.314491,-3.952185 15.753452,-5.871204 -0.116356,-0.05217 -0.279277,-0.110033 -0.407265,-0.144692 -4.107949,1.751563 -9.25566,4.121301 -13.884171,4.117726 l -0.389428,0.09372 c -0.116272,0.02346 -0.267546,-0.0519 -0.389678,-0.05747 l -0.790716,0.05371 c -0.168648,-0.01132 -0.267538,-0.05188 -0.407147,-0.06907 -0.430347,-0.03413 0.02946,0.220905 -0.424613,-0.08067 0.150783,-0.22703 0.115986,-0.174637 0.296073,-0.256382 0.127844,-0.04089 0.03493,0.0232 0.151063,-0.07585 0.133547,-0.08747 0.08134,-0.04666 0.156611,-0.198 -0.519258,-0.99929 -1.727133,-0.09009 -1.936566,-0.153684 -0.180482,-0.145104 -0.343709,-0.354072 -0.541661,-0.510754 -0.627666,0.18716 -0.337406,-0.09829 -0.674976,-0.272122 l 0.620846,-0.745382 c -0.34913,-0.156425 -0.453277,0.151972 -0.65633,0.419801 -0.861486,-0.521815 -0.117443,-0.656853 -0.0777,-1.209319 -0.24411,0.06438 -0.38317,0.349542 -0.61541,0.547655 -0.07572,-0.0754 -0.331824,-0.220382 -0.372644,-0.272602 -0.122405,-0.156748 -0.0177,-0.16276 0.01107,-0.319834 0.01157,-0.01742 -0.0058,-0.02899 0.0057,-0.0465 -0.285014,-0.0635 -0.18598,0.05266 -0.412486,0.204236 -0.145236,0.104875 -0.215043,0.05852 -0.418619,0.02398 -0.424613,-0.08067 -0.674981,-0.272114 -0.780317,-0.644048 0.162246,-0.320091 0.388677,-0.547223 0.550922,-0.867313 0.191138,-0.401591 0.08654,-0.39556 0.08587,-0.773515 -5.31e-4,-0.302367 0.17359,-0.488736 0.306783,-0.802964 0.167888,-0.442192 -0.07065,-0.499942 0.120665,-0.825899 0.383821,0.02841 0.08174,0.180087 0.389422,-0.09371 l -0.459922,-0.330589 c 0.307261,-0.500632 0.296365,-0.105183 0.662468,-0.23956 0.06919,-0.331563 -0.145849,-0.273033 -0.384482,-0.406363 -2.75e-4,-0.151188 -0.02915,-0.06971 -0.04693,-0.232506 l 0.01724,-0.139559 c 0.05209,-0.116416 0.04641,-0.06987 0.104386,-0.157178 0.168648,0.01132 0.36076,0.138912 0.535134,0.103728 -0.215703,-0.319439 -0.395788,-0.237755 -0.745079,-0.469739 -0.08158,-0.104524 -0.174902,-0.267169 -0.03559,-0.401151 0.278907,-0.116775 -0.02337,-0.04062 0.273306,0.0053 0.308233,0.02854 0.104791,0.06959 0.238236,-0.09346 -0.23329,-0.406623 -0.633529,0.158105 -0.815081,-0.591684 -0.01173,-0.05814 -0.04089,-0.127844 -0.04681,-0.156886 -0.01751,-0.01163 -0.221455,-0.272877 -0.355809,-0.639001 l -0.233822,-0.708989 c -0.01758,-0.08713 -0.04706,-0.308104 -0.07051,-0.424347 -0.02373,-0.267441 0.110081,-0.203743 0.06906,-0.407153 -0.02346,-0.116272 -0.163301,-0.284636 -0.209965,-0.365959 0.666782,-1.117562 0.469925,-0.593948 0.521041,-1.315032 0.02267,-0.337301 0.05203,-0.191951 0.243441,-0.442344 -0.0933,-0.162658 -0.454333,-0.452755 -0.31514,-0.662334 0.127586,-0.192103 0.221142,0.121765 0.412481,-0.204228 L 27.77479,67.001752 c -0.360368,0.08785 -0.23251,0.04692 -0.570068,-0.126932 0.202871,-0.343454 0.110308,-0.12809 0.307674,-0.273849 l -0.105055,-0.220777 c -0.622323,-0.08614 -0.226205,0.302785 -0.90853,-0.829913 -0.09331,-0.162665 -0.09359,-0.313839 -0.181035,-0.447421 -0.04666,-0.08134 -0.145615,-0.121819 -0.215467,-0.168211 -0.03493,-0.0232 -0.122253,-0.0812 -0.157177,-0.104387 -0.320346,-0.313447 0.660871,-1.14666 0.684073,-1.181595 -0.19237,-0.278769 -0.291062,-0.168074 -0.1405,-0.546333 l 0.337396,0.09829 0.127593,-0.192113 C 26.627614,62.7416 26.511616,62.916261 26.31341,62.608372 l 0.110163,-0.203675 c 0.232612,0.0287 0.139711,0.09279 0.36636,0.0168 -0.02924,-0.06976 0.0232,-0.03493 -0.08159,-0.104535 -0.10479,-0.0696 -0.03493,-0.0232 -0.116357,-0.05217 -0.517803,-0.167723 -0.296888,-0.197181 -0.490048,-0.929494 -0.07025,-0.27317 -0.05345,-0.639525 0.10307,-0.913089 l 0.354873,0.109895 c 0.0808,-0.349025 -0.05838,-0.139463 -0.07638,-0.453415 -0.0061,-0.18022 0.0519,-0.267546 0.208644,-0.389951 -0.168902,-0.162522 -0.08729,-0.05798 -0.09921,-0.191683 0.25584,-0.0063 0.145153,-0.10495 0.401289,0.04 -0.01147,0.09307 0.0465,0.0057 -0.04056,0.09887 -0.01157,0.01742 -0.104524,0.08158 -0.116129,0.09905 l 0.384217,0.255179 c 0.06932,-0.255974 0.0232,-0.03493 0.01121,-0.244239 -0.01189,-0.133695 -2.75e-4,-0.151189 0.0053,-0.273299 -0.349282,-0.231977 -0.407257,-0.144685 -0.680848,-0.301182 0.167732,-0.517798 -0.02505,-1.023345 0.486768,-0.960279 0.279164,0.0344 0.04079,0.05219 0.313961,-0.018 0.24411,-0.06438 0.360359,-0.08784 0.639799,0.09774 0.19127,-0.325988 0.104259,-0.232774 0.365666,-0.361168 0.331816,0.220377 0.110775,0.17426 0.396093,0.388863 0.231846,-0.424885 -0.128233,-0.185854 -0.03597,-0.627932 0.133552,-0.08748 0.162658,-0.0933 0.348759,-0.07038 0.186275,0.09848 0.181429,0.674192 0.453809,0.150394 l -0.285553,-0.365831 0.231976,-0.349282 0.407419,0.220245 c 0.01711,-0.290876 -0.05248,-0.186091 -0.250585,-0.418326 l 0.150514,-0.378227 c 0.06946,-0.18038 -0.0059,-0.104641 0.08669,-0.319939 0.231708,-0.500479 0.597189,-1.012777 1.079362,-1.246234 0.191683,-0.09921 0.290508,-0.134242 0.482484,-0.08224 l 0.145454,0.04626 c 0.01742,0.01157 0.029,-0.0058 0.0465,0.0057 0.04043,-0.174483 -0.04718,-0.383684 0.115468,-0.477005 0.203277,-0.116661 0.256067,0.144961 0.50033,0.156131 0.04612,-0.221049 -0.373276,-0.650602 -0.01292,-0.738452 0.18598,-0.05266 0.582063,0.336236 0.779768,0.341708 0.04599,-0.296623 -0.407814,-0.447018 -0.658176,-0.638468 0.09857,-0.186218 0.07537,-0.151292 0.197181,-0.29689 l 0.498488,-0.902163 c 0.243304,-0.517939 0.0048,-0.575659 0.515435,-1.192908 0.372093,-0.02972 0.506066,0.109595 0.854695,-0.03637 0.964563,-0.391268 0.755516,-0.228094 1.440119,-1.107299 0.203097,-0.2678 0.354072,-0.343707 0.69061,-0.774564 0.307481,-0.42497 1.032449,-1.478729 1.340144,-1.75255 1.306271,-1.171035 1.026215,-1.734552 1.817152,-1.637107 l 0.674588,0.04535 c 0.965081,-0.0889 0.541128,0.208387 1.695298,-1.491514 0.313172,-0.471534 0.585637,-0.919774 0.91632,-1.379677 0.400189,-0.564749 0.637551,-1.187309 1.27108,-1.345415 0.51728,-0.134636 0.402078,0.493552 2.004586,-0.85825 0.528343,-0.454462 0.254785,-0.610988 1.109608,-0.571775 l 0.604599,-0.07664 c 0.2209,-0.02945 0.476868,0.03988 0.610593,0.02801 0.337158,-0.05291 1.336647,-0.420987 1.838033,0.339872 0.174917,0.267166 0.28542,0.29025 0.541667,0.510744 -0.214747,0.209732 -0.267305,0.09932 -0.47088,0.0648 l -1.930683,-0.124554 c -0.180229,0.0061 -0.18599,0.05265 -0.337167,0.0529 -0.08713,0.01758 -0.186114,-0.02292 -0.319834,-0.01106 l -1.656207,0.561092 c -0.261441,0.128376 -0.37769,0.151845 -0.668455,0.13491 -0.388726,0.471686 -0.544632,1.123186 -0.933136,1.746026 -0.724824,1.129345 -1.473352,2.066782 -2.204086,3.167029 -0.637951,0.960545 -1.234838,2.124528 -2.397243,2.434729 -0.488212,0.128771 -1.039619,0.693762 -0.632303,0.838436 0.209418,0.06364 0.12195,-0.07001 0.395422,0.01094 -0.04014,0.325694 -0.336768,0.279697 -0.359181,0.768175 -0.02813,0.534996 -0.226155,0.378321 -0.492792,0.85559 0.105183,0.296366 -0.01107,0.319828 0.396334,0.540081 0.06971,-0.02915 0.214885,-0.134136 0.284643,-0.16331 0.139462,-0.05838 0.2325,-0.04692 0.360491,-0.01224 0.05252,0.110332 0.0933,0.162658 0.09931,0.267297 0.01173,0.05814 -0.01157,0.01742 -0.0056,0.122065 0.0653,0.773243 0.596543,1.98178 0.655464,2.423599 l 1.081654,3.411345 c 0.123042,0.534739 0.35647,1.016956 0.462045,1.540094 0.04106,0.203447 0.05293,0.337163 0.105586,0.523144 -0.21456,0.360861 -0.248927,0.64005 -0.03322,0.959489 0.489654,0.702722 0.151596,0.226479 0.803753,0.760326 0.01799,0.313962 0.04758,0.610456 0.193425,0.883497 0.163302,0.284636 -0.04014,0.325694 -0.26678,0.401684 -0.156879,0.0468 -0.01758,-0.08713 -0.180082,0.08173 -0.243715,0.291155 0.163569,0.435819 0.466072,0.510882 0.238508,0.05771 0.575531,-0.07078 0.609805,-0.425532 0.0228,-0.261706 -0.192902,-0.581136 -0.164358,-0.889364 0.07973,-0.953757 -0.315017,-0.586735 -0.589243,-1.121209 0.197324,-0.221303 0.366223,-0.0588 0.616329,-0.01853 0.325691,0.04013 0.709247,-0.08264 0.715878,0.400002 l 0.1525,0.755654 c 0.09958,0.41848 0.07091,0.651118 0.559908,0.975891 0.197186,-0.296898 0.09801,-0.488607 0.03322,-0.959489 l -0.298606,-1.179863 c -0.262754,-0.627528 -0.401836,-0.342334 -0.785505,-0.295188 -0.07556,1.62e-4 -0.581659,-0.109458 -0.692174,-0.132526 -0.319948,-0.0867 -0.447687,0.02985 -0.651762,-0.307074 -0.134138,-0.214885 -0.262359,-0.400757 -0.297688,-0.650731 l -1.300381,-5.469379 c 0,0 -0.0059,-0.02906 -0.02337,-0.04062 0,0 -0.0058,-0.02908 -0.0233,-0.04072 -0.06452,-0.31969 -0.268353,-0.505414 -0.309675,-0.860029 -0.05306,-0.412758 -0.245684,-0.842714 -0.374331,-1.255329 l 0.371694,-0.256501 c 0.429439,-0.49499 0.243183,-0.593521 0.370647,-0.861222 0.115849,-0.250231 0.411652,-0.65781 0.573987,-0.977843 0.09848,-0.186276 0.150926,-0.151443 0.290113,-0.361014 l 0.422912,-0.902014 c 0.08688,-0.168809 0.2494,-0.337711 0.336368,-0.50646 0.162251,-0.3201 -0.05252,-0.110332 0.127198,-0.418885 0.921818,-1.577364 1.314705,-3.002682 2.474603,-4.749109 0.25518,-0.384217 0.382377,-0.803102 0.550654,-1.018512 0.360502,-0.01226 0.726714,-0.07105 1.093205,0.02136 0.331558,0.0692 0.66885,0.09186 0.994678,0.207588 0.180381,0.06946 0.06393,0.01735 0.174485,0.04043 0.354762,0.03428 2.09961,0.28709 2.384904,0.501729 -0.243853,0.21556 -0.715113,0.05357 -1.017351,0.129698 -0.360359,0.08785 -1.372232,0.01983 -1.999366,0.509361 -0.220657,0.180634 -0.255179,0.384216 -0.353747,0.570433 -0.19136,0.325928 -0.639268,0.204626 -1.931259,2.870038 l -0.06378,0.133823 c -0.03477,0.05235 -0.06959,0.10479 -0.09279,0.139712 -0.09279,0.139719 -0.09266,0.215314 -0.139055,0.285173 -0.196906,0.44808 -0.545545,0.594045 -0.853246,0.867876 -0.116129,0.09905 -0.09871,0.110622 -0.220657,0.180634 -0.185861,0.128242 -0.02898,0.08144 -0.273178,0.07025 -0.14501,0.180532 -0.261002,0.355178 -0.388588,0.547282 -0.562667,0.809194 -0.220245,0.407418 -0.0679,1.087471 0.05853,0.215038 -0.06919,0.331563 0.0068,0.558197 0.256068,0.144961 0.337156,-0.05291 0.546967,0.237475 0.128242,0.185861 0.01786,0.238373 0.21597,0.470623 0.710963,0.900037 0.281404,1.319445 -0.07751,2.238795 -0.179488,0.459658 -0.376669,0.756548 -0.666489,1.268763 0.134243,0.290508 0.02946,0.220915 0.111175,0.401022 0.145971,0.348631 0.384064,0.179627 0.442999,0.621406 0.03533,0.249974 0.23317,0.331039 0.03599,0.627928 -0.209056,0.163167 -0.360231,0.16344 -0.581146,0.192897 l -0.231977,0.349281 c 0.40758,0.295805 0.3313,-0.08197 0.773243,-0.06529 0.168657,0.01133 0.203582,0.03453 0.360761,0.138912 l -0.09829,0.337406 0.261964,0.173985 c 0.05208,-0.116416 0.214883,-0.134138 0.348491,-0.221567 0.453155,-0.227571 0.330552,-0.535508 0.405308,-0.98921 0.0287,-0.23262 -0.03559,-0.401151 -0.192894,-0.581131 -0.174798,-0.191545 -0.378481,-0.301713 -0.611255,-0.405967 -0.296736,-0.121627 -0.424875,-0.23184 -0.60551,-0.452497 l 0.637808,-1.036131 c 0.173846,-0.337558 0.214129,-0.587658 0.417167,-0.855485 0.221143,0.121765 0.198103,0.232259 0.303166,0.453018 0.1517,0.302103 0.810271,1.167344 0.735208,1.469848 -0.06932,0.255974 -0.319433,0.215694 -0.476088,0.413664 0.576168,0.307212 0.633267,-0.309273 0.908539,0.82992 0.03519,0.174388 0.26862,0.656597 0.338608,0.778583 0.157444,0.255575 0.210231,0.517143 0.309548,0.784456 l 0.613486,1.691004 c 0.0351,0.09876 0.0351,0.09876 0.05852,0.215049 0.02931,0.145267 0.04118,0.279036 0.04144,0.430213 -0.0052,0.348887 0.146504,0.650996 0.298211,0.953091 0.07585,0.151064 0.343814,0.429696 0.570747,0.504861 0.221049,0.04612 -1.62e-4,-0.07556 0.290759,0.01694 0.145454,0.04626 0.256068,0.144961 0.36675,0.243578 -0.09252,0.290901 -0.312778,0.698307 -0.277321,1.023869 0.03559,0.401152 0.331664,0.144824 0.436078,-0.01239 0.249494,-0.337661 0.371308,-0.483267 0.341579,-0.855356 -0.02411,-0.494207 -0.30928,-0.633257 -0.699362,-0.917504 0.09862,-0.110682 0.06959,-0.10479 0.203146,-0.192265 0.267168,-0.174903 0.04072,-0.0233 0.244102,-0.06439 0,0 0.02908,-0.0058 0.02908,-0.0058 0.127844,-0.04089 0.04072,-0.0233 0.121951,-0.07001 0.371826,-0.180897 0.407418,0.220246 0.442353,0.243448 0.203979,0.26127 0.850007,0.61488 0.757741,1.056951 l -0.661141,0.995462 c 0.267859,0.203009 0.267554,0.05191 0.534742,-0.123027 0.09291,-0.06408 0.127844,-0.04089 0.255573,-0.157444 0.394762,-0.367015 0.20786,-0.843503 0.03842,-1.308382 -0.04089,-0.127844 0.03477,-0.05235 -0.12251,-0.232373 -0.198102,-0.232258 -0.401941,-0.417957 -0.559385,-0.673531 -0.256624,-0.447291 -0.861085,-0.295053 -1.232917,-0.114147 -0.01157,0.01742 -0.029,0.0058 -0.04062,0.02337 -0.01157,0.01742 -0.02899,0.0058 -0.04062,0.02336 -1.179482,0.525381 -0.750571,-0.271985 -0.995995,-0.963507 -0.105183,-0.296366 -0.06428,-0.168487 -0.06479,-0.470874 0.0055,-0.197696 -0.08772,-0.284771 -0.146238,-0.499813 l -0.583903,-1.394517 c -0.145843,-0.27304 -0.07025,-0.27317 -0.146238,-0.499813 -0.47885,-1.173739 -0.646831,-0.807112 0.08364,-2.058552 0.214465,-0.360912 -0.01865,-0.691917 0.358643,-1.070533 0.185717,-0.203828 0.231978,-0.349282 0.289701,-0.587798 0.167328,-0.744576 0.453278,-0.151973 0.727237,0.231317 0.215704,0.319439 0.611772,0.708336 0.798414,1.033633 0.227432,0.377561 0.611786,0.708334 0.792683,1.08016 l 0.204099,0.336891 c 0.850806,1.068431 0.559783,0.900319 0.886393,1.469582 0.16331,0.284643 0.09358,0.313833 0.256767,0.522877 l 0.273953,0.383299 c 0.326232,0.342465 0.128505,0.337029 -0.260256,0.808692 l 0.389799,0.133091 c 0.122065,0.0056 0,0 0.122065,0.0056 0.226293,-0.302726 0.40583,-0.686849 0.166934,-0.971348 l -0.332081,-0.37156 c -0.209837,-0.29037 -0.116356,-0.05217 -0.09345,-0.238244 0.290766,0.01693 0.965742,0.289058 1.193046,0.59103 0.169062,0.23808 0.309673,0.860029 0.14729,1.104526 -0.151189,2.75e-4 -0.273298,-0.0053 -0.424482,-0.0051 -0.284893,0.01212 -0.267706,-0.127455 -0.441685,0.134499 0.291002,0.168164 0.424613,0.08067 0.738713,0.138276 0.01742,0.01157 0.02899,-0.0058 0.0465,0.0057 0.186123,0.02293 0.02908,-0.0058 0.162761,-0.0177 l 0.313961,-0.018 c 0.203447,-0.04106 0.03335,-0.883901 -0.0309,-1.052407 -0.397267,-1.069212 -1.582997,-0.799674 -2.049323,-1.461757 -0.233162,-0.331034 -0.169562,-0.540476 -0.892121,-1.423055 l -0.285683,-0.44142 c -0.180924,-0.37179 -0.495281,-0.580571 -0.728443,-0.911605 -0.104938,-0.145147 -0.273848,-0.307674 -0.396205,-0.464493 l -0.332219,-0.447155 c -0.268093,-0.35422 -0.472058,-0.615532 -0.716829,-0.929105 l 0.283458,-0.843626 c 0.167882,-0.442183 0.439832,-1.192777 0.840624,-1.455112 0.163167,0.209057 0.04107,0.203438 -0.01094,0.395414 -0.0635,0.285013 0.04171,0.581402 -0.08574,0.849103 -0.08688,0.168809 -0.237894,0.320194 -0.336368,0.506461 0.139977,0.243973 0.145454,0.04626 0.140115,0.319567 3.89e-4,0.226781 -0.14427,0.634056 -0.03349,0.808307 0.116671,0.203283 0.238669,0.133277 0.360497,-0.01225 l 0.633994,-3.22827 c 0.09252,-0.290909 0.254905,-0.535406 0.306783,-0.802964 0.09799,-0.488607 -0.04706,-0.308095 0.423203,-0.750813 0.698307,0.312777 1.169052,0.172406 1.401562,0.12549 0.313825,-0.09359 0.517409,-0.05905 0.866167,-0.129432 0.17438,-0.0352 0.08713,-0.01758 0.255832,-0.0063 l 0.831113,-0.228218 c 0.429953,-0.192635 0.563274,-0.431274 1.010817,-0.536712 0.325928,0.191358 0.843875,0.434668 1.082637,0.643587 0.500878,0.458456 0.680589,0.14999 1.029993,0.457565 l -0.214603,0.285317 c -0.133976,-0.139325 -0.592732,0.210361 -0.725796,0.600177 l -0.150265,0.529399 c -0.01723,0.139559 -0.08653,0.395551 -0.109588,0.506071 -0.179333,0.535265 -0.249357,0.413255 -0.166948,0.97135 0.04133,0.354622 -0.02201,0.715243 0.379543,0.906433 0.422903,-0.902019 0.672347,-1.2397 1.497328,-1.648168 0.470608,-0.215967 0.412615,-0.128648 0.936156,-0.0074 0.285005,0.06349 0.750305,0.120801 1.018126,0.323848 -0.05147,0.494342 -0.341872,0.704156 -0.666783,1.117562 -0.249488,0.337652 -0.591822,0.739487 -0.858722,1.065588 -0.545424,0.669627 -0.643905,0.855903 -1.411317,0.950248 -0.220914,0.02945 -0.3313,0.08197 -0.558072,0.08238 -0.598861,0.03012 -0.412623,0.128642 -1.017351,0.129698 -0.453543,7.9e-4 -0.639523,0.05345 -1.081732,-0.114413 -0.360761,-0.138912 -0.558702,-0.295611 -0.878687,-0.382233 -0.366492,-0.0924 -0.412746,0.05304 -0.721774,-0.429026 -0.19237,-0.278771 -0.09345,-0.238244 -0.477668,-0.493424 -0.104111,0.308367 0.147156,1.028946 0.234878,1.313716 0.05265,0.185975 0.04706,0.308105 0.169435,0.464889 l 0.273839,0.307667 c 0.04079,0.05219 0.110681,0.09862 0.163074,0.133415 0.128149,0.110219 0.267859,0.203009 0.390112,0.284203 0.628713,0.417563 1.798562,1.043518 2.311185,1.560093 0.320344,0.313447 0.111037,0.325428 0.524321,0.574741 0.88479,0.56253 0.704156,0.341871 1.466216,0.520775 0.476997,0.115462 0.621928,-0.140638 0.988411,-0.04824 0.570063,0.126941 1.73299,0.1191 2.407578,0.164442 0,0 0.180218,-0.0061 0.180218,-0.0061 0.116273,-0.02346 0.121952,-0.07001 0.249977,-0.03531 l 0.09887,0.04056 c 0.645914,0.277981 0.710957,0.900046 1.124499,1.300536 0.337813,0.325048 1.797507,0.438791 2.070677,0.368537 0.360368,-0.08785 1.069738,-0.0949 1.37237,0.05576 l 0.768038,0.283587 c 0.762034,0.178923 0.657258,0.109336 1.372233,-0.01983 1.586889,-0.305118 1.266529,-0.618562 1.847408,-0.962641 0.307833,-0.198228 0.226773,-3.95e-4 0.586213,-0.617379 0.09848,-0.186275 0.254905,-0.535405 0.335965,-0.733237 0.09843,-0.261812 0.08054,-0.500202 0.196397,-0.750443 0.261276,-0.203988 0.644866,-0.32674 0.800995,-0.827086 0.109888,-0.354864 0.115059,-0.703775 0.434103,-1.14625 0.267859,0.203008 0.09905,0.116129 0.192507,0.354364 0.0351,0.09876 0.163302,0.284637 0.204237,0.412486 l 0.204488,0.563672 c 0.350604,0.987889 0.25768,1.05202 -0.322266,1.925229 -0.637951,0.960545 -2.220623,3.684581 -2.451423,4.714187 -0.149999,0.680583 -0.876973,0.600435 -1.405845,0.752545 -0.284765,0.08772 -0.540605,0.09397 -0.790307,0.280478 -0.30198,0.227298 -0.423967,0.297286 -0.755259,0.379271 -0.621928,0.140638 -0.54621,0.216098 -1.203324,0.182348 -0.09307,-0.01147 -0.122125,-0.0055 -0.226773,3.95e-4 -0.511679,0.01252 -0.605359,-0.376944 -1.192785,-0.439839 l -0.301538,0.454141 c 0.308469,0.179763 0.255841,-0.0063 0.482741,0.06894 0.337406,0.09829 0.657752,0.411742 1.041474,0.364516 0.133695,-0.01189 0.145267,-0.02931 0.267432,-0.02374 0.273302,0.0053 0.430085,-0.117032 0.714984,-0.129165 0.180228,-0.0061 0.284902,-0.01211 0.453416,-0.07638 1.098281,-0.40312 0.592474,-0.361538 1.639015,-0.421505 l 0.348888,0.0052 c 0.290636,-0.05865 0.621928,-0.140638 0.877511,-0.298076 0.360092,-0.239034 0.580732,-0.41968 0.765923,-0.925883 l 1.17071,-2.217438 c 0.127586,-0.192104 0.138912,-0.36076 0.22588,-0.52951 l 0.991254,-1.757771 c 0.191407,-0.250392 0.388869,-0.396101 0.423205,-0.750813 l -0.0063,-0.255825 c -0.01225,-0.360497 0.127061,-0.49448 0.07388,-0.98282 -0.04118,-0.279036 0.03452,-0.203582 -0.08225,-0.482484 -0.05252,-0.110332 -0.05838,-0.139462 -0.09346,-0.238236 l -0.45564,-1.208667 c -0.257025,-0.674055 -0.169973,-0.767245 0.212794,-1.343565 0.475561,-0.71604 0.550237,-1.245311 0.990996,-1.908949 0.01724,-0.139567 0.0053,-0.273307 -0.02398,-0.418618 l -0.04681,-0.156885 c -0.01751,-0.01163 -0.0059,-0.02906 -0.02337,-0.04062 -0.12277,-0.383564 -0.477925,-0.644601 -0.594835,-0.999088 -0.140237,-0.395165 0.132927,-0.465411 0.254253,-0.913355 l 0.132143,-0.918964 -0.170883,-1.296372 c -0.07143,-0.953494 -0.0945,-0.842971 -0.456438,-1.662218 -0.05838,-0.139462 -0.0351,-0.09876 -0.02946,-0.220905 0.01709,-0.215153 0.0055,-0.197695 -0.169296,-0.389293 -0.09905,-0.116129 -0.05235,-0.03477 -0.139872,-0.168349 -0.186531,-0.249681 -0.792024,-0.702204 -1.03092,-0.986704 0.191084,-0.477117 0.341442,-0.93095 0.724474,-1.356087 l 0.951907,-0.978527 c 0.12773,-0.116518 0.209055,-0.163167 0.36023,-0.163439 l 0.639653,0.02214 c 0.02899,-0.0058 0.110494,0.02304 0.127988,0.03466 0.01751,0.01163 0.02908,-0.0058 0.0465,0.0057 l 0.07565,-1.02e-4 c 0,0 0.029,-0.0058 0.0465,0.0057 0.313962,-0.01798 0.337407,0.09829 0.663115,0.138398 0.389688,0.05747 0.872428,0.126408 1.250384,0.125747 0.494207,-0.02411 1.372103,-0.09542 1.675254,0.357596 l 0.565646,0.929372 c 0.104939,0.145148 0.08748,0.133553 0.163316,0.284633 0.245158,0.540339 0.762842,0.632441 0.839196,1.085893 -0.0519,0.267546 -0.817888,1.117866 -0.986299,1.257697 -0.191545,0.174797 -0.68527,0.501258 -0.789661,0.658436 0.541394,0.359569 1.116273,-0.08916 1.55769,-0.374856 0.627277,-0.413939 0.754459,-0.832821 0.950848,-1.583269 -0.238762,-0.208919 -0.285561,-0.365822 -0.512727,-0.592199 -0.326242,-0.342471 -0.343699,-0.354066 -0.483791,-0.673669 -0.05252,-0.110332 -0.09921,-0.191682 -0.157573,-0.331162 -0.05252,-0.110333 -0.139977,-0.243974 -0.192507,-0.354365 -0.19237,-0.27877 -0.402069,-0.493546 -0.536312,-0.784055 -0.227561,-0.453149 -0.867086,-0.3997 -1.617398,-0.520508 l -0.401281,-0.04001 c -0.250079,-0.04029 -0.500079,-0.005 -0.756047,-0.07428 -1.076262,-0.312117 -0.703785,-0.115064 -1.500609,-0.241605 -0.110494,-0.02304 -0.645519,-0.05121 -0.750177,-0.04522 -0.302366,5.33e-4 -0.946701,0.629641 -1.295202,0.851201 l -0.348492,0.221567 c -0.389161,0.2449 -0.841042,1.228337 -1.53786,1.747097 l -0.616717,-0.208258 c -0.494479,-0.127061 -1.023483,-0.05056 -1.51769,-0.02644 -0.872169,0.02478 -0.808569,-0.184658 -1.536339,-0.718341 -0.512356,-0.365392 -0.913606,-0.405438 -1.385261,-0.794232 0.0055,-0.197686 0.04626,-0.145454 -0.122647,-0.307966 0.191221,-0.401523 0.06281,-0.662986 -0.03664,-1.005878 -0.05266,-0.185981 -0.116775,-0.278908 -0.151967,-0.453287 -0.146238,-0.499813 -0.216887,-0.999754 -0.50257,-1.441175 -0.180775,-0.296228 -0.547662,-0.6154 -0.821349,-0.847515 l -1.071217,-0.736564 c -0.355026,-0.185447 -0.715516,-0.1732 -1.070527,-0.35865 -0.663496,-0.365212 -0.640293,-0.400147 -1.39049,-0.44531 -0.273307,-0.0053 -0.587397,-0.06294 -0.826031,-0.196268 0.14501,-0.180533 0.342759,-0.175032 0.557797,-0.233562 l 0.883506,-0.19342 c 0.372084,-0.02972 0.84244,-0.396873 1.278391,-0.484837 0.174379,-0.0352 0.197581,-0.07013 0.319568,-0.140115 0.243973,-0.139977 0.220905,-0.02946 0.459006,-0.1985 0.104525,-0.08158 0.0232,-0.03493 0.145153,-0.104949 0.162658,-0.0933 0.877769,-0.146898 1.145075,-0.246207 0.01157,-0.01742 0.02899,-0.0058 0.04062,-0.02337 0.197581,-0.07013 0.203447,-0.04106 0.401159,-0.03558 0.209311,-0.01201 0.703253,-0.187301 0.95322,-0.222622 l 1.906448,-0.445238 c 0.215048,-0.05852 0.371961,-0.105321 0.633529,-0.158106 0.325572,-0.03545 0.354497,-0.116903 0.627666,-0.187158 0.127844,-0.04089 0.145267,-0.02931 0.302238,-0.07612 0.523009,-0.181164 1.040274,-0.315799 1.522492,-0.549226 0.302101,-0.151715 0.604598,-0.07664 0.918294,-0.245818 0.121951,-0.07001 0.168349,-0.139872 0.307839,-0.198236 0.238244,-0.09345 0.348757,-0.07038 0.621799,-0.216227 l 0.377726,-0.15173 c 0,0 0.02908,-0.0058 0.04072,-0.0233 0,0 0.02908,-0.0058 0.04072,-0.0233 0,0 0.139469,-0.05839 0.168486,-0.06428 l 1.226003,-0.519642 c 0.732177,-0.268755 1.38265,-0.71762 2.126565,-0.928246 l 0.929637,-0.414463 c 0.209176,-0.08758 0.383419,-0.19837 0.580865,-0.344076 l 1.173216,-0.781212 c 0.18586,-0.128242 0.09291,-0.06408 0.273032,-0.14585 0.110333,-0.05252 0.01742,0.01157 0.127844,-0.04089 0.08134,-0.04666 0.08134,-0.04666 0.156748,-0.122404 0.267176,-0.174912 0.610068,-0.274363 0.87138,-0.478328 0.27287,-0.221447 0.01735,-0.06393 0.307831,-0.198227 l 2.387615,-1.283403 c 0.04062,-0.02337 0.121946,-0.07 0.121946,-0.07 l 2.248027,-1.300594 c 0.191689,-0.09922 0.365837,-0.285563 0.586609,-0.390606 0.02908,-0.0058 0.110332,-0.05252 0.12195,-0.07001 l 0.958174,-0.722695 c 0.01163,-0.01751 0.02906,-0.0059 0.04062,-0.02337 l 1.945014,-1.678022 c 0.08134,-0.04666 0.243973,-0.139977 0.307829,-0.198241 l 1.712894,-1.404325 c 0.104524,-0.08158 0.162659,-0.0933 0.284636,-0.163302 0.04062,-0.02337 0.104535,-0.08159 0.145153,-0.104949 0.01164,-0.01751 0.05219,-0.04079 0.08135,-0.04666 l 0.07538,-0.07572 c 0.539823,-0.547518 1.649027,-1.346065 1.962474,-1.666425 0.121905,-0.145548 0.197318,-0.221295 0.319265,-0.291308 0.708608,-0.460593 3.180778,-3.273401 3.215048,-3.62816 -0.0703,-0.27317 -0.1113,-0.476612 -0.33262,-0.673926 -0.18621,-0.09857 -2.37785,0.207655 -2.906858,0.284161 l -4.411498,1.071779 c -0.104641,0.0059 -0.389421,0.09371 -0.505678,0.11717 -0.488204,0.128776 -0.383684,0.04718 -1.051882,0.333274 l -0.726319,0.297816 c -0.06971,0.02915 0.01163,-0.01751 -0.121951,0.07001 -0.226479,0.151597 -0.342886,0.09944 -0.650862,0.222085 -0.557805,0.233556 -1.539827,0.613228 -2.01605,0.951312 -0.331034,0.233162 -0.732048,0.344344 -1.115603,0.467119 -0.598604,0.181302 -1.080692,0.490318 -1.626888,0.706413 l -1.010965,0.461112 c -0.139468,0.05839 -0.116129,0.09905 -0.290756,-0.01692 z"
   id="path1"
   style="stroke-width:0.0209651;fill:#ffffff;fill-opacity:1" />
 </g>
</svg>
