<?xml version="1.0" encoding="UTF-8" standalone="no"?>
<svg
   viewBox="0 0 100 100"
   version="1.1"
   id="svg1"
   width="1"
   height="1"
   xmlns="http://www.w3.org/2000/svg"
   xmlns:svg="http://www.w3.org/2000/svg">
  <defs
     id="defs1" />
  <path
     id="path2-2"
     style="fill:#ffffff;fill-opacity:1;stroke-width:0.124865"
     d="m 3.876855,80.323642 c 0.4504573,-0.305269 0.9793525,-0.688586 1.1753194,-0.851818 1.7035851,-1.419042 2.5172625,-2.162389 3.0468667,-2.783354 0.8141538,-0.954741 1.2061179,-1.291819 2.5361209,-2.180989 0.886439,-0.59261 1.311346,-0.989903 2.10831,-1.971234 0.548995,-0.675997 1.021777,-1.332215 1.050637,-1.458314 0.134778,-0.588873 0.780584,-1.587377 1.253308,-1.937755 0.279172,-0.20692 0.621723,-0.51129 0.761233,-0.676383 0.139503,-0.165094 0.322848,-0.341963 0.407424,-0.393057 0.523039,-0.315953 1.754709,-1.648022 2.103699,-2.275104 0.225315,-0.404915 1.047624,-1.471939 1.827344,-2.371136 0.779712,-0.899199 1.487092,-1.789204 1.571908,-1.977947 0.117032,-0.260488 0.221482,-0.327686 0.433665,-0.279123 0.354815,0.08121 1.454685,-0.600201 2.316661,-1.435376 0.356058,-0.344958 0.658611,-0.676325 0.67235,-0.736357 0.01374,-0.06003 0.187206,-0.25346 0.385479,-0.429849 l 0.360497,-0.320693 -0.02095,0.378628 c -0.01766,0.32001 0.04005,0.398906 0.37298,0.509536 0.332938,0.110632 0.490959,0.06695 1.02545,-0.28535 1.244774,-0.820452 2.046938,-1.751761 3.572141,-4.147092 l 0.533896,-0.83851 -0.208406,1.358132 c -0.247638,1.613793 -0.248388,2.056059 -0.0039,2.297492 0.147188,0.145306 0.23915,0.133471 0.471812,-0.06074 0.670042,-0.559283 1.554686,-1.807551 2.155856,-3.041972 0.06171,-0.12678 0.04734,0.08234 -0.03203,0.46468 -0.07937,0.382344 -0.124025,0.840475 -0.0993,1.018048 0.108703,0.780839 1.554686,0.151069 2.574205,-1.12114 0.539091,-0.67272 0.659568,-0.758483 1.088359,-0.774796 0.465433,-0.01771 1.105554,-0.41759 1.607908,-1.00439 0.149778,-0.174974 0.315257,-0.216057 0.604045,-0.149961 0.252288,0.05774 0.614384,-0.0029 0.99012,-0.16579 0.780932,-0.338585 1.478668,-1.223804 2.304145,-2.923106 1.089388,-2.242734 1.510199,-2.915753 2.522167,-4.034122 0.396108,-0.437728 0.833818,-0.856327 0.972691,-0.93022 0.138874,-0.07389 0.358067,-0.288803 0.4871,-0.477594 0.206911,-0.302712 0.215376,-0.429329 0.07174,-1.07237 -0.235703,-1.055487 -0.949745,-2.285448 -1.743259,-3.002495 -0.373729,-0.337765 -0.846363,-0.925983 -1.050297,-1.307151 -0.614205,-1.14797 -1.011836,-4.192373 -0.840689,-6.436732 0.03171,-0.415455 0.05962,-1.273707 0.06203,-1.907218 0.0047,-1.271082 0.03646,-1.643812 0.309081,-3.643981 0.214076,-1.570497 0.202097,-1.924727 -0.109183,-3.227338 -0.503493,-2.106967 -0.560477,-2.208267 -1.83829,-3.26506 -1.003651,-0.83006 -1.034472,-0.845696 -2.141869,-1.086828 -1.243068,-0.270678 -2.288695,-0.303168 -2.922816,-0.09082 -0.228953,0.07665 -0.507119,0.15849 -0.618144,0.181845 -0.111017,0.02335 -0.768587,0.286279 -1.461282,0.584253 -0.864283,0.371809 -1.620375,0.824344 -2.409971,1.44233 -0.632791,0.495332 -1.501336,1.172502 -1.930132,1.505013 -0.428796,0.332512 -0.916585,0.797177 -1.084001,1.03284 -0.167416,0.235663 -0.460839,0.634485 -0.65207,0.886269 -0.191233,0.251782 -0.359223,0.50818 -0.373322,0.569782 -0.0141,0.0616 -0.175084,0.232652 -0.357733,0.380146 -0.182657,0.147491 -0.454455,0.482145 -0.60399,0.743676 -0.242558,0.424234 -0.678533,1.054778 -1.047441,1.514898 -0.07163,0.08928 -0.352818,0.572528 -0.624959,1.073853 -0.272149,0.501326 -0.67737,1.215574 -0.900516,1.587211 -0.769845,1.282151 -1.560774,2.850378 -2.20089,4.36384 -0.353183,0.835037 -0.938894,2.14204 -1.301592,2.904447 -0.765511,1.609142 -1.177563,2.632197 -1.125619,2.794723 0.02011,0.063 -0.07235,0.330063 -0.205363,0.593468 -0.133085,0.263388 -0.460346,1.00534 -0.727276,1.648763 -0.26693,0.643423 -0.577726,1.263997 -0.69065,1.379055 -0.21832,0.222449 -0.91595,1.924663 -1.078844,2.632375 -0.05355,0.232802 -0.259111,0.762175 -0.456719,1.176408 -0.197609,0.414232 -0.442821,0.993429 -0.544936,1.287129 -0.102144,0.293693 -0.322589,0.790801 -0.489965,1.104751 -0.167369,0.313952 -0.658293,1.585006 -1.090928,2.824568 -0.432635,1.239562 -0.932545,2.623844 -1.110918,3.076181 -0.178403,0.452328 -0.458306,1.19526 -0.622047,1.650941 -0.163703,0.455696 -0.462645,1.280729 -0.664199,1.833443 -0.201536,0.55271 -0.576359,1.648591 -0.832909,2.435291 -0.256528,0.786706 -0.518324,1.562597 -0.581717,1.724219 -0.328149,0.836554 -1.0076967,2.454471 -1.2249913,2.9166 -0.1358974,0.288912 -0.3977909,0.894304 -0.5820538,1.345238 -0.5515064,1.349806 -0.7790126,1.798962 -1.6279361,3.214039 -0.4459489,0.743352 -0.9641096,1.662319 -1.1514795,2.042149 -0.5813325,1.178498 -1.5277661,2.846658 -1.6691038,2.942021 -0.074077,0.04994 -0.1511628,0.162658 -0.1712484,0.250416 -0.020055,0.08776 -0.1946455,0.367716 -0.3879151,0.622134 -0.9404639,1.237979 -1.1718838,1.605158 -1.3649125,2.16558 -0.1860562,0.540105 -0.1826205,0.635193 0.031092,0.871756 0.1319557,0.14604 0.2741718,0.273378 0.3160298,0.282958 0.041897,0.0096 0.4446741,-0.232347 0.8951391,-0.537616 z m 2.0411074,-2.81653 c 0.00622,-0.02887 0.3744133,-0.502554 0.8173229,-1.052552 0.4429173,-0.549998 0.8257722,-1.089483 0.8507945,-1.198806 0.0385,-0.168213 0.9052923,-1.898027 1.6705729,-3.333914 0.1171216,-0.219768 0.4517958,-0.945017 0.7436813,-1.611698 0.291893,-0.666687 0.564743,-1.233409 0.606378,-1.25962 0.193622,-0.121505 -0.249724,1.255551 -0.7039157,2.186473 -1.1260926,2.307985 -2.0871521,4.086666 -2.5053153,4.636554 -0.2430095,0.319649 -0.6299997,0.840727 -0.8599893,1.158021 -0.2299819,0.317296 -0.4661511,0.565802 -0.5248456,0.552369 -0.058687,-0.01342 -0.1013142,-0.04807 -0.094707,-0.07694 z m 3.4166068,-3.174845 c 0.034194,-0.149414 0.6733678,-1.088267 0.7057648,-1.03666 0.0685,0.109167 -0.4931425,1.126541 -0.6074587,1.100377 -0.059029,-0.01351 -0.1032295,-0.04221 -0.098304,-0.06372 z m 2.0801688,-1.840999 c 0.193182,-0.212957 0.390707,-0.55965 0.438949,-0.770431 0.04824,-0.210781 0.176826,-0.539857 0.285725,-0.731294 0.108886,-0.191447 0.33594,-0.691166 0.504521,-1.110516 0.168545,-0.419359 0.47417,-1.098764 0.679085,-1.509799 0.453559,-0.909799 1.126647,-2.546243 1.34782,-3.276865 0.128032,-0.422826 0.121673,-0.556004 -0.02849,-0.622254 -0.235258,-0.103761 -0.321879,0.04449 -0.8119,1.38935 -0.213212,0.585259 -0.631435,1.5271 -0.929317,2.092988 -0.297881,0.565888 -0.903196,1.743131 -1.345166,2.616127 -0.441971,0.872996 -0.843264,1.612096 -0.891803,1.642619 -0.214189,0.134405 -0.155204,-0.139935 0.160549,-0.74677 0.18753,-0.360367 0.431887,-1.049513 0.543027,-1.53145 0.111073,-0.481959 0.348507,-1.154022 0.527523,-1.493636 0.179013,-0.339607 0.326745,-0.651622 0.328314,-0.693421 0.0044,-0.118729 0.312387,-0.706859 0.724544,-1.38385 0.230593,-0.378781 0.737094,-1.70211 1.307299,-3.415511 l 0.930859,-2.797159 0.67239,-0.550624 c 0.612683,-0.501716 1.522002,-1.576776 2.178627,-2.575622 0.502227,-0.764033 0.939733,-1.307827 1.094714,-1.36074 0.208102,-0.07095 -0.321887,1.635996 -1.024093,3.298314 -0.284933,0.674524 -0.620582,1.519983 -0.74589,1.878787 -0.125263,0.358814 -0.342407,0.914355 -0.482483,1.234557 -0.140106,0.320188 -0.527557,1.240253 -0.861078,2.044567 -0.586118,1.413482 -1.048084,2.410635 -1.502276,3.242789 -0.119625,0.219203 -0.558649,1.123852 -0.975579,2.01029 -0.416931,0.886446 -0.819693,1.658995 -0.894988,1.716567 -0.07529,0.05757 -0.340069,0.432962 -0.58834,0.834073 -0.60249,0.973379 -1.000117,1.437981 -0.996511,1.1643 0.0015,-0.114502 0.160806,-0.382416 0.353987,-0.595365 z m 0.186499,-5.365818 c 0.218307,-0.363356 0.587327,-1.049382 0.820075,-1.524537 0.555717,-1.134499 0.589442,-1.193045 0.6404,-1.111848 0.08453,0.134691 -0.956144,2.237621 -1.486017,3.00288 -0.442308,0.638808 -0.42444,0.382456 0.02553,-0.366585 z m 4.311247,-0.82157 c 0.01199,-0.05012 0.226643,-0.50534 0.477066,-1.011631 0.250432,-0.506297 0.623968,-1.371903 0.830081,-1.923565 0.541387,-1.448959 1.293875,-3.022528 2.125653,-4.445111 0.841626,-1.439417 1.86122,-2.944549 2.034762,-3.003718 0.06599,-0.02248 0.148342,-0.165042 0.183069,-0.316776 0.03473,-0.151733 0.289781,-0.636477 0.566783,-1.077204 0.277002,-0.440728 0.519839,-0.87074 0.539657,-0.955588 0.0864,-0.370539 0.517144,-1.016551 0.631297,-0.947064 0.363244,0.221093 -0.469336,1.714075 -2.233217,4.004567 -0.956968,1.242655 -2.158987,3.40991 -2.49017,4.489775 -0.328881,1.072419 -2.410252,5.340671 -2.584822,5.300716 -0.056,-0.01282 -0.09205,-0.06429 -0.08009,-0.114401 z m -3.423027,-3.197502 c 0.402161,-0.957964 1.028898,-2.682357 1.392748,-3.831991 0.609978,-1.927311 1.239794,-3.602864 1.507335,-4.010198 0.06034,-0.09187 0.320061,-0.666488 0.577163,-1.276935 0.257101,-0.610447 0.580613,-1.372215 0.718931,-1.692817 0.138363,-0.32059 0.429543,-1.089759 0.64716,-1.709242 0.217617,-0.619484 0.466844,-1.311791 0.553834,-1.538463 0.08696,-0.226676 0.293404,-0.784671 0.458691,-1.240003 0.165294,-0.45533 0.539761,-1.436005 0.832174,-2.179274 0.292405,-0.743269 0.609893,-1.621702 0.705521,-1.952073 0.09563,-0.330371 0.265375,-0.737671 0.377193,-0.905104 0.20728,-0.310403 0.889097,-1.93004 1.43915,-3.418643 0.300268,-0.812638 0.681391,-1.653246 1.367988,-3.017343 0.19079,-0.379043 0.7255,-1.46715 1.188265,-2.418009 0.462758,-0.950861 0.990352,-1.970528 1.172452,-2.265994 0.1821,-0.295464 0.349505,-0.617657 0.372028,-0.716066 0.02253,-0.09841 0.239494,-0.427217 0.48215,-0.7307 0.242648,-0.303486 0.598464,-0.841409 0.790682,-1.195402 0.192218,-0.353994 0.559226,-0.912668 0.815546,-1.241461 0.256326,-0.328792 0.559431,-0.720583 0.673553,-0.870593 0.114121,-0.150009 0.409993,-0.491423 0.657504,-0.758699 0.24751,-0.267275 0.520191,-0.608361 0.605991,-0.757961 0.08583,-0.149594 0.326465,-0.416482 0.534837,-0.593058 0.208371,-0.176577 0.390604,-0.372456 0.404988,-0.435299 0.02134,-0.09328 1.677286,-1.582867 2.259361,-2.032344 0.08496,-0.06564 0.167168,-0.174516 0.182605,-0.24196 0.07397,-0.323197 1.532989,-0.983749 2.92223,-1.323165 1.893121,-0.462398 3.081093,-0.405419 4.260005,0.204313 0.826241,0.427347 1.386522,0.922749 1.640316,1.450364 0.45872,0.953712 0.577314,3.115694 0.310324,5.65566 -0.165216,1.571686 -0.249228,3.086638 -0.192889,3.478435 0.0262,0.182119 0.02114,0.757381 -0.01135,1.278346 -0.05496,0.882661 -0.05884,1.491898 -0.01866,2.941883 0.0088,0.319051 0.06817,0.725783 0.131886,0.903849 0.06374,0.178067 0.141175,0.544649 0.172142,0.814636 0.07011,0.611009 0.530357,1.903554 0.833149,2.339846 0.12503,0.180111 0.608313,0.651447 1.074006,1.047434 0.933235,0.793629 0.98191,0.870057 1.27626,2.004462 0.252679,0.973997 0.06187,1.500946 -0.780525,2.155612 -0.114816,0.08924 -0.501215,0.458519 -0.919142,0.878431 -0.08565,0.08607 -0.56511,0.854998 -1.065409,1.70869 -0.500306,0.853692 -0.95187,1.542921 -1.00346,1.531625 -0.117088,-0.02576 0.06217,-0.386602 0.812017,-1.634875 0.32448,-0.540151 0.625725,-1.138368 0.669464,-1.329465 0.04376,-0.191097 0.313814,-0.721731 0.600205,-1.179306 0.616172,-0.984483 1.178989,-2.678881 1.004538,-3.024183 -0.143266,-0.283623 -0.313068,-0.320783 -0.368047,-0.08057 -0.04555,0.199094 -0.55244,0.847165 -0.718069,0.918085 -0.05356,0.02297 -0.286616,0.219588 -0.517803,0.43698 -0.405288,0.381097 -1.034355,0.72863 -0.993173,0.548682 0.01104,-0.04812 0.210743,-0.290139 0.443842,-0.53781 0.469074,-0.498411 1.166863,-1.7622 1.092832,-1.979225 -0.100716,-0.295417 -0.356279,-0.182358 -0.82236,0.36379 -0.459054,0.537915 -1.435209,1.150235 -1.941243,1.21772 -0.301074,0.04016 -0.280815,-0.01164 0.186337,-0.476543 0.770446,-0.766705 1.19041,-1.35088 1.435643,-1.997091 0.137155,-0.361307 0.235438,-0.700819 0.218524,-0.754454 -0.06871,-0.217547 -0.39624,-0.02244 -0.62274,0.370948 -0.663641,1.152618 -2.035343,2.121404 -2.766749,1.954004 -0.333591,-0.07635 -0.967259,-0.717167 -1.076074,-1.088182 -0.101421,-0.345933 0.272214,-1.066025 0.71119,-1.370512 0.630277,-0.437176 1.300616,-1.094959 1.354131,-1.328778 0.02647,-0.115656 -0.03568,-0.26657 -0.138107,-0.335358 -0.132069,-0.08869 -0.391066,0.01576 -0.890464,0.359105 -1.014085,0.697222 -1.247399,0.738933 -1.538463,0.275045 -0.368485,-0.58722 -0.01936,-1.613417 0.812244,-2.387503 0.274402,-0.255409 0.430164,-0.515233 0.463241,-0.772739 0.062,-0.482391 -0.209924,-0.626403 -0.75508,-0.399903 -0.678717,0.281984 -1.023292,0.228572 -1.318459,-0.204357 -0.229191,-0.336171 -0.237978,-0.440977 -0.07081,-0.844923 0.104939,-0.253638 0.431237,-0.766626 0.725071,-1.139967 0.293827,-0.373343 0.626141,-0.942057 0.738443,-1.263719 0.194274,-0.556513 0.190262,-0.586023 -0.08227,-0.608228 -0.210701,-0.01716 -0.472275,0.189265 -0.989099,0.780618 -0.502069,0.574478 -0.757769,0.77897 -0.895758,0.71639 -0.252652,-0.114578 -0.386908,-1.004311 -0.250136,-1.657784 0.179495,-0.857766 0.197742,-2.152064 0.03639,-2.585315 -0.147751,-0.396731 -0.156559,-0.401553 -0.324946,-0.177603 -0.117078,0.155712 -0.222233,0.822917 -0.325073,2.062076 -0.146174,1.761781 -0.248215,2.203407 -0.496101,2.146672 -0.183981,-0.04211 -0.284172,-0.908639 -0.165184,-1.428521 0.132342,-0.578233 -0.09992,-1.150556 -0.446867,-1.101165 -0.243603,0.03468 -0.243414,0.03385 -0.369408,1.696597 -0.0234,0.3085 -0.08333,0.461281 -0.173041,0.440747 -0.07547,-0.01727 -0.116542,-0.127547 -0.0912,-0.245037 0.07972,-0.369237 -0.180274,-1.377919 -0.340949,-1.323158 -0.08502,0.029 -0.227926,0.40399 -0.328608,0.862425 -0.605818,2.758443 -0.976511,3.958255 -1.410231,4.564144 -0.78929,1.102597 -1.254792,2.064615 -1.720626,3.55584 -0.253305,0.81095 -0.64056,1.904047 -0.860491,2.42898 -0.219924,0.524935 -0.591757,1.487 -0.826257,2.137845 -0.2345,0.650846 -0.587736,1.539285 -0.784923,1.97425 -0.197186,0.434965 -0.403854,0.988873 -0.459221,1.230787 -0.09276,0.405272 -0.318408,0.861339 -0.740429,1.496524 -0.09145,0.137585 -0.248783,0.231272 -0.349703,0.208174 -0.156468,-0.03581 -0.126791,-0.128022 0.201568,-0.62636 0.47637,-0.72294 1.823786,-4.059848 2.071461,-5.130003 0.100349,-0.434968 0.276856,-0.970993 0.391593,-1.191313 0.114699,-0.22033 0.357918,-0.914012 0.5404,-1.541537 0.350887,-1.20665 1.215732,-3.034002 1.986988,-4.198496 0.374195,-0.564958 0.555648,-1.033781 0.94417,-2.43929 0.63662,-2.303066 0.828276,-4.656604 0.355009,-4.359634 -0.0527,0.03307 -0.360157,1.226944 -0.683296,2.653094 -0.55403,2.445065 -0.972384,3.721841 -1.202449,3.669185 -0.05577,-0.01276 -0.162015,0.07974 -0.236126,0.205552 -0.07409,0.125818 -0.292816,0.287366 -0.48601,0.358985 -0.527886,0.195714 -0.54686,-0.06209 -0.117006,-1.589268 0.229704,-0.816185 0.340786,-1.404306 0.289658,-1.533854 -0.145164,-0.367511 -0.36627,-0.06896 -0.730133,0.985865 -0.296645,0.85994 -0.542561,1.458165 -1.387408,3.375276 -0.219146,0.497291 -0.399111,-0.0117 -0.243904,-0.689836 0.163756,-0.715482 0.0598,-0.99741 -0.300645,-0.815341 -0.205565,0.103833 -0.279984,0.329308 -0.517219,1.567081 -0.152407,0.795154 -0.321404,1.435641 -0.375051,1.423363 -0.05388,-0.01233 -0.0035,-0.434929 0.111875,-0.939121 0.164797,-0.720035 0.172488,-0.941772 0.03581,-1.033566 -0.0957,-0.06427 -0.237483,-0.07703 -0.315065,-0.02835 -0.136505,0.08566 -0.475264,1.040201 -0.854484,2.407682 -0.101017,0.364363 -0.282073,0.802227 -0.402303,0.973037 -0.120223,0.170812 -0.261787,0.49929 -0.314578,0.729946 -0.05279,0.230656 -0.326263,0.89925 -0.607722,1.48578 -0.744998,1.552479 -1.005715,2.203601 -1.444284,3.606918 -0.450706,1.442169 -2.007509,5.669825 -2.43618,6.615678 -0.159132,0.351062 -0.40448,0.793578 -0.545285,0.983352 -0.140799,0.189774 -0.262764,0.37461 -0.271035,0.410748 -0.0083,0.03614 -0.332192,0.472059 -0.719819,0.968742 -0.387634,0.496683 -0.979562,1.301274 -1.315396,1.788024 -1.074222,1.556931 -1.394412,1.942092 -1.757136,2.113471 -0.322313,0.152328 -0.360843,0.147201 -0.420445,-0.05604 -0.04099,-0.139716 0.03052,-0.401979 0.190351,-0.698247 0.140783,-0.26096 0.383466,-0.906447 0.539294,-1.434448 0.15585,-0.527994 0.379026,-1.139749 0.49602,-1.359552 0.116972,-0.219809 0.314116,-0.837573 0.438048,-1.372822 0.124091,-0.535212 0.377263,-1.284259 0.562938,-1.664472 0.185676,-0.380214 0.452845,-1.05175 0.593693,-1.492321 0.140865,-0.440568 0.425766,-1.182339 0.633148,-1.648403 0.207375,-0.466066 0.650714,-1.505273 0.985204,-2.309362 0.334497,-0.804088 0.798383,-1.908404 1.030873,-2.454032 0.232489,-0.545627 0.481785,-1.164611 0.55398,-1.375492 0.07219,-0.210884 0.227897,-0.549947 0.346016,-0.753417 0.118098,-0.203475 0.320435,-0.662791 0.449608,-1.02071 0.129127,-0.35793 0.464575,-1.145789 0.74534,-1.75082 0.280757,-0.605032 0.612973,-1.335988 0.738242,-1.624349 0.125247,-0.288366 0.41514,-0.942546 0.644174,-1.453739 0.229027,-0.511195 0.517699,-1.165653 0.641469,-1.454358 0.210709,-0.491472 0.909668,-1.71308 1.263674,-2.208608 0.08649,-0.121109 0.476358,-0.838869 0.866297,-1.595041 0.852516,-1.653148 1.279359,-2.33734 2.169603,-3.477547 0.750817,-0.961711 1.036178,-1.536689 0.852566,-1.717824 -0.253212,-0.249786 -0.71994,0.185049 -1.917892,1.786804 -0.333674,0.446164 -0.631975,0.9217 -0.662886,1.056758 -0.03091,0.135059 -0.211296,0.444417 -0.400862,0.687461 -0.708828,0.908838 -0.912962,1.244656 -1.542403,2.537551 -0.354909,0.728964 -0.739124,1.505661 -0.853814,1.725992 -0.114699,0.220329 -0.287317,0.613137 -0.383626,0.872902 -0.0963,0.259767 -0.330303,0.75381 -0.520002,1.097877 -0.304274,0.551871 -0.796504,1.788041 -1.215383,3.052271 -0.159656,0.481907 -0.635822,1.563505 -1.588111,3.607433 -0.794549,1.705356 -0.757794,1.622564 -1.31559,2.965289 -0.240522,0.579016 -0.544837,1.287536 -0.676252,1.574491 -0.131384,0.286961 -0.480704,1.302215 -0.776188,2.256134 -0.295515,0.953913 -0.63064,1.914772 -0.744748,2.135237 -0.477903,0.923313 -1.362383,3.074732 -1.598579,3.88838 -0.139772,0.481435 -0.311358,1.006341 -0.381342,1.166452 -0.338809,0.775125 -1.140626,2.876982 -1.48054,3.881065 -0.688385,2.03336 -2.128874,4.973785 -2.301683,4.698281 -0.02203,-0.0351 0.288944,-0.847688 0.691109,-1.805628 z M 44.996676,44.460115 c 0.410931,-0.539321 0.616964,-1.235802 0.38151,-1.289691 -0.181641,-0.04157 -0.531981,0.465414 -0.821567,1.188975 -0.139488,0.348525 -0.156503,0.508578 -0.05636,0.531505 0.07877,0.01803 0.302171,-0.175822 0.496427,-0.43078 z M 41.08459,40.79023 c 0.514415,-0.412548 1.108782,-1.24467 1.037783,-1.452934 -0.12688,-0.372164 -0.495119,-0.16142 -1.13266,0.648232 -0.372452,0.472988 -0.690338,0.91745 -0.706415,0.987694 -0.06376,0.278576 0.341008,0.186129 0.801295,-0.183005 z M 17.177838,65.810066 c 0.01341,-0.05857 0.165113,-0.326434 0.337145,-0.595329 0.330244,-0.516187 0.957971,-1.886608 1.392903,-3.040849 0.199595,-0.529591 0.365552,-0.759783 0.713572,-0.989524 0.24944,-0.164668 0.745454,-0.636073 1.102264,-1.047621 1.112378,-1.282915 1.365568,-1.538285 1.551962,-1.565564 0.142271,-0.02082 0.140388,0.06683 -0.0089,0.412076 -0.104243,0.241193 -0.299581,0.586275 -0.434033,0.766858 -0.134451,0.18058 -0.322915,0.532664 -0.418813,0.782408 -0.09591,0.249733 -0.267059,0.498775 -0.380364,0.553413 -0.113305,0.05464 -0.444096,0.448346 -0.735094,0.874899 -0.8194,1.201128 -1.644094,2.208264 -1.902511,2.323455 -0.05621,0.02509 -0.273245,0.378882 -0.482308,0.786264 -0.209064,0.40739 -0.414082,0.776162 -0.45561,0.819502 -0.104248,0.10882 -0.309996,0.05005 -0.280213,-0.08008 z m 2.734875,-6.147156 c 0.483849,-1.013049 1.015209,-1.865947 1.31157,-2.105287 0.186315,-0.150446 0.363347,-0.380949 0.393389,-0.51221 0.03004,-0.131261 0.167491,-0.36584 0.305426,-0.521262 0.35652,-0.401713 1.496453,-2.13189 2.064784,-3.133779 0.7089,-1.249858 1.183732,-1.970077 1.776828,-2.695252 0.290726,-0.35544 0.550822,-0.743484 0.578022,-0.862329 0.0272,-0.118845 0.191218,-0.406831 0.364478,-0.639978 0.269467,-0.362586 0.31248,-0.383355 0.297457,-0.143582 -0.0097,0.154159 -0.179969,0.595397 -0.37838,0.980523 -0.198433,0.385121 -0.394321,0.846398 -0.43528,1.025078 -0.04096,0.178681 -0.68042,1.310176 -1.421012,2.51448 -0.740587,1.204307 -1.531465,2.493172 -1.75752,2.864144 -0.757775,1.243667 -1.33678,1.984236 -2.184431,2.794102 -0.875011,0.836035 -1.174823,0.978618 -0.915341,0.435327 z m 2.666202,-0.117218 c 0.235589,-0.336676 0.530082,-0.616037 0.660773,-0.626822 0.371974,-0.0307 1.414995,-0.804177 1.934656,-1.434679 0.569829,-0.691418 1.201044,-1.241744 1.377827,-1.201283 0.200468,0.04588 -0.143787,0.642171 -0.467483,0.810197 -0.156478,0.08115 -0.294274,0.190257 -0.30622,0.242451 -0.03969,0.173411 -1.42781,1.570665 -2.149035,2.163143 -0.631248,0.518588 -1.339441,0.868212 -1.439633,0.710727 -0.0197,-0.03098 0.15538,-0.329682 0.389131,-0.66373 z m 0.880294,-1.74222 c -0.113025,-0.180118 0.348241,-0.689898 1.046365,-1.156353 0.772366,-0.516086 1.418618,-1.067824 1.459402,-1.246019 0.01404,-0.06132 0.226322,-0.380428 0.471763,-0.709111 0.245433,-0.328684 0.688326,-0.986043 0.98424,-1.460833 0.295914,-0.474789 0.768014,-1.131163 1.049166,-1.458782 0.281153,-0.327619 0.529486,-0.675623 0.551864,-0.773398 0.05247,-0.229244 0.703785,-1.315204 0.747261,-1.245947 0.01817,0.02895 -0.175229,0.689312 -0.429788,1.467453 -0.443309,1.355221 -0.487826,1.436491 -1.05587,1.927865 -0.649718,0.562039 -1.328187,1.333949 -2.349482,2.672937 -0.365976,0.479851 -0.821536,0.980829 -1.012339,1.113288 -0.190809,0.132457 -0.516668,0.418141 -0.72413,0.634852 -0.351985,0.367679 -0.604478,0.447719 -0.738514,0.234112 z m 3.297463,0.09538 c 0.05126,-0.530184 0.318933,-1.134277 0.656957,-1.482837 0.119609,-0.123327 0.849565,-1.358183 1.224931,-2.072217 0.144336,-0.27457 0.495111,-1.068041 0.779504,-1.76324 0.387521,-0.947367 0.611435,-1.339542 0.893664,-1.56508 0.872204,-0.697301 0.878906,-0.175757 0.01555,1.208976 -0.391599,0.628069 -0.502842,0.894483 -0.425188,1.018228 0.06597,0.105134 0.154809,0.133607 0.238355,0.07639 0.285411,-0.195437 1.213325,-1.806131 1.448351,-2.514114 0.209703,-0.631594 0.325296,-0.797817 0.754907,-1.085258 0.550619,-0.368407 0.576009,-0.340718 0.236894,0.258235 -0.123387,0.217879 -0.442406,0.977191 -0.709023,1.687398 -0.296628,0.790185 -0.650639,1.504393 -0.912329,1.840693 -0.235198,0.302219 -0.546161,0.752941 -0.691031,1.00159 -0.254089,0.436109 -0.489847,0.789655 -1.350595,2.025395 -0.576099,0.827096 -1.881096,2.038476 -2.133779,1.980644 -0.04668,-0.01068 -0.05892,-0.287287 -0.02728,-0.614688 z m -6.58358,-1.894754 c 0.142431,-0.300036 0.361121,-0.839165 0.485964,-1.198024 0.124884,-0.358901 0.302081,-0.779484 0.39385,-0.934608 0.0918,-0.155119 0.336128,-0.571788 0.542992,-0.925914 0.336659,-0.576303 0.68525,-0.839965 0.822139,-0.621822 0.02711,0.04319 -0.07794,0.323121 -0.233523,0.622054 -0.155545,0.298943 -0.397882,0.834222 -0.538533,1.189578 -0.229483,0.579698 -1.266699,2.296558 -1.578239,2.612354 -0.22416,0.227235 -0.168282,-0.167212 0.105346,-0.74353 z m 4.149318,-0.142036 c 0.0485,-0.211887 0.964824,-1.81241 1.461868,-2.553421 0.219059,-0.326575 0.52746,-0.875644 0.685333,-1.220154 0.217046,-0.473651 0.339703,-0.614342 0.502991,-0.57697 0.493401,0.112927 0.821962,-0.318281 3.033438,-3.981151 1.032607,-1.710306 1.450197,-2.537647 2.086588,-4.133814 0.437588,-1.097525 1.035697,-2.534267 1.329159,-3.192753 0.293454,-0.658487 0.648314,-1.557188 0.788591,-1.997108 0.14024,-0.439929 0.39885,-1.055153 0.574606,-1.367185 0.567261,-1.007041 0.959773,-1.821382 1.042661,-2.163123 0.11495,-0.474371 0.260593,-0.376593 0.382799,0.257107 0.116165,0.602356 0.154707,0.505487 -1.120354,2.815271 -0.295327,0.534974 -0.655504,1.317159 -0.800402,1.738216 -0.14493,0.42105 -0.396816,0.994391 -0.559843,1.274111 -0.470658,0.807624 -1.622584,3.478878 -1.762174,4.086374 -0.06996,0.304544 -0.187157,0.594752 -0.260345,0.64493 -0.0732,0.05018 -0.345639,0.446077 -0.605391,0.879788 -0.259758,0.43371 -0.566906,0.882192 -0.682543,0.996629 -0.189394,0.187414 -0.569925,0.842559 -1.150222,1.980308 -0.177986,0.348952 -0.535204,0.87774 -1.160546,1.717915 -0.785167,1.054941 -0.93195,1.279122 -0.982819,1.50138 -0.06961,0.304136 -0.556205,1.005036 -0.843025,1.214292 -0.112947,0.08241 -0.32473,0.353076 -0.470623,0.601492 -0.613348,1.044335 -1.618748,2.041774 -1.489681,1.477855 z m 2.688974,-0.55529 c 0.06671,-0.291467 0.313831,-0.478657 0.416312,-0.315348 0.07993,0.127382 -0.229971,0.670673 -0.36492,0.639786 -0.06569,-0.01503 -0.0888,-0.161023 -0.05139,-0.324441 z m 4.615187,0.376244 c 0.0065,-0.192249 0.120588,-0.699334 0.253141,-1.12693 0.13278,-0.427546 0.243526,-1.003396 0.246082,-1.279698 0.005,-0.534886 0.449088,-2.003976 0.835522,-2.763897 0.128346,-0.252431 0.299389,-0.602368 0.380055,-0.777648 0.289396,-0.628879 0.375566,-0.254773 0.145101,0.629961 -0.211287,0.810972 -0.218231,1.200516 -0.01921,1.075651 0.135405,-0.08497 0.637295,-1.299935 0.751658,-1.819569 0.115231,-0.524379 0.644014,-1.449805 1.701271,-2.978467 0.189297,-0.273708 0.410716,-0.640936 0.492048,-0.816064 0.209488,-0.45112 0.414069,-0.345168 0.221583,0.114762 -0.231612,0.553426 -1.057613,2.249878 -1.416925,2.910073 -0.448541,0.824151 -0.658754,1.310524 -0.831279,1.923291 -0.381198,1.354066 -0.877767,2.820709 -0.986062,2.912616 -0.06541,0.05548 -0.199339,0.273689 -0.297678,0.484902 -0.09834,0.211213 -0.289084,0.51341 -0.423884,0.671547 -0.134802,0.158137 -0.266781,0.380736 -0.29329,0.494642 -0.07475,0.319661 -0.455476,0.766408 -0.62146,0.728419 -0.08186,-0.01873 -0.143498,-0.19136 -0.136952,-0.383604 z m -9.389088,-5.811889 c 0.18611,-0.461441 0.424948,-1.107374 0.530751,-1.435378 0.358058,-1.110155 0.559169,-1.595011 0.678435,-1.635733 0.181741,-0.06197 0.498433,-0.873128 1.125589,-2.882987 0.174411,-0.558921 0.381598,-1.087924 0.460439,-1.175556 0.225058,-0.250177 -0.448428,2.033844 -0.959413,3.253808 -0.252702,0.603281 -0.521735,1.255549 -0.597858,1.44948 -0.07612,0.193933 -0.345385,0.881655 -0.598365,1.528271 -0.252979,0.646616 -0.613476,1.544026 -0.801131,1.994238 -0.327543,0.785863 -0.337886,0.797086 -0.259015,0.280718 0.04522,-0.295808 0.234465,-0.915381 0.420552,-1.376827 z m 12.48479,4.406865 c 0.07388,-0.141609 0.319596,-0.791487 0.545981,-1.444191 0.571873,-1.648848 0.813964,-2.203678 1.471144,-3.371482 0.314322,-0.558564 0.622086,-1.153802 0.683915,-1.322697 0.326473,-0.891914 2.272616,-3.835306 2.501203,-3.782988 0.148156,0.03391 0.07406,0.179452 -0.322087,0.632695 -0.572899,0.655464 -1.22956,1.761426 -1.840276,3.099468 -0.305702,0.669775 -0.72206,1.583221 -0.925225,2.029883 -0.203173,0.446661 -0.529202,1.236676 -0.724503,1.755589 -0.435563,1.157244 -1.257599,2.722373 -1.411348,2.687185 -0.06229,-0.01426 -0.05275,-0.141768 0.02116,-0.283369 z M 23.68225,51.385038 c 0.07478,-0.326753 0.574569,-0.904622 0.896881,-1.036982 0.143938,-0.05912 0.279069,-0.183299 0.30028,-0.275975 0.04176,-0.182479 0.305414,-0.316558 0.382105,-0.194326 0.05316,0.08476 -0.376251,0.925238 -0.685436,1.341435 -0.235087,0.316475 -0.749038,0.605608 -0.867983,0.488283 -0.04469,-0.0441 -0.05634,-0.18923 -0.02585,-0.322487 z m 12.592801,1.903358 c 0.302522,-0.547212 0.67172,-1.284115 0.820441,-1.63756 0.148752,-0.353439 0.562185,-1.267554 0.918792,-2.031355 0.356599,-0.763804 0.709535,-1.54766 0.784271,-1.741909 0.07476,-0.194245 0.252964,-0.508022 0.396042,-0.697275 0.143072,-0.189254 0.278468,-0.417655 0.300879,-0.507559 0.02218,-0.08996 0.269827,-0.541322 0.549826,-1.003152 0.279997,-0.461831 0.535426,-0.950972 0.567646,-1.086974 0.0744,-0.314594 0.345254,-0.588182 0.437147,-0.441746 0.03855,0.06149 -0.241985,0.687316 -0.623496,1.390709 -0.381511,0.703393 -0.751177,1.409907 -0.821472,1.569947 -0.07028,0.160044 -0.383047,0.780167 -0.695007,1.378058 -0.31196,0.597891 -0.683561,1.42013 -0.825771,1.827072 -0.142181,0.406949 -0.457348,1.113062 -0.700272,1.568993 -0.242924,0.455931 -0.528494,0.997749 -0.634575,1.203975 -0.106049,0.206234 -0.311182,0.488754 -0.455734,0.627725 -0.144553,0.138971 -0.282053,0.336777 -0.305573,0.439543 -0.02352,0.102767 -0.09232,0.17552 -0.152978,0.161638 -0.06061,-0.01387 0.137348,-0.472935 0.439832,-1.020156 z M 23.627296,49.061864 c 0.71182,-1.4225 1.171193,-2.717812 1.810256,-5.104475 0.458603,-1.712818 1.116122,-3.347958 1.382743,-3.438855 0.164001,-0.05591 0.113687,0.154511 -0.218567,0.913856 -0.147117,0.336188 -0.531507,1.625041 -0.854278,2.864129 -0.588642,2.259734 -1.044314,3.59368 -1.346027,3.940163 -0.08892,0.102142 -0.315119,0.575213 -0.502631,1.051281 -0.187504,0.47607 -0.461413,0.982091 -0.608677,1.124515 -0.438179,0.423744 -0.326106,-0.02516 0.337205,-1.350685 z m 14.721869,3.122767 c 0.230599,-0.40006 0.453949,-0.892378 0.496324,-1.094035 0.07826,-0.373311 1.069337,-2.819774 1.566805,-3.868497 0.150715,-0.317763 0.42272,-0.774288 0.604408,-1.014511 0.181697,-0.240222 0.460211,-0.623204 0.618936,-0.851069 0.345195,-0.49556 0.646487,-0.508096 0.426089,-0.01774 -0.08186,0.182064 -0.351201,0.595967 -0.598588,0.919772 -0.875331,1.14567 -1.812778,3.077327 -2.095922,4.318696 -0.184299,0.808067 -1.215973,2.687452 -1.354266,2.467118 -0.04814,-0.07674 0.09306,-0.437943 0.336214,-0.859736 z m -3.411367,-1.056225 c 0.182146,-0.588188 0.558455,-1.459395 0.836202,-1.936127 0.277747,-0.476731 0.67717,-1.201911 0.887624,-1.61168 0.621281,-1.209579 1.307173,-2.302152 1.828564,-2.912697 0.611754,-0.716384 0.669526,-0.484453 0.07404,0.297239 -0.92849,1.218814 -2.609973,4.423925 -3.362111,6.408369 -0.517543,1.365515 -0.708308,1.188636 -0.264273,-0.245043 z M 24.518215,49.412632 c 0.03152,-0.137723 0.136867,-0.224862 0.242583,-0.200667 0.149142,0.03413 0.149306,0.08588 8.55e-4,0.25639 -0.102323,0.117485 -0.211448,0.207793 -0.242575,0.200669 -0.03114,-0.0072 -0.03153,-0.1225 -8.55e-4,-0.25639 z m 3.288125,-0.164881 c 0.181054,-0.334619 0.657778,-1.12861 1.059377,-1.764383 0.545686,-0.863927 0.827317,-1.463059 1.114492,-2.370846 0.37672,-1.190887 0.619115,-1.793799 1.375608,-3.421658 0.207151,-0.44575 0.497786,-1.099759 0.645879,-1.453348 0.14807,-0.353595 0.364884,-0.822752 0.481772,-1.042579 0.116896,-0.219827 0.410628,-0.844306 0.652742,-1.387732 0.522171,-1.172059 2.096269,-4.050514 2.439692,-4.461233 0.379627,-0.454066 0.542404,-0.426136 0.224658,0.03855 -0.157756,0.230701 -0.354938,0.495277 -0.438198,0.587931 -0.140819,0.156735 -0.780354,1.403357 -1.745829,3.40302 -0.222732,0.461321 -0.476096,1.152682 -0.56304,1.536356 -0.08701,0.383657 -0.383546,1.164756 -0.659127,1.735709 -0.275588,0.570951 -0.629338,1.393344 -0.786061,1.827321 -0.156739,0.433976 -0.429008,1.034636 -0.605018,1.334607 -0.176011,0.299972 -0.607188,1.257894 -0.958144,2.128667 -0.350964,0.870771 -0.777154,1.753145 -0.947121,1.960824 -0.169966,0.207681 -0.525654,0.731529 -0.790433,1.164077 -0.766509,1.252172 -1.15654,1.395907 -0.501189,0.184736 z m 11.466961,2.869441 c 0.02067,-0.08333 0.20148,-0.366836 0.401903,-0.629965 0.200423,-0.263128 0.511418,-0.854849 0.691088,-1.314908 0.715334,-1.831724 2.375742,-4.829792 2.534624,-4.576564 0.02697,0.043 -0.139892,0.398685 -0.370807,0.790409 -0.511336,0.867408 -1.70804,3.42909 -1.809972,3.874456 -0.04065,0.177623 -0.217888,0.583286 -0.393846,0.901459 -0.175966,0.31817 -0.384813,0.722171 -0.464099,0.897766 -0.09896,0.219154 -0.219772,0.301958 -0.385287,0.264076 -0.132608,-0.03035 -0.224245,-0.123377 -0.203622,-0.206721 z m -8.634934,-2.021005 c 0.01937,-0.08462 1.108349,-1.31868 1.636409,-1.85443 0.381982,-0.387533 0.633973,-0.750583 1.035802,-1.492199 1.072278,-1.979062 1.228875,-2.361831 1.77296,-4.333689 0.378323,-1.37112 0.678142,-2.234125 0.906915,-2.610496 0.187963,-0.309238 0.41243,-0.746644 0.498816,-0.972006 0.08635,-0.22537 0.268726,-0.615945 0.405214,-0.867961 l 0.248172,-0.458201 0.02645,0.390336 c 0.0527,0.777704 -0.232685,1.729555 -0.686577,2.289966 -0.632021,0.780274 -0.942468,1.451307 -1.054617,2.279641 -0.252391,1.864154 -2.245448,5.406958 -3.896885,6.927083 -0.234496,0.215852 -0.483945,0.490202 -0.554316,0.60967 -0.115915,0.196726 -0.378604,0.268463 -0.3383,0.09236 z m 9.892705,1.796498 c 0.09602,-0.206993 0.225343,-0.480015 0.287409,-0.606713 0.06209,-0.126692 0.183089,-0.414443 0.268932,-0.639416 0.152454,-0.399577 0.398782,-0.66082 0.488417,-0.518 0.04942,0.0788 -0.623248,1.531669 -0.892283,1.927133 -0.253425,0.372483 -0.351979,0.267139 -0.15247,-0.16299 z M 25.773178,46.92368 c 0.268087,-0.701403 0.577641,-1.658161 0.687895,-2.126089 0.110284,-0.46792 0.357655,-1.275937 0.549751,-1.795584 0.192133,-0.519639 0.528379,-1.480241 0.74724,-2.134665 0.218837,-0.654431 0.521608,-1.50741 0.672778,-1.895521 0.534084,-1.371209 1.417317,-2.771002 1.228858,-1.947581 -0.03831,0.167363 -0.133231,0.344502 -0.210904,0.393654 -0.226678,0.143399 -1.990414,5.055173 -2.675582,7.451138 -0.226902,0.793489 -0.572772,1.780708 -0.768572,2.193831 -0.1958,0.413122 -0.414793,0.874172 -0.486642,1.024557 -0.07182,0.150391 -0.153502,0.23699 -0.181438,0.192476 -0.02793,-0.04452 0.168535,-0.654838 0.436644,-1.356236 z m 2.440199,-0.02466 c 0.405039,-0.65356 0.625089,-1.222286 1.105221,-2.856395 0.560876,-1.908963 0.825174,-2.666351 1.593629,-4.566874 0.628807,-1.555119 2.237781,-4.483491 2.438264,-4.437606 0.05827,0.01334 0.05603,0.113699 -0.0051,0.223014 -0.250999,0.44965 -1.668831,3.629691 -2.008131,4.504027 -0.640702,1.65103 -1.29367,3.398781 -1.498972,4.012117 -0.677908,2.025386 -1.063615,2.831844 -1.987963,4.156386 -0.135236,0.193802 -0.153452,0.193949 -0.148459,0.0012 0.0031,-0.120878 0.23327,-0.586977 0.511429,-1.035791 z m 4.817141,1.555124 c 0.39935,-0.362692 1.820083,-2.21179 1.874889,-2.440062 0.02233,-0.0941 0.173167,-0.381692 0.334708,-0.639208 0.190738,-0.304043 0.403936,-0.951361 0.608082,-1.846281 0.269073,-1.179121 0.406113,-1.539223 0.949858,-2.493965 0.664216,-1.16632 0.762574,-1.292013 0.873139,-1.115813 0.03692,0.05888 -0.106692,0.424703 -0.31911,0.81295 -0.890533,1.627283 -1.137409,2.220471 -1.299651,3.122778 -0.375967,2.090907 -0.41461,2.187868 -1.320004,3.312567 -0.46545,0.578158 -1.088458,1.203209 -1.38446,1.38896 -0.611971,0.384019 -0.789659,0.327031 -0.317472,-0.101831 z M 31.49172,47.48873 c 0.02267,-0.09906 0.165359,-0.369031 0.317074,-0.599924 0.82215,-1.251222 1.563275,-2.871581 2.060616,-4.505209 0.162111,-0.532352 0.5968,-1.556937 0.966044,-2.276728 0.369244,-0.719791 0.920254,-1.855149 1.224412,-2.522843 0.587445,-1.289568 0.750521,-1.497801 1.108739,-1.415814 0.26238,0.06005 0.223629,0.13896 -0.551371,1.122747 -0.293891,0.373071 -0.698521,1.058632 -0.899186,1.523466 -0.200666,0.464835 -0.545396,1.227717 -0.766051,1.695226 -0.220655,0.467509 -0.391967,0.961953 -0.380675,1.098767 0.01127,0.136809 -0.101362,0.523005 -0.250405,0.858201 -0.149041,0.335196 -0.428677,1.005672 -0.6215,1.489927 -0.711196,1.786046 -0.84956,2.064237 -1.443529,2.902318 -0.569669,0.803808 -0.85849,1.041875 -0.764196,0.629885 z m -6.190353,-5.465345 c 0.122354,-0.176818 0.171648,-0.197816 0.145982,-0.06216 -0.05153,0.272153 -0.300835,0.637046 -0.317554,0.464751 -0.0072,-0.07459 0.06994,-0.255758 0.171561,-0.402582 z m 12.431465,1.740774 c 0.488569,-0.790102 0.678916,-1.00398 0.767651,-0.862558 0.05042,0.08039 -0.544997,1.030902 -0.951795,1.519368 -0.385756,0.46318 -0.284006,0.100278 0.184132,-0.656788 z M 25.727856,40.801332 c 0.178665,-0.425639 0.387582,-0.795281 0.464279,-0.82142 0.08259,-0.02815 0.09153,0.03945 0.02194,0.16578 -0.06457,0.117337 -0.257099,0.51316 -0.427741,0.879637 -0.420011,0.901952 -0.462606,0.738785 -0.05849,-0.223986 z m 10.824343,3.046172 c 0.04744,-0.207274 1.220666,-2.136471 1.365514,-2.245375 0.02995,-0.0225 0.08014,8.2e-5 0.111598,0.0502 0.03143,0.05011 -0.259068,0.626841 -0.645596,1.28164 -0.665597,1.12755 -0.952684,1.442948 -0.831519,0.913548 z m 6.54728,0.336843 c 0.148108,-0.283954 0.379707,-0.379921 0.323422,-0.134027 -0.06529,0.285161 -0.268365,0.537493 -0.359932,0.447175 -0.04602,-0.04543 -0.02961,-0.186337 0.03653,-0.313136 z M 39.687373,42.809 c 0.282726,-0.374424 0.315325,-0.388188 0.301951,-0.127542 -0.01569,0.305843 -0.579335,0.955025 -0.604446,0.696164 -0.008,-0.08189 0.128181,-0.337768 0.302495,-0.568622 z M 27.072411,39.821548 c 0.08236,-0.232008 0.204433,-0.409314 0.271218,-0.394029 0.06683,0.0153 0.06836,0.106822 0.0034,0.203407 -0.06485,0.0966 -0.148996,0.311304 -0.186952,0.477144 -0.03796,0.16584 -0.106939,0.26412 -0.153268,0.218406 -0.04631,-0.04571 -0.01687,-0.272936 0.06557,-0.504926 z m 6.147341,-6.600695 c 0.07197,-0.314457 0.448551,-0.800015 0.594556,-0.766599 0.108247,0.02477 -0.160671,0.79398 -0.341797,0.977573 -0.151347,0.153428 -0.306519,0.02392 -0.252762,-0.210961 z m 62.903379,47.102789 c -0.450457,-0.305269 -0.979352,-0.688586 -1.175319,-0.851818 -1.703585,-1.419042 -2.517263,-2.162389 -3.046865,-2.783354 -0.814152,-0.954741 -1.206117,-1.291819 -2.53612,-2.180989 -0.886441,-0.59261 -1.311348,-0.989903 -2.108314,-1.971234 -0.548996,-0.675997 -1.021778,-1.332215 -1.050639,-1.458314 -0.134777,-0.588873 -0.78058,-1.587377 -1.253307,-1.937755 -0.27917,-0.20692 -0.621721,-0.51129 -0.761232,-0.676383 -0.139504,-0.165094 -0.322847,-0.341963 -0.407426,-0.393057 -0.523034,-0.315953 -1.754708,-1.648022 -2.103696,-2.275104 -0.22531,-0.404915 -1.047623,-1.471939 -1.82734,-2.371136 -0.779717,-0.899199 -1.487098,-1.789204 -1.57191,-1.977947 -0.117031,-0.260488 -0.221485,-0.327686 -0.433667,-0.279123 -0.354817,0.08121 -1.454684,-0.600201 -2.31666,-1.435376 -0.356058,-0.344958 -0.658611,-0.676325 -0.67235,-0.736357 -0.01374,-0.06003 -0.187206,-0.25346 -0.385479,-0.429849 l -0.360497,-0.320693 0.02095,0.378628 c 0.01766,0.32001 -0.04005,0.398906 -0.37298,0.509536 -0.332938,0.110632 -0.490959,0.06695 -1.02545,-0.28535 -1.244774,-0.820452 -2.046938,-1.751761 -3.572141,-4.147092 l -0.533896,-0.83851 0.208406,1.358132 c 0.247638,1.613793 0.248388,2.056059 0.0039,2.297492 -0.147187,0.145306 -0.23915,0.133471 -0.471812,-0.06074 -0.670042,-0.559283 -1.554686,-1.807551 -2.155856,-3.041972 -0.06171,-0.12678 -0.04734,0.08234 0.03203,0.46468 0.07938,0.382344 0.124025,0.840475 0.0993,1.018048 -0.108703,0.780839 -1.554686,0.151069 -2.574204,-1.12114 -0.539092,-0.67272 -0.659569,-0.758483 -1.088359,-0.774796 -0.465433,-0.01771 -1.105555,-0.41759 -1.607908,-1.00439 -0.149779,-0.174974 -0.315258,-0.216057 -0.604046,-0.149961 -0.252288,0.05774 -0.614384,-0.0029 -0.99012,-0.16579 -0.780932,-0.338585 -1.478668,-1.223804 -2.304145,-2.923106 -1.089388,-2.242734 -1.510199,-2.915753 -2.522167,-4.034122 -0.396108,-0.437728 -0.833817,-0.856327 -0.972691,-0.93022 -0.138874,-0.07389 -0.358067,-0.288803 -0.4871,-0.477594 -0.206911,-0.302712 -0.215376,-0.429329 -0.07174,-1.07237 0.235703,-1.055487 0.949745,-2.285448 1.743259,-3.002495 0.373729,-0.337765 0.846363,-0.925983 1.050297,-1.307151 0.614205,-1.14797 1.011836,-4.192373 0.840689,-6.436732 -0.03171,-0.415455 -0.05962,-1.273707 -0.06203,-1.907218 -0.0047,-1.271082 -0.03646,-1.643812 -0.309081,-3.643981 -0.214062,-1.570498 -0.202084,-1.924728 0.109196,-3.227339 0.503493,-2.106967 0.560478,-2.208267 1.838291,-3.26506 1.00365,-0.83006 1.034471,-0.845696 2.141869,-1.086828 1.243068,-0.270678 2.288694,-0.303168 2.922815,-0.09082 0.228953,0.07665 0.507119,0.15849 0.618144,0.181845 0.111018,0.02335 0.768588,0.286279 1.461282,0.584253 0.864284,0.371809 1.620375,0.824344 2.409971,1.44233 0.632791,0.495332 1.501336,1.172502 1.930132,1.505013 0.428796,0.332512 0.916585,0.797177 1.084001,1.03284 0.167416,0.235663 0.460839,0.634485 0.652071,0.886269 0.191232,0.251782 0.359223,0.50818 0.373322,0.569782 0.0141,0.0616 0.175083,0.232652 0.357733,0.380146 0.182657,0.147491 0.454455,0.482145 0.603989,0.743676 0.242559,0.424234 0.678533,1.054778 1.047441,1.514898 0.07163,0.08928 0.352819,0.572528 0.624959,1.073853 0.272149,0.501326 0.677371,1.215574 0.900516,1.587211 0.769845,1.282151 1.560771,2.850378 2.200891,4.36384 0.353185,0.835037 0.938894,2.14204 1.301593,2.904447 0.765507,1.609142 1.177558,2.632197 1.125618,2.794723 -0.02013,0.063 0.07237,0.330063 0.205365,0.593468 0.133083,0.263388 0.460344,1.00534 0.727272,1.648763 0.266927,0.643423 0.577726,1.263997 0.690653,1.379055 0.218314,0.222449 0.915947,1.924663 1.07884,2.632375 0.05356,0.232802 0.259115,0.762175 0.456722,1.176408 0.197607,0.414232 0.442816,0.993429 0.544931,1.287129 0.102146,0.293693 0.322591,0.790801 0.489968,1.104751 0.16737,0.313952 0.658294,1.585006 1.090927,2.824568 0.432634,1.239562 0.932543,2.623844 1.11092,3.076181 0.1784,0.452328 0.458308,1.19526 0.622048,1.650941 0.163701,0.455696 0.462645,1.280729 0.664201,1.833443 0.201532,0.55271 0.576358,1.648591 0.832908,2.435291 0.256527,0.786706 0.518324,1.562597 0.581713,1.724219 0.328148,0.836554 1.007701,2.454471 1.224997,2.9166 0.135897,0.288912 0.397787,0.894304 0.582048,1.345238 0.551507,1.349806 0.779017,1.798962 1.627938,3.214039 0.445948,0.743352 0.964109,1.662319 1.151479,2.042149 0.581332,1.178498 1.527766,2.846658 1.669104,2.942021 0.07408,0.04994 0.151163,0.162658 0.171248,0.250416 0.02005,0.08776 0.194646,0.367716 0.387916,0.622134 0.940463,1.237979 1.171883,1.605158 1.364912,2.16558 0.186056,0.540105 0.18262,0.635193 -0.03109,0.871756 -0.131956,0.14604 -0.274172,0.273378 -0.31603,0.282958 -0.0419,0.0096 -0.444674,-0.232347 -0.895139,-0.537616 z m -2.041107,-2.81653 c -0.0062,-0.02887 -0.374413,-0.502554 -0.817323,-1.052552 -0.442917,-0.549998 -0.825772,-1.089483 -0.850794,-1.198806 -0.03848,-0.168213 -0.90529,-1.898027 -1.670573,-3.333914 -0.117124,-0.219768 -0.451794,-0.945017 -0.74368,-1.611698 -0.291895,-0.666687 -0.564745,-1.233409 -0.606378,-1.25962 -0.193619,-0.121505 0.249726,1.255551 0.703914,2.186473 1.126093,2.307985 2.087155,4.086666 2.505315,4.636554 0.24301,0.319649 0.63,0.840727 0.85999,1.158021 0.229981,0.317296 0.466151,0.565802 0.524845,0.552369 0.05869,-0.01342 0.101314,-0.04807 0.09471,-0.07694 z m -3.416607,-3.174845 c -0.0342,-0.149414 -0.673366,-1.088267 -0.705764,-1.03666 -0.06848,0.109167 0.493139,1.126541 0.607458,1.100377 0.059,-0.01351 0.103234,-0.04221 0.09831,-0.06372 z M 88.58525,72.491268 c -0.193184,-0.212957 -0.390706,-0.55965 -0.438953,-0.770431 -0.04827,-0.210781 -0.176822,-0.539857 -0.285723,-0.731294 -0.108885,-0.191447 -0.335936,-0.691166 -0.504519,-1.110516 -0.168543,-0.419359 -0.474173,-1.098764 -0.679086,-1.509799 -0.453559,-0.909799 -1.126645,-2.546243 -1.34782,-3.276865 -0.12803,-0.422826 -0.121672,-0.556004 0.02845,-0.622254 0.235259,-0.103761 0.321875,0.04449 0.811897,1.38935 0.213215,0.585259 0.631438,1.5271 0.929317,2.092988 0.29788,0.565888 0.9032,1.743131 1.345169,2.616127 0.441969,0.872996 0.843262,1.612096 0.891805,1.642619 0.214187,0.134405 0.155205,-0.139935 -0.160553,-0.74677 -0.187526,-0.360367 -0.431888,-1.049513 -0.543027,-1.53145 -0.111069,-0.481959 -0.348506,-1.154022 -0.527519,-1.493636 -0.179014,-0.339607 -0.326749,-0.651622 -0.328319,-0.693421 -0.0047,-0.118729 -0.312385,-0.706859 -0.724544,-1.38385 -0.230588,-0.378781 -0.737089,-1.70211 -1.307298,-3.415511 L 84.81367,60.149396 84.141276,59.598772 c -0.612681,-0.501716 -1.521998,-1.576776 -2.178621,-2.575622 -0.502233,-0.764033 -0.939733,-1.307827 -1.09472,-1.36074 -0.208101,-0.07095 0.321891,1.635996 1.024094,3.298314 0.284938,0.674524 0.620587,1.519983 0.745889,1.878787 0.125263,0.358814 0.342411,0.914355 0.48249,1.234557 0.140102,0.320188 0.52755,1.240253 0.861077,2.044567 0.586113,1.413482 1.048082,2.410635 1.502271,3.242789 0.119627,0.219203 0.55865,1.123852 0.975582,2.01029 0.416932,0.886446 0.819694,1.658995 0.894984,1.716567 0.07532,0.05757 0.340072,0.432962 0.588344,0.834073 0.60249,0.973379 1.000114,1.437981 0.996507,1.1643 -0.0016,-0.114502 -0.160801,-0.382416 -0.353985,-0.595365 z M 88.398751,67.12545 c -0.218307,-0.363356 -0.587326,-1.049382 -0.820075,-1.524537 -0.55572,-1.134499 -0.58944,-1.193045 -0.6404,-1.111848 -0.08452,0.134691 0.956142,2.237621 1.486017,3.00288 0.442311,0.638808 0.424441,0.382456 -0.0255,-0.366585 z m -4.311249,-0.82157 c -0.01197,-0.05012 -0.226639,-0.50534 -0.477064,-1.011631 -0.250433,-0.506297 -0.623968,-1.371903 -0.830079,-1.923565 -0.541387,-1.448959 -1.293882,-3.022528 -2.125655,-4.445111 -0.841629,-1.439417 -1.861223,-2.944549 -2.034765,-3.003718 -0.06599,-0.02248 -0.148341,-0.165042 -0.183071,-0.316776 -0.03475,-0.151733 -0.28978,-0.636477 -0.566781,-1.077204 -0.277002,-0.440728 -0.51984,-0.87074 -0.539654,-0.955588 -0.0864,-0.370539 -0.517142,-1.016551 -0.631297,-0.947064 -0.363245,0.221093 0.469338,1.714075 2.233219,4.004567 0.956966,1.242655 2.158986,3.40991 2.490165,4.489775 0.328887,1.072419 2.410251,5.340671 2.584826,5.300716 0.05597,-0.01282 0.09205,-0.06429 0.08009,-0.114401 z m 3.423028,-3.197502 c -0.402164,-0.957964 -1.028899,-2.682357 -1.392748,-3.831991 -0.609977,-1.927311 -1.239797,-3.602864 -1.507339,-4.010198 -0.06032,-0.09187 -0.320056,-0.666488 -0.577158,-1.276935 -0.257102,-0.610447 -0.580617,-1.372215 -0.718931,-1.692817 -0.138361,-0.32059 -0.429548,-1.089759 -0.647163,-1.709242 -0.217615,-0.619484 -0.466843,-1.311791 -0.553831,-1.538463 -0.08697,-0.226676 -0.293403,-0.784671 -0.458689,-1.240003 -0.165295,-0.45533 -0.539762,-1.436005 -0.832178,-2.179274 -0.292407,-0.743269 -0.60989,-1.621702 -0.705522,-1.952073 -0.09562,-0.330371 -0.265373,-0.737671 -0.377189,-0.905104 -0.207284,-0.310403 -0.889099,-1.93004 -1.439153,-3.418643 -0.300266,-0.812638 -0.681387,-1.653246 -1.36799,-3.017343 -0.19079,-0.379043 -0.725497,-1.46715 -1.188262,-2.418009 -0.462758,-0.950861 -0.990352,-1.970528 -1.172452,-2.265994 -0.1821,-0.295464 -0.349504,-0.617657 -0.372028,-0.716066 -0.02253,-0.09841 -0.239493,-0.427217 -0.482149,-0.7307 -0.242649,-0.303486 -0.598465,-0.841409 -0.790683,-1.195402 -0.192218,-0.353994 -0.559226,-0.912668 -0.815546,-1.241461 -0.256326,-0.328792 -0.559431,-0.720583 -0.673552,-0.870593 -0.114122,-0.150009 -0.409994,-0.491423 -0.657504,-0.758699 -0.247511,-0.267275 -0.520191,-0.608361 -0.605991,-0.757961 -0.08583,-0.149594 -0.326466,-0.416482 -0.534837,-0.593058 -0.208372,-0.176577 -0.390605,-0.372456 -0.404988,-0.435299 -0.02134,-0.09328 -1.677287,-1.582867 -2.259362,-2.032344 -0.08496,-0.06564 -0.167168,-0.174516 -0.182605,-0.24196 -0.07397,-0.323197 -1.532988,-0.983749 -2.92223,-1.323165 -1.89312,-0.462398 -3.081093,-0.405419 -4.260004,0.204313 -0.826242,0.427347 -1.386523,0.922749 -1.640317,1.450364 -0.45872,0.953712 -0.577313,3.115694 -0.310324,5.65566 0.165217,1.571686 0.249228,3.086638 0.192889,3.478435 -0.0262,0.182119 -0.02114,0.757381 0.01135,1.278346 0.05495,0.882661 0.05884,1.491898 0.01866,2.941883 -0.0088,0.319051 -0.06817,0.725783 -0.131886,0.903849 -0.06374,0.178067 -0.141174,0.544649 -0.172142,0.814636 -0.07011,0.611009 -0.530357,1.903554 -0.833149,2.339846 -0.12503,0.180111 -0.608313,0.651447 -1.074005,1.047434 -0.933235,0.793629 -0.98191,0.870057 -1.276261,2.004462 -0.252679,0.973997 -0.06187,1.500946 0.780525,2.155612 0.114816,0.08924 0.501216,0.458519 0.919143,0.878431 0.08565,0.08607 0.56511,0.854998 1.065408,1.70869 0.500306,0.853692 0.95187,1.542921 1.003461,1.531625 0.117088,-0.02576 -0.06217,-0.386602 -0.812018,-1.634875 -0.324479,-0.540151 -0.625725,-1.138368 -0.669464,-1.329465 -0.04376,-0.191097 -0.313814,-0.721731 -0.600205,-1.179306 -0.616172,-0.984483 -1.178989,-2.678881 -1.004538,-3.024183 0.143266,-0.283623 0.313069,-0.320783 0.368048,-0.08057 0.04555,0.199094 0.55244,0.847165 0.718068,0.918085 0.05356,0.02297 0.286617,0.219588 0.517803,0.43698 0.405288,0.381097 1.034355,0.72863 0.993173,0.548682 -0.01104,-0.04812 -0.210743,-0.290139 -0.443842,-0.53781 -0.469074,-0.498411 -1.166862,-1.7622 -1.092832,-1.979225 0.100716,-0.295417 0.356279,-0.182358 0.82236,0.36379 0.459055,0.537915 1.435209,1.150235 1.941243,1.21772 0.301074,0.04016 0.280816,-0.01164 -0.186337,-0.476543 -0.770446,-0.766705 -1.19041,-1.35088 -1.435642,-1.997091 -0.137156,-0.361307 -0.235439,-0.700819 -0.218525,-0.754454 0.06871,-0.217547 0.39624,-0.02244 0.62274,0.370948 0.663641,1.152618 2.035343,2.121404 2.766749,1.954004 0.333592,-0.07635 0.967259,-0.717167 1.076074,-1.088182 0.101421,-0.345933 -0.272214,-1.066025 -0.71119,-1.370512 -0.630277,-0.437176 -1.300615,-1.094959 -1.354131,-1.328778 -0.02647,-0.115656 0.03568,-0.26657 0.138107,-0.335358 0.132069,-0.08869 0.391066,0.01576 0.890464,0.359105 1.014085,0.697222 1.247399,0.738933 1.538464,0.275045 0.368484,-0.58722 0.01935,-1.613417 -0.812245,-2.387503 -0.274401,-0.255409 -0.430164,-0.515233 -0.46324,-0.772739 -0.06201,-0.482391 0.209923,-0.626403 0.755079,-0.399903 0.678717,0.281984 1.023292,0.228572 1.318459,-0.204357 0.229191,-0.336171 0.237978,-0.440977 0.07081,-0.844923 -0.104939,-0.253638 -0.431237,-0.766626 -0.725071,-1.139967 -0.293826,-0.373343 -0.626141,-0.942057 -0.738443,-1.263719 -0.194274,-0.556513 -0.190262,-0.586023 0.08227,-0.608228 0.2107,-0.01716 0.472274,0.189265 0.989098,0.780618 0.50207,0.574478 0.757769,0.77897 0.895759,0.71639 0.25266,-0.114579 0.386917,-1.004312 0.250144,-1.657785 -0.179495,-0.857766 -0.197742,-2.152064 -0.03639,-2.585315 0.14775,-0.396731 0.156558,-0.401553 0.324945,-0.177603 0.117078,0.155712 0.222234,0.822917 0.325073,2.062076 0.146174,1.761781 0.248215,2.203407 0.496101,2.146672 0.183981,-0.04211 0.284172,-0.908639 0.165184,-1.428521 -0.132342,-0.578233 0.09992,-1.150556 0.446867,-1.101165 0.243603,0.03468 0.243414,0.03385 0.369409,1.696597 0.0234,0.3085 0.08333,0.461281 0.173041,0.440747 0.07547,-0.01727 0.116541,-0.127547 0.0912,-0.245037 -0.07973,-0.369237 0.180274,-1.377919 0.340949,-1.323158 0.08502,0.029 0.227926,0.40399 0.328608,0.862425 0.605818,2.758443 0.976511,3.958255 1.410232,4.564144 0.789289,1.102597 1.254792,2.064615 1.720625,3.55584 0.253305,0.81095 0.64056,1.904047 0.860491,2.42898 0.219924,0.524935 0.591757,1.487 0.826257,2.137845 0.2345,0.650846 0.587736,1.539285 0.784923,1.97425 0.197186,0.434965 0.403854,0.988873 0.459221,1.230787 0.09276,0.405272 0.318408,0.861339 0.74043,1.496524 0.09145,0.137585 0.248782,0.231272 0.349702,0.208174 0.156468,-0.03581 0.126792,-0.128022 -0.201568,-0.62636 -0.47637,-0.72294 -1.823786,-4.059848 -2.07146,-5.130003 -0.10035,-0.434968 -0.276857,-0.970993 -0.391594,-1.191313 -0.114698,-0.22033 -0.357918,-0.914012 -0.5404,-1.541537 -0.350887,-1.20665 -1.215732,-3.034002 -1.986987,-4.198496 -0.374196,-0.564958 -0.555648,-1.033781 -0.944171,-2.43929 -0.636619,-2.303066 -0.828275,-4.656604 -0.355009,-4.359634 0.0527,0.03307 0.360158,1.226944 0.683297,2.653094 0.554029,2.445065 0.972383,3.721841 1.202448,3.669185 0.05577,-0.01276 0.162015,0.07974 0.236126,0.205552 0.07409,0.125818 0.292817,0.287366 0.48601,0.358985 0.527886,0.195714 0.546861,-0.06209 0.117006,-1.589268 -0.229704,-0.816185 -0.340786,-1.404306 -0.289658,-1.533854 0.145164,-0.367511 0.36627,-0.06896 0.730133,0.985865 0.296645,0.85994 0.542561,1.458165 1.387408,3.375276 0.219147,0.497291 0.399111,-0.0117 0.243904,-0.689836 -0.163755,-0.715482 -0.0598,-0.99741 0.300645,-0.815341 0.205565,0.103833 0.279985,0.329308 0.51722,1.567081 0.152406,0.795154 0.321404,1.435641 0.37505,1.423363 0.05387,-0.01233 0.0035,-0.434929 -0.111875,-0.939121 -0.164797,-0.720035 -0.172488,-0.941772 -0.03581,-1.033566 0.0957,-0.06427 0.237483,-0.07703 0.315065,-0.02835 0.136505,0.08566 0.475264,1.040201 0.854485,2.407682 0.101016,0.364363 0.282072,0.802227 0.402302,0.973037 0.120223,0.170812 0.261787,0.49929 0.314579,0.729946 0.05279,0.230656 0.326263,0.89925 0.607721,1.48578 0.744996,1.552479 1.005712,2.203601 1.444285,3.606918 0.450706,1.442169 2.007504,5.669825 2.436181,6.615678 0.159131,0.351062 0.40448,0.793578 0.545281,0.983352 0.140802,0.189774 0.262769,0.37461 0.271039,0.410748 0.0082,0.03614 0.33219,0.472059 0.719818,0.968742 0.387635,0.496683 0.979562,1.301274 1.315398,1.788024 1.074215,1.556931 1.394411,1.942092 1.757134,2.113471 0.32231,0.152328 0.360841,0.147201 0.420445,-0.05604 0.04096,-0.139716 -0.03055,-0.401979 -0.190355,-0.698247 -0.140778,-0.26096 -0.383461,-0.906447 -0.539287,-1.434448 -0.155851,-0.527994 -0.379031,-1.139749 -0.496023,-1.359552 -0.11697,-0.219809 -0.314118,-0.837573 -0.438052,-1.372822 -0.124103,-0.535205 -0.377272,-1.284252 -0.562947,-1.664465 -0.185676,-0.380214 -0.452844,-1.05175 -0.593692,-1.492321 -0.140871,-0.440568 -0.42577,-1.182339 -0.633148,-1.648403 -0.207378,-0.466066 -0.650715,-1.505273 -0.985206,-2.309362 -0.334498,-0.804088 -0.798387,-1.908404 -1.030872,-2.454032 -0.232493,-0.545627 -0.481791,-1.164611 -0.553979,-1.375492 -0.07221,-0.210884 -0.227899,-0.549947 -0.346018,-0.753417 -0.118097,-0.203475 -0.320437,-0.662791 -0.44961,-1.02071 -0.129127,-0.35793 -0.464574,-1.145789 -0.745337,-1.75082 -0.280755,-0.605032 -0.612976,-1.335988 -0.738244,-1.624349 -0.125247,-0.288366 -0.41514,-0.942546 -0.644174,-1.453739 -0.229027,-0.511195 -0.517699,-1.165653 -0.641469,-1.454358 -0.210709,-0.491472 -0.909668,-1.71308 -1.263674,-2.208608 -0.08649,-0.121109 -0.476358,-0.838869 -0.866297,-1.595041 -0.852516,-1.653148 -1.279359,-2.33734 -2.169603,-3.477547 -0.750816,-0.961711 -1.036178,-1.536689 -0.852566,-1.717824 0.253212,-0.249786 0.71994,0.185049 1.917892,1.786804 0.333674,0.446164 0.631975,0.9217 0.662887,1.056758 0.03091,0.135059 0.211295,0.444417 0.400862,0.687461 0.708827,0.908838 0.912962,1.244656 1.542402,2.537551 0.354909,0.728964 0.739124,1.505661 0.853815,1.725992 0.114698,0.220329 0.287317,0.613137 0.383626,0.872902 0.09629,0.259767 0.330302,0.75381 0.520001,1.097877 0.304271,0.551871 0.7965,1.788041 1.215383,3.052271 0.159659,0.481907 0.635822,1.563505 1.588109,3.607433 0.794548,1.705356 0.757797,1.622564 1.315592,2.965289 0.240522,0.579016 0.544838,1.287536 0.67625,1.574491 0.131388,0.286961 0.48071,1.302215 0.776187,2.256134 0.295517,0.953913 0.630645,1.914772 0.744754,2.135237 0.477896,0.923313 1.362378,3.074732 1.598579,3.88838 0.139767,0.481435 0.311358,1.006341 0.381339,1.166452 0.338812,0.775125 1.140628,2.876982 1.480537,3.881065 0.688391,2.03336 2.128881,4.973785 2.301684,4.698281 0.022,-0.0351 -0.288941,-0.847688 -0.691104,-1.805628 z M 55.003311,44.460115 c -0.410931,-0.539321 -0.616964,-1.235802 -0.38151,-1.289691 0.181641,-0.04157 0.531981,0.465414 0.821567,1.188975 0.139488,0.348525 0.156503,0.508578 0.05635,0.531505 -0.07877,0.01803 -0.30217,-0.175822 -0.496427,-0.43078 z m 3.912086,-3.669885 c -0.514415,-0.412548 -1.108782,-1.24467 -1.037783,-1.452934 0.12688,-0.372164 0.495119,-0.16142 1.13266,0.648232 0.372452,0.472988 0.690338,0.91745 0.706415,0.987694 0.06376,0.278576 -0.341008,0.186129 -0.801295,-0.183005 z m 23.90675,25.019836 c -0.01345,-0.05857 -0.165108,-0.326434 -0.337141,-0.595329 -0.330247,-0.516187 -0.957977,-1.886608 -1.392904,-3.040849 -0.199596,-0.529591 -0.365552,-0.759783 -0.713575,-0.989524 -0.249438,-0.164668 -0.745453,-0.636073 -1.102261,-1.047621 -1.112381,-1.282915 -1.365573,-1.538285 -1.551963,-1.565564 -0.142271,-0.02082 -0.14039,0.06683 0.0089,0.412076 0.104245,0.241193 0.299582,0.586275 0.434033,0.766858 0.134451,0.18058 0.322916,0.532664 0.418813,0.782408 0.09591,0.249733 0.267059,0.498775 0.380367,0.553413 0.113301,0.05464 0.444091,0.448346 0.735092,0.874899 0.819398,1.201128 1.64409,2.208264 1.902514,2.323455 0.0562,0.02509 0.273239,0.378882 0.482303,0.786264 0.209065,0.40739 0.414087,0.776162 0.455611,0.819502 0.104252,0.10882 0.309998,0.05005 0.280211,-0.08008 z M 80.087278,59.66291 c -0.483851,-1.013049 -1.01521,-1.865947 -1.311574,-2.105287 -0.186313,-0.150446 -0.363345,-0.380949 -0.393387,-0.51221 -0.03008,-0.131261 -0.167495,-0.36584 -0.305428,-0.521262 -0.356519,-0.401713 -1.496456,-2.13189 -2.064784,-3.133779 -0.7089,-1.249858 -1.183732,-1.970077 -1.776828,-2.695252 -0.290726,-0.35544 -0.550821,-0.743484 -0.578022,-0.862329 -0.0272,-0.118845 -0.191218,-0.406831 -0.364477,-0.639978 -0.269468,-0.362586 -0.312481,-0.383355 -0.297458,-0.143582 0.0097,0.154159 0.179969,0.595397 0.37838,0.980523 0.198433,0.385121 0.394322,0.846398 0.43528,1.025078 0.04096,0.178681 0.68042,1.310176 1.421013,2.51448 0.740586,1.204307 1.531467,2.493172 1.757516,2.864144 0.757781,1.243667 1.336782,1.984236 2.184435,2.794102 0.875007,0.836035 1.174822,0.978618 0.915341,0.435327 z m -2.666203,-0.117218 c -0.235594,-0.336676 -0.530084,-0.616037 -0.660773,-0.626822 -0.37198,-0.0307 -1.414998,-0.804177 -1.934658,-1.434679 -0.56983,-0.691418 -1.201045,-1.241744 -1.377828,-1.201283 -0.200468,0.04588 0.143787,0.642171 0.467484,0.810197 0.156478,0.08115 0.294273,0.190257 0.306219,0.242451 0.03969,0.173411 1.42781,1.570665 2.149033,2.163143 0.631251,0.518588 1.33944,0.868212 1.439635,0.710727 0.01974,-0.03098 -0.155383,-0.329682 -0.389127,-0.66373 z m -0.8803,-1.74222 c 0.113028,-0.180118 -0.348238,-0.689898 -1.046362,-1.156353 -0.772366,-0.516086 -1.418617,-1.067824 -1.459402,-1.246019 -0.01404,-0.06132 -0.226321,-0.380428 -0.471762,-0.709111 -0.245434,-0.328684 -0.688327,-0.986043 -0.984241,-1.460833 -0.295914,-0.474789 -0.768013,-1.131163 -1.049166,-1.458782 -0.281153,-0.327619 -0.529485,-0.675623 -0.551863,-0.773398 -0.05247,-0.229244 -0.703786,-1.315204 -0.747261,-1.245947 -0.01817,0.02895 0.175228,0.689312 0.429787,1.467453 0.44331,1.355221 0.487826,1.436491 1.05587,1.927865 0.649718,0.562039 1.328187,1.333949 2.349482,2.672937 0.365976,0.479851 0.821537,0.980829 1.012339,1.113288 0.19081,0.132457 0.516668,0.418141 0.72413,0.634852 0.351985,0.367679 0.60448,0.447719 0.738511,0.234112 z m -3.29746,0.09538 c -0.05126,-0.530184 -0.318933,-1.134277 -0.656957,-1.482837 -0.119609,-0.123327 -0.849564,-1.358183 -1.224931,-2.072217 -0.144336,-0.27457 -0.495111,-1.068041 -0.779504,-1.76324 -0.38752,-0.947367 -0.611435,-1.339542 -0.893664,-1.56508 -0.872204,-0.697301 -0.878906,-0.175757 -0.01555,1.208976 0.391599,0.628069 0.502842,0.894483 0.425189,1.018228 -0.06597,0.105134 -0.15481,0.133607 -0.238355,0.07639 -0.285412,-0.195437 -1.213326,-1.806131 -1.448352,-2.514114 -0.209703,-0.631594 -0.325295,-0.797817 -0.754907,-1.085258 -0.550618,-0.368407 -0.576009,-0.340718 -0.236894,0.258235 0.123387,0.217879 0.442406,0.977191 0.709023,1.687398 0.296628,0.790185 0.650639,1.504393 0.912329,1.840693 0.235198,0.302219 0.546161,0.752941 0.691032,1.00159 0.254088,0.436109 0.489846,0.789655 1.350594,2.025395 0.576099,0.827096 1.881097,2.038476 2.13378,1.980644 0.04668,-0.01068 0.05892,-0.287287 0.02728,-0.614688 z m 6.58358,-1.894754 c -0.142434,-0.300036 -0.361121,-0.839165 -0.485964,-1.198024 -0.124883,-0.358901 -0.302078,-0.779484 -0.393846,-0.934608 -0.0918,-0.155119 -0.336131,-0.571788 -0.542996,-0.925914 -0.33666,-0.576303 -0.685251,-0.839965 -0.822142,-0.621822 -0.02713,0.04319 0.07794,0.323121 0.233526,0.622054 0.155547,0.298943 0.39788,0.834222 0.538534,1.189578 0.229484,0.579698 1.2667,2.296558 1.578237,2.612354 0.224159,0.227235 0.168279,-0.167212 -0.105349,-0.74353 z m -4.149317,-0.142036 c -0.0485,-0.211887 -0.964824,-1.81241 -1.461869,-2.553421 -0.219059,-0.326575 -0.52746,-0.875644 -0.685333,-1.220154 -0.217046,-0.473651 -0.339703,-0.614342 -0.502991,-0.57697 -0.493401,0.112927 -0.821961,-0.318281 -3.033438,-3.981151 C 68.96134,45.82006 68.54375,44.992719 67.907359,43.396552 67.469771,42.299027 66.871662,40.862285 66.5782,40.203799 66.284746,39.545312 65.929887,38.646611 65.789609,38.206691 65.649369,37.766762 65.39076,37.151538 65.215003,36.839506 64.647742,35.832465 64.25523,35.018124 64.172342,34.676383 c -0.11495,-0.474371 -0.260593,-0.376593 -0.382799,0.257107 -0.116165,0.602356 -0.154707,0.505487 1.120354,2.815271 0.295327,0.534974 0.655504,1.317159 0.800403,1.738216 0.144929,0.42105 0.396815,0.994391 0.559842,1.274111 0.470659,0.807624 1.622584,3.478878 1.762174,4.086374 0.06996,0.304544 0.187157,0.594752 0.260345,0.64493 0.0732,0.05018 0.34564,0.446077 0.605391,0.879788 0.259758,0.43371 0.566906,0.882192 0.682543,0.996629 0.189394,0.187414 0.569925,0.842559 1.150222,1.980308 0.177986,0.348952 0.535204,0.87774 1.160546,1.717915 0.785167,1.054941 0.93195,1.279122 0.982819,1.50138 0.06961,0.304136 0.556205,1.005036 0.843025,1.214292 0.112947,0.08241 0.32473,0.353076 0.470623,0.601492 0.613348,1.044335 1.618748,2.041774 1.489682,1.477855 z m -2.688975,-0.55529 c -0.06671,-0.291467 -0.313831,-0.478657 -0.416311,-0.315348 -0.07993,0.127382 0.229971,0.670673 0.364919,0.639786 0.06569,-0.01503 0.0888,-0.161023 0.05139,-0.324441 z m -4.615187,0.376244 c -0.0065,-0.192249 -0.120587,-0.699334 -0.253141,-1.12693 -0.13278,-0.427546 -0.243526,-1.003396 -0.246081,-1.279698 -0.005,-0.534886 -0.449089,-2.003976 -0.835523,-2.763897 -0.128346,-0.252431 -0.299389,-0.602368 -0.380054,-0.777648 -0.289397,-0.628879 -0.375567,-0.254773 -0.145102,0.629961 0.211287,0.810972 0.218231,1.200516 0.01922,1.075651 -0.135405,-0.08497 -0.637295,-1.299935 -0.751657,-1.819569 -0.115232,-0.524379 -0.644015,-1.449805 -1.701272,-2.978467 -0.189297,-0.273708 -0.410715,-0.640936 -0.492047,-0.816064 -0.209488,-0.45112 -0.41407,-0.345168 -0.221584,0.114762 0.231612,0.553426 1.057613,2.249878 1.416925,2.910073 0.448541,0.824151 0.658754,1.310524 0.831279,1.923291 0.381198,1.354066 0.877767,2.820709 0.986062,2.912616 0.06541,0.05548 0.19934,0.273689 0.297678,0.484902 0.09834,0.211213 0.289084,0.51341 0.423885,0.671547 0.134801,0.158137 0.26678,0.380736 0.293289,0.494642 0.07475,0.319661 0.455476,0.766408 0.62146,0.728419 0.08186,-0.01873 0.143498,-0.19136 0.136953,-0.383604 z m 9.389091,-5.811888 c -0.18611,-0.461441 -0.424953,-1.107374 -0.530753,-1.435378 -0.358058,-1.110155 -0.559171,-1.595011 -0.678433,-1.635733 -0.181743,-0.06197 -0.498435,-0.873128 -1.125592,-2.882987 -0.174411,-0.558921 -0.381598,-1.087924 -0.460439,-1.175556 -0.225058,-0.250177 0.448428,2.033844 0.959413,3.253808 0.252702,0.603281 0.521736,1.255549 0.597857,1.44948 0.0761,0.193933 0.345389,0.881655 0.598363,1.528271 0.252983,0.646616 0.613482,1.544026 0.801132,1.994238 0.327542,0.785863 0.337888,0.797086 0.259014,0.280718 -0.04524,-0.295808 -0.234459,-0.915381 -0.420546,-1.376827 z m -12.484793,4.406865 c -0.07388,-0.141609 -0.319596,-0.791487 -0.54598,-1.444191 -0.571874,-1.648848 -0.813965,-2.203678 -1.471145,-3.371482 -0.314322,-0.558564 -0.622086,-1.153802 -0.683914,-1.322697 -0.326474,-0.891914 -2.272616,-3.835306 -2.501204,-3.782988 -0.148156,0.03391 -0.07406,0.179452 0.322087,0.632695 0.572899,0.655464 1.22956,1.761426 1.840277,3.099468 0.305701,0.669775 0.722059,1.583221 0.925224,2.029883 0.203173,0.446661 0.529202,1.236676 0.724503,1.755589 0.435563,1.157244 1.2576,2.722373 1.411348,2.687185 0.06228,-0.01426 0.05275,-0.141768 -0.02116,-0.283369 z m 11.040023,-2.892954 c -0.07478,-0.326753 -0.574569,-0.904622 -0.896881,-1.036982 -0.143937,-0.05912 -0.279068,-0.183299 -0.30028,-0.275975 -0.04176,-0.182479 -0.305414,-0.316558 -0.382105,-0.194326 -0.05316,0.08476 0.376252,0.925238 0.685436,1.341435 0.235088,0.316475 0.749038,0.605608 0.867983,0.488283 0.04469,-0.0441 0.05634,-0.18923 0.02585,-0.322487 z m -12.592801,1.903358 c -0.302522,-0.547212 -0.671719,-1.284115 -0.820441,-1.63756 -0.148752,-0.353439 -0.562185,-1.267554 -0.918792,-2.031355 -0.356598,-0.763804 -0.709535,-1.54766 -0.784271,-1.741909 -0.07476,-0.194245 -0.252964,-0.508022 -0.396042,-0.697275 -0.143071,-0.189254 -0.278468,-0.417655 -0.300879,-0.507559 -0.02218,-0.08996 -0.269827,-0.541322 -0.549826,-1.003152 -0.279997,-0.461831 -0.535426,-0.950972 -0.567646,-1.086974 -0.0744,-0.314594 -0.345254,-0.588182 -0.437147,-0.441746 -0.03855,0.06149 0.241985,0.687316 0.623496,1.390709 0.381511,0.703393 0.751177,1.409907 0.821472,1.569947 0.07029,0.160044 0.383047,0.780167 0.695007,1.378058 0.311961,0.597891 0.683561,1.42013 0.825772,1.827072 0.14218,0.406949 0.457347,1.113062 0.700271,1.568993 0.242924,0.455931 0.528494,0.997749 0.634575,1.203975 0.106049,0.206234 0.311182,0.488754 0.455734,0.627725 0.144553,0.138971 0.282053,0.336777 0.305574,0.439543 0.02352,0.102767 0.09232,0.17552 0.152977,0.161638 0.06061,-0.01387 -0.137348,-0.472935 -0.439832,-1.020156 z M 76.37269,49.061865 c -0.711819,-1.4225 -1.171192,-2.717812 -1.810255,-5.104475 -0.458603,-1.712818 -1.116122,-3.347958 -1.382742,-3.438855 -0.164002,-0.05591 -0.113688,0.154511 0.218567,0.913856 0.147116,0.336188 0.531506,1.625041 0.854277,2.864129 0.588642,2.259734 1.044314,3.59368 1.346027,3.940163 0.08892,0.102142 0.315119,0.575213 0.502631,1.051281 0.187505,0.47607 0.461414,0.982091 0.608675,1.124515 0.438184,0.423744 0.326112,-0.02516 -0.337203,-1.350685 z m -14.721868,3.122766 c -0.230599,-0.40006 -0.453949,-0.892378 -0.496324,-1.094035 -0.07826,-0.373311 -1.069337,-2.819774 -1.566805,-3.868497 -0.150714,-0.317763 -0.42272,-0.774288 -0.604408,-1.014511 -0.181697,-0.240222 -0.46021,-0.623204 -0.618936,-0.851069 -0.345195,-0.49556 -0.646487,-0.508096 -0.426089,-0.01774 0.08186,0.182064 0.351201,0.595967 0.598588,0.919772 0.875331,1.14567 1.812778,3.077327 2.095922,4.318696 0.1843,0.808067 1.215973,2.687452 1.354267,2.467118 0.04814,-0.07674 -0.09306,-0.437943 -0.336215,-0.859736 z m 3.411367,-1.056225 c -0.182146,-0.588188 -0.558455,-1.459395 -0.836202,-1.936127 -0.277747,-0.476731 -0.67717,-1.201911 -0.887624,-1.61168 -0.62128,-1.209579 -1.307172,-2.302152 -1.828564,-2.912697 -0.611753,-0.716384 -0.669526,-0.484453 -0.07404,0.297239 0.92849,1.218814 2.609973,4.423925 3.362111,6.408369 0.517543,1.365515 0.708309,1.188636 0.264273,-0.245043 z m 10.419583,-1.715774 c -0.03152,-0.137723 -0.136867,-0.224862 -0.242583,-0.200667 -0.149141,0.03413 -0.149306,0.08588 -8.55e-4,0.25639 0.102323,0.117485 0.211448,0.207793 0.242576,0.200669 0.03114,-0.0072 0.03153,-0.1225 8.55e-4,-0.25639 z m -3.288125,-0.164881 c -0.181054,-0.334619 -0.657778,-1.12861 -1.059377,-1.764383 -0.545686,-0.863927 -0.827317,-1.463059 -1.114492,-2.370846 -0.37672,-1.190887 -0.619115,-1.793799 -1.375608,-3.421658 -0.207151,-0.44575 -0.497786,-1.099759 -0.645878,-1.453348 -0.148071,-0.353595 -0.364885,-0.822752 -0.481773,-1.042579 -0.116896,-0.219827 -0.410628,-0.844306 -0.652741,-1.387732 -0.522172,-1.172059 -2.09627,-4.050514 -2.439693,-4.461233 -0.379627,-0.454066 -0.542404,-0.426136 -0.224658,0.03855 0.157756,0.230701 0.354938,0.495277 0.438198,0.587931 0.140819,0.156735 0.780354,1.403357 1.74583,3.40302 0.222731,0.461321 0.476096,1.152682 0.563039,1.536356 0.08701,0.383657 0.383546,1.164756 0.659127,1.735709 0.275588,0.570951 0.629338,1.393344 0.786061,1.827321 0.156739,0.433976 0.429008,1.034636 0.605019,1.334607 0.17601,0.299972 0.607188,1.257894 0.958143,2.128667 0.350964,0.870771 0.777154,1.753145 0.947121,1.960824 0.169966,0.207681 0.525654,0.731529 0.790434,1.164077 0.766508,1.252172 1.156539,1.395907 0.501189,0.184736 z m -11.46696,2.869441 c -0.02067,-0.08333 -0.201481,-0.366836 -0.401904,-0.629965 -0.200423,-0.263128 -0.511417,-0.854849 -0.691087,-1.314908 -0.715335,-1.831724 -2.375743,-4.829792 -2.534625,-4.576564 -0.02697,0.043 0.139892,0.398685 0.370807,0.790409 0.511336,0.867408 1.70804,3.42909 1.809972,3.874456 0.04065,0.177623 0.217888,0.583286 0.393847,0.901459 0.175965,0.31817 0.384812,0.722171 0.464098,0.897766 0.09896,0.219154 0.219772,0.301958 0.385287,0.264076 0.132608,-0.03035 0.224245,-0.123377 0.203623,-0.206721 z m 8.634933,-2.021005 c -0.01937,-0.08462 -1.108348,-1.31868 -1.636409,-1.85443 -0.381982,-0.387533 -0.633973,-0.750583 -1.035802,-1.492199 -1.072277,-1.979062 -1.228874,-2.361831 -1.77296,-4.333689 -0.378323,-1.37112 -0.678142,-2.234125 -0.906915,-2.610496 -0.187963,-0.309238 -0.41243,-0.746644 -0.498816,-0.972006 -0.08635,-0.22537 -0.268726,-0.615945 -0.405213,-0.867961 l -0.248173,-0.458201 -0.02645,0.390336 c -0.0527,0.777704 0.232685,1.729555 0.686577,2.289966 0.632022,0.780274 0.942469,1.451307 1.054617,2.279641 0.252391,1.864154 2.245448,5.406958 3.896885,6.927083 0.234496,0.215852 0.483945,0.490202 0.554316,0.60967 0.115915,0.196726 0.378605,0.268463 0.3383,0.09236 z m -9.892705,1.796498 c -0.09602,-0.206993 -0.225343,-0.480015 -0.287409,-0.606713 -0.06209,-0.126692 -0.183089,-0.414443 -0.268931,-0.639416 -0.152454,-0.399577 -0.398783,-0.66082 -0.488417,-0.518 -0.04942,0.0788 0.623248,1.531669 0.892282,1.927133 0.253425,0.372483 0.351979,0.267139 0.15247,-0.16299 z M 74.226809,46.92368 c -0.268087,-0.701403 -0.577641,-1.658161 -0.687895,-2.126089 -0.110284,-0.46792 -0.357655,-1.275937 -0.549751,-1.795584 -0.192133,-0.519639 -0.528379,-1.480241 -0.747239,-2.134665 -0.218838,-0.654431 -0.521608,-1.50741 -0.672778,-1.895521 -0.534085,-1.371209 -1.417318,-2.771002 -1.228859,-1.947581 0.03831,0.167363 0.133231,0.344502 0.210904,0.393654 0.226678,0.143399 1.990414,5.055173 2.675582,7.451138 0.226902,0.793489 0.572772,1.780708 0.768572,2.193831 0.1958,0.413122 0.414793,0.874172 0.486643,1.024557 0.07182,0.150391 0.153501,0.23699 0.181437,0.192476 0.02793,-0.04452 -0.168535,-0.654838 -0.436644,-1.356236 z m -2.440198,-0.02466 c -0.40504,-0.65356 -0.62509,-1.222286 -1.105222,-2.856395 -0.560876,-1.908963 -0.825174,-2.666351 -1.593629,-4.566874 -0.628807,-1.555119 -2.237781,-4.483491 -2.438264,-4.437606 -0.05827,0.01334 -0.05603,0.113699 0.0051,0.223014 0.251,0.44965 1.668831,3.629691 2.008131,4.504027 0.640703,1.65103 1.29367,3.398781 1.498972,4.012117 0.677908,2.025386 1.063615,2.831844 1.987964,4.156386 0.135235,0.193802 0.153451,0.193949 0.148458,0.0012 -0.0031,-0.120878 -0.23327,-0.586977 -0.511429,-1.035791 z m -4.817142,1.555124 c -0.39935,-0.362692 -1.820083,-2.21179 -1.874888,-2.440062 -0.02233,-0.0941 -0.173168,-0.381692 -0.334709,-0.639208 -0.190738,-0.304043 -0.403936,-0.951361 -0.608082,-1.846281 -0.269072,-1.179121 -0.406113,-1.539223 -0.949858,-2.493965 -0.664216,-1.16632 -0.762573,-1.292013 -0.873139,-1.115813 -0.03692,0.05888 0.106692,0.424703 0.31911,0.81295 0.890533,1.627283 1.137409,2.220471 1.299651,3.122778 0.375968,2.090907 0.414611,2.187868 1.320005,3.312567 0.465449,0.578158 1.088457,1.203209 1.384459,1.38896 0.611971,0.384019 0.789659,0.327031 0.317473,-0.101831 z m 1.538798,-0.965414 c -0.02267,-0.09906 -0.165359,-0.369031 -0.317074,-0.599924 -0.822149,-1.251222 -1.563275,-2.871581 -2.060616,-4.505209 -0.16211,-0.532352 -0.5968,-1.556937 -0.966044,-2.276728 -0.369244,-0.719791 -0.920254,-1.855149 -1.224412,-2.522843 -0.587445,-1.289568 -0.750521,-1.497801 -1.108738,-1.415814 -0.262381,0.06005 -0.223629,0.13896 0.55137,1.122747 0.293891,0.373071 0.698521,1.058632 0.899186,1.523466 0.200666,0.464835 0.545396,1.227717 0.766051,1.695226 0.220655,0.467509 0.391968,0.961953 0.380675,1.098767 -0.01127,0.136809 0.101362,0.523005 0.250405,0.858201 0.149041,0.335196 0.428678,1.005672 0.6215,1.489927 0.711196,1.786046 0.84956,2.064237 1.44353,2.902318 0.569668,0.803808 0.858489,1.041875 0.764195,0.629885 z m 6.190354,-5.465345 c -0.122355,-0.176818 -0.171648,-0.197816 -0.145982,-0.06216 0.05153,0.272153 0.300834,0.637046 0.317554,0.464751 0.0072,-0.07459 -0.06994,-0.255758 -0.171562,-0.402582 z m -12.431466,1.740774 c -0.488569,-0.790102 -0.678916,-1.00398 -0.767651,-0.862558 -0.05042,0.08039 0.544997,1.030902 0.951795,1.519368 0.385756,0.46318 0.284006,0.100278 -0.184132,-0.656788 z m 12.004976,-2.962823 c -0.178665,-0.425639 -0.387582,-0.795281 -0.464279,-0.82142 -0.08259,-0.02815 -0.09153,0.03945 -0.02194,0.16578 0.06457,0.117337 0.257099,0.51316 0.427741,0.879637 0.420011,0.901952 0.462606,0.738785 0.05849,-0.223986 z m -10.824343,3.046172 c -0.04744,-0.207274 -1.220666,-2.136471 -1.365513,-2.245375 -0.02995,-0.0225 -0.08015,8.2e-5 -0.111599,0.0502 -0.03144,0.05011 0.259068,0.626841 0.645596,1.28164 0.665597,1.12755 0.952684,1.442948 0.831519,0.913548 z m -6.54728,0.336843 C 56.7524,43.900397 56.520801,43.80443 56.577086,44.050324 c 0.06529,0.285161 0.268365,0.537493 0.359932,0.447175 0.04602,-0.04543 0.02962,-0.186337 -0.03653,-0.313136 z m 3.412106,-1.375347 c -0.282726,-0.374424 -0.315324,-0.388188 -0.301951,-0.127542 0.01569,0.305843 0.579335,0.955025 0.604446,0.696164 0.008,-0.08189 -0.12818,-0.337768 -0.302495,-0.568622 z m 12.614962,-2.987452 c -0.08236,-0.232008 -0.204433,-0.409314 -0.271218,-0.394029 -0.06683,0.0153 -0.06836,0.106822 -0.0034,0.203407 0.06485,0.0966 0.148996,0.311304 0.186952,0.477144 0.03796,0.16584 0.106939,0.26412 0.153268,0.218406 0.04631,-0.04571 0.01688,-0.272936 -0.06557,-0.504926 z m -6.147341,-6.600695 c -0.07197,-0.314457 -0.448551,-0.800015 -0.594555,-0.766599 -0.108247,0.02477 0.16067,0.79398 0.341796,0.977573 0.151347,0.153428 0.306519,0.02392 0.252762,-0.210961 z" />
</svg>
