<?xml version="1.0" encoding="UTF-8" standalone="no"?>
<svg
   viewBox="0 0 100 100"
   version="1.1"
   id="svg1"
   width="1"
   height="1"
   xmlns="http://www.w3.org/2000/svg"
   xmlns:svg="http://www.w3.org/2000/svg">
  <defs
     id="defs1" />
  <path
     d="m 2.8219215,93.606024 c -0.542732,-0.39686 -0.405772,-1.43251 0.459988,-3.4783 1.045995,-2.47174 0.964535,-2.23769 1.537516,-4.41755 0.278675,-1.06021 0.824122,-2.90353 1.212111,-4.09627 0.387989,-1.19274 0.892827,-3.18064 1.121849,-4.41755 0.229022,-1.23691 0.519102,-2.75494 0.644609,-3.3734 0.458397,-2.25889 0.705619,-4.05435 0.792122,-5.75326 0.04866,-0.95554 0.157151,-1.86565 0.241086,-2.02259 0.08393,-0.15695 0.146679,-0.4232 0.139413,-0.59191 -0.01601,-0.37203 0.462542,-4.458025 0.666215,-5.688032 0.08046,-0.48593 0.14869,-1.172658 0.151629,-1.526062 0.0029,-0.353404 0.07962,-1.148563 0.170389,-1.76702 0.09077,-0.618457 0.2418415,-1.738908 0.3356865,-2.489891 0.09385,-0.750984 0.232058,-1.509999 0.30714,-1.686701 0.07508,-0.176702 0.21389,-0.791143 0.308473,-1.365424 0.09458,-0.574282 0.27429,-1.550159 0.399347,-2.168616 0.125057,-0.618456 0.202372,-1.165863 0.171818,-1.216464 -0.09598,-0.158958 0.425949,-3.588817 0.573093,-3.766162 0.07707,-0.09286 0.214372,-0.60008 0.305132,-1.127149 0.09076,-0.52707 0.278499,-1.57276 0.417194,-2.323792 0.138695,-0.751032 0.254483,-1.72686 0.25731,-2.168615 0.0028,-0.441755 0.111751,-1.176867 0.242082,-1.63353 0.13033,-0.456662 0.298481,-1.179582 0.37366,-1.606381 0.07518,-0.4268 0.246515,-1.173558 0.380745,-1.659553 0.134229,-0.485995 0.324408,-1.425664 0.422671,-2.088296 0.09826,-0.662632 0.211335,-1.423704 0.251302,-1.691199 0.125234,-0.83845 0.897228,-3.836199 1.032164,-4.008082 0.07081,-0.09018 0.356537,-0.995266 0.634971,-2.011351 0.278434,-1.016084 0.602682,-2.0642 0.720591,-2.329253 0.618408,-1.390179 0.742842,-1.721559 0.742842,-1.978741 0,-0.154596 0.253,-0.67378 0.56223,-1.153767 0.30923,-0.479987 0.56223,-0.936473 0.56223,-1.014462 0,-0.07799 0.10251,-0.369565 0.22779,-0.647966 0.12528,-0.278402 0.36712,-0.83148 0.53743,-1.229059 0.17031,-0.39758 0.7003,-1.204417 1.1778,-1.793043 0.4775,-0.588627 1.3639,-1.691038 1.96974,-2.450053 0.60585,-0.759016 1.43722,-1.6113619 1.84734,-1.8940849 3.42706,-2.362827 3.86335,-2.564588 5.97205,-2.762173 1.41177,-0.132242 2.63623,0.119271 3.95652,0.812668 1.35988,0.714198 1.51918,0.853342 2.32025,2.026933 1.06776,1.5642779 1.57538,3.0543739 1.74903,5.1339949 0.22125,2.649727 0.40121,3.902865 0.76732,5.343307 0.17968,0.706872 0.44327,1.96075 0.58575,2.78659 0.14249,0.825841 0.33217,1.637867 0.42148,1.80477 0.0893,0.166903 0.22532,0.611678 0.3022,0.988439 0.26314,1.289362 1.25689,3.388501 2.0099,4.245666 0.40094,0.456357 1.251,1.143085 1.88911,1.526063 1.2083,0.725281 2.11769,1.735374 2.91847,3.241357 0.3709,0.697555 0.38526,0.79956 0.18131,1.287675 -0.12182,0.291558 -0.33536,0.624593 -0.47454,0.740108 -0.43759,0.363171 -1.64397,2.662096 -2.08348,3.970494 -0.232,0.690599 -0.67538,2.303872 -0.98525,3.584961 -0.35241,1.456908 -0.71287,2.555271 -0.96243,2.932932 -0.52198,0.789617 -1.60517,1.564985 -2.18629,1.564985 -0.33217,0 -0.53772,0.126286 -0.73894,0.454012 -0.55736,0.907766 -1.17542,1.503187 -1.71497,1.652163 -0.45592,0.125887 -0.63275,0.315076 -1.0214,1.092837 -0.25852,0.51732 -0.5703,1.081288 -0.69288,1.253235 -0.38568,0.541062 -1.33,1.278182 -1.77666,1.386821 -0.38431,0.09348 -0.44913,0.04441 -0.61828,-0.468131 -0.10393,-0.314899 -0.16183,-0.857037 -0.12867,-1.204722 0.0332,-0.347685 0.004,-0.632176 -0.0644,-0.632176 -0.0686,0 -0.12472,0.135113 -0.12472,0.300249 0,0.481336 -0.69388,2.424833 -1.25492,3.514924 -0.55851,1.085175 -0.9869,1.296334 -1.32986,0.6555 -0.10258,-0.191674 -0.27432,-1.221766 -0.38164,-2.289094 -0.10733,-1.067328 -0.239,-1.832239 -0.29262,-1.699712 -0.0536,0.132526 -0.20148,0.602393 -0.32859,1.044148 -0.6834,2.375035 -2.55607,5.752452 -3.55123,6.404482 -0.74425,0.48765 -1.53155,0.256042 -1.53925,-0.452806 -0.003,-0.307944 -0.0239,-0.303253 -0.31771,0.07229 -0.17276,0.220877 -0.31573,0.480742 -0.31771,0.577494 -0.006,0.315333 -1.2185,2.052955 -2.03432,2.916385 -0.57849,0.61224 -0.91567,0.84335 -1.23042,0.84335 -0.33484,0 -0.43356,0.0777 -0.43356,0.34098 0,0.18755 -0.61155,1.54293 -1.35899,3.01197 -0.74743,1.46904 -1.5098,3.13036 -1.69409,3.69195 -0.29779,0.90718 -0.699979,1.71818 -0.967441,1.95079 -0.153708,0.13369 -1.119857,1.61553 -1.119857,1.71754 0,0.0523 -0.324168,0.47454 -0.720366,0.9383 -0.689716,0.80732 -1.095102,1.80686 -1.291563,3.18433 -0.07634,0.5353 -1.064195,2.59479 -1.744691,3.63733 -0.461915,0.70771 -0.588562,0.85784 -1.829508,2.16862 -0.8765705,0.92595 -1.3722835,1.63433 -2.0290205,2.89968 -0.318642,0.61392 -0.777714,1.3808 -1.020149,1.70421 -0.242435,0.32341 -0.673234,0.90166 -0.957339,1.2851 l -1.013177,1.3674 c -0.579438,0.78199 -2.047494,2.30163 -2.223553,2.30163 -0.06657,0 -0.254162,-0.0974 -0.416872,-0.21632 z m 4.193459,-6.44014 c 0.374946,-0.86613 0.798099,-1.9818 0.940344,-2.47913 0.142245,-0.49734 0.32306,-1.12121 0.401788,-1.38626 0.387363,-1.30408 1.104211,-4.6161 1.199518,-5.54202 0.169987,-1.65152 -0.182373,-0.97803 -0.549126,1.0495 -0.601108,3.32312 -1.603619,6.91338 -2.435114,8.72104 -0.338288,0.73536 -0.530459,1.3088 -0.427088,1.27435 0.10337,-0.0345 0.494749,-0.77131 0.869678,-1.63739 z m 2.676875,-3.42369 c 0.03778,-0.0663 0.115825,-0.40962 0.173425,-0.76303 0.08313,-0.51007 0.06791,-0.58215 -0.07383,-0.34959 -0.270033,0.44304 -0.467505,1.2331 -0.308232,1.2331 0.07697,0 0.170854,-0.0542 0.208637,-0.12048 z m 2.2760825,-3.37227 c 0.147504,-0.50861 0.403041,-1.21391 0.567872,-1.56732 0.164831,-0.3534 0.442911,-1.25699 0.617975,-2.00797 0.175063,-0.75099 0.502396,-2.10147 0.727401,-3.00105 0.582667,-2.32957 0.61722,-2.49551 0.612546,-2.94257 -0.0023,-0.22087 0.0521,-0.47388 0.120911,-0.56223 0.06881,-0.0883 0.214307,-0.88351 0.323332,-1.76702 0.109025,-0.88351 0.299349,-2.0144 0.422944,-2.51302 0.123595,-0.49862 0.224717,-1.20233 0.224717,-1.56367 0,-0.36134 0.183834,-1.52768 0.408535,-2.5919 0.277085,-1.312314 0.393387,-2.308206 0.361436,-3.094851 l -0.0471,-1.159904 -0.427635,0.758003 c -0.235207,0.416904 -0.517127,1.031345 -0.626505,1.365424 -0.414495,1.26607 -1.283435,2.971968 -1.966854,3.861098 -0.667467,0.86851 -0.714904,0.99858 -0.805391,2.20797 -0.05288,0.70681 -0.174855,1.93569 -0.271061,2.73085 -0.09621,0.79516 -0.180429,1.84332 -0.18716,2.32925 -0.0067,0.48593 -0.135644,1.20881 -0.286466,1.60639 -0.150821,0.39758 -0.364086,1.15659 -0.473947,1.6867 -0.10986,0.5301 -0.269197,1.21683 -0.35411,1.52606 -0.08491,0.30923 -0.182517,1.24896 -0.216926,2.0883 -0.03441,0.83933 -0.169313,1.8695 -0.299831,2.28909 -0.130519,0.41959 -0.176477,0.76303 -0.102145,0.76303 0.162019,0 0.798837,-2.06982 1.281667,-4.16583 0.191995,-0.83342 0.411122,-1.67851 0.486959,-1.87802 0.07584,-0.19951 0.249953,-1.18016 0.386945,-2.17938 0.358271,-2.61326 0.382801,-2.70016 0.762035,-2.70016 0.30306,0 0.320602,0.0697 0.232347,0.92366 -0.155606,1.50549 -0.371058,2.79415 -0.624416,3.73484 -0.594715,2.20797 -0.776155,3.14482 -1.001145,5.16837 -0.03609,0.32461 -0.214468,0.88194 -0.396391,1.23856 -0.411957,0.80751 -0.42243,1.18543 -0.01945,0.70242 0.165345,-0.1982 0.421322,-0.77649 0.56882,-1.28511 z m -1.688307,-5.9849 c 0,-0.21418 -0.0173,-0.21418 -0.155718,0 -0.08565,0.13253 -0.1557195,0.34939 -0.1557195,0.48192 0,0.21418 0.0173,0.21418 0.1557195,0 0.08564,-0.13253 0.155718,-0.34939 0.155718,-0.48192 z m 0.706583,-2.24186 c 0.225536,-0.92383 0.378479,-1.71128 0.339894,-1.74984 -0.08991,-0.0899 -0.136432,0.0545 -0.630938,1.95802 -0.458574,1.76526 -0.470735,1.83979 -0.264812,1.62422 0.08019,-0.0839 0.33032,-0.90848 0.555856,-1.83224 z m 5.272465,-2.84234 c 0.846981,-3.30978 0.916843,-3.66319 0.931975,-4.71457 0.02019,-1.40266 0.832776,-4.152973 1.922196,-6.505841 0.59107,-1.276623 0.68946,-1.53003 1.24976,-3.219028 0.54545,-1.644292 0.63101,-2.322988 0.29283,-2.322988 -0.14866,0 -0.29156,0.320441 -0.41191,0.923669 -0.10135,0.508019 -0.32641,1.293796 -0.50014,1.746137 -0.17373,0.452341 -0.35903,1.102958 -0.41177,1.445744 -0.0527,0.342785 -0.15021,0.695531 -0.2166,0.783882 -0.26496,0.352568 -1.25883,2.987388 -1.727022,4.578185 -0.713973,2.42612 -0.960263,3.56826 -1.154667,5.35423 -0.09455,0.86857 -0.315108,2.09601 -0.490139,2.72764 -0.304586,1.09915 -0.419844,2.03287 -0.227127,1.84011 0.05011,-0.0501 0.384311,-1.23683 0.742663,-2.6372 z m -6.230511,1.51008 c 0.491777,-1.06705 1.495589,-6.01525 1.315482,-6.48464 -0.04744,-0.12363 -0.02057,-0.39758 0.05973,-0.60877 0.146496,-0.38531 0.694856,-4.492405 0.881984,-6.605921 0.055,-0.621156 0.247286,-1.886214 0.427329,-2.811168 0.180044,-0.924955 0.392215,-2.332306 0.471489,-3.127464 0.290097,-2.909318 0.519761,-4.667342 0.657926,-5.036167 0.0778,-0.207673 0.287543,-1.255837 0.466108,-2.329254 0.178565,-1.073416 0.43353,-2.493746 0.566587,-3.156379 0.874867,-4.356828 1.090347,-5.592296 1.344878,-7.710631 0.07962,-0.662633 0.262676,-1.566222 0.406801,-2.007977 0.144124,-0.441755 0.326593,-1.236914 0.405498,-1.76702 0.07891,-0.530106 0.29551,-1.650557 0.481353,-2.489892 0.185842,-0.839334 0.379657,-1.796095 0.430707,-2.126046 0.0511,-0.32995 0.19188,-0.68223 0.31296,-0.782693 0.12107,-0.100463 0.22012,-0.309566 0.22012,-0.46463 0,-0.155064 0.0967,-0.362158 0.21482,-0.460212 0.11815,-0.09805 0.311,-0.594843 0.42855,-1.10397 0.11756,-0.509126 0.26145,-0.99798 0.31975,-1.086331 0.0583,-0.08835 0.23652,-0.522074 0.39604,-0.963829 0.39319,-1.088918 1.34457,-2.65053 1.61473,-2.65053 0.59017,0 0.44237,0.669122 -0.66522,3.011323 -0.3863,0.816909 -0.70235,1.596535 -0.70235,1.732483 0,0.135948 -0.1024,0.40733 -0.22753,0.603003 -0.19707,0.308152 -0.74019,2.398649 -1.01056,3.889853 -0.0481,0.265053 -0.14393,0.554202 -0.21306,0.642553 -0.2624,0.335412 -1.287997,4.57385 -1.749189,7.228717 -0.625702,3.601989 -0.839447,4.754086 -0.99843,5.381378 -0.100764,0.39758 -0.236797,1.048164 -0.302289,1.445744 -0.06549,0.397579 -0.231898,1.337312 -0.369789,2.088296 -0.137892,0.750983 -0.405901,2.269014 -0.595582,3.373401 -0.189682,1.104387 -0.413162,2.405556 -0.496661,2.891487 -0.286707,1.668709 -0.649862,4.580115 -0.791465,6.345207 -0.07797,0.971861 -0.258466,2.670609 -0.401113,3.774997 -0.482734,3.737572 -0.474927,3.392842 -0.07349,3.244412 0.430606,-0.15929 1.207163,-1.595558 2.101629,-3.886965 0.36211,-0.927685 0.720189,-1.761558 0.795721,-1.852961 0.224989,-0.272491 1.158875,-2.674625 1.309265,-3.367779 0.158942,-0.732462 0.433321,-2.667236 0.546748,-3.855316 0.04217,-0.441755 0.148531,-1.20077 0.236355,-1.6867 0.0878,-0.485931 0.19951,-1.534095 0.24821,-2.329254 0.12131,-1.980508 0.50229,-4.779146 0.78516,-5.767392 0.35403,-1.236962 0.72324,-3.629137 0.91976,-5.959193 0.13235,-1.569178 0.2393,-2.134721 0.43026,-2.274797 0.41576,-0.305213 0.49862,-0.100691 0.49862,1.230697 0,0.696382 0.0688,1.308687 0.15295,1.360669 0.0954,0.05897 0.11949,-0.617204 0.064,-1.797701 -0.072,-1.531525 -0.0433,-1.952396 0.15093,-2.20749 0.4012,-0.527102 0.75661,-0.06795 0.75661,0.977435 0,0.655821 0.0573,0.863848 0.2379,0.863848 0.13085,0 0.26944,-0.162646 0.30801,-0.361436 0.23894,-1.231757 0.58762,-3.583837 0.67863,-4.577545 0.11664,-1.273587 0.39646,-1.738265 0.70247,-1.166442 0.11453,0.213986 0.16352,1.003748 0.13169,2.122673 -0.0562,1.974564 0.0643,2.22034 0.73418,1.497453 0.84078,-0.90722 0.89822,-1.226714 0.89999,-5.005003 0.002,-3.815639 0.0219,-4.109124 0.28799,-4.197797 0.40854,-0.136179 0.59735,1.324125 0.59735,4.619954 0,3.219028 -0.01,3.317017 -0.43809,4.355543 -0.83039,2.01376 -1.3599,5.087089 -1.65747,9.619976 -0.1421,2.164921 -0.67211,5.495271 -1.04684,6.578133 -0.18901,0.54617 -0.302,1.034719 -0.25107,1.085641 0.14514,0.145135 0.58203,-0.284747 0.58463,-0.575245 10e-4,-0.143797 0.11319,-0.579776 0.24867,-0.968841 0.13548,-0.389066 0.20711,-0.809633 0.15915,-0.934577 -0.048,-0.124944 0.0172,-0.746357 0.14483,-1.380894 0.35587,-1.76975 0.548,-2.953172 0.72187,-4.446785 0.0874,-0.750984 0.26962,-2.082031 0.40487,-2.957831 0.13526,-0.875799 0.24593,-2.015205 0.24593,-2.532139 0,-1.067505 0.37023,-2.531336 1.10329,-4.361969 0.52071,-1.300414 0.63354,-2.096327 0.32428,-2.287487 -0.11792,-0.07288 -0.1434,-0.417996 -0.0748,-1.013466 0.0572,-0.496629 0.14643,-1.57472 0.19828,-2.395757 0.10675,-1.690396 0.30955,-1.849749 0.70106,-0.550941 0.39255,1.302358 0.53028,1.192706 0.41126,-0.327445 -0.0946,-1.208256 -0.0738,-1.421326 0.14701,-1.506047 0.38203,-0.146598 0.66432,0.351942 0.85671,1.513003 0.17141,1.034317 0.4272,1.550559 0.68835,1.38915 0.2046,-0.126448 0.17643,-0.915702 -0.0976,-2.733579 -0.132,-0.875816 -0.24044,-1.912237 -0.24096,-2.30307 l -9.6e-4,-0.710711 0.3767,0.353886 c 0.41828,0.392953 0.79106,2.00878 0.82258,3.565364 0.0132,0.649733 0.11731,1.030831 0.38415,1.405584 0.20136,0.282787 0.42982,0.514154 0.50768,0.514154 0.0779,0 0.44243,-0.578297 0.81014,-1.285105 0.47693,-0.91673 0.75554,-1.285105 0.97196,-1.285105 0.49891,0 0.40493,1.202987 -0.18331,2.346763 -0.26767,0.520467 -0.53104,1.29206 -0.58524,1.714651 -0.0852,0.663934 -0.0469,0.823335 0.28162,1.173028 0.43263,0.460518 0.89075,0.42929 1.64092,-0.111833 0.52903,-0.381596 1.1307,-0.345532 1.21042,0.07256 0.031,0.162646 -0.21522,0.830868 -0.5472,1.484907 -0.73946,1.456859 -0.81143,2.418246 -0.22754,3.039756 0.20682,0.220154 0.45221,0.400294 0.54532,0.400294 0.0931,0 0.58382,-0.442478 1.09052,-0.983299 0.61356,-0.654873 1.00373,-0.951652 1.16816,-0.888553 0.53292,0.204508 0.18374,1.074315 -0.91685,2.283792 -0.77788,0.854868 -0.93792,2.190944 -0.28719,2.397525 0.15626,0.0496 0.41329,0.232909 0.57116,0.407346 0.36443,0.402688 1.13877,0.409097 1.73746,0.01438 0.59372,-0.391443 1.44159,-1.593386 1.89409,-2.685067 0.47705,-1.150956 0.81424,-1.162474 0.70738,-0.02416 -0.0523,0.55743 -0.31173,1.301602 -0.76513,2.194959 -0.86999,1.714331 -0.8451,1.63851 -0.49858,1.517163 0.51601,-0.180798 1.6761,-1.398644 2.01954,-2.120263 0.35227,-0.739931 0.71658,-1.006333 0.92189,-0.674134 0.19379,0.313582 -0.29027,1.930871 -0.83294,2.782896 -0.89603,1.406821 -0.27256,1.064179 1.12199,-0.616626 0.2895,-0.348938 0.59952,-0.905501 0.6889,-1.236817 0.0894,-0.331316 0.19421,-0.602393 0.23296,-0.602393 0.0387,0 0.18515,0.175095 0.32537,0.389097 0.2168,0.330867 0.22979,0.569945 0.0869,1.597499 -0.0924,0.664624 -0.3114,1.628067 -0.48657,2.140985 -0.17518,0.512918 -0.39665,1.432651 -0.49216,2.04396 -0.0955,0.611308 -0.30734,1.514834 -0.47069,2.007977 -0.36237,1.093865 -0.57076,2.060987 -0.4113,1.908863 0.16636,-0.158752 1.13409,-2.981605 1.26673,-3.694999 0.0608,-0.326931 0.53451,-1.233653 1.05273,-2.014884 1.00756,-1.519091 1.13482,-1.933441 0.82654,-2.691653 -0.61238,-1.506079 -1.20578,-2.056008 -3.46239,-3.208265 -0.62623,-0.319799 -2.13649,-2.158977 -2.16171,-2.632539 -0.006,-0.120159 -0.22096,-0.626167 -0.47679,-1.124467 -0.69542,-1.354468 -0.62398,-1.107568 -1.19158,-4.118762 -0.13323,-0.706808 -0.38894,-1.899546 -0.56826,-2.65053 -0.2874,-1.203661 -0.57433,-2.938714 -1.15939,-7.010891 -0.0907,-0.631148 -0.31127,-1.534737 -0.49019,-2.007977 -0.17891,-0.47324 -0.40482,-1.077288 -0.50199,-1.342341 -0.4521,-1.2332189 -1.50574,-2.0328759 -3.19895,-2.4278849 -1.71256,-0.399491 -3.89772,0.06352 -5.78747,1.226295 -0.42794,0.263319 -0.81742,0.47875 -0.86553,0.47875 -0.32602,0 -1.68237,1.4270619 -2.44283,2.5702109 -0.4996,0.750983 -1.03322,1.473855 -1.18583,1.606382 -0.25114,0.218082 -1.3092,2.144519 -2.61455,4.76019 -0.64978,1.302069 -0.9583,2.043478 -1.29461,3.111079 -0.15307,0.485931 -0.48477,1.317233 -0.73712,1.847339 -0.252353,0.530106 -0.506868,1.289121 -0.565597,1.686701 -0.05873,0.397579 -0.160115,0.795159 -0.225311,0.88351 -0.0652,0.08835 -0.15887,0.377499 -0.208187,0.642552 -0.162791,0.875012 -0.886241,3.989931 -1.28713,5.542017 -0.428229,1.657785 -0.749569,3.318784 -1.149864,5.943611 -0.141478,0.927686 -0.359379,2.192711 -0.484227,2.811168 -0.124848,0.618457 -0.299494,1.811195 -0.388086,2.65053 -0.08859,0.839334 -0.378447,2.971806 -0.644095,4.738826 -0.265647,1.767019 -0.557784,3.827204 -0.649187,4.578187 -0.0914,0.750983 -0.314224,2.160583 -0.495151,3.132444 -0.180927,0.971861 -0.428502,2.397203 -0.550137,3.167463 -0.121636,0.77026 -0.262612,1.467542 -0.313261,1.5495 -0.05065,0.08196 -0.131808,0.933624 -0.180348,1.892634 -0.144934,2.86337 -0.33069,4.58766 -0.551278,5.11697 -0.07363,0.1767 -0.219785,0.86343 -0.3247625,1.52606 -0.104977,0.66263 -0.228332,1.36743 -0.274113,1.56622 -0.121576,0.52796 0.06028,0.44147 0.3377735,-0.16064 z M 44.91596,36.656022 c -0.0547,-0.08845 -0.0207,-0.472662 0.0755,-0.853824 0.0962,-0.381162 0.21442,-0.855655 0.26281,-1.054429 0.0886,-0.364134 0.43576,-0.487151 0.60444,-0.214227 0.05,0.08097 0.0137,0.50752 -0.0807,0.947878 -0.17233,0.803528 -0.67117,1.4833 -0.86196,1.174586 z M 38.66939,33.14142 c -0.0374,-0.06626 0.21177,-0.716848 0.55378,-1.445744 0.47335,-1.008823 0.69831,-1.325264 0.9421,-1.325264 0.21485,0 0.32024,0.107439 0.32024,0.326432 0,1.032807 -1.48468,3.031242 -1.81617,2.444592 z M 17.256321,70.730744 c 0.04689,-0.15461 0.164188,-0.64097 0.260684,-1.0808 0.0965,-0.43983 0.337325,-1.01813 0.535185,-1.28511 0.43756,-0.59039 1.55011,-2.90321 1.55011,-3.2224 0,-0.12652 0.21941,-0.58662 0.48757,-1.02244 0.26815,-0.43583 0.51865,-1.03512 0.55662,-1.33176 0.038,-0.29663 0.18001,-0.85382 0.31562,-1.238165 0.13562,-0.384343 0.24397,-0.852378 0.24079,-1.040068 -0.005,-0.31832 -0.0303,-0.3113 -0.37074,0.104619 -0.20073,0.24523 -0.68607,1.070236 -1.07853,1.833364 -0.39245,0.76313 -0.94921,1.61859 -1.23723,1.90115 -0.43957,0.43119 -0.54887,0.69139 -0.68064,1.62036 -0.234501,1.65329 -0.593928,3.45822 -0.790293,3.9684 -0.213664,0.55523 -0.225359,1.07385 -0.02421,1.07385 0.0824,0 0.188172,-0.1265 0.235062,-0.28111 z m 1.623409,-8.27286 c 0.55252,-0.63863 1.78533,-2.817915 1.99577,-3.528257 0.11225,-0.37872 0.35135,-1.086155 0.53131,-1.572085 0.17998,-0.485931 0.72086,-2.076248 1.20199,-3.53404 0.48113,-1.457791 0.97734,-2.887953 1.10272,-3.178065 0.12538,-0.290113 0.22794,-0.781296 0.22794,-1.091456 0,-0.31016 0.11788,-1.033193 0.26194,-1.606703 0.14406,-0.57351 0.21243,-1.092307 0.1519,-1.152836 -0.17749,-0.177489 -0.39534,0.29604 -0.59352,1.29015 -0.10171,0.51017 -0.24541,0.964953 -0.31932,1.010639 -0.30762,0.190131 -1.91063,4.512325 -1.91063,5.151665 0,0.124395 -0.21686,0.704447 -0.48192,1.289009 -0.26505,0.584562 -0.48191,1.128628 -0.48191,1.209027 0,0.0804 -0.14457,0.445418 -0.32128,0.811142 -0.1767,0.365725 -0.32127,0.785874 -0.32127,0.933645 0,0.147772 -0.18133,0.535905 -0.40296,0.862499 -0.22164,0.326593 -0.47117,0.896907 -0.55453,1.267371 -0.0833,0.370463 -0.26346,0.989868 -0.40023,1.376455 -0.13676,0.3866 -0.24866,0.72998 -0.24866,0.76304 0,0.1713 0.2864,0.0179 0.56257,-0.30131 z m 4.25643,-1.470113 c 0.44182,-0.591052 0.8033,-1.103841 0.8033,-1.139551 0,-0.03571 0.21436,-0.382527 0.47634,-0.770726 0.26199,-0.388198 0.55298,-0.87975 0.64665,-1.092355 0.0937,-0.212605 0.35071,-0.63444 0.57118,-0.937388 0.24832,-0.341211 0.34378,-0.607919 0.25086,-0.700848 -0.23732,-0.237311 -0.44973,-0.01462 -1.08581,1.138266 -0.89934,1.629995 -1.45054,2.344674 -2.23479,2.897591 -0.39268,0.276779 -0.71271,0.632047 -0.71271,0.791207 0,0.15916 -0.11262,0.449626 -0.25026,0.646147 -0.13763,0.19653 -0.2087,0.42454 -0.15791,0.50672 0.1807,0.29239 0.89734,-0.27434 1.69312,-1.338966 z m -0.0547,-2.304836 c 0.15065,-0.242965 0.43619,-0.622473 0.63453,-0.84335 0.45736,-0.50932 1.4169,-2.20749 1.65506,-2.928916 0.30773,-0.932424 1.683,-3.303202 2.12171,-3.657249 0.0547,-0.04417 0.18028,-0.771368 0.27901,-1.61602 0.0987,-0.844651 0.22565,-1.766216 0.28202,-2.048136 0.0615,-0.307542 0.0371,-0.512484 -0.0609,-0.512484 -0.0899,0 -0.29137,0.522138 -0.44776,1.160289 -0.1564,0.638152 -0.52561,1.615056 -0.82049,2.170864 -0.29489,0.555808 -0.53615,1.102974 -0.53615,1.215839 0,0.208251 -0.97472,2.66595 -1.57596,3.973706 -0.18102,0.393756 -0.70109,1.113495 -1.15569,1.599426 -0.90345,0.965708 -1.12367,1.294197 -1.12367,1.676098 0,0.404294 0.45083,0.289695 0.74843,-0.190244 z m 4.59698,-0.762951 c 0.72154,-0.975636 1.40009,-2.284114 1.40231,-2.704022 4.8e-4,-0.103114 0.11564,-0.404342 0.25578,-0.669395 0.14014,-0.265053 0.45727,-1.073127 0.70475,-1.795774 0.24748,-0.722647 0.56609,-1.479622 0.70805,-1.682203 0.14195,-0.202581 0.25808,-0.675114 0.25808,-1.049899 0,-0.721619 0.54784,-3.770981 0.73802,-4.108 0.0618,-0.109524 -0.1874,0.08661 -0.55379,0.43586 -0.58931,0.561752 -0.66637,0.719241 -0.66806,1.365424 -0.003,1.181173 -0.85291,3.862866 -1.22414,3.862866 -0.3597,0 -0.32884,-0.398382 0.12791,-1.651199 0.45845,-1.257428 0.57832,-2.043478 0.31159,-2.043478 -0.26221,0 -1.10872,1.092741 -1.20405,1.554286 -0.0515,0.249535 -0.20348,1.098155 -0.33762,1.885892 -0.32909,1.932156 -0.54205,2.739845 -1.31962,5.004361 -0.33256,0.968551 -0.4165,1.96107 -0.21984,2.599446 0.0569,0.184702 0.36757,-0.120872 1.02063,-1.003908 z m -9.64263,0.198436 c 0.15462,-0.376086 0.28112,-0.795078 0.28112,-0.93109 0,-0.136013 0.0597,-0.315976 0.13271,-0.399909 0.16566,-0.190501 0.41483,-1.038638 0.82998,-2.825143 0.38507,-1.656983 0.38115,-1.584423 0.0856,-1.584423 -0.45387,0 -1.1916,2.105324 -1.51976,4.33723 -0.09744,0.662633 -0.220352,1.403576 -0.273154,1.646542 -0.147417,0.678326 0.148494,0.523037 0.463524,-0.243255 z m 5.53945,-2.299214 c 0.19738,-0.346528 0.47889,-0.987394 0.6256,-1.424121 0.14672,-0.436727 0.47316,-1.119536 0.72545,-1.517356 0.25228,-0.39782 0.4587,-0.933147 0.4587,-1.189638 0,-0.256491 0.1027,-0.694134 0.22823,-0.972535 0.75201,-1.667906 1.43163,-3.331957 1.61715,-3.959892 0.11751,-0.397579 0.3353,-1.156594 0.48398,-1.6867 0.14869,-0.530106 0.32636,-1.036117 0.39482,-1.124467 0.0685,-0.08835 0.28692,-0.666649 0.48545,-1.285106 0.19853,-0.618457 0.46498,-1.290406 0.59211,-1.493228 0.12713,-0.202822 0.18661,-0.509062 0.13219,-0.680527 -0.14227,-0.448261 0.62586,-4.51072 1.13806,-6.018791 0.12002,-0.353404 0.24984,-1.112419 0.28847,-1.6867 0.0386,-0.574282 0.21675,-1.550159 0.39581,-2.168616 0.17907,-0.618457 0.46939,-1.626461 0.64516,-2.240099 l 0.31957,-1.115696 -0.36855,-0.725201 -0.36855,-0.725201 -0.0919,0.475473 c -0.0505,0.261503 -0.13907,0.787529 -0.19675,1.168932 -0.0577,0.381403 -0.23631,1.068131 -0.39697,1.526062 -0.16065,0.457931 -0.33788,1.374758 -0.39384,2.037374 -0.0559,0.662616 -0.2059,1.674653 -0.33326,2.248934 -0.2427,1.094476 -0.7961,4.437951 -1.0479,6.331071 -0.13226,0.994447 -1.09597,4.304621 -1.94485,6.68062 -0.17363,0.48593 -0.49139,1.384171 -0.70615,1.99609 -0.48492,1.381761 -0.79074,1.859226 -1.19081,1.859226 -0.22902,0 -0.36145,0.180155 -0.50183,0.682712 -0.10489,0.375492 -0.54151,1.736498 -0.97027,3.024335 -0.42876,1.287836 -0.77958,2.432383 -0.77958,2.543384 0,0.369997 0.39731,0.07725 0.76046,-0.560355 z m 2.90466,-1.084211 c 0.0616,-0.520532 -0.21551,-0.574137 -0.35117,-0.06793 -0.1424,0.531342 -0.1238,0.636577 0.0995,0.563229 0.11043,-0.03626 0.22367,-0.259141 0.25162,-0.495295 z m 6.20995,-0.742662 c 0.13479,-0.260668 0.24552,-0.604032 0.24606,-0.763031 4.9e-4,-0.159 0.10898,-0.496147 0.24096,-0.749217 0.13198,-0.253069 0.23996,-0.601172 0.23996,-0.773585 0,-0.172413 0.066,-0.436855 0.14674,-0.587662 0.0807,-0.150808 0.19243,-0.778565 0.24828,-1.39503 0.0559,-0.616465 0.16919,-1.878182 0.25184,-2.803779 0.0826,-0.925597 0.25776,-2.009904 0.38909,-2.409572 0.84014,-2.556075 1.28125,-4.822679 0.89171,-4.581882 -0.0884,0.0546 -0.16064,0.243559 -0.16064,0.419892 0,0.176332 -0.13929,0.626376 -0.30954,1.000085 -0.17024,0.373708 -0.36239,0.893823 -0.427,1.155807 -0.0646,0.261985 -0.21471,0.62665 -0.33354,0.810372 -0.35104,0.5427 -0.71362,1.953199 -0.60912,2.369413 0.0533,0.212186 0.0264,0.666584 -0.0597,1.009755 -0.0861,0.343171 -0.20205,0.825712 -0.25766,1.072292 -0.0611,0.270739 -0.1714,0.404904 -0.27853,0.338689 -0.11731,-0.0725 -0.14687,-0.513223 -0.0873,-1.301169 0.0641,-0.847543 0.0378,-1.174104 -0.0911,-1.13115 -0.31096,0.103655 -0.75293,2.518807 -0.74203,4.054829 0.006,0.795159 0.004,2.024041 -0.003,2.730849 -0.0208,2.01633 0.20301,2.503706 0.70444,1.534046 z M 18.96735,49.161301 c 0.18557,-1.278937 0.37088,-2.614547 0.4118,-2.967951 0.0409,-0.353404 0.14428,-0.861566 0.22973,-1.12927 0.28958,-0.907284 0.63079,-5.58587 0.3898,-5.344913 -0.0469,0.04689 -0.11046,0.474589 -0.14127,0.950448 -0.12483,1.927497 -0.43989,4.17611 -0.65846,4.699308 -0.12759,0.305373 -0.27169,0.977226 -0.32021,1.493019 -0.0485,0.515794 -0.1543,1.407673 -0.23503,1.981954 -0.28692,2.040747 -0.34555,2.974537 -0.17614,2.805064 0.0893,-0.08931 0.31422,-1.208786 0.49981,-2.487804 z m 17.07102,1.449663 c 0.13639,-0.48593 0.33198,-1.461807 0.43466,-2.168615 0.26593,-1.830633 0.26444,-1.821316 0.47126,-2.971806 0.58475,-3.253083 1.27442,-5.753416 1.96396,-7.120286 0.17047,-0.337919 0.27991,-0.699355 0.24321,-0.803191 -0.19026,-0.538234 -1.40332,2.857913 -2.37118,6.638372 -0.19225,0.750983 -0.44831,1.618429 -0.56901,1.927658 -0.12071,0.309228 -0.29108,1.292815 -0.3786,2.185803 -0.0875,0.892988 -0.20635,2.049582 -0.26407,2.570211 -0.12827,1.15714 0.10917,1.026686 0.46977,-0.258098 z m -14.6698,0.596867 c 0.35487,-0.288795 0.80319,-1.157269 0.80319,-1.555893 0,-0.190967 0.0725,-0.482653 0.16108,-0.648175 0.092,-0.171818 0.0998,-0.338866 0.0182,-0.389274 -0.19483,-0.120405 -1.39659,1.486674 -1.52852,2.04396 -0.1644,0.694519 0.0735,0.933886 0.54607,0.549318 z m 16.45738,-2.524589 c 0.50522,-1.62614 0.73087,-2.615029 0.73087,-3.202804 0,-0.638954 1.08813,-5.249815 1.7055,-7.22711 0.23867,-0.764349 0.29877,-1.586961 0.10164,-1.391191 -0.0663,0.0658 -0.24078,0.565783 -0.38782,1.111086 -0.14703,0.545302 -0.42588,1.497453 -0.61967,2.115926 -0.51694,1.649753 -1.09522,4.124384 -1.3701,5.863292 -0.13269,0.839335 -0.37989,1.995929 -0.54935,2.570211 -0.40828,1.383625 -0.64525,2.294234 -0.64636,2.483626 -0.002,0.34534 0.68557,-1.197525 1.03526,-2.322988 z m -17.64771,0.874177 c 0.13135,-0.314369 0.27002,-0.874595 0.30814,-1.244946 0.0381,-0.370351 0.22133,-1.251677 0.40712,-1.958501 0.18893,-0.718727 0.33649,-1.771838 0.33484,-2.389492 -0.002,-0.607421 0.0563,-1.422001 0.12886,-1.810232 0.0725,-0.38823 0.0867,-0.73365 0.0316,-0.767737 -0.13113,-0.081 0.0837,-3.156058 0.29258,-4.188962 0.0894,-0.441755 0.19887,-1.164626 0.24339,-1.606381 l 0.0809,-0.803191 -0.22902,0.88351 c -0.85198,3.286817 -0.87934,3.463198 -0.98255,6.331392 -0.10116,2.811329 -0.20573,3.608254 -0.85552,6.51966 -0.27879,1.249123 -0.29617,1.606382 -0.0782,1.606382 0.0435,0 0.1865,-0.257214 0.31785,-0.571567 z M 35.3306,47.398121 c 0.43575,-3.015661 1.62807,-7.613446 2.32299,-8.957024 0.14354,-0.277582 0.25758,-0.634793 0.2534,-0.793793 -0.0136,-0.517801 -0.93114,1.439655 -1.40813,3.003934 -1.26774,4.157636 -1.51845,5.230378 -1.59548,6.827121 -0.0937,1.94324 0.14128,1.899065 0.42728,-0.08032 z m 4.48437,0.240957 c 0.195,-0.618457 0.3834,-1.630478 0.41864,-2.248934 0.11266,-1.976974 0.85177,-5.165481 1.3777,-5.943612 0.18655,-0.275977 0.52874,-1.691199 0.43224,-1.787742 -0.16192,-0.161924 -0.39565,0.08523 -0.50948,0.538716 -0.0608,0.242403 -0.27883,0.808492 -0.48442,1.257941 -0.20558,0.44945 -0.459,1.390323 -0.56314,2.090866 -0.10415,0.700543 -0.29063,1.743567 -0.4144,2.317848 -0.12377,0.574282 -0.25746,1.477871 -0.29709,2.007977 -0.0396,0.530106 -0.18531,1.280142 -0.32376,1.666782 -0.26501,0.739996 -0.34409,1.638027 -0.12129,1.37736 0.0717,-0.08393 0.29,-0.658617 0.485,-1.277074 z M 21.59218,48.26849 c 0.13994,-0.364664 0.12016,-0.582056 -0.0437,-0.480758 -0.1906,0.117799 -0.34357,0.734856 -0.18218,0.734856 0.0706,0 0.17228,-0.114343 0.22592,-0.254098 z m 4.01563,-0.712976 c 0.14212,-0.355187 0.25911,-0.734695 0.25998,-0.843351 8e-4,-0.108655 0.18967,-0.595132 0.41956,-1.081062 0.51486,-1.088259 0.78356,-2.112874 1.17948,-4.497869 0.16867,-1.016036 0.38055,-2.172631 0.47083,-2.57021 0.0903,-0.39758 0.28256,-1.337313 0.42727,-2.088296 0.1447,-0.750984 0.32527,-1.654573 0.40125,-2.007977 0.076,-0.353404 0.1413,-1.040952 0.14515,-1.527878 0.01,-1.215709 0.70854,-4.494495 1.42304,-6.6758 0.32603,-0.995314 0.50887,-1.740033 0.40629,-1.654895 -0.43371,0.359958 -2.22821,6.849772 -2.54836,9.215972 -0.0972,0.718229 -0.16765,1.053899 -0.37951,1.80734 -0.10561,0.375588 -0.25796,1.134603 -0.33853,1.686701 -0.0806,0.552097 -0.2184,1.401391 -0.30626,1.887337 -0.0879,0.485931 -0.19712,1.461808 -0.24279,2.168615 -0.0457,0.706808 -0.23562,1.718829 -0.42212,2.248935 -0.58302,1.657143 -1.44006,4.301247 -1.44006,4.442769 0,0.360135 0.31429,0.06569 0.54479,-0.510395 z m 15.75925,-0.599148 c 0.0518,-0.331317 0.16478,-0.868185 0.25117,-1.193044 0.0864,-0.324858 0.22278,-1.083874 0.3031,-1.686701 0.20127,-1.510753 0.8018,-4.263658 0.97581,-4.47329 0.0788,-0.09497 0.18756,-0.49438 0.24163,-0.887574 l 0.0983,-0.714904 -0.34362,0.722871 c -0.50843,1.069593 -1.34448,4.179966 -1.53279,5.702655 -0.0656,0.530106 -0.25342,1.354661 -0.41747,1.832399 -0.37665,1.096789 -0.37419,1.300109 0.0157,1.300109 0.23902,0 0.33648,-0.143842 0.40811,-0.602393 z M 30.12865,46.125031 c 0.79127,-1.208561 1.79658,-3.536931 2.08605,-4.831193 0.14819,-0.662632 0.38526,-1.638509 0.52681,-2.168615 0.16368,-0.612915 0.26163,-1.667263 0.26907,-2.895663 0.0111,-1.832239 0.0357,-1.972958 0.47833,-2.728118 0.3998,-0.682214 0.46783,-0.969275 0.47485,-2.0038 0.0139,-2.042193 -0.38702,-2.043639 -0.71947,-0.0027 -0.0791,0.48593 -0.26066,1.281089 -0.40336,1.76702 -0.1714,0.583662 -0.27363,1.646701 -0.30119,3.132444 -0.023,1.236914 -0.12003,2.538083 -0.21571,2.891487 -0.0957,0.353403 -0.25948,1.003988 -0.36401,1.445743 -0.4831,2.041711 -0.9133,3.172764 -1.78228,4.685494 -0.516,0.89832 -0.93393,1.729591 -0.92874,1.847339 0.006,0.133061 0.0818,0.09884 0.2008,-0.09046 0.10524,-0.167466 0.41067,-0.639485 0.67874,-1.048903 z m 12.28336,0.447795 c 0,-0.167224 0.12033,-0.736815 0.26738,-1.265781 0.14706,-0.528965 0.21935,-1.009787 0.16064,-1.0685 -0.1869,-0.186919 -0.29543,0.06 -0.51937,1.181718 -0.12016,0.601879 -0.26973,1.27505 -0.33238,1.495927 -0.10239,0.361002 -0.0867,0.379315 0.15491,0.181136 0.14784,-0.121258 0.26881,-0.357276 0.26881,-0.5245 z M 22.37722,45.18933 c 0.35006,-1.848624 0.43845,-2.595752 0.52053,-4.40004 0.0671,-1.474546 0.26844,-3.608254 0.58156,-6.161919 0.23195,-1.891675 0.25913,-2.045727 0.44804,-2.540493 0.095,-0.248716 0.17048,-0.646295 0.1678,-0.883509 -0.0144,-1.273684 -0.86547,1.951111 -1.11559,4.227193 -0.0971,0.88351 -0.24664,2.148535 -0.33232,2.811167 -0.0857,0.662633 -0.22896,2.521698 -0.31837,4.131293 -0.0894,1.609594 -0.19131,3.019194 -0.22642,3.132444 -0.18626,0.600883 -0.24207,1.089512 -0.12441,1.089512 0.0732,0 0.25281,-0.632513 0.39921,-1.405584 z m 2.9747,-0.562234 c 0.47632,-1.290888 0.63659,-2.162189 1.08588,-5.903452 0.22812,-1.899546 0.51317,-3.923587 0.63346,-4.497868 0.12029,-0.574282 0.26377,-1.441728 0.31887,-1.927658 0.0551,-0.485931 0.23271,-1.425664 0.39473,-2.088296 0.38584,-1.577997 0.56047,-2.681373 0.39996,-2.526999 -0.19794,0.190292 -0.50577,1.148289 -1.01846,3.169551 -0.98359,3.877805 -1.18982,5.259293 -1.45085,9.718609 -0.10345,1.76718 -0.22177,2.50965 -0.55233,3.465768 -0.46876,1.355931 -0.48347,1.433663 -0.27157,1.433663 0.082,0 0.28913,-0.379507 0.46029,-0.84335 z m 8.01456,-2.029342 0.77342,-1.544776 0.007,-2.409573 c 0.007,-2.416801 0.0998,-3.042968 0.70871,-4.804205 0.37388,-1.081352 0.41032,-1.434627 0.13857,-1.344044 -0.10423,0.03474 -0.40433,0.709427 -0.66691,1.499284 -0.40116,1.20673 -0.49581,1.808144 -0.59262,3.765359 -0.0822,1.660838 -0.20829,2.605872 -0.43957,3.293082 -0.40097,1.191518 -1.42994,3.400871 -1.64606,3.534522 -0.088,0.05437 -0.15996,0.217198 -0.15996,0.361853 0,0.563053 1.12093,-0.841198 1.87705,-2.351582 z m -3.05181,0.03107 c 0.31196,-0.715161 0.61041,-1.738105 0.69412,-2.379051 0.0808,-0.618457 0.25675,-1.738908 0.39109,-2.489891 0.13434,-0.750984 0.24534,-1.835291 0.24669,-2.409573 0.001,-0.574281 0.13895,-1.550158 0.30578,-2.168615 0.16682,-0.618457 0.42183,-1.626782 0.56666,-2.240581 0.14483,-0.613798 0.35977,-1.228336 0.47763,-1.365424 0.20573,-0.239319 0.58104,-1.194024 0.58104,-1.478016 0,-0.237793 -0.42231,-0.147862 -0.67832,0.144449 -0.13542,0.154614 -0.29786,0.639388 -0.36099,1.077272 -0.0631,0.437883 -0.40863,1.919786 -0.7678,3.293082 -0.41782,1.597611 -0.70663,3.133408 -0.80186,4.263979 -0.15804,1.876415 -0.4747,3.456452 -1.15136,5.745224 -0.22894,0.774404 -0.41628,1.457518 -0.41628,1.518031 0,0.310497 0.42735,-0.39623 0.91357,-1.510834 z M 20.24475,38.884349 c 0,-0.176702 -0.0277,-0.321277 -0.0616,-0.321277 -0.0339,0 -0.0994,0.144575 -0.1456,0.321277 -0.0462,0.176702 -0.0185,0.321276 0.0616,0.321276 0.0801,0 0.1456,-0.144574 0.1456,-0.321276 z m 16.30477,-1.605466 c 0.23614,-0.617959 0.3965,-1.214328 0.35638,-1.325265 -0.0427,-0.118005 -0.14198,-0.03506 -0.23927,0.199882 -0.64656,1.561178 -0.80417,2.015688 -0.73679,2.124761 0.1357,0.21956 0.18308,0.143164 0.61966,-0.999378 z M 20.6684,36.314134 c 0.17031,-0.919541 -0.0718,-0.466445 -0.32062,0.599903 -0.12653,0.542395 -0.18332,1.033113 -0.12619,1.090509 0.0959,0.0964 0.16257,-0.155633 0.4468,-1.690396 z m 14.8367,0.200798 c 0.2793,-0.861422 0.53832,-1.662605 0.5756,-1.780513 0.0373,-0.117909 -0.0121,-0.187578 -0.10984,-0.155016 -0.39308,0.131026 -1.39477,3.501751 -1.04063,3.501751 0.0369,0 0.29559,-0.7048 0.57489,-1.566222 z m 8.02741,-0.512613 c -0.004,-0.200203 -0.0524,-0.187882 -0.24096,0.06141 -0.12971,0.171497 -0.23355,0.424502 -0.23074,0.562234 0.004,0.200203 0.0524,0.187882 0.24096,-0.06141 0.12972,-0.171497 0.23355,-0.424502 0.23074,-0.562234 z m -4.94396,0.0307 c 0.22189,-0.534604 0.25397,-0.718807 0.15765,-0.905212 -0.10624,-0.205585 -0.49719,0.559021 -0.50391,0.985531 -0.008,0.485995 0.12386,0.45549 0.34626,-0.08032 z M 28.01888,25.457891 c 0.0536,-0.139752 0.0975,-0.473899 0.0975,-0.742534 0,-0.398655 -0.041,-0.454397 -0.22318,-0.303236 -0.23501,0.195046 -0.44252,0.971828 -0.31482,1.178473 0.12436,0.201216 0.33691,0.137187 0.44047,-0.132701 z m 67.710591,67.434293 c -0.47729,-0.51212 -1.03054,-1.14463 -1.22944,-1.40558 -1.72911,-2.26854 -2.53616,-3.43429 -3.02209,-4.36503 -0.74697,-1.43099 -1.14177,-1.96621 -2.55447,-3.46303 -0.94156,-0.9976 -1.36039,-1.61779 -2.07817,-3.07719 -0.49445,-1.00532 -0.899,-1.96396 -0.899,-2.13038 0,-0.77717 -0.52329,-2.21472 -1.01555,-2.7898 -0.29071,-0.33962 -0.63293,-0.81964 -0.7605,-1.06672 -0.12756,-0.24708 -0.30672,-0.52151 -0.39812,-0.60986 -0.56524,-0.54635 -1.7275,-2.57037 -1.98517,-3.45694 -0.16634,-0.57246 -0.89131,-2.1466 -1.61104,-3.49805 -0.71972,-1.35145 -1.35137,-2.67061 -1.40356,-2.93165 -0.072,-0.36026 -0.1837,-0.47451 -0.46373,-0.47451 -0.46827,0 -1.652,-1.17022 -2.49326,-2.464991 -0.34751,-0.534797 -0.631821,-1.037193 -0.631821,-1.11642 0,-0.07923 -0.16202,-0.371588 -0.36004,-0.649701 l -0.36004,-0.50564 -0.0824,0.480838 c -0.0697,0.406382 -0.16472,0.488758 -0.61399,0.531937 -0.44928,0.04318 -0.63491,-0.05696 -1.20408,-0.652175 -1.32554,-1.386179 -2.0642,-2.784341 -3.28939,-6.226013 l -0.42887,-1.204787 -0.12846,1.763004 c -0.15264,2.094882 -0.27864,2.649727 -0.65452,2.882331 -0.22629,0.139978 -0.33822,0.09874 -0.57425,-0.211593 -0.67975,-0.893694 -1.43087,-2.713018 -1.83047,-4.433613 -0.041,-0.176702 -0.083,0.08967 -0.0932,0.591935 -0.0102,0.502266 -0.0857,1.089609 -0.16767,1.305201 -0.36044,0.948023 -1.99304,-0.25678 -2.90643,-2.14484 -0.48297,-0.998366 -0.60944,-1.140499 -1.14249,-1.284029 -0.5786,-0.155802 -1.26658,-0.841005 -1.72814,-1.721077 -0.13761,-0.262419 -0.33334,-0.361436 -0.71447,-0.361436 -0.33296,0 -0.76965,-0.179963 -1.19409,-0.492099 -0.88216,-0.648753 -1.50309,-1.959143 -2.05055,-4.32711 -0.72245,-3.125216 -1.057,-4.090008 -2.00508,-5.782974 -0.37111,-0.662632 -0.79988,-1.313217 -0.95283,-1.445743 -0.15294,-0.132527 -0.36614,-0.464951 -0.47377,-0.738743 -0.17259,-0.439008 -0.14687,-0.600225 0.21778,-1.365424 0.59854,-1.255998 1.84702,-2.593504 3.04795,-3.264971 0.56562,-0.316313 1.32717,-0.91832 1.69232,-1.337795 1.09975,-1.263338 2.47222,-4.967092 2.90177,-7.830789 0.0795,-0.530105 0.29087,-1.614413 0.46967,-2.409572 0.35876,-1.59541 0.4261,-2.071911 0.6583,-4.658506 0.18232,-2.030949 0.29901,-2.47174 1.06326,-4.015954 1.23616,-2.4977629 1.3367,-2.6084429 3.24248,-3.5669709 1.49689,-0.752879 1.54003,-0.763641 2.99799,-0.748188 1.63658,0.01734 2.95719,0.276715 3.69147,0.725024 0.26512,0.161843 0.59047,0.344312 0.723,0.405467 0.13252,0.06115 0.88169,0.579615 1.66485,1.152113 0.977151,0.714342 1.795451,1.498866 2.608281,2.5004939 0.65139,0.802805 1.54624,1.901313 1.98854,2.441378 0.4423,0.540066 0.92065,1.262793 1.06296,1.606382 0.14231,0.343589 0.39581,0.927958 0.56336,1.298599 0.16755,0.37064 0.30463,0.740397 0.30463,0.821696 0,0.0813 0.15279,0.342015 0.33951,0.579406 0.18673,0.237391 0.43153,0.73508 0.54399,1.105977 0.18242,0.601639 0.54818,1.517517 0.87875,2.200422 0.0642,0.132526 0.27813,0.819255 0.47552,1.526062 0.1974,0.706808 0.50057,1.718829 0.67374,2.248935 0.59743,1.828865 1.13919,4.02254 1.50754,6.10425 0.20324,1.148562 0.56262,2.955742 0.79864,4.015954 0.49814,2.237689 0.72124,3.638936 0.60945,3.827846 -0.0433,0.07324 -0.004,0.434687 0.0872,0.803191 0.0913,0.368504 0.28875,1.392894 0.43882,2.276403 0.15007,0.88351 0.36171,1.750956 0.4703,1.927658 0.20994,0.341629 0.59624,2.676553 0.59739,3.610825 3.3e-4,0.307317 0.10618,1.030188 0.2351,1.606381 0.12892,0.576193 0.27019,1.372926 0.31395,1.770554 0.0438,0.397628 0.17757,1.084308 0.29736,1.526063 0.11978,0.441755 0.37061,2.176647 0.55738,3.855315 0.18677,1.678669 0.41637,3.558136 0.51023,4.176593 0.0939,0.618456 0.23168,1.63048 0.30623,2.24893 0.0745,0.61846 0.21259,1.73891 0.30671,2.4899 0.0941,0.75098 0.24961,2.23287 0.34554,3.29308 0.0959,1.06021 0.20151,2.10837 0.23462,2.32925 0.17141,1.14328 0.55923,3.3673 0.69909,4.00921 0.0875,0.40132 0.24217,1.23569 0.34382,1.85408 0.3042,1.85104 0.46059,2.47961 1.11903,4.49787 0.34589,1.06021 0.73194,2.36138 0.85789,2.89149 0.39077,1.64477 1.09886,4.0084 1.24874,4.16856 0.0786,0.0839 0.14288,0.24737 0.14288,0.36319 0,0.11582 0.13856,0.51701 0.30791,0.89154 0.82407,1.82244 1.0089,2.34933 1.09012,3.10754 0.0783,0.73073 0.0467,0.84899 -0.28923,1.08431 -0.2074,0.14527 -0.4223,0.26414 -0.47754,0.26414 -0.0553,0 -0.49096,-0.41901 -0.96825,-0.93113 z m -1.75128,-4.11796 c 0,-0.0381 -0.32529,-0.7377 -0.72287,-1.55456 -0.39758,-0.81686 -0.72287,-1.6033 -0.72287,-1.74758 0,-0.222 -0.59052,-2.64009 -1.1381,-4.66044 -0.0838,-0.30922 -0.29534,-1.31479 -0.47003,-2.23463 -0.1747,-0.91985 -0.35421,-1.70887 -0.3989,-1.75369 -0.20794,-0.20795 -0.0472,1.64622 0.25519,2.94402 0.74975,3.21758 1.44446,5.72401 1.81104,6.53363 0.213,0.47061 0.54875,1.23515 0.7461,1.69907 0.19734,0.46392 0.42219,0.84335 0.49965,0.84335 0.0774,0 0.14085,-0.0312 0.14085,-0.0693 z m -3.3734,-4.96211 c 0,-0.19719 -0.53209,-1.55803 -0.58753,-1.50261 -0.11724,0.11724 0.29509,1.5543 0.44596,1.5543 0.0779,0 0.14157,-0.0233 0.14157,-0.0517 z m -2.08026,-2.90579 c -0.18114,-0.32251 -0.32934,-0.81398 -0.32934,-1.09216 0,-0.27818 -0.0668,-0.72777 -0.14842,-0.9991 -0.0816,-0.27134 -0.22291,-0.96319 -0.31396,-1.53747 -0.091,-0.57428 -0.27927,-1.51402 -0.41827,-2.0883 -0.30766,-1.27113 -0.68206,-3.51653 -0.74972,-4.49626 -0.0392,-0.567 0.007,-0.73219 0.21433,-0.77217 0.32481,-0.0626 0.39089,0.14817 0.6194,1.97537 0.0994,0.79515 0.35355,2.09632 0.56469,2.89148 0.21114,0.79516 0.63235,2.44524 0.93604,3.66689 0.30369,1.22165 0.5948,2.26371 0.64691,2.31592 0.23003,0.23003 0.2348,-0.13094 0.013,-0.98258 -0.13174,-0.50575 -0.24038,-1.44012 -0.24143,-2.0764 -9.6e-4,-0.63629 -0.10582,-1.54725 -0.23284,-2.02453 -0.12702,-0.47727 -0.22273,-0.91096 -0.2127,-0.96383 0.0285,-0.15017 -0.18887,-0.97611 -0.51143,-1.9434 -0.18046,-0.5412 -0.43582,-2.34612 -0.65911,-4.6585 l -0.36451,-3.775 -0.68518,-0.88351 c -0.62434,-0.80504 -1.45612,-2.41423 -1.99288,-3.855315 -0.41053,-1.102299 -0.80311,-1.909827 -0.98228,-2.020667 -0.24061,-0.148698 -0.0659,2.144037 0.33759,4.430242 0.16372,0.92768 0.34198,2.08428 0.39614,2.57021 0.0541,0.48593 0.16696,1.24494 0.25072,1.6867 0.0838,0.44175 0.30561,1.70678 0.49301,2.81117 0.32933,1.94083 0.62246,3.32392 0.9532,4.49786 0.0871,0.30923 0.37801,1.56973 0.64644,2.80105 0.26843,1.23133 0.55178,2.31576 0.62968,2.40957 0.0779,0.0938 0.3022,0.64057 0.49842,1.21485 0.47618,1.39361 0.84148,2.09038 0.91551,1.74613 0.031,-0.14402 -0.0919,-0.52573 -0.27304,-0.84823 z m 1.30623,-6.78262 c -0.16948,-0.51833 -0.43535,-1.48457 -0.59085,-2.14725 -0.37128,-1.58224 -0.39677,-1.66534 -0.48398,-1.57814 -0.14466,0.14465 0.55682,3.08056 1.00167,4.19233 0.37133,0.92806 0.4225,0.60145 0.0732,-0.46705 z m -5.17078,-2.26773 c -6.5e-4,-0.0663 -0.13918,-0.69878 -0.30791,-1.40558 -0.16874,-0.70681 -0.38873,-1.89955 -0.48887,-2.65053 -0.26305,-1.97248 -0.75507,-4.16182 -1.38986,-6.184573 -0.64231,-2.04669 -1.48894,-4.226871 -1.68959,-4.350884 -0.0763,-0.04713 -0.13866,-0.249551 -0.13866,-0.449803 0,-0.200251 -0.18072,-0.881357 -0.4016,-1.513565 -0.22088,-0.632207 -0.40199,-1.241171 -0.40249,-1.353264 -0.002,-0.48948 -0.35676,-1.423254 -0.51986,-1.368878 -0.51899,0.173007 0.0966,2.284275 1.6512,5.662977 0.84343,1.833042 1.72879,4.89593 1.83417,6.34521 0.10463,1.43928 1.48972,7.38935 1.72011,7.38935 0.0739,0 0.13389,-0.0542 0.13327,-0.12048 z m 5.21046,-3.02739 c -0.22938,-1.31678 -0.52041,-3.65917 -0.64673,-5.20532 -0.21177,-2.592053 -0.52068,-4.874079 -0.73928,-5.461693 -0.0493,-0.132526 -0.21008,-0.927685 -0.35729,-1.76702 -0.14721,-0.839334 -0.33427,-1.887498 -0.41571,-2.329253 -0.0815,-0.441755 -0.22589,-1.489919 -0.32099,-2.329253 -0.0951,-0.839335 -0.20894,-1.779068 -0.25297,-2.088296 -0.044,-0.309229 -0.14273,-1.068244 -0.21932,-1.686701 -0.0766,-0.618457 -0.26473,-1.95577 -0.4181,-2.971806 -0.15336,-1.016036 -0.29938,-2.208775 -0.32448,-2.650529 -0.0251,-0.441755 -0.12107,-1.001258 -0.21324,-1.243324 -0.17085,-0.448759 -0.56102,-2.675589 -0.82356,-4.700272 -0.14331,-1.105287 -0.37999,-2.268854 -0.8495,-4.176592 -0.13047,-0.530106 -0.48872,-2.048137 -0.79614,-3.373402 -0.30741,-1.325264 -0.67638,-2.755426 -0.81994,-3.178226 -0.14356,-0.422799 -0.26102,-0.874899 -0.26102,-1.004775 0,-0.129876 -0.17772,-0.604498 -0.39492,-1.054734 -0.21719,-0.450237 -0.50901,-1.226955 -0.64846,-1.726057 -0.13945,-0.499103 -0.43935,-1.305057 -0.66642,-1.790955 -0.22708,-0.485898 -0.49474,-1.064228 -0.5948,-1.285105 -0.10006,-0.220878 -0.37311,-0.733956 -0.60679,-1.140178 -0.23368,-0.406222 -0.47774,-0.912232 -0.5424,-1.124467 -0.0647,-0.212235 -0.28987,-0.615999 -0.5005,-0.897244 -0.21063,-0.281246 -0.38294,-0.579197 -0.38294,-0.662135 0,-0.123102 -1.64911,-2.466438 -2.25006,-3.197181 -0.0877,-0.10671 -0.15955,-0.266836 -0.15955,-0.355846 0,-0.426542 -1.640111,-1.6736889 -3.284891,-2.4980839 -2.24138,-1.123246 -3.74753,-1.392765 -5.40097,-0.966495 -1.15882,0.298771 -2.00364,0.759224 -2.47335,1.348043 -0.849,1.0643559 -1.61827,3.7415839 -2.01247,7.0035019 -0.24392,2.018419 -0.57339,3.942382 -0.7565,4.41755 -0.0851,0.220877 -0.24385,0.943749 -0.35271,1.606381 -0.18445,1.122684 -0.35445,1.88782 -0.82096,3.694678 -0.10264,0.397579 -0.29382,0.89061 -0.42482,1.095632 -0.131,0.205023 -0.33337,0.642505 -0.44969,0.972199 -0.26326,0.746132 -1.21147,2.234958 -1.71642,2.695187 -0.20849,0.189986 -0.94984,0.64236 -1.64751,1.005289 -1.39813,0.727402 -1.4811,0.809279 -2.17584,2.147411 -0.59643,1.148933 -0.5084,1.864527 0.36012,2.927309 0.11837,0.144865 0.49695,0.718872 0.90054,1.365425 0.0827,0.132526 0.46328,1.234424 0.84566,2.448607 0.38238,1.214184 0.75085,2.208132 0.81879,2.208775 0.15423,0.0013 0.033,-0.502669 -0.54908,-2.283311 -0.25188,-0.770517 -0.45796,-1.607185 -0.45796,-1.859387 0,-0.252202 -0.18639,-0.995169 -0.41421,-1.651199 -0.49015,-1.411463 -0.70963,-3.697891 -0.39175,-4.080852 0.26107,-0.314562 0.48468,-0.312425 0.48468,0.0046 0,0.262756 0.44964,1.220963 0.637,1.357441 0.0606,0.04418 0.29641,0.357645 0.52393,0.696623 0.39888,0.594249 1.08802,1.210634 1.08802,0.973146 0,-0.06351 -0.18101,-0.424341 -0.40224,-0.801841 -0.44519,-0.759674 -0.95753,-2.54483 -0.8024,-2.795746 0.21109,-0.341565 0.49914,-0.126429 0.92688,0.692254 0.42129,0.806339 1.4697,1.854406 2.08493,2.08428 0.36604,0.136775 0.3555,0.06601 -0.0969,-0.651099 -0.74613,-1.182634 -1.10512,-2.035767 -1.22718,-2.916546 -0.0683,-0.492469 -0.0941,-0.946448 -0.0575,-1.008856 0.14859,-0.253102 0.50335,0.08559 0.67449,0.643934 0.50142,1.635939 1.94356,3.24457 2.90884,3.24457 0.44026,0 1.41885,-0.62175 1.6618,-1.055795 0.22648,-0.404712 -0.0354,-1.414997 -0.49851,-1.922839 -0.66493,-0.729152 -1.31678,-1.746458 -1.31678,-2.055043 0,-0.152637 0.12125,-0.324056 0.26945,-0.380922 0.19108,-0.07332 0.4859,0.132005 1.01363,0.705925 1.07161,1.165429 1.35223,1.284703 1.85039,0.7865 0.63065,-0.630649 0.48736,-2.017776 -0.33334,-3.22722 -0.27081,-0.399058 -0.39157,-0.769602 -0.35914,-1.102026 0.0607,-0.622746 0.44305,-0.725298 1.0617,-0.28478 0.77022,0.548435 1.21767,0.580354 1.71209,0.122151 0.38391,-0.355797 0.42501,-0.484709 0.33131,-1.039265 -0.0588,-0.348199 -0.32076,-1.085175 -0.58209,-1.637706 -0.26132,-0.552531 -0.51483,-1.361119 -0.56334,-1.796737 -0.0839,-0.753666 -0.0704,-0.789521 0.27775,-0.739145 0.26916,0.03895 0.53794,0.372906 1.01634,1.262841 0.46474,0.864539 0.72671,1.194377 0.91772,1.155503 0.34974,-0.07117 0.77348,-1.148419 0.78952,-2.007174 0.0211,-1.127214 0.36971,-2.755587 0.6964,-3.252602 0.29916,-0.45512 0.31159,-0.458638 0.45848,-0.12946 0.10213,0.228878 0.0425,1.095778 -0.1842,2.679284 -0.32236,2.251344 -0.32115,2.834461 0.006,2.834461 0.24281,0 0.61717,-1.057931 0.61717,-1.744049 0,-0.763128 0.45554,-1.414194 0.87646,-1.252672 0.29554,0.113409 0.29554,0.112318 -0.0237,2.233673 -0.0592,0.393596 -0.0279,0.602393 0.0905,0.602393 0.0996,0 0.18276,-0.126502 0.1847,-0.281116 0.006,-0.485931 0.62157,-1.67626 0.80735,-1.561468 0.0983,0.06077 0.16988,0.572049 0.16456,1.175856 -0.032,3.633153 0.0885,5.244193 0.45851,6.128506 0.67335,1.609273 0.981,2.949317 1.13717,4.953117 0.0849,1.089689 0.2568,2.571656 0.38194,3.293082 0.12513,0.721426 0.3153,2.034643 0.42257,2.918153 0.107271,0.88351 0.295251,2.099059 0.417691,2.701131 0.12244,0.602071 0.22263,1.356027 0.22263,1.675295 0,0.534861 0.15208,1.171566 0.49901,2.08926 0.0752,0.19879 0.24561,0.361436 0.3788,0.361436 0.2065,0 0.19575,-0.124156 -0.073,-0.843351 -0.3899,-1.043344 -1.12188,-5.614785 -1.12532,-7.027919 -0.001,-0.574281 -0.0685,-1.297153 -0.14915,-1.606382 -0.0806,-0.309228 -0.186511,-1.248961 -0.235241,-2.088296 -0.0937,-1.613931 -0.65378,-4.153781 -1.28675,-5.835502 -0.30711,-0.815897 -0.4001,-1.455912 -0.48392,-3.330029 -0.13733,-3.07092 0.29784,-6.077423 0.80611,-5.569164 0.0566,0.05659 0.0995,1.642043 0.0954,3.523276 -0.007,3.225293 0.15118,4.946531 0.45481,4.946531 0.0736,0 0.18029,0.146501 0.23712,0.325549 0.0568,0.179049 0.28473,0.444422 0.506451,0.589687 0.60583,0.396953 0.70362,0.0791 0.60289,-1.959464 -0.0538,-1.08948 -0.0243,-1.858905 0.077,-2.006692 0.28753,-0.419217 0.47912,0.01865 0.63267,1.445904 0.12519,1.163566 0.26188,1.984363 0.77112,4.631037 0.13209,0.686536 0.50387,0.09988 0.50387,-0.795094 0,-0.944263 0.21129,-1.267981 0.61105,-0.936199 0.22799,0.189215 0.2566,0.493336 0.19884,2.113677 -0.0371,1.040919 -0.009,1.892638 0.0618,1.892638 0.0711,0 0.12925,-0.544418 0.12925,-1.20983 0,-0.950271 0.054,-1.230552 0.25175,-1.306438 0.13846,-0.05313 0.31993,-0.02844 0.40325,0.05488 0.1466,0.146598 0.29745,1.440892 0.38052,3.264649 0.0221,0.48593 0.12348,1.087006 0.22523,1.335722 0.10174,0.248716 0.18499,0.701282 0.18499,1.005692 0,0.304409 0.15105,1.221364 0.33567,2.037695 0.48868,2.160744 0.62875,3.052125 0.77596,4.937856 0.15128,1.937939 0.89018,7.686536 1.15628,8.995737 0.0988,0.48593 0.27947,1.111295 0.40158,1.389697 0.1221,0.278402 0.222,0.545206 0.222,0.592899 0,0.04769 0.2811,0.687339 0.62465,1.421471 0.34356,0.734132 0.85494,1.91304 1.13639,2.619848 0.90027,2.260821 1.19126,2.835741 1.59695,3.154771 0.36048,0.28354 0.41027,0.28817 0.54335,0.0504 0.0915,-0.16345 0.0771,-0.51287 -0.0383,-0.930283 -0.10165,-0.367669 -0.22072,-1.246809 -0.26459,-1.953682 -0.0439,-0.706872 -0.14819,-1.53811 -0.23182,-1.847338 -0.0836,-0.309229 -0.15352,-1.140531 -0.15531,-1.847339 -0.002,-0.706808 -0.1045,-1.718829 -0.22822,-2.248934 -0.12372,-0.530106 -0.26602,-1.448941 -0.3162,-2.041872 -0.0502,-0.592932 -0.19458,-1.604936 -0.32088,-2.248934 -0.12629,-0.643999 -0.38399,-2.074481 -0.57267,-3.178869 -0.18869,-1.104387 -0.45347,-2.622418 -0.58842,-3.373401 -0.13495,-0.750983 -0.26992,-1.598783 -0.29993,-1.883964 -0.03,-0.285181 -0.12795,-0.75508 -0.21768,-1.044148 -0.0897,-0.289069 -0.21161,-0.923156 -0.27087,-1.409086 -0.0592,-0.485931 -0.25374,-1.570238 -0.43218,-2.409573 -0.17843,-0.839334 -0.38525,-1.851354 -0.45958,-2.248934 -0.0743,-0.397579 -0.25008,-1.301169 -0.39058,-2.007977 -0.14049,-0.706808 -0.31466,-1.610397 -0.38701,-2.007977 -0.12318,-0.676817 -0.64909,-2.409411 -0.95081,-3.132444 -0.0737,-0.176702 -0.35661,-1.188722 -0.62858,-2.248934 -0.59462,-2.317848 -0.93353,-3.298383 -1.72269,-4.983799 -0.66554,-1.421551 -0.85837,-2.224517 -0.57612,-2.39897 0.38924,-0.240572 0.84974,0.438703 1.89231,2.791248 0.29039,0.655292 0.52799,1.337265 0.52799,1.515509 0,0.178244 0.13742,0.617975 0.30539,0.977178 0.62806,1.343192 0.78767,1.822922 1.20594,3.624961 0.23585,1.016036 0.49475,2.100344 0.57534,2.409572 0.0806,0.309229 0.18433,0.851382 0.23055,1.204786 0.0462,0.353404 0.19786,1.040132 0.337,1.526063 0.22318,0.779416 0.48566,2.470936 0.6481,4.176592 0.0619,0.650167 0.3486,2.143234 0.95618,4.979783 0.50694,2.366682 0.48461,2.252307 0.79873,4.096273 0.13544,0.795159 0.31371,1.771035 0.39615,2.168615 0.0824,0.397579 0.22907,1.771036 0.32583,3.052125 0.0968,1.281089 0.24128,2.582258 0.3211,2.891487 0.33431,1.295065 0.826,4.246951 0.88867,5.335114 0.0371,0.64387 0.10162,1.351385 0.14343,1.572262 0.20241,1.069304 0.60466,3.93531 0.74274,5.29206 0.27966,2.74755 1.24216,6.84849 1.53795,6.55259 0.0377,-0.0377 -0.11905,-1.14599 -0.34844,-2.46274 z M 54.45615,36.114626 c -0.36054,-0.794291 -0.41901,-1.72686 -0.10827,-1.72686 0.23972,0 0.53355,0.736349 0.68903,1.72686 0.0749,0.477112 0.0503,0.682713 -0.0819,0.682713 -0.10396,0 -0.32847,-0.307221 -0.49891,-0.682713 z m 5.95935,-3.479422 c -0.5267,-0.66501 -1.03324,-1.879145 -0.88442,-2.119942 0.26593,-0.430301 0.66724,-0.06032 1.23437,1.138025 0.33132,0.700061 0.6024,1.348686 0.6024,1.44139 0,0.367653 -0.48107,0.135542 -0.95235,-0.459489 z m 22.799381,38.23831 c 0,-0.0773 -0.11337,-0.45676 -0.25193,-0.84335 -0.26599,-0.74212 -0.65986,-2.64089 -0.874,-4.21322 -0.0983,-0.72143 -0.24035,-1.05774 -0.61085,-1.44574 -0.26555,-0.2781 -0.75228,-1.01164 -1.08162,-1.63016 -1.02677,-1.92814 -1.27099,-2.321061 -1.49691,-2.40877 -0.17244,-0.06695 -0.19524,0.04352 -0.10717,0.519312 0.0615,0.332392 0.20742,0.821214 0.3242,1.086268 0.11678,0.26505 0.25207,0.76068 0.30065,1.1014 0.0486,0.34071 0.19175,0.70215 0.31816,0.80319 0.12641,0.10104 0.42824,0.68972 0.67074,1.30817 0.68283,1.74148 1.42798,3.2412 1.71899,3.45983 0.0633,0.0476 0.23392,0.55357 0.37917,1.12446 0.14525,0.5709 0.29651,1.09221 0.33615,1.15848 0.0995,0.16639 0.37439,0.15174 0.37439,-0.02 z m -1.66534,-8.49391 c -0.31601,-1.409307 -0.73757,-2.63141 -1.04053,-3.01662 -0.19047,-0.242146 -0.34632,-0.582024 -0.34632,-0.755257 0,-0.173232 -0.10504,-0.506861 -0.23341,-0.741361 -0.3318,-0.606104 -1.26475,-3.103047 -1.68991,-4.522606 -0.53027,-1.770875 -0.91902,-2.810365 -1.45466,-3.890014 -0.26257,-0.52919 -0.47737,-1.090476 -0.47737,-1.247323 0,-0.156847 -0.12303,-0.565077 -0.27339,-0.907188 -0.23386,-0.53205 -0.28184,-0.570442 -0.33182,-0.265439 -0.0321,0.196107 0.0548,0.798324 0.19308,1.338245 0.13831,0.539921 0.25157,1.174618 0.25165,1.410451 8e-5,0.235833 0.47724,1.838343 1.06033,3.561187 0.58308,1.722845 1.20496,3.566167 1.38197,4.096273 0.59334,1.77714 1.10689,2.87205 1.93745,4.130971 0.85736,1.299591 1.19242,1.564451 1.02295,0.808651 z m -3.30995,-0.91226 c -0.19881,-0.489834 -0.48794,-0.924698 -0.64874,-0.975733 -0.45767,-0.145257 -1.54368,-1.414627 -2.0144,-2.354473 C 75.0603,57.1065 74.42667,56.235182 74.19336,56.235182 c -0.26457,0 -0.004,0.846595 0.35371,1.150218 0.17294,0.146688 0.31443,0.323059 0.31443,0.391941 0,0.228861 1.339751,2.379533 2.074161,3.329547 0.64278,0.831526 1.43055,1.473246 1.6014,1.304506 0.0336,-0.0332 -0.10023,-0.45804 -0.29749,-0.94405 z m -0.60389,-2.437524 c 0.19344,-0.19344 -0.2387,-0.96513 -0.98031,-1.750474 -0.82047,-0.868892 -1.472551,-1.746297 -1.472551,-1.981471 0,-0.08093 -0.17463,-0.542042 -0.38809,-1.024679 -0.21345,-0.482637 -0.58019,-1.434129 -0.81501,-2.11448 -0.23482,-0.680351 -0.63847,-1.638991 -0.89702,-2.130544 -0.25855,-0.491553 -0.47009,-0.99925 -0.47009,-1.12829 0,-0.302546 -0.5051,-1.851355 -0.5795,-1.77698 -0.0311,0.03109 0.0219,0.914738 0.11779,1.963641 0.16696,1.826777 0.19946,1.941473 0.77079,2.720729 0.65347,0.891317 1.28276,2.05408 2.17921,4.026395 0.321231,0.706808 0.748741,1.465823 0.950001,1.686701 0.20127,0.220877 0.52792,0.672672 0.72589,1.003988 0.33588,0.562121 0.62955,0.734968 0.85895,0.505561 z M 73.47309,58.202984 c 0.0879,-0.679596 -0.0744,-1.513999 -0.39826,-2.048137 -0.1146,-0.188991 -0.67558,-1.947095 -0.94137,-2.95028 -0.1022,-0.385757 -0.31435,-1.481502 -0.47146,-2.434954 -0.21406,-1.299289 -0.3823,-1.85537 -0.6715,-2.219216 -0.89366,-1.124804 -1.05176,-0.472677 -0.36651,1.51167 0.31082,0.900039 0.37386,1.266069 0.24096,1.398965 -0.11291,0.11291 -0.23249,0.123118 -0.32084,0.02739 -0.30183,-0.327011 -1.00319,-2.613261 -1.09472,-3.568576 -0.0817,-0.85225 -0.17895,-1.093882 -0.63521,-1.57766 -0.58477,-0.620047 -0.62456,-0.59261 -0.3712,0.255849 0.0922,0.30865 0.27433,1.352444 0.40484,2.319615 0.14519,1.076083 0.38415,2.073356 0.6158,2.57021 0.20821,0.44651 0.46881,1.100998 0.57912,1.454402 0.19347,0.619838 0.38765,1.130877 1.1124,2.92763 0.48507,1.202586 1.77393,3.096301 2.10741,3.096301 0.0616,0 0.15635,-0.343364 0.21063,-0.763031 z m 8.800081,-0.486509 c -0.0925,-0.417145 -0.21201,-1.156017 -0.26557,-1.641883 -0.0536,-0.48593 -0.1551,-1.064228 -0.22566,-1.285105 -0.0706,-0.220877 -0.25741,-0.813536 -0.41519,-1.317008 -0.25678,-0.819351 -0.61826,-1.250054 -0.85254,-1.015779 -0.0464,0.04639 0.005,0.427586 0.11431,0.847125 0.10926,0.419539 0.25953,1.16037 0.33392,1.64638 0.1214,0.792846 0.92936,3.243606 1.22941,3.729055 0.21589,0.349307 0.25903,-0.161394 0.0813,-0.962673 z m -5.16275,-1.369071 c 0,-0.279639 -0.68975,-2.549809 -1.10039,-3.621748 -0.18098,-0.472421 -0.41014,-1.249508 -0.50924,-1.72686 -0.136241,-0.656287 -0.249681,-0.867928 -0.465181,-0.867928 -0.65117,0 -0.93944,-0.635067 -2.66145,-5.863293 -0.80406,-2.441218 -1.09028,-3.598616 -1.43022,-5.782974 -0.23375,-1.501966 -0.57144,-3.475406 -0.75046,-4.385421 -0.17901,-0.910015 -0.36608,-2.138897 -0.41573,-2.730849 -0.0496,-0.591952 -0.19733,-1.437711 -0.32818,-1.879466 -0.42234,-1.425712 -0.68084,-2.559609 -0.6867,-3.011966 -0.008,-0.627886 -0.21871,-0.547069 -0.55385,0.212557 -0.31857,0.722052 -0.3391,0.58951 0.59695,3.852103 0.21681,0.755658 0.44399,1.839949 0.50485,2.409572 0.0609,0.569623 0.21222,1.360926 0.33638,1.758506 0.35843,1.147904 1.03631,4.828462 1.037,5.630367 3.2e-4,0.401997 0.064,0.799577 0.14138,0.88351 0.0774,0.08393 0.30542,0.658617 0.50668,1.277074 0.20127,0.618456 0.45773,1.269041 0.5699,1.445743 0.18372,0.28939 0.47289,1.220207 0.87406,2.813577 0.12305,0.488694 0.41925,1.254359 0.96232,2.487482 0.68186,1.548327 0.80159,1.871595 0.80159,2.164921 0,0.401386 0.40905,1.420025 0.70868,1.76477 0.11799,0.135761 0.305891,0.535986 0.417551,0.88939 0.46943,1.48571 1.44398,3.025137 1.44398,2.280901 z M 73.89765,54.879236 c 0,-0.384665 -0.25618,-0.690343 -0.43157,-0.514958 -0.1368,0.136804 0.0959,0.907075 0.274,0.907075 0.0867,0 0.15758,-0.176445 0.15758,-0.392117 z m -5.89574,-0.852828 c 0.047,-0.242966 0.0495,-0.911622 0.006,-1.485903 -0.0438,-0.574282 -0.0174,-1.328221 0.0587,-1.675456 0.1473,-0.672207 0.012,-2.642016 -0.2545,-3.705923 -0.0885,-0.353404 -0.20256,-0.841342 -0.25341,-1.084307 -0.18242,-0.871719 -0.39786,-0.427298 -0.36278,0.748365 0.0322,1.077657 -0.0709,1.568165 -0.28464,1.354452 -0.14542,-0.14542 -0.4261,-1.813122 -0.42037,-2.497602 0.006,-0.690679 -0.39151,-2.002997 -1.27862,-4.223498 -0.15883,-0.39758 -0.3311,-0.921661 -0.38283,-1.164627 -0.13323,-0.625862 -0.4202,-0.551711 -0.31082,0.08032 0.13161,0.76051 0.68055,3.125055 0.94166,4.056114 0.32595,1.162281 0.44997,1.83256 0.49045,2.650529 0.0894,1.807501 0.29117,3.789294 0.4006,3.935635 0.0661,0.08835 0.17143,0.400439 0.23413,0.69354 0.0627,0.2931 0.21517,0.726823 0.33883,0.963828 0.12366,0.237006 0.22528,0.554041 0.22583,0.704495 0.002,0.422334 0.35122,1.091858 0.57028,1.091858 0.10804,0 0.23488,-0.19879 0.28185,-0.441755 z m 13.442681,-4.593609 c -0.10095,-0.632095 -0.21507,-1.51069 -0.25361,-1.952396 -0.13039,-1.494979 -0.24343,-2.160744 -0.38131,-2.246043 -0.21013,-0.12987 -0.37446,-1.238022 -0.58408,-3.938526 -0.0583,-0.750984 -0.16629,-1.473856 -0.24001,-1.606382 -0.21043,-0.378335 -0.0214,2.679284 0.26925,4.355864 0.14375,0.829086 0.29392,1.72429 0.33372,1.989343 0.0398,0.265053 0.18008,1.204786 0.31174,2.088296 0.13166,0.88351 0.32617,2.112392 0.43228,2.730849 0.1852,1.079537 0.19495,1.09658 0.24425,0.426382 0.0282,-0.383941 -0.0313,-1.215244 -0.13222,-1.847339 z M 64.52297,51.375878 c -0.052,-0.19879 -0.17362,-1.084308 -0.27018,-1.967818 -0.24391,-2.231906 -0.38826,-2.997186 -0.87722,-4.650314 -0.23386,-0.790693 -0.44897,-1.625497 -0.47803,-1.855049 -0.15342,-1.212224 -1.74919,-5.462019 -2.05087,-5.462019 -0.19553,0 -0.14439,0.203786 0.22232,0.885888 0.53032,0.98643 1.03638,2.561857 1.41821,4.415139 0.19113,0.927686 0.45109,2.192711 0.57767,2.811168 0.12659,0.618457 0.3087,1.702765 0.40468,2.409573 0.21407,1.576278 0.79573,3.774996 0.99864,3.774996 0.0822,0 0.10684,-0.162646 0.0548,-0.361436 z m 14.675261,-0.459216 c 0,-0.431234 -0.4609,-1.29937 -0.82711,-1.557869 -0.16354,-0.115449 -0.29736,-0.309968 -0.29736,-0.432278 0,-0.240828 -0.29215,-0.484645 -0.42341,-0.353371 -0.091,0.09104 0.20628,1.268302 0.47456,1.878984 0.20398,0.464357 0.76552,0.974463 0.94836,0.861471 0.0687,-0.04248 0.12497,-0.221135 0.12497,-0.397002 z M 62.85972,49.689177 c -0.22232,-0.773071 -0.47381,-1.803163 -0.55887,-2.289093 -0.0851,-0.485931 -0.3412,-1.750956 -0.56918,-2.811168 -0.22797,-1.060212 -0.44559,-2.14452 -0.48356,-2.409573 -0.038,-0.265053 -0.17142,-0.709699 -0.29653,-0.988101 -0.1251,-0.278402 -0.22934,-0.603694 -0.23164,-0.722872 -0.002,-0.119177 -0.18301,-0.7563 -0.40159,-1.415832 -0.21858,-0.659532 -0.39851,-1.346261 -0.39988,-1.526063 -0.003,-0.415876 -0.26415,-0.836716 -0.42142,-0.679451 -0.066,0.06604 0.10619,0.931396 0.38274,1.922999 0.27655,0.991604 0.53735,1.983721 0.57957,2.204598 0.0422,0.220878 0.25644,1.088324 0.47605,1.927658 0.21961,0.839335 0.44962,1.977135 0.51116,2.528284 0.0615,0.55115 0.25407,1.527123 0.42785,2.168615 0.17378,0.641493 0.37639,1.402934 0.45023,1.692002 0.0738,0.289069 0.24996,0.702246 0.39135,0.918015 0.14139,0.215769 0.25705,0.503296 0.25705,0.638922 0,0.135627 0.0654,0.246612 0.14545,0.246612 0.08,0 -0.0365,-0.632513 -0.25877,-1.405584 z m 17.074231,-1.670155 c -0.48438,-1.988218 -0.68868,-3.744475 -0.80508,-6.920934 -0.0835,-2.279616 -0.43875,-4.518912 -0.74702,-4.709429 -0.18962,-0.117193 -0.18692,0.161136 0.0118,1.20877 0.088,0.463827 0.20012,2.190462 0.24925,3.837003 0.0896,3.002809 0.27817,4.806454 0.55709,5.327565 0.0822,0.153616 0.23008,0.811801 0.32859,1.462642 0.0985,0.650842 0.29676,1.364043 0.44056,1.584921 0.42788,0.65717 0.41618,0.06205 -0.0352,-1.790634 z M 60.57545,47.709665 c -0.17436,-0.567888 -0.31315,-1.249395 -0.30841,-1.514448 0.009,-0.490621 -0.53168,-3.843107 -0.85453,-5.301059 -0.0978,-0.441755 -0.30788,-1.09234 -0.46678,-1.445744 -0.15891,-0.353404 -0.39826,-0.913629 -0.53191,-1.244945 -0.29066,-0.720543 -0.6649,-0.822741 -0.52925,-0.144539 0.0504,0.251816 0.26937,0.848185 0.48667,1.325264 0.76889,1.687986 1.39008,4.379479 1.38886,6.017506 -8.1e-4,1.066268 0.75355,3.719255 0.99022,3.482635 0.0824,-0.08242 0.009,-0.57592 -0.17487,-1.174666 z m 4.58124,-0.345436 c -0.0596,-0.789906 -0.28146,-1.990467 -0.49294,-2.668039 -0.21148,-0.677572 -0.50424,-1.70164 -0.65055,-2.275922 -0.43195,-1.695214 -0.97851,-3.262239 -1.45713,-4.177555 -0.56156,-1.073979 -0.70058,-0.799705 -0.17816,0.351508 0.81456,1.794971 2.00331,6.297016 2.37696,9.00152 0.2571,1.860993 0.5471,1.693929 0.40175,-0.231448 z m 13.559311,0.838965 c 0,-0.181762 -0.1071,-0.321276 -0.24662,-0.321276 -0.19683,0 -0.21189,0.06485 -0.0747,0.321276 0.0946,0.176702 0.20553,0.321276 0.24661,0.321276 0.0411,0 0.0747,-0.144574 0.0747,-0.321276 z M 74.6398,47.052655 c -0.13101,-0.471601 -0.50096,-1.604148 -0.82211,-2.516718 -0.43636,-1.240046 -0.61758,-2.072232 -0.71716,-3.293082 -0.13062,-1.601578 -0.26155,-2.427243 -0.74301,-4.685815 -0.13184,-0.618457 -0.3086,-1.522047 -0.39283,-2.007977 -0.0842,-0.48593 -0.22144,-1.136515 -0.30493,-1.445743 -0.0835,-0.309229 -0.27262,-1.176675 -0.42027,-1.927658 -0.31843,-1.619715 -1.46627,-5.68129 -1.77906,-6.294928 -0.34575,-0.678391 -0.5579,-0.690085 -0.2928,-0.01614 0.13162,0.334594 0.30296,0.722985 0.38078,0.863077 0.13161,0.236974 0.57582,1.983881 1.21264,4.768705 0.14691,0.642456 0.26621,1.582189 0.26512,2.088296 -10e-4,0.506106 0.14668,1.570768 0.3284,2.365878 0.18173,0.795111 0.38931,1.92798 0.46129,2.5172 0.072,0.589221 0.24104,1.420636 0.37567,1.847339 0.13463,0.426703 0.40041,1.751759 0.5906,2.944498 0.1902,1.192738 0.47141,2.42162 0.62495,2.730848 0.15354,0.309229 0.44924,1.06826 0.65714,1.686701 0.60185,1.790312 1.04972,2.082513 0.5755,0.375524 z m -15.20392,0.307189 c -0.002,-0.110439 -0.14738,-0.517866 -0.3232,-0.905373 -0.17582,-0.387507 -0.39599,-1.218826 -0.48926,-1.847339 -0.37133,-2.502421 -1.59308,-6.738771 -1.86501,-6.46681 -0.0462,0.04618 0.061,0.54013 0.23815,1.097656 0.39229,1.234553 1.15777,4.790552 1.15777,5.378327 0,0.234419 0.10583,0.794018 0.23517,1.243532 0.12935,0.449513 0.2753,1.0161 0.32433,1.259065 0.0612,0.303237 0.18894,0.441755 0.40738,0.441755 0.17501,0 0.31663,-0.09036 0.31469,-0.200797 z m 11.40885,-0.05605 c 0,-0.11168 -1.01145,-1.971833 -1.5199,-2.795265 -0.3678,-0.59563 -0.57961,-1.123246 -0.87067,-2.168615 C 67.67749,39.550272 67.59097,39.025307 67.47462,36.396302 67.39372,34.56824 67.26543,33.399919 67.08656,32.862263 66.9396,32.420508 66.78365,31.807545 66.74,31.500132 66.6964,31.192718 66.57979,30.650565 66.48096,30.295346 L 66.30125,29.6495 66.15604,30.131414 c -0.28931,0.960167 -0.20462,2.235762 0.20374,3.068832 0.56864,1.15992 0.76536,2.090545 0.66825,3.161519 -0.21854,2.410215 1.26402,7.425178 2.89872,9.805514 0.23212,0.337999 0.4662,0.75365 0.52016,0.923669 0.0889,0.279977 0.39774,0.445338 0.39774,0.212926 z M 57.92299,46.717288 c -0.061,-0.287141 -0.14482,-0.666648 -0.18629,-0.84335 -0.0415,-0.176702 -0.11065,-0.57229 -0.15373,-0.87906 -0.0765,-0.544853 -0.31043,-0.943171 -0.46383,-0.789794 -0.0846,0.08464 0.34197,2.099701 0.56585,2.672858 0.2109,0.539857 0.36473,0.436036 0.23799,-0.160638 z M 77.856581,44.72168 c -0.13488,-0.956552 -0.24847,-2.245239 -0.25243,-2.863696 -0.004,-0.618457 -0.0823,-1.702765 -0.17405,-2.409573 -0.0918,-0.706808 -0.23776,-2.007977 -0.32439,-2.891486 -0.0866,-0.88351 -0.22147,-2.040105 -0.29965,-2.570211 -0.27621,-1.87288 -0.98207,-3.881821 -0.98207,-2.795104 0,0.220878 0.0682,0.470268 0.1515,0.554202 0.24311,0.244893 1.04516,6.910814 1.21671,10.112172 0.0568,1.060212 0.20719,2.397524 0.33416,2.971806 0.12697,0.574281 0.26927,1.215324 0.31621,1.424539 0.0469,0.209215 0.12448,0.34126 0.17229,0.293454 0.0478,-0.04781 -0.0234,-0.869583 -0.15831,-1.826135 z M 74.80349,43.990359 c -0.32036,-0.935862 -0.43308,-1.712242 -0.56617,-3.899331 -0.15546,-2.55495 -0.26952,-3.580624 -0.68772,-6.184569 -0.34221,-2.130704 -1.51946,-6.264888 -1.78405,-6.264888 -0.0769,0 -0.1029,0.126503 -0.0577,0.281117 0.18571,0.635934 1.05102,5.030866 1.22557,6.224728 0.3296,2.254396 0.64682,4.633608 0.72824,5.461698 0.26881,2.734543 0.52104,3.856601 1.30006,5.782973 0.11397,0.281856 0.13677,0.28727 0.18585,0.04404 0.0308,-0.152481 -0.12406,-0.803062 -0.34407,-1.445743 z m -6.48737,0.567599 c -0.39671,-0.569462 -1.64767,-3.296135 -1.65088,-3.598134 -10e-4,-0.124421 -0.10761,-0.528371 -0.23628,-0.897678 -0.15193,-0.436037 -0.2335,-1.309009 -0.23265,-2.489892 0.001,-1.555925 -0.0675,-2.046851 -0.47536,-3.400228 -0.49821,-1.653288 -0.58548,-1.839146 -0.77471,-1.649914 -0.0632,0.06324 0.0119,0.563229 0.16685,1.111086 0.64972,2.296322 0.78906,3.111079 0.73354,4.289199 -0.12865,2.730046 -0.10802,2.862733 0.70459,4.533048 0.41776,0.858643 1.01965,1.821316 1.33754,2.139219 0.65723,0.657235 0.89642,0.636769 0.42736,-0.03658 z m 2.20685,-0.769023 c 0,-0.130739 -0.10145,-0.510251 -0.22544,-0.843351 -0.6719,-1.805091 -1.13624,-4.049848 -1.29105,-6.241274 -0.0505,-0.714133 -0.30155,-2.123797 -0.55801,-3.132444 -0.25646,-1.008647 -0.62159,-2.590612 -0.81138,-3.515245 -0.36656,-1.785814 -0.5113,-2.093758 -0.98406,-2.093758 -0.34628,0 -0.32033,0.110078 0.3692,1.566255 0.26148,0.552209 0.57214,1.528086 0.69037,2.168615 0.11823,0.640528 0.33158,1.696178 0.47411,2.345799 0.14253,0.64962 0.21545,1.318855 0.16202,1.487188 -0.0534,0.168333 -0.023,0.684977 0.0677,1.148113 0.0907,0.463136 0.24894,1.384219 0.35176,2.046851 0.37925,2.443949 0.47292,2.832533 0.97725,4.054025 0.48369,1.171535 0.77756,1.552986 0.77756,1.009258 z m 9.331791,-5.07713 c -0.10269,-0.25686 -0.15848,-0.297341 -0.16523,-0.119854 -0.0135,0.356087 0.19442,0.885245 0.26484,0.673974 0.0305,-0.09146 -0.0143,-0.34081 -0.0996,-0.554105 z M 63.76524,37.326735 c -0.38592,-1.13107 -0.56324,-1.45392 -0.71511,-1.302037 -0.0863,0.08634 0.38757,1.449246 0.75752,2.178575 0.35082,0.691579 0.32738,0.207271 -0.0424,-0.876506 z m 15.905431,-0.269872 c -0.10189,-0.585061 -0.25779,-1.10858 -0.34647,-1.163374 -0.0955,-0.05901 -0.12611,0.0232 -0.0751,0.201601 0.0473,0.165682 0.17513,0.71733 0.28394,1.225894 0.26784,1.25166 0.36809,1.059264 0.13764,-0.264105 z M 65.22191,37.770128 c 0,-0.273551 -0.91758,-3.029635 -1.06797,-3.207783 -0.0311,-0.03681 -0.10053,-0.0229 -0.15436,0.03092 -0.0538,0.05382 0.14497,0.860459 0.44176,1.792561 0.51107,1.605065 0.78057,2.082995 0.78057,1.384316 z m -8.3074,-1.456795 c -0.10424,-0.398608 -0.36713,-0.58543 -0.36713,-0.260909 0,0.376343 0.18228,0.75108 0.32303,0.664095 0.0708,-0.04376 0.0906,-0.225183 0.0441,-0.40317 z m 4.67376,-0.745425 c -0.24709,-0.5507 -0.28402,-0.577318 -0.34206,-0.246612 -0.0681,0.388053 0.45241,1.363946 0.5582,1.046525 0.0335,-0.100411 -0.0638,-0.460373 -0.21614,-0.799913 z m 16.677461,-0.125679 c -0.0367,-0.314594 -0.13889,-0.571984 -0.22703,-0.571984 -0.0882,0 -0.11638,0.114342 -0.0627,0.254097 0.0536,0.139755 0.0975,0.433161 0.0975,0.65203 0,0.21887 0.0583,0.361918 0.12952,0.317887 0.0712,-0.04403 0.0995,-0.337436 0.0627,-0.65203 z M 72.45111,25.400095 c 0,-0.415008 -0.33289,-1.132017 -0.52558,-1.132017 -0.14286,0 -0.0264,1.041819 0.14805,1.324044 0.14576,0.235849 0.37753,0.117971 0.37753,-0.192011 z"
     id="path1"
     style="stroke-width:0.160638;fill:#ffffff;fill-opacity:1" />
</svg>
