<svg
  xmlns="http://www.w3.org/2000/svg"
  viewBox="0 0 100 100"
  height="1"
  width="1"
>
  <path
    d="m 35.538887,89.05556 q 9.605555,0 16.413889,-6.80834 6.808334,-6.80833 6.808334,-16.41389 0,-3.27222 -0.897223,-6.43889 -0.897223,-3.16666 -2.691667,-6.01666 L 52.427776,49.05 l 4.433333,-7.6 -10.977778,-6.33333 -4.433333,7.6 h -4.644445 q -9.922222,0 -17.258333,6.33333 -7.336111,6.33333 -7.336111,16.57222 0,9.71111 6.808333,16.57222 6.808334,6.86112 16.519445,6.86112 z M 70.79444,33.11111 q -0.52778,0 -1.05555,-0.10555 Q 69.21111,32.9 68.68333,32.58333 l -3.69444,-2.11111 q -1.47778,-0.84444 -3.21945,-0.36944 -1.74166,0.475 -2.58611,1.95278 L 58.65555,32.9 l 4.22223,2.42778 q 2.21666,1.26666 2.90277,3.8 0.68611,2.53333 -0.58055,4.75 l -2.85,5.06666 q 2.42778,3.8 3.64166,8.075 1.21389,4.275 1.21389,8.81389 0,13.19445 -9.23611,22.43056 Q 48.733331,97.5 35.538887,97.5 22.344442,97.5 13.108331,88.15833 3.87222,78.81667 3.87222,65.62222 q 0,-13.19444 9.130556,-22.325 9.130555,-9.13055 22.325,-9.13055 h 1.372222 l 2.85,-4.96111 q 1.266666,-2.32223 3.8,-3.00834 2.533333,-0.68611 4.855555,0.68611 l 3.166667,1.79445 0.527778,-0.84445 Q 54.327776,23.29444 59.5,21.92222 64.67222,20.55 69.21111,23.18889 L 72.8,25.19444 q 0.95,0.52778 1.58333,1.53056 0.63333,1.00278 0.63333,2.16389 0,1.79444 -1.21388,3.00833 -1.21389,1.21389 -3.00834,1.21389 z"
    style="stroke-width:0.105556;"
  />
</svg>
