<?xml version="1.0" encoding="UTF-8" standalone="no"?>
<svg
   viewBox="0 0 100 100"
   height="1"
   width="1"
   version="1.1"
   id="svg73"
   xmlns="http://www.w3.org/2000/svg"
   xmlns:svg="http://www.w3.org/2000/svg">
  <defs
     id="defs2">
    <clipPath
       clipPathUnits="userSpaceOnUse"
       id="a">
      <path
         d="m -209.614,254.423 a 4.853,2.802 0 0 1 -6.863,0 4.853,2.802 0 0 1 0,-3.962 4.853,2.802 0 0 1 6.863,0 4.853,2.802 0 0 1 0,3.962 z"
         fill="#262f3f"
         stroke-width="0.931"
         stroke-linejoin="round"
         paint-order="stroke markers fill"
         id="path1" />
    </clipPath>
    <clipPath
       clipPathUnits="userSpaceOnUse"
       id="b">
      <path
         d="m -692.82,900 69.282,40 -51.961,30 -69.283,-40 z"
         fill="#3da5ac"
         stroke-width="0.246"
         id="path2" />
    </clipPath>
  </defs>
  <path
     fill="#2980b9"
     paint-order="stroke markers fill"
     d="M 0,0 H 100 V 100 H 0 Z"
     id="path3"
     style="stroke-width:0.331538" />
  <path
     d="M 49.240282,34.477248 9.7375881,57.284045 a 3.0385412,3.0385412 0 0 0 0,5.263158 L 43.163199,81.845669 a 9.1159552,9.1159552 0 0 0 9.115624,0 L 91.781848,59.038541 Z"
     opacity="0.25"
     id="path4"
     style="stroke-width:0.331538" />
  <path
     d="M 49.240282,22.196436 91.781848,46.757729 52.279155,69.564857 9.7372565,45.002901 Z"
     fill="#f1ecda"
     id="path5"
     style="stroke-width:0.331538" />
  <path
     d="M 52.279155,36.231413 78.107915,51.14397 52.279155,66.055864 26.450394,51.143639 Z"
     fill="#95a1a5"
     id="path6"
     style="stroke-width:0.331538" />
  <path
     d="m 27.209946,39.30145 1.519105,0.877249 -10.635392,6.140406 -1.519105,-0.877248 z m 4.557978,2.631745 1.519436,0.877248 -10.635723,6.140075 -1.519105,-0.876917 z"
     fill="#876c33"
     id="path7"
     style="stroke-width:0.331538" />
  <path
     d="M 59.875673,31.845504 85.704434,46.757729 79.627352,50.26639 53.798259,35.354165 Z"
     fill="#95a1a5"
     id="path8"
     style="stroke-width:0.331538" />
  <path
     d="m 49.240282,25.705097 7.59685,4.386242 L 50.759718,33.6 43.162868,29.213759 Z"
     fill="#d9c59a"
     id="path9"
     style="stroke-width:0.331538" />
  <path
     d="m 46.201741,30.968255 -1.519437,0.877249 V 33.6 l 3.038873,1.754496 1.519105,-0.877248 v -1.754496 z"
     fill="#f49103"
     id="path10"
     style="stroke-width:0.331538" />
  <path
     d="m 40.519188,32.862992 a 1.6089515,0.92896809 0 0 1 -2.275342,0 1.6089515,0.92896809 0 0 1 0,-1.313551 1.6089515,0.92896809 0 0 1 2.275342,0 1.6089515,0.92896809 0 0 1 0,1.313551 z"
     fill="#262f3f"
     paint-order="stroke markers fill"
     id="path11"
     style="stroke-width:0.331538" />
  <path
     d="m 39.364774,30.936759 c -1.374554,0 -2.749109,0.303026 -3.798094,0.908413 h -3.31e-4 c -1.048653,0.606051 -1.573146,1.399088 -1.573477,2.193121 0,0.0073 6.63e-4,0.01426 9.95e-4,0.02155 0,0.007 -9.95e-4,0.01392 -9.95e-4,0.02122 0,0.0073 6.63e-4,0.01426 9.95e-4,0.02155 l -9.95e-4,0.02122 c 0,0.0073 6.63e-4,0.01426 9.95e-4,0.02155 0,0.007 -9.95e-4,0.01393 -9.95e-4,0.02122 l 9.95e-4,0.02155 -9.95e-4,0.02122 c 0,0.0073 6.63e-4,0.01426 9.95e-4,0.02155 0,0.0073 -9.95e-4,0.01426 -9.95e-4,0.02122 l 9.95e-4,0.02155 c 0,0.0066 -9.95e-4,0.01393 -9.95e-4,0.02122 l 9.95e-4,0.02122 c 0,0.0073 -9.95e-4,0.01426 -9.95e-4,0.02155 0,0.0073 6.63e-4,0.01426 9.95e-4,0.02155 0,0.0073 -9.95e-4,0.01426 -9.95e-4,0.02155 l 9.95e-4,0.02122 c 0,0.0073 -9.95e-4,0.01426 -9.95e-4,0.02155 l 9.95e-4,0.02122 c 0,0.0073 -9.95e-4,0.01426 -9.95e-4,0.02155 0,0.0083 9.95e-4,0.01658 9.95e-4,0.0252 l -6.64e-4,0.01757 9.95e-4,0.02122 c 0,0.0073 -9.95e-4,0.01426 -9.95e-4,0.02155 l 9.95e-4,0.02122 c 0,0.0073 -9.95e-4,0.01426 -9.95e-4,0.02155 l 9.95e-4,0.02122 c 0,0.0073 -9.95e-4,0.01426 -9.95e-4,0.02155 l 9.95e-4,0.02122 c 0,0.0073 -9.95e-4,0.01426 -9.95e-4,0.02155 0,0.0073 6.64e-4,0.01426 9.95e-4,0.02155 l -9.95e-4,0.02122 c 0,0.0073 6.64e-4,0.01426 9.95e-4,0.02122 0,0.0073 -9.95e-4,0.01426 -9.95e-4,0.02155 l 9.95e-4,0.02122 c 0,0.0073 -9.95e-4,0.01426 -9.95e-4,0.02155 0,0.0073 6.64e-4,0.01426 9.95e-4,0.02155 0,0.007 -9.95e-4,0.01426 -9.95e-4,0.02155 l 9.95e-4,0.02122 c 0,0.0073 -9.95e-4,0.01426 -9.95e-4,0.02155 l 9.95e-4,0.02188 -9.95e-4,0.02089 c 0,0.0073 6.64e-4,0.01459 9.95e-4,0.02155 l -9.95e-4,0.02122 c 0,0.0073 6.64e-4,0.01459 9.95e-4,0.02155 0,0.0073 -9.95e-4,0.01426 -9.95e-4,0.02122 l 9.95e-4,0.02188 -9.95e-4,0.02089 c 0,0.0073 6.64e-4,0.01459 9.95e-4,0.02155 0,0.0073 -9.95e-4,0.01426 -9.95e-4,0.02122 0,0.0073 6.64e-4,0.01426 9.95e-4,0.02155 l -9.95e-4,0.02122 c 0,0.0073 6.64e-4,0.01426 9.95e-4,0.02155 0,0.007 -9.95e-4,0.01393 -9.95e-4,0.02122 l 9.95e-4,0.02122 c 0,0.0073 -9.95e-4,0.01426 -9.95e-4,0.02155 0,0.0073 6.64e-4,0.01426 9.95e-4,0.02155 l -9.95e-4,0.02122 c 0,0.0073 6.64e-4,0.01426 9.95e-4,0.02122 0,0.0073 -9.95e-4,0.01426 -9.95e-4,0.02155 0,0.0073 6.64e-4,0.01426 9.95e-4,0.02155 0,0.0073 -9.95e-4,0.01426 -9.95e-4,0.02155 0,0.0073 6.64e-4,0.01426 9.95e-4,0.02155 l -9.95e-4,0.02122 c 0,0.0073 6.64e-4,0.01426 9.95e-4,0.02122 0,0.0073 -9.95e-4,0.01426 -9.95e-4,0.02155 0,0.0073 6.64e-4,0.01426 9.95e-4,0.02155 l -9.95e-4,0.02122 c 0,0.0073 6.64e-4,0.01426 9.95e-4,0.02122 0,0.0073 -9.95e-4,0.01426 -9.95e-4,0.02155 l 9.95e-4,0.02188 -9.95e-4,0.02089 9.95e-4,0.02188 -9.95e-4,0.02089 c 0,0.0073 6.64e-4,0.01426 9.95e-4,0.02155 l -9.95e-4,0.02122 c 0,0.0073 6.64e-4,0.01426 9.95e-4,0.02155 l -9.95e-4,0.02122 c 0,0.0073 6.64e-4,0.01426 9.95e-4,0.02155 l -9.95e-4,0.02122 c 0,0.0073 6.64e-4,0.01426 9.95e-4,0.02155 l -9.95e-4,0.02122 c 0,0.822545 0.565935,1.611604 1.573146,2.193121 h 9.95e-4 c 1.00721,0.581516 2.373145,0.908412 3.79743,0.908412 h 6.63e-4 c 1.424285,0 2.790551,-0.327227 3.797762,-0.908412 1.007543,-0.581849 1.573477,-1.370908 1.573477,-2.193452 l -9.94e-4,-0.02122 c 0,-0.0073 9.94e-4,-0.01426 9.94e-4,-0.02155 l -9.94e-4,-0.02122 c 0,-0.0073 9.94e-4,-0.01426 9.94e-4,-0.02155 l -9.94e-4,-0.02122 c 0,-0.0073 9.94e-4,-0.01426 9.94e-4,-0.02155 l -9.94e-4,-0.02122 c 0,-0.007 9.94e-4,-0.01426 9.94e-4,-0.02155 0,-0.0073 -6.63e-4,-0.01426 -9.94e-4,-0.02155 l 9.94e-4,-0.02122 c 0,-0.0073 -6.63e-4,-0.01459 -9.94e-4,-0.02155 0,-0.0073 9.94e-4,-0.01426 9.94e-4,-0.02122 0,-0.0073 -6.63e-4,-0.01426 -9.94e-4,-0.02155 0,-0.007 9.94e-4,-0.01392 9.94e-4,-0.02122 0,-0.0083 -9.94e-4,-0.01691 -9.94e-4,-0.02553 l 6.63e-4,-0.01724 c 0,-0.0073 -6.63e-4,-0.01426 -9.95e-4,-0.02155 0,-0.007 9.95e-4,-0.01393 9.95e-4,-0.02122 l -9.95e-4,-0.02122 c 0,-0.0073 9.95e-4,-0.01426 9.95e-4,-0.02155 l -9.95e-4,-0.02122 c 0,-0.0073 9.95e-4,-0.01426 9.95e-4,-0.02155 0,-0.0073 -6.63e-4,-0.01426 -9.95e-4,-0.02155 0,-0.007 9.95e-4,-0.01393 9.95e-4,-0.02122 l -9.95e-4,-0.02122 c 0,-0.0073 9.95e-4,-0.01426 9.95e-4,-0.02155 0,-0.0073 -6.63e-4,-0.01426 -9.95e-4,-0.02155 l 9.95e-4,-0.02122 c 0,-0.0073 -6.63e-4,-0.01459 -9.95e-4,-0.02155 l 9.95e-4,-0.02122 c 0,-0.0073 -6.63e-4,-0.01459 -9.95e-4,-0.02155 0,-0.0073 9.95e-4,-0.01426 9.95e-4,-0.02122 l -9.95e-4,-0.02188 9.95e-4,-0.02089 c 0,-0.0073 -6.63e-4,-0.01459 -9.95e-4,-0.02155 0,-0.0073 9.95e-4,-0.01426 9.95e-4,-0.02122 0,-0.0073 -6.63e-4,-0.01426 -9.95e-4,-0.02155 l 9.95e-4,-0.02122 c 0,-0.0073 -6.63e-4,-0.01426 -9.95e-4,-0.02155 0,-0.007 9.95e-4,-0.01392 9.95e-4,-0.02122 0,-0.0073 -6.63e-4,-0.01426 -9.95e-4,-0.02155 0,-0.0073 9.95e-4,-0.01426 9.95e-4,-0.02155 0,-0.0073 -6.63e-4,-0.01426 -9.95e-4,-0.02155 l 9.95e-4,-0.02122 c 0,-0.0073 -6.63e-4,-0.01426 -9.95e-4,-0.02155 l 9.95e-4,-0.02122 c 0,-0.0073 -6.63e-4,-0.01426 -9.95e-4,-0.02155 l 9.95e-4,-0.02122 c 0,-0.0073 -6.63e-4,-0.01426 -9.95e-4,-0.02155 0,-0.007 9.95e-4,-0.01393 9.95e-4,-0.02122 l -9.95e-4,-0.02122 c 0,-0.0073 9.95e-4,-0.01426 9.95e-4,-0.02155 0,-0.0073 -6.63e-4,-0.01426 -9.95e-4,-0.02155 l 9.95e-4,-0.02122 c 0,-0.0073 -6.63e-4,-0.01426 -9.95e-4,-0.02155 l 9.95e-4,-0.02122 -9.95e-4,-0.02155 9.95e-4,-0.02122 c 0,-0.0073 -6.63e-4,-0.01426 -9.95e-4,-0.02155 l 9.95e-4,-0.02122 c 0,-0.0073 -6.63e-4,-0.01426 -9.95e-4,-0.02155 l 9.95e-4,-0.02122 c 0,-0.0073 -6.63e-4,-0.01426 -9.95e-4,-0.02155 l 9.95e-4,-0.02122 c 0,-0.0073 -6.63e-4,-0.01426 -9.95e-4,-0.02155 l 9.95e-4,-0.02122 c 0,-0.0073 -6.63e-4,-0.01426 -9.95e-4,-0.02122 0,-0.0073 9.95e-4,-0.01426 9.95e-4,-0.02155 0,-0.0073 -6.63e-4,-0.01426 -9.95e-4,-0.02155 l 9.95e-4,-0.02122 c 0,-0.0073 -6.63e-4,-0.01426 -9.95e-4,-0.02155 l 9.95e-4,-0.02122 c 0,-0.0073 -6.63e-4,-0.01426 -9.95e-4,-0.02155 l 9.95e-4,-0.02122 c 0,-0.0073 -6.63e-4,-0.01426 -9.95e-4,-0.02155 l 9.95e-4,-0.02122 c 0,-0.0073 -6.63e-4,-0.01426 -9.95e-4,-0.02155 l 9.95e-4,-0.02122 c 0,-0.0073 -6.63e-4,-0.01426 -9.95e-4,-0.02155 l 9.95e-4,-0.02122 c 0,-0.0073 -6.63e-4,-0.01426 -9.95e-4,-0.02155 0,-0.007 9.95e-4,-0.01426 9.95e-4,-0.02155 0,-0.793701 -0.524161,-1.58707 -1.572483,-2.192458 l -6.63e-4,-6.63e-4 C 42.114215,31.239785 40.73966,30.936759 39.364774,30.936759 Z"
     fill="#262f3f"
     paint-order="stroke markers fill"
     id="path12"
     style="stroke-width:0.331538" />
  <path
     d="m 35.566349,37.108661 -1.519105,0.877249 v 1.753833 l 3.038541,1.754828 1.519105,-0.876917 -3.31e-4,-1.754496 h 3.31e-4 z"
     fill="#284079"
     id="path13"
     style="stroke-width:0.331538" />
  <path
     d="m 35.566349,37.108661 3.038541,1.754497 -1.519105,0.876917 -3.038872,-1.754165 z"
     fill="#34619c"
     id="path14"
     style="stroke-width:0.331538" />
  <path
     d="m 31.00804,34.477248 -1.519105,0.877248 v 1.753834 l 3.038541,1.754828 1.519105,-0.876917 v -1.754496 z"
     fill="#284079"
     id="path15"
     style="stroke-width:0.331538" />
  <path
     d="m 31.00804,34.477248 3.038873,1.754497 -1.519437,0.876916 -3.038541,-1.754165 z"
     fill="#34619c"
     id="path16"
     style="stroke-width:0.331538" />
  <path
     d="m 18.853543,41.494571 -1.519436,0.877248 v 1.754497 l 3.038873,1.753833 1.519105,-0.876917 v -1.754164 z"
     fill="#8a3e28"
     id="path17"
     style="stroke-width:0.331538" />
  <path
     d="m 18.873767,41.482967 3.018318,1.766101 -1.519105,0.877248 -3.038873,-1.754497 z"
     fill="#b24233"
     id="path18"
     style="stroke-width:0.331538" />
  <path
     d="M 46.201741,30.968255 49.240282,32.722752 47.721177,33.6 44.682304,31.845504 Z"
     fill="#fcb433"
     id="path19"
     style="stroke-width:0.331538" />
  <path
     d="m 41.643763,28.336511 -1.519105,0.877248 h -3.31e-4 v 1.754496 l 3.038541,1.754497 1.519105,-0.877248 v -1.754497 z"
     fill="#ffed36"
     id="path20"
     style="stroke-width:0.331538" />
  <path
     d="m 41.643763,28.336511 3.038541,1.754496 -1.519436,0.877248 -3.038541,-1.754496 z"
     fill="#faffd9"
     id="path21"
     style="stroke-width:0.331538" />
  <path
     d="m 59.116453,32.284128 -1.519437,0.876916 -3.31e-4,3.32e-4 v 1.753833 l 3.038541,1.754828 1.519105,-0.877248 h 3.31e-4 v -1.754496 z"
     fill="#ffed36"
     id="path22"
     style="stroke-width:0.331538" />
  <path
     d="m 59.116121,32.284128 3.038541,1.754165 -1.519105,0.877248 -3.038872,-1.754165 z"
     fill="#faffd9"
     id="path23"
     style="stroke-width:0.331538" />
  <path
     d="m 63.674099,34.915541 -1.519105,0.877248 v 1.754165 l 3.038541,1.754496 1.518773,-0.876916 h 3.32e-4 v -1.754828 z"
     fill="#ffed36"
     id="path24"
     style="stroke-width:0.331538" />
  <path
     d="m 63.674099,34.915541 3.038872,1.754496 -1.519436,0.877249 -3.038873,-1.754497 z"
     fill="#faffd9"
     id="path25"
     style="stroke-width:0.331538" />
  <path
     d="m 68.232408,37.547286 -1.519437,0.876916 v 1.754165 l 3.038542,1.754828 1.518773,-0.877248 h 3.31e-4 V 39.30145 Z"
     fill="#ffed36"
     id="path26"
     style="stroke-width:0.331538" />
  <path
     d="m 68.232076,37.547286 3.038873,1.754164 -1.519436,0.877249 -3.038542,-1.754165 z"
     fill="#faffd9"
     id="path27"
     style="stroke-width:0.331538" />
  <path
     d="m 9.7372565,45.003564 a 3.0382097,3.0382097 0 0 0 -1.5191048,2.631413 c 0,0.02851 0.00199,0.05703 0.00298,0.08554 -9.946e-4,0.02851 -0.00332,0.05669 -0.00332,0.08554 0,0.02851 0.00232,0.05702 0.00332,0.08554 -9.946e-4,0.02851 -0.00332,0.05669 -0.00332,0.08554 0,0.02851 0.00232,0.05669 0.00332,0.0852 -9.946e-4,0.02851 -0.00332,0.05669 -0.00332,0.08554 0,0.02851 0.00232,0.05669 0.00332,0.08521 l -0.00332,0.08587 0.00332,6.204724 c -0.00166,0.03979 -0.00265,0.07957 -0.00265,0.119686 v 0.01028 a 3.0385412,3.0385412 0 0 0 1.5194364,2.630419 L 43.163199,76.582511 a 9.1159552,9.1159552 0 0 0 9.115956,0 v -7.017654 z"
     fill="#a6a087"
     id="path28"
     style="stroke-width:0.331538" />
  <path
     d="M 9.7372565,45.003232 52.279155,69.564857 a 9.1159552,9.1159552 0 0 1 -9.116287,0 L 9.7372565,50.26639 a 3.0385412,3.0385412 0 0 1 0,-5.263158 z"
     fill="#c0c0a9"
     id="path29"
     style="stroke-width:0.331538" />
  <path
     d="M 52.279155,69.564857 V 76.58218 L 91.781848,53.775383 v -7.017654 z"
     fill="#d9c59a"
     id="path30"
     style="stroke-width:0.331538" />
  <path
     d="m 29.487609,40.61666 -1.519437,0.877248 v 1.754496 l 3.039205,1.753834 1.519105,-0.876585 v -1.754497 z"
     fill="#8a3e28"
     id="path31"
     style="stroke-width:0.331538" />
  <path
     d="m 29.507833,40.605056 3.018649,1.7661 -1.519437,0.877248 -3.038541,-1.754496 z"
     fill="#b24233"
     id="path32"
     style="stroke-width:0.331538" />
  <path
     d="m 43.162868,36.231413 a 5.3715707,3.1012018 0 0 1 -7.596519,0 5.3715707,3.1012018 0 0 1 0,-4.386241 5.3715707,3.1012018 0 0 1 7.596519,0 5.3715707,3.1012018 0 0 1 0,4.386241 z"
     fill="#4c5057"
     paint-order="stroke markers fill"
     id="path33"
     style="stroke-width:0.331538" />
  <path
     d="m 40.519188,33.038375 a 1.6089515,0.92896809 0 0 1 -2.275342,0 1.6089515,0.92896809 0 0 1 0,-1.313551 1.6089515,0.92896809 0 0 1 2.275342,0 1.6089515,0.92896809 0 0 1 0,1.313551 z"
     fill="#262f3f"
     paint-order="stroke markers fill"
     id="path34"
     style="stroke-width:0.331538" />
  <path
     d="m -209.614,256.01 a 4.853,2.802 0 0 1 -6.863,0 4.853,2.802 0 0 1 0,-3.962 4.853,2.802 0 0 1 6.863,0 4.853,2.802 0 0 1 0,3.963 z"
     clip-path="url(#a)"
     transform="matrix(0.33153751,0,0,0.33153751,110.01409,-51.312391)"
     fill="#636872"
     paint-order="stroke markers fill"
     id="path35" />
  <path
     d="m 74.99511,39.418152 c -0.548032,0 -1.096395,0.120679 -1.514464,0.362039 -0.402154,0.231744 -0.627932,0.546373 -0.627932,0.874264 0,0.01426 9.95e-4,0.02818 0.002,0.04244 a 0.61036055,0.61036055 0 0 0 -0.002,0.04277 c 0,0.01426 9.95e-4,0.02818 0.002,0.04244 -9.95e-4,0.01426 -0.002,0.02851 -0.002,0.0431 0,0.01426 9.95e-4,0.02851 0.002,0.04277 -9.95e-4,0.01426 -0.002,0.02818 -0.002,0.04244 0,0.01426 9.95e-4,0.02884 0.002,0.0431 -9.95e-4,0.01426 -0.002,0.02851 -0.002,0.04277 0,0.01426 9.95e-4,0.02851 0.002,0.04244 -9.95e-4,0.01426 -0.002,0.02851 -0.002,0.0431 0,0.01392 9.95e-4,0.02818 0.002,0.04244 a 0.61036055,0.61036055 0 0 0 -0.002,0.04244 c 0,0.01426 9.95e-4,0.02851 0.002,0.0431 -9.95e-4,0.01393 -0.002,0.02785 -0.002,0.04211 0,0.01426 9.95e-4,0.02851 0.002,0.04277 a 0.61036055,0.61036055 0 0 0 -0.002,0.04277 c 0,0.01426 9.95e-4,0.02818 0.002,0.04244 -9.95e-4,0.01426 -0.002,0.02851 -0.002,0.0431 0,0.01426 9.95e-4,0.02818 0.002,0.04244 -9.95e-4,0.01426 -0.002,0.02851 -0.002,0.0431 0,0.01426 9.95e-4,0.02851 0.002,0.04277 -9.95e-4,0.01392 -0.002,0.02818 -0.002,0.04244 0,0.01426 9.95e-4,0.02884 0.002,0.0431 -9.95e-4,0.01392 -0.002,0.02818 -0.002,0.04277 0,0.01426 9.95e-4,0.02818 0.002,0.04244 -9.95e-4,0.01426 -0.002,0.02851 -0.002,0.0431 0,0.01392 9.95e-4,0.02818 0.002,0.04244 a 0.61036055,0.61036055 0 0 0 -0.002,0.04244 c 0,0.01426 9.95e-4,0.02851 0.002,0.04277 -9.95e-4,0.01426 -0.002,0.02818 -0.002,0.04244 0,0.01426 9.95e-4,0.02851 0.002,0.04277 a 0.61036055,0.61036055 0 0 0 -0.002,0.04277 c 0,0.01426 9.95e-4,0.02851 0.002,0.04277 -9.95e-4,0.01426 -0.002,0.02818 -0.002,0.04244 0,0.01426 9.95e-4,0.02851 0.002,0.0431 -9.95e-4,0.01393 -0.002,0.02818 -0.002,0.04244 0,0.01426 9.95e-4,0.02851 0.002,0.0431 -9.95e-4,0.01392 -0.002,0.02818 -0.002,0.04244 0,0.01558 9.95e-4,0.03116 0.002,0.04675 -6.63e-4,0.01326 -0.0017,0.02586 -0.0017,0.03912 0,0.01426 9.95e-4,0.02818 0.002,0.04244 -9.94e-4,0.01426 -0.002,0.02851 -0.002,0.0431 0,0.01393 9.95e-4,0.02818 0.002,0.04244 a 0.61036055,0.61036055 0 0 0 -0.002,0.04244 c 0,0.01426 9.95e-4,0.02851 0.002,0.04277 -9.94e-4,0.01426 -0.002,0.02818 -0.002,0.04244 0,0.01426 9.95e-4,0.02851 0.002,0.0431 -9.94e-4,0.01393 -0.002,0.02818 -0.002,0.04244 0,0.01459 9.95e-4,0.02884 0.002,0.0431 -9.94e-4,0.01392 -0.002,0.02818 -0.002,0.04244 0,0.01426 9.95e-4,0.02851 0.002,0.04277 -9.94e-4,0.01426 -0.002,0.02851 -0.002,0.0431 0,0.01392 9.95e-4,0.02818 0.002,0.04244 -9.94e-4,0.01426 -0.002,0.02851 -0.002,0.04277 0,0.01426 9.95e-4,0.02851 0.002,0.0431 -9.94e-4,0.01392 -0.002,0.02818 -0.002,0.04244 0,0.01426 9.95e-4,0.02851 0.002,0.0431 -9.94e-4,0.01393 -0.002,0.02818 -0.002,0.04244 0,0.01426 9.95e-4,0.02851 0.002,0.04244 a 0.61036055,0.61036055 0 0 0 -0.002,0.0431 c 0,0.01393 9.95e-4,0.02818 0.002,0.04244 -9.94e-4,0.01426 -0.002,0.02851 -0.002,0.04277 0,0.01426 9.95e-4,0.02851 0.002,0.0431 -9.94e-4,0.01393 -0.002,0.02818 -0.002,0.04244 0,0.01459 9.95e-4,0.02884 0.002,0.0431 -9.94e-4,0.01392 -0.002,0.02818 -0.002,0.04244 0,0.01426 9.95e-4,0.02851 0.002,0.04277 -9.94e-4,0.01426 -0.002,0.02851 -0.002,0.0431 0,0.01392 9.95e-4,0.02818 0.002,0.04244 -9.94e-4,0.01426 -0.002,0.02851 -0.002,0.04277 0,0.01426 9.95e-4,0.02851 0.002,0.0431 -9.94e-4,0.01392 -0.002,0.02818 -0.002,0.04244 0,0.01426 9.95e-4,0.02851 0.002,0.04277 -9.94e-4,0.01426 -0.002,0.02851 -0.002,0.0431 0,0.01392 9.95e-4,0.02818 0.002,0.04244 -9.94e-4,0.01459 -0.002,0.02884 -0.002,0.0431 0,0.01426 9.95e-4,0.02851 0.002,0.04277 -9.94e-4,0.01426 -0.002,0.02851 -0.002,0.04277 0,0.01426 9.95e-4,0.02851 0.002,0.0431 -9.94e-4,0.01392 -0.002,0.02818 -0.002,0.04244 0,0.01459 9.95e-4,0.02884 0.002,0.0431 a 0.61036055,0.61036055 0 0 0 -0.002,0.04244 c 0,0.328223 0.225777,0.64252 0.6276,0.874596 0.401492,0.232077 0.94654,0.362371 1.514795,0.362371 0.568256,0 1.112972,-0.130294 1.515127,-0.362371 0.40116,-0.231744 0.626937,-0.546373 0.626937,-0.874264 0,-0.01426 -9.94e-4,-0.02851 -0.0017,-0.04244 9.95e-4,-0.01426 0.0017,-0.02851 0.0017,-0.04277 0,-0.01426 -9.94e-4,-0.02851 -0.0017,-0.04277 9.95e-4,-0.01426 0.0017,-0.02851 0.0017,-0.04277 0,-0.01459 -9.94e-4,-0.02918 -0.002,-0.04409 6.63e-4,-0.01359 0.002,-0.02752 0.002,-0.04144 0,-0.01459 -9.94e-4,-0.02951 -0.002,-0.04409 6.63e-4,-0.01393 0.002,-0.02752 0.002,-0.04144 a 0.64981351,0.64981351 0 0 0 -0.002,-0.04409 c 6.63e-4,-0.01326 0.002,-0.02719 0.002,-0.04111 a 0.64981351,0.64981351 0 0 0 -0.002,-0.04376 c 6.63e-4,-0.01393 0.002,-0.02752 0.002,-0.04144 0,-0.01459 -9.94e-4,-0.02917 -0.002,-0.04376 6.63e-4,-0.01393 0.002,-0.02752 0.002,-0.04144 0,-0.01426 -9.94e-4,-0.02818 -0.002,-0.04244 9.95e-4,-0.01426 0.002,-0.02851 0.002,-0.04277 0,-0.01426 -9.94e-4,-0.02818 -0.002,-0.04244 9.95e-4,-0.01426 0.002,-0.02851 0.002,-0.0431 0,-0.01426 -9.94e-4,-0.02851 -0.002,-0.04277 9.95e-4,-0.01392 0.002,-0.02851 0.002,-0.04277 0,-0.01426 -9.94e-4,-0.02851 -0.002,-0.04277 9.95e-4,-0.01426 0.002,-0.02851 0.002,-0.04277 0,-0.01426 -9.94e-4,-0.02818 -0.002,-0.04244 9.95e-4,-0.01426 0.002,-0.02851 0.002,-0.0431 0,-0.01426 -9.94e-4,-0.02851 -0.002,-0.04277 9.95e-4,-0.01426 0.002,-0.02818 0.002,-0.04244 0,-0.01426 -9.94e-4,-0.02851 -0.002,-0.0431 9.95e-4,-0.01392 0.002,-0.02818 0.002,-0.04244 0,-0.01426 -9.94e-4,-0.02818 -0.002,-0.04244 9.95e-4,-0.01426 0.002,-0.02851 0.002,-0.04277 0,-0.01426 -9.94e-4,-0.02884 -0.002,-0.0431 6.63e-4,-0.01426 0.0017,-0.02818 0.0017,-0.04211 0,-0.01426 -9.95e-4,-0.02851 -0.0017,-0.0431 9.95e-4,-0.01393 0.0017,-0.02818 0.0017,-0.04244 0,-0.01426 -9.95e-4,-0.02851 -0.0017,-0.0431 9.95e-4,-0.01393 0.0017,-0.02818 0.0017,-0.04277 0,-0.01426 -9.95e-4,-0.02851 -0.0017,-0.04277 a 0.61002901,0.61002901 0 0 0 0.0017,-0.04277 c 0,-0.01426 -9.95e-4,-0.02818 -0.0017,-0.04244 9.95e-4,-0.01426 0.0017,-0.02851 0.0017,-0.0431 0,-0.01426 -9.95e-4,-0.02851 -0.0017,-0.04277 a 0.61002901,0.61002901 0 0 0 0.0017,-0.04244 c 0,-0.01426 -9.95e-4,-0.02851 -0.0017,-0.04277 a 0.61002901,0.61002901 0 0 0 0.0017,-0.04277 c 0,-0.01426 -9.95e-4,-0.02818 -0.0017,-0.04244 9.95e-4,-0.01426 0.0017,-0.02851 0.0017,-0.0431 0,-0.01426 -9.95e-4,-0.02851 -0.0017,-0.04277 a 0.61002901,0.61002901 0 0 0 0.0017,-0.04244 c 0,-0.01426 -9.95e-4,-0.02851 -0.0017,-0.0431 9.95e-4,-0.01393 0.0017,-0.02818 0.0017,-0.04244 0,-0.01426 -9.95e-4,-0.02851 -0.0017,-0.0431 9.95e-4,-0.01393 0.0017,-0.02818 0.0017,-0.04277 0,-0.01426 -9.95e-4,-0.02851 -0.0017,-0.04277 a 0.61002901,0.61002901 0 0 0 0.0017,-0.04244 c 0,-0.01492 -9.95e-4,-0.02984 -0.002,-0.04443 6.63e-4,-0.01359 0.002,-0.02752 0.002,-0.04111 0,-0.01459 -9.95e-4,-0.02884 -0.002,-0.0431 9.95e-4,-0.01393 0.002,-0.02818 0.002,-0.04244 0,-0.01426 -9.95e-4,-0.02851 -0.002,-0.04277 9.95e-4,-0.01426 0.002,-0.02851 0.002,-0.04277 0,-0.01426 -9.95e-4,-0.02818 -0.002,-0.04244 9.95e-4,-0.01426 0.002,-0.02851 0.002,-0.0431 0,-0.01426 -9.95e-4,-0.02851 -0.002,-0.04277 9.95e-4,-0.01426 0.002,-0.02818 0.002,-0.04244 0,-0.01426 -9.95e-4,-0.02851 -0.002,-0.0431 9.95e-4,-0.01393 0.002,-0.02818 0.002,-0.04244 0,-0.01426 -9.95e-4,-0.02851 -0.002,-0.0431 9.95e-4,-0.01392 0.002,-0.02818 0.002,-0.04277 0,-0.01426 -9.95e-4,-0.02851 -0.002,-0.04277 9.95e-4,-0.01426 0.002,-0.02818 0.002,-0.04244 0,-0.01459 -9.95e-4,-0.02918 -0.002,-0.04343 6.63e-4,-0.01392 0.0017,-0.02818 0.0017,-0.0421 0,-0.01426 -9.95e-4,-0.02851 -0.0017,-0.0431 a 0.61002901,0.61002901 0 0 0 0.0017,-0.04244 c 0,-0.01426 -9.95e-4,-0.02851 -0.0017,-0.0431 9.95e-4,-0.01392 0.0017,-0.02818 0.0017,-0.04277 0,-0.01426 -9.95e-4,-0.02818 -0.0017,-0.04244 9.95e-4,-0.01426 0.0017,-0.02851 0.0017,-0.0431 0,-0.01426 -9.95e-4,-0.02851 -0.0017,-0.04277 a 0.61002901,0.61002901 0 0 0 0.0017,-0.04244 c 0,-0.01426 -9.95e-4,-0.02851 -0.0017,-0.0431 a 0.61002901,0.61002901 0 0 0 0.0017,-0.04244 c 0,-0.328223 -0.225445,-0.64252 -0.627269,-0.874596 -0.4184,-0.24136 -0.966432,-0.362371 -1.515126,-0.362371 z"
     opacity="0.999"
     fill="#565842"
     paint-order="stroke markers fill"
     id="path36"
     style="stroke-width:0.331538" />
  <path
     d="m 76.509905,41.529383 a 2.1423954,1.2366349 0 0 1 -3.02959,0 2.1423954,1.2366349 0 0 1 0,-1.749192 2.1423954,1.2366349 0 0 1 3.02959,0 2.1423954,1.2366349 0 0 1 0,1.749192 z"
     opacity="0.999"
     fill="#f88d76"
     paint-order="stroke markers fill"
     id="path37"
     style="stroke-width:0.331538" />
  <path
     d="m 79.62702,42.012101 c -0.548031,0 -1.096063,0.12068 -1.514131,0.362039 h -3.32e-4 c -0.401823,0.232076 -0.627932,0.546705 -0.627932,0.874596 0,0.01459 9.95e-4,0.02851 0.002,0.0431 a 0.61036055,0.61036055 0 0 0 -0.002,0.04244 c 0,0.01459 9.95e-4,0.02884 0.002,0.0431 -9.94e-4,0.01392 -0.002,0.02818 -0.002,0.04277 0,0.01426 9.95e-4,0.02851 0.002,0.04277 -9.94e-4,0.01426 -0.002,0.02818 -0.002,0.04244 0,0.01459 9.95e-4,0.02884 0.002,0.0431 -9.94e-4,0.01426 -0.002,0.02851 -0.002,0.04277 0,0.01426 9.95e-4,0.02851 0.002,0.04277 -9.94e-4,0.01426 -0.002,0.02851 -0.002,0.04277 0,0.01459 9.95e-4,0.02851 0.002,0.04277 a 0.61036055,0.61036055 0 0 0 -0.002,0.04277 c 0,0.01459 9.95e-4,0.02851 0.002,0.0431 -9.94e-4,0.01392 -0.002,0.02785 -0.002,0.04211 v 3.31e-4 c 0,0.01426 9.95e-4,0.02851 0.002,0.04277 a 0.61036055,0.61036055 0 0 0 -0.002,0.04277 c 0,0.01459 9.95e-4,0.02851 0.002,0.0431 -9.94e-4,0.01392 -0.002,0.02818 -0.002,0.04277 0,0.01426 9.95e-4,0.02851 0.002,0.04244 -9.94e-4,0.01426 -0.002,0.02851 -0.002,0.0431 0,0.01426 9.95e-4,0.02851 0.002,0.04277 -9.94e-4,0.01426 -0.002,0.02818 -0.002,0.04244 0,0.01426 9.95e-4,0.02884 0.002,0.0431 -9.94e-4,0.01426 -0.002,0.02851 -0.002,0.04277 0,0.01426 9.95e-4,0.02851 0.002,0.04244 -9.94e-4,0.01426 -0.002,0.02851 -0.002,0.0431 0,0.01426 9.95e-4,0.02851 0.002,0.04277 a 0.61036055,0.61036055 0 0 0 -0.002,0.04244 v 3.32e-4 c 0,0.01426 9.95e-4,0.02851 0.002,0.0431 -9.94e-4,0.01393 -0.002,0.02785 -0.002,0.04211 v 3.31e-4 c 0,0.01426 9.95e-4,0.02851 0.002,0.04277 a 0.61036055,0.61036055 0 0 0 -0.002,0.04277 c 0,0.01459 9.95e-4,0.02884 0.002,0.0431 -9.94e-4,0.01426 -0.002,0.02818 -0.002,0.04244 0,0.01426 9.95e-4,0.02851 0.002,0.0431 -9.94e-4,0.01393 -0.002,0.02818 -0.002,0.04244 0,0.01459 9.95e-4,0.02884 0.002,0.0431 -9.94e-4,0.01393 -0.002,0.02818 -0.002,0.04244 0,0.01558 9.95e-4,0.03116 0.002,0.04675 -6.63e-4,0.01326 -0.0017,0.02586 -0.0017,0.03912 0,0.01426 9.95e-4,0.02818 0.002,0.04244 -9.95e-4,0.01426 -0.002,0.02851 -0.002,0.0431 0,0.01426 9.95e-4,0.02851 0.002,0.04277 a 0.61036055,0.61036055 0 0 0 -0.002,0.04244 v 3.32e-4 c 0,0.01426 9.95e-4,0.02851 0.002,0.04277 -9.95e-4,0.01426 -0.002,0.02818 -0.002,0.04244 v 3.31e-4 c 0,0.01426 9.95e-4,0.02851 0.002,0.0431 -9.95e-4,0.01393 -0.002,0.02818 -0.002,0.04277 0,0.01426 9.95e-4,0.02851 0.002,0.04277 -9.95e-4,0.01426 -0.002,0.02818 -0.002,0.04244 0,0.01426 9.95e-4,0.02851 0.002,0.0431 -9.95e-4,0.01393 -0.002,0.02818 -0.002,0.04244 0,0.01426 9.95e-4,0.02851 0.002,0.0431 -9.95e-4,0.01393 -0.002,0.02818 -0.002,0.04244 0,0.01426 9.95e-4,0.02851 0.002,0.0431 -9.95e-4,0.01392 -0.002,0.02818 -0.002,0.04244 0,0.01426 9.95e-4,0.02851 0.002,0.0431 -9.95e-4,0.01393 -0.002,0.02818 -0.002,0.04244 v 3.32e-4 c 0,0.01426 9.95e-4,0.02851 0.002,0.04277 a 0.61036055,0.61036055 0 0 0 -0.002,0.04244 v 3.31e-4 c 0,0.01426 9.95e-4,0.02851 0.002,0.04277 -9.95e-4,0.01426 -0.002,0.02851 -0.002,0.0431 0,0.01392 9.95e-4,0.02818 0.002,0.04244 -9.95e-4,0.01426 -0.002,0.02851 -0.002,0.0431 0,0.01426 9.95e-4,0.02851 0.002,0.04277 -9.95e-4,0.01426 -0.002,0.02818 -0.002,0.04244 0,0.01426 9.95e-4,0.02851 0.002,0.04277 -9.95e-4,0.01426 -0.002,0.02851 -0.002,0.0431 0,0.01392 9.95e-4,0.02818 0.002,0.04244 -9.95e-4,0.01426 -0.002,0.02851 -0.002,0.04277 0,0.01426 9.95e-4,0.02851 0.002,0.0431 -9.95e-4,0.01392 -0.002,0.02818 -0.002,0.04244 0,0.01459 9.95e-4,0.02851 0.002,0.0431 -9.95e-4,0.01393 -0.002,0.02818 -0.002,0.04244 0,0.01426 9.95e-4,0.02851 0.002,0.0431 -9.95e-4,0.01426 -0.002,0.02851 -0.002,0.0431 0,0.01393 9.95e-4,0.02818 0.002,0.04244 -9.95e-4,0.01426 -0.002,0.02851 -0.002,0.0431 0,0.01392 9.95e-4,0.02818 0.002,0.04244 -9.95e-4,0.01426 -0.002,0.02851 -0.002,0.0431 0,0.01426 9.95e-4,0.02851 0.002,0.04277 a 0.61036055,0.61036055 0 0 0 -0.002,0.04244 c 0,0.328223 0.226109,0.64252 0.627933,0.874596 0.40116,0.232077 0.946208,0.362371 1.514463,0.362371 0.568255,0 1.113303,-0.130294 1.515126,-0.362371 0.401492,-0.231744 0.627269,-0.546373 0.627269,-0.874264 a 0.70285951,0.70285951 0 0 0 -0.0017,-0.0431 c 6.63e-4,-0.01392 0.0017,-0.02818 0.0017,-0.04244 0,-0.01459 -9.94e-4,-0.02884 -0.0017,-0.0431 a 0.70949026,0.70949026 0 0 0 0.0017,-0.04277 c 0,-0.01459 -9.94e-4,-0.02917 -0.002,-0.04409 9.95e-4,-0.01359 0.002,-0.02752 0.002,-0.04144 0,-0.01459 -9.94e-4,-0.02951 -0.002,-0.04409 9.95e-4,-0.01393 0.002,-0.02752 0.002,-0.04144 0,-0.01492 -9.94e-4,-0.02984 -0.002,-0.04409 9.95e-4,-0.01392 0.002,-0.02752 0.002,-0.04111 v -3.32e-4 c 0,-0.01492 -9.94e-4,-0.02984 -0.002,-0.04409 9.95e-4,-0.01393 0.002,-0.02752 0.002,-0.04144 0,-0.01492 -9.94e-4,-0.02951 -0.002,-0.04409 9.95e-4,-0.01393 0.002,-0.02752 0.002,-0.04144 0,-0.01426 -9.94e-4,-0.02851 -0.002,-0.04277 9.95e-4,-0.01426 0.002,-0.02851 0.002,-0.04244 v -3.32e-4 c 0,-0.01426 -9.94e-4,-0.02851 -0.002,-0.0431 9.95e-4,-0.01392 0.002,-0.02818 0.002,-0.04244 0,-0.01459 -9.94e-4,-0.02884 -0.002,-0.0431 9.95e-4,-0.01392 0.002,-0.02851 0.002,-0.04277 0,-0.01426 -9.94e-4,-0.02851 -0.002,-0.04277 9.95e-4,-0.01426 0.002,-0.02851 0.002,-0.04277 0,-0.01426 -9.94e-4,-0.02818 -0.002,-0.04244 9.95e-4,-0.01426 0.002,-0.02851 0.002,-0.0431 0,-0.01426 -9.94e-4,-0.02851 -0.002,-0.04277 9.95e-4,-0.01392 0.002,-0.02818 0.002,-0.04244 v -3.32e-4 c 0,-0.01426 -9.94e-4,-0.02851 -0.002,-0.04277 9.95e-4,-0.01426 0.002,-0.02851 0.002,-0.04277 0,-0.01459 -9.94e-4,-0.02851 -0.002,-0.04277 9.95e-4,-0.01426 0.002,-0.02851 0.002,-0.04244 v -3.31e-4 c 0,-0.01459 -9.94e-4,-0.02918 -0.002,-0.04343 a 0.70352259,0.70352259 0 0 0 0,-0.08487 c 9.95e-4,-0.01426 0.0017,-0.02851 0.0017,-0.0431 0,-0.01393 -6.63e-4,-0.02818 -0.0017,-0.04244 a 0.70949026,0.70949026 0 0 0 0.0017,-0.0431 c 0,-0.01426 -6.63e-4,-0.02851 -0.0017,-0.04277 9.95e-4,-0.01426 0.0017,-0.02818 0.0017,-0.04244 0,-0.01459 -6.63e-4,-0.02851 -0.0017,-0.0431 9.95e-4,-0.01392 0.0017,-0.02818 0.0017,-0.04244 0,-0.01459 -6.63e-4,-0.02884 -0.0017,-0.0431 9.95e-4,-0.01392 0.0017,-0.02818 0.0017,-0.04244 v -3.32e-4 c 0,-0.01426 -6.63e-4,-0.02851 -0.0017,-0.04277 9.95e-4,-0.01426 0.0017,-0.02851 0.0017,-0.04277 0,-0.01459 -6.63e-4,-0.02851 -0.0017,-0.0431 a 0.70949026,0.70949026 0 0 0 0.0017,-0.04244 c 0,-0.01459 -6.63e-4,-0.02884 -0.0017,-0.0431 a 0.70385412,0.70385412 0 0 0 0,-0.08521 0.70882719,0.70882719 0 0 0 0,-0.08554 c 9.95e-4,-0.01426 0.0017,-0.02851 0.0017,-0.0431 0,-0.01426 -6.63e-4,-0.02851 -0.0017,-0.04277 9.95e-4,-0.01426 0.0017,-0.02818 0.0017,-0.04244 0,-0.01492 -6.63e-4,-0.02984 -0.0017,-0.04443 6.63e-4,-0.01359 0.0017,-0.02752 0.0017,-0.04111 0,-0.01426 -9.95e-4,-0.02851 -0.0017,-0.0431 6.63e-4,-0.01393 0.0017,-0.02818 0.0017,-0.04244 v -3.32e-4 c 0,-0.01426 -9.95e-4,-0.02851 -0.0017,-0.04277 6.63e-4,-0.01426 0.0017,-0.02851 0.0017,-0.04244 v -3.31e-4 c 0,-0.01459 -9.95e-4,-0.02851 -0.0017,-0.0431 6.63e-4,-0.01393 0.0017,-0.02818 0.0017,-0.04244 0,-0.01426 -9.95e-4,-0.02884 -0.0017,-0.0431 6.63e-4,-0.01393 0.0017,-0.02818 0.0017,-0.04244 0,-0.01426 -9.95e-4,-0.02851 -0.0017,-0.0431 6.63e-4,-0.01392 0.0017,-0.02818 0.0017,-0.04244 0,-0.01426 -9.95e-4,-0.02851 -0.0017,-0.0431 6.63e-4,-0.01393 0.0017,-0.02818 0.0017,-0.04244 0,-0.01459 -9.95e-4,-0.02884 -0.0017,-0.0431 6.63e-4,-0.01393 0.0017,-0.02818 0.0017,-0.04244 0,-0.01459 -9.95e-4,-0.02918 -0.0017,-0.04343 6.63e-4,-0.01393 0.0017,-0.02818 0.0017,-0.04211 0,-0.01426 -9.95e-4,-0.02851 -0.0017,-0.0431 6.63e-4,-0.01393 0.0017,-0.02818 0.0017,-0.04244 v -3.32e-4 c 0,-0.01426 -9.95e-4,-0.02851 -0.0017,-0.0431 a 0.70949026,0.70949026 0 0 0 0.0017,-0.04244 c 0,-0.01459 -9.95e-4,-0.02851 -0.0017,-0.0431 a 0.70949026,0.70949026 0 0 0 0.0017,-0.04244 c 0,-0.01426 -9.95e-4,-0.02851 -0.0017,-0.0431 6.63e-4,-0.01393 0.0017,-0.02818 0.0017,-0.04244 0,-0.01426 -9.95e-4,-0.02851 -0.0017,-0.0431 6.63e-4,-0.01392 0.0017,-0.02818 0.0017,-0.04244 0,-0.327891 -0.225446,-0.64252 -0.627269,-0.874596 -0.418401,-0.24136 -0.966764,-0.362371 -1.515127,-0.362371 z"
     opacity="0.999"
     fill="#565842"
     paint-order="stroke markers fill"
     id="path38"
     style="stroke-width:0.331538" />
  <path
     d="m 81.142147,44.123663 a 2.1423954,1.2366349 0 0 1 -3.02959,0 2.1423954,1.2366349 0 0 1 0,-1.749523 2.1423954,1.2366349 0 0 1 3.02959,0 2.1423954,1.2366349 0 0 1 0,1.749523 z"
     opacity="0.999"
     fill="#faffd9"
     paint-order="stroke markers fill"
     id="path39"
     style="stroke-width:0.331538" />
  <path
     d="m 52.279155,57.284045 -4.557978,2.631413 v 1.753833 l 4.557978,2.632077 4.547036,-2.625114 -3.31e-4,-1.754497 h 3.31e-4 z"
     fill="#493f32"
     id="path40"
     style="stroke-width:0.331538" />
  <path
     d="m 52.279155,57.284045 4.547036,2.638044 -4.547036,2.625114 -4.557978,-2.631414 z"
     fill="#5f5950"
     id="path41"
     style="stroke-width:0.331538" />
  <path
     d="m 46.201741,53.775383 -4.557978,2.631414 v 1.754164 l 4.557978,2.631745 4.547036,-2.624782 -3.31e-4,-1.754828 z"
     fill="#493f32"
     id="path42"
     style="stroke-width:0.331538" />
  <path
     d="m 46.201409,53.775383 4.547037,2.638044 -4.547037,2.625446 -4.557978,-2.631745 z"
     fill="#5f5950"
     id="path43"
     style="stroke-width:0.331538" />
  <path
     d="m 52.278823,50.267053 -4.557978,2.631414 v 1.754165 l 4.557978,2.631744 4.547037,-2.625114 v -1.754496 z"
     fill="#493f32"
     id="path44"
     style="stroke-width:0.331538" />
  <path
     d="m 52.278823,50.267053 4.547037,2.638044 -4.547037,2.625114 -4.557978,-2.631413 z"
     fill="#5f5950"
     id="path45"
     style="stroke-width:0.331538" />
  <path
     d="m 58.356237,46.758392 -4.557978,2.631413 v 1.753834 l 4.557978,2.632076 4.547037,-2.625114 -3.32e-4,-1.754497 h 3.32e-4 z"
     fill="#493f32"
     id="path46"
     style="stroke-width:0.331538" />
  <path
     d="m 58.356237,46.758392 4.547037,2.638044 -4.547037,2.625114 -4.557978,-2.631413 z"
     fill="#5f5950"
     id="path47"
     style="stroke-width:0.331538" />
  <path
     d="m 64.433651,43.249399 -4.557978,2.631413 v 1.754165 l 4.557978,2.631745 4.547037,-2.624783 -3.32e-4,-1.754828 z"
     fill="#493f32"
     id="path48"
     style="stroke-width:0.331538" />
  <path
     d="m 64.433651,43.249731 4.547037,2.637712 -4.547037,2.625446 -4.557978,-2.631745 z"
     fill="#5f5950"
     id="path49"
     style="stroke-width:0.331538" />
  <g
     id="g57"
     transform="scale(0.33153751)">
    <path
       d="m 121.025,151.617 -13.748,7.937 v 5.291 l 13.748,7.938 13.715,-7.918 -0.001,-5.292 z"
       fill="#493f32"
       id="path50" />
    <path
       d="m 121.025,151.617 13.714,7.957 -13.714,7.918 -13.749,-7.937 z"
       fill="#5f5950"
       id="path51" />
    <path
       d="m 139.355,141.035 -13.748,7.937 v 5.29 l 13.748,7.939 13.715,-7.918 v -5.292 z"
       fill="#493f32"
       id="path52" />
    <path
       d="m 139.355,141.035 13.715,7.957 -13.715,7.918 -13.748,-7.937 z"
       fill="#5f5950"
       id="path53" />
    <path
       d="m 157.686,130.451 -13.748,7.937 v 5.291 l 13.748,7.938 13.715,-7.917 v -5.293 z"
       fill="#493f32"
       id="path54" />
    <path
       d="m 157.686,130.452 13.715,7.956 -13.715,7.919 -13.748,-7.938 z"
       fill="#5f5950"
       id="path55" />
    <path
       d="m 176.017,119.868 -13.748,7.937 v 5.291 l 13.748,7.938 13.715,-7.918 -0.001,-5.292 h 0.001 z"
       fill="#493f32"
       id="path56" />
    <path
       d="m 176.017,119.868 13.715,7.957 -13.715,7.918 -13.748,-7.937 z"
       fill="#5f5950"
       id="path57" />
  </g>
  <g
     id="g65"
     transform="scale(0.33153751)">
    <path
       d="m 102.7,141.037 -13.747,7.937 v 5.292 l 13.748,7.938 13.715,-7.918 -10e-4,-5.292 z"
       fill="#493f32"
       id="path58" />
    <path
       d="m 102.7,141.038 13.715,7.957 -13.715,7.918 -13.748,-7.938 z"
       fill="#5f5950"
       id="path59" />
    <path
       d="m 121.031,130.455 -13.748,7.937 v 5.291 l 13.748,7.938 13.715,-7.918 v -5.292 z"
       fill="#493f32"
       id="path60" />
    <path
       d="m 121.03,130.456 13.716,7.956 -13.715,7.919 -13.748,-7.938 z"
       fill="#5f5950"
       id="path61" />
    <path
       d="m 139.362,119.872 -13.748,7.937 v 5.29 l 13.748,7.939 13.715,-7.918 -0.001,-5.292 h 0.001 z"
       fill="#493f32"
       id="path62" />
    <path
       d="m 139.362,119.872 13.715,7.957 -13.715,7.918 -13.748,-7.937 z"
       fill="#5f5950"
       id="path63" />
    <path
       d="m 157.693,109.288 -13.748,7.937 v 5.292 l 13.748,7.938 13.715,-7.918 -10e-4,-5.292 z"
       fill="#493f32"
       id="path64" />
    <path
       d="m 157.693,109.289 13.715,7.957 -13.715,7.918 -13.749,-7.938 z"
       fill="#5f5950"
       id="path65" />
  </g>
  <g
     id="g67"
     transform="scale(0.33153751)">
    <path
       d="m 176.018,162.2 -13.748,7.937 v 5.291 l 13.748,7.938 13.714,-7.917 v -5.293 z"
       fill="#493f32"
       id="path66" />
    <path
       d="m 176.017,162.2 13.715,7.957 -13.715,7.919 -13.748,-7.938 z"
       fill="#5f5950"
       id="path67" />
  </g>
  <g
     id="g69"
     transform="scale(0.33153751)">
    <path
       d="m 194.348,151.617 -13.748,7.937 v 5.291 l 13.748,7.938 13.715,-7.918 v -5.292 z"
       fill="#493f32"
       id="path68" />
    <path
       d="m 194.348,151.617 13.715,7.957 -13.715,7.918 -13.748,-7.937 z"
       fill="#5f5950"
       id="path69" />
  </g>
  <g
     id="g71"
     transform="scale(0.33153751)">
    <path
       d="m 212.68,141.034 -13.749,7.937 v 5.29 l 13.748,7.939 13.715,-7.918 v -5.292 z"
       fill="#493f32"
       id="path70" />
    <path
       d="m 212.679,141.034 13.715,7.957 -13.715,7.918 -13.748,-7.937 z"
       fill="#5f5950"
       id="path71" />
  </g>
  <path
     d="M 49.240282,27.459594 55.317696,30.968255 50.759718,33.6 44.682304,30.091007 Z"
     fill="#3da5ac"
     id="path72"
     style="stroke-width:0.331538" />
  <path
     d="m -692.82,880 -17.32,10 v 60 l 34.64,20 v -80 z m 34.64,20 v 60 l 17.32,-10 v -40 z"
     transform="matrix(0.08771819,0,0,0.08771819,110.01409,-51.487775)"
     clip-path="url(#b)"
     opacity="0.251"
     fill="#ffffff"
     id="path73" />
</svg>
