<svg
   width="1"
   height="1"
   viewBox="0 0 100 100"
   version="1.1"
   id="svg1"
   xmlns="http://www.w3.org/2000/svg"
   xmlns:svg="http://www.w3.org/2000/svg">
  <defs
     id="defs1">
    <clipPath
       clipPathUnits="userSpaceOnUse"
       id="clipPath2">
      <path
         d="M 0,73.698 H 73.698 V 0 H 0 Z"
         transform="translate(-13.2656,-32.545901)"
         id="path2" />
    </clipPath>
    <clipPath
       clipPathUnits="userSpaceOnUse"
       id="clipPath4">
      <path
         d="M 0,73.698 H 73.698 V 0 H 0 Z"
         transform="translate(-17.4873,-28.011701)"
         id="path4" />
    </clipPath>
    <clipPath
       clipPathUnits="userSpaceOnUse"
       id="clipPath6">
      <path
         d="M 0,73.698 H 73.698 V 0 H 0 Z"
         id="path6" />
    </clipPath>
    <clipPath
       clipPathUnits="userSpaceOnUse"
       id="clipPath8">
      <path
         d="M 0,73.698 H 73.698 V 0 H 0 Z"
         id="path8" />
    </clipPath>
    <clipPath
       clipPathUnits="userSpaceOnUse"
       id="clipPath10">
      <path
         d="M 0,73.698 H 73.698 V 0 H 0 Z"
         transform="translate(-36.235801,-29.6553)"
         id="path10" />
    </clipPath>
    <clipPath
       clipPathUnits="userSpaceOnUse"
       id="clipPath12">
      <path
         d="M 0,73.698 H 73.698 V 0 H 0 Z"
         transform="translate(-39.677701,-30.422901)"
         id="path12" />
    </clipPath>
    <clipPath
       clipPathUnits="userSpaceOnUse"
       id="clipPath14">
      <path
         d="M 0,73.698 H 73.698 V 0 H 0 Z"
         transform="translate(-43.365201,-31.174801)"
         id="path14" />
    </clipPath>
    <clipPath
       clipPathUnits="userSpaceOnUse"
       id="clipPath16">
      <path
         d="M 0,73.698 H 73.698 V 0 H 0 Z"
         transform="translate(-46.301801,-31.985401)"
         id="path16" />
    </clipPath>
    <clipPath
       clipPathUnits="userSpaceOnUse"
       id="clipPath18">
      <path
         d="M 0,73.698 H 73.698 V 0 H 0 Z"
         transform="translate(-49.176801,-32.483401)"
         id="path18" />
    </clipPath>
    <clipPath
       clipPathUnits="userSpaceOnUse"
       id="clipPath20">
      <path
         d="M 0,73.698 H 73.698 V 0 H 0 Z"
         transform="translate(-52.051801,-33.295901)"
         id="path20" />
    </clipPath>
    <clipPath
       clipPathUnits="userSpaceOnUse"
       id="clipPath22">
      <path
         d="M 0,73.698 H 73.698 V 0 H 0 Z"
         transform="translate(-54.739301,-33.733401)"
         id="path22" />
    </clipPath>
    <clipPath
       clipPathUnits="userSpaceOnUse"
       id="clipPath24">
      <path
         d="M 0,73.698 H 73.698 V 0 H 0 Z"
         transform="translate(-57.426802,-34.295901)"
         id="path24" />
    </clipPath>
    <clipPath
       clipPathUnits="userSpaceOnUse"
       id="clipPath26">
      <path
         d="M 0,73.698 H 73.698 V 0 H 0 Z"
         transform="translate(-12.8784,-34.913101)"
         id="path26" />
    </clipPath>
    <clipPath
       clipPathUnits="userSpaceOnUse"
       id="clipPath28">
      <path
         d="M 0,73.698 H 73.698 V 0 H 0 Z"
         transform="translate(-17.835,-35.707001)"
         id="path28" />
    </clipPath>
    <clipPath
       clipPathUnits="userSpaceOnUse"
       id="clipPath30">
      <path
         d="M 0,73.698 H 73.698 V 0 H 0 Z"
         transform="translate(-19.357401,-30.272501)"
         id="path30" />
    </clipPath>
    <clipPath
       clipPathUnits="userSpaceOnUse"
       id="clipPath32">
      <path
         d="M 0,73.698 H 73.698 V 0 H 0 Z"
         transform="translate(-17.2852,-34.881801)"
         id="path32" />
    </clipPath>
    <clipPath
       clipPathUnits="userSpaceOnUse"
       id="clipPath34">
      <path
         d="M 0,73.698 H 73.698 V 0 H 0 Z"
         transform="translate(-19.6602,-32.163101)"
         id="path34" />
    </clipPath>
    <clipPath
       clipPathUnits="userSpaceOnUse"
       id="clipPath36">
      <path
         d="M 0,73.698 H 73.698 V 0 H 0 Z"
         transform="translate(-61.378901,-37.631801)"
         id="path36" />
    </clipPath>
    <clipPath
       clipPathUnits="userSpaceOnUse"
       id="clipPath38">
      <path
         d="M 0,73.698 H 73.698 V 0 H 0 Z"
         transform="translate(-21.254901,-31.292001)"
         id="path38" />
    </clipPath>
    <clipPath
       clipPathUnits="userSpaceOnUse"
       id="clipPath40">
      <path
         d="M 0,73.698 H 73.698 V 0 H 0 Z"
         transform="translate(-21.5659,-34.006801)"
         id="path40" />
    </clipPath>
    <clipPath
       clipPathUnits="userSpaceOnUse"
       id="clipPath42">
      <path
         d="M 0,73.698 H 73.698 V 0 H 0 Z"
         transform="translate(-18.253401,-37.131801)"
         id="path42" />
    </clipPath>
  </defs>
  <g
     id="layer1">
    <path
       id="path1"
       d="M 0,0 3.187,-5.179 3.234,-4.132 0,0.965 Z m 3.612,-7.324 c -0.171,0 -0.333,0.088 -0.425,0.238 l -4.113,6.683 C -0.974,-0.325 -1,-0.234 -1,-0.142 v 2.828 c 0,0.222 0.147,0.418 0.36,0.48 0.214,0.058 0.443,-0.024 0.562,-0.213 L 4.163,-3.729 C 4.218,-3.815 4.245,-3.917 4.24,-4.02 L 4.112,-6.847 C 4.102,-7.066 3.95,-7.253 3.737,-7.309 3.696,-7.319 3.654,-7.324 3.612,-7.324"
       style="fill:#110f0d;fill-opacity:1;fill-rule:nonzero;stroke:none"
       transform="matrix(1.911365,0,0,-1.911365,4.4108723,53.822134)"
       clip-path="url(#clipPath2)" />
    <path
       id="path3"
       d="m 0,0 -0.079,-1.665 42.772,9.184 0.551,1.73 z m -0.609,-2.79 c -0.118,0 -0.233,0.041 -0.324,0.119 -0.118,0.1 -0.183,0.25 -0.176,0.404 l 0.129,2.699 c 0.01,0.226 0.172,0.418 0.395,0.465 l 44.462,9.51 c 0.176,0.038 0.355,-0.021 0.475,-0.153 0.12,-0.132 0.16,-0.318 0.106,-0.487 L 43.559,6.939 C 43.504,6.769 43.362,6.64 43.187,6.602 L -0.504,-2.779 C -0.539,-2.786 -0.574,-2.79 -0.609,-2.79"
       style="fill:#110f0d;fill-opacity:1;fill-rule:nonzero;stroke:none"
       transform="matrix(1.911365,0,0,-1.911365,12.479902,62.488716)"
       clip-path="url(#clipPath4)" />
    <path
       id="path5"
       d="m 28.315,28.035 h -2.57 v 2.441 h 2.57 z"
       style="fill:#110f0d;fill-opacity:1;fill-rule:nonzero;stroke:none"
       transform="matrix(1.911365,0,0,-1.911365,-20.944456,116.03028)"
       clip-path="url(#clipPath6)" />
    <path
       id="path7"
       d="m 32.298,28.742 h -2.185 v 2.441 h 2.185 z"
       style="fill:#110f0d;fill-opacity:1;fill-rule:nonzero;stroke:none"
       transform="matrix(1.911365,0,0,-1.911365,-20.944456,116.03028)"
       clip-path="url(#clipPath8)" />
    <path
       id="path9"
       d="m 0,0 -1.935,-0.028 -0.036,2.441 1.934,0.028 z"
       style="fill:#110f0d;fill-opacity:1;fill-rule:nonzero;stroke:none"
       transform="matrix(1.911365,0,0,-1.911365,48.315255,59.347883)"
       clip-path="url(#clipPath10)" />
    <path
       id="path11"
       d="m 0,0 -1.811,-0.026 -0.036,2.441 1.81,0.026 z"
       style="fill:#110f0d;fill-opacity:1;fill-rule:nonzero;stroke:none"
       transform="matrix(1.911365,0,0,-1.911365,54.893992,57.877626)"
       clip-path="url(#clipPath12)" />
    <path
       id="path13"
       d="m 0,0 -1.685,-0.024 -0.036,2.441 1.684,0.024 z"
       style="fill:#110f0d;fill-opacity:1;fill-rule:nonzero;stroke:none"
       transform="matrix(1.911365,0,0,-1.911365,61.942162,56.441384)"
       clip-path="url(#clipPath14)" />
    <path
       id="path15"
       d="m 0,0 -1.311,-0.019 -0.036,2.442 1.31,0.018 z"
       style="fill:#110f0d;fill-opacity:1;fill-rule:nonzero;stroke:none"
       transform="matrix(1.911365,0,0,-1.911365,67.555222,54.891756)"
       clip-path="url(#clipPath16)" />
    <path
       id="path17"
       d="m 0,0 -1.311,-0.019 -0.036,2.442 1.31,0.018 z"
       style="fill:#110f0d;fill-opacity:1;fill-rule:nonzero;stroke:none"
       transform="matrix(1.911365,0,0,-1.911365,73.050352,53.939301)"
       clip-path="url(#clipPath18)" />
    <path
       id="path19"
       d="m 0,0 -1.311,-0.019 -0.036,2.442 1.31,0.018 z"
       style="fill:#110f0d;fill-opacity:1;fill-rule:nonzero;stroke:none"
       transform="matrix(1.911365,0,0,-1.911365,78.545492,52.389672)"
       clip-path="url(#clipPath20)" />
    <path
       id="path21"
       d="m 0,0 -1.311,-0.019 -0.036,2.442 1.31,0.018 z"
       style="fill:#110f0d;fill-opacity:1;fill-rule:nonzero;stroke:none"
       transform="matrix(1.911365,0,0,-1.911365,83.682322,51.550605)"
       clip-path="url(#clipPath22)" />
    <path
       id="path23"
       d="m 0,0 -1.311,-0.019 -0.036,2.442 1.31,0.018 z"
       style="fill:#110f0d;fill-opacity:1;fill-rule:nonzero;stroke:none"
       transform="matrix(1.911365,0,0,-1.911365,88.819152,50.477203)"
       clip-path="url(#clipPath24)" />
    <path
       id="path25"
       d="m 0,0 c -0.214,0 -0.408,0.147 -0.457,0.365 -0.057,0.253 0.102,0.504 0.354,0.561 l 4.438,1 C 4.585,1.985 4.838,1.824 4.896,1.572 4.952,1.319 4.793,1.068 4.541,1.012 l -4.437,-1 C 0.069,0.004 0.034,0 0,0"
       style="fill:#110f0d;fill-opacity:1;fill-rule:nonzero;stroke:none"
       transform="matrix(1.911365,0,0,-1.911365,3.6708303,49.297974)"
       clip-path="url(#clipPath26)" />
    <path
       id="path27"
       d="M 0,0 3.833,-4.066 C 17.512,-1.441 37.637,2.471 40.175,3.096 40.121,3.455 39.906,4.245 39.746,4.437 39.572,4.608 38.522,5.018 37.654,5.29 37.454,5.374 33.84,6.94 33.334,7.193 33.152,7.285 32.855,7.212 32.568,7.131 32.407,7.085 32.253,7.043 32.11,7.023 31.984,7.005 16.379,5.084 14.877,5.019 13.457,4.957 1.786,3.597 1.217,3.469 0.824,3.371 0.423,3.055 0.122,2.602 -0.023,2.377 -0.076,1.186 0,0 m 3.504,-5.084 -4.415,4.683 -0.013,0.166 c -0.059,0.8 -0.154,2.729 0.265,3.358 0.436,0.653 1.022,1.099 1.652,1.257 0.661,0.165 12.564,1.52 13.843,1.576 1.346,0.058 16.308,1.877 17.142,1.996 0.104,0.014 0.217,0.048 0.335,0.081 0.428,0.12 1.004,0.217 1.441,-10e-4 C 34.14,7.838 36.688,6.728 37.98,6.167 38.729,5.936 40.118,5.456 40.467,5.038 40.822,4.61 41.272,3.021 41.025,2.528 40.888,2.252 40.797,2.07 3.757,-5.036 Z"
       style="fill:#110f0d;fill-opacity:1;fill-rule:nonzero;stroke:none"
       transform="matrix(1.911365,0,0,-1.911365,13.144731,47.778582)"
       clip-path="url(#clipPath28)" />
    <path
       id="path29"
       d="m 0,0 c -0.581,0 -1.526,0.111 -1.84,0.236 -0.159,0.064 -0.453,0.182 -3.222,4.56 -0.139,0.22 -0.073,0.509 0.145,0.647 0.22,0.138 0.509,0.073 0.647,-0.145 C -3.113,3.468 -1.771,1.447 -1.436,1.09 -1.114,1.003 -0.045,0.901 0.18,0.944 0.32,0.972 0.844,1.235 1.227,1.454 1.452,1.583 1.737,1.504 1.866,1.279 1.995,1.055 1.917,0.769 1.691,0.64 1.471,0.514 0.723,0.097 0.363,0.024 0.279,0.008 0.152,0 0,0"
       style="fill:#110f0d;fill-opacity:1;fill-rule:nonzero;stroke:none"
       transform="matrix(1.911365,0,0,-1.911365,16.054631,58.168653)"
       clip-path="url(#clipPath30)" />
    <path
       id="path31"
       d="m 0,0 c 0,-0.189 -0.322,-0.344 -0.719,-0.344 -0.397,0 -0.718,0.155 -0.718,0.344 0,0.189 0.321,0.344 0.718,0.344 C -0.322,0.344 0,0.189 0,0"
       style="fill:#110f0d;fill-opacity:1;fill-rule:nonzero;stroke:none"
       transform="matrix(1.911365,0,0,-1.911365,12.093629,49.358447)"
       clip-path="url(#clipPath32)" />
    <path
       id="path33"
       d="m 0,0 c 0,-0.201 -0.364,-0.365 -0.812,-0.365 -0.449,0 -0.813,0.164 -0.813,0.365 0,0.201 0.364,0.365 0.813,0.365 C -0.364,0.365 0,0.201 0,0"
       style="fill:#110f0d;fill-opacity:1;fill-rule:nonzero;stroke:none"
       transform="matrix(1.911365,0,0,-1.911365,16.633285,54.551593)"
       clip-path="url(#clipPath34)" />
    <path
       id="path35"
       d="m 0,0 c -0.089,0 -0.179,0.023 -0.26,0.073 l -2.875,1.75 c -0.236,0.143 -0.31,0.451 -0.167,0.687 0.144,0.237 0.452,0.31 0.687,0.167 L 0.26,0.927 C 0.496,0.784 0.57,0.476 0.427,0.24 0.333,0.085 0.168,0 0,0"
       style="fill:#110f0d;fill-opacity:1;fill-rule:nonzero;stroke:none"
       transform="matrix(1.911365,0,0,-1.911365,96.373022,44.101048)"
       clip-path="url(#clipPath36)" />
    <path
       id="path37"
       d="m 0,0 c 0,0 -0.063,1.146 -0.063,1.465 0,0.261 -0.111,1.452 -0.175,1.992 -0.288,0.393 -2.067,1.73 -3.608,2.783 -0.228,0.156 -0.286,0.467 -0.13,0.695 0.156,0.228 0.467,0.287 0.695,0.13 C 0.655,4.376 0.718,3.868 0.745,3.652 0.807,3.161 0.937,1.811 0.937,1.465 c 0,-0.307 0.061,-1.41 0.061,-1.41 z"
       style="fill:#110f0d;fill-opacity:1;fill-rule:nonzero;stroke:none"
       transform="matrix(1.911365,0,0,-1.911365,19.68114,56.218389)"
       clip-path="url(#clipPath38)" />
    <path
       id="path39"
       d="m 0,0 c -0.241,0 -0.454,0.175 -0.493,0.421 -0.044,0.272 0.141,0.529 0.414,0.573 l 35.813,5.75 C 36,6.787 36.262,6.602 36.307,6.329 36.35,6.057 36.165,5.8 35.892,5.756 L 0.08,0.006 C 0.053,0.002 0.026,0 0,0"
       style="fill:#110f0d;fill-opacity:1;fill-rule:nonzero;stroke:none"
       transform="matrix(1.911365,0,0,-1.911365,20.275668,51.029022)"
       clip-path="url(#clipPath40)" />
    <path
       id="path41"
       d="m 0,0 c -0.247,0 -0.461,0.182 -0.495,0.433 -0.037,0.274 0.155,0.525 0.428,0.563 L 34.496,5.683 C 34.772,5.72 35.022,5.529 35.058,5.255 35.095,4.981 34.904,4.729 34.63,4.692 L 0.068,0.004 C 0.045,0.001 0.022,0 0,0"
       style="fill:#110f0d;fill-opacity:1;fill-rule:nonzero;stroke:none"
       transform="matrix(1.911365,0,0,-1.911365,13.94449,45.057283)"
       clip-path="url(#clipPath42)" />
  </g>
</svg>
