<svg
  xmlns="http://www.w3.org/2000/svg"
  viewBox="0 0 100 100"
  height="1"
  width="1"
>
  <path
    d="m 50,20.90625 q 3.670455,-4.31818 8.744318,-6.69318 5.073862,-2.375 10.687502,-2.375 9.5,0 16.1392,6.04545 6.63921,6.04546 7.50284,15.54546 0.10796,1.83523 -1.13352,3.0767 -1.24148,1.24148 -3.0767,1.34944 -1.83523,0.10795 -3.07671,-1.13353 -1.24148,-1.24147 -1.34943,-3.0767 -0.64773,-5.82955 -4.80398,-9.5 -4.15625,-3.67046 -10.2017,-3.67046 -4.31818,0 -8.15057,2.15909 -3.832386,2.1591 -5.991477,5.61364 -0.971591,1.51136 -2.428978,2.26705 -1.457386,0.75568 -2.96875,0.75568 -1.511363,0 -2.914772,-0.75568 -1.403409,-0.75569 -2.267046,-2.26705 -2.159091,-3.45454 -5.991477,-5.61364 -3.832386,-2.15909 -8.150568,-2.15909 -6.045455,0 -10.201705,3.67046 -4.15625,3.67045 -4.803977,9.5 -0.107955,1.83523 -1.349432,3.0767 -1.241477,1.24148 -3.076704,1.13353 -1.835228,-0.10796 -3.076705,-1.34944 -1.241477,-1.24147 -1.133523,-3.0767 0.863637,-9.5 7.502841,-15.54546 6.639205,-6.04545 16.139205,-6.04545 5.613636,0 10.6875,2.375 5.073863,2.375 8.744318,6.69318 z m 0,67.25568 q -1.511364,0 -3.022727,-0.53977 -1.511364,-0.53977 -2.698864,-1.72727 -4.642045,-4.10227 -8.582386,-7.82671 -3.940341,-3.72443 -7.394887,-7.07102 -1.511363,-1.51136 -1.349431,-3.18466 0.161931,-1.67329 1.349431,-2.86079 1.1875,-1.1875 2.860796,-1.34944 1.673295,-0.16193 3.184659,1.24148 3.238636,3.13068 7.071023,6.74716 Q 45.25,75.20739 50,79.41762 q 4.75,-4.21023 8.582386,-7.82671 3.832387,-3.61648 7.071024,-6.74716 1.51136,-1.51136 3.18466,-1.24148 1.67329,0.26989 2.86079,1.45739 1.1875,1.1875 1.29546,2.91477 0.10795,1.72728 -1.40341,3.23864 -3.45455,3.23864 -7.39489,6.90909 -3.940338,3.67046 -8.474429,7.77273 -1.1875,1.1875 -2.698864,1.72727 Q 51.511364,88.16193 50,88.16193 Z m -4.102273,-20.1875 q 1.403409,0 2.428978,-0.80966 1.025568,-0.80965 1.457386,-2.10511 l 5.829545,-17.59659 3.778409,5.61364 q 0.539773,0.86363 1.511364,1.40341 0.971591,0.53977 2.051141,0.53977 h 30.22727 q 1.83523,0 3.0767,-1.24148 Q 97.5,52.53693 97.5,50.70171 97.5,48.86648 96.25852,47.625 95.01705,46.38352 93.18182,46.38352 H 65.4375 L 57.988636,35.37216 q -0.647727,-0.97159 -1.673295,-1.45739 -1.025568,-0.48579 -2.213068,-0.48579 -1.403409,0 -2.428978,0.80966 -1.025568,0.80966 -1.457386,2.10511 L 44.386364,53.83239 40.715909,48.32671 Q 40.176136,47.46307 39.204545,46.9233 38.232955,46.38352 37.153409,46.38352 H 6.818182 q -1.835227,0 -3.076705,1.24148 Q 2.5,48.86648 2.5,50.70171 q 0,1.83522 1.241477,3.0767 1.241478,1.24148 3.076705,1.24148 H 34.5625 l 7.448864,11.01136 q 0.647727,0.97159 1.673295,1.45739 1.025568,0.48579 2.213068,0.48579 z M 50,49.94602 Z"
    style="stroke-width:0.107955;" 
  />
</svg>
