<svg
  xmlns="http://www.w3.org/2000/svg"
  viewBox="0 0 100 100"
  height="1"
  width="1"
>
  <defs>
    <clipPath
      id="clipPath18"
      clipPathUnits="userSpaceOnUse"
    >
      <path
        d="M 0,1080 H 1920 V 0 H 0 Z" 
      />
    </clipPath>
  </defs>
  <g
    transform="matrix(0.05140581,-0.01919062,-0.01919062,-0.05140581,16.375348,91.962243)"
  >
    <g
      clip-path="url(#clipPath18)"
    >
      <g
        transform="translate(1794.3799,696.7276)"
      >
        <path
          d="M 0,0 -42.574,7.458 C -51.175,9.693 -63.022,5.094 -63.022,5.094 -106.449,-14.995 -241.37,-53.734 -241.37,-53.734 l -35.513,-7.065 -427.21,-40.769 -155.344,-13.382 c -23.953,2.345 -36.56,15.958 -36.56,15.958 -3.943,3.85 -6.895,3.778 -6.895,3.778 l -607.394,149.116 -210.841,52.326 c -10.276,0.427 -4.279,-7.223 -4.279,-7.223 l 175.349,-110.788 79.673,-65.334 26.827,-24.886 c -1.816,-9.898 -10.028,-8.695 -10.028,-8.695 2.198,-9.703 10.349,-10.375 10.349,-10.375 1.142,8.743 9.967,9.225 9.967,9.225 l 23.825,-26.848 c 3.79,-2.522 6.854,-1.092 6.854,-1.092 26.28,5.46 47.251,-3.688 47.251,-3.688 32.627,-14.528 48.459,-63.021 39.836,-102.501 -8.623,-39.479 -33.169,-83.221 -33.169,-83.221 -28.017,-53.293 -66.769,-109.172 -66.769,-109.172 -30.184,-43.856 -77.22,-95.58 -77.22,-95.58 -9.649,-14.301 5.67,-7.148 5.67,-7.148 l 503.853,260.072 c 9.366,5.119 10.804,13.628 10.804,13.628 7.958,42.901 37.374,46.839 37.374,46.839 l 496.497,67.616 182.839,24.632 c 31.726,-4.406 39.657,-28.785 39.657,-28.785 1.349,-4.688 7.804,-2.328 7.804,-2.328 l 14.621,10.652 c -0.89,-3.016 -1.122,-5.593 -1.122,-5.593 l 5.238,-7.288 c 3.888,-0.269 7.435,0.859 7.435,0.859 6.489,3.621 8.674,8 8.674,8 1.923,3.541 1.398,6.53 1.398,6.53 -2.854,4.514 -6.109,6.291 -6.109,6.291 -0.798,0.337 -1.745,0.49 -2.694,0.54 l 12.616,9.191 c -1.078,-3.317 -1.347,-6.318 -1.347,-6.318 l 5.238,-7.288 c 3.888,-0.269 7.436,0.859 7.436,0.859 6.489,3.621 8.674,7.999 8.674,7.999 1.923,3.542 1.398,6.531 1.398,6.531 -2.854,4.514 -6.11,6.291 -6.11,6.291 -1.006,0.426 -2.25,0.56 -3.437,0.561 l 12.935,9.423 c -1.164,-3.439 -1.453,-6.632 -1.453,-6.632 l 5.238,-7.289 c 3.888,-0.268 7.436,0.86 7.436,0.86 6.488,3.62 8.673,7.999 8.673,7.999 1.923,3.541 1.398,6.531 1.398,6.531 -2.854,4.514 -6.109,6.29 -6.109,6.29 -1.1,0.466 -2.483,0.585 -3.766,0.559 l 15.107,11.006 c -1.197,-3.484 -1.492,-6.748 -1.492,-6.748 l 5.238,-7.289 c 3.888,-0.268 7.436,0.86 7.436,0.86 6.488,3.62 8.673,7.999 8.673,7.999 1.923,3.541 1.398,6.531 1.398,6.531 -2.854,4.514 -6.109,6.29 -6.109,6.29 -1.136,0.481 -2.573,0.592 -3.89,0.555 l 14.123,10.289 c -1.468,-3.793 -1.814,-7.628 -1.814,-7.628 l 5.238,-7.288 c 3.888,-0.269 7.436,0.859 7.436,0.859 6.488,3.621 8.673,7.999 8.673,7.999 1.923,3.542 1.398,6.531 1.398,6.531 -2.854,4.514 -6.109,6.291 -6.109,6.291 -1.417,0.6 -3.308,0.627 -4.843,0.505 l 14.243,10.377 c -1.168,-3.444 -1.458,-6.645 -1.458,-6.645 l 5.238,-7.289 c 3.889,-0.268 7.436,0.86 7.436,0.86 6.489,3.62 8.674,7.999 8.674,7.999 1.923,3.542 1.398,6.531 1.398,6.531 -2.854,4.514 -6.11,6.291 -6.11,6.291 -1.103,0.467 -2.492,0.585 -3.779,0.558 l 12.95,9.434 c -0.752,-2.755 -0.956,-5.006 -0.956,-5.006 l 5.238,-7.289 c 3.888,-0.268 7.436,0.86 7.436,0.86 6.488,3.62 8.673,7.999 8.673,7.999 1.923,3.541 1.398,6.531 1.398,6.531 -2.854,4.514 -6.109,6.29 -6.109,6.29 -0.635,0.269 -1.366,0.419 -2.116,0.496 L 0.829,-7.17 C 8.836,-1.939 0,0 0,0" 
          style="fill-rule:nonzero;stroke:none"
        />
      </g>
    </g>
  </g>
</svg>
