<svg
  xmlns="http://www.w3.org/2000/svg"
  viewBox="0 0 100 100"
  height="1"
  width="1"
>
  <path
    d="m 89.51433,71.943882 a 7.6846989,7.7150823 0 0 1 -7.684687,7.715084 7.6846989,7.7150823 0 0 1 -7.684698,-7.715084 7.6846989,7.7150823 0 0 1 7.684698,-7.715093 7.6846989,7.7150823 0 0 1 7.684687,7.715093 z M 57.809588,27.761453 a 7.6846989,7.7150823 0 0 1 -7.684705,7.715088 7.6846989,7.7150823 0 0 1 -7.684707,-7.715088 7.6846989,7.7150823 0 0 1 7.684707,-7.715069 7.6846989,7.7150823 0 0 1 7.684705,7.715069 z M 25.855056,51.280149 a 7.6846989,7.7150823 0 0 1 -7.68469,7.715085 7.6846989,7.7150823 0 0 1 -7.684696,-7.715085 7.6846989,7.7150823 0 0 1 7.684696,-7.715068 7.6846989,7.7150823 0 0 1 7.68469,7.715068 z"
    style="fill:none;stroke-width:8.47134;stroke-linecap:round"
  />
  <path
    d="M 49.737724,12.803832 V 17.669 M 18.037931,12.814722 V 28.82816 M 81.401191,12.794545 V 50.04712 m 0.02929,32.230748 v 4.865168 M 18.053571,61.782623 v 25.35029 M 49.718209,50.021288 v 37.184167"
    style="stroke-width:10.5891;stroke-linecap:round"
  />
</svg>
