<svg
  xmlns="http://www.w3.org/2000/svg"
  viewBox="0 0 100 100"
  height="1"
  width="1"
>
  <path
    d="m 16.944445,92.5 q -3.895837,0 -6.670141,-2.774302 Q 7.4999998,86.951391 7.4999998,83.055553 V 16.944445 q 0,-3.895837 2.7743042,-6.670141 Q 13.048608,7.5 16.944445,7.5 h 66.111109 q 3.895837,0 6.670144,2.774304 Q 92.5,13.048608 92.5,16.944445 v 66.111108 q 0,3.895838 -2.774302,6.670145 Q 86.951391,92.5 83.055555,92.5 Z m 0,-9.444447 h 15.347228 v -21.25 h -1.180565 q -2.006935,0 -3.364586,-1.35763 -1.35763,-1.357651 -1.35763,-3.364597 V 16.944445 h -9.444447 z m 50.763882,0 H 83.055555 V 16.944445 H 73.61111 v 40.138881 q 0,2.006946 -1.357631,3.364597 -1.357653,1.35763 -3.364587,1.35763 h -1.180565 z m -28.333328,0 h 21.250002 v -21.25 h -1.180555 q -2.006945,0 -3.364586,-1.35763 -1.357631,-1.357651 -1.357631,-3.364597 V 16.944445 h -9.444456 v 40.138881 q 0,2.006946 -1.357631,3.364597 -1.357641,1.35763 -3.364588,1.35763 h -1.180555 z"
    style="stroke-width:1.0625"
  />
</svg>
