<svg
  xmlns="http://www.w3.org/2000/svg"
  viewBox="0 0 100 100"
  height="1"
  width="1"
>
  <path
    d="M 83.438236,96.68594 79.083874,92.443747 H 17.181403 q -3.883614,0 -6.649218,-2.769223 Q 7.7665806,86.905333 7.7665806,83.016662 V 21.033584 L 3.4122238,16.673563 Q 2,15.259502 2,13.315182 2,11.370835 3.4122238,9.9567714 4.8244485,8.5427089 6.7662566,8.5427089 q 1.941807,0 3.3540284,1.4140625 L 90.146302,90.086983 q 1.412218,1.414056 1.412218,3.299469 0,1.88542 -1.412218,3.299488 -1.412229,1.414057 -3.354044,1.414057 -1.941792,0 -3.354022,-1.414057 z M 92.5,79.010165 83.085173,69.583078 V 17.027086 h -9.41482 v 40.065088 q 0,0.589214 -0.176532,1.178401 -0.176531,0.589185 -0.529583,1.17837 L 54.840699,41.30182 V 17.027086 H 45.425877 V 31.874733 L 21.182705,7.6 h 61.902468 q 3.883604,0 6.649223,2.769196 Q 92.5,13.138419 92.5,17.027086 Z M 17.181403,83.016663 H 32.480494 V 61.805717 h -1.176853 q -2.000651,0 -3.35403,-1.355133 -1.353383,-1.355133 -1.353383,-3.35841 V 39.887756 L 17.181403,30.46067 Z m 22.360209,0 H 60.724968 V 74.060929 L 45.19051,58.506238 q -0.470742,1.531922 -1.706437,2.4157 -1.235698,0.883779 -2.765607,0.883779 h -1.176854 z m 28.244475,0 h 1.882964 l -1.882964,-1.885419 z"
    style="stroke-width:1.13199"
  />
</svg>
