<svg
  xmlns="http://www.w3.org/2000/svg"
  viewBox="0 0 100 100"
  height="1"
  width="1"
>
  <path
    d="M 45.25,78.5 Q 33.375,78.5 25.0625,70.1875 16.75,61.875 16.75,50 q 0,-1.30625 0.11875,-2.6125 Q 16.9875,46.08125 17.225,44.775 16.63125,45.0125 15.8,45.13125 14.96875,45.25 14.375,45.25 9.3875,45.25 5.94375,41.80625 2.5,38.3625 2.5,33.375 2.5,28.3875 5.765625,24.94375 9.03125,21.5 14.01875,21.5 q 3.91875,0 7.065625,2.19687 3.146875,2.19688 4.453125,5.64063 3.91875,-3.5625 8.96562,-5.7 Q 39.55,21.5 45.25,21.5 h 47.5 q 2.01875,0 3.38437,1.36562 Q 97.5,24.23125 97.5,26.25 v 9.5 q 0,2.01875 -1.36563,3.38437 Q 94.76875,40.5 92.75,40.5 h -19 V 50 q 0,11.875 -8.3125,20.1875 Q 57.125,78.5 45.25,78.5 Z M 14.375,38.125 q 2.01875,0 3.384375,-1.36563 Q 19.125,35.39375 19.125,33.375 q 0,-2.01875 -1.365625,-3.38438 Q 16.39375,28.625 14.375,28.625 q -2.01875,0 -3.384375,1.36562 Q 9.625,31.35625 9.625,33.375 q 0,2.01875 1.365625,3.38437 Q 12.35625,38.125 14.375,38.125 Z m 30.875,28.5 q 6.8875,0 11.75625,-4.86875 Q 61.875,56.8875 61.875,50 61.875,43.1125 57.00625,38.24375 52.1375,33.375 45.25,33.375 q -6.8875,0 -11.75625,4.86875 Q 28.625,43.1125 28.625,50 q 0,6.8875 4.86875,11.75625 Q 38.3625,66.625 45.25,66.625 Z m 0,-7.125 q 3.91875,0 6.70937,-2.79062 Q 54.75,53.91875 54.75,50 54.75,46.08125 51.95937,43.29062 49.16875,40.5 45.25,40.5 41.33125,40.5 38.54063,43.29062 35.75,46.08125 35.75,50 q 0,3.91875 2.79063,6.70938 Q 41.33125,59.5 45.25,59.5 Z m 0,-9.5 z"
    style="stroke-width:0.11875" 
  />
</svg>
