<svg
  xmlns="http://www.w3.org/2000/svg"
  viewBox="0 0 100 100"
  height="1"
  width="1"
>
  <path
    d="m 13.346166,97.499984 q -3.779928,0 -6.471694,-2.69177 -2.691767,-2.69177 -2.691767,-6.47169 v -54.98077 q 0,-2.86358 1.546334,-5.15445 1.546334,-2.29086 4.180829,-3.32175 L 64.088835,2.7727037 q 1.6036,-0.57272 3.14994,0.0573 1.54633,0.62999 2.11905,2.23359 0.57271,1.60361 -0.0573,3.14994 -0.62998,1.54634 -2.23359,2.1190503 l -34.01935,13.85974 h 53.60625 q 3.77993,0 6.47169,2.69177 2.69177,2.69176 2.69177,6.47169 v 54.98077 q 0,3.77992 -2.69177,6.47169 -2.69176,2.69177 -6.47169,2.69177 z m 0,-9.16346 H 86.653855 V 56.264404 H 13.346166 Z m 18.326919,-4.58173 q 4.81082,0 8.13257,-3.32176 3.32176,-3.32175 3.32176,-8.13257 0,-4.81082 -3.32176,-8.13257 -3.32175,-3.32176 -8.13257,-3.32176 -4.81081,0 -8.132569,3.32176 -3.321754,3.32175 -3.321754,8.13257 0,4.81082 3.321754,8.13257 3.321759,3.32176 8.132569,3.32176 z M 13.346166,47.100944 h 54.980769 v -4.58173 q 0,-1.94723 1.31724,-3.26448 1.31725,-1.31725 3.26449,-1.31725 1.94723,0 3.26448,1.31725 1.31725,1.31725 1.31725,3.26448 v 4.58173 h 9.16346 V 33.355754 H 13.346166 Z m 0,41.23558 v -32.07212 z"
    style="stroke-width:0.114543" 
  />
</svg>
