<svg
  xmlns="http://www.w3.org/2000/svg"
  viewBox="0 0 100 100"
  height="1"
  width="1"
>
  <path
    d="m 13.346166,97.499984 c -2.519952,0 -4.6771833,-0.897257 -6.471694,-2.69177 -1.7945113,-1.794513 -2.691767,-3.951743 -2.691767,-6.47169 v -54.98077 c 0,-1.909053 0.5154447,-3.627203 1.546334,-5.15445 1.0308893,-1.52724 2.424499,-2.63449 4.180829,-3.32175 L 64.088835,2.7727037 c 1.069067,-0.3818133 2.119047,-0.3627133 3.14994,0.0573 1.030887,0.4199933 1.737237,1.1645233 2.11905,2.23359 0.381807,1.0690733 0.362707,2.1190533 -0.0573,3.14994 -0.419987,1.0308933 -1.164517,1.7372434 -2.23359,2.1190503 l -34.01935,13.85974 h 53.60625 c 2.519953,0 4.677183,0.897257 6.47169,2.69177 1.794513,1.794507 2.69177,3.951737 2.69177,6.47169 v 54.98077 c 0,2.519947 -0.897257,4.677177 -2.69177,6.47169 -1.794507,1.794513 -3.951737,2.69177 -6.47169,2.69177 z m 0,-9.16346 H 86.653855 V 56.264404 H 13.346166 Z m 0,-41.23558 h 54.980769 v -4.58173 c 0,-1.298153 0.43908,-2.386313 1.31724,-3.26448 0.878167,-0.878167 1.96633,-1.31725 3.26449,-1.31725 1.298153,0 2.386313,0.439083 3.26448,1.31725 0.878167,0.878167 1.31725,1.966327 1.31725,3.26448 v 4.58173 h 9.16346 V 33.355754 H 13.346166 Z m 0,41.23558 v -32.07212 z"
    style="stroke-width:0.114543" 
  />
  <circle
    style="fill:#f56114;stroke:none"
    cx="31.762501"
    cy="72.387497"
    r="11.454535" 
  />
</svg>
