<svg
  xmlns="http://www.w3.org/2000/svg"
  viewBox="0 0 100 100"
  height="1"
  width="1"
>
  <path
    d="m 13.172195,97.350035 q -6.70792,0 -9.53577,-5.98452 -2.82785,-5.98452 1.38104,-11.11411 l 29.19919,-35.51252 v -31.56669 h -5.26112 q -2.23597,0 -3.74854,-1.51257 -1.51257,-1.51257 -1.51257,-3.74855 0,-2.23597 1.51257,-3.74854 1.51257,-1.51257 3.74854,-1.51257 h 42.08892 q 2.23598,0 3.74855,1.51257 1.51257,1.51257 1.51257,3.74854 0,2.23598 -1.51257,3.74855 -1.51257,1.51257 -3.74855,1.51257 h -5.26111 v 31.56669 l 29.19919,35.51252 q 4.20889,5.12959 1.38104,11.11411 -2.82785,5.98452 -9.53577,5.98452 z m 0,-10.52223 h 73.65561 l -31.56669,-38.40614 v -35.24947 h -10.52223 v 35.24947 z m 36.8278,-36.82781 z"
    style="stroke-width:0.131528" 
  />
</svg>
