<?xml version="1.0" encoding="UTF-8" standalone="no"?>
<svg
   version="1.1"
   x="0%"
   y="0%"
   width="1"
   height="1"
   viewBox="0 0 100 100"
   enable-background="new 0 0 3000.0 3000.0"
   id="svg7"
   xmlns="http://www.w3.org/2000/svg"
   xmlns:svg="http://www.w3.org/2000/svg">
  <defs
     id="defs7" />
  <path
     fill="#000000"
     stroke="#000000"
     fill-opacity="1"
     stroke-opacity="1"
     fill-rule="nonzero"
     stroke-width="1.54734"
     stroke-linejoin="miter"
     stroke-linecap="square"
     d="m 32.120466,54.143619 c -3.77466,-12.079531 -0.63607,-17.504383 6.585671,-21.809443 7.221739,-4.305052 22.299357,-2.497561 28.276805,1.328908 5.977455,3.826482 9.641183,14.01047 8.04908,13.719277 -1.592103,-0.2912 -3.451405,-0.548841 -7.491647,-0.723349 -4.040242,-0.174515 -5.312053,-0.10544 -9.860076,-0.1087 -4.548029,-0.0035 -7.354824,-0.08722 -13.280985,0.389782 -5.926158,0.476996 -9.372814,0.59254 -8.59263,1.958641 0.780193,1.366101 4.033169,0.91156 9.460442,0.688337 5.427296,-0.223628 13.029332,-0.216814 19.0442,-0.284414 6.015297,-0.06711 10.443016,-0.209218 11.092243,1.129256 0.649247,1.33837 -2.480434,4.157276 -5.360961,6.033128 -2.880519,1.875415 -5.511891,2.80739 -8.130083,3.848628 -2.618625,1.040815 -5.223633,2.191329 -7.786987,3.237246 -2.56334,1.046341 -5.085025,1.988519 -6.349056,3.229586 -1.264454,1.240643 -1.270832,2.780608 -1.149234,6.523379 0.121604,3.743194 0.371601,9.689184 3.798046,12.29122 3.426438,2.601623 10.029746,1.858849 13.695129,2.798045 3.665817,0.939623 4.39413,3.561219 0.528068,4.471938 -3.86607,0.91028 -12.326086,0.109685 -18.54463,-0.237675 -6.218529,-0.346935 -10.195134,-0.240643 -13.804398,-0.101617 -3.609683,0.138607 -6.851184,0.309955 -7.734261,-0.872867 -0.8835,-1.1824 0.59226,-3.718533 3.387327,-5.041658 2.794637,-1.323135 6.909007,-1.433248 8.859262,-2.053998 1.950246,-0.621176 1.736389,-1.752976 2.497873,-4.474482 0.761473,-2.721091 2.499148,-7.031884 3.523794,-9.341832 1.025084,-2.309939 1.33759,-2.619889 -0.566745,-5.05271 C 40.362801,63.255424 36.24163,58.699307 32.120466,54.143621 Z"
     id="path1"
     style="fill:#ffffff;stroke:#ffffff;stroke-opacity:1" />
  <path
     fill="#000000"
     stroke="#000000"
     fill-opacity="0.016"
     stroke-opacity="1"
     fill-rule="nonzero"
     stroke-width="1.54734"
     stroke-linejoin="miter"
     stroke-linecap="square"
     d="m 64.712991,44.481807 c 0.716841,-3.042069 1.4341,-6.08454 3.275084,-7.780151 1.840985,-1.69561 4.805264,-2.045058 7.178996,-1.75591 2.373294,0.288654 4.156024,1.215904 5.109254,2.469802 0.952804,1.254192 1.076105,2.835423 -1.656029,4.068008 -2.732142,1.232085 -8.31972,2.115215 -13.907305,2.998251 z"
     id="path5"
     style="fill:#ffffff;stroke:#ffffff;stroke-opacity:1" />
</svg>
