<?xml version="1.0" encoding="UTF-8" standalone="no"?>
<svg
   version="1.1"
   x="0%"
   y="0%"
   width="1"
   height="1"
   viewBox="0 0 100 100"
   enable-background="new 0 0 3000.0 3000.0"
   id="svg7"
   xmlns="http://www.w3.org/2000/svg"
   xmlns:svg="http://www.w3.org/2000/svg">
  <defs
     id="defs7" />
  <path
     fill="#000000"
     stroke="#000000"
     fill-opacity="1"
     stroke-opacity="1"
     fill-rule="nonzero"
     stroke-width="1.56795"
     stroke-linejoin="miter"
     stroke-linecap="square"
     d="m 31.982174,57.049314 c -3.82494,-12.24045 -7.65031,-24.48085 -4.65472,-32.64685 2.99515,-8.166 12.81126,-12.2572 20.04022,-13.8487 7.22895,-1.5910998 11.87118,-0.6819998 12.92974,0.5075 1.05856,1.1891 -1.46613,2.6587 -4.81801,6.1928 -3.35188,3.5341 -7.53097,9.1333 -10.52268,13.9172 -2.9917,4.784 -4.7956,8.7533 -6.55556,12.352 -1.75952,3.5988 -3.47424,6.827 -2.68366,8.2113 0.79058,1.3843 4.08689,0.9237 9.58647,0.6975 5.49959,-0.2266 13.2029,-0.2197 19.2979,-0.2882 6.09543,-0.068 10.58213,-0.212 11.24001,1.1443 0.65789,1.3562 -2.51348,4.21266 -5.43238,6.1135 -2.91889,1.9004 -5.58532,2.84479 -8.23839,3.8999 -2.65351,1.05468 -5.29322,2.22052 -7.89072,3.28037 -2.59749,1.06028 -5.15277,2.01501 -6.43364,3.27261 -1.2813,1.25717 -1.28776,2.81765 -1.16454,6.61028 0.12322,3.79306 0.37655,9.81826 3.84864,12.45496 3.47208,2.63628 10.16336,1.88361 13.87757,2.83532 3.71465,0.95214 4.45267,3.60866 0.5351,4.53151 -3.91757,0.92241 -12.49029,0.11115 -18.79167,-0.24084 -6.30137,-0.35156 -10.33095,-0.24385 -13.9883,-0.10297 -3.65777,0.14045 -6.94245,0.31408 -7.83729,-0.8845 -0.89527,-1.19815 0.60015,-3.76807 3.43245,-5.10882 2.83187,-1.34076 7.00105,-1.45234 8.97728,-2.08136 1.97623,-0.62945 1.75952,-1.77633 2.53115,-4.53409 0.77162,-2.75734 2.53244,-7.12556 3.57074,-9.46628 1.03874,-2.34071 1.35541,-2.65479 -0.5743,-5.12002 -1.92927,-2.46523 -6.10534,-7.08204 -10.28141,-11.69842 z"
     id="path1"
     style="fill:#ffffff;fill-opacity:1;stroke:#ffffff;stroke-opacity:1" />
  <path
     fill="#000000"
     stroke="#000000"
     fill-opacity="0.016"
     stroke-opacity="1"
     fill-rule="nonzero"
     stroke-width="1.56795"
     stroke-linejoin="miter"
     stroke-linecap="square"
     d="m 43.188584,13.043964 c 0.72639,-3.0825998 1.4532,-6.1655998 3.31871,-7.8837998 1.86551,-1.7182 4.86928,-2.0723 7.27463,-1.7793 2.40491,0.2925 4.21139,1.2321 5.17732,2.5027 0.9655,1.2709 1.09044,2.8732 -1.67809,4.1221998 -2.76854,1.2485 -8.43055,2.1434 -14.09257,3.0382 z"
     id="path5"
     style="fill:none;fill-opacity:1;stroke:#ffffff;stroke-opacity:1" />
  <path
     fill="#000000"
     stroke="#000000"
     fill-opacity="0.016"
     stroke-opacity="1"
     fill-rule="nonzero"
     stroke-width="1.56795"
     stroke-linejoin="miter"
     stroke-linecap="square"
     d="m 65.927114,48.500664 c -3.18343,-2.0826 -6.36729,-4.1657 -5.55387,-5.9355 0.81298,-1.7699 5.62324,-3.2266 6.80674,-4.7323 1.18306,-1.5054 -1.26019,-3.0598 -3.00765,-3.8555 -1.74789,-0.7954 -2.79999,-0.832 -2.73364,-1.3434 0.0663,-0.5114 1.25028,-1.4971 2.13995,-2.0981 0.88924,-0.6015 1.48379,-0.8173 1.78753,-1.6174 0.30417,-0.7996 0.31752,-2.183 0.33088,-3.5664"
     id="path6"
     style="fill:none;fill-opacity:1;stroke:#ffffff;stroke-opacity:1" />
  <path
     fill="#000000"
     stroke="#000000"
     fill-opacity="0.016"
     stroke-opacity="1"
     fill-rule="nonzero"
     stroke-width="1.56795"
     stroke-linejoin="miter"
     stroke-linecap="square"
     d="m 57.419014,48.500664 c -3.18343,-2.0826 -6.36729,-4.1657 -5.5543,-5.9355 0.81341,-1.7699 5.62367,-3.2266 6.80674,-4.7323 1.18349,-1.5054 -1.25976,-3.0598 -3.00765,-3.8555 -1.74746,-0.7954 -2.79956,-0.832 -2.73321,-1.3434 0.0659,-0.5114 1.25028,-1.4971 2.13995,-2.0981 0.88924,-0.6015 1.48379,-0.8173 1.78753,-1.6174 0.30373,-0.7996 0.31709,-2.183 0.33088,-3.5664"
     id="path7"
     style="fill:none;fill-opacity:1;stroke:#ffffff;stroke-opacity:1" />
</svg>
