<svg
  xmlns="http://www.w3.org/2000/svg"
  viewBox="0 0 100 100"
  height="1"
  width="1"
>
  <path
    d="m 60.326087,97.5 v -8.26087 q 12.081522,0 20.497283,-8.41576 8.41576,-8.41576 8.41576,-20.49728 H 97.5 q 0,7.74456 -2.942935,14.50815 -2.942935,6.76359 -7.951087,11.77174 -5.008152,5.00815 -11.771739,7.95109 Q 68.070652,97.5 60.326087,97.5 Z m 0,-16.52174 v -8.26087 q 5.163043,0 8.777174,-3.61413 3.61413,-3.61413 3.61413,-8.77717 h 8.26087 q 0,8.57065 -6.040761,14.61141 -6.040761,6.04076 -14.611413,6.04076 z M 25.423913,94.91848 q -1.548913,0 -3.097826,-0.61957 -1.548913,-0.61956 -2.788044,-1.75543 L 4.875,77.88043 Q 3.7391304,76.6413 3.1195652,75.09239 2.5,73.54348 2.5,71.99457 2.5,70.34239 3.1195652,68.84511 3.7391304,67.34783 4.875,66.21196 L 17.98913,53.09783 q 2.375,-2.375 5.88587,-2.42663 3.51087,-0.0516 5.88587,2.32337 l 5.163043,5.16304 2.891304,-2.89131 -5.163043,-5.16304 q -2.375,-2.375 -2.375,-5.78261 0,-3.40761 2.375,-5.78261 l 5.885869,-5.88587 q 2.375,-2.375 5.83424,-2.375 3.459239,0 5.834239,2.375 l 5.163043,5.16305 2.891305,-2.89131 -5.163044,-5.16304 q -2.375,-2.375 -2.375,-5.83424 0,-3.45924 2.375,-5.83424 L 66.211957,4.97826 Q 67.451087,3.73913 69,3.11957 70.548913,2.5 72.097826,2.5 q 1.548913,0 3.046196,0.61957 1.497282,0.61956 2.736413,1.85869 L 92.543478,19.6413 q 1.239131,1.13587 1.807065,2.63316 0.567935,1.49728 0.567935,3.14945 0,1.54892 -0.567935,3.09783 -0.567934,1.54891 -1.807065,2.78804 l -13.11413,13.11413 q -2.375,2.375 -5.834239,2.375 -3.459239,0 -5.834239,-2.375 l -5.163044,-5.16304 -2.891304,2.8913 5.163043,5.16305 q 2.375,2.375 2.32337,5.83424 -0.05163,3.45924 -2.426631,5.83424 l -5.782608,5.7826 q -2.375,2.375 -5.834239,2.375 -3.45924,0 -5.83424,-2.375 l -5.163043,-5.16304 -2.891304,2.89131 5.163043,5.16304 q 2.375,2.375 2.32337,5.88587 -0.05163,3.51087 -2.426631,5.88587 l -13.11413,13.11413 q -1.13587,1.13587 -2.633152,1.75543 -1.497283,0.61957 -3.149457,0.61957 z m 0,-8.15761 L 29.76087,82.42391 15.097826,67.76087 10.76087,72.09783 Z M 34.201087,77.9837 38.538043,73.64674 23.875,58.9837 19.538043,63.32065 Z m 19,-19 5.782609,-5.78261 -14.663044,-14.66305 -5.782609,5.78261 z M 73.646739,38.53804 77.983696,34.20109 63.320652,19.53804 58.983696,23.875 Z M 82.423913,29.76087 86.76087,25.42391 72.097826,10.76087 67.76087,15.09783 Z m -33.663043,19 z"
    style="stroke-width:0.103261" 
	/>
</svg>
