<?xml version="1.0" encoding="UTF-8" standalone="no"?>
<svg
   width="1"
   height="1"
   version="1.1"
   viewBox="0 0 100 100"
   id="svg15"
   xmlns="http://www.w3.org/2000/svg"
   xmlns:svg="http://www.w3.org/2000/svg">
  <defs
     id="defs15">
    <filter
       style="color-interpolation-filters:sRGB;"
       id="filter15"
       x="-0.0063377152"
       y="-0.0047526889"
       width="1.0126765"
       height="1.0144556">
      <feColorMatrix
         values="0.8 0.8 0.8 -0.3 0 0.8 0.8 0.8 -0.3 0 0.8 0.8 0.8 -0.3 0 0 0 0 1 0 "
         id="feColorMatrix15" />
    </filter>
  </defs>
  <g
     transform="matrix(0.20702912,0,0,0.20702912,-71.315861,-30.013738)"
     stroke="#000000"
     id="g15"
     style="filter:url(#filter15)">
    <path
       d="m 737.09,417.82 26.592,-17.164 29.976,-0.72523 c 28.23,14.668 21.155,97.68 2.6592,95.731 h -25.142 l -32.152,-15.472 z"
       fill="#af010d"
       fill-rule="evenodd"
       stroke-width="5.7436"
       id="path1" />
    <path
       d="m 570.03,290.58 c -7.3637,-0.0605 -15.609,-0.96842 -24.021,1.2265 -7.9461,2.0734 -19.037,11.584 -24.2,17.197 -14.106,15.336 -22.569,33.258 -26.57,47.931 -25.092,1.7734 -55.237,3.6704 -77.671,11.691 -40.116,15.631 -58.148,52.478 -58.148,79.739 -4.6e-4,24.742 16.39,50.41 50.305,66.002 30.718,14.123 76.68,19.374 121.88,19.373 40.387,-0.03 96.871,-3.7145 127.81,-16.586 l 37.915,-15.795 44.793,-22.916 c 4.4408,-35.813 2.5621,-41.588 -4.2292,-59.745 l -56.415,-27.196 -39.579,-15.817 c -2.1517,-0.99447 -12.127,-3.0251 -12.127,-3.0251 -4.9155,-25.119 -20.514,-74.528 -20.514,-74.528 -5.676,-7.655 -23.025,-7.4185 -39.225,-7.5515 z"
       fill="#1253a3"
       stroke-linejoin="round"
       stroke-width="5.7436"
       id="path2" />
    <path
       d="m 764.12,401.21 c 12.684,35.046 11.432,73.137 7.6923,93.333"
       fill="none"
       stroke-width="5.7436"
       id="path3" />
    <path
       d="m 360.93,438.36 c 129.81,22.686 256.98,23.714 382.92,7.7358"
       fill="none"
       stroke-width="0.95726px"
       id="path4" />
    <path
       d="m 513.47,530.39 c -36.088,-1.3006 -65.026,-5.5713 -88.299,-13.031 -34.645,-11.105 -57.19,-32.066 -63.038,-58.61 -0.89533,-4.0638 -1.1796,-18.132 -0.38184,-18.895 0.26076,-0.24933 2.0758,-0.13825 4.3453,0.26588 30.425,5.4182 76.576,11.007 115.22,13.954 51.99,3.964 113.11,4.4893 167.59,1.4404 29.238,-1.6364 78.346,-6.0223 92.276,-8.2413 l 1.9037,-0.30324 -0.28782,6.9443 c -0.15831,3.8194 -0.66229,10.453 -1.12,14.741 l -0.83214,7.7963 -22.463,11.376 c -19.512,9.8811 -25.088,12.452 -42.438,19.572 -21.927,8.9973 -27.203,10.866 -37.812,13.393 -29.562,7.0402 -82.523,11.118 -124.66,9.5996 z"
       fill="#ffcc00"
       stroke-linejoin="round"
       stroke-width="2.8826"
       id="path5" />
    <circle
       cx="459.07001"
       cy="442.23999"
       r="28.944"
       fill="#ff6600"
       stroke-width="3.0077"
       id="circle5" />
    <circle
       cx="459.07001"
       cy="442.23999"
       r="17.493999"
       fill="#5599ff"
       stroke-width="3.0077"
       id="circle6" />
    <circle
       cx="546.92999"
       cy="442.23999"
       r="28.944"
       fill="#ff6600"
       stroke-width="3.0077"
       id="circle7" />
    <circle
       cx="546.92999"
       cy="442.23999"
       r="17.493999"
       fill="#80b3ff"
       stroke-width="3.0077"
       id="circle8" />
    <circle
       cx="634.78998"
       cy="442.23999"
       r="28.944"
       fill="#ff6600"
       stroke-width="3.0077"
       id="circle9" />
    <circle
       cx="634.78998"
       cy="442.23999"
       r="17.493999"
       fill="#80b3ff"
       stroke-width="3.0077"
       id="circle10" />
    <path
       d="m 579.91,266.64 c 0,0 -3.3942,-2.161 -4.1012,-3.9134 -2.4424,-6.0539 -2.1624,-13.76 0.82024,-19.567 0.99683,-1.9407 3.0907,-3.3283 5.1558,-4.032 5.435,-1.8519 11.819,-1.8164 17.225,0.11859 1.4195,0.50809 2.8105,1.5133 3.5153,2.8461 3.0965,5.8556 3.2608,13.381 1.6405,19.804 -0.47298,1.8749 -3.1638,4.862 -3.1638,4.862 l -21.326,-0.47435"
       fill="#ff5b14"
       fill-rule="evenodd"
       stroke-width="2.8007"
       id="path10" />
    <path
       d="m 580.36,289.38 c 0,-0.46788 -0.22687,-22.926 -0.22687,-22.926 6.8239,-3.239 13.556,-4.0228 20.079,0.81879 l -0.22688,24.915 z"
       fill="#f0ca1b"
       fill-rule="evenodd"
       stroke-width="2.7368"
       id="path11" />
    <path
       d="m 517.3,256.03 c 0,0 20.519,-1.3076 27.961,-0.23564 6.3408,0.91337 15.904,7.3455 20.207,16.731 3.6368,7.9328 3.156,7.2283 3.5245,10.133 0.2175,1.7143 0.0831,5.6008 0.0831,5.6008 l -24.202,1.4425 c 0,0 -0.19265,-6.2566 -1.7278,-8.2216 -1.1882,-1.5208 -3.4115,-1.8265 -5.3354,-1.9256 -6.9209,-0.35673 -19.571,-0.19521 -19.571,-0.19521 0.20143,-7.9829 -0.0348,-15.79 -0.93985,-23.329 z"
       fill="#f0ca1b"
       fill-rule="evenodd"
       stroke-width="2.7953"
       id="path12" />
    <path
       d="m 489.17,251.04 25.128,-0.68376 c 0,0 1.6371,0.49461 1.8803,1.1966 3.2416,9.3544 2.6196,22.814 1.3675,31.196 -0.0954,0.63882 -0.83387,1.0979 -1.453,1.282 -5.2449,1.5599 -15.208,2.41 -16.667,0.68376 -7.4596,-8.83 -14.968,-33.547 -10.256,-33.675 z"
       fill="#ff5b14"
       fill-rule="evenodd"
       stroke-width="2.8718"
       id="path13" />
    <g
       transform="matrix(0.64565,0,0,0.64565,253.59,130.94)"
       stroke-width="4.4479"
       id="g14">
      <circle
         cx="491.94"
         cy="301.31"
         r="30.236"
         fill="#ff6600"
         id="circle13" />
      <circle
         cx="491.94"
         cy="301.31"
         r="18.275"
         fill="#ffcc00"
         id="circle14" />
    </g>
  </g>
</svg>
