<svg
  xmlns="http://www.w3.org/2000/svg"
  viewBox="0 0 100 100"
  height="1"
  width="1"
>
  <path
    d="M 13.52679,67.171038 3.77232,57.628627 Q 2.5,56.356308 2.5,54.659878 q 0,-1.69643 1.27232,-2.96875 9.33036,-10.07254 21.52344,-15.10882 12.19308,-5.03627 24.70424,-5.03627 12.51116,0 24.65123,5.03627 12.14006,5.03628 21.57645,15.10882 1.27232,1.27232 1.27232,2.96875 0,1.69643 -1.27232,2.968749 l -9.75447,9.542411 q -1.16629,1.166295 -2.70368,1.272321 -1.53739,0.106028 -2.80971,-0.848214 L 68.66071,58.264788 q -0.84821,-0.636161 -1.27232,-1.484375 -0.4241,-0.848215 -0.4241,-1.908485 v -12.08705 q -4.02902,-1.27232 -8.27009,-2.01451 -4.24107,-0.74219 -8.6942,-0.74219 -4.45312,0 -8.6942,0.74219 -4.24107,0.74219 -8.27009,2.01451 v 12.08705 q 0,1.06027 -0.4241,1.908485 -0.42411,0.848214 -1.27232,1.484375 l -12.29911,9.330357 q -1.27232,0.954242 -2.80971,0.848214 -1.53739,-0.106026 -2.70368,-1.272321 z m 11.02678,-20.9933 q -3.07478,1.5904 -5.9375,3.65792 -2.86272,2.06752 -5.9375,4.61217 l 4.24107,4.241067 7.63393,-5.937497 z m 50.89286,0.21205 v 6.36161 l 7.63393,5.937497 4.24107,-4.029017 q -3.07478,-2.7567 -5.9375,-4.77121 -2.86272,-2.0145 -5.9375,-3.49888 z m -50.89286,-0.21205 z m 50.89286,0.21205 z"
    style="stroke-width:0.106026"
  />
</svg>
