<svg
  xmlns="http://www.w3.org/2000/svg"
  viewBox="0 0 100 100"
  height="1"
  width="1"
>
  <path
    d="M 92.22221,50 Q 90.11107,50 88.46186,48.48263 86.8125,46.96528 86.54857,44.72222 84.83329,32.45138 76.19095,23.80903 67.54862,15.16667 55.277776,13.45138 53.034724,13.1875 51.517372,11.60417 50,10.02083 50,7.77778 50,5.53472 51.58333,4.01737 53.16667,2.5 55.277776,2.76388 71.9028,4.61112 83.64579,16.35417 95.38893,28.09722 97.23613,44.72222 97.5,46.83333 95.98268,48.41667 94.46528,50 92.22221,50 Z M 70.1875,50 Q 68.47222,50 67.15278,48.8125 65.83333,47.625 65.17362,45.64583 64.11806,41.81944 61.149308,38.85069 58.180558,35.88194 54.35417,34.82638 52.375,34.16667 51.1875,32.84722 50,31.52778 50,29.68056 q 0,-2.63889 1.847224,-4.28819 1.847218,-1.64931 4.090276,-1.12154 7.38888,1.71529 12.73263,7.05904 5.34377,5.34375 7.05908,12.73263 0.52767,2.24306 -1.1875,4.09028 Q 72.82639,50 70.1875,50 Z M 91.95829,97.5 Q 75.4653,97.5 59.368058,90.30902 43.27083,83.11806 30.076378,69.92362 16.881942,56.72917 9.690974,40.63194 2.5,24.53472 2.5,8.04167 2.5,5.66667 4.08333,4.08333 5.66667,2.5 8.04167,2.5 h 21.375 q 1.847208,0 3.298606,1.25347 1.451394,1.25347 1.715282,2.96875 l 3.430564,18.47222 q 0.263878,2.11112 -0.131952,3.5625 -0.39584,1.45139 -1.451394,2.50694 L 23.47917,44.19444 q 2.638888,4.88194 6.267356,9.43403 3.628474,4.55209 7.982644,8.7743 4.090272,4.09028 8.576388,7.58681 4.486112,3.49654 9.5,6.3993 L 68.20833,63.98612 q 1.18749,-1.1875 3.10072,-1.78125 1.91315,-0.59375 3.76034,-0.32987 l 18.20839,3.69445 q 1.84722,0.52777 3.03472,1.91318 1.1875,1.38542 1.1875,3.1007 v 21.375 q 0,2.375 -1.58329,3.95834 Q 94.33329,97.5 91.95829,97.5 Z M 18.465276,34.16667 27.173622,25.45833 24.930558,13.05556 H 13.1875 q 0.659724,5.40972 1.847224,10.6875 1.1875,5.27777 3.430552,10.42361 z M 65.70138,81.40278 q 5.14583,2.24305 10.48957,3.56249 5.34376,1.31946 10.75343,1.71529 V 75.06945 L 74.54171,72.5625 Z M 18.465276,34.16667 Z M 65.70138,81.40278 Z"
    style="stroke-width:0.131942"
  />
</svg>
