<svg
  xmlns="http://www.w3.org/2000/svg"
  viewBox="0 0 100 100"
  height="1"
  width="1"
>
  <path
    d="m 43.606122,79.489071 24.77996,-29.68806 h -19.15359 l 3.47159,-27.17415 -22.14634,31.96255 h 16.63968 z m -7.42201,-15.32287 h -14.84403 q -2.87304,0 -4.24971,-2.57376 -1.37666,-2.57376 0.29928,-4.96796 L 53.182922,5.1492115 q 1.1971,-1.67594 3.11246,-2.33435 1.91535,-0.6584 3.95042,0.0599 2.03507,0.71826 2.99275,2.51391 0.95768,1.79565 0.71826,3.83072 l -3.83072,31.0048695 h 18.55504 q 3.11246,0 4.36941,2.75332 1.25696,2.75333 -0.77811,5.14753 l -39.38457,47.16571 q -1.31681,1.55623 -3.23216,2.03507 -1.91536,0.47884 -3.71101,-0.35913 -1.79565,-0.83797 -2.81319,-2.57376 -1.01753,-1.7358 -0.77811,-3.77086 z m 13.2878,-13.16809 z"
    style="stroke-width:0.11971" 
  />
</svg>
