<?xml version="1.0" encoding="UTF-8" standalone="no"?>
<svg
   width="1"
   height="1"
   version="1.1"
   viewBox="0 0 100 100"
   id="svg29"
   xmlns="http://www.w3.org/2000/svg"
   xmlns:svg="http://www.w3.org/2000/svg">
  <defs
     id="defs29" />
  <g
     transform="translate(212.19,-127.98)"
     id="g29">
    <g
       transform="matrix(-0.70711,0.70711,0.70711,0.70711,-47.087,8.4375)"
       id="g28">
      <path
         d="m 201.30558,-22.785654 c -2.06218,1.522248 -3.86333,2.329244 -6.49491,2.467038 l 0.13109,4.098195 h -2.03992 v -0.141038 l -1.05733,-0.81224 c 0,0 -0.0602,-0.04282 -0.1008,-0.05272 -0.0406,-0.0099 -0.12394,0.0012 -0.12394,0.0012 l -1.56711,0.286006 c 0,0 -0.0316,0.01382 -0.0423,0.02659 -0.0135,0.01616 -0.0196,0.03803 -0.0236,0.05873 -0.14302,0.737626 -0.0682,1.505675 -9.4e-4,2.254073 0.002,0.02016 -0.003,0.0436 0.0109,0.05988 0.0136,0.01628 0.0414,0.02381 0.0414,0.02381 l 1.58984,0.279992 c 0,0 0.0873,0.01769 0.11954,0.01017 0.0323,-0.0075 0.0932,-0.05457 0.0932,-0.05457 l 1.06033,-0.835596 v -0.11954 h 2.0726 l 0.24231,7.5748949 H 193.61 v -0.155374 l -1.05733,-0.8122402 c 0,0 -0.0602,-0.04282 -0.1008,-0.05272 -0.0406,-0.0099 -0.12394,9.47e-4 -0.12394,9.47e-4 l -1.56711,0.286243 c 0,0 -0.0316,0.01382 -0.0423,0.02659 -0.0135,0.01616 -0.0196,0.03803 -0.0236,0.05873 -0.14303,0.7376262 -0.0682,1.5056752 -9.5e-4,2.2540729 0.002,0.020159 -0.003,0.043371 0.0109,0.059652 0.0136,0.016284 0.0414,0.024047 0.0414,0.024047 l 1.58985,0.2799922 c 0,0 0.0872,0.01746 0.11954,0.00994 0.0323,-0.00752 0.0932,-0.054335 0.0932,-0.054335 l 1.06033,-0.8355969 v -0.10497 h 1.63838 l 0.11283,3.52571 c 0.9164,0.8880389 1.35166,2.28591653 1.54474,4.1939642 v 0.8184907 h -0.006 l -0.81548,41.7999542 -0.40046,7.1e-4 c -7.30498,0.0752 -12.34229,6.587844 -8.31133,15.409516 0.63049,1.409313 1.41819,2.75695 1.84187,4.228176 0.19849,0.917007 0.24718,1.654241 -0.0837,2.57725 -0.93825,2.150134 -1.63423,3.243255 -2.9563,5.097084 -6.83455,9.525915 -3.20667,25.063396 15.18815,24.118724 19.21661,0.774466 21.50134,-14.893375 14.30739,-24.917788 -0.64402,-1.073209 -1.67389,-2.554047 -2.50077,-4.089198 -0.31089,-0.620784 -0.40436,-1.371668 -0.2282,-2.156764 0.34363,-1.825537 1.02089,-2.726053 1.60061,-3.729441 4.58521,-8.185381 0.29738,-16.858487 -8.22575,-16.557802 l -0.37386,7.11e-4 -0.54843,-41.7750948 h 0.005 l -10e-4,-0.8552477 h -0.0106 c 0.12175,-1.72893887 0.55279,-3.2631428 1.52273,-4.2039081 l 0.18727,-3.5053485 h 1.9322 v 0.12508 l 1.06033,0.8355971 c 0,0 0.0611,0.046813 0.0934,0.054335 0.0323,0.00752 0.11954,-0.00994 0.11954,-0.00994 l 1.5896,-0.2799922 c 0,0 0.0278,-0.00777 0.0414,-0.024047 0.0136,-0.016281 0.009,-0.039493 0.0109,-0.059652 0.0672,-0.7483859 0.14233,-1.5164469 -7.1e-4,-2.2540721 -0.004,-0.02069 -0.01,-0.04257 -0.0236,-0.05873 -0.0107,-0.01277 -0.0426,-0.02659 -0.0426,-0.02659 l -1.56688,-0.286242 c 0,0 -0.0836,-0.01083 -0.12415,-9.47e-4 -0.0406,0.0099 -0.10081,0.05271 -0.10081,0.05271 l -1.0571,0.8122412 v 0.13526 h -1.8788 l 0.40392,-7.5576109 h 1.91633 v 0.12231 l 1.06033,0.835596 c 0,0 0.0611,0.04705 0.0934,0.05457 0.0323,0.0075 0.11954,-0.01017 0.11954,-0.01017 l 1.58961,-0.280028 c 0,0 0.0278,-0.0075 0.0414,-0.02381 0.0136,-0.01628 0.009,-0.03972 0.0109,-0.05988 0.0672,-0.748386 0.14233,-1.516447 -7.1e-4,-2.254072 -0.004,-0.02069 -0.01,-0.04257 -0.0236,-0.05873 -0.0107,-0.01277 -0.0425,-0.02659 -0.0425,-0.02659 l -1.56688,-0.286006 c 0,0 -0.0836,-0.01107 -0.12416,-0.0012 -0.0406,0.0099 -0.10081,0.05272 -0.10081,0.05272 l -1.05709,0.81224 v 0.138268 h -1.86307 l 0.22127,-4.140575 c -2.68616,-0.245993 -4.96509,-1.079862 -6.52037,-2.421935 z"
         fill="#848484"
         stroke="#493026"
         stroke-width="0.71028"
         id="path1" />
      <g
         fill="#848484"
         id="g4"
         transform="matrix(0.11837993,0,0,0.11837993,177.3585,-24.778225)">
        <g
           transform="translate(38.91,16.828)"
           id="g2">
          <rect
             x="90.196999"
             y="55.462002"
             width="34.015999"
             height="8.3193998"
             id="rect1" />
          <path
             d="m 67.969,49.615 c 0.09039,-0.10784 0.35808,-0.22357 0.35808,-0.22357 l 13.238,-2.4177 c 0,0 0.70463,-0.0927 1.0475,-0.009 0.34285,0.0836 0.85154,0.44499 0.85154,0.44499 l 8.9307,6.8624 -0.0074,10.519 -8.9568,7.0592 c 0,0 -0.51562,0.3961 -0.78827,0.45964 -0.27266,0.0635 -1.0096,-0.0858 -1.0096,-0.0858 l -13.429,-2.365 c 0,0 -0.23462,-0.064 -0.34967,-0.20156 -0.11505,-0.13753 -0.0763,-0.3344 -0.0916,-0.50469 -0.56792,-6.3219 -1.2012,-12.811 0.0068,-19.042 0.03389,-0.17481 0.08505,-0.35911 0.19944,-0.49558 z"
             id="path2" />
        </g>
        <g
           transform="translate(38.91,15.62)"
           id="g3">
          <rect
             x="200.58"
             y="56.646999"
             width="35.640999"
             height="8.3193998"
             id="rect2" />
          <path
             d="m 256.76,50.823 c -0.0904,-0.10784 -0.35808,-0.22357 -0.35808,-0.22357 l -13.238,-2.4177 c 0,0 -0.70463,-0.0927 -1.0475,-0.009 -0.34285,0.0836 -0.85153,0.44499 -0.85153,0.44499 l -8.9307,6.8624 0.007,10.519 8.9568,7.0592 c 0,0 0.51562,0.3961 0.78827,0.45964 0.27266,0.0635 1.0096,-0.0858 1.0096,-0.0858 l 13.429,-2.365 c 0,0 0.23462,-0.064 0.34968,-0.20156 0.11505,-0.13753 0.0763,-0.3344 0.0916,-0.50469 0.56792,-6.3219 1.2012,-12.811 -0.007,-19.042 -0.0339,-0.17481 -0.0851,-0.35911 -0.19944,-0.49558 z"
             id="path3" />
        </g>
      </g>
      <g
         transform="matrix(0.11837993,0,0,0.11837993,177.49313,-24.778225)"
         fill="#848484"
         id="g7">
        <g
           transform="translate(38.91,16.828)"
           id="g5">
          <rect
             x="95.765999"
             y="127.77"
             width="33.348999"
             height="8.3193998"
             id="rect4" />
          <path
             d="m 72.812,121.8 c 0.09039,-0.10784 0.35808,-0.22357 0.35808,-0.22357 l 13.238,-2.4177 c 0,0 0.70463,-0.0927 1.0475,-0.009 0.34285,0.0836 0.85154,0.44499 0.85154,0.44499 l 8.9307,6.8624 -0.0074,10.519 -8.9568,7.0592 c 0,0 -0.51562,0.3961 -0.78827,0.45964 -0.27266,0.0635 -1.0096,-0.0858 -1.0096,-0.0858 l -13.429,-2.365 c 0,0 -0.23462,-0.064 -0.34967,-0.20156 -0.11505,-0.13753 -0.0763,-0.3344 -0.0916,-0.50469 -0.56792,-6.3219 -1.2012,-12.811 0.0068,-19.042 0.03389,-0.17481 0.08505,-0.35911 0.19944,-0.49558 z"
             id="path4" />
        </g>
        <g
           transform="translate(38.91,16.568)"
           id="g6">
          <rect
             x="195.75999"
             y="127.86"
             width="35.140999"
             height="8.3193998"
             id="rect5" />
          <path
             d="m 251.9,122.06 c -0.0904,-0.10784 -0.35808,-0.22357 -0.35808,-0.22357 l -13.238,-2.4177 c 0,0 -0.70463,-0.0927 -1.0475,-0.009 -0.34285,0.0836 -0.85153,0.44499 -0.85153,0.44499 l -8.9307,6.8624 0.007,10.519 8.9568,7.0592 c 0,0 0.51562,0.3961 0.78827,0.45964 0.27266,0.0635 1.0096,-0.0858 1.0096,-0.0858 l 13.429,-2.365 c 0,0 0.23462,-0.064 0.34967,-0.20156 0.11506,-0.13753 0.0763,-0.3344 0.0916,-0.50469 0.56792,-6.3219 1.2012,-12.811 -0.007,-19.042 -0.0339,-0.17481 -0.085,-0.35911 -0.19943,-0.49558 z"
             id="path5" />
        </g>
      </g>
      <path
         d="m 195.68372,43.663133 c -7.30499,0.0752 -12.34229,6.587843 -8.31146,15.409516 0.63049,1.409313 1.41808,2.75695 1.84176,4.228176 0.19849,0.917006 0.24726,1.654359 -0.0836,2.577368 -0.93826,2.150134 -1.63412,3.243255 -2.95618,5.097085 -6.83455,9.525914 -3.2068,25.063399 15.18814,24.118727 19.21662,0.774465 21.50135,-14.893379 14.3074,-24.917792 -0.64402,-1.073209 -1.67389,-2.554165 -2.50078,-4.089316 -0.31089,-0.620785 -0.40438,-1.371669 -0.22822,-2.156764 0.34363,-1.825537 1.02094,-2.726053 1.60073,-3.729442 4.58521,-8.18538 0.29742,-16.858486 -8.22575,-16.557801"
         fill="#cb8348"
         id="path7"
         style="stroke-width:0.11838" />
      <path
         d="m 195.76895,59.823178 c 2.63976,2.741797 8.01787,2.310894 10.38879,0.269207 l -0.76483,-58.2594997 -8.49341,0.029648 z"
         fill="#7c503e"
         id="path8"
         style="stroke-width:0.11838" />
      <ellipse
         transform="rotate(-0.19999784)"
         cx="200.82266"
         cy="61.451866"
         rx="5.621604"
         ry="5.9270234"
         fill="#1d1d1d"
         stroke="#493026"
         stroke-width="0.473518"
         id="ellipse8" />
      <g
         fill="#848484"
         stroke="#848484"
         stroke-linecap="round"
         stroke-width="1px"
         id="g16"
         transform="matrix(0.11837993,0,0,0.11837993,177.3585,-24.778225)">
        <path
           d="m 162.95,342.25 75.065,-0.2594"
           id="path9" />
        <path
           d="m 161.14,431.91 78.478,-0.27394"
           id="path10" />
        <path
           d="m 160.31,477.88 79.709,-0.28347"
           id="path11" />
        <path
           d="m 159.31,524.61 81.244,-0.28926"
           id="path12" />
        <path
           d="m 158.19,566.95 82.994,-0.29494"
           id="path13" />
        <path
           d="m 161.76,387.98 76.978,-0.27394"
           id="path14" />
        <path
           d="m 163.51,297.98 74.228,-0.27394"
           id="path15" />
        <path
           d="m 164.26,258.7 72.978,-0.27394"
           id="path16" />
      </g>
      <path
         d="m 196.91368,1.1221203 c -0.18893,-1.94865207 -0.62399,-3.3716972 -1.55302,-4.2719766 l -0.54928,-17.1686417 c 2.63158,-0.137794 4.43261,-0.94479 6.49479,-2.467038 1.55528,1.342074 3.83421,2.175942 6.52037,2.421935 l -0.91773,17.1733771 c -0.99267,0.9627722 -1.42174,2.54647073 -1.5316,4.3250109 l -8.46405,-0.012761 z"
         fill="#cb8348"
         id="path17"
         style="stroke-width:0.11838" />
      <path
         d="m 196.9054,1.8702815 1e-5,-0.8554608 8.4914,-0.00128 0.001,0.8552477 -8.49282,0.00148 v 0 z"
         fill="#848484"
         id="path18"
         style="stroke-width:0.11838" />
      <path
         d="M 198.11287,-6.5595531 197.67303,1.033217"
         fill="none"
         stroke="#333333"
         stroke-width="0.23676"
         id="path19" />
      <rect
         x="194.22173"
         y="82.226578"
         width="13.359176"
         height="2.8453801"
         rx="0.47351974"
         ry="0.47351974"
         fill="#7c503e"
         id="rect19"
         style="stroke-width:0.11838" />
      <path
         d="m 195.56534,82.922654 h 10.67242 c 0.20398,0.291368 0.21152,0.582725 0,0.874094 h -10.67242 c -0.23682,-0.317673 -0.17686,-0.602377 0,-0.874094 z"
         fill="#848484"
         id="path20"
         style="stroke-width:0.11838" />
      <path
         d="m 197.67368,1.0132108 -1.36054,82.9760462 -2.3e-4,-0.0611"
         fill="none"
         stroke="#333333"
         stroke-width="0.23676"
         id="path21" />
      <path
         d="m 204.41542,-7.7054711 0.29054,8.964557"
         fill="none"
         stroke="#333333"
         stroke-width="0.23676"
         id="path22" />
      <g
         transform="matrix(0.11837993,0,0,0.11837993,177.47635,-24.778225)"
         fill="#848484"
         id="g23">
        <ellipse
           cx="177.64999"
           cy="148.53999"
           rx="9.7059002"
           ry="10.139"
           id="ellipse22" />
        <ellipse
           cx="225.16"
           cy="148.67"
           rx="9.7059002"
           ry="10.139"
           id="ellipse23" />
      </g>
      <path
         d="m 198.16378,-16.518739 1.89455,17.5486413"
         fill="none"
         stroke="#333333"
         stroke-width="0.23676"
         id="path23" />
      <path
         d="M 199.3677,83.978603 200.05667,1.0132108"
         fill="none"
         stroke="#333333"
         stroke-width="0.23676"
         id="path24" />
      <path
         d="m 202.44084,1.0960767 2.09663,-17.5143107"
         fill="none"
         stroke="#333333"
         stroke-width="0.23676"
         id="path25" />
      <g
         transform="matrix(0.11837993,0,0,0.11837993,177.48225,-24.778225)"
         fill="#848484"
         id="g26">
        <ellipse
           cx="172.89"
           cy="76.581001"
           rx="9.7059002"
           ry="10.139"
           id="ellipse25" />
        <ellipse
           cx="229.83"
           cy="77.317001"
           rx="9.7059002"
           ry="10.139"
           id="ellipse26" />
      </g>
      <path
         d="m 202.44321,1.0605627 0.0415,82.9263263"
         fill="none"
         stroke="#333333"
         stroke-width="0.23676"
         id="path27" />
      <path
         d="M 205.54003,83.947824 204.69953,1.0167622"
         fill="none"
         stroke="#333333"
         stroke-width="0.23676"
         id="path28" />
    </g>
  </g>
</svg>
