<?xml version="1.0" encoding="UTF-8" standalone="no"?>
<svg
   enable-background="new 0 0 1162 1920"
   version="1.1"
   viewBox="0 0 100 100"
   id="svg221"
   width="1"
   height="1"
   xmlns="http://www.w3.org/2000/svg"
   xmlns:svg="http://www.w3.org/2000/svg">
  <defs
     id="defs221" />
  <path
     d="M 0,-3.6478177e-4 H 4.09893 C 7.302,4.7447152 10.50679,9.4865448 13.70987,14.231625 c 1.32615,-1.74984 3.12389,-2.9704 5.05675,-3.17239 C 16.77524,7.3511048 14.72621,3.6904852 12.71332,-3.6478177e-4 H 24.40254 C 25.43352,2.7604852 26.47654,5.5137752 27.51698,8.2692248 c 1.87692,0.0194 3.75384,-10e-4 5.63076,0.01 -0.0499,-0.25167 -0.10069,-0.50443 -0.16868,-0.74962 C 32.2579,5.0247452 31.55825,2.5101752 30.84913,-8.4781773e-5 h 9.34588 C 40.61755,2.7542852 40.99965,5.5194552 41.40498,8.2781448 c 1.6351,-0.002 3.2702,-0.003 4.90615,10e-4 C 46.18119,5.5161352 45.96776,2.7606852 45.81544,-1.6478177e-4 h 8.69184 C 54.31193,2.7585252 54.14497,5.5193752 53.96942,8.2802248 c 1.64026,-0.013 3.28138,0.009 4.92164,-0.0108 0.40447,-2.7576096 0.79862,-5.5184596 1.22718,-8.26958958177 h 9.35104 C 68.69562,2.7628452 67.88324,5.5096552 67.12162,8.2769848 H 72.7782 C 73.82294,5.5172152 74.88232,2.7650052 75.91673,-1.6478177e-4 H 87.54658 C 85.51045,3.6939352 83.48465,7.3988248 81.43131,11.078885 c 1.97073,0.24735 3.77966,1.55972 5.09979,3.38085 3.29601,-4.8098902 6.57051,-9.6467698 9.86394,-14.45989978177 h 3.6041 V 14.842105 c -1.21169,1.2292 -2.3795,2.52322 -3.57226,3.78051 L 60.7938,56.542175 c -0.55938,0.63188 -1.17211,1.186 -1.70222,1.85677 0.31325,0.3262 0.63424,0.64269 0.96212,0.94729 13.31486,-11.46898 26.62886,-22.9412 39.94544,-34.40802 v 13.35059 c -12.50334,7.39899 -24.98946,14.84659 -37.48935,22.25423 -0.24096,0.13177 -0.47418,0.28516 -0.70137,0.44934 0.45525,0.34564 0.85369,0.84251 1.35283,1.0823 0.70911,-0.22683 1.38553,-0.60596 2.08259,-0.88896 11.58424,-5.15445 23.17106,-10.2981 34.7553,-15.45147 v 10.81981 c -0.86746,0.0778 -1.71083,0.37697 -2.57055,0.53467 -10.48183,2.40441 -20.96711,4.77964 -31.44637,7.19809 0.75042,0.60272 1.5542,1.09311 2.34249,1.61049 0.28916,0.21819 0.63081,0.15014 0.94922,0.11234 9.37772,-0.92892 18.75629,-1.84597 28.13401,-2.77489 0.86144,-0.10262 1.72632,-0.17175 2.5912,-0.23547 v 10.03778 c -4.18499,-0.45906 -8.37428,-0.86195 -12.56099,-1.30697 -4.1368,-0.41154 -8.27274,-0.86412 -12.4104,-1.26053 0.0792,1.20868 0.48537,2.32555 0.8821,3.41326 8.0266,1.89457 16.06182,3.73838 24.08929,5.63079 v 10.78525 c -7.44744,-3.38194 -14.91209,-6.70986 -22.369,-10.06479 -0.76764,-0.31433 -1.50429,-0.76583 -2.30377,-0.94297 0.0628,1.1914 0.19019,2.37524 0.31497,3.55908 -0.0103,0.4569 0.41136,0.51739 0.65749,0.69669 7.89924,4.7386 15.80365,9.46423 23.70031,14.210391 v 2.23482 c -4.29859,0.013 -8.59717,0.006 -12.8949,0.003 -2.67726,-2.36444 -5.38119,-4.681351 -8.06792,-7.028511 -0.7487,-0.62972 -1.46728,-1.31561 -2.23406,-1.90969 0.0852,0.72802 0.30981,1.42363 0.35112,2.16029 0.0267,0.58652 -0.37951,1.09634 -0.83562,1.13091 -0.46729,0.0367 -0.93631,-0.0108 -1.40274,0.0302 1.68415,1.92482 3.47673,3.697341 5.16519,5.617841 -2.73492,10e-4 -5.46984,0.005 -8.20475,-0.001 -1.25214,-1.89242 -2.52408,-3.764311 -3.79687,-5.632961 -1.11961,0.008 -2.23837,-0.013 -3.35798,0.01 0.9759,1.90646 2.04646,3.735141 3.04473,5.625401 -1.81926,10e-4 -3.63939,0.002 -5.45865,-0.001 -0.70911,-1.87946 -1.39671,-3.772951 -2.12993,-5.638361 -0.82357,0.008 -1.64628,-0.001 -2.46899,0.008 0.47934,1.89242 1.07056,3.738381 1.55076,5.631881 -1.45352,0 -2.90617,0.002 -4.35969,0 -0.29087,-1.87622 -0.53614,-3.762151 -0.83132,-5.636201 -0.71858,0.009 -1.43716,-0.0119 -2.15575,0.0108 0.10673,1.87621 0.22978,3.750271 0.34682,5.625401 -1.3623,0 -2.72459,0.002 -4.08603,-0.001 0.10758,-1.87622 0.26248,-3.748111 0.35284,-5.625401 -0.71772,-0.0194 -1.43458,-0.009 -2.1523,-0.003 -0.29346,1.87297 -0.55852,3.752421 -0.83649,5.629721 -1.46298,10e-4 -2.9251,0.002 -4.38722,-0.002 0.53786,-1.87297 1.08777,-3.742711 1.59465,-5.628641 -0.82702,-0.01 -1.65403,-0.003 -2.48105,-0.003 -0.71428,1.87621 -1.43888,3.747021 -2.13681,5.632961 -1.81926,0.004 -3.63852,0 -5.45779,0.002 1.00344,-1.89134 2.06969,-3.728661 3.06882,-5.623241 -1.12649,-0.0259 -2.25299,-0.0119 -3.37948,-0.006 -1.26161,1.88377 -2.5542,3.735141 -3.80892,5.626481 -2.7375,0.008 -5.475,0 -8.2125,0.003 1.76419,-1.97775 3.6041,-3.847481 5.39152,-5.792821 -0.16953,-0.29704 -0.39586,-0.60056 -0.37865,-0.99157 0.0267,-0.46771 0.16351,-0.9084 0.25387,-1.35883 0.20654,-0.99265 0.43459,-1.9799 0.58778,-2.98876 -4.10754,3.49751 -8.18066,7.05875 -12.27959,10.571381 -0.20568,0.1739 -0.40361,0.36077 -0.59724,0.55412 -4.438,0.013 -8.876,0.004 -13.314,0.004 v -2.03392 c 9.09889,-5.434201 18.21499,-10.823051 27.31904,-16.242131 0.0835,-0.81335 0.20052,-1.6213 0.26076,-2.43681 -0.44406,0.0151 -0.88898,0.081 -1.33218,0.0367 -0.2728,-0.0259 -0.52237,-0.30892 -0.79947,-0.1847 C 16.96285,82.895525 8.4853,86.683595 0,90.440345 v -10.8479 c 8.98357,-2.01339 17.95682,-4.10887 26.93867,-6.1363 0.18072,-0.0432 0.36832,-0.0724 0.53442,-0.17823 0.35025,-0.91164 0.57142,-1.92265 0.56195,-2.94015 C 18.68831,71.226725 9.34588,72.183735 0,73.081335 v -10.07883 c 1.9888,0.1415 3.97157,0.40181 5.95864,0.58544 9.2297,0.95268 18.46026,1.90429 27.68995,2.8505 0.33821,0.0648 0.62995,-0.19335 0.9148,-0.37805 0.5413,-0.38562 1.11358,-0.70426 1.63079,-1.1428 -1.75644,-0.47094 -3.52923,-0.83819 -5.29255,-1.26377 C 23.06521,61.834865 15.23137,59.999695 7.39495,58.181815 4.93197,57.588815 2.46039,57.049825 0,56.443865 v -10.80685 c 1.75816,0.73234 3.49222,1.55541 5.24006,2.32663 11.16255,5.00971 22.31822,10.04103 33.48336,15.03778 0.37951,-0.31433 0.77194,-0.60705 1.12908,-0.96133 -0.0826,-0.0918 -0.1747,-0.16959 -0.27194,-0.23223 C 26.38273,53.917405 13.19954,45.988065 0,38.100845 v -13.51369 c 8.56877,7.43787 17.13238,14.88439 25.69857,22.32551 5.25814,4.55713 10.49905,9.14451 15.76665,13.68327 0.28743,-0.27003 0.57229,-0.54439 0.85197,-0.82739 C 28.21749,44.613035 14.10745,29.472645 0,14.330095 V 8.9521823e-4 M 19.47315,8.7414248 c -0.0465,0.83171 0.0155,1.6677502 -0.0267,2.4994602 0.0138,0.19982 -0.14286,0.24303 -0.26678,0.24303 -2.83044,0.0648 -5.38033,2.50594 -6.58945,5.63511 -0.62736,1.61374 -0.87262,3.49103 -0.51893,5.24735 0.55077,2.8181 2.16436,5.25274 4.222,6.55216 0.96557,0.6146 2.04301,0.903 3.12132,0.94404 0.10757,0.903 -0.002,1.81789 0.0508,2.72629 0.42685,0.027 0.85369,0.0151 1.28054,0.0162 19.67453,0 39.34906,-0.001 59.02445,10e-4 0.27452,-0.009 0.55421,0.0292 0.82701,-0.0367 0.0491,-0.849 -0.0163,-1.70231 0.0284,-2.55131 0.0163,-0.0367 0.0473,-0.11233 0.0637,-0.15014 0.34854,-0.0745 0.70568,-0.0551 1.05507,-0.13177 3.14369,-0.64053 5.77792,-3.99978 6.3416,-7.9153 0.25387,-1.83733 -0.14027,-3.73731 -0.87521,-5.33268 -1.27193,-2.78029 -3.63164,-4.90278 -6.23488,-4.99891 -0.12651,-0.002 -0.24527,-0.0551 -0.36317,-0.10153 -0.006,-0.89004 0.0163,-1.7811602 -0.0129,-2.6712002 -20.29758,-0.0119 -40.59517,0.002 -60.89276,-0.008 -0.0585,0.009 -0.17556,0.0248 -0.23408,0.0324 M 26.4344,33.037705 c 0.13339,0.22575 0.27194,0.44826 0.41824,0.66213 5.59376,8.25878 11.16255,16.54566 16.76233,24.79904 0.25732,-0.26355 0.51205,-0.53035 0.76248,-0.80363 -4.51804,-8.22206 -9.02144,-16.45708 -13.54808,-24.67158 -1.4647,0.0151 -2.93027,-0.0119 -4.39497,0.014 m 10.43709,-0.004 c 0.86316,2.38172 1.78053,4.73427 2.66435,7.10411 1.57743,4.17692 3.15229,8.35492 4.72715,12.53292 0.4716,1.21624 0.90447,2.45841 1.40532,3.65629 0.26678,-0.30459 0.56884,-0.56491 0.79862,-0.91596 -0.0508,-0.39966 -0.19105,-0.76798 -0.29432,-1.1482 -1.98449,-7.01338 -3.95866,-14.03108 -5.94573,-21.0423 -0.0301,-0.23223 -0.2401,-0.18902 -0.37779,-0.19766 -0.99225,0.013 -1.9845,-0.001 -2.9776,0.0108 m 8.13762,0.006 c 0.22031,1.77252 0.50688,3.53315 0.75559,5.30027 0.73235,5.12205 1.49052,10.23761 2.21685,15.36074 0.3993,-0.35429 0.72632,-0.81551 1.10068,-1.20868 -0.11791,-2.34608 -0.30723,-4.68567 -0.42169,-7.03283 -0.16523,-2.1538 -0.26247,-4.31409 -0.41566,-6.46898 -0.10068,-1.98099 -0.26764,-3.95549 -0.35542,-5.93648 -0.95868,-0.0519 -1.92081,-0.0259 -2.88035,-0.014 m 7.33987,0.005 c -0.0189,0.29596 -0.0413,0.59192 -0.0637,0.88788 0.26161,0.25923 0.55163,0.52711 0.65403,0.94621 0.11016,0.44934 0.10758,0.99157 -0.12736,1.38042 -0.0723,0.15878 -0.20396,0.30352 -0.19105,0.50227 0.0181,0.5984 0.0422,1.1968 0.0697,1.79412 0.5697,0.041 1.13338,0.1469 1.69361,0.28732 0.25904,-1.93778 0.56713,-3.86476 0.84337,-5.7993 -0.95954,-0.0238 -1.91995,-0.0302 -2.87863,0.001 m 7.70905,-0.0216 c -0.83562,2.86778 -1.66005,5.74205 -2.46125,8.62495 0.42771,-0.0313 0.85628,-0.0994 1.26849,-0.25059 0.19449,-0.0572 0.41997,-0.17282 0.60585,-0.0173 0.22117,0.15014 0.30981,0.56383 0.14544,0.81551 -0.67814,1.11687 -1.7203,1.8114 -2.79172,2.13976 -0.83734,2.86455 -1.63423,5.74745 -2.47072,8.61308 0.29519,0.4299 0.61188,0.84035 0.96643,1.19356 1.3098,-3.3841 2.58518,-6.78871 3.88465,-10.17929 1.37262,-3.64657 2.78053,-7.27153 4.1411,-10.92458 -1.09637,-0.0248 -2.19189,-0.002 -3.28827,-0.0151 m 8.15484,2.04039 c -3.81753,6.93669 -7.64709,13.86258 -11.46462,20.79927 0.29776,0.31108 0.55335,0.7237 0.89845,0.94081 0.21944,-0.23008 0.38381,-0.52928 0.57228,-0.79607 3.09378,-4.54525 6.19185,-9.08402 9.28735,-13.62711 2.10928,-3.11514 4.24781,-6.19895 6.34332,-9.32705 -1.49482,-0.0443 -2.99395,-0.0389 -4.48877,-0.005 -0.42599,0.62864 -0.75903,1.35018 -1.14801,2.01555 m -16.72877,-0.4623 c -0.47332,0.20415 -0.58347,1.09527 -0.16179,1.45063 0.39242,0.4353 1.0783,0.0184 1.06626,-0.6308 0.0439,-0.57464 -0.48193,-1.05854 -0.90447,-0.81983 m -0.37091,16.60831 c -0.0189,0.34132 0.31067,0.44177 0.52237,0.4515 0.22891,0.0259 0.58605,-0.10046 0.55507,-0.46663 -0.0663,-2.37632 -0.17039,-4.75155 -0.25043,-7.12787 -0.1024,-2.30719 -0.13855,-4.61762 -0.26333,-6.92265 -0.179,4.68891 -0.3821,9.37674 -0.56368,14.06565 m 1.40704,-12.12571 c 0.0267,1.0445 0.10758,2.08576 0.12393,3.13026 0.74009,0.0205 1.65661,-0.49255 2.25127,0.29812 -0.0103,-0.903 -0.0232,-1.806 -0.0318,-2.709 -0.63511,-0.71614 -1.53613,-0.75719 -2.34336,-0.71938 m 2.5826,2.05444 c 0.0189,0.89219 0.0284,1.78655 0.0318,2.67983 0.45955,0.16635 0.94577,0.11234 1.40963,0.002 1.02322,-0.25923 1.99654,-0.90624 2.67897,-1.90861 -0.54388,0.14042 -1.08863,0.2992 -1.64628,0.31864 -0.88812,0.0356 -1.87434,-0.19442 -2.47416,-1.09202 m -2.24611,1.78655 c 0.0163,0.89112 0.043,1.78224 0.0929,2.6712 0.0267,0.7507 0.0258,1.50356 0.10069,2.24994 0.23408,-1.68826 0.49741,-3.37005 0.73063,-5.05831 -0.31067,0.0238 -0.61876,0.0702 -0.92426,0.13717 m -3.36142,11.10389 c -3.45264,3.99006 -7.03522,7.85158 -11.02658,10.97752 -2.95953,2.33851 -6.1342,4.2374 -9.42591,5.7118 0.008,1.12659 -0.23752,2.23266 -0.58777,3.26204 -0.54733,1.60077 -1.31325,3.06113 -2.05076,4.53013 0.93373,0.0443 1.86487,-0.13609 2.76331,-0.44826 1.26763,-0.46771 2.53785,-1.13848 3.50169,-2.30287 0.52754,0.96889 1.07315,1.9961 1.9234,2.5621 0.64027,0.45474 1.44663,0.44718 2.10067,0.04 0.93631,-0.5714 1.6394,-1.58242 2.25729,-2.60747 0.51721,0.95484 1.11875,1.89349 1.93974,2.45301 0.69191,0.48066 1.59379,0.49794 2.26591,-0.0464 0.62736,-0.49471 1.19018,-1.12119 1.65058,-1.84921 0.13856,-0.21819 0.25733,-0.4569 0.4148,-0.65565 0.11618,0.0184 0.15146,0.18687 0.22289,0.283 0.48709,0.93001 1.1635,1.71311 1.9647,2.19702 0.61876,0.40397 1.3709,0.43961 2.01892,0.12529 0.99483,-0.4677 1.74525,-1.4744 2.38466,-2.50161 0.60498,1.02937 1.31496,2.09332 2.32098,2.49405 0.71858,0.2992 1.50687,-0.003 2.09636,-0.55303 0.59294,-0.50875 1.01807,-1.24109 1.43803,-1.95615 0.66523,1.0229 1.43458,1.99935 2.42167,2.51566 0.6067,0.3154 1.3141,0.2452 1.89327,-0.1307 0.83475,-0.53035 1.44404,-1.46683 1.96641,-2.4152 0.55336,0.94081 1.15748,1.87945 1.96729,2.48865 0.53528,0.40614 1.19964,0.58868 1.80893,0.35645 0.75473,-0.27868 1.33992,-0.99697 1.82184,-1.74767 0.25903,-0.38129 0.37263,-0.87816 0.62134,-1.26701 0.0258,0 0.0766,0 0.10241,0.001 0.37607,0.43313 0.69879,0.9408 1.11187,1.32642 0.85799,0.87383 1.93199,1.33722 3.0103,1.56513 0.65232,0.0821 1.3098,0.0691 1.9647,0.0734 -0.49828,-2.69497 -2.06109,-4.96435 -2.17727,-7.78785 -5.04642,-2.4206 -9.89492,-5.57571 -14.19781,-9.69538 -2.68414,-2.54158 -5.14797,-5.43097 -7.45432,-8.49642 -0.5284,0.32945 -1.11015,0.14474 -1.65833,0.0378 -0.51291,0.40073 -0.92599,0.96133 -1.37521,1.46035 m -20.84315,25.01508 c -0.48881,4.77532 -1.25128,9.50743 -2.30377,14.13801 4.3158,-0.013 8.63246,0.0151 12.94825,-0.013 0.0886,-0.35753 0.35542,-0.55303 0.55422,-0.80471 1.00773,-1.18708 1.93974,-2.47245 2.82097,-3.80751 1.90016,-2.90991 3.61787,-6.02613 4.98533,-9.37889 -0.98106,-0.29056 -1.80808,-1.0726 -2.506,-1.95507 -0.4759,0.66321 -1.02581,1.25621 -1.66092,1.66559 -0.84595,0.56707 -1.88897,0.65132 -2.77794,0.19118 -0.75129,-0.36293 -1.3339,-1.07798 -1.88897,-1.78116 -0.8821,1.20869 -2.08432,2.29855 -3.45436,2.17974 -1.23751,-0.0929 -2.24353,-1.17736 -2.96383,-2.36336 -1.14371,0.92676 -2.42425,1.56729 -3.75298,1.92914 m 39.99707,-0.11558 c -0.69707,0.50443 -1.55076,0.7021 -2.33303,0.42234 -0.98105,-0.31648 -1.77279,-1.17736 -2.44059,-2.09656 -0.78313,1.12119 -1.87692,2.08684 -3.11615,2.00907 -1.2401,-0.01 -2.27968,-1.00562 -3.13165,-2.03716 -0.61187,0.85764 -1.3795,1.59322 -2.28397,1.86865 0.90533,2.01663 1.88122,3.9825 2.93887,5.87707 0.65748,1.14928 1.30206,2.31583 2.06109,3.36573 0.63424,0.89328 1.26419,1.79196 1.89843,2.68632 0.52839,0.79175 1.13768,1.49276 1.76504,2.15921 4.11787,-0.006 8.23487,-0.001 12.35188,-0.003 -0.88123,-4.53121 -1.47159,-9.14666 -1.84766,-13.78481 -0.006,-0.20198 -0.2358,-0.11341 -0.33735,-0.16094 -1.44319,-0.1685 -2.81839,-0.97429 -3.88379,-2.20025 -0.46644,0.7291 -0.98708,1.42795 -1.64112,1.89457 m -20.5265,0.37481 c -0.55335,1.42687 -1.20739,2.78894 -1.88553,4.12616 -1.41479,2.74032 -2.99653,5.35103 -4.77448,7.73815 -0.5,0.69778 -1.07658,1.30482 -1.56969,2.00907 1.05334,0.005 2.10669,0.005 3.1609,0 2.327,-4.43291 4.36313,-9.10778 6.07396,-13.96411 -0.33391,0.0475 -0.66953,0.0788 -1.00516,0.0907 m 5.94573,-0.18254 c 1.7573,5.02699 4.01718,9.78179 6.75382,14.06672 0.81927,-0.0184 1.6394,0.001 2.45867,-0.0108 -1.62821,-1.85569 -3.06796,-3.95765 -4.39067,-6.16006 -1.48105,-2.48434 -2.83302,-5.09397 -4.02234,-7.81377 -0.26764,-0.013 -0.53356,-0.0454 -0.79948,-0.0821 z"
     fill="#ec3237"
     id="path1"
     style="stroke-width:0.0964131" />
  <path
     d="m 4.09893,-3.6478177e-4 h 8.61439 C 14.72621,3.6904852 16.77524,7.3511048 18.76662,11.059235 c -1.93286,0.20199 -3.7306,1.42255 -5.05675,3.17239 C 10.50679,9.4865448 7.302,4.7447152 4.09893,-3.6478177e-4 Z"
     fill="#f3869b"
     id="path2"
     style="stroke-width:0.0964131" />
  <path
     d="m 24.40254,-3.6478177e-4 h 6.44659 C 31.55825,2.5098952 32.2579,5.0244652 32.97906,7.5293248 c 0.068,0.24519 0.11876,0.49795 0.16868,0.74962 -1.87692,-0.0108 -3.75384,0.01 -5.63076,-0.01 C 26.47654,5.5134952 25.43352,2.7602052 24.40254,-6.4478177e-4 Z"
     fill="#f3869b"
     id="path3"
     style="stroke-width:0.0964131" />
  <path
     d="m 40.19501,-3.6478177e-4 h 5.62043 C 45.96776,2.7604852 46.18119,5.5159352 46.31113,8.2789448 c -1.63595,-0.004 -3.27105,-0.003 -4.90615,-10e-4 C 40.99965,5.5192552 40.61755,2.7540852 40.19501,-2.8478177e-4 Z"
     fill="#f3869b"
     id="path4"
     style="stroke-width:0.0964131" />
  <path
     d="m 54.50728,-3.6478177e-4 h 5.61096 C 59.68968,2.7507652 59.29553,5.5116152 58.89106,8.2692248 c -1.64026,0.0194 -3.28138,-0.002 -4.92164,0.0108 0.17555,-2.7608496 0.34251,-5.5216996 0.53786,-8.28038958177 z"
     fill="#f3869b"
     id="path5"
     style="stroke-width:0.0964131" />
  <path
     d="m 69.46928,-3.6478177e-4 h 6.44745 C 74.88232,2.7648052 73.82294,5.5170152 72.7782,8.2767848 h -5.65658 c 0.76162,-2.7673296 1.574,-5.5141396 2.34766,-8.27714958177 z"
     fill="#f3869b"
     id="path6"
     style="stroke-width:0.0964131" />
  <path
     d="m 87.54658,-3.6478177e-4 h 8.84846 C 93.10161,4.8127652 89.82711,9.6496448 86.5311,14.459535 c -1.32013,-1.82113 -3.12906,-3.1335 -5.09979,-3.38085 2.05334,-3.6800602 4.07914,-7.3849498 6.11527,-11.07904978177 z"
     fill="#f3869b"
     id="path7"
     style="stroke-width:0.0964131" />
  <path
     d="m 19.47315,8.7401648 c 0.0585,-0.008 0.17556,-0.0238 0.23408,-0.0324 20.29759,0.01 40.59518,-0.004 60.89276,0.008 0.0293,0.89004 0.007,1.7811602 0.0129,2.6712002 0.1179,0.0464 0.23666,0.0994 0.36317,0.10153 2.60324,0.0961 4.96295,2.21862 6.23488,4.99891 0.73494,1.59537 1.12908,3.49535 0.87521,5.33268 -0.56368,3.91552 -3.19791,7.27477 -6.3416,7.9153 -0.34939,0.0767 -0.70653,0.0572 -1.05507,0.13177 -0.0164,0.0378 -0.0473,0.11342 -0.0637,0.15014 -0.0447,0.849 0.0207,1.70231 -0.0284,2.55131 -0.2728,0.0659 -0.55249,0.0281 -0.82701,0.0367 -19.67539,-0.002 -39.34992,-0.001 -59.02445,-0.001 -0.42685,-10e-4 -0.85369,0.0108 -1.28054,-0.0162 -0.0525,-0.9084 0.0568,-1.82329 -0.0508,-2.72629 -1.07831,-0.041 -2.15575,-0.32944 -3.12132,-0.94404 -2.05764,-1.29942 -3.67123,-3.73406 -4.222,-6.55216 -0.35369,-1.75632 -0.10843,-3.63361 0.51893,-5.24735 1.20912,-3.12917 3.75901,-5.5703 6.58945,-5.63511 0.12392,0 0.28055,-0.0432 0.26678,-0.24303 0.0422,-0.83171 -0.0198,-1.6677502 0.0267,-2.4994602 m 0.90877,0.96025 c -0.24182,0.13934 -0.46471,0.4169402 -0.47676,0.7679802 -0.0215,0.59516 -0.003,1.1914 -0.002,1.78764 -2.16091,0.22899 -4.30891,1.38367 -5.73661,3.47483 -0.92254,1.35018 -1.5215,3.09785 -1.49826,4.89414 -0.0344,1.90861 0.62305,3.77294 1.648,5.16093 1.42254,1.95614 3.49309,3.05789 5.58085,3.24691 0.009,0.61893 -0.0189,1.24001 0.012,1.85785 0.0637,0.52927 0.50946,0.84359 0.90963,0.82739 19.30706,10e-4 38.61413,-0.001 57.92119,0 0.24612,-0.002 0.49398,0.014 0.73923,-0.027 0.34509,-0.0724 0.67383,-0.43638 0.69105,-0.8922 0.0181,-0.58868 -8.6e-4,-1.17844 0.007,-1.76604 1.44405,-0.13826 2.87347,-0.69129 4.09205,-1.68394 1.09035,-0.87816 2.01805,-2.10737 2.57485,-3.585 0.6024,-1.56081 0.72805,-3.4003 0.34767,-5.06804 -0.37607,-1.65695 -1.22116,-3.1173 -2.29602,-4.17476 -1.34164,-1.3383 -3.02235,-2.08468 -4.72285,-2.25102 -0.004,-0.63297 0.0284,-1.26809 -0.0146,-1.8989 -0.10413,-0.5389902 -0.57573,-0.8187502 -0.98881,-0.7906702 -19.27694,-10e-4 -38.55302,10e-4 -57.82996,-10e-4 -0.31928,0.0119 -0.6592,-0.054 -0.95783,0.12098 z"
     fill="#fefefe"
     id="path8"
     style="stroke-width:0.0964131" />
  <path
     d="m 20.38192,9.7004148 c 0.29863,-0.17498 0.63855,-0.10909 0.95783,-0.12098 19.27694,0.002 38.55302,0 57.82996,0.001 0.41308,-0.0281 0.88468,0.25168 0.98881,0.7906702 0.043,0.63081 0.0103,1.26593 0.0146,1.8989 1.7005,0.16634 3.38121,0.91272 4.72285,2.25102 1.07486,1.05746 1.91995,2.51781 2.29602,4.17476 0.38038,1.66774 0.25473,3.50723 -0.34767,5.06804 -0.5568,1.47763 -1.4845,2.70684 -2.57485,3.585 -1.21858,0.99265 -2.648,1.54568 -4.09205,1.68394 -0.008,0.5876 0.0112,1.17736 -0.007,1.76604 -0.0172,0.45582 -0.34596,0.81983 -0.69105,0.8922 -0.24526,0.041 -0.49311,0.0248 -0.73923,0.027 -19.30706,-0.001 -38.61413,10e-4 -57.92119,0 -0.40017,0.0162 -0.84595,-0.29812 -0.90963,-0.82739 -0.031,-0.61784 -0.003,-1.23892 -0.012,-1.85785 -2.08776,-0.18902 -4.15831,-1.29077 -5.58085,-3.24691 -1.02495,-1.38799 -1.68243,-3.25232 -1.648,-5.16093 -0.0232,-1.79629 0.57572,-3.54396 1.49826,-4.89414 1.4277,-2.09116 3.5757,-3.24584 5.73661,-3.47483 -0.002,-0.59624 -0.0198,-1.19248 0.002,-1.78764 0.012,-0.35104 0.23494,-0.6286402 0.47676,-0.7679802 m 0.71687,1.1449502 c -0.0568,0.73234 0.009,1.47008 -0.0422,2.20134 -0.10241,0.39101 -0.46213,0.46986 -0.74698,0.4677 -2.07314,0.0627 -4.16692,1.23353 -5.42767,3.33765 -0.83992,1.39771 -1.23665,3.24475 -0.94491,4.97191 0.27022,1.78872 1.20567,3.33224 2.38036,4.35838 1.21599,1.05962 2.6936,1.60077 4.16863,1.62454 0.27195,-0.0162 0.58864,0.22251 0.58434,0.59732 0.0129,0.67941 -0.002,1.3599 0.005,2.03931 19.30448,0.014 38.60982,0.006 57.9143,0.004 0.005,-0.68373 -0.0146,-1.36746 0.007,-2.05011 0.0103,-0.43314 0.3907,-0.62649 0.69018,-0.59624 2.09034,-0.0464 4.20478,-1.20868 5.48618,-3.32037 0.89501,-1.46791 1.27538,-3.43594 0.91566,-5.24086 -0.2728,-1.46576 -0.99053,-2.76301 -1.9122,-3.70814 -1.25301,-1.29509 -2.87175,-1.98638 -4.48878,-2.01987 -0.28141,0.0108 -0.63941,-0.1361 -0.68674,-0.53575 -0.0327,-0.70858 0,-1.41931 -0.0146,-2.12897 -19.29587,10e-4 -38.59175,0.005 -57.88762,-0.002 z"
     fill="#ec3237"
     id="path9"
     style="stroke-width:0.0964131" />
  <path
     d="m 21.09879,10.845365 c 19.29587,0.008 38.59175,0.003 57.88762,0.002 0.0146,0.70966 -0.0181,1.42039 0.0146,2.12897 0.0473,0.39965 0.40533,0.54655 0.68674,0.53575 1.61703,0.0335 3.23577,0.72478 4.48878,2.01987 0.92167,0.94513 1.6394,2.24238 1.9122,3.70814 0.35972,1.80492 -0.0207,3.77295 -0.91566,5.24086 -1.2814,2.11169 -3.39584,3.27392 -5.48618,3.32037 -0.29948,-0.0302 -0.67986,0.1631 -0.69018,0.59624 -0.0215,0.68265 -0.002,1.36638 -0.007,2.05011 -19.30448,0.002 -38.60982,0.01 -57.9143,-0.004 -0.007,-0.67941 0.008,-1.3599 -0.005,-2.03931 0.004,-0.37481 -0.31239,-0.61352 -0.58434,-0.59732 -1.47503,-0.0238 -2.95264,-0.56492 -4.16863,-1.62454 -1.17469,-1.02614 -2.11014,-2.56966 -2.38036,-4.35838 -0.29174,-1.72716 0.10499,-3.5742 0.94491,-4.97191 1.26075,-2.10412 3.35453,-3.275 5.42767,-3.33765 0.28485,0.002 0.64457,-0.0767 0.74698,-0.4677 0.0508,-0.73126 -0.0146,-1.469 0.0422,-2.20134 z"
     fill="#fefefe"
     id="path10"
     style="stroke-width:0.0964131" />
  <path
     d="m 0,14.328835 c 14.10745,15.14255 28.21749,30.28294 42.31719,45.43845 -0.27968,0.283 -0.56454,0.55736 -0.85197,0.82739 -5.2676,-4.53876 -10.50851,-9.12614 -15.76665,-13.68327 C 17.13238,39.470285 8.56877,32.023765 0,24.585895 Z"
     fill="#f3869b"
     id="path11"
     style="stroke-width:0.0964131" />
  <path
     d="m 96.42774,18.622415 c 1.19276,-1.25729 2.36057,-2.55131 3.57226,-3.78051 v 10.09611 c -13.31658,11.46682 -26.63058,22.93904 -39.94544,34.40802 -0.32788,-0.3046 -0.64887,-0.62109 -0.96212,-0.94729 0.53011,-0.67077 1.14284,-1.22489 1.70222,-1.85677 z"
     fill="#f3869b"
     id="path12"
     style="stroke-width:0.0964131" />
  <path
     d="m 26.43437,33.036945 c 1.4647,-0.0259 2.93027,10e-4 4.39497,-0.014 4.52664,8.2145 9.03004,16.44952 13.54808,24.67158 -0.25043,0.27328 -0.50516,0.54008 -0.76248,0.80363 -5.59978,-8.25338 -11.16857,-16.54026 -16.76233,-24.79904 -0.1463,-0.21387 -0.28485,-0.43638 -0.41824,-0.66213 z"
     fill="#f3869b"
     id="path13"
     style="stroke-width:0.0964131" />
  <path
     d="m 36.87146,33.032625 c 0.9931,-0.0119 1.98535,0.002 2.9776,-0.0108 0.13769,0.009 0.34767,-0.0346 0.37779,0.19766 1.98707,7.01122 3.96124,14.02892 5.94573,21.0423 0.10327,0.38022 0.24354,0.74854 0.29432,1.1482 -0.22978,0.35105 -0.53184,0.61136 -0.79862,0.91596 -0.50085,-1.19788 -0.93372,-2.44005 -1.40532,-3.65629 -1.57486,-4.178 -3.14972,-8.356 -4.72715,-12.53292 -0.88382,-2.36984 -1.80119,-4.72239 -2.66435,-7.10411 z"
     fill="#f3869b"
     id="path14"
     style="stroke-width:0.0964131" />
  <path
     d="m 45.00908,33.039105 c 0.95954,-0.0119 1.92167,-0.0378 2.88035,0.014 0.0878,1.98099 0.25474,3.95549 0.35542,5.93648 0.15319,2.15489 0.25043,4.31518 0.41566,6.46898 0.11446,2.34716 0.30379,4.68675 0.42169,7.03283 -0.37436,0.39317 -0.70138,0.85439 -1.10068,1.20868 -0.72633,-5.12313 -1.4845,-10.23869 -2.21685,-15.36074 -0.24871,-1.76712 -0.53528,-3.52775 -0.75559,-5.30027 z"
     fill="#f3869b"
     id="path15"
     style="stroke-width:0.0964131" />
  <path
     d="m 52.34895,33.044505 c 0.95868,-0.0313 1.91909,-0.0248 2.87863,-10e-4 -0.27624,1.93454 -0.58433,3.86152 -0.84337,5.7993 -0.56023,-0.14042 -1.12391,-0.24628 -1.69361,-0.28732 -0.0275,-0.59732 -0.0516,-1.19572 -0.0697,-1.79412 -0.0129,-0.19875 0.11876,-0.34349 0.19105,-0.50227 0.23494,-0.38885 0.23752,-0.93108 0.12736,-1.38042 -0.1024,-0.4191 -0.39242,-0.68698 -0.65403,-0.94621 0.0224,-0.29596 0.0447,-0.59192 0.0637,-0.88788 z"
     fill="#f3869b"
     id="path16"
     style="stroke-width:0.0964131" />
  <path
     d="m 60.058,33.022905 c 1.09638,0.013 2.1919,-0.01 3.28827,0.0151 -1.36057,3.65305 -2.76848,7.27801 -4.1411,10.92458 -1.29947,3.39058 -2.57485,6.79519 -3.88465,10.17929 -0.35455,-0.35321 -0.67125,-0.76366 -0.96643,-1.19356 0.83649,-2.86563 1.63338,-5.74853 2.47072,-8.61308 1.07142,-0.32836 2.11358,-1.02289 2.79172,-2.13976 0.16437,-0.25168 0.0757,-0.66537 -0.14544,-0.81551 -0.18588,-0.15554 -0.41136,-0.04 -0.60585,0.0173 -0.41221,0.15122 -0.84078,0.21927 -1.26849,0.25059 0.80121,-2.8829 1.62563,-5.75717 2.46125,-8.62495 z"
     fill="#f3869b"
     id="path17"
     style="stroke-width:0.0964131" />
  <path
     d="m 68.21284,35.063295 c 0.38898,-0.66537 0.72202,-1.38691 1.14801,-2.01555 1.49482,-0.0335 2.99395,-0.0389 4.48877,0.005 -2.09551,3.1281 -4.23404,6.21191 -6.34332,9.32705 -3.0955,4.54309 -6.19357,9.08186 -9.28735,13.62711 -0.18847,0.26679 -0.35284,0.56599 -0.57228,0.79607 -0.3451,-0.21711 -0.60069,-0.62973 -0.89845,-0.94081 3.81753,-6.93669 7.64709,-13.86258 11.46462,-20.79927 z"
     fill="#f3869b"
     id="path18"
     style="stroke-width:0.0964131" />
  <path
     d="m 51.48407,34.600995 c 0.42254,-0.23871 0.94835,0.24519 0.90447,0.81983 0.012,0.64917 -0.67384,1.0661 -1.06626,0.6308 -0.42168,-0.35536 -0.31153,-1.24648 0.16179,-1.45063 z"
     fill="#fefefe"
     id="path19"
     style="stroke-width:0.0964131" />
  <path
     d="m 51.11316,51.209305 c 0.18158,-4.68891 0.38468,-9.37674 0.56368,-14.06565 0.12478,2.30503 0.16093,4.61546 0.26333,6.92265 0.08,2.37632 0.18417,4.75155 0.25043,7.12787 0.031,0.36617 -0.32616,0.49255 -0.55507,0.46663 -0.2117,-0.01 -0.5413,-0.11018 -0.52237,-0.4515 z"
     fill="#fefefe"
     id="path20"
     style="stroke-width:0.0964131" />
  <path
     d="m 0,38.099585 c 13.19954,7.88722 26.38273,15.81656 39.58056,23.70702 0.0972,0.0626 0.18932,0.14042 0.27194,0.23223 -0.35714,0.35428 -0.74957,0.647 -1.12908,0.96133 C 27.55828,58.003415 16.40261,52.972095 5.24006,47.962385 3.49222,47.191165 1.75816,46.368095 0,45.635755 Z"
     fill="#f3869b"
     id="path21"
     style="stroke-width:0.0964131" />
  <path
     d="m 62.50979,60.542835 c 12.49989,-7.40764 24.98601,-14.85524 37.48935,-22.25423 v 7.44544 c -11.58424,5.15337 -23.17106,10.29702 -34.7553,15.45147 -0.69706,0.283 -1.37348,0.66213 -2.08259,0.88896 -0.49914,-0.23979 -0.89758,-0.73666 -1.35283,-1.0823 0.22719,-0.16418 0.46041,-0.31757 0.70137,-0.44934 z"
     fill="#f3869b"
     id="path22"
     style="stroke-width:0.0964131" />
  <path
     d="m 52.5202,39.083595 c 0.80723,-0.0378 1.70825,0.003 2.34336,0.71938 0.009,0.903 0.0215,1.806 0.0318,2.709 -0.59466,-0.79067 -1.51118,-0.2776 -2.25127,-0.29812 -0.0163,-1.0445 -0.0973,-2.08576 -0.12393,-3.13026 z"
     fill="#fefefe"
     id="path23"
     style="stroke-width:0.0964131" />
  <path
     d="m 55.1028,41.138035 c 0.59982,0.8976 1.58604,1.12767 2.47416,1.09202 0.55765,-0.0194 1.1024,-0.17822 1.64628,-0.31864 -0.68243,1.00237 -1.65575,1.64938 -2.67897,1.90861 -0.46386,0.11018 -0.95008,0.16419 -1.40963,-0.002 -0.003,-0.89328 -0.0129,-1.78764 -0.0318,-2.67983 z"
     fill="#fefefe"
     id="path24"
     style="stroke-width:0.0964131" />
  <path
     d="m 52.85669,42.924585 c 0.3055,-0.067 0.61359,-0.11341 0.92426,-0.13717 -0.23322,1.68826 -0.49655,3.37005 -0.73063,5.05831 -0.0749,-0.74638 -0.074,-1.49924 -0.10069,-2.24994 -0.0499,-0.88896 -0.0766,-1.78008 -0.0929,-2.6712 z"
     fill="#f3869b"
     id="path25"
     style="stroke-width:0.0964131" />
  <path
     d="m 49.49527,54.028475 c 0.44922,-0.49902 0.8623,-1.05962 1.37521,-1.46035 0.54818,0.10693 1.12993,0.29164 1.65833,-0.0378 2.30635,3.06545 4.77018,5.95484 7.45432,8.49642 4.30289,4.11967 9.15139,7.27478 14.19781,9.69538 0.11618,2.8235 1.67899,5.09288 2.17727,7.78785 -0.6549,-0.004 -1.31238,0.009 -1.9647,-0.0734 -1.07831,-0.22791 -2.15231,-0.6913 -3.0103,-1.56513 -0.41308,-0.38562 -0.7358,-0.89328 -1.11187,-1.32642 -0.0258,-10e-4 -0.0766,-10e-4 -0.10241,-10e-4 -0.24871,0.38885 -0.3623,0.88572 -0.62134,1.26701 -0.48192,0.7507 -1.06711,1.46899 -1.82184,1.74767 -0.60929,0.23223 -1.27365,0.0497 -1.80893,-0.35645 -0.80981,-0.6092 -1.41393,-1.54784 -1.96729,-2.48865 -0.52236,0.94837 -1.13166,1.88485 -1.96641,2.4152 -0.57917,0.3759 -1.28657,0.4461 -1.89327,0.1307 -0.98709,-0.51631 -1.75644,-1.49276 -2.42167,-2.51566 -0.41996,0.71506 -0.84509,1.4474 -1.43803,1.95615 -0.58949,0.54979 -1.37778,0.85223 -2.09636,0.55303 -1.00602,-0.40073 -1.716,-1.46468 -2.32098,-2.49405 -0.63941,1.02721 -1.38983,2.03391 -2.38466,2.50161 -0.64802,0.31432 -1.40016,0.27868 -2.01892,-0.12529 -0.8012,-0.48391 -1.47761,-1.26701 -1.9647,-2.19702 -0.0714,-0.0961 -0.10671,-0.26463 -0.22289,-0.283 -0.15748,0.19875 -0.27624,0.43746 -0.4148,0.65565 -0.4604,0.72802 -1.02322,1.3545 -1.65058,1.84921 -0.67212,0.54439 -1.574,0.52711 -2.26591,0.0464 -0.82099,-0.55952 -1.42253,-1.49817 -1.93974,-2.45301 -0.61789,1.02505 -1.32098,2.03607 -2.25729,2.60747 -0.65404,0.40721 -1.4604,0.41477 -2.10067,-0.04 -0.85025,-0.566 -1.39586,-1.59321 -1.9234,-2.5621 -0.96384,1.16439 -2.23406,1.83516 -3.50169,2.30287 -0.89844,0.31216 -1.82958,0.49254 -2.76331,0.44826 0.73751,-1.469 1.50343,-2.92936 2.05076,-4.53013 0.35025,-1.02938 0.59552,-2.13545 0.58777,-3.26204 3.29171,-1.4744 6.46638,-3.37329 9.42591,-5.7118 3.99136,-3.12594 7.57394,-6.98746 11.02658,-10.97752 m -19.6315,16.65476 c -0.1876,-0.0281 -0.37607,-0.0184 -0.56368,0.002 -0.003,0.17714 -0.074,0.4461 0.11446,0.51739 0.25473,0.0756 0.51979,0.0842 0.78054,0.12313 8.74347,1.21084 17.55407,1.71959 26.34831,1.37935 1.11876,0.0724 2.23234,-0.12962 3.35109,-0.11774 0.5,-0.0756 1.01032,-0.0346 1.50516,-0.15014 3.95435,-0.26571 7.89924,-0.72586 11.8295,-1.32966 0.13338,-0.04 0.3339,-0.0205 0.36746,-0.23655 0.0843,-0.25491 -0.18674,-0.4461 -0.36058,-0.35429 -14.38283,2.24455 -28.97651,2.23698 -43.37226,0.16635 z"
     fill="#fefefe"
     id="path26"
     style="stroke-width:0.0964131" />
  <path
     d="m 0,56.442605 c 2.46039,0.60596 4.93197,1.14495 7.39495,1.73795 7.83642,1.81788 15.67026,3.65305 23.50668,5.47201 1.76332,0.42558 3.53611,0.79283 5.29255,1.26377 -0.51721,0.43854 -1.08949,0.75718 -1.63079,1.1428 -0.28485,0.1847 -0.57659,0.44286 -0.9148,0.37805 C 24.4189,65.490975 15.18834,64.539365 5.95864,63.586685 3.97157,63.403055 1.9888,63.142745 0,63.001245 Z"
     fill="#f3869b"
     id="path27"
     style="stroke-width:0.0964131" />
  <path
     d="m 97.42601,57.088525 c 0.85972,-0.1577 1.70309,-0.4569 2.57055,-0.53467 v 6.44523 c -0.86488,0.0637 -1.72976,0.13285 -2.5912,0.23547 -9.37772,0.92892 -18.7563,1.84597 -28.13401,2.77489 -0.31842,0.0378 -0.66007,0.10585 -0.94922,-0.11234 -0.78829,-0.51738 -1.59207,-1.00777 -2.34249,-1.61049 10.47925,-2.41845 20.96453,-4.79368 31.44637,-7.19809 z"
     fill="#f3869b"
     id="path28"
     style="stroke-width:0.0964131" />
  <path
     d="m 0,73.080075 c 9.34588,-0.8976 18.68831,-1.85461 28.03504,-2.74357 0.009,1.0175 -0.2117,2.02851 -0.56195,2.94015 -0.1661,0.10586 -0.3537,0.13502 -0.53442,0.17823 -8.98185,2.02743 -17.9551,4.12291 -26.93867,6.1363 z"
     fill="#f3869b"
     id="path29"
     style="stroke-width:0.0964131" />
  <path
     d="m 29.86377,70.683235 c 14.39575,2.07063 28.98943,2.0782 43.37226,-0.16635 0.17384,-0.0918 0.44492,0.0994 0.36058,0.35429 -0.0336,0.21603 -0.23408,0.19659 -0.36746,0.23655 -3.93026,0.6038 -7.87515,1.06395 -11.8295,1.32966 0.26505,-0.0907 0.54044,-0.11233 0.8141,-0.1253 -0.75042,-0.13501 -1.47675,0.24197 -2.22889,0.17715 -1.06454,0.14366 -2.13424,0.0756 -3.20135,0.13394 -0.85628,-0.0205 -1.71428,-0.0529 -2.56969,-0.014 -0.15145,0.0573 0.12737,0.081 0.16351,0.0756 0.72203,0.0173 1.44491,-0.0432 2.16607,0.0205 -8.79424,0.34024 -17.60484,-0.16851 -26.34831,-1.37935 -0.26075,-0.0389 -0.52581,-0.0475 -0.78054,-0.12313 -0.18847,-0.0713 -0.1179,-0.34025 -0.11446,-0.51739 0.18761,-0.0205 0.37608,-0.0303 0.56368,-0.002 z"
     fill="#ec3237"
     id="path30"
     style="stroke-width:0.0964131" />
  <path
     d="m 75.02775,70.469365 c 4.13766,0.39641 8.2736,0.84899 12.4104,1.26053 4.18671,0.44502 8.376,0.84791 12.56099,1.30697 v 6.47655 c -8.02747,-1.89241 -16.06269,-3.73622 -24.08929,-5.63079 -0.39673,-1.08771 -0.80292,-2.20458 -0.8821,-3.41326 z"
     fill="#f3869b"
     id="path31"
     style="stroke-width:0.0964131" />
  <path
     d="m 59.98486,72.489235 c 0.75214,0.0648 1.47847,-0.31216 2.22889,-0.17715 -0.27366,0.013 -0.54905,0.0346 -0.8141,0.1253 -0.49484,0.11558 -1.00516,0.0745 -1.50516,0.15014 -1.11875,-0.0119 -2.23233,0.19011 -3.35109,0.11774 -0.72116,-0.0637 -1.44404,-0.003 -2.16607,-0.0205 -0.0361,0.005 -0.31497,-0.0184 -0.16351,-0.0756 0.85541,-0.0389 1.71341,-0.006 2.56969,0.014 1.06711,-0.0583 2.13681,0.01 3.20135,-0.13394 z"
     fill="#f3869b"
     id="path32"
     style="stroke-width:0.0964131" />
  <path
     d="m 28.65208,79.043555 c 1.32873,-0.36185 2.60927,-1.00238 3.75298,-1.92914 0.7203,1.186 1.72632,2.27046 2.96383,2.36336 1.37004,0.11881 2.57226,-0.97105 3.45436,-2.17974 0.55507,0.70318 1.13768,1.41823 1.88897,1.78116 0.88897,0.46014 1.93199,0.37589 2.77794,-0.19118 0.63511,-0.40938 1.18502,-1.00238 1.66092,-1.66559 0.69792,0.88248 1.52494,1.66451 2.506,1.95507 -1.36746,3.35276 -3.08517,6.46898 -4.98533,9.37889 -0.88123,1.33506 -1.81324,2.62043 -2.82097,3.80751 -0.1988,0.25168 -0.46558,0.44718 -0.55422,0.80471 -4.31579,0.0281 -8.63245,0 -12.94825,0.013 1.05249,-4.63058 1.81496,-9.36269 2.30377,-14.13801 z"
     fill="#fefefe"
     id="path33"
     style="stroke-width:0.0964131" />
  <path
     d="m 68.64915,78.927975 c 0.65404,-0.46661 1.17469,-1.16547 1.64112,-1.89457 1.0654,1.22596 2.4406,2.03175 3.88379,2.20025 0.10156,0.0475 0.33132,-0.041 0.33735,0.16094 0.37607,4.63815 0.96643,9.2536 1.84766,13.78481 -4.11701,0.002 -8.23401,-0.003 -12.35188,0.003 -0.62736,-0.66645 -1.23665,-1.36746 -1.76504,-2.15921 -0.63424,-0.89436 -1.26419,-1.79304 -1.89843,-2.68632 -0.75903,-1.0499 -1.40361,-2.21645 -2.06109,-3.36573 -1.05765,-1.89457 -2.03354,-3.86044 -2.93887,-5.87707 0.90447,-0.27543 1.6721,-1.01101 2.28397,-1.86865 0.85197,1.03154 1.89155,2.02744 3.13165,2.03716 1.23923,0.0778 2.33302,-0.88788 3.11615,-2.00907 0.6678,0.9192 1.45954,1.78008 2.44059,2.09656 0.78228,0.27976 1.63596,0.0821 2.33303,-0.42234 z"
     fill="#fefefe"
     id="path34"
     style="stroke-width:0.0964131" />
  <path
     d="m 25.44815,79.135365 c 0.2771,-0.12422 0.52667,0.15878 0.79947,0.1847 0.4432,0.0443 0.88812,-0.0216 1.33218,-0.0367 -0.0602,0.81551 -0.17728,1.62346 -0.26076,2.43681 C 18.21499,87.139255 9.09889,92.528105 0,97.962306 v -7.523201 c 8.4853,-3.75675 16.96285,-7.54482 25.44815,-11.30372 z"
     fill="#f3869b"
     id="path35"
     style="stroke-width:0.0964131" />
  <path
     d="m 48.12265,79.302785 c 0.33563,-0.0119 0.67125,-0.0432 1.00516,-0.0907 -1.71083,4.85633 -3.74696,9.5312 -6.07396,13.96411 -1.05421,0.005 -2.10756,0.005 -3.1609,0 0.49311,-0.70425 1.06969,-1.31129 1.56969,-2.00907 1.77795,-2.38712 3.35969,-4.99783 4.77448,-7.73815 0.67814,-1.33722 1.33218,-2.69929 1.88553,-4.12616 z"
     fill="#fefefe"
     id="path36"
     style="stroke-width:0.0964131" />
  <path
     d="m 54.06838,79.120245 c 0.26592,0.0367 0.53184,0.0691 0.79948,0.0821 1.18932,2.7198 2.54129,5.32943 4.02234,7.81377 1.32271,2.20241 2.76246,4.30437 4.39067,6.16006 -0.81927,0.0119 -1.6394,-0.008 -2.45867,0.0108 -2.73664,-4.28493 -4.99652,-9.03973 -6.75382,-14.06672 z"
     fill="#fefefe"
     id="path37"
     style="stroke-width:0.0964131" />
  <path
     d="m 75.32637,79.290905 c 0.79948,0.17714 1.53613,0.62864 2.30377,0.94297 7.45691,3.35493 14.92156,6.68285 22.369,10.06479 v 7.458401 C 92.10248,93.010905 84.19807,88.285275 76.29883,83.546675 c -0.24613,-0.1793 -0.6678,-0.23979 -0.65749,-0.69669 -0.12478,-1.18384 -0.25214,-2.36768 -0.31497,-3.55908 z"
     fill="#f3869b"
     id="path38"
     style="stroke-width:0.0964131" />
  <path
     d="m 13.91124,99.437766 c 4.09893,-3.512631 8.17205,-7.073871 12.27959,-10.571381 -0.15319,1.00886 -0.38124,1.99611 -0.58778,2.98876 -0.0904,0.45043 -0.22719,0.89112 -0.25387,1.35883 -0.0172,0.39101 0.20912,0.69453 0.37865,0.99157 -1.78742,1.94534 -3.62733,3.815071 -5.39152,5.792821 -2.34077,-0.008 -4.68154,0.004 -7.02231,-0.006 0.19363,-0.19335 0.39156,-0.38022 0.59724,-0.55412 z"
     fill="#f3869b"
     id="path39"
     style="stroke-width:0.0964131" />
  <path
     d="m 76.80226,91.056925 c 0.76678,0.59408 1.48536,1.27997 2.23406,1.90969 2.68673,2.34716 5.39066,4.664071 8.06792,7.028511 -2.34163,0.002 -4.68326,0.001 -7.02403,0.001 -1.68846,-1.9205 -3.48104,-3.693021 -5.16519,-5.617841 0.46643,-0.041 0.93545,0.006 1.40274,-0.0302 0.45611,-0.0346 0.8623,-0.54439 0.83562,-1.13091 -0.0413,-0.73666 -0.26592,-1.43227 -0.35112,-2.16029 z"
     fill="#f3869b"
     id="path40"
     style="stroke-width:0.0964131" />
  <path
     d="m 28.54881,99.995126 c 1.25472,-1.89134 2.54731,-3.742711 3.80892,-5.626481 1.12649,-0.005 2.25299,-0.0194 3.37948,0.006 -0.99913,1.89458 -2.06538,3.731901 -3.06882,5.623241 -1.37262,-0.002 -2.7461,-0.002 -4.11958,-0.003 z"
     fill="#f3869b"
     id="path41"
     style="stroke-width:0.0964131" />
  <path
     d="m 38.12618,99.996206 c 0.69793,-1.88594 1.42253,-3.756751 2.13681,-5.632961 0.82702,0 1.65403,-0.006 2.48105,0.003 -0.50688,1.88593 -1.05679,3.755671 -1.59465,5.628641 -1.00774,0.001 -2.01547,0.002 -3.02321,0.001 z"
     fill="#f3869b"
     id="path42"
     style="stroke-width:0.0964131" />
  <path
     d="m 46.3731,94.367565 c 0.71772,-0.005 1.43458,-0.0162 2.1523,0.003 -0.0904,1.87729 -0.24526,3.749181 -0.35284,5.625401 -0.87951,-10e-4 -1.75816,0 -2.63595,0.001 0.27797,-1.8773 0.54303,-3.756751 0.83649,-5.629721 z"
     fill="#f3869b"
     id="path43"
     style="stroke-width:0.0964131" />
  <path
     d="m 51.91177,94.371885 c 0.71859,-0.0227 1.43717,-0.002 2.15575,-0.0108 0.29518,1.87405 0.54045,3.759981 0.83132,5.636201 -0.88037,10e-4 -1.76074,-0.004 -2.64025,0 -0.11704,-1.87513 -0.2401,-3.749191 -0.34682,-5.625401 z"
     fill="#f3869b"
     id="path44"
     style="stroke-width:0.0964131" />
  <path
     d="m 57.70777,94.365405 c 0.82271,-0.009 1.64542,0 2.46899,-0.008 0.73322,1.86541 1.42082,3.758901 2.12993,5.638361 -1.01634,10e-4 -2.03182,-0.002 -3.04816,10e-4 -0.4802,-1.8935 -1.07142,-3.739461 -1.55076,-5.631881 z"
     fill="#f3869b"
     id="path45"
     style="stroke-width:0.0964131" />
  <path
     d="m 64.72061,94.371885 c 1.11961,-0.0227 2.23837,-0.002 3.35798,-0.01 1.27279,1.86865 2.54473,3.740541 3.79687,5.632961 -1.37004,0.003 -2.74008,0 -4.11012,0.002 -0.99827,-1.89026 -2.06883,-3.718941 -3.04473,-5.625401 z"
     fill="#f3869b"
     id="path46"
     style="stroke-width:0.0964131" />
  <text
     xml:space="preserve"
     style="font-size:12.3409px;line-height:1.95;fill:#ff2a2a;fill-rule:evenodd;stroke:#000000;stroke-width:9.64131e-05;stroke-linecap:round;stroke-linejoin:round"
     x="21.695971"
     y="22.61553"
     id="text221"
     transform="scale(0.89259423,1.1203299)"><tspan
       id="tspan221"
       x="21.695971"
       y="22.61553"
       style="font-style:normal;font-variant:normal;font-weight:normal;font-stretch:normal;font-size:12.3409px;font-family:Broadway;-inkscape-font-specification:Broadway;stroke-width:9.64131e-05">Fg's Circus</tspan></text>
</svg>
