<svg
  xmlns="http://www.w3.org/2000/svg"
  viewBox="0 0 100 100"
  height="1"
  width="1"
>
  <path
    d="M 50,69 Q 42.1625,69 36.58125,63.41875 31,57.8375 31,50 31,42.1625 36.58125,36.58125 42.1625,31 50,31 57.8375,31 63.41875,36.58125 69,42.1625 69,50 69,57.8375 63.41875,63.41875 57.8375,69 50,69 Z m 0,-9.5 q 3.91875,0 6.70937,-2.79063 Q 59.5,53.91875 59.5,50 59.5,46.08125 56.70937,43.29062 53.91875,40.5 50,40.5 46.08125,40.5 43.29063,43.29062 40.5,46.08125 40.5,50 q 0,3.91875 2.79063,6.70937 Q 46.08125,59.5 50,59.5 Z M 50,88 Q 36.4625,88 25.83437,86.39687 15.20625,84.79375 7.84375,83.0125 5.46875,82.41875 3.984375,80.69687 2.5,78.975 2.5,76.6 2.5,74.7 4.103125,73.57187 5.70625,72.44375 7.60625,73.0375 q 4.9875,1.30625 8.846875,2.07812 L 22.6875,76.3625 Q 17.7,71.25625 14.85,64.4875 12,57.71875 12,50 12,36.4625 13.603125,25.83437 15.20625,15.20625 16.9875,7.84375 17.58125,5.46875 19.303125,3.98437 21.025,2.5 23.4,2.5 q 1.9,0 3.02812,1.60312 1.12813,1.60313 0.53438,3.50313 -1.425,4.9875 -2.19687,8.84687 Q 23.99375,20.3125 23.6375,22.6875 28.74375,17.7 35.5125,14.85 42.28125,12 50,12 q 13.5375,0 24.16562,1.60312 10.62813,1.60313 17.99063,3.38438 2.375,0.59375 3.85937,2.31562 Q 97.5,21.025 97.5,23.4 q 0,1.9 -1.60313,3.02812 -1.60312,1.12813 -3.50312,0.53438 -4.9875,-1.425 -8.84688,-2.19688 Q 79.6875,23.99375 77.3125,23.6375 82.3,28.74375 85.15,35.5125 88,42.28125 88,50 88,63.5375 86.39687,74.16562 84.79375,84.79375 83.0125,92.15625 82.41875,94.53125 80.69687,96.01562 78.975,97.5 76.6,97.5 q -1.9,0 -3.02813,-1.60313 -1.12812,-1.60312 -0.53437,-3.50312 1.30625,-4.9875 2.07812,-8.84688 L 76.3625,77.3125 Q 71.25625,82.3 64.4875,85.15 57.71875,88 50,88 Z m 0,-9.5 q 11.875,0 20.1875,-8.3125 Q 78.5,61.875 78.5,50 78.5,38.125 70.1875,29.8125 61.875,21.5 50,21.5 38.125,21.5 29.8125,29.8125 21.5,38.125 21.5,50 21.5,61.875 29.8125,70.1875 38.125,78.5 50,78.5 Z"
    style="stroke-width:0.11875" 
  />
</svg>
