<?xml version="1.0" encoding="UTF-8" standalone="no"?>
<svg
   width="32"
   height="32"
   viewBox="0 0 99.999784 99.99971"
   version="1.1"
   id="svg1"
   sodipodi:docname="threeDim_shadesOffIcon.svg"
   inkscape:version="1.3.2 (091e20e, 2023-11-25, custom)"
   xmlns:inkscape="http://www.inkscape.org/namespaces/inkscape"
   xmlns:sodipodi="http://sodipodi.sourceforge.net/DTD/sodipodi-0.dtd"
   xmlns:xlink="http://www.w3.org/1999/xlink"
   xmlns="http://www.w3.org/2000/svg"
   xmlns:svg="http://www.w3.org/2000/svg">
  <defs
     id="defs1">
    <linearGradient
       id="linearGradient3"
       inkscape:collect="always">
      <stop
         style="stop-color:#2e91f5;stop-opacity:0.3982684;"
         offset="0"
         id="stop3" />
      <stop
         style="stop-color:#2e91f5;stop-opacity:0.85497838;"
         offset="0.90390879"
         id="stop4" />
    </linearGradient>
    <linearGradient
       id="linearGradient1"
       inkscape:collect="always">
      <stop
         style="stop-color:#f65e13;stop-opacity:0.84632033;"
         offset="0.0960912"
         id="stop1" />
      <stop
         style="stop-color:#f65e13;stop-opacity:0.4025974;"
         offset="1"
         id="stop2" />
    </linearGradient>
    <linearGradient
       inkscape:collect="always"
       xlink:href="#linearGradient1"
       id="linearGradient2"
       x1="0.78124803"
       y1="49.999149"
       x2="94.531009"
       y2="49.999149"
       gradientUnits="userSpaceOnUse" />
    <linearGradient
       inkscape:collect="always"
       xlink:href="#linearGradient3"
       id="linearGradient4"
       x1="5.4687362"
       y1="46.874157"
       x2="99.2185"
       y2="46.874157"
       gradientUnits="userSpaceOnUse" />
  </defs>
  <sodipodi:namedview
     id="namedview1"
     pagecolor="#ffffff"
     bordercolor="#000000"
     borderopacity="0.25"
     inkscape:showpageshadow="2"
     inkscape:pageopacity="0.0"
     inkscape:pagecheckerboard="0"
     inkscape:deskcolor="#d1d1d1"
     inkscape:document-units="mm"
     inkscape:zoom="16"
     inkscape:cx="15"
     inkscape:cy="23.59375"
     inkscape:window-width="1920"
     inkscape:window-height="1009"
     inkscape:window-x="-8"
     inkscape:window-y="-8"
     inkscape:window-maximized="1"
     inkscape:current-layer="svg1" />
  <path
     id="path3-7-5"
     style="fill:url(#linearGradient4);stroke:#2d91f5;stroke-width:1.87444;stroke-linecap:round;stroke-linejoin:round;stroke-dasharray:none;stroke-opacity:1"
     d="m 89.018389,51.993139 -6.038927,6.038927 M 88.472191,44.041078 75.563781,56.949489 M 68.740678,36.099766 62.250863,42.589583 M 77.946965,35.794726 65.266944,48.474748 M 84.942375,38.118993 69.732709,53.328659 m -54.2662,-1.240984 6.038927,6.038927 M 16.012707,44.135614 28.921118,57.044025 m 6.823102,-20.849723 6.489816,6.489816 M 26.537933,35.889262 39.217954,48.569284 M 19.542524,38.213529 34.75219,53.423195 M 52.350124,31.161516 H 41.520327 c 0,0 -6.050839,-0.942898 -9.175878,-1.048671 -3.125039,-0.105776 -11.068735,-0.196624 -16.778746,2.965119 -2.296591,1.271512 -3.764734,2.807819 -4.913029,5.162085 l -1.3999714,3.347886 c -0.9438051,1.331812 -3.2036959,0.432578 -2.7999596,2.933657 0.2647906,1.643792 1.7014719,0.925456 2.2231832,2.63741 0.4220939,1.379004 0.1809022,3.665111 1.7276898,7.073292 2.807815,6.181913 8.751172,9.514073 15.386635,9.438045 6.585651,-0.07866 12.757096,-5.243365 16.812829,-9.962381 1.339677,-1.559897 2.826171,-3.442268 3.817166,-5.243359 0.838935,-1.528437 1.663286,-2.762815 2.115694,-4.981191 0.450089,-2.207015 0.533224,-5.736349 3.811407,-5.772441 m -17.11905,-4.106046 c 1.724093,0.242167 1.725316,0.248767 3.932518,0.799612 2.207204,0.550844 6.653823,2.47487 6.551577,6.719363 -0.06555,2.663625 -2.029182,6.263194 -3.573349,8.389375 -3.969218,5.45833 -9.487864,11.105433 -16.61096,11.511794 -0.980506,0.05505 -1.441925,-0.097 -2.359511,-0.196627 -7.151936,-0.776015 -11.30206,-7.429845 -11.273222,-14.199015 0.01049,-2.553514 0.576771,-5.439986 1.979369,-7.60287 2.155018,-3.32953 6.98229,-5.240824 10.705224,-5.536415 3.722932,-0.295591 8.92426,-0.127384 10.648354,0.114783 v 0 m 17.108817,-2.438202 h 10.829798 c 0,0 6.050839,-0.942898 9.175877,-1.048673 3.125039,-0.105775 11.068736,-0.196623 16.778746,2.96512 2.296592,1.271514 3.764735,2.80782 4.913029,5.162086 l 1.399972,3.347884 c 0.943805,1.331813 3.203692,0.432581 2.799958,2.933659 -0.264795,1.643792 -1.701471,0.925455 -2.223182,2.63741 -0.422093,1.379003 -0.180902,3.66511 -1.727689,7.073291 -2.807816,6.181914 -8.751172,9.514075 -15.386635,9.438045 -6.585652,-0.07866 -12.757097,-5.243364 -16.81283,-9.962381 -1.339677,-1.559897 -2.826171,-3.442267 -3.817165,-5.243358 -0.838936,-1.528439 -1.663288,-2.762816 -2.115695,-4.981192 -0.45009,-2.207013 -0.533224,-5.736349 -3.811406,-5.772442 m 17.11905,-4.106044 c -1.724094,0.242167 -1.725316,0.248767 -3.932519,0.799611 -2.207204,0.550845 -6.653823,2.47487 -6.551576,6.719364 0.06555,2.663624 2.029182,6.263194 3.573348,8.389374 3.969218,5.458329 9.487863,11.105433 16.61096,11.511794 0.980507,0.05505 1.441925,-0.097 2.359512,-0.196626 7.151934,-0.776016 11.302059,-7.429846 11.27322,-14.199015 -0.01049,-2.553513 -0.576771,-5.439987 -1.979367,-7.60287 -2.155018,-3.329529 -6.982291,-5.240825 -10.705224,-5.536415 -3.722933,-0.295592 -8.924261,-0.127386 -10.648354,0.114783 v 0" />
  <path
     id="path3-7-5-2"
     style="fill:url(#linearGradient2);stroke:#f65e13;stroke-width:1.87444;stroke-linecap:round;stroke-linejoin:round;stroke-dasharray:none;stroke-opacity:1"
     d="m 84.330901,55.118131 -6.03893,6.038927 m 5.49273,-13.990988 -12.90841,12.908411 m -6.8231,-20.849723 -6.48982,6.489817 m 15.69611,-6.794857 -12.68003,12.680022 m 19.67544,-10.355755 -15.20967,15.209666 m -54.2662,-1.240984 6.038927,6.038927 M 11.325219,47.260606 24.23363,60.169017 m 6.823102,-20.849723 6.489816,6.489816 M 21.850445,39.014254 34.530466,51.694276 M 14.855036,41.338521 30.064702,56.548187 M 47.662641,34.286508 H 36.832839 c 0,0 -6.050839,-0.942898 -9.175878,-1.048671 -3.125039,-0.105776 -11.068735,-0.196624 -16.778746,2.965119 -2.2965912,1.271512 -3.7647342,2.807819 -4.9130292,5.162085 l -1.399971,3.347886 c -0.943805,1.331812 -3.203696,0.432578 -2.79996,2.933657 0.264791,1.643792 1.701472,0.925456 2.223184,2.63741 0.422093,1.379004 0.180902,3.665111 1.727689,7.073292 2.807815,6.181913 8.7511722,9.514073 15.3866352,9.438045 6.585651,-0.07866 12.757096,-5.243365 16.812829,-9.962381 1.339677,-1.559897 2.826171,-3.442268 3.817166,-5.243359 0.838935,-1.528437 1.663286,-2.762815 2.115694,-4.981191 0.450089,-2.207015 0.533224,-5.736349 3.811409,-5.772441 M 30.540809,36.729913 c 1.724093,0.242167 1.725316,0.248767 3.932518,0.799612 2.207204,0.550844 6.653823,2.47487 6.551577,6.719363 -0.06555,2.663625 -2.029182,6.263194 -3.573349,8.389375 -3.969218,5.45833 -9.487864,11.105433 -16.61096,11.511794 -0.980506,0.05505 -1.441925,-0.097 -2.359511,-0.196627 C 11.329148,63.177415 7.1790238,56.523585 7.2078628,49.754415 c 0.01049,-2.553514 0.57677,-5.439986 1.979368,-7.60287 2.1550182,-3.32953 6.9822902,-5.240824 10.7052242,-5.536415 3.722932,-0.295591 8.92426,-0.127384 10.648354,0.114783 v 0 m 17.108822,-2.438202 h 10.82979 c 0,0 6.05084,-0.942898 9.17588,-1.048673 3.12504,-0.105775 11.06874,-0.196623 16.77875,2.96512 2.29659,1.271514 3.76473,2.80782 4.91302,5.162086 l 1.39998,3.347884 c 0.9438,1.331813 3.20369,0.432581 2.79995,2.933659 -0.26479,1.643792 -1.70147,0.925455 -2.22318,2.63741 -0.42209,1.379003 -0.1809,3.66511 -1.72769,7.073291 -2.80781,6.181914 -8.75117,9.514075 -15.38663,9.438045 -6.58565,-0.07866 -12.7571,-5.243364 -16.81283,-9.962381 -1.33968,-1.559897 -2.82617,-3.442267 -3.81717,-5.243358 -0.83893,-1.528439 -1.66328,-2.762816 -2.11569,-4.981192 -0.45009,-2.207013 -0.53323,-5.736349 -3.81141,-5.772442 m 17.11905,-4.106044 c -1.72409,0.242167 -1.72531,0.248767 -3.93252,0.799611 -2.2072,0.550845 -6.65382,2.47487 -6.55157,6.719364 0.0656,2.663624 2.02918,6.263194 3.57335,8.389374 3.96921,5.458329 9.48786,11.105433 16.61096,11.511794 0.9805,0.05505 1.44192,-0.097 2.35951,-0.196626 7.15193,-0.776016 11.30206,-7.429846 11.27322,-14.199015 -0.0105,-2.553513 -0.57677,-5.439987 -1.97937,-7.60287 -2.15502,-3.329529 -6.98229,-5.240825 -10.70522,-5.536415 -3.72294,-0.295592 -8.92426,-0.127386 -10.64836,0.114783 v 0" />
</svg>
