<?xml version="1.0" encoding="UTF-8" standalone="no"?>
<svg
   width="32"
   height="32"
   viewBox="0 0 99.999784 99.99971"
   version="1.1"
   id="svg1"
   sodipodi:docname="threeDim_shadesIcon.svg"
   inkscape:version="1.3.2 (091e20e, 2023-11-25, custom)"
   xmlns:inkscape="http://www.inkscape.org/namespaces/inkscape"
   xmlns:sodipodi="http://sodipodi.sourceforge.net/DTD/sodipodi-0.dtd"
   xmlns:xlink="http://www.w3.org/1999/xlink"
   xmlns="http://www.w3.org/2000/svg"
   xmlns:svg="http://www.w3.org/2000/svg">
  <defs
     id="defs1">
    <linearGradient
       id="linearGradient3"
       inkscape:collect="always">
      <stop
         style="stop-color:#2e91f5;stop-opacity:0.40043291;"
         offset="0"
         id="stop4" />
      <stop
         style="stop-color:#2e91f5;stop-opacity:0.85064936;"
         offset="0.90065145"
         id="stop3" />
    </linearGradient>
    <linearGradient
       id="linearGradient1"
       inkscape:collect="always">
      <stop
         style="stop-color:#f56314;stop-opacity:0.84848487;"
         offset="0.09771987"
         id="stop1" />
      <stop
         style="stop-color:#f56314;stop-opacity:0.3982684;"
         offset="1"
         id="stop2" />
    </linearGradient>
    <linearGradient
       inkscape:collect="always"
       xlink:href="#linearGradient1"
       id="linearGradient2"
       x1="0.78124801"
       y1="49.999874"
       x2="94.531008"
       y2="49.999874"
       gradientUnits="userSpaceOnUse" />
    <linearGradient
       inkscape:collect="always"
       xlink:href="#linearGradient3"
       id="linearGradient4"
       x1="5.4687361"
       y1="46.874139"
       x2="99.218497"
       y2="46.874139"
       gradientUnits="userSpaceOnUse" />
  </defs>
  <sodipodi:namedview
     id="namedview1"
     pagecolor="#ffffff"
     bordercolor="#000000"
     borderopacity="0.25"
     inkscape:showpageshadow="2"
     inkscape:pageopacity="0.0"
     inkscape:pagecheckerboard="0"
     inkscape:deskcolor="#d1d1d1"
     inkscape:document-units="mm"
     inkscape:zoom="22.627417"
     inkscape:cx="12.772116"
     inkscape:cy="18.804621"
     inkscape:window-width="1920"
     inkscape:window-height="1009"
     inkscape:window-x="-8"
     inkscape:window-y="-8"
     inkscape:window-maximized="1"
     inkscape:current-layer="svg1" />
  <path
     id="path1-1"
     style="fill:url(#linearGradient4);stroke:#2e91f5;stroke-width:1.87438;stroke-dasharray:none;stroke-opacity:1"
     d="M 52.350122,31.161487 H 41.520318 c 0,0 -6.050842,-0.942899 -9.175884,-1.048672 -3.125041,-0.105775 -11.068742,-0.196624 -16.778756,2.965121 -2.296593,1.271514 -3.764736,2.807821 -4.913032,5.162089 l -1.3999715,3.347887 c -0.9438058,1.331812 -3.2036979,0.43258 -2.7999615,2.933659 0.2647909,1.643794 1.7014731,0.925457 2.2231847,2.637413 0.4220942,1.379004 0.1809024,3.665112 1.7276903,7.073295 2.807816,6.181917 8.751178,9.51408 15.386643,9.438051 6.585657,-0.07865 12.757104,-5.243367 16.81284,-9.962387 1.339678,-1.559898 2.826173,-3.44227 3.817169,-5.243361 0.838935,-1.528439 1.663288,-2.762818 2.115696,-4.981195 0.450089,-2.207016 0.533224,-5.736353 3.811409,-5.772446 M 35.228284,33.604894 c 1.724094,0.242166 1.725316,0.248767 3.932521,0.799612 2.207205,0.550845 6.653827,2.474871 6.55158,6.719367 -0.06555,2.663627 -2.029183,6.263198 -3.573351,8.389379 -3.96922,5.458335 -9.487869,11.105441 -16.61097,11.511803 -0.980507,0.05505 -1.441925,-0.09701 -2.359513,-0.196627 -7.15194,-0.776016 -11.302065,-7.429851 -11.273227,-14.199024 0.01049,-2.553515 0.576771,-5.43999 1.979369,-7.602875 2.155019,-3.329532 6.982294,-5.240827 10.70523,-5.536419 3.722934,-0.295591 8.924266,-0.127384 10.648361,0.114784 v 0 M 52.337112,31.16669 h 10.829804 c 0,0 6.050843,-0.942898 9.175884,-1.048674 3.125039,-0.105774 11.068742,-0.196622 16.778757,2.965122 2.296592,1.271514 3.764736,2.807823 4.913031,5.162089 l 1.399973,3.347887 c 0.943805,1.331814 3.203694,0.43258 2.799959,2.933661 -0.264794,1.643792 -1.701472,0.925455 -2.223183,2.637411 -0.422094,1.379004 -0.180902,3.665113 -1.72769,7.073295 -2.807817,6.181918 -8.751178,9.514081 -15.386644,9.438052 -6.585657,-0.07865 -12.757105,-5.243368 -16.812841,-9.962387 -1.339678,-1.559899 -2.826173,-3.44227 -3.817168,-5.243362 -0.838936,-1.52844 -1.663289,-2.762817 -2.115696,-4.981196 -0.45009,-2.207015 -0.533224,-5.736351 -3.811408,-5.772444 m 17.119061,-4.106048 c -1.724096,0.242168 -1.725317,0.248767 -3.932522,0.799612 -2.207205,0.550846 -6.653827,2.474872 -6.55158,6.719368 0.06555,2.663626 2.029183,6.263198 3.573351,8.38938 3.96922,5.458332 9.487869,11.10544 16.61097,11.5118 0.980507,0.05505 1.441926,-0.097 2.359513,-0.196626 7.151939,-0.776016 11.302066,-7.429849 11.273227,-14.199024 -0.0105,-2.553515 -0.57677,-5.43999 -1.979368,-7.602874 -2.155019,-3.329532 -6.982296,-5.240828 -10.705231,-5.536419 -3.722935,-0.295591 -8.924267,-0.127385 -10.64836,0.114783 v 0" />
  <path
     id="path1-1-7"
     style="fill:url(#linearGradient2);stroke:#f56314;stroke-width:1.87438;stroke-dasharray:none;stroke-opacity:1"
     d="M 47.662634,34.287222 H 36.83283 c 0,0 -6.050842,-0.942899 -9.175884,-1.048672 C 24.531905,33.132775 16.588204,33.041926 10.87819,36.203671 8.5815968,37.475185 7.113454,39.011492 5.965158,41.36576 l -1.399972,3.347887 c -0.943805,1.331812 -3.203698,0.43258 -2.799961,2.933659 0.264791,1.643794 1.701473,0.925457 2.223185,2.637413 0.422094,1.379004 0.180902,3.665112 1.72769,7.073295 2.8078158,6.181917 8.751178,9.51408 15.386643,9.438051 6.585657,-0.07865 12.757104,-5.243367 16.81284,-9.962387 1.339678,-1.559898 2.826173,-3.44227 3.817169,-5.243361 0.838935,-1.528439 1.663288,-2.762818 2.115696,-4.981195 0.450089,-2.207016 0.533224,-5.736353 3.811409,-5.772446 M 30.540796,36.730629 c 1.724094,0.242166 1.725316,0.248767 3.932521,0.799612 2.207205,0.550845 6.653827,2.474871 6.55158,6.719367 -0.06555,2.663627 -2.029183,6.263198 -3.573351,8.389379 -3.96922,5.458335 -9.487869,11.105441 -16.61097,11.511803 -0.980507,0.05505 -1.441925,-0.09701 -2.359513,-0.196627 -7.15194,-0.776016 -11.302066,-7.429851 -11.273227,-14.199024 0.01049,-2.553515 0.5767708,-5.43999 1.9793688,-7.602875 2.1550192,-3.329532 6.9822942,-5.240827 10.7052302,-5.536419 3.722934,-0.295591 8.924266,-0.127384 10.648361,0.114784 v 0 m 17.108828,-2.438204 h 10.829804 c 0,0 6.050843,-0.942898 9.175884,-1.048674 3.125039,-0.105774 11.068742,-0.196622 16.778761,2.965122 2.29659,1.271514 3.76473,2.807823 4.91303,5.162089 l 1.39997,3.347887 c 0.9438,1.331814 3.20369,0.43258 2.79996,2.933661 -0.2648,1.643792 -1.70147,0.925455 -2.22318,2.637411 -0.4221,1.379004 -0.18091,3.665113 -1.72769,7.073295 -2.80782,6.181918 -8.75118,9.514081 -15.386648,9.438052 C 67.623858,66.722618 61.45241,61.5579 57.396674,56.838881 56.056996,55.278982 54.570501,53.396611 53.579506,51.595519 52.74057,50.067079 51.916217,48.832702 51.46381,46.614323 51.01372,44.407308 50.930586,40.877972 47.652402,40.841879 m 17.119061,-4.106048 c -1.724096,0.242168 -1.725317,0.248767 -3.932522,0.799612 -2.207205,0.550846 -6.653827,2.474872 -6.55158,6.719368 0.06555,2.663626 2.029183,6.263198 3.573351,8.38938 3.96922,5.458332 9.487869,11.10544 16.61097,11.5118 0.980507,0.05505 1.441926,-0.097 2.359513,-0.196626 7.151938,-0.776016 11.302068,-7.429849 11.273228,-14.199024 -0.0105,-2.553515 -0.57677,-5.43999 -1.97937,-7.602874 -2.15502,-3.329532 -6.98229,-5.240828 -10.70523,-5.536419 -3.722935,-0.295591 -8.924267,-0.127385 -10.64836,0.114783 v 0" />
</svg>
