{
  "asset": {
    "generator": "Khronos glTF Blender I/O v3.6.27",
    "version": "2.0"
  },
  "extensionsUsed": ["KHR_materials_transmission"],
  "scene": 0,
  "scenes": [
    {
      "name": "Scene",
      "nodes": [3]
    }
  ],
  "nodes": [
    {
      "mesh": 0,
      "name": "Object_5"
    },
    {
      "mesh": 1,
      "name": "Object_7"
    },
    {
      "mesh": 2,
      "name": "Object_9"
    },
    {
      "children": [0, 1, 2],
      "name": "glasses3"
    }
  ],
  "materials": [
    {
      "name": "Frame.002",
      "pbrMetallicRoughness": {
        "baseColorFactor": [
          0.005572829861193895, 0.005572829861193895, 0.005572829861193895, 1
        ],
        "metallicFactor": 0,
        "roughnessFactor": 0.1541539579629898
      }
    },
    {
      "name": "Handles.001",
      "pbrMetallicRoughness": {
        "baseColorTexture": {
          "index": 0
        },
        "metallicFactor": 0,
        "metallicRoughnessTexture": {
          "index": 1
        }
      }
    },
    {
      "alphaMode": "BLEND",
      "extensions": {
        "KHR_materials_transmission": {
          "transmissionFactor": 1
        }
      },
      "name": "Frame.003",
      "pbrMetallicRoughness": {
        "baseColorFactor": [1, 1, 1, 0.25],
        "metallicFactor": 0,
        "roughnessFactor": 0.2273246943950653
      }
    }
  ],
  "meshes": [
    {
      "name": "Object_0.004",
      "primitives": [
        {
          "attributes": {
            "POSITION": 0,
            "NORMAL": 1,
            "TEXCOORD_0": 2
          },
          "indices": 3,
          "material": 0
        }
      ]
    },
    {
      "name": "Object_1.003",
      "primitives": [
        {
          "attributes": {
            "POSITION": 4,
            "NORMAL": 5,
            "TEXCOORD_0": 6
          },
          "indices": 7,
          "material": 1
        }
      ]
    },
    {
      "name": "Object_2.001",
      "primitives": [
        {
          "attributes": {
            "POSITION": 8,
            "NORMAL": 9,
            "TEXCOORD_0": 10
          },
          "indices": 11,
          "material": 2
        }
      ]
    }
  ],
  "textures": [
    {
      "sampler": 0,
      "source": 0
    },
    {
      "sampler": 0,
      "source": 1
    }
  ],
  "images": [
    {
      "mimeType": "image/jpeg",
      "name": "Handles_baseColor",
      "uri": "texs/Handles_baseColor.jpg"
    },
    {
      "mimeType": "image/png",
      "name": "Handles_metallicRoughness",
      "uri": "texs/Handles_metallicRoughness.png"
    }
  ],
  "accessors": [
    {
      "bufferView": 0,
      "componentType": 5126,
      "count": 22356,
      "max": [0.7320768237113953, 0.22078381478786469, 0.02877456322312355],
      "min": [-0.7320046424865723, -0.28149670362472534, -0.11943018436431885],
      "type": "VEC3"
    },
    {
      "bufferView": 1,
      "componentType": 5126,
      "count": 22356,
      "type": "VEC3"
    },
    {
      "bufferView": 2,
      "componentType": 5126,
      "count": 22356,
      "type": "VEC2"
    },
    {
      "bufferView": 3,
      "componentType": 5123,
      "count": 122208,
      "type": "SCALAR"
    },
    {
      "bufferView": 4,
      "componentType": 5126,
      "count": 14780,
      "max": [0.7304555177688599, 0.16818901896476746, 1.2701404094696045],
      "min": [-0.7305045127868652, -0.12488251179456711, 0.027109604328870773],
      "type": "VEC3"
    },
    {
      "bufferView": 5,
      "componentType": 5126,
      "count": 14780,
      "type": "VEC3"
    },
    {
      "bufferView": 6,
      "componentType": 5126,
      "count": 14780,
      "type": "VEC2"
    },
    {
      "bufferView": 7,
      "componentType": 5123,
      "count": 65760,
      "type": "SCALAR"
    },
    {
      "bufferView": 8,
      "componentType": 5126,
      "count": 32273,
      "max": [0.6679194569587708, 0.18907923996448517, 0.004195497836917639],
      "min": [-0.6679196357727051, -0.2469608038663864, -0.08825260400772095],
      "type": "VEC3"
    },
    {
      "bufferView": 9,
      "componentType": 5126,
      "count": 32273,
      "type": "VEC3"
    },
    {
      "bufferView": 10,
      "componentType": 5126,
      "count": 32273,
      "type": "VEC2"
    },
    {
      "bufferView": 11,
      "componentType": 5123,
      "count": 173952,
      "type": "SCALAR"
    }
  ],
  "bufferViews": [
    {
      "buffer": 0,
      "byteLength": 268272,
      "byteOffset": 0,
      "target": 34962
    },
    {
      "buffer": 0,
      "byteLength": 268272,
      "byteOffset": 268272,
      "target": 34962
    },
    {
      "buffer": 0,
      "byteLength": 178848,
      "byteOffset": 536544,
      "target": 34962
    },
    {
      "buffer": 0,
      "byteLength": 244416,
      "byteOffset": 715392,
      "target": 34963
    },
    {
      "buffer": 0,
      "byteLength": 177360,
      "byteOffset": 959808,
      "target": 34962
    },
    {
      "buffer": 0,
      "byteLength": 177360,
      "byteOffset": 1137168,
      "target": 34962
    },
    {
      "buffer": 0,
      "byteLength": 118240,
      "byteOffset": 1314528,
      "target": 34962
    },
    {
      "buffer": 0,
      "byteLength": 131520,
      "byteOffset": 1432768,
      "target": 34963
    },
    {
      "buffer": 0,
      "byteLength": 387276,
      "byteOffset": 1564288,
      "target": 34962
    },
    {
      "buffer": 0,
      "byteLength": 387276,
      "byteOffset": 1951564,
      "target": 34962
    },
    {
      "buffer": 0,
      "byteLength": 258184,
      "byteOffset": 2338840,
      "target": 34962
    },
    {
      "buffer": 0,
      "byteLength": 347904,
      "byteOffset": 2597024,
      "target": 34963
    }
  ],
  "samplers": [
    {
      "magFilter": 9729,
      "minFilter": 9987
    }
  ],
  "buffers": [
    {
      "byteLength": 2944928,
      "uri": "glasses3.bin"
    }
  ]
}
