<?xml version="1.0" encoding="UTF-8" standalone="no"?>
<svg
   width="32"
   height="32"
   viewBox="0 0 23.999996 23.999941"
   version="1.1"
   id="svg1"
   sodipodi:docname="defaultGlassesOffIcon.svg"
   inkscape:version="1.3.2 (091e20e, 2023-11-25, custom)"
   xmlns:inkscape="http://www.inkscape.org/namespaces/inkscape"
   xmlns:sodipodi="http://sodipodi.sourceforge.net/DTD/sodipodi-0.dtd"
   xmlns="http://www.w3.org/2000/svg"
   xmlns:svg="http://www.w3.org/2000/svg">
  <defs
     id="defs1" />
  <sodipodi:namedview
     id="namedview1"
     pagecolor="#ffffff"
     bordercolor="#000000"
     borderopacity="0.25"
     inkscape:showpageshadow="2"
     inkscape:pageopacity="0.0"
     inkscape:pagecheckerboard="0"
     inkscape:deskcolor="#d1d1d1"
     inkscape:document-units="in"
     inkscape:zoom="15.60309"
     inkscape:cx="15.317479"
     inkscape:cy="16.118602"
     inkscape:window-width="1920"
     inkscape:window-height="1009"
     inkscape:window-x="-8"
     inkscape:window-y="-8"
     inkscape:window-maximized="1"
     inkscape:current-layer="svg1" />
  <path
     id="Selection"
     fill="none"
     stroke="#fff"
     stroke-width="0.0578533"
     d="m 0.97510385,8.5890805 c 0,0 0.90718355,-0.10402 0.90718355,-0.10402 0,0 1.7052319,-0.1233449 1.7052319,-0.1233449 0,0 0.8526162,-0.056841 0.8526162,-0.056841 0,0 2.2168016,0 2.2168016,0 0.7122186,0.00111 2.1571191,0.2438482 2.8420539,0.4558655 0,0 1.250506,0.4984966 1.250506,0.4984966 0.259758,0.076744 1.07259,0.1290284 1.364182,0.125618 0.187011,-0.00226 0.915714,-0.069346 1.079979,-0.1159557 0,0 1.307349,-0.5081589 1.307349,-0.5081589 0.684931,-0.2120173 2.129832,-0.454729 2.842054,-0.4558655 0,0 2.159961,0 2.159961,0 0,0 0.852614,0.056841 0.852614,0.056841 0,0 1.762073,0.1233449 1.762073,0.1233449 0,0 0.907184,0.10402 0.907184,0.10402 0,0 0,0.8526158 0,0.8526158 0,0 -0.05453,0.5115699 -0.05453,0.5115699 -0.611041,0.2398688 -0.628663,0.6320738 -0.738933,1.1936628 0,0 -0.381975,1.705234 -0.381975,1.705234 -0.171117,0.572957 -0.411555,1.234019 -0.784433,1.705232 -0.807137,1.021999 -1.953623,1.150456 -3.153538,1.136815 -1.050997,-0.01253 -2.558422,-0.387087 -3.351354,-1.097032 -0.359237,-0.321717 -0.776448,-0.97937 -1.024848,-1.403973 -0.228498,-0.39163 -0.497353,-1.03962 -0.61729,-1.477866 -0.128462,-0.468938 -0.18132,-0.993581 -0.747461,-1.137958 -0.345592,-0.0881 -0.681523,0.106861 -0.861141,0.399025 -0.109707,0.177912 -0.191553,0.625251 -0.259768,0.852616 -0.121635,0.403571 -0.372876,1.000971 -0.584889,1.364183 -0.248398,0.424603 -0.6656116,1.082256 -1.0248475,1.403973 C 8.6469492,15.307123 7.1395245,15.68171 6.0885325,15.69421 4.8886128,15.707846 3.7421277,15.579394 2.9349852,14.557395 2.5621069,14.086182 2.3216696,13.42512 2.150578,12.852163 c 0,0 -0.3819721,-1.705234 -0.3819721,-1.705234 -0.1085667,-0.561589 -0.1301657,-0.95493 -0.7389335,-1.1936628 0,0 -0.0545668,-0.5115699 -0.0545668,-0.5115699 z M 4.6674994,8.9949252 C 3.9547125,9.1120185 3.2203254,9.2677621 2.7712817,9.8964244 2.4705916,10.31648 2.5069703,10.719484 2.5075386,11.20377 c 0.00175,1.123176 0.4410872,2.6522 1.3664598,3.357604 0.4916752,0.37515 1.2618714,0.557041 1.8734818,0.564429 0.9316254,0.01077 2.2401067,-0.197238 3.0125766,-0.741209 1.0498542,-0.739503 1.4920802,-2.179852 1.4778692,-3.408188 -0.0028,-0.231344 -0.0324,-0.459845 -0.10061,-0.682093 C 9.9423511,9.6633762 9.4250974,9.3382456 8.8168981,9.1660167 7.9102824,8.9102319 6.9644479,8.9869677 6.0316857,8.9949252 Z m 11.3113736,0 c -0.619567,0.1028824 -1.367592,0.2438483 -1.806976,0.7332499 -0.411529,0.4587089 -0.416647,1.0686129 -0.409824,1.6461169 0.01134,0.96403 0.488832,2.030932 1.146481,2.726095 0.646856,0.684375 2.081522,1.01462 3.002916,1.025416 0.683797,0.0082 1.386354,-0.06595 1.989438,-0.417778 0.305805,-0.178484 0.48997,-0.385384 0.701986,-0.662206 0.699145,-0.913436 0.891269,-2.003074 0.889563,-3.126255 -5.85e-4,-0.236458 0.003,-0.393908 -0.06932,-0.625251 C 21.249747,9.7406807 20.816049,9.4291917 20.298794,9.2256999 19.467778,8.8994328 18.192836,8.9869677 17.286219,8.9949252 Z"
     style="stroke:#fff;stroke-width:0.450207;stroke-dasharray:none;stroke-opacity:1" />
  <path
     style="fill:none;stroke:#fff;stroke-width:0.450207;stroke-linecap:round;stroke-linejoin:round;stroke-dasharray:none;stroke-opacity:1"
     d="m 3.7282094,10.245537 3.7073223,3.707322"
     id="path2" />
  <path
     style="fill:none;stroke:#fff;stroke-width:0.450207;stroke-linecap:round;stroke-linejoin:round;stroke-dasharray:none;stroke-opacity:1"
     d="M 5.5292178,9.8699618 8.8065219,13.147266"
     id="path2-9" />
  <path
     style="fill:none;stroke:#fff;stroke-width:0.450207;stroke-linecap:round;stroke-linejoin:round;stroke-dasharray:none;stroke-opacity:1"
     d="m 3.4750515,12.044076 2.3005417,2.300541"
     id="path2-8" />
  <path
     style="fill:none;stroke:#fff;stroke-width:0.450207;stroke-linecap:round;stroke-linejoin:round;stroke-dasharray:none;stroke-opacity:1"
     d="M 7.291742,9.7100532 9.3792528,11.797564"
     id="path2-8-5" />
  <path
     style="fill:none;stroke:#fff;stroke-width:0.450207;stroke-linecap:round;stroke-linejoin:round;stroke-dasharray:none;stroke-opacity:1"
     d="m 20.280891,10.248116 -3.707322,3.707322"
     id="path2-2" />
  <path
     style="fill:none;stroke:#fff;stroke-width:0.450207;stroke-linecap:round;stroke-linejoin:round;stroke-dasharray:none;stroke-opacity:1"
     d="M 18.479883,9.8725413 15.202578,13.149846"
     id="path2-9-7" />
  <path
     style="fill:none;stroke:#fff;stroke-width:0.450207;stroke-linecap:round;stroke-linejoin:round;stroke-dasharray:none;stroke-opacity:1"
     d="m 20.534049,12.046655 -2.300542,2.300541"
     id="path2-8-3" />
  <path
     style="fill:none;stroke:#fff;stroke-width:0.450207;stroke-linecap:round;stroke-linejoin:round;stroke-dasharray:none;stroke-opacity:1"
     d="M 16.717359,9.7126324 14.629847,11.800143"
     id="path2-8-5-9" />
</svg>
