<?xml version="1.0" encoding="UTF-8" standalone="no"?>
<svg
   width="32"
   height="32"
   viewBox="0 0 23.999996 23.999941"
   version="1.1"
   id="svg1"
   sodipodi:docname="threeDim_defaultGlassesIcon.svg"
   inkscape:version="1.3.2 (091e20e, 2023-11-25, custom)"
   xmlns:inkscape="http://www.inkscape.org/namespaces/inkscape"
   xmlns:sodipodi="http://sodipodi.sourceforge.net/DTD/sodipodi-0.dtd"
   xmlns:xlink="http://www.w3.org/1999/xlink"
   xmlns="http://www.w3.org/2000/svg"
   xmlns:svg="http://www.w3.org/2000/svg">
  <defs
     id="defs1">
    <linearGradient
       id="linearGradient4"
       inkscape:collect="always">
      <stop
         style="stop-color:#2e91f5;stop-opacity:0.40476191;"
         offset="0"
         id="stop4" />
      <stop
         style="stop-color:#2e91f5;stop-opacity:0.84632033;"
         offset="0.90065145"
         id="stop3" />
    </linearGradient>
    <linearGradient
       id="linearGradient1"
       inkscape:collect="always">
      <stop
         style="stop-color:#f66314;stop-opacity:0.84848487;"
         offset="0.09934854"
         id="stop1" />
      <stop
         style="stop-color:#f56314;stop-opacity:0.4025974;"
         offset="1"
         id="stop2" />
    </linearGradient>
    <linearGradient
       inkscape:collect="always"
       xlink:href="#linearGradient1"
       id="linearGradient2"
       x1="0.7501032"
       y1="11.999971"
       x2="23.249893"
       y2="11.999971"
       gradientUnits="userSpaceOnUse"
       gradientTransform="translate(-0.56260323)" />
    <linearGradient
       inkscape:collect="always"
       xlink:href="#linearGradient4"
       id="linearGradient3"
       gradientUnits="userSpaceOnUse"
       x1="0.7501032"
       y1="11.999971"
       x2="23.249893"
       y2="11.999971"
       gradientTransform="translate(0.56239679,-0.75015323)" />
  </defs>
  <sodipodi:namedview
     id="namedview1"
     pagecolor="#ffffff"
     bordercolor="#000000"
     borderopacity="0.25"
     inkscape:showpageshadow="2"
     inkscape:pageopacity="0.0"
     inkscape:pagecheckerboard="0"
     inkscape:deskcolor="#d1d1d1"
     inkscape:document-units="in"
     inkscape:zoom="22.066102"
     inkscape:cx="10.559183"
     inkscape:cy="20.506567"
     inkscape:window-width="1920"
     inkscape:window-height="1009"
     inkscape:window-x="-8"
     inkscape:window-y="-8"
     inkscape:window-maximized="1"
     inkscape:current-layer="svg1" />
  <path
     id="Selection-7"
     fill="none"
     stroke="#fff"
     stroke-width="0.0578533"
     d="m 1.5375001,7.8389272 c 0,0 0.9071834,-0.10402 0.9071834,-0.10402 0,0 1.705232,-0.1233449 1.705232,-0.1233449 0,0 0.8526163,-0.056841 0.8526163,-0.056841 0,0 2.216802,0 2.216802,0 0.712218,0.00111 2.157119,0.2438482 2.8420542,0.4558655 0,0 1.250505,0.4984966 1.250505,0.4984966 0.259758,0.076744 1.07259,0.1290284 1.364182,0.125618 0.187011,-0.00226 0.915714,-0.069346 1.079979,-0.1159557 0,0 1.307349,-0.5081589 1.307349,-0.5081589 0.684931,-0.2120173 2.129832,-0.454729 2.842055,-0.4558655 0,0 2.159961,0 2.159961,0 0,0 0.852614,0.056841 0.852614,0.056841 0,0 1.762073,0.1233449 1.762073,0.1233449 0,0 0.907184,0.10402 0.907184,0.10402 0,0 0,0.8526159 0,0.8526159 0,0 -0.05453,0.5115698 -0.05453,0.5115698 -0.611041,0.2398699 -0.628663,0.6320739 -0.738933,1.1936631 0,0 -0.381976,1.705234 -0.381976,1.705234 -0.171116,0.572957 -0.411555,1.234019 -0.784432,1.705232 -0.807137,1.022 -1.953623,1.150457 -3.153539,1.136815 -1.050997,-0.01253 -2.558422,-0.387087 -3.351354,-1.097032 -0.359237,-0.321717 -0.776447,-0.97937 -1.024848,-1.403973 -0.228498,-0.391629 -0.497352,-1.03962 -0.617289,-1.477866 -0.128462,-0.468938 -0.181321,-0.9935802 -0.747462,-1.1379582 -0.345592,-0.0881 -0.681522,0.106861 -0.861141,0.3990252 -0.109706,0.177912 -0.191553,0.625251 -0.259767,0.852617 -0.121636,0.40357 -0.372877,1.00097 -0.58489,1.364182 -0.248397,0.424603 -0.665611,1.082256 -1.024847,1.403973 C 9.2093408,14.55697 7.7019158,14.931558 6.6509238,14.944057 5.4510088,14.95769 4.3045239,14.829242 3.4973813,13.807242 3.124503,13.336029 2.8840657,12.674967 2.7129741,12.10201 c 0,0 -0.3819721,-1.705234 -0.3819721,-1.705234 C 2.2224353,9.8351868 2.2008363,9.4418458 1.5920685,9.2031129 c 0,0 -0.054567,-0.5115698 -0.054567,-0.5115698 z M 5.2298958,8.2447719 C 4.5171087,8.3618652 3.7827216,8.5176088 3.3336779,9.1462711 3.0329878,9.5663268 3.0693665,9.9693308 3.0699347,10.453617 c 0.00175,1.123176 0.4410872,2.6522 1.3664599,3.357605 0.4916752,0.375149 1.2618712,0.557041 1.8734822,0.564428 0.931625,0.01078 2.240106,-0.197238 3.012576,-0.741209 1.0498552,-0.739503 1.4920802,-2.179852 1.4778702,-3.408188 -0.0028,-0.2313442 -0.03239,-0.4598452 -0.10061,-0.6820932 C 10.504748,8.913223 9.9874938,8.5880923 9.3792938,8.4158634 8.4726788,8.1600787 7.5268438,8.2368144 6.5940818,8.2447719 Z m 11.3113742,0 c -0.619568,0.1028824 -1.367593,0.2438483 -1.806977,0.73325 -0.411529,0.4587089 -0.416647,1.0686131 -0.409823,1.6461171 0.01134,0.96403 0.488831,2.030932 1.146481,2.726095 0.646855,0.684375 2.081522,1.01462 3.002915,1.025416 0.683797,0.0082 1.386354,-0.06595 1.989439,-0.417778 0.305804,-0.178484 0.48997,-0.385384 0.701985,-0.662205 0.699146,-0.913437 0.891269,-2.003075 0.889563,-3.126256 -5.85e-4,-0.2364582 0.003,-0.3939082 -0.06932,-0.6252512 C 21.812144,8.9905274 21.378445,8.6790384 20.861191,8.4755466 20.030175,8.1492795 18.755232,8.2368144 17.848616,8.2447719 Z"
     style="fill:url(#linearGradient3);stroke:#2e91f5;stroke-width:0.45;stroke-dasharray:none;stroke-opacity:1" />
  <path
     id="Selection"
     fill="none"
     stroke="#fff"
     stroke-width="0.0578533"
     d="m 0.41250034,8.5890806 c 0,0 0.90718346,-0.10402 0.90718346,-0.10402 0,0 1.705232,-0.1233449 1.705232,-0.1233449 0,0 0.8526161,-0.056841 0.8526161,-0.056841 0,0 2.2168017,0 2.2168017,0 0.7122186,0.00111 2.1571192,0.2438482 2.842054,0.4558655 0,0 1.2505054,0.4984966 1.2505054,0.4984966 0.259758,0.076744 1.07259,0.1290284 1.364182,0.125618 0.187011,-0.00226 0.915714,-0.069346 1.079979,-0.1159557 0,0 1.307349,-0.5081589 1.307349,-0.5081589 0.684931,-0.2120173 2.129832,-0.454729 2.842055,-0.4558655 0,0 2.159961,0 2.159961,0 0,0 0.852614,0.056841 0.852614,0.056841 0,0 1.762073,0.1233449 1.762073,0.1233449 0,0 0.907184,0.10402 0.907184,0.10402 0,0 0,0.8526159 0,0.8526159 0,0 -0.05453,0.5115698 -0.05453,0.5115698 -0.611041,0.2398697 -0.628663,0.6320737 -0.738933,1.1936627 0,0 -0.381976,1.705234 -0.381976,1.705234 -0.171116,0.572957 -0.411555,1.234019 -0.784432,1.705232 -0.807137,1.022 -1.953623,1.150457 -3.153539,1.136815 -1.050997,-0.01253 -2.558422,-0.387087 -3.351354,-1.097032 -0.359237,-0.321717 -0.776447,-0.97937 -1.024848,-1.403973 -0.228498,-0.391629 -0.497352,-1.03962 -0.617289,-1.477866 -0.128462,-0.468938 -0.181321,-0.99358 -0.747462,-1.137958 -0.345592,-0.0881 -0.681522,0.106861 -0.861141,0.399025 -0.109706,0.177912 -0.191553,0.625251 -0.259767,0.852617 -0.121636,0.40357 -0.372877,1.00097 -0.5848902,1.364182 -0.248397,0.424603 -0.6656109,1.082256 -1.0248467,1.403973 C 8.0843408,15.307123 6.576916,15.681711 5.525924,15.69421 4.3260093,15.707843 3.1795242,15.579395 2.3723816,14.557395 1.9995033,14.086182 1.759066,13.42512 1.5879744,12.852163 c 0,0 -0.3819721,-1.705234 -0.3819721,-1.705234 -0.1085667,-0.561589 -0.1301657,-0.95493 -0.73893353,-1.1936627 0,0 -0.0545667,-0.5115698 -0.0545667,-0.5115698 z M 4.1048959,8.9949253 C 3.392109,9.1120186 2.6577219,9.2677622 2.2086782,9.8964245 1.9079881,10.31648 1.9443668,10.719484 1.944935,11.20377 c 0.00175,1.123176 0.4410872,2.6522 1.3664599,3.357605 0.4916752,0.375149 1.2618714,0.557041 1.8734818,0.564428 0.9316254,0.01078 2.2401068,-0.197238 3.0125767,-0.741209 1.0498542,-0.739503 1.4920794,-2.179852 1.4778694,-3.408188 -0.0028,-0.231344 -0.03239,-0.459845 -0.10061,-0.682093 C 9.3797477,9.6633764 8.862494,9.3382457 8.2542946,9.1660168 7.347679,8.9102321 6.4018445,8.9869678 5.4690822,8.9949253 Z m 11.3113741,0 c -0.619568,0.1028824 -1.367593,0.2438483 -1.806977,0.73325 -0.411529,0.4587087 -0.416647,1.0686127 -0.409823,1.6461167 0.01134,0.96403 0.488831,2.030932 1.146481,2.726095 0.646855,0.684375 2.081522,1.01462 3.002915,1.025416 0.683797,0.0082 1.386354,-0.06595 1.989439,-0.417778 0.305804,-0.178484 0.48997,-0.385384 0.701985,-0.662205 0.699146,-0.913437 0.891269,-2.003075 0.889563,-3.126256 -5.85e-4,-0.236458 0.003,-0.393908 -0.06932,-0.625251 C 20.687144,9.7406808 20.253445,9.4291918 19.736191,9.2257 18.905175,8.8994329 17.630232,8.9869678 16.723616,8.9949253 Z"
     style="fill:url(#linearGradient2);stroke:#f56314;stroke-width:0.45;stroke-dasharray:none;stroke-opacity:1" />
</svg>
