<svg
  xmlns="http://www.w3.org/2000/svg"
  viewBox="0 0 100 100"
  height="1"
  width="1"
>
  <g
    transform="matrix(0.13152787,0,0,0.13152787,-13.133378,113.13338)"
	>
    <path
      d="m 200,-120 q -51,0 -72.5,-45.5 Q 106,-211 138,-250 l 222,-270 v -240 h -40 q -17,0 -28.5,-11.5 Q 280,-783 280,-800 q 0,-17 11.5,-28.5 Q 303,-840 320,-840 h 320 q 17,0 28.5,11.5 11.5,11.5 11.5,28.5 0,17 -11.5,28.5 Q 657,-760 640,-760 h -40 v 240 l 222,270 q 32,39 10.5,84.5 Q 811,-120 760,-120 Z m 0,-80 H 760 L 520,-492 v -268 h -80 v 268 z m 280,-280 z"
		/>
    <path
       d="m 564.83279,-498.88426 -44.38488,120.02849 78.08077,104.68218 -77.56483,-104.71942 -65.6373,27.48534"
       style="fill:none;stroke-width:80;stroke-linecap:round;stroke-linejoin:round"
		/>
  </g>
</svg>
