<svg
  xmlns="http://www.w3.org/2000/svg"
  viewBox="0 0 100 100"
  height="1"
  width="1"
>
  <path
    d="M 12,88 Q 8.08125,88 5.290625,85.20937 2.5,82.41875 2.5,78.5 v -57 Q 2.5,17.58125 5.290625,14.79062 8.08125,12 12,12 h 24.58125 q 1.9,0 3.62188,0.7125 1.72187,0.7125 3.02812,2.01875 L 50,21.5 h 38 q 3.91875,0 6.70937,2.79062 Q 97.5,27.08125 97.5,31 v 47.5 q 0,3.91875 -2.79063,6.70937 Q 91.91875,88 88,88 Z m 0,-9.5 H 88 V 31 H 46.08125 l -9.5,-9.5 H 12 Z m 0,0 v -57 z"
    style="stroke-width:0.11875"
	/>
</svg>
