<svg
  xmlns="http://www.w3.org/2000/svg"
  viewBox="0 0 100 100"
  height="1"
  width="1"
>
  <path
    d="m 83.25,92.75 q -4.63125,0 -8.3125,-2.67187 Q 71.25625,87.40625 69.83125,83.25 H 45.25 q -7.8375,0 -13.41875,-5.58125 Q 26.25,72.0875 26.25,64.25 26.25,56.4125 31.83125,50.83125 37.4125,45.25 45.25,45.25 h 9.5 q 3.91875,0 6.70937,-2.79063 Q 64.25,39.66875 64.25,35.75 64.25,31.83125 61.45937,29.04062 58.66875,26.25 54.75,26.25 H 30.16875 Q 28.625,30.40625 25.00312,33.07813 21.38125,35.75 16.75,35.75 10.8125,35.75 6.65625,31.59375 2.5,27.4375 2.5,21.5 2.5,15.5625 6.65625,11.40625 10.8125,7.25 16.75,7.25 q 4.63125,0 8.25312,2.67188 3.62188,2.67187 5.16563,6.82812 H 54.75 q 7.8375,0 13.41875,5.58125 Q 73.75,27.9125 73.75,35.75 q 0,7.8375 -5.58125,13.41875 Q 62.5875,54.75 54.75,54.75 h -9.5 q -3.91875,0 -6.70937,2.79062 Q 35.75,60.33125 35.75,64.25 q 0,3.91875 2.79063,6.70938 Q 41.33125,73.75 45.25,73.75 H 69.83125 Q 71.375,69.59375 74.99687,66.92188 78.61875,64.25 83.25,64.25 q 5.9375,0 10.09375,4.15625 Q 97.5,72.5625 97.5,78.5 97.5,84.4375 93.34375,88.59375 89.1875,92.75 83.25,92.75 Z m -66.5,-66.5 q 2.01875,0 3.384375,-1.36563 Q 21.5,23.51875 21.5,21.5 21.5,19.48125 20.134375,18.11562 18.76875,16.75 16.75,16.75 q -2.01875,0 -3.384375,1.36562 Q 12,19.48125 12,21.5 12,23.51875 13.365625,24.88437 14.73125,26.25 16.75,26.25 Z"
    style="stroke-width:0.11875" 
	/>
</svg>
