<svg
  xmlns="http://www.w3.org/2000/svg"
  viewBox="0 0 100 100"
  height="1"
  width="1"
>
  <g
    transform="matrix(0.11875,0,0,0.11875,-7,107)"
	>
    <path
      d="m 160,-80 c -22,0 -40.83333,-7.833333 -56.5,-23.5 C 87.833333,-119.16667 80,-138 80,-160 v -480 c 0,-22 7.833333,-40.83333 23.5,-56.5 15.66667,-15.66667 34.5,-23.5 56.5,-23.5 h 80 v -80 c 0,-22 7.83333,-40.83333 23.5,-56.5 15.66667,-15.66667 34.5,-23.5 56.5,-23.5 h 480 c 22,0 40.83333,7.83333 56.5,23.5 15.66667,15.66667 23.5,34.5 23.5,56.5 v 480 c 0,22 -7.83333,40.83333 -23.5,56.5 -15.66667,15.66667 -34.5,23.5 -56.5,23.5 h -80 v 80 c 0,22 -7.83333,40.83333 -23.5,56.5 C 680.83333,-87.833333 662,-80 640,-80 Z M 320,-320 H 800 V -800 H 320 Z"
		/>
    <path
      d="m 439.96787,-560.01447 h 240 M 560,-680 v 240" 
      style="stroke-width:80;stroke-linecap:round;stroke-linejoin:round"
		/>
  </g>
</svg>
