<svg
  xmlns="http://www.w3.org/2000/svg"
  viewBox="0 0 100 100"
  height="1"
  width="1"
>
  <path
    d="m 7.2461675,84.554799 c 0,0 3.4027565,-0.69056 6.9424025,-2.63003 3.304195,-1.81046 7.352605,-3.65017 11.669662,-3.63444 3.70973,0.0135 6.845601,1.09393 10.26856,2.49652 3.68459,1.50979 7.07235,4.31262 13.2818,4.31262 3.377431,0 5.8979,-0.17378 10.98969,-2.56263 5.25421,-2.46506 8.41813,-4.31824 13.46778,-4.17638 4.13555,0.11617 7.908061,1.31244 12.436261,3.7422 4.304409,2.30967 6.45106,2.48671 6.45106,2.48671 M 7.2461675,63.606209 c 0,0 3.4027575,-0.69057 6.9424035,-2.63003 3.304195,-1.81046 7.352605,-3.65017 11.669662,-3.63445 3.70973,0.0135 6.8456,1.09393 10.26856,2.49652 3.68459,1.5098 7.07235,4.31263 13.2818,4.31263 3.37743,0 5.8979,-0.17378 10.98969,-2.56264 5.25421,-2.46505 8.41813,-4.31824 13.46778,-4.17638 4.13555,0.11618 7.90806,1.31244 12.43626,3.7422 4.30441,2.30968 6.45106,2.48672 6.45106,2.48672 M 7.2466205,42.412589 c 0,0 3.4027575,-0.69057 6.9424035,-2.63004 3.304195,-1.81045 7.352605,-3.65017 11.669659,-3.63444 3.70974,0.0135 6.8456,1.09393 10.26857,2.49652 3.68459,1.5098 7.07235,4.31263 13.28179,4.31263 3.37743,0 5.8979,-0.17379 10.9897,-2.56264 5.2542,-2.46505 8.41813,-4.31824 13.46778,-4.17638 4.13555,0.11618 7.90805,1.31244 12.43626,3.7422 4.3044,2.30967 6.45105,2.48671 6.45105,2.48671 M 7.2461675,21.165119 c 0,0 3.4027575,-0.69057 6.9424035,-2.63004 3.304195,-1.81046 7.352605,-3.65017 11.669662,-3.63444 3.70973,0.0135 6.8456,1.09393 10.26856,2.49652 3.68459,1.50979 7.07235,4.31262 13.2818,4.31262 3.37743,0 5.8979,-0.17378 10.98969,-2.56263 5.25421,-2.46505 8.41813,-4.31824 13.46778,-4.17638 4.13555,0.11617 7.90806,1.31244 12.43626,3.7422 4.30441,2.30967 6.45106,2.48671 6.45106,2.48671" 
    style="fill:none;stroke-width:9.49233;stroke-linecap:round;stroke-linejoin:round"
	/>
</svg>
