{
	"asset":{
		"generator":"Khronos glTF Blender I/O v3.6.27",
		"version":"2.0"
	},
	"scene":0,
	"scenes":[
		{
			"name":"Scene",
			"nodes":[
				2
			]
		}
	],
	"nodes":[
		{
			"mesh":0,
			"name":"hair"
		},
		{
			"mesh":1,
			"name":"body"
		},
		{
			"children":[
				0,
				1
			],
			"name":"buddyHamster"
		}
	],
	"materials":[
		{
			"doubleSided":true,
			"name":"base",
			"normalTexture":{
				"index":0
			},
			"pbrMetallicRoughness":{
				"baseColorFactor":[
					0.32488566637039185,
					0.32488566637039185,
					0.32488566637039185,
					1
				],
				"baseColorTexture":{
					"index":1
				},
				"metallicRoughnessTexture":{
					"index":2
				}
			}
		},
		{
			"doubleSided":true,
			"name":"buddy.001",
			"normalTexture":{
				"index":3
			},
			"occlusionTexture":{
				"index":4
			},
			"pbrMetallicRoughness":{
				"baseColorTexture":{
					"index":5
				},
				"metallicRoughnessTexture":{
					"index":4
				}
			}
		}
	],
	"meshes":[
		{
			"name":"Plane_base_0.012",
			"primitives":[
				{
					"attributes":{
						"POSITION":0,
						"NORMAL":1,
						"TEXCOORD_0":2
					},
					"indices":3,
					"material":0
				}
			]
		},
		{
			"name":"tooth_low_buddy_0",
			"primitives":[
				{
					"attributes":{
						"POSITION":4,
						"NORMAL":5,
						"TEXCOORD_0":6
					},
					"indices":7,
					"material":1
				}
			]
		}
	],
	"textures":[
		{
			"sampler":0,
			"source":0
		},
		{
			"sampler":0,
			"source":1
		},
		{
			"sampler":0,
			"source":2
		},
		{
			"sampler":0,
			"source":3
		},
		{
			"sampler":0,
			"source":4
		},
		{
			"sampler":0,
			"source":5
		}
	],
	"images":[
		{
			"mimeType":"image/png",
			"name":"base_normal",
			"uri":"texs2/base_normal.png"
		},
		{
			"mimeType":"image/png",
			"name":"base_baseColor",
			"uri":"texs2/base_baseColor.png"
		},
		{
			"mimeType":"image/png",
			"name":"base_metallicRoughness",
			"uri":"texs2/base_metallicRoughness.png"
		},
		{
			"mimeType":"image/png",
			"name":"buddy_normal",
			"uri":"texs2/buddy_normal.png"
		},
		{
			"mimeType":"image/png",
			"name":"buddy_metallicRoughness",
			"uri":"texs2/buddy_metallicRoughness.png"
		},
		{
			"mimeType":"image/png",
			"name":"buddy_baseColor",
			"uri":"texs2/buddy_baseColor.png"
		}
	],
	"accessors":[
		{
			"bufferView":0,
			"componentType":5126,
			"count":1800,
			"max":[
				0.16478681564331055,
				0.9518159031867981,
				0.6214731931686401
			],
			"min":[
				-0.40759801864624023,
				0.6347152590751648,
				0.19958685338497162
			],
			"type":"VEC3"
		},
		{
			"bufferView":1,
			"componentType":5126,
			"count":1800,
			"type":"VEC3"
		},
		{
			"bufferView":2,
			"componentType":5126,
			"count":1800,
			"type":"VEC2"
		},
		{
			"bufferView":3,
			"componentType":5123,
			"count":7920,
			"type":"SCALAR"
		},
		{
			"bufferView":4,
			"componentType":5126,
			"count":10429,
			"max":[
				0.36787429451942444,
				0.8925901055335999,
				0.5203814506530762
			],
			"min":[
				-0.5919783115386963,
				-0.45102187991142273,
				-0.5352897047996521
			],
			"type":"VEC3"
		},
		{
			"bufferView":5,
			"componentType":5126,
			"count":10429,
			"type":"VEC3"
		},
		{
			"bufferView":6,
			"componentType":5126,
			"count":10429,
			"type":"VEC2"
		},
		{
			"bufferView":7,
			"componentType":5123,
			"count":57516,
			"type":"SCALAR"
		}
	],
	"bufferViews":[
		{
			"buffer":0,
			"byteLength":21600,
			"byteOffset":0,
			"target":34962
		},
		{
			"buffer":0,
			"byteLength":21600,
			"byteOffset":21600,
			"target":34962
		},
		{
			"buffer":0,
			"byteLength":14400,
			"byteOffset":43200,
			"target":34962
		},
		{
			"buffer":0,
			"byteLength":15840,
			"byteOffset":57600,
			"target":34963
		},
		{
			"buffer":0,
			"byteLength":125148,
			"byteOffset":73440,
			"target":34962
		},
		{
			"buffer":0,
			"byteLength":125148,
			"byteOffset":198588,
			"target":34962
		},
		{
			"buffer":0,
			"byteLength":83432,
			"byteOffset":323736,
			"target":34962
		},
		{
			"buffer":0,
			"byteLength":115032,
			"byteOffset":407168,
			"target":34963
		}
	],
	"samplers":[
		{
			"magFilter":9729,
			"minFilter":9987
		}
	],
	"buffers":[
		{
			"byteLength":522200,
			"uri":"buddyHamster.bin"
		}
	]
}
