{
	"asset":{
		"generator":"Khronos glTF Blender I/O v3.6.27",
		"version":"2.0"
	},
	"extensionsUsed":[
		"KHR_materials_transmission"
	],
	"scene":0,
	"scenes":[
		{
			"name":"Scene",
			"nodes":[
				12
			]
		}
	],
	"nodes":[
		{
			"mesh":0,
			"name":"Object_166"
		},
		{
			"mesh":1,
			"name":"Object_167"
		},
		{
			"mesh":2,
			"name":"Object_169"
		},
		{
			"mesh":3,
			"name":"Object_171"
		},
		{
			"mesh":4,
			"name":"Object_173"
		},
		{
			"mesh":5,
			"name":"Object_175"
		},
		{
			"mesh":6,
			"name":"Object_177"
		},
		{
			"mesh":7,
			"name":"Object_179"
		},
		{
			"mesh":8,
			"name":"Object_181"
		},
		{
			"mesh":9,
			"name":"Object_183"
		},
		{
			"mesh":10,
			"name":"Object_185"
		},
		{
			"mesh":11,
			"name":"Object_187"
		},
		{
			"children":[
				0,
				1,
				2,
				3,
				4,
				5,
				6,
				7,
				8,
				9,
				10,
				11
			],
			"name":"VRGlasses"
		}
	],
	"materials":[
		{
			"doubleSided":true,
			"name":"Material.015",
			"pbrMetallicRoughness":{
				"baseColorFactor":[
					0.07323569804430008,
					0.07323569804430008,
					0.07323569804430008,
					1
				],
				"metallicFactor":0,
				"roughnessFactor":0.699999988079071
			}
		},
		{
			"doubleSided":true,
			"name":"Material.016",
			"pbrMetallicRoughness":{
				"baseColorFactor":[
					0.09577669948339462,
					0.09577669948339462,
					0.09577669948339462,
					1
				],
				"metallicFactor":0,
				"roughnessFactor":0.800000011920929
			}
		},
		{
			"alphaMode":"BLEND",
			"doubleSided":true,
			"extensions":{
				"KHR_materials_transmission":{
					"transmissionFactor":0.9738318920135498
				}
			},
			"name":"Material.005",
			"pbrMetallicRoughness":{
				"baseColorFactor":[
					1,
					1,
					1,
					0.25
				]
			}
		},
		{
			"doubleSided":true,
			"name":"material_0.003",
			"pbrMetallicRoughness":{
				"metallicFactor":0,
				"roughnessFactor":0.6000000238418579
			}
		},
		{
			"doubleSided":true,
			"name":"Material.012",
			"pbrMetallicRoughness":{
				"baseColorFactor":[
					0.0310635007917881,
					0.0310635007917881,
					0.0310635007917881,
					1
				],
				"metallicFactor":0,
				"roughnessFactor":0.7583330273628235
			}
		}
	],
	"meshes":[
		{
			"name":"Object_99.001",
			"primitives":[
				{
					"attributes":{
						"POSITION":0,
						"NORMAL":1,
						"TEXCOORD_0":2
					},
					"indices":3,
					"material":0
				}
			]
		},
		{
			"name":"Object_100",
			"primitives":[
				{
					"attributes":{
						"POSITION":4,
						"NORMAL":5,
						"TEXCOORD_0":6
					},
					"indices":7,
					"material":1
				}
			]
		},
		{
			"name":"Object_101",
			"primitives":[
				{
					"attributes":{
						"POSITION":8,
						"NORMAL":9,
						"TEXCOORD_0":10
					},
					"indices":11,
					"material":2
				}
			]
		},
		{
			"name":"Object_102",
			"primitives":[
				{
					"attributes":{
						"POSITION":12,
						"NORMAL":13,
						"TEXCOORD_0":14
					},
					"indices":15,
					"material":1
				}
			]
		},
		{
			"name":"Object_103.001",
			"primitives":[
				{
					"attributes":{
						"POSITION":16,
						"NORMAL":17,
						"TEXCOORD_0":18
					},
					"indices":19,
					"material":3
				}
			]
		},
		{
			"name":"Object_104",
			"primitives":[
				{
					"attributes":{
						"POSITION":20,
						"NORMAL":21
					},
					"indices":22,
					"material":1
				}
			]
		},
		{
			"name":"Object_105",
			"primitives":[
				{
					"attributes":{
						"POSITION":23,
						"NORMAL":24
					},
					"indices":25,
					"material":1
				}
			]
		},
		{
			"name":"Object_106",
			"primitives":[
				{
					"attributes":{
						"POSITION":26,
						"NORMAL":27,
						"TEXCOORD_0":28
					},
					"indices":29,
					"material":4
				}
			]
		},
		{
			"name":"Object_107",
			"primitives":[
				{
					"attributes":{
						"POSITION":30,
						"NORMAL":31,
						"TEXCOORD_0":32
					},
					"indices":33,
					"material":4
				}
			]
		},
		{
			"name":"Object_108",
			"primitives":[
				{
					"attributes":{
						"POSITION":34,
						"NORMAL":35,
						"TEXCOORD_0":36
					},
					"indices":37,
					"material":4
				}
			]
		},
		{
			"name":"Object_109",
			"primitives":[
				{
					"attributes":{
						"POSITION":38,
						"NORMAL":39,
						"TEXCOORD_0":40
					},
					"indices":41,
					"material":4
				}
			]
		},
		{
			"name":"Object_110",
			"primitives":[
				{
					"attributes":{
						"POSITION":42,
						"NORMAL":43
					},
					"indices":44,
					"material":1
				}
			]
		}
	],
	"accessors":[
		{
			"bufferView":0,
			"componentType":5126,
			"count":384,
			"max":[
				0.6961869597434998,
				0.3640964925289154,
				0.7869837284088135
			],
			"min":[
				-0.6961869597434998,
				-0.3404662311077118,
				-0.1183418482542038
			],
			"type":"VEC3"
		},
		{
			"bufferView":1,
			"componentType":5126,
			"count":384,
			"type":"VEC3"
		},
		{
			"bufferView":2,
			"componentType":5126,
			"count":384,
			"type":"VEC2"
		},
		{
			"bufferView":3,
			"componentType":5123,
			"count":1320,
			"type":"SCALAR"
		},
		{
			"bufferView":4,
			"componentType":5126,
			"count":176,
			"max":[
				0.6700817346572876,
				0.39767226576805115,
				0.8952764272689819
			],
			"min":[
				-0.6700814962387085,
				-0.37127023935317993,
				0.034041400998830795
			],
			"type":"VEC3"
		},
		{
			"bufferView":5,
			"componentType":5126,
			"count":176,
			"type":"VEC3"
		},
		{
			"bufferView":6,
			"componentType":5126,
			"count":176,
			"type":"VEC2"
		},
		{
			"bufferView":7,
			"componentType":5123,
			"count":528,
			"type":"SCALAR"
		},
		{
			"bufferView":8,
			"componentType":5126,
			"count":112,
			"max":[
				0.5443999171257019,
				0.2253192663192749,
				0.16965192556381226
			],
			"min":[
				-0.5443999171257019,
				-0.22744154930114746,
				0.13870982825756073
			],
			"type":"VEC3"
		},
		{
			"bufferView":9,
			"componentType":5126,
			"count":112,
			"type":"VEC3"
		},
		{
			"bufferView":10,
			"componentType":5126,
			"count":112,
			"type":"VEC2"
		},
		{
			"bufferView":11,
			"componentType":5123,
			"count":360,
			"type":"SCALAR"
		},
		{
			"bufferView":12,
			"componentType":5126,
			"count":136,
			"max":[
				0.7376716732978821,
				0.20103126764297485,
				0.8041266798973083
			],
			"min":[
				-0.7376715540885925,
				-0.014457502402365208,
				0.10189684480428696
			],
			"type":"VEC3"
		},
		{
			"bufferView":13,
			"componentType":5126,
			"count":136,
			"type":"VEC3"
		},
		{
			"bufferView":14,
			"componentType":5126,
			"count":136,
			"type":"VEC2"
		},
		{
			"bufferView":15,
			"componentType":5123,
			"count":360,
			"type":"SCALAR"
		},
		{
			"bufferView":16,
			"componentType":5126,
			"count":32,
			"max":[
				0.6709449887275696,
				0.1682717651128769,
				0.41193538904190063
			],
			"min":[
				-0.67094486951828,
				0.018301986157894135,
				0.26196545362472534
			],
			"type":"VEC3"
		},
		{
			"bufferView":17,
			"componentType":5126,
			"count":32,
			"type":"VEC3"
		},
		{
			"bufferView":18,
			"componentType":5126,
			"count":32,
			"type":"VEC2"
		},
		{
			"bufferView":19,
			"componentType":5123,
			"count":96,
			"type":"SCALAR"
		},
		{
			"bufferView":20,
			"componentType":5126,
			"count":384,
			"max":[
				0.718438982963562,
				0.3895803689956665,
				2.079057455062866
			],
			"min":[
				-0.7184386253356934,
				-0.41557273268699646,
				0.8041264414787292
			],
			"type":"VEC3"
		},
		{
			"bufferView":21,
			"componentType":5126,
			"count":384,
			"type":"VEC3"
		},
		{
			"bufferView":22,
			"componentType":5123,
			"count":1872,
			"type":"SCALAR"
		},
		{
			"bufferView":23,
			"componentType":5126,
			"count":172,
			"max":[
				0.09849792718887329,
				0.878623366355896,
				2.053083658218384
			],
			"min":[
				-0.09790313243865967,
				0.2920035123825073,
				0.3273653984069824
			],
			"type":"VEC3"
		},
		{
			"bufferView":24,
			"componentType":5126,
			"count":172,
			"type":"VEC3"
		},
		{
			"bufferView":25,
			"componentType":5123,
			"count":456,
			"type":"SCALAR"
		},
		{
			"bufferView":26,
			"componentType":5126,
			"count":168,
			"max":[
				0.8412287831306458,
				0.2301696240901947,
				1.3995705842971802
			],
			"min":[
				-0.8412284255027771,
				-0.3448820412158966,
				0.9792152643203735
			],
			"type":"VEC3"
		},
		{
			"bufferView":27,
			"componentType":5126,
			"count":168,
			"type":"VEC3"
		},
		{
			"bufferView":28,
			"componentType":5126,
			"count":168,
			"type":"VEC2"
		},
		{
			"bufferView":29,
			"componentType":5123,
			"count":408,
			"type":"SCALAR"
		},
		{
			"bufferView":30,
			"componentType":5126,
			"count":388,
			"max":[
				0.7665674686431885,
				-0.0493646077811718,
				1.5441443920135498
			],
			"min":[
				-0.7665669918060303,
				-0.46598729491233826,
				1.1249873638153076
			],
			"type":"VEC3"
		},
		{
			"bufferView":31,
			"componentType":5126,
			"count":388,
			"type":"VEC3"
		},
		{
			"bufferView":32,
			"componentType":5126,
			"count":388,
			"type":"VEC2"
		},
		{
			"bufferView":33,
			"componentType":5123,
			"count":1920,
			"type":"SCALAR"
		},
		{
			"bufferView":34,
			"componentType":5126,
			"count":112,
			"max":[
				0.7656741142272949,
				0.16351865231990814,
				1.1950191259384155
			],
			"min":[
				-0.7656737565994263,
				0.020973408594727516,
				1.052473783493042
			],
			"type":"VEC3"
		},
		{
			"bufferView":35,
			"componentType":5126,
			"count":112,
			"type":"VEC3"
		},
		{
			"bufferView":36,
			"componentType":5126,
			"count":112,
			"type":"VEC2"
		},
		{
			"bufferView":37,
			"componentType":5123,
			"count":384,
			"type":"SCALAR"
		},
		{
			"bufferView":38,
			"componentType":5126,
			"count":88,
			"max":[
				0.05123792216181755,
				0.11014054715633392,
				0.0585378035902977
			],
			"min":[
				-0.022922514006495476,
				-0.1052527204155922,
				-0.08681526780128479
			],
			"type":"VEC3"
		},
		{
			"bufferView":39,
			"componentType":5126,
			"count":88,
			"type":"VEC3"
		},
		{
			"bufferView":40,
			"componentType":5126,
			"count":88,
			"type":"VEC2"
		},
		{
			"bufferView":41,
			"componentType":5123,
			"count":240,
			"type":"SCALAR"
		},
		{
			"bufferView":42,
			"componentType":5126,
			"count":112,
			"max":[
				0.7626031637191772,
				0.3198933005332947,
				2.0309853553771973
			],
			"min":[
				0.42911291122436523,
				-0.6947042346000671,
				0.5222694873809814
			],
			"type":"VEC3"
		},
		{
			"bufferView":43,
			"componentType":5126,
			"count":112,
			"type":"VEC3"
		},
		{
			"bufferView":44,
			"componentType":5123,
			"count":624,
			"type":"SCALAR"
		}
	],
	"bufferViews":[
		{
			"buffer":0,
			"byteLength":4608,
			"byteOffset":0,
			"target":34962
		},
		{
			"buffer":0,
			"byteLength":4608,
			"byteOffset":4608,
			"target":34962
		},
		{
			"buffer":0,
			"byteLength":3072,
			"byteOffset":9216,
			"target":34962
		},
		{
			"buffer":0,
			"byteLength":2640,
			"byteOffset":12288,
			"target":34963
		},
		{
			"buffer":0,
			"byteLength":2112,
			"byteOffset":14928,
			"target":34962
		},
		{
			"buffer":0,
			"byteLength":2112,
			"byteOffset":17040,
			"target":34962
		},
		{
			"buffer":0,
			"byteLength":1408,
			"byteOffset":19152,
			"target":34962
		},
		{
			"buffer":0,
			"byteLength":1056,
			"byteOffset":20560,
			"target":34963
		},
		{
			"buffer":0,
			"byteLength":1344,
			"byteOffset":21616,
			"target":34962
		},
		{
			"buffer":0,
			"byteLength":1344,
			"byteOffset":22960,
			"target":34962
		},
		{
			"buffer":0,
			"byteLength":896,
			"byteOffset":24304,
			"target":34962
		},
		{
			"buffer":0,
			"byteLength":720,
			"byteOffset":25200,
			"target":34963
		},
		{
			"buffer":0,
			"byteLength":1632,
			"byteOffset":25920,
			"target":34962
		},
		{
			"buffer":0,
			"byteLength":1632,
			"byteOffset":27552,
			"target":34962
		},
		{
			"buffer":0,
			"byteLength":1088,
			"byteOffset":29184,
			"target":34962
		},
		{
			"buffer":0,
			"byteLength":720,
			"byteOffset":30272,
			"target":34963
		},
		{
			"buffer":0,
			"byteLength":384,
			"byteOffset":30992,
			"target":34962
		},
		{
			"buffer":0,
			"byteLength":384,
			"byteOffset":31376,
			"target":34962
		},
		{
			"buffer":0,
			"byteLength":256,
			"byteOffset":31760,
			"target":34962
		},
		{
			"buffer":0,
			"byteLength":192,
			"byteOffset":32016,
			"target":34963
		},
		{
			"buffer":0,
			"byteLength":4608,
			"byteOffset":32208,
			"target":34962
		},
		{
			"buffer":0,
			"byteLength":4608,
			"byteOffset":36816,
			"target":34962
		},
		{
			"buffer":0,
			"byteLength":3744,
			"byteOffset":41424,
			"target":34963
		},
		{
			"buffer":0,
			"byteLength":2064,
			"byteOffset":45168,
			"target":34962
		},
		{
			"buffer":0,
			"byteLength":2064,
			"byteOffset":47232,
			"target":34962
		},
		{
			"buffer":0,
			"byteLength":912,
			"byteOffset":49296,
			"target":34963
		},
		{
			"buffer":0,
			"byteLength":2016,
			"byteOffset":50208,
			"target":34962
		},
		{
			"buffer":0,
			"byteLength":2016,
			"byteOffset":52224,
			"target":34962
		},
		{
			"buffer":0,
			"byteLength":1344,
			"byteOffset":54240,
			"target":34962
		},
		{
			"buffer":0,
			"byteLength":816,
			"byteOffset":55584,
			"target":34963
		},
		{
			"buffer":0,
			"byteLength":4656,
			"byteOffset":56400,
			"target":34962
		},
		{
			"buffer":0,
			"byteLength":4656,
			"byteOffset":61056,
			"target":34962
		},
		{
			"buffer":0,
			"byteLength":3104,
			"byteOffset":65712,
			"target":34962
		},
		{
			"buffer":0,
			"byteLength":3840,
			"byteOffset":68816,
			"target":34963
		},
		{
			"buffer":0,
			"byteLength":1344,
			"byteOffset":72656,
			"target":34962
		},
		{
			"buffer":0,
			"byteLength":1344,
			"byteOffset":74000,
			"target":34962
		},
		{
			"buffer":0,
			"byteLength":896,
			"byteOffset":75344,
			"target":34962
		},
		{
			"buffer":0,
			"byteLength":768,
			"byteOffset":76240,
			"target":34963
		},
		{
			"buffer":0,
			"byteLength":1056,
			"byteOffset":77008,
			"target":34962
		},
		{
			"buffer":0,
			"byteLength":1056,
			"byteOffset":78064,
			"target":34962
		},
		{
			"buffer":0,
			"byteLength":704,
			"byteOffset":79120,
			"target":34962
		},
		{
			"buffer":0,
			"byteLength":480,
			"byteOffset":79824,
			"target":34963
		},
		{
			"buffer":0,
			"byteLength":1344,
			"byteOffset":80304,
			"target":34962
		},
		{
			"buffer":0,
			"byteLength":1344,
			"byteOffset":81648,
			"target":34962
		},
		{
			"buffer":0,
			"byteLength":1248,
			"byteOffset":82992,
			"target":34963
		}
	],
	"buffers":[
		{
			"byteLength":84240,
			"uri":"VRGlasses.bin"
		}
	]
}
