{
	"asset":{
		"generator":"Khronos glTF Blender I/O v3.6.27",
		"version":"2.0"
	},
	"scene":0,
	"scenes":[
		{
			"name":"Scene",
			"nodes":[
				0
			]
		}
	],
	"nodes":[
		{
			"mesh":0,
			"name":"mustache3"
		}
	],
	"materials":[
		{
			"doubleSided":true,
			"name":"Hair Material",
			"pbrMetallicRoughness":{
				"baseColorFactor":[
					0.05043777823448181,
					0.029989147558808327,
					0.026103125885128975,
					1
				],
				"metallicFactor":0,
				"roughnessFactor":0.5
			}
		}
	],
	"meshes":[
		{
			"name":"BezierCurve.011",
			"primitives":[
				{
					"attributes":{
						"POSITION":0,
						"NORMAL":1,
						"TEXCOORD_0":2
					},
					"indices":3,
					"material":0
				}
			]
		}
	],
	"accessors":[
		{
			"bufferView":0,
			"componentType":5126,
			"count":2115,
			"max":[
				2.391942024230957,
				0.4936005175113678,
				0.5726993083953857
			],
			"min":[
				-2.390994071960449,
				-0.823529839515686,
				-0.6715463995933533
			],
			"type":"VEC3"
		},
		{
			"bufferView":1,
			"componentType":5126,
			"count":2115,
			"type":"VEC3"
		},
		{
			"bufferView":2,
			"componentType":5126,
			"count":2115,
			"type":"VEC2"
		},
		{
			"bufferView":3,
			"componentType":5123,
			"count":9816,
			"type":"SCALAR"
		}
	],
	"bufferViews":[
		{
			"buffer":0,
			"byteLength":25380,
			"byteOffset":0,
			"target":34962
		},
		{
			"buffer":0,
			"byteLength":25380,
			"byteOffset":25380,
			"target":34962
		},
		{
			"buffer":0,
			"byteLength":16920,
			"byteOffset":50760,
			"target":34962
		},
		{
			"buffer":0,
			"byteLength":19632,
			"byteOffset":67680,
			"target":34963
		}
	],
	"buffers":[
		{
			"byteLength":87312,
			"uri":"mustache3.bin"
		}
	]
}
