{
  "asset": {
    "generator": "Khronos glTF Blender I/O v3.6.27",
    "version": "2.0"
  },
  "scene": 0,
  "scenes": [
    {
      "name": "Scene",
      "nodes": [0]
    }
  ],
  "nodes": [
    {
      "mesh": 0,
      "name": "demonMask"
    }
  ],
  "materials": [
    {
      "doubleSided": true,
      "name": "lambert2.001",
      "normalTexture": {
        "index": 0
      },
      "pbrMetallicRoughness": {
        "baseColorTexture": {
          "index": 1
        },
        "metallicRoughnessTexture": {
          "index": 2
        }
      }
    }
  ],
  "meshes": [
    {
      "name": "polySurface3_lambert2_0",
      "primitives": [
        {
          "attributes": {
            "POSITION": 0,
            "NORMAL": 1,
            "TEXCOORD_0": 2
          },
          "indices": 3,
          "material": 0
        }
      ]
    }
  ],
  "textures": [
    {
      "sampler": 0,
      "source": 0
    },
    {
      "sampler": 0,
      "source": 1
    },
    {
      "sampler": 0,
      "source": 2
    }
  ],
  "images": [
    {
      "mimeType": "image/png",
      "name": "lambert2_normal",
      "uri": "texs/lambert2_normal.png"
    },
    {
      "mimeType": "image/png",
      "name": "lambert2_baseColor",
      "uri": "texs/lambert2_baseColor.png"
    },
    {
      "mimeType": "image/png",
      "name": "lambert2_metallicRoughness",
      "uri": "texs/lambert2_metallicRoughness.png"
    }
  ],
  "accessors": [
    {
      "bufferView": 0,
      "componentType": 5126,
      "count": 2801,
      "max": [0.509860634803772, 0.6451040506362915, 0.43394675850868225],
      "min": [-0.5098602771759033, -0.6759104132652283, -0.2596881687641144],
      "type": "VEC3"
    },
    {
      "bufferView": 1,
      "componentType": 5126,
      "count": 2801,
      "type": "VEC3"
    },
    {
      "bufferView": 2,
      "componentType": 5126,
      "count": 2801,
      "type": "VEC2"
    },
    {
      "bufferView": 3,
      "componentType": 5123,
      "count": 12246,
      "type": "SCALAR"
    }
  ],
  "bufferViews": [
    {
      "buffer": 0,
      "byteLength": 33612,
      "byteOffset": 0,
      "target": 34962
    },
    {
      "buffer": 0,
      "byteLength": 33612,
      "byteOffset": 33612,
      "target": 34962
    },
    {
      "buffer": 0,
      "byteLength": 22408,
      "byteOffset": 67224,
      "target": 34962
    },
    {
      "buffer": 0,
      "byteLength": 24492,
      "byteOffset": 89632,
      "target": 34963
    }
  ],
  "samplers": [
    {
      "magFilter": 9729,
      "minFilter": 9987
    }
  ],
  "buffers": [
    {
      "byteLength": 114124,
      "uri": "demonMask.bin"
    }
  ]
}
