{
	"asset":{
		"generator":"Khronos glTF Blender I/O v3.6.27",
		"version":"2.0"
	},
	"scene":0,
	"scenes":[
		{
			"name":"Scene",
			"nodes":[
				7
			]
		}
	],
	"nodes":[
		{
			"mesh":0,
			"name":"Object_2.001"
		},
		{
			"mesh":1,
			"name":"Object_3"
		},
		{
			"mesh":2,
			"name":"Object_4"
		},
		{
			"mesh":3,
			"name":"Object_5"
		},
		{
			"mesh":4,
			"name":"Object_6.001"
		},
		{
			"mesh":5,
			"name":"Object_7"
		},
		{
			"mesh":6,
			"name":"Object_8.001"
		},
		{
			"children":[
				0,
				1,
				2,
				3,
				4,
				5,
				6
			],
			"name":"bird1"
		}
	],
	"materials":[
		{
			"doubleSided":true,
			"name":"body",
			"pbrMetallicRoughness":{
				"baseColorFactor":[
					0,
					0,
					0,
					1
				],
				"metallicFactor":0,
				"roughnessFactor":0.6000000238418579
			}
		},
		{
			"doubleSided":true,
			"name":"cresta.001",
			"pbrMetallicRoughness":{
				"baseColorFactor":[
					0.9254900217056274,
					0.4000000059604645,
					0.11372499912977219,
					1
				],
				"metallicFactor":0,
				"roughnessFactor":0.6000000238418579
			}
		},
		{
			"doubleSided":true,
			"name":"plumas.001",
			"pbrMetallicRoughness":{
				"metallicFactor":0,
				"roughnessFactor":0.6000000238418579
			}
		},
		{
			"doubleSided":true,
			"name":"ojos.001",
			"pbrMetallicRoughness":{
				"metallicFactor":0,
				"roughnessFactor":0.6000000238418579
			}
		},
		{
			"doubleSided":true,
			"name":"pupila.001",
			"pbrMetallicRoughness":{
				"baseColorFactor":[
					0,
					0,
					0,
					1
				],
				"metallicFactor":0,
				"roughnessFactor":0.6000000238418579
			}
		},
		{
			"doubleSided":true,
			"name":"patas.001",
			"pbrMetallicRoughness":{
				"baseColorFactor":[
					0.8862749934196472,
					0.8862749934196472,
					0.8862749934196472,
					1
				],
				"metallicFactor":0,
				"roughnessFactor":0.6000000238418579
			}
		},
		{
			"doubleSided":true,
			"name":"pico.001",
			"pbrMetallicRoughness":{
				"baseColorFactor":[
					0.8862749934196472,
					0.8862749934196472,
					0.8862749934196472,
					1
				],
				"metallicFactor":0,
				"roughnessFactor":0.6000000238418579
			}
		}
	],
	"meshes":[
		{
			"name":"Object_0.007",
			"primitives":[
				{
					"attributes":{
						"POSITION":0,
						"NORMAL":1,
						"TEXCOORD_0":2
					},
					"indices":3,
					"material":0
				}
			]
		},
		{
			"name":"Object_1.002",
			"primitives":[
				{
					"attributes":{
						"POSITION":4,
						"NORMAL":5,
						"TEXCOORD_0":6
					},
					"indices":7,
					"material":1
				}
			]
		},
		{
			"name":"Object_2.001",
			"primitives":[
				{
					"attributes":{
						"POSITION":8,
						"NORMAL":9,
						"TEXCOORD_0":10
					},
					"indices":11,
					"material":2
				}
			]
		},
		{
			"name":"Object_3.001",
			"primitives":[
				{
					"attributes":{
						"POSITION":12,
						"NORMAL":13,
						"TEXCOORD_0":14
					},
					"indices":15,
					"material":3
				}
			]
		},
		{
			"name":"Object_4.001",
			"primitives":[
				{
					"attributes":{
						"POSITION":16,
						"NORMAL":17,
						"TEXCOORD_0":18
					},
					"indices":19,
					"material":4
				}
			]
		},
		{
			"name":"Object_5.001",
			"primitives":[
				{
					"attributes":{
						"POSITION":20,
						"NORMAL":21,
						"TEXCOORD_0":22
					},
					"indices":23,
					"material":5
				}
			]
		},
		{
			"name":"Object_6",
			"primitives":[
				{
					"attributes":{
						"POSITION":24,
						"NORMAL":25,
						"TEXCOORD_0":26
					},
					"indices":27,
					"material":6
				}
			]
		}
	],
	"accessors":[
		{
			"bufferView":0,
			"componentType":5126,
			"count":5598,
			"max":[
				0.5954774618148804,
				1.2884947061538696,
				0.46836531162261963
			],
			"min":[
				-0.5364277362823486,
				0.05108140408992767,
				-0.5719934105873108
			],
			"type":"VEC3"
		},
		{
			"bufferView":1,
			"componentType":5126,
			"count":5598,
			"type":"VEC3"
		},
		{
			"bufferView":2,
			"componentType":5126,
			"count":5598,
			"type":"VEC2"
		},
		{
			"bufferView":3,
			"componentType":5123,
			"count":31728,
			"type":"SCALAR"
		},
		{
			"bufferView":4,
			"componentType":5126,
			"count":2681,
			"max":[
				0.23815810680389404,
				1.3288191556930542,
				0.4192737340927124
			],
			"min":[
				-0.52442866563797,
				0.8812013864517212,
				-0.47406744956970215
			],
			"type":"VEC3"
		},
		{
			"bufferView":5,
			"componentType":5126,
			"count":2681,
			"type":"VEC3"
		},
		{
			"bufferView":6,
			"componentType":5126,
			"count":2681,
			"type":"VEC2"
		},
		{
			"bufferView":7,
			"componentType":5123,
			"count":15696,
			"type":"SCALAR"
		},
		{
			"bufferView":8,
			"componentType":5126,
			"count":1027,
			"max":[
				0.5278849601745605,
				0.5326042771339417,
				0.4221021234989166
			],
			"min":[
				-0.4780019521713257,
				0.20995238423347473,
				-0.40929991006851196
			],
			"type":"VEC3"
		},
		{
			"bufferView":9,
			"componentType":5126,
			"count":1027,
			"type":"VEC3"
		},
		{
			"bufferView":10,
			"componentType":5126,
			"count":1027,
			"type":"VEC2"
		},
		{
			"bufferView":11,
			"componentType":5123,
			"count":4128,
			"type":"SCALAR"
		},
		{
			"bufferView":12,
			"componentType":5126,
			"count":622,
			"max":[
				0.16426098346710205,
				1.251194715499878,
				-0.053348422050476074
			],
			"min":[
				-0.6061543226242065,
				0.8042977452278137,
				-0.5512884855270386
			],
			"type":"VEC3"
		},
		{
			"bufferView":13,
			"componentType":5126,
			"count":622,
			"type":"VEC3"
		},
		{
			"bufferView":14,
			"componentType":5126,
			"count":622,
			"type":"VEC2"
		},
		{
			"bufferView":15,
			"componentType":5123,
			"count":2160,
			"type":"SCALAR"
		},
		{
			"bufferView":16,
			"componentType":5126,
			"count":175,
			"max":[
				0.0704369992017746,
				1.1647688150405884,
				-0.41131216287612915
			],
			"min":[
				-0.5096979141235352,
				0.9079225659370422,
				-0.5635055303573608
			],
			"type":"VEC3"
		},
		{
			"bufferView":17,
			"componentType":5126,
			"count":175,
			"type":"VEC3"
		},
		{
			"bufferView":18,
			"componentType":5126,
			"count":175,
			"type":"VEC2"
		},
		{
			"bufferView":19,
			"componentType":5123,
			"count":600,
			"type":"SCALAR"
		},
		{
			"bufferView":20,
			"componentType":5126,
			"count":3035,
			"max":[
				0.255452424287796,
				0.1580737829208374,
				0.2967015206813812
			],
			"min":[
				-0.4221436381340027,
				0.0019140896620228887,
				-0.5437871813774109
			],
			"type":"VEC3"
		},
		{
			"bufferView":21,
			"componentType":5126,
			"count":3035,
			"type":"VEC3"
		},
		{
			"bufferView":22,
			"componentType":5126,
			"count":3035,
			"type":"VEC2"
		},
		{
			"bufferView":23,
			"componentType":5123,
			"count":11328,
			"type":"SCALAR"
		},
		{
			"bufferView":24,
			"componentType":5126,
			"count":5375,
			"max":[
				0.18112164735794067,
				0.9334053993225098,
				-0.17708154022693634
			],
			"min":[
				-0.5147013664245605,
				0.5316224694252014,
				-1.0647006034851074
			],
			"type":"VEC3"
		},
		{
			"bufferView":25,
			"componentType":5126,
			"count":5375,
			"type":"VEC3"
		},
		{
			"bufferView":26,
			"componentType":5126,
			"count":5375,
			"type":"VEC2"
		},
		{
			"bufferView":27,
			"componentType":5123,
			"count":26688,
			"type":"SCALAR"
		}
	],
	"bufferViews":[
		{
			"buffer":0,
			"byteLength":67176,
			"byteOffset":0,
			"target":34962
		},
		{
			"buffer":0,
			"byteLength":67176,
			"byteOffset":67176,
			"target":34962
		},
		{
			"buffer":0,
			"byteLength":44784,
			"byteOffset":134352,
			"target":34962
		},
		{
			"buffer":0,
			"byteLength":63456,
			"byteOffset":179136,
			"target":34963
		},
		{
			"buffer":0,
			"byteLength":32172,
			"byteOffset":242592,
			"target":34962
		},
		{
			"buffer":0,
			"byteLength":32172,
			"byteOffset":274764,
			"target":34962
		},
		{
			"buffer":0,
			"byteLength":21448,
			"byteOffset":306936,
			"target":34962
		},
		{
			"buffer":0,
			"byteLength":31392,
			"byteOffset":328384,
			"target":34963
		},
		{
			"buffer":0,
			"byteLength":12324,
			"byteOffset":359776,
			"target":34962
		},
		{
			"buffer":0,
			"byteLength":12324,
			"byteOffset":372100,
			"target":34962
		},
		{
			"buffer":0,
			"byteLength":8216,
			"byteOffset":384424,
			"target":34962
		},
		{
			"buffer":0,
			"byteLength":8256,
			"byteOffset":392640,
			"target":34963
		},
		{
			"buffer":0,
			"byteLength":7464,
			"byteOffset":400896,
			"target":34962
		},
		{
			"buffer":0,
			"byteLength":7464,
			"byteOffset":408360,
			"target":34962
		},
		{
			"buffer":0,
			"byteLength":4976,
			"byteOffset":415824,
			"target":34962
		},
		{
			"buffer":0,
			"byteLength":4320,
			"byteOffset":420800,
			"target":34963
		},
		{
			"buffer":0,
			"byteLength":2100,
			"byteOffset":425120,
			"target":34962
		},
		{
			"buffer":0,
			"byteLength":2100,
			"byteOffset":427220,
			"target":34962
		},
		{
			"buffer":0,
			"byteLength":1400,
			"byteOffset":429320,
			"target":34962
		},
		{
			"buffer":0,
			"byteLength":1200,
			"byteOffset":430720,
			"target":34963
		},
		{
			"buffer":0,
			"byteLength":36420,
			"byteOffset":431920,
			"target":34962
		},
		{
			"buffer":0,
			"byteLength":36420,
			"byteOffset":468340,
			"target":34962
		},
		{
			"buffer":0,
			"byteLength":24280,
			"byteOffset":504760,
			"target":34962
		},
		{
			"buffer":0,
			"byteLength":22656,
			"byteOffset":529040,
			"target":34963
		},
		{
			"buffer":0,
			"byteLength":64500,
			"byteOffset":551696,
			"target":34962
		},
		{
			"buffer":0,
			"byteLength":64500,
			"byteOffset":616196,
			"target":34962
		},
		{
			"buffer":0,
			"byteLength":43000,
			"byteOffset":680696,
			"target":34962
		},
		{
			"buffer":0,
			"byteLength":53376,
			"byteOffset":723696,
			"target":34963
		}
	],
	"buffers":[
		{
			"byteLength":777072,
			"uri":"bird1.bin"
		}
	]
}
