{
  "asset": {
    "generator": "Khronos glTF Blender I/O v3.6.27",
    "version": "2.0"
  },
  "scene": 0,
  "scenes": [
    {
      "name": "Scene",
      "nodes": [0]
    }
  ],
  "nodes": [
    {
      "mesh": 0,
      "name": "memeGlasses"
    }
  ],
  "materials": [
    {
      "doubleSided": true,
      "name": "material_0.002",
      "pbrMetallicRoughness": {
        "baseColorTexture": {
          "index": 0
        },
        "metallicFactor": 0,
        "roughnessFactor": 0
      }
    }
  ],
  "meshes": [
    {
      "name": "Object_103",
      "primitives": [
        {
          "attributes": {
            "POSITION": 0,
            "NORMAL": 1,
            "TEXCOORD_0": 2
          },
          "indices": 3,
          "material": 0
        }
      ]
    }
  ],
  "textures": [
    {
      "sampler": 0,
      "source": 0
    }
  ],
  "images": [
    {
      "mimeType": "image/png",
      "name": "material_0_baseColor",
      "uri": "texs/material_0_baseColor.png"
    }
  ],
  "accessors": [
    {
      "bufferView": 0,
      "componentType": 5126,
      "count": 2705,
      "max": [0.703107476234436, 0.10885406285524368, 1.077128291130066],
      "min": [-0.7031453251838684, -0.1810656040906906, -0.14285096526145935],
      "type": "VEC3"
    },
    {
      "bufferView": 1,
      "componentType": 5126,
      "count": 2705,
      "type": "VEC3"
    },
    {
      "bufferView": 2,
      "componentType": 5126,
      "count": 2705,
      "type": "VEC2"
    },
    {
      "bufferView": 3,
      "componentType": 5123,
      "count": 4026,
      "type": "SCALAR"
    }
  ],
  "bufferViews": [
    {
      "buffer": 0,
      "byteLength": 32460,
      "byteOffset": 0,
      "target": 34962
    },
    {
      "buffer": 0,
      "byteLength": 32460,
      "byteOffset": 32460,
      "target": 34962
    },
    {
      "buffer": 0,
      "byteLength": 21640,
      "byteOffset": 64920,
      "target": 34962
    },
    {
      "buffer": 0,
      "byteLength": 8052,
      "byteOffset": 86560,
      "target": 34963
    }
  ],
  "samplers": [
    {
      "magFilter": 9728,
      "minFilter": 9984,
      "wrapS": 33071,
      "wrapT": 33071
    }
  ],
  "buffers": [
    {
      "byteLength": 94612,
      "uri": "memeGlasses.bin"
    }
  ]
}
