{
	"asset":{
		"generator":"Khronos glTF Blender I/O v3.6.27",
		"version":"2.0"
	},
	"scene":0,
	"scenes":[
		{
			"name":"Scene",
			"nodes":[
				0
			]
		}
	],
	"nodes":[
		{
			"mesh":0,
			"name":"babyDragon"
		}
	],
	"materials":[
		{
			"doubleSided":true,
			"name":"02___Default.001",
			"normalTexture":{
				"index":0
			},
			"pbrMetallicRoughness":{
				"baseColorTexture":{
					"index":1
				},
				"metallicRoughnessTexture":{
					"index":2
				}
			}
		},
		{
			"doubleSided":true,
			"name":"default.001",
			"normalTexture":{
				"index":3
			},
			"pbrMetallicRoughness":{
				"baseColorTexture":{
					"index":4
				},
				"metallicRoughnessTexture":{
					"index":5
				}
			}
		}
	],
	"meshes":[
		{
			"name":"Object_0.005",
			"primitives":[
				{
					"attributes":{
						"POSITION":0,
						"NORMAL":1,
						"TEXCOORD_0":2
					},
					"indices":3,
					"material":0
				},
				{
					"attributes":{
						"POSITION":4,
						"NORMAL":5,
						"TEXCOORD_0":6
					},
					"indices":7,
					"material":1
				}
			]
		}
	],
	"textures":[
		{
			"sampler":0,
			"source":0
		},
		{
			"sampler":0,
			"source":1
		},
		{
			"sampler":0,
			"source":2
		},
		{
			"sampler":0,
			"source":0
		},
		{
			"sampler":0,
			"source":1
		},
		{
			"sampler":0,
			"source":2
		}
	],
	"images":[
		{
			"mimeType":"image/png",
			"name":"babyDragon_nor_2048x2048",
			"uri":"texs/babyDragon_nor_2048x2048.png"
		},
		{
			"mimeType":"image/png",
			"name":"babyDragon_diff_2048x2048",
			"uri":"texs/babyDragon_diff_2048x2048.png"
		},
		{
			"mimeType":"image/png",
			"name":"babyDragon_metalRough_2048x2048",
			"uri":"texs/babyDragon_metalRough_2048x2048.png"
		}
	],
	"accessors":[
		{
			"bufferView":0,
			"componentType":5126,
			"count":533,
			"max":[
				0.3339000344276428,
				1.2707041501998901,
				0.9130910634994507
			],
			"min":[
				-0.3339001536369324,
				0.7018042206764221,
				-0.674109160900116
			],
			"type":"VEC3"
		},
		{
			"bufferView":1,
			"componentType":5126,
			"count":533,
			"type":"VEC3"
		},
		{
			"bufferView":2,
			"componentType":5126,
			"count":533,
			"type":"VEC2"
		},
		{
			"bufferView":3,
			"componentType":5123,
			"count":2520,
			"type":"SCALAR"
		},
		{
			"bufferView":4,
			"componentType":5126,
			"count":3243,
			"max":[
				1.0831001996994019,
				1.3969041109085083,
				1.089691162109375
			],
			"min":[
				-1.0826002359390259,
				3.905671746906592e-06,
				-0.9222091436386108
			],
			"type":"VEC3"
		},
		{
			"bufferView":5,
			"componentType":5126,
			"count":3243,
			"type":"VEC3"
		},
		{
			"bufferView":6,
			"componentType":5126,
			"count":3243,
			"type":"VEC2"
		},
		{
			"bufferView":7,
			"componentType":5123,
			"count":14598,
			"type":"SCALAR"
		}
	],
	"bufferViews":[
		{
			"buffer":0,
			"byteLength":6396,
			"byteOffset":0,
			"target":34962
		},
		{
			"buffer":0,
			"byteLength":6396,
			"byteOffset":6396,
			"target":34962
		},
		{
			"buffer":0,
			"byteLength":4264,
			"byteOffset":12792,
			"target":34962
		},
		{
			"buffer":0,
			"byteLength":5040,
			"byteOffset":17056,
			"target":34963
		},
		{
			"buffer":0,
			"byteLength":38916,
			"byteOffset":22096,
			"target":34962
		},
		{
			"buffer":0,
			"byteLength":38916,
			"byteOffset":61012,
			"target":34962
		},
		{
			"buffer":0,
			"byteLength":25944,
			"byteOffset":99928,
			"target":34962
		},
		{
			"buffer":0,
			"byteLength":29196,
			"byteOffset":125872,
			"target":34963
		}
	],
	"samplers":[
		{
			"magFilter":9729,
			"minFilter":9987
		}
	],
	"buffers":[
		{
			"byteLength":155068,
			"uri":"babyDragon.bin"
		}
	]
}
