{
  "accessors": [
    {
      "bufferView": 2,
      "componentType": 5126,
      "count": 1937,
      "max": [
        27.738481521606445,
        46.27613830566406,
        10.943914413452148
      ],
      "min": [
        -27.738481521606445,
        -10.292576789855957,
        -13.676955223083496
      ],
      "type": "VEC3"
    },
    {
      "bufferView": 2,
      "byteOffset": 23244,
      "componentType": 5126,
      "count": 1937,
      "max": [
        0.9996291995048523,
        0.9862254858016968,
        0.9999821186065674
      ],
      "min": [
        -0.999629020690918,
        -0.9970477819442749,
        -0.9999775290489197
      ],
      "type": "VEC3"
    },
    {
      "bufferView": 3,
      "componentType": 5126,
      "count": 1937,
      "max": [
        0.9984602332115173,
        0.9724089503288269,
        0.9957494735717773,
        1.0
      ],
      "min": [
        -0.9999900460243225,
        -0.9999491572380066,
        -0.9980629086494446,
        -1.0
      ],
      "type": "VEC4"
    },
    {
      "bufferView": 1,
      "componentType": 5126,
      "count": 1937,
      "max": [
        0.9938584566116333,
        0.9926985502243042
      ],
      "min": [
        0.004386162385344505,
        0.0060898978263139725
      ],
      "type": "VEC2"
    },
    {
      "bufferView": 1,
      "byteOffset": 15496,
      "componentType": 5126,
      "count": 1937,
      "max": [
        0.9938584566116333,
        0.9926985502243042
      ],
      "min": [
        0.004386162385344505,
        0.0060898978263139725
      ],
      "type": "VEC2"
    },
    {
      "bufferView": 0,
      "componentType": 5125,
      "count": 8574,
      "type": "SCALAR"
    }
  ],
  "asset": {
    "extras": {
      "author": "Ferocious Industries (https://sketchfab.com/ferociousindustries.matthias)",
      "license": "CC-BY-4.0 (http://creativecommons.org/licenses/by/4.0/)",
      "source": "https://sketchfab.com/3d-models/pbr-hoplite-helmet-a20e96b821444a8d86eea4869fe4bc84",
      "title": "PBR Hoplite Helmet"
    },
    "generator": "Sketchfab-15.25.0",
    "version": "2.0"
  },
  "bufferViews": [
    {
      "buffer": 0,
      "byteLength": 34296,
      "name": "floatBufferViews",
      "target": 34963
    },
    {
      "buffer": 0,
      "byteLength": 30992,
      "byteOffset": 34296,
      "byteStride": 8,
      "name": "floatBufferViews",
      "target": 34962
    },
    {
      "buffer": 0,
      "byteLength": 46488,
      "byteOffset": 65288,
      "byteStride": 12,
      "name": "floatBufferViews",
      "target": 34962
    },
    {
      "buffer": 0,
      "byteLength": 30992,
      "byteOffset": 111776,
      "byteStride": 16,
      "name": "floatBufferViews",
      "target": 34962
    }
  ],
  "buffers": [
    {
      "byteLength": 142768,
      "uri": "scene.bin"
    }
  ],
  "extensionsUsed": [
    "KHR_materials_specular"
  ],
  "images": [
    {
      "uri": "textures/HopliteHelmet_baseColor.png"
    },
    {
      "uri": "textures/HopliteHelmet_metallicRoughness.png"
    },
    {
      "uri": "textures/HopliteHelmet_normal.png"
    }
  ],
  "materials": [
    {
      "extensions": {
        "KHR_materials_specular": {
          "specularColorFactor": [
            1.0,
            1.0,
            1.0
          ],
          "specularFactor": 0.5592397995879607
        }
      },
      "name": "HopliteHelmet",
      "normalTexture": {
        "index": 2,
        "texCoord": 1
      },
      "occlusionTexture": {
        "index": 1
      },
      "pbrMetallicRoughness": {
        "baseColorTexture": {
          "index": 0
        },
        "metallicRoughnessTexture": {
          "index": 1
        }
      }
    }
  ],
  "meshes": [
    {
      "name": "HopliteHelmet_LOD0_HopliteHelmet_0",
      "primitives": [
        {
          "attributes": {
            "NORMAL": 1,
            "POSITION": 0,
            "TANGENT": 2,
            "TEXCOORD_0": 3,
            "TEXCOORD_1": 4
          },
          "indices": 5,
          "material": 0,
          "mode": 4
        }
      ]
    }
  ],
  "nodes": [
    {
      "children": [
        1
      ],
      "matrix": [
        1.0,
        0.0,
        0.0,
        0.0,
        0.0,
        2.220446049250313e-16,
        -1.0,
        0.0,
        0.0,
        1.0,
        2.220446049250313e-16,
        0.0,
        0.0,
        0.0,
        0.0,
        1.0
      ],
      "name": "Sketchfab_model"
    },
    {
      "children": [
        2
      ],
      "matrix": [
        0.009999999776482582,
        0.0,
        0.0,
        0.0,
        0.0,
        0.0,
        0.009999999776482582,
        0.0,
        0.0,
        -0.009999999776482582,
        0.0,
        0.0,
        0.0,
        0.0,
        0.0,
        1.0
      ],
      "name": "HopliteHelmet_LODG.fbx"
    },
    {
      "children": [
        3
      ],
      "name": "RootNode"
    },
    {
      "children": [
        4
      ],
      "name": "HopliteHelmet_LOD0"
    },
    {
      "mesh": 0,
      "name": "HopliteHelmet_LOD0_HopliteHelmet_0"
    }
  ],
  "samplers": [
    {
      "magFilter": 9729,
      "minFilter": 9987,
      "wrapS": 10497,
      "wrapT": 10497
    }
  ],
  "scene": 0,
  "scenes": [
    {
      "name": "Sketchfab_Scene",
      "nodes": [
        0
      ]
    }
  ],
  "textures": [
    {
      "sampler": 0,
      "source": 0
    },
    {
      "sampler": 0,
      "source": 1
    },
    {
      "sampler": 0,
      "source": 2
    }
  ]
}
