{
  "asset": {
    "generator": "Khronos glTF Blender I/O v3.6.27",
    "version": "2.0"
  },
  "scene": 0,
  "scenes": [
    {
      "name": "Scene",
      "nodes": [0]
    }
  ],
  "nodes": [
    {
      "mesh": 0,
      "name": "alienMaskFaceMask"
    }
  ],
  "materials": [
    {
      "emissiveFactor": [1, 1, 1],
      "emissiveTexture": {
        "index": 0
      },
      "name": "Masks4",
      "normalTexture": {
        "index": 1
      },
      "pbrMetallicRoughness": {
        "baseColorTexture": {
          "index": 2
        },
        "metallicRoughnessTexture": {
          "index": 3
        }
      }
    }
  ],
  "meshes": [
    {
      "name": "Object_3",
      "primitives": [
        {
          "attributes": {
            "POSITION": 0,
            "NORMAL": 1,
            "TEXCOORD_0": 2
          },
          "indices": 3,
          "material": 0
        }
      ]
    }
  ],
  "textures": [
    {
      "sampler": 0,
      "source": 0
    },
    {
      "sampler": 0,
      "source": 1
    },
    {
      "sampler": 0,
      "source": 2
    },
    {
      "sampler": 0,
      "source": 3
    }
  ],
  "images": [
    {
      "mimeType": "image/png",
      "name": "Masks4_emissive",
      "uri": "texs/Masks4_emissive.png"
    },
    {
      "mimeType": "image/png",
      "name": "Masks4_normal",
      "uri": "texs/Masks4_normal.png"
    },
    {
      "mimeType": "image/png",
      "name": "Masks4_baseColor",
      "uri": "texs/Masks4_baseColor.png"
    },
    {
      "mimeType": "image/png",
      "name": "Masks4_metallicRoughness",
      "uri": "texs/Masks4_metallicRoughness.png"
    }
  ],
  "accessors": [
    {
      "bufferView": 0,
      "componentType": 5126,
      "count": 1689,
      "max": [0.35975033044815063, 0.5819863677024841, 0.476854145526886],
      "min": [-0.3597503900527954, -0.49628832936286926, -0.19619804620742798],
      "type": "VEC3"
    },
    {
      "bufferView": 1,
      "componentType": 5126,
      "count": 1689,
      "type": "VEC3"
    },
    {
      "bufferView": 2,
      "componentType": 5126,
      "count": 1689,
      "type": "VEC2"
    },
    {
      "bufferView": 3,
      "componentType": 5123,
      "count": 8820,
      "type": "SCALAR"
    }
  ],
  "bufferViews": [
    {
      "buffer": 0,
      "byteLength": 20268,
      "byteOffset": 0,
      "target": 34962
    },
    {
      "buffer": 0,
      "byteLength": 20268,
      "byteOffset": 20268,
      "target": 34962
    },
    {
      "buffer": 0,
      "byteLength": 13512,
      "byteOffset": 40536,
      "target": 34962
    },
    {
      "buffer": 0,
      "byteLength": 17640,
      "byteOffset": 54048,
      "target": 34963
    }
  ],
  "samplers": [
    {
      "magFilter": 9729,
      "minFilter": 9987
    }
  ],
  "buffers": [
    {
      "byteLength": 71688,
      "uri": "alienMask.bin"
    }
  ]
}
