{
	"asset":{
		"generator":"Khronos glTF Blender I/O v3.6.27",
		"version":"2.0"
	},
	"scene":0,
	"scenes":[
		{
			"name":"Scene",
			"nodes":[
				0
			]
		}
	],
	"nodes":[
		{
			"mesh":0,
			"name":"defaultGlasses"
		}
	],
	"materials":[
		{
			"doubleSided":true,
			"name":"material_3",
			"pbrMetallicRoughness":{
				"baseColorFactor":[
					0,
					0,
					0,
					1
				],
				"metallicFactor":0.39805638790130615,
				"roughnessFactor":0.17511433362960815
			}
		},
		{
			"doubleSided":true,
			"name":"material_4",
			"pbrMetallicRoughness":{
				"baseColorFactor":[
					0,
					0,
					0,
					1
				],
				"roughnessFactor":0.45560213923454285
			}
		},
		{
			"doubleSided":true,
			"name":"Default_Material",
			"pbrMetallicRoughness":{
				"roughnessFactor":0
			}
		},
		{
			"doubleSided":true,
			"name":"Translucent_Glass_Tinted1",
			"pbrMetallicRoughness":{
				"baseColorFactor":[
					0,
					0,
					0,
					1
				],
				"metallicFactor":0.5748856663703918,
				"roughnessFactor":0.24828505516052246
			}
		},
		{
			"doubleSided":true,
			"name":"material.001",
			"pbrMetallicRoughness":{
				"baseColorFactor":[
					0.7254899740219116,
					0.7254899740219116,
					0.7254899740219116,
					1
				],
				"metallicFactor":0
			}
		},
		{
			"doubleSided":true,
			"name":"material_5",
			"pbrMetallicRoughness":{
				"roughnessFactor":0
			}
		},
		{
			"doubleSided":true,
			"name":"material_6",
			"pbrMetallicRoughness":{
				"roughnessFactor":0
			}
		},
		{
			"doubleSided":true,
			"name":"material_7",
			"pbrMetallicRoughness":{
				"baseColorFactor":[
					0,
					0,
					0,
					1
				],
				"metallicFactor":0.5261051654815674,
				"roughnessFactor":0.30926066637039185
			}
		},
		{
			"alphaMode":"BLEND",
			"doubleSided":true,
			"name":"material_8",
			"pbrMetallicRoughness":{
				"baseColorFactor":[
					0.5019609928131104,
					0.5019609928131104,
					0.5019609928131104,
					0.715129554271698
				],
				"metallicFactor":0,
				"roughnessFactor":0.8153582215309143
			}
		},
		{
			"alphaMode":"BLEND",
			"doubleSided":true,
			"name":"material_9",
			"pbrMetallicRoughness":{
				"baseColorFactor":[
					1,
					1,
					1,
					0.05049542710185051
				],
				"metallicFactor":0.7883002758026123,
				"roughnessFactor":0.49828505516052246
			}
		}
	],
	"meshes":[
		{
			"name":"Object_9.002",
			"primitives":[
				{
					"attributes":{
						"POSITION":0,
						"NORMAL":1,
						"TEXCOORD_0":2
					},
					"indices":3,
					"material":0
				},
				{
					"attributes":{
						"POSITION":4,
						"NORMAL":5,
						"TEXCOORD_0":6
					},
					"indices":7,
					"material":1
				},
				{
					"attributes":{
						"POSITION":8,
						"NORMAL":9,
						"TEXCOORD_0":10
					},
					"indices":11,
					"material":2
				},
				{
					"attributes":{
						"POSITION":12,
						"NORMAL":13,
						"TEXCOORD_0":14
					},
					"indices":15,
					"material":3
				},
				{
					"attributes":{
						"POSITION":16,
						"NORMAL":17,
						"TEXCOORD_0":18
					},
					"indices":19,
					"material":4
				},
				{
					"attributes":{
						"POSITION":20,
						"NORMAL":21,
						"TEXCOORD_0":22
					},
					"indices":23,
					"material":5
				},
				{
					"attributes":{
						"POSITION":24,
						"NORMAL":25,
						"TEXCOORD_0":26
					},
					"indices":27,
					"material":6
				},
				{
					"attributes":{
						"POSITION":28,
						"NORMAL":29,
						"TEXCOORD_0":30
					},
					"indices":31,
					"material":7
				},
				{
					"attributes":{
						"POSITION":32,
						"NORMAL":33,
						"TEXCOORD_0":34
					},
					"indices":35,
					"material":8
				},
				{
					"attributes":{
						"POSITION":36,
						"NORMAL":37,
						"TEXCOORD_0":38
					},
					"indices":39,
					"material":9
				}
			]
		}
	],
	"accessors":[
		{
			"bufferView":0,
			"componentType":5126,
			"count":89414,
			"max":[
				1.03559410572052,
				0.1538136750459671,
				0.07935476303100586
			],
			"min":[
				-1.0351245403289795,
				-0.39045384526252747,
				-0.057949185371398926
			],
			"type":"VEC3"
		},
		{
			"bufferView":1,
			"componentType":5126,
			"count":89414,
			"type":"VEC3"
		},
		{
			"bufferView":2,
			"componentType":5126,
			"count":89414,
			"type":"VEC2"
		},
		{
			"bufferView":3,
			"componentType":5125,
			"count":135735,
			"type":"SCALAR"
		},
		{
			"bufferView":4,
			"componentType":5126,
			"count":1288,
			"max":[
				0.8972020149230957,
				0.11099064350128174,
				0.06594620645046234
			],
			"min":[
				-0.8968853950500488,
				-0.3658912479877472,
				-0.016718940809369087
			],
			"type":"VEC3"
		},
		{
			"bufferView":5,
			"componentType":5126,
			"count":1288,
			"type":"VEC3"
		},
		{
			"bufferView":6,
			"componentType":5126,
			"count":1288,
			"type":"VEC2"
		},
		{
			"bufferView":7,
			"componentType":5123,
			"count":1944,
			"type":"SCALAR"
		},
		{
			"bufferView":8,
			"componentType":5126,
			"count":19231,
			"max":[
				0.15102151036262512,
				-0.09400657564401627,
				0.08881913125514984
			],
			"min":[
				-0.14935247600078583,
				-0.22080561518669128,
				0.019870014861226082
			],
			"type":"VEC3"
		},
		{
			"bufferView":9,
			"componentType":5126,
			"count":19231,
			"type":"VEC3"
		},
		{
			"bufferView":10,
			"componentType":5126,
			"count":19231,
			"type":"VEC2"
		},
		{
			"bufferView":11,
			"componentType":5123,
			"count":28725,
			"type":"SCALAR"
		},
		{
			"bufferView":12,
			"componentType":5126,
			"count":3784,
			"max":[
				0.9255124926567078,
				-0.3580707907676697,
				2.092486619949341
			],
			"min":[
				-0.9247735142707825,
				-0.3806765675544739,
				1.9572842121124268
			],
			"type":"VEC3"
		},
		{
			"bufferView":13,
			"componentType":5126,
			"count":3784,
			"type":"VEC3"
		},
		{
			"bufferView":14,
			"componentType":5126,
			"count":3784,
			"type":"VEC2"
		},
		{
			"bufferView":15,
			"componentType":5123,
			"count":5616,
			"type":"SCALAR"
		},
		{
			"bufferView":16,
			"componentType":5126,
			"count":150,
			"max":[
				1.0513856410980225,
				0.05410512909293175,
				0.19934920966625214
			],
			"min":[
				-1.0506469011306763,
				0.04430389776825905,
				0.1033971905708313
			],
			"type":"VEC3"
		},
		{
			"bufferView":17,
			"componentType":5126,
			"count":150,
			"type":"VEC3"
		},
		{
			"bufferView":18,
			"componentType":5126,
			"count":150,
			"type":"VEC2"
		},
		{
			"bufferView":19,
			"componentType":5123,
			"count":264,
			"type":"SCALAR"
		},
		{
			"bufferView":20,
			"componentType":5126,
			"count":1331,
			"max":[
				1.056742787361145,
				0.07332710176706314,
				0.11095073819160461
			],
			"min":[
				-1.056002140045166,
				0.02427632547914982,
				0.0053133610635995865
			],
			"type":"VEC3"
		},
		{
			"bufferView":21,
			"componentType":5126,
			"count":1331,
			"type":"VEC3"
		},
		{
			"bufferView":22,
			"componentType":5126,
			"count":1331,
			"type":"VEC2"
		},
		{
			"bufferView":23,
			"componentType":5123,
			"count":2154,
			"type":"SCALAR"
		},
		{
			"bufferView":24,
			"componentType":5126,
			"count":6570,
			"max":[
				1.0433592796325684,
				0.06153351813554764,
				0.1429259032011032
			],
			"min":[
				-1.0426205396652222,
				0.03641516715288162,
				0.07429604977369308
			],
			"type":"VEC3"
		},
		{
			"bufferView":25,
			"componentType":5126,
			"count":6570,
			"type":"VEC3"
		},
		{
			"bufferView":26,
			"componentType":5126,
			"count":6570,
			"type":"VEC2"
		},
		{
			"bufferView":27,
			"componentType":5123,
			"count":10716,
			"type":"SCALAR"
		},
		{
			"bufferView":28,
			"componentType":5126,
			"count":7680,
			"max":[
				1.1220484972000122,
				0.10681481659412384,
				2.092486619949341
			],
			"min":[
				-1.121309518814087,
				-0.361136794090271,
				0.1035890057682991
			],
			"type":"VEC3"
		},
		{
			"bufferView":29,
			"componentType":5126,
			"count":7680,
			"type":"VEC3"
		},
		{
			"bufferView":30,
			"componentType":5126,
			"count":7680,
			"type":"VEC2"
		},
		{
			"bufferView":31,
			"componentType":5123,
			"count":8892,
			"type":"SCALAR"
		},
		{
			"bufferView":32,
			"componentType":5126,
			"count":5286,
			"max":[
				0.17005810141563416,
				-0.13772468268871307,
				0.09925200045108795
			],
			"min":[
				-0.1535404622554779,
				-0.27204403281211853,
				0.018999777734279633
			],
			"type":"VEC3"
		},
		{
			"bufferView":33,
			"componentType":5126,
			"count":5286,
			"type":"VEC3"
		},
		{
			"bufferView":34,
			"componentType":5126,
			"count":5286,
			"type":"VEC2"
		},
		{
			"bufferView":35,
			"componentType":5123,
			"count":8040,
			"type":"SCALAR"
		},
		{
			"bufferView":36,
			"componentType":5126,
			"count":587,
			"max":[
				0.8972020149230957,
				0.1110963225364685,
				0.06717503070831299
			],
			"min":[
				-0.8968853950500488,
				-0.36573731899261475,
				-0.016872579231858253
			],
			"type":"VEC3"
		},
		{
			"bufferView":37,
			"componentType":5126,
			"count":587,
			"type":"VEC3"
		},
		{
			"bufferView":38,
			"componentType":5126,
			"count":587,
			"type":"VEC2"
		},
		{
			"bufferView":39,
			"componentType":5123,
			"count":1632,
			"type":"SCALAR"
		}
	],
	"bufferViews":[
		{
			"buffer":0,
			"byteLength":1072968,
			"byteOffset":0,
			"target":34962
		},
		{
			"buffer":0,
			"byteLength":1072968,
			"byteOffset":1072968,
			"target":34962
		},
		{
			"buffer":0,
			"byteLength":715312,
			"byteOffset":2145936,
			"target":34962
		},
		{
			"buffer":0,
			"byteLength":542940,
			"byteOffset":2861248,
			"target":34963
		},
		{
			"buffer":0,
			"byteLength":15456,
			"byteOffset":3404188,
			"target":34962
		},
		{
			"buffer":0,
			"byteLength":15456,
			"byteOffset":3419644,
			"target":34962
		},
		{
			"buffer":0,
			"byteLength":10304,
			"byteOffset":3435100,
			"target":34962
		},
		{
			"buffer":0,
			"byteLength":3888,
			"byteOffset":3445404,
			"target":34963
		},
		{
			"buffer":0,
			"byteLength":230772,
			"byteOffset":3449292,
			"target":34962
		},
		{
			"buffer":0,
			"byteLength":230772,
			"byteOffset":3680064,
			"target":34962
		},
		{
			"buffer":0,
			"byteLength":153848,
			"byteOffset":3910836,
			"target":34962
		},
		{
			"buffer":0,
			"byteLength":57450,
			"byteOffset":4064684,
			"target":34963
		},
		{
			"buffer":0,
			"byteLength":45408,
			"byteOffset":4122136,
			"target":34962
		},
		{
			"buffer":0,
			"byteLength":45408,
			"byteOffset":4167544,
			"target":34962
		},
		{
			"buffer":0,
			"byteLength":30272,
			"byteOffset":4212952,
			"target":34962
		},
		{
			"buffer":0,
			"byteLength":11232,
			"byteOffset":4243224,
			"target":34963
		},
		{
			"buffer":0,
			"byteLength":1800,
			"byteOffset":4254456,
			"target":34962
		},
		{
			"buffer":0,
			"byteLength":1800,
			"byteOffset":4256256,
			"target":34962
		},
		{
			"buffer":0,
			"byteLength":1200,
			"byteOffset":4258056,
			"target":34962
		},
		{
			"buffer":0,
			"byteLength":528,
			"byteOffset":4259256,
			"target":34963
		},
		{
			"buffer":0,
			"byteLength":15972,
			"byteOffset":4259784,
			"target":34962
		},
		{
			"buffer":0,
			"byteLength":15972,
			"byteOffset":4275756,
			"target":34962
		},
		{
			"buffer":0,
			"byteLength":10648,
			"byteOffset":4291728,
			"target":34962
		},
		{
			"buffer":0,
			"byteLength":4308,
			"byteOffset":4302376,
			"target":34963
		},
		{
			"buffer":0,
			"byteLength":78840,
			"byteOffset":4306684,
			"target":34962
		},
		{
			"buffer":0,
			"byteLength":78840,
			"byteOffset":4385524,
			"target":34962
		},
		{
			"buffer":0,
			"byteLength":52560,
			"byteOffset":4464364,
			"target":34962
		},
		{
			"buffer":0,
			"byteLength":21432,
			"byteOffset":4516924,
			"target":34963
		},
		{
			"buffer":0,
			"byteLength":92160,
			"byteOffset":4538356,
			"target":34962
		},
		{
			"buffer":0,
			"byteLength":92160,
			"byteOffset":4630516,
			"target":34962
		},
		{
			"buffer":0,
			"byteLength":61440,
			"byteOffset":4722676,
			"target":34962
		},
		{
			"buffer":0,
			"byteLength":17784,
			"byteOffset":4784116,
			"target":34963
		},
		{
			"buffer":0,
			"byteLength":63432,
			"byteOffset":4801900,
			"target":34962
		},
		{
			"buffer":0,
			"byteLength":63432,
			"byteOffset":4865332,
			"target":34962
		},
		{
			"buffer":0,
			"byteLength":42288,
			"byteOffset":4928764,
			"target":34962
		},
		{
			"buffer":0,
			"byteLength":16080,
			"byteOffset":4971052,
			"target":34963
		},
		{
			"buffer":0,
			"byteLength":7044,
			"byteOffset":4987132,
			"target":34962
		},
		{
			"buffer":0,
			"byteLength":7044,
			"byteOffset":4994176,
			"target":34962
		},
		{
			"buffer":0,
			"byteLength":4696,
			"byteOffset":5001220,
			"target":34962
		},
		{
			"buffer":0,
			"byteLength":3264,
			"byteOffset":5005916,
			"target":34963
		}
	],
	"buffers":[
		{
			"byteLength":5009180,
			"uri":"defaultGlasses.bin"
		}
	]
}
