{
	"asset":{
		"generator":"Khronos glTF Blender I/O v3.6.27",
		"version":"2.0"
	},
	"scene":0,
	"scenes":[
		{
			"name":"Scene",
			"nodes":[
				0
			]
		}
	],
	"nodes":[
		{
			"mesh":0,
			"name":"metalManFaceMask"
		}
	],
	"materials":[
		{
			"name":"Masks2",
			"normalTexture":{
				"index":0
			},
			"pbrMetallicRoughness":{
				"baseColorTexture":{
					"index":1
				},
				"metallicRoughnessTexture":{
					"index":2
				}
			}
		}
	],
	"meshes":[
		{
			"name":"Object_12",
			"primitives":[
				{
					"attributes":{
						"POSITION":0,
						"NORMAL":1,
						"TEXCOORD_0":2
					},
					"indices":3,
					"material":0
				}
			]
		}
	],
	"textures":[
		{
			"sampler":0,
			"source":0
		},
		{
			"sampler":0,
			"source":1
		},
		{
			"sampler":0,
			"source":2
		}
	],
	"images":[
		{
			"mimeType":"image/png",
			"name":"Masks2_normal",
			"uri":"tex2/Masks2_normal.png"
		},
		{
			"mimeType":"image/png",
			"name":"Masks2_baseColor",
			"uri":"tex2/Masks2_baseColor.png"
		},
		{
			"mimeType":"image/png",
			"name":"Masks2_metallicRoughness",
			"uri":"tex2/Masks2_metallicRoughness.png"
		}
	],
	"accessors":[
		{
			"bufferView":0,
			"componentType":5126,
			"count":1203,
			"max":[
				0.28406205773353577,
				0.45080140233039856,
				0.23733645677566528
			],
			"min":[
				-0.284061998128891,
				-0.45092305541038513,
				-0.17921175062656403
			],
			"type":"VEC3"
		},
		{
			"bufferView":1,
			"componentType":5126,
			"count":1203,
			"type":"VEC3"
		},
		{
			"bufferView":2,
			"componentType":5126,
			"count":1203,
			"type":"VEC2"
		},
		{
			"bufferView":3,
			"componentType":5123,
			"count":6342,
			"type":"SCALAR"
		}
	],
	"bufferViews":[
		{
			"buffer":0,
			"byteLength":14436,
			"byteOffset":0,
			"target":34962
		},
		{
			"buffer":0,
			"byteLength":14436,
			"byteOffset":14436,
			"target":34962
		},
		{
			"buffer":0,
			"byteLength":9624,
			"byteOffset":28872,
			"target":34962
		},
		{
			"buffer":0,
			"byteLength":12684,
			"byteOffset":38496,
			"target":34963
		}
	],
	"samplers":[
		{
			"magFilter":9729,
			"minFilter":9987
		}
	],
	"buffers":[
		{
			"byteLength":51180,
			"uri":"metalManMask.bin"
		}
	]
}
