{
	"asset":{
		"generator":"Khronos glTF Blender I/O v3.6.27",
		"version":"2.0"
	},
	"scene":0,
	"scenes":[
		{
			"name":"Scene",
			"nodes":[
				0
			]
		}
	],
	"nodes":[
		{
			"mesh":0,
			"name":"pencilMustache"
		}
	],
	"materials":[
		{
			"doubleSided":true,
			"name":"Pencil_Tip",
			"pbrMetallicRoughness":{
				"baseColorFactor":[
					0,
					0,
					0,
					1
				],
				"metallicFactor":0,
				"roughnessFactor":0.6000000238418579
			}
		},
		{
			"doubleSided":true,
			"name":"Pencil",
			"pbrMetallicRoughness":{
				"baseColorFactor":[
					1,
					0.4187459945678711,
					0.04658830165863037,
					1
				],
				"metallicFactor":0,
				"roughnessFactor":0.5
			}
		},
		{
			"doubleSided":true,
			"name":"Pencil_Wood",
			"pbrMetallicRoughness":{
				"baseColorFactor":[
					0.6730650067329407,
					0.4493510127067566,
					0.21821899712085724,
					1
				],
				"metallicFactor":0.10000000149011612,
				"roughnessFactor":0.699999988079071
			}
		},
		{
			"doubleSided":true,
			"name":"Pencil_Metal",
			"pbrMetallicRoughness":{
				"baseColorFactor":[
					0.800000011920929,
					0.7221779823303223,
					0.4386579990386963,
					1
				],
				"roughnessFactor":0.30000001192092896
			}
		},
		{
			"doubleSided":true,
			"name":"Pencil_Eraser",
			"pbrMetallicRoughness":{
				"baseColorFactor":[
					0.800000011920929,
					0.1236879974603653,
					0.14661100506782532,
					1
				],
				"metallicFactor":0,
				"roughnessFactor":0.5
			}
		}
	],
	"meshes":[
		{
			"name":"Object_10",
			"primitives":[
				{
					"attributes":{
						"POSITION":0,
						"NORMAL":1,
						"TEXCOORD_0":2
					},
					"indices":3,
					"material":0
				},
				{
					"attributes":{
						"POSITION":4,
						"NORMAL":5,
						"TEXCOORD_0":6
					},
					"indices":7,
					"material":1
				},
				{
					"attributes":{
						"POSITION":8,
						"NORMAL":9,
						"TEXCOORD_0":10
					},
					"indices":11,
					"material":2
				},
				{
					"attributes":{
						"POSITION":12,
						"NORMAL":13,
						"TEXCOORD_0":14
					},
					"indices":15,
					"material":3
				},
				{
					"attributes":{
						"POSITION":16,
						"NORMAL":17,
						"TEXCOORD_0":18
					},
					"indices":19,
					"material":4
				}
			]
		}
	],
	"accessors":[
		{
			"bufferView":0,
			"componentType":5126,
			"count":649,
			"max":[
				-1.0282723903656006,
				0.028818538412451744,
				0.028863072395324707
			],
			"min":[
				-1.1229442358016968,
				-0.0289128627628088,
				-0.028807612136006355
			],
			"type":"VEC3"
		},
		{
			"bufferView":1,
			"componentType":5126,
			"count":649,
			"type":"VEC3"
		},
		{
			"bufferView":2,
			"componentType":5126,
			"count":649,
			"type":"VEC2"
		},
		{
			"bufferView":3,
			"componentType":5123,
			"count":1548,
			"type":"SCALAR"
		},
		{
			"bufferView":4,
			"componentType":5126,
			"count":322,
			"max":[
				0.4313027262687683,
				0.1125161349773407,
				0.11253675818443298
			],
			"min":[
				-0.7660011053085327,
				-0.11252804845571518,
				-0.11250540614128113
			],
			"type":"VEC3"
		},
		{
			"bufferView":5,
			"componentType":5126,
			"count":322,
			"type":"VEC3"
		},
		{
			"bufferView":6,
			"componentType":5126,
			"count":322,
			"type":"VEC2"
		},
		{
			"bufferView":7,
			"componentType":5123,
			"count":1365,
			"type":"SCALAR"
		},
		{
			"bufferView":8,
			"componentType":5126,
			"count":344,
			"max":[
				-0.6716669797897339,
				0.11064901947975159,
				0.10936816036701202
			],
			"min":[
				-1.0283117294311523,
				-0.11065854877233505,
				-0.11063813418149948
			],
			"type":"VEC3"
		},
		{
			"bufferView":9,
			"componentType":5126,
			"count":344,
			"type":"VEC3"
		},
		{
			"bufferView":10,
			"componentType":5126,
			"count":344,
			"type":"VEC2"
		},
		{
			"bufferView":11,
			"componentType":5123,
			"count":1581,
			"type":"SCALAR"
		},
		{
			"bufferView":12,
			"componentType":5126,
			"count":1175,
			"max":[
				0.7113083004951477,
				0.1213500127196312,
				0.12137062102556229
			],
			"min":[
				0.43115609884262085,
				-0.12151571363210678,
				-0.12137182801961899
			],
			"type":"VEC3"
		},
		{
			"bufferView":13,
			"componentType":5126,
			"count":1175,
			"type":"VEC3"
		},
		{
			"bufferView":14,
			"componentType":5126,
			"count":1175,
			"type":"VEC2"
		},
		{
			"bufferView":15,
			"componentType":5123,
			"count":6144,
			"type":"SCALAR"
		},
		{
			"bufferView":16,
			"componentType":5126,
			"count":2161,
			"max":[
				0.8844812512397766,
				0.11251793801784515,
				0.11253856867551804
			],
			"min":[
				0.711087703704834,
				-0.11252804845571518,
				-0.1125069111585617
			],
			"type":"VEC3"
		},
		{
			"bufferView":17,
			"componentType":5126,
			"count":2161,
			"type":"VEC3"
		},
		{
			"bufferView":18,
			"componentType":5126,
			"count":2161,
			"type":"VEC2"
		},
		{
			"bufferView":19,
			"componentType":5123,
			"count":6072,
			"type":"SCALAR"
		}
	],
	"bufferViews":[
		{
			"buffer":0,
			"byteLength":7788,
			"byteOffset":0,
			"target":34962
		},
		{
			"buffer":0,
			"byteLength":7788,
			"byteOffset":7788,
			"target":34962
		},
		{
			"buffer":0,
			"byteLength":5192,
			"byteOffset":15576,
			"target":34962
		},
		{
			"buffer":0,
			"byteLength":3096,
			"byteOffset":20768,
			"target":34963
		},
		{
			"buffer":0,
			"byteLength":3864,
			"byteOffset":23864,
			"target":34962
		},
		{
			"buffer":0,
			"byteLength":3864,
			"byteOffset":27728,
			"target":34962
		},
		{
			"buffer":0,
			"byteLength":2576,
			"byteOffset":31592,
			"target":34962
		},
		{
			"buffer":0,
			"byteLength":2730,
			"byteOffset":34168,
			"target":34963
		},
		{
			"buffer":0,
			"byteLength":4128,
			"byteOffset":36900,
			"target":34962
		},
		{
			"buffer":0,
			"byteLength":4128,
			"byteOffset":41028,
			"target":34962
		},
		{
			"buffer":0,
			"byteLength":2752,
			"byteOffset":45156,
			"target":34962
		},
		{
			"buffer":0,
			"byteLength":3162,
			"byteOffset":47908,
			"target":34963
		},
		{
			"buffer":0,
			"byteLength":14100,
			"byteOffset":51072,
			"target":34962
		},
		{
			"buffer":0,
			"byteLength":14100,
			"byteOffset":65172,
			"target":34962
		},
		{
			"buffer":0,
			"byteLength":9400,
			"byteOffset":79272,
			"target":34962
		},
		{
			"buffer":0,
			"byteLength":12288,
			"byteOffset":88672,
			"target":34963
		},
		{
			"buffer":0,
			"byteLength":25932,
			"byteOffset":100960,
			"target":34962
		},
		{
			"buffer":0,
			"byteLength":25932,
			"byteOffset":126892,
			"target":34962
		},
		{
			"buffer":0,
			"byteLength":17288,
			"byteOffset":152824,
			"target":34962
		},
		{
			"buffer":0,
			"byteLength":12144,
			"byteOffset":170112,
			"target":34963
		}
	],
	"buffers":[
		{
			"byteLength":182256,
			"uri":"pencilMustache.bin"
		}
	]
}
