{
	"asset":{
		"generator":"Khronos glTF Blender I/O v3.6.27",
		"version":"2.0"
	},
	"scene":0,
	"scenes":[
		{
			"name":"Scene",
			"nodes":[
				6
			]
		}
	],
	"nodes":[
		{
			"mesh":0,
			"name":"Object_2.001"
		},
		{
			"mesh":1,
			"name":"Object_3.001"
		},
		{
			"mesh":2,
			"name":"Object_4.001"
		},
		{
			"mesh":3,
			"name":"Object_5"
		},
		{
			"mesh":4,
			"name":"Object_6"
		},
		{
			"mesh":5,
			"name":"Object_7"
		},
		{
			"children":[
				0,
				1,
				2,
				3,
				4,
				5
			],
			"name":"militaryHat"
		}
	],
	"materials":[
		{
			"doubleSided":true,
			"name":"blinn1SG.002",
			"normalTexture":{
				"index":0
			},
			"occlusionTexture":{
				"index":1
			},
			"pbrMetallicRoughness":{
				"baseColorTexture":{
					"index":2
				},
				"metallicRoughnessTexture":{
					"index":1
				}
			}
		}
	],
	"meshes":[
		{
			"name":"Object_0.010",
			"primitives":[
				{
					"attributes":{
						"POSITION":0,
						"NORMAL":1,
						"TEXCOORD_0":2
					},
					"indices":3,
					"material":0
				}
			]
		},
		{
			"name":"Object_1.008",
			"primitives":[
				{
					"attributes":{
						"POSITION":4,
						"NORMAL":5,
						"TEXCOORD_0":6
					},
					"indices":7,
					"material":0
				}
			]
		},
		{
			"name":"Object_2.001",
			"primitives":[
				{
					"attributes":{
						"POSITION":8,
						"NORMAL":9,
						"TEXCOORD_0":10
					},
					"indices":11,
					"material":0
				}
			]
		},
		{
			"name":"Object_3",
			"primitives":[
				{
					"attributes":{
						"POSITION":12,
						"NORMAL":13,
						"TEXCOORD_0":14
					},
					"indices":15,
					"material":0
				}
			]
		},
		{
			"name":"Object_4.001",
			"primitives":[
				{
					"attributes":{
						"POSITION":16,
						"NORMAL":17,
						"TEXCOORD_0":18
					},
					"indices":19,
					"material":0
				}
			]
		},
		{
			"name":"Object_5",
			"primitives":[
				{
					"attributes":{
						"POSITION":20,
						"NORMAL":21,
						"TEXCOORD_0":22
					},
					"indices":23,
					"material":0
				}
			]
		}
	],
	"textures":[
		{
			"sampler":0,
			"source":0
		},
		{
			"sampler":0,
			"source":1
		},
		{
			"sampler":0,
			"source":2
		}
	],
	"images":[
		{
			"mimeType":"image/png",
			"name":"blinn1SG_normal",
			"uri":"texs2/blinn1SG_normal.png"
		},
		{
			"mimeType":"image/png",
			"name":"blinn1SG_metallicRoughness",
			"uri":"texs2/blinn1SG_metallicRoughness.png"
		},
		{
			"mimeType":"image/jpeg",
			"name":"blinn1SG_baseColor",
			"uri":"texs2/blinn1SG_baseColor.jpg"
		}
	],
	"accessors":[
		{
			"bufferView":0,
			"componentType":5126,
			"count":10035,
			"max":[
				0.5208254456520081,
				-0.04104946553707123,
				-0.10321572422981262
			],
			"min":[
				-0.5208224058151245,
				-0.29631543159484863,
				-0.9153488874435425
			],
			"type":"VEC3"
		},
		{
			"bufferView":1,
			"componentType":5126,
			"count":10035,
			"type":"VEC3"
		},
		{
			"bufferView":2,
			"componentType":5126,
			"count":10035,
			"type":"VEC2"
		},
		{
			"bufferView":3,
			"componentType":5123,
			"count":58368,
			"type":"SCALAR"
		},
		{
			"bufferView":4,
			"componentType":5126,
			"count":3336,
			"max":[
				0.5330203175544739,
				-0.043338432908058167,
				-0.22482271492481232
			],
			"min":[
				-0.5330202579498291,
				-0.17281916737556458,
				-0.2985181510448456
			],
			"type":"VEC3"
		},
		{
			"bufferView":5,
			"componentType":5126,
			"count":3336,
			"type":"VEC3"
		},
		{
			"bufferView":6,
			"componentType":5126,
			"count":3336,
			"type":"VEC2"
		},
		{
			"bufferView":7,
			"componentType":5123,
			"count":18432,
			"type":"SCALAR"
		},
		{
			"bufferView":8,
			"componentType":5126,
			"count":12909,
			"max":[
				0.5564318895339966,
				0.1249946653842926,
				0.7590136528015137
			],
			"min":[
				-0.5557774305343628,
				-0.3767770528793335,
				-0.5635987520217896
			],
			"type":"VEC3"
		},
		{
			"bufferView":9,
			"componentType":5126,
			"count":12909,
			"type":"VEC3"
		},
		{
			"bufferView":10,
			"componentType":5126,
			"count":12909,
			"type":"VEC2"
		},
		{
			"bufferView":11,
			"componentType":5123,
			"count":76032,
			"type":"SCALAR"
		},
		{
			"bufferView":12,
			"componentType":5126,
			"count":16312,
			"max":[
				0.57095867395401,
				0.027787640690803528,
				-0.040550440549850464
			],
			"min":[
				-0.5710853934288025,
				-0.2090468406677246,
				-0.6414027214050293
			],
			"type":"VEC3"
		},
		{
			"bufferView":13,
			"componentType":5126,
			"count":16312,
			"type":"VEC3"
		},
		{
			"bufferView":14,
			"componentType":5126,
			"count":16312,
			"type":"VEC2"
		},
		{
			"bufferView":15,
			"componentType":5123,
			"count":95232,
			"type":"SCALAR"
		},
		{
			"bufferView":16,
			"componentType":5126,
			"count":27332,
			"max":[
				0.7494679093360901,
				0.5956190228462219,
				0.9759151339530945
			],
			"min":[
				-0.7485531568527222,
				-0.38228529691696167,
				-0.612170934677124
			],
			"type":"VEC3"
		},
		{
			"bufferView":17,
			"componentType":5126,
			"count":27332,
			"type":"VEC3"
		},
		{
			"bufferView":18,
			"componentType":5126,
			"count":27332,
			"type":"VEC2"
		},
		{
			"bufferView":19,
			"componentType":5123,
			"count":160512,
			"type":"SCALAR"
		},
		{
			"bufferView":20,
			"componentType":5126,
			"count":12817,
			"max":[
				0.588954746723175,
				-0.10363546758890152,
				-0.041337449103593826
			],
			"min":[
				-0.5889548659324646,
				-0.2060663104057312,
				-0.1436689794063568
			],
			"type":"VEC3"
		},
		{
			"bufferView":21,
			"componentType":5126,
			"count":12817,
			"type":"VEC3"
		},
		{
			"bufferView":22,
			"componentType":5126,
			"count":12817,
			"type":"VEC2"
		},
		{
			"bufferView":23,
			"componentType":5123,
			"count":53760,
			"type":"SCALAR"
		}
	],
	"bufferViews":[
		{
			"buffer":0,
			"byteLength":120420,
			"byteOffset":0,
			"target":34962
		},
		{
			"buffer":0,
			"byteLength":120420,
			"byteOffset":120420,
			"target":34962
		},
		{
			"buffer":0,
			"byteLength":80280,
			"byteOffset":240840,
			"target":34962
		},
		{
			"buffer":0,
			"byteLength":116736,
			"byteOffset":321120,
			"target":34963
		},
		{
			"buffer":0,
			"byteLength":40032,
			"byteOffset":437856,
			"target":34962
		},
		{
			"buffer":0,
			"byteLength":40032,
			"byteOffset":477888,
			"target":34962
		},
		{
			"buffer":0,
			"byteLength":26688,
			"byteOffset":517920,
			"target":34962
		},
		{
			"buffer":0,
			"byteLength":36864,
			"byteOffset":544608,
			"target":34963
		},
		{
			"buffer":0,
			"byteLength":154908,
			"byteOffset":581472,
			"target":34962
		},
		{
			"buffer":0,
			"byteLength":154908,
			"byteOffset":736380,
			"target":34962
		},
		{
			"buffer":0,
			"byteLength":103272,
			"byteOffset":891288,
			"target":34962
		},
		{
			"buffer":0,
			"byteLength":152064,
			"byteOffset":994560,
			"target":34963
		},
		{
			"buffer":0,
			"byteLength":195744,
			"byteOffset":1146624,
			"target":34962
		},
		{
			"buffer":0,
			"byteLength":195744,
			"byteOffset":1342368,
			"target":34962
		},
		{
			"buffer":0,
			"byteLength":130496,
			"byteOffset":1538112,
			"target":34962
		},
		{
			"buffer":0,
			"byteLength":190464,
			"byteOffset":1668608,
			"target":34963
		},
		{
			"buffer":0,
			"byteLength":327984,
			"byteOffset":1859072,
			"target":34962
		},
		{
			"buffer":0,
			"byteLength":327984,
			"byteOffset":2187056,
			"target":34962
		},
		{
			"buffer":0,
			"byteLength":218656,
			"byteOffset":2515040,
			"target":34962
		},
		{
			"buffer":0,
			"byteLength":321024,
			"byteOffset":2733696,
			"target":34963
		},
		{
			"buffer":0,
			"byteLength":153804,
			"byteOffset":3054720,
			"target":34962
		},
		{
			"buffer":0,
			"byteLength":153804,
			"byteOffset":3208524,
			"target":34962
		},
		{
			"buffer":0,
			"byteLength":102536,
			"byteOffset":3362328,
			"target":34962
		},
		{
			"buffer":0,
			"byteLength":107520,
			"byteOffset":3464864,
			"target":34963
		}
	],
	"samplers":[
		{
			"magFilter":9729,
			"minFilter":9987
		}
	],
	"buffers":[
		{
			"byteLength":3572384,
			"uri":"militaryHat.bin"
		}
	]
}
