{
	"asset":{
		"generator":"Khronos glTF Blender I/O v3.6.27",
		"version":"2.0"
	},
	"scene":0,
	"scenes":[
		{
			"name":"Scene",
			"nodes":[
				0
			]
		}
	],
	"nodes":[
		{
			"mesh":0,
			"name":"aviatorGoggles"
		}
	],
	"materials":[
		{
			"emissiveTexture":{
				"index":0
			},
			"name":"goggles.001",
			"normalTexture":{
				"index":1
			},
			"pbrMetallicRoughness":{
				"baseColorTexture":{
					"index":2
				},
				"metallicRoughnessTexture":{
					"index":3
				},
				"roughnessFactor":0.20000000298023224
			}
		}
	],
	"meshes":[
		{
			"name":"Object_1",
			"primitives":[
				{
					"attributes":{
						"POSITION":0,
						"NORMAL":1,
						"TEXCOORD_0":2
					},
					"indices":3,
					"material":0
				}
			]
		}
	],
	"textures":[
		{
			"sampler":0,
			"source":0
		},
		{
			"sampler":0,
			"source":1
		},
		{
			"sampler":0,
			"source":0
		},
		{
			"sampler":0,
			"source":2
		}
	],
	"images":[
		{
			"mimeType":"image/png",
			"name":"goggles_baseColor",
			"uri":"texs/goggles_baseColor.png"
		},
		{
			"mimeType":"image/png",
			"name":"goggles_normal",
			"uri":"texs/goggles_normal.png"
		},
		{
			"mimeType":"image/png",
			"name":"goggles_metallicRoughness",
			"uri":"texs/goggles_metallicRoughness.png"
		}
	],
	"accessors":[
		{
			"bufferView":0,
			"componentType":5126,
			"count":2048,
			"max":[
				0.7132824659347534,
				0.26418524980545044,
				0.8605837225914001
			],
			"min":[
				-0.7184751629829407,
				-0.19037017226219177,
				-0.784171998500824
			],
			"type":"VEC3"
		},
		{
			"bufferView":1,
			"componentType":5126,
			"count":2048,
			"type":"VEC3"
		},
		{
			"bufferView":2,
			"componentType":5126,
			"count":2048,
			"type":"VEC2"
		},
		{
			"bufferView":3,
			"componentType":5123,
			"count":7368,
			"type":"SCALAR"
		}
	],
	"bufferViews":[
		{
			"buffer":0,
			"byteLength":24576,
			"byteOffset":0,
			"target":34962
		},
		{
			"buffer":0,
			"byteLength":24576,
			"byteOffset":24576,
			"target":34962
		},
		{
			"buffer":0,
			"byteLength":16384,
			"byteOffset":49152,
			"target":34962
		},
		{
			"buffer":0,
			"byteLength":14736,
			"byteOffset":65536,
			"target":34963
		}
	],
	"samplers":[
		{
			"magFilter":9729,
			"minFilter":9987
		}
	],
	"buffers":[
		{
			"byteLength":80272,
			"uri":"aviatorGoggles.bin"
		}
	]
}
