{
	"asset":{
		"generator":"Khronos glTF Blender I/O v3.6.27",
		"version":"2.0"
	},
	"extensionsUsed":[
		"KHR_materials_clearcoat",
		"KHR_materials_specular"
	],
	"scene":0,
	"scenes":[
		{
			"name":"Scene",
			"nodes":[
				2
			]
		}
	],
	"nodes":[
		{
			"mesh":0,
			"name":"Object_2"
		},
		{
			"mesh":1,
			"name":"Object_3"
		},
		{
			"children":[
				0,
				1
			],
			"name":"militaryTacticalGlasses"
		}
	],
	"materials":[
		{
			"alphaMode":"BLEND",
			"doubleSided":true,
			"extensions":{
				"KHR_materials_clearcoat":{
					"clearcoatFactor":1,
					"clearcoatRoughnessFactor":0.03999999910593033
				},
				"KHR_materials_specular":{
					"specularColorFactor":[
						0.9999999999999994,
						1,
						1.0000000000000004
					]
				}
			},
			"name":"material",
			"occlusionTexture":{
				"index":0
			},
			"pbrMetallicRoughness":{
				"baseColorFactor":[
					0.00800570659339428,
					0.010057579725980759,
					0.01175063755363226,
					0.9066694378852844
				],
				"metallicFactor":0.1508575975894928,
				"metallicRoughnessTexture":{
					"index":0
				},
				"roughnessFactor":0
			}
		},
		{
			"extensions":{
				"KHR_materials_specular":{
					"specularColorTexture":{
						"index":1
					}
				}
			},
			"name":"default",
			"normalTexture":{
				"index":2
			},
			"pbrMetallicRoughness":{
				"baseColorTexture":{
					"index":3
				},
				"metallicFactor":0,
				"metallicRoughnessTexture":{
					"index":4
				},
				"roughnessFactor":0.23619119822978973
			}
		}
	],
	"meshes":[
		{
			"name":"Object_0.008",
			"primitives":[
				{
					"attributes":{
						"POSITION":0,
						"NORMAL":1,
						"TEXCOORD_0":2
					},
					"indices":3,
					"material":0
				}
			]
		},
		{
			"name":"Object_1.007",
			"primitives":[
				{
					"attributes":{
						"POSITION":4,
						"NORMAL":5,
						"TEXCOORD_0":6
					},
					"indices":7,
					"material":1
				}
			]
		}
	],
	"textures":[
		{
			"sampler":0,
			"source":0
		},
		{
			"sampler":0,
			"source":1
		},
		{
			"sampler":0,
			"source":2
		},
		{
			"sampler":0,
			"source":3
		},
		{
			"sampler":0,
			"source":4
		}
	],
	"images":[
		{
			"mimeType":"image/png",
			"name":"material_metallicRoughness",
			"uri":"texs/material_metallicRoughness.png"
		},
		{
			"mimeType":"image/png",
			"name":"Image",
			"uri":"texs/Image.png"
		},
		{
			"mimeType":"image/png",
			"name":"default_normal",
			"uri":"texs/default_normal.png"
		},
		{
			"mimeType":"image/jpeg",
			"name":"default_baseColor",
			"uri":"texs/default_baseColor.jpg"
		},
		{
			"mimeType":"image/png",
			"name":"default_metallicRoughness",
			"uri":"texs/default_metallicRoughness.png"
		}
	],
	"accessors":[
		{
			"bufferView":0,
			"componentType":5126,
			"count":107,
			"max":[
				0.6175975203514099,
				0.5469188690185547,
				0.22779221832752228
			],
			"min":[
				-0.6203792095184326,
				-0.06866075098514557,
				0.06511205434799194
			],
			"type":"VEC3"
		},
		{
			"bufferView":1,
			"componentType":5126,
			"count":107,
			"type":"VEC3"
		},
		{
			"bufferView":2,
			"componentType":5126,
			"count":107,
			"type":"VEC2"
		},
		{
			"bufferView":3,
			"componentType":5123,
			"count":528,
			"type":"SCALAR"
		},
		{
			"bufferView":4,
			"componentType":5126,
			"count":8175,
			"max":[
				0.787545382976532,
				0.5632815361022949,
				1.8804728984832764
			],
			"min":[
				-0.7892957329750061,
				-0.12923741340637207,
				-0.007015069480985403
			],
			"type":"VEC3"
		},
		{
			"bufferView":5,
			"componentType":5126,
			"count":8175,
			"type":"VEC3"
		},
		{
			"bufferView":6,
			"componentType":5126,
			"count":8175,
			"type":"VEC2"
		},
		{
			"bufferView":7,
			"componentType":5123,
			"count":32223,
			"type":"SCALAR"
		}
	],
	"bufferViews":[
		{
			"buffer":0,
			"byteLength":1284,
			"byteOffset":0,
			"target":34962
		},
		{
			"buffer":0,
			"byteLength":1284,
			"byteOffset":1284,
			"target":34962
		},
		{
			"buffer":0,
			"byteLength":856,
			"byteOffset":2568,
			"target":34962
		},
		{
			"buffer":0,
			"byteLength":1056,
			"byteOffset":3424,
			"target":34963
		},
		{
			"buffer":0,
			"byteLength":98100,
			"byteOffset":4480,
			"target":34962
		},
		{
			"buffer":0,
			"byteLength":98100,
			"byteOffset":102580,
			"target":34962
		},
		{
			"buffer":0,
			"byteLength":65400,
			"byteOffset":200680,
			"target":34962
		},
		{
			"buffer":0,
			"byteLength":64446,
			"byteOffset":266080,
			"target":34963
		}
	],
	"samplers":[
		{
			"magFilter":9729,
			"minFilter":9987
		}
	],
	"buffers":[
		{
			"byteLength":330528,
			"uri":"militaryTacticalGlasses.bin"
		}
	]
}
