{
  "accessors": [
    {
      "bufferView": 2,
      "componentType": 5126,
      "count": 107,
      "max": [
        347.29107666015625,
        127.5191650390625,
        306.1678161621094
      ],
      "min": [
        -345.73388671875,
        36.450042724609375,
        -38.436607360839844
      ],
      "type": "VEC3"
    },
    {
      "bufferView": 2,
      "byteOffset": 1284,
      "componentType": 5126,
      "count": 107,
      "max": [
        0.4180055558681488,
        -0.892424464225769,
        0.033407021313905716
      ],
      "min": [
        -0.45107170939445496,
        -0.9999927282333374,
        -0.042781881988048553
      ],
      "type": "VEC3"
    },
    {
      "bufferView": 1,
      "componentType": 5126,
      "count": 107,
      "max": [
        0.9950000047683716,
        0.46881306171417236
      ],
      "min": [
        0.7118059992790222,
        0.32799601554870605
      ],
      "type": "VEC2"
    },
    {
      "bufferView": 0,
      "componentType": 5125,
      "count": 528,
      "type": "SCALAR"
    },
    {
      "bufferView": 2,
      "byteOffset": 2568,
      "componentType": 5126,
      "count": 9893,
      "max": [
        441.85137939453125,
        1052.69775390625,
        315.32769775390625
      ],
      "min": [
        -440.87139892578125,
        -3.92706298828125,
        -72.34770965576172
      ],
      "type": "VEC3"
    },
    {
      "bufferView": 2,
      "byteOffset": 121284,
      "componentType": 5126,
      "count": 9893,
      "max": [
        0.9999614357948303,
        0.9999985694885254,
        1.0
      ],
      "min": [
        -0.9999381899833679,
        -0.9999408721923828,
        -1.0
      ],
      "type": "VEC3"
    },
    {
      "bufferView": 3,
      "componentType": 5126,
      "count": 9893,
      "max": [
        1.0,
        1.0,
        1.0,
        1.0
      ],
      "min": [
        -1.0,
        -1.0,
        -1.0,
        -1.0
      ],
      "type": "VEC4"
    },
    {
      "bufferView": 1,
      "byteOffset": 856,
      "componentType": 5126,
      "count": 9893,
      "max": [
        0.8559420108795166,
        0.8654789924621582
      ],
      "min": [
        0.004999999888241291,
        0.004999995231628418
      ],
      "type": "VEC2"
    },
    {
      "bufferView": 0,
      "byteOffset": 2112,
      "componentType": 5125,
      "count": 37356,
      "type": "SCALAR"
    },
    {
      "bufferView": 2,
      "byteOffset": 240000,
      "componentType": 5126,
      "count": 1395,
      "max": [
        304.74884033203125,
        999.2537841796875,
        164.0069122314453
      ],
      "min": [
        -304.748779296875,
        937.0623168945313,
        0.1848219931125641
      ],
      "type": "VEC3"
    },
    {
      "bufferView": 2,
      "byteOffset": 256740,
      "componentType": 5126,
      "count": 1395,
      "max": [
        0.9955542683601379,
        0.9989628791809082,
        1.0
      ],
      "min": [
        -0.9955455660820007,
        -0.9986761808395386,
        -1.0
      ],
      "type": "VEC3"
    },
    {
      "bufferView": 3,
      "byteOffset": 158288,
      "componentType": 5126,
      "count": 1395,
      "max": [
        0.9989318251609802,
        1.0,
        1.0,
        1.0
      ],
      "min": [
        -0.9989855289459229,
        -1.0,
        -1.0,
        -1.0
      ],
      "type": "VEC4"
    },
    {
      "bufferView": 1,
      "byteOffset": 80000,
      "componentType": 5126,
      "count": 1395,
      "max": [
        0.3552449941635132,
        0.42578601837158203
      ],
      "min": [
        0.004999999888241291,
        0.004999995231628418
      ],
      "type": "VEC2"
    },
    {
      "bufferView": 0,
      "byteOffset": 151536,
      "componentType": 5125,
      "count": 4248,
      "type": "SCALAR"
    }
  ],
  "asset": {
    "extras": {
      "author": "Idmenthal (https://sketchfab.com/idmental.id)",
      "license": "CC-BY-4.0 (http://creativecommons.org/licenses/by/4.0/)",
      "source": "https://sketchfab.com/3d-models/military-tactical-glasses-a2da6f0d72414168bd5b4de964812973",
      "title": "Military Tactical Glasses"
    },
    "generator": "Sketchfab-15.61.0",
    "version": "2.0"
  },
  "bufferViews": [
    {
      "buffer": 0,
      "byteLength": 168528,
      "name": "floatBufferViews",
      "target": 34963
    },
    {
      "buffer": 0,
      "byteLength": 91160,
      "byteOffset": 168528,
      "byteStride": 8,
      "name": "floatBufferViews",
      "target": 34962
    },
    {
      "buffer": 0,
      "byteLength": 273480,
      "byteOffset": 259688,
      "byteStride": 12,
      "name": "floatBufferViews",
      "target": 34962
    },
    {
      "buffer": 0,
      "byteLength": 180608,
      "byteOffset": 533168,
      "byteStride": 16,
      "name": "floatBufferViews",
      "target": 34962
    }
  ],
  "buffers": [
    {
      "byteLength": 713776,
      "uri": "scene.bin"
    }
  ],
  "extensionsUsed": [
    "KHR_materials_clearcoat",
    "KHR_materials_specular"
  ],
  "images": [
    {
      "uri": "textures/material_metallicRoughness.png"
    },
    {
      "uri": "textures/default_baseColor.jpeg"
    },
    {
      "uri": "textures/default_metallicRoughness.png"
    },
    {
      "uri": "textures/default_normal.png"
    },
    {
      "uri": "textures/default_specularf0.png"
    }
  ],
  "materials": [
    {
      "alphaMode": "BLEND",
      "doubleSided": true,
      "extensions": {
        "KHR_materials_clearcoat": {
          "clearcoatFactor": 1.0,
          "clearcoatRoughnessFactor": 0.04
        },
        "KHR_materials_specular": {
          "specularColorFactor": [
            1.0,
            1.0,
            1.0
          ],
          "specularFactor": 0.6262876229718033
        }
      },
      "name": "material",
      "occlusionTexture": {
        "index": 0
      },
      "pbrMetallicRoughness": {
        "baseColorFactor": [
          0.008005706699109988,
          0.010057579715689439,
          0.011750637479589597,
          0.9066694298496909
        ],
        "metallicFactor": 0.15085760261364606,
        "metallicRoughnessTexture": {
          "index": 0
        },
        "roughnessFactor": 0.0
      }
    },
    {
      "doubleSided": true,
      "extensions": {
        "KHR_materials_specular": {
          "specularColorFactor": [
            1.0,
            1.0,
            1.0
          ],
          "specularFactor": 1.0,
          "specularTexture": {
            "index": 4
          }
        }
      },
      "name": "default",
      "normalTexture": {
        "index": 3
      },
      "pbrMetallicRoughness": {
        "baseColorTexture": {
          "index": 1
        },
        "metallicFactor": 0.0,
        "metallicRoughnessTexture": {
          "index": 2
        },
        "roughnessFactor": 0.236191196011264
      }
    }
  ],
  "meshes": [
    {
      "name": "Object_0",
      "primitives": [
        {
          "attributes": {
            "NORMAL": 1,
            "POSITION": 0,
            "TEXCOORD_0": 2
          },
          "indices": 3,
          "material": 0,
          "mode": 4
        }
      ]
    },
    {
      "name": "Object_1",
      "primitives": [
        {
          "attributes": {
            "NORMAL": 5,
            "POSITION": 4,
            "TANGENT": 6,
            "TEXCOORD_0": 7
          },
          "indices": 8,
          "material": 1,
          "mode": 4
        }
      ]
    },
    {
      "name": "Object_2",
      "primitives": [
        {
          "attributes": {
            "NORMAL": 10,
            "POSITION": 9,
            "TANGENT": 11,
            "TEXCOORD_0": 12
          },
          "indices": 13,
          "material": 1,
          "mode": 4
        }
      ]
    }
  ],
  "nodes": [
    {
      "children": [
        1
      ],
      "matrix": [
        1.0,
        0.0,
        0.0,
        0.0,
        0.0,
        2.220446049250313e-16,
        -1.0,
        0.0,
        0.0,
        1.0,
        2.220446049250313e-16,
        0.0,
        0.0,
        0.0,
        0.0,
        1.0
      ],
      "name": "Sketchfab_model"
    },
    {
      "children": [
        2,
        3,
        4
      ],
      "name": "PAINTED2.obj.cleaner.materialmerger.gles"
    },
    {
      "mesh": 0,
      "name": "Object_2"
    },
    {
      "mesh": 1,
      "name": "Object_3"
    },
    {
      "mesh": 2,
      "name": "Object_4"
    }
  ],
  "samplers": [
    {
      "magFilter": 9729,
      "minFilter": 9987,
      "wrapS": 10497,
      "wrapT": 10497
    }
  ],
  "scene": 0,
  "scenes": [
    {
      "name": "Sketchfab_Scene",
      "nodes": [
        0
      ]
    }
  ],
  "textures": [
    {
      "sampler": 0,
      "source": 0
    },
    {
      "sampler": 0,
      "source": 1
    },
    {
      "sampler": 0,
      "source": 2
    },
    {
      "sampler": 0,
      "source": 3
    },
    {
      "sampler": 0,
      "source": 4
    }
  ]
}
