{
	"asset":{
		"generator":"Khronos glTF Blender I/O v3.6.27",
		"version":"2.0"
	},
	"scene":0,
	"scenes":[
		{
			"name":"Scene",
			"nodes":[
				0
			]
		}
	],
	"nodes":[
		{
			"mesh":0,
			"name":"clownFaceMask"
		}
	],
	"materials":[
		{
			"name":"Masks2",
			"normalTexture":{
				"index":0
			},
			"pbrMetallicRoughness":{
				"baseColorTexture":{
					"index":1
				},
				"metallicRoughnessTexture":{
					"index":2
				}
			}
		}
	],
	"meshes":[
		{
			"name":"Object_0",
			"primitives":[
				{
					"attributes":{
						"POSITION":0,
						"NORMAL":1,
						"TEXCOORD_0":2
					},
					"indices":3,
					"material":0
				}
			]
		}
	],
	"textures":[
		{
			"sampler":0,
			"source":0
		},
		{
			"sampler":0,
			"source":1
		},
		{
			"sampler":0,
			"source":2
		}
	],
	"images":[
		{
			"mimeType":"image/png",
			"name":"Masks2_normal",
			"uri":"texs/Masks2_normal.png"
		},
		{
			"mimeType":"image/png",
			"name":"Masks2_baseColor",
			"uri":"texs/Masks2_baseColor.png"
		},
		{
			"mimeType":"image/png",
			"name":"Masks2_metallicRoughness",
			"uri":"texs/Masks2_metallicRoughness.png"
		}
	],
	"accessors":[
		{
			"bufferView":0,
			"componentType":5126,
			"count":1191,
			"max":[
				0.39203977584838867,
				0.5747619271278381,
				0.24130381643772125
			],
			"min":[
				-0.39203962683677673,
				-0.6220158338546753,
				-0.3685847818851471
			],
			"type":"VEC3"
		},
		{
			"bufferView":1,
			"componentType":5126,
			"count":1191,
			"type":"VEC3"
		},
		{
			"bufferView":2,
			"componentType":5126,
			"count":1191,
			"type":"VEC2"
		},
		{
			"bufferView":3,
			"componentType":5123,
			"count":6183,
			"type":"SCALAR"
		}
	],
	"bufferViews":[
		{
			"buffer":0,
			"byteLength":14292,
			"byteOffset":0,
			"target":34962
		},
		{
			"buffer":0,
			"byteLength":14292,
			"byteOffset":14292,
			"target":34962
		},
		{
			"buffer":0,
			"byteLength":9528,
			"byteOffset":28584,
			"target":34962
		},
		{
			"buffer":0,
			"byteLength":12366,
			"byteOffset":38112,
			"target":34963
		}
	],
	"samplers":[
		{
			"magFilter":9729,
			"minFilter":9987
		}
	],
	"buffers":[
		{
			"byteLength":50480,
			"uri":"clownMask.bin"
		}
	]
}
