{
  "asset": {
    "generator": "Khronos glTF Blender I/O v3.6.27",
    "version": "2.0"
  },
  "scene": 0,
  "scenes": [
    {
      "name": "Scene",
      "nodes": [0]
    }
  ],
  "nodes": [
    {
      "mesh": 0,
      "name": "woodPaintedFaceMask"
    }
  ],
  "materials": [
    {
      "name": "Masks3",
      "normalTexture": {
        "index": 0
      },
      "pbrMetallicRoughness": {
        "baseColorTexture": {
          "index": 1
        },
        "metallicRoughnessTexture": {
          "index": 2
        }
      }
    }
  ],
  "meshes": [
    {
      "name": "Object_2",
      "primitives": [
        {
          "attributes": {
            "POSITION": 0,
            "NORMAL": 1,
            "TEXCOORD_0": 2
          },
          "indices": 3,
          "material": 0
        }
      ]
    }
  ],
  "textures": [
    {
      "sampler": 0,
      "source": 0
    },
    {
      "sampler": 0,
      "source": 1
    },
    {
      "sampler": 0,
      "source": 2
    }
  ],
  "images": [
    {
      "mimeType": "image/png",
      "name": "Masks3_normal",
      "uri": "texs/Masks3_normal.png"
    },
    {
      "mimeType": "image/png",
      "name": "Masks3_baseColor",
      "uri": "texs/Masks3_baseColor.png"
    },
    {
      "mimeType": "image/png",
      "name": "Masks3_metallicRoughness",
      "uri": "texs/Masks3_metallicRoughness.png"
    }
  ],
  "accessors": [
    {
      "bufferView": 0,
      "componentType": 5126,
      "count": 1442,
      "max": [0.36816489696502686, 0.507824182510376, 0.3375849723815918],
      "min": [-0.36813414096832275, -0.48860493302345276, -0.23530861735343933],
      "type": "VEC3"
    },
    {
      "bufferView": 1,
      "componentType": 5126,
      "count": 1442,
      "type": "VEC3"
    },
    {
      "bufferView": 2,
      "componentType": 5126,
      "count": 1442,
      "type": "VEC2"
    },
    {
      "bufferView": 3,
      "componentType": 5123,
      "count": 6003,
      "type": "SCALAR"
    }
  ],
  "bufferViews": [
    {
      "buffer": 0,
      "byteLength": 17304,
      "byteOffset": 0,
      "target": 34962
    },
    {
      "buffer": 0,
      "byteLength": 17304,
      "byteOffset": 17304,
      "target": 34962
    },
    {
      "buffer": 0,
      "byteLength": 11536,
      "byteOffset": 34608,
      "target": 34962
    },
    {
      "buffer": 0,
      "byteLength": 12006,
      "byteOffset": 46144,
      "target": 34963
    }
  ],
  "samplers": [
    {
      "magFilter": 9729,
      "minFilter": 9987
    }
  ],
  "buffers": [
    {
      "byteLength": 58152,
      "uri": "woodPaintedMask.bin"
    }
  ]
}
