{
  "asset": {
    "generator": "Khronos glTF Blender I/O v3.6.27",
    "version": "2.0"
  },
  "scene": 0,
  "scenes": [
    {
      "name": "Scene",
      "nodes": [2]
    }
  ],
  "nodes": [
    {
      "mesh": 0,
      "name": "beard"
    },
    {
      "mesh": 1,
      "name": "mustache"
    },
    {
      "children": [0, 1],
      "name": "fullBeard"
    }
  ],
  "materials": [
    {
      "doubleSided": true,
      "name": "Beard.001",
      "normalTexture": {
        "index": 0
      },
      "pbrMetallicRoughness": {
        "baseColorTexture": {
          "index": 1
        },
        "metallicFactor": 0,
        "metallicRoughnessTexture": {
          "index": 2
        }
      }
    },
    {
      "doubleSided": true,
      "name": "Mustache.001",
      "normalTexture": {
        "index": 3
      },
      "pbrMetallicRoughness": {
        "baseColorTexture": {
          "index": 4
        },
        "metallicFactor": 0,
        "metallicRoughnessTexture": {
          "index": 5
        }
      }
    }
  ],
  "meshes": [
    {
      "name": "Sphere.002_Beard_0",
      "primitives": [
        {
          "attributes": {
            "POSITION": 0,
            "NORMAL": 1,
            "TEXCOORD_0": 2,
            "TEXCOORD_1": 3,
            "TEXCOORD_2": 4
          },
          "indices": 5,
          "material": 0
        }
      ]
    },
    {
      "name": "Sphere.003_Mustache_0.001",
      "primitives": [
        {
          "attributes": {
            "POSITION": 6,
            "NORMAL": 7,
            "TEXCOORD_0": 8,
            "TEXCOORD_1": 9,
            "TEXCOORD_2": 10
          },
          "indices": 11,
          "material": 1
        }
      ]
    }
  ],
  "textures": [
    {
      "sampler": 0,
      "source": 0
    },
    {
      "sampler": 0,
      "source": 1
    },
    {
      "sampler": 0,
      "source": 2
    },
    {
      "sampler": 0,
      "source": 3
    },
    {
      "sampler": 0,
      "source": 4
    },
    {
      "sampler": 0,
      "source": 5
    }
  ],
  "images": [
    {
      "mimeType": "image/png",
      "name": "Beard_normal",
      "uri": "texs/Beard_normal.png"
    },
    {
      "mimeType": "image/png",
      "name": "Beard_baseColor",
      "uri": "texs/Beard_baseColor.png"
    },
    {
      "mimeType": "image/png",
      "name": "Beard_metallicRoughness",
      "uri": "texs/Beard_metallicRoughness.png"
    },
    {
      "mimeType": "image/png",
      "name": "Mustache_normal",
      "uri": "texs/Mustache_normal.png"
    },
    {
      "mimeType": "image/png",
      "name": "Mustache_baseColor",
      "uri": "texs/Mustache_baseColor.png"
    },
    {
      "mimeType": "image/png",
      "name": "Mustache_metallicRoughness",
      "uri": "texs/Mustache_metallicRoughness.png"
    }
  ],
  "accessors": [
    {
      "bufferView": 0,
      "componentType": 5126,
      "count": 4136,
      "max": [0.5671515464782715, 1.0311301946640015, 0.4429689943790436],
      "min": [-0.5781969428062439, -0.891385018825531, -0.35328876972198486],
      "type": "VEC3"
    },
    {
      "bufferView": 1,
      "componentType": 5126,
      "count": 4136,
      "type": "VEC3"
    },
    {
      "bufferView": 2,
      "componentType": 5126,
      "count": 4136,
      "type": "VEC2"
    },
    {
      "bufferView": 3,
      "componentType": 5126,
      "count": 4136,
      "type": "VEC2"
    },
    {
      "bufferView": 4,
      "componentType": 5126,
      "count": 4136,
      "type": "VEC2"
    },
    {
      "bufferView": 5,
      "componentType": 5123,
      "count": 23259,
      "type": "SCALAR"
    },
    {
      "bufferView": 6,
      "componentType": 5126,
      "count": 1964,
      "max": [0.4244491755962372, 0.5200204849243164, -0.08122974634170532],
      "min": [-0.45736822485923767, 0.1346588134765625, -0.3774196207523346],
      "type": "VEC3"
    },
    {
      "bufferView": 7,
      "componentType": 5126,
      "count": 1964,
      "type": "VEC3"
    },
    {
      "bufferView": 8,
      "componentType": 5126,
      "count": 1964,
      "type": "VEC2"
    },
    {
      "bufferView": 9,
      "componentType": 5126,
      "count": 1964,
      "type": "VEC2"
    },
    {
      "bufferView": 10,
      "componentType": 5126,
      "count": 1964,
      "type": "VEC2"
    },
    {
      "bufferView": 11,
      "componentType": 5123,
      "count": 10794,
      "type": "SCALAR"
    }
  ],
  "bufferViews": [
    {
      "buffer": 0,
      "byteLength": 49632,
      "byteOffset": 0,
      "target": 34962
    },
    {
      "buffer": 0,
      "byteLength": 49632,
      "byteOffset": 49632,
      "target": 34962
    },
    {
      "buffer": 0,
      "byteLength": 33088,
      "byteOffset": 99264,
      "target": 34962
    },
    {
      "buffer": 0,
      "byteLength": 33088,
      "byteOffset": 132352,
      "target": 34962
    },
    {
      "buffer": 0,
      "byteLength": 33088,
      "byteOffset": 165440,
      "target": 34962
    },
    {
      "buffer": 0,
      "byteLength": 46518,
      "byteOffset": 198528,
      "target": 34963
    },
    {
      "buffer": 0,
      "byteLength": 23568,
      "byteOffset": 245048,
      "target": 34962
    },
    {
      "buffer": 0,
      "byteLength": 23568,
      "byteOffset": 268616,
      "target": 34962
    },
    {
      "buffer": 0,
      "byteLength": 15712,
      "byteOffset": 292184,
      "target": 34962
    },
    {
      "buffer": 0,
      "byteLength": 15712,
      "byteOffset": 307896,
      "target": 34962
    },
    {
      "buffer": 0,
      "byteLength": 15712,
      "byteOffset": 323608,
      "target": 34962
    },
    {
      "buffer": 0,
      "byteLength": 21588,
      "byteOffset": 339320,
      "target": 34963
    }
  ],
  "samplers": [
    {
      "magFilter": 9729,
      "minFilter": 9987
    }
  ],
  "buffers": [
    {
      "byteLength": 360908,
      "uri": "fullBeard.bin"
    }
  ]
}
