<?xml version="1.0" encoding="UTF-8" standalone="no"?>
<svg
   width="32"
   height="32"
   viewBox="0 0 24.002959 24.002976"
   version="1.1"
   id="svg1"
   sodipodi:docname="threeDim_americaGlassesOffIcon.svg"
   inkscape:version="1.3.2 (091e20e, 2023-11-25, custom)"
   xmlns:inkscape="http://www.inkscape.org/namespaces/inkscape"
   xmlns:sodipodi="http://sodipodi.sourceforge.net/DTD/sodipodi-0.dtd"
   xmlns:xlink="http://www.w3.org/1999/xlink"
   xmlns="http://www.w3.org/2000/svg"
   xmlns:svg="http://www.w3.org/2000/svg">
  <defs
     id="defs1">
    <linearGradient
       id="linearGradient48"
       inkscape:collect="always">
      <stop
         style="stop-color:#2e91f5;stop-opacity:0.40476191;"
         offset="0"
         id="stop49" />
      <stop
         style="stop-color:#2e91f5;stop-opacity:0.85064936;"
         offset="1"
         id="stop48" />
    </linearGradient>
    <linearGradient
       id="linearGradient35"
       inkscape:collect="always">
      <stop
         style="stop-color:#f56314;stop-opacity:0.84632033;"
         offset="0"
         id="stop35" />
      <stop
         style="stop-color:#f56314;stop-opacity:0.4025974;"
         offset="1"
         id="stop36" />
    </linearGradient>
    <linearGradient
       inkscape:collect="always"
       xlink:href="#linearGradient35"
       id="linearGradient36"
       x1="0.18752318"
       y1="12.001484"
       x2="22.690304"
       y2="12.001484"
       gradientUnits="userSpaceOnUse" />
    <linearGradient
       inkscape:collect="always"
       xlink:href="#linearGradient48"
       id="linearGradient49"
       x1="1.3126623"
       y1="11.251137"
       x2="23.815443"
       y2="11.251137"
       gradientUnits="userSpaceOnUse" />
  </defs>
  <sodipodi:namedview
     id="namedview1"
     pagecolor="#ffffff"
     bordercolor="#000000"
     borderopacity="0.25"
     inkscape:showpageshadow="2"
     inkscape:pageopacity="0.0"
     inkscape:pagecheckerboard="0"
     inkscape:deskcolor="#d1d1d1"
     inkscape:document-units="mm"
     inkscape:zoom="22.627417"
     inkscape:cx="12.772116"
     inkscape:cy="11.114835"
     inkscape:window-width="1920"
     inkscape:window-height="1009"
     inkscape:window-x="-8"
     inkscape:window-y="-8"
     inkscape:window-maximized="1"
     inkscape:current-layer="svg1" />
  <path
     id="path14-3"
     style="display:inline;fill:url(#linearGradient49);stroke:#2e91f5;stroke-width:0.30001;stroke-linecap:round;stroke-linejoin:round;stroke-dasharray:none;stroke-opacity:1"
     d="M 11.637518,9.8640426 C 11.473527,10.51372 11.182993,11.180719 10.877157,11.71301 10.571318,12.2453 10.514038,12.295951 9.9808638,12.964203 9.447732,13.632458 7.2386377,15.627026 5.3659291,15.795855 4.1595352,15.904612 3.5760606,15.738563 2.8635387,15.1775 2.151017,14.616439 1.8285251,14.059181 1.5550516,12.832499 1.2815779,11.605815 1.5744797,8.4365207 3.1269481,7.4734306 4.6794162,6.5103406 6.5801845,6.6962933 7.3251375,6.6863433 c 0.7448998,-0.00996 1.5948134,-0.00113 2.5188063,0 0.4778902,5.9e-4 1.5976492,-2.8e-4 2.7201372,0.0022 1.122485,-0.0025 2.242242,-0.00163 2.720133,-0.00222 0.923993,-0.00113 1.773908,-0.00996 2.518807,0 0.7449,0.00996 2.64567,-0.1759968 4.198137,0.7870932 1.552468,0.96309 1.845371,4.1323849 1.571895,5.3590689 -0.273472,1.226682 -0.595964,1.78394 -1.308486,2.345002 -0.712521,0.561062 -1.29347,0.694021 -2.50239,0.618354 C 17.935665,15.580184 15.680375,13.632439 15.147241,12.964184 14.614108,12.295932 14.556828,12.245281 14.250993,11.712991 13.945154,11.1807 13.654622,10.513701 13.490629,9.8640236 13.328039,9.2198942 13.266118,8.6980271 12.564073,8.689173 c -0.702044,0.00887 -0.763964,0.5307407 -0.926555,1.1748696 z"
     sodipodi:nodetypes="ssccsssccccsssscssscs" />
  <path
     style="display:inline;fill:#2e91f5;fill-opacity:1;stroke:#2e91f5;stroke-width:0.30001;stroke-linecap:round;stroke-linejoin:round;stroke-dasharray:none;stroke-opacity:1"
     d="m 9.2570823,12.89835 c 0.07006,0.08256 -0.3169752,0.423433 -0.9936075,0.85279 -0.3929822,0.249368 -1.0579077,0.615478 -1.7878337,0.855042 -0.5268514,0.172909 -1.0481304,0.245567 -1.5047855,0.267742 -0.9077024,0.04408 -1.1424219,-0.0059 -1.5804567,-0.140268 -0.4380346,-0.134372 -0.7642734,-0.30258 -0.7243766,-0.518257 0.039477,-0.213414 0.7993601,0.007 1.2511952,0.06586 0.4711411,0.06141 1.5343606,0.02305 2.3706853,-0.174507 0.8363247,-0.197558 1.7092723,-0.594168 2.0927206,-0.814769 0.3834483,-0.220602 0.8064029,-0.476184 0.8764589,-0.393629 z"
     id="path13-8" />
  <path
     style="display:inline;fill:#2e91f5;fill-opacity:1;stroke:#2e91f5;stroke-width:0.30001;stroke-linecap:round;stroke-linejoin:round;stroke-dasharray:none;stroke-opacity:1"
     d="m 15.481385,12.585448 c 0.06767,-0.08472 0.873186,0.547009 1.497137,0.88516 0.623952,0.338151 1.545874,0.759936 2.568242,0.870568 1.022369,0.110634 1.374233,0.06141 1.843867,0 0.469635,-0.06141 0.877283,-0.137755 0.790228,0.137632 -0.08705,0.275388 -1.333269,0.543365 -2.095631,0.481347 -0.730428,-0.05942 -1.244205,-0.177441 -1.840401,-0.401183 -0.775096,-0.29088 -1.390628,-0.646546 -1.798947,-0.926645 -0.719601,-0.493629 -1.032168,-0.962159 -0.964495,-1.046879 z"
     id="path12-2" />
  <path
     style="display:inline;fill:#2e91f5;fill-opacity:1;stroke:#2e91f5;stroke-width:0.30001;stroke-linecap:round;stroke-linejoin:round;stroke-dasharray:none;stroke-opacity:1"
     d="m 10.370751,11.647155 c -0.02604,0.223353 -0.4610892,0.420902 -1.3170485,0.839619 -0.4787611,0.227844 -1.4665621,0.551502 -2.4097594,0.778141 -0.7763816,0.186556 -1.5127671,0.323399 -1.8047927,0.357811 -0.5736547,0.0676 -1.7198384,0.01917 -1.8438667,0 -0.1240285,-0.01916 -0.8561833,-0.104219 -0.8922993,-0.329261 -0.036119,-0.225042 0.1605033,-0.240266 0.2370685,-0.242995 0.076567,-0.0027 0.8058028,0.04999 1.1161981,0.04545 0.3103957,-0.0046 0.6387338,-0.02054 0.9877851,-0.06586 0.3490512,-0.04533 2.650983,-0.533715 3.1085105,-0.663965 0.4575276,-0.130246 2.8442524,-0.942282 2.8182044,-0.718931 z"
     id="path11-6" />
  <path
     style="display:inline;fill:#2e91f5;fill-opacity:1;stroke:#2e91f5;stroke-width:0.30001;stroke-linecap:round;stroke-linejoin:round;stroke-dasharray:none;stroke-opacity:1"
     d="m 14.889116,11.547476 c 0.17292,-0.04846 1.998855,0.813886 2.771209,1.022099 0.77262,0.208285 3.456429,0.522858 4.245468,0.540993 0.346715,0.008 0.438323,-0.0074 0.599049,0.04658 0.165012,0.05541 0.0994,0.38796 0,0.4827 -0.102816,0.098 -0.136645,0.102399 -1.180075,0.114582 -0.791358,-0.01652 -2.173287,-0.188196 -3.355017,-0.511109 -0.654658,-0.178886 -1.235768,-0.450597 -1.649766,-0.65777 -1.286316,-0.667209 -1.603788,-0.989624 -1.430868,-1.038073 z"
     id="path10-8" />
  <path
     style="display:inline;fill:#2e91f5;fill-opacity:1;stroke:#2e91f5;stroke-width:0.30001;stroke-linecap:round;stroke-linejoin:round;stroke-dasharray:none;stroke-opacity:1"
     d="m 10.680915,10.999169 c -0.175749,0.117883 -0.9291597,0.354348 -1.7589166,0.600574 -0.8308996,0.246564 -3.7205488,0.677503 -4.0169949,0.711863 -0.2964461,0.03437 -0.5064116,0.04548 -1.0347821,0.06162 -0.5283706,0.01617 -1.7133322,0.07413 -1.8599843,0.0059 -0.1466521,-0.06831 -0.1889902,-0.265344 -0.080205,-0.433998 0.1087884,-0.168652 0.8866864,-0.146472 1.3286597,-0.166192 0.3928272,-0.01753 1.0411841,-0.06307 1.4458412,-0.103705 0.4951002,-0.04972 3.1652174,-0.386393 3.6848223,-0.495557 0.5196057,-0.109161 2.7471617,-0.486021 2.2915587,-0.180426 z"
     id="path9-1" />
  <path
     style="display:inline;fill:#2e91f5;fill-opacity:1;stroke:#2e91f5;stroke-width:0.30001;stroke-linecap:round;stroke-linejoin:round;stroke-dasharray:none;stroke-opacity:1"
     d="m 14.417384,10.819495 c 0.05619,-0.221683 1.515958,0.160993 2.260747,0.326283 0.744793,0.16529 3.038464,0.547821 3.790326,0.63901 0.356298,0.03318 0.357864,0.03521 0.790229,0.05992 0.432364,0.02472 1.699951,0.03755 1.689667,0.284095 -0.01029,0.24654 -0.481694,0.3158 -1.228701,0.308573 -0.453792,-0.0044 -1.388534,-0.06183 -2.349722,-0.223044 C 17.988881,11.982703 16.517114,11.68111 16.031253,11.544555 15.205061,11.312344 14.36118,11.041172 14.417384,10.81949 Z"
     id="path8-3" />
  <path
     style="display:inline;fill:#2e91f5;fill-opacity:1;stroke:#2e91f5;stroke-width:0.30001;stroke-linecap:round;stroke-linejoin:round;stroke-dasharray:none;stroke-opacity:1"
     d="m 14.042396,10.039396 c 0.07308,-0.1949944 1.160583,-0.1108304 1.694696,-0.04549 0.534112,0.06535 1.640146,0.186669 2.297901,0.244589 0.625729,0.04337 0.864107,0.063 1.379989,0.09754 0.515881,0.03451 1.328128,0.0939 1.712162,0.126435 0.55317,0.04687 1.097464,0.091 1.646309,0.13237 0.216046,0.03435 0.431992,0.149485 0.351651,0.384577 -0.08034,0.235093 -0.393796,0.205132 -0.483356,0.206778 -0.08955,0.0017 -0.113407,0.0024 -0.26341,0 -0.150003,-0.0024 -0.863539,-0.02587 -1.167874,-0.04549 -0.143592,-0.0093 -1.33674,-0.09275 -2.058893,-0.16328 -0.681762,-0.06657 -1.986827,-0.260596 -2.699946,-0.366132 -0.713121,-0.105534 -1.10579,-0.167139 -1.580457,-0.253531 -0.474665,-0.08639 -0.901841,-0.12338 -0.828772,-0.318371 z"
     id="path7-1" />
  <path
     style="display:inline;fill:#2e91f5;fill-opacity:1;stroke:#2e91f5;stroke-width:0.30001;stroke-linecap:round;stroke-linejoin:round;stroke-dasharray:none;stroke-opacity:1"
     d="m 9.7780801,10.422961 c -0.2410189,0.04018 -1.8212638,0.273412 -2.3164784,0.332209 -0.5474678,0.05446 -1.08414,0.120896 -1.6320302,0.152471 -0.1623264,-0.0293 -0.4117684,-0.145633 -0.2765797,-0.366139 0.1392764,-0.227175 1.1260758,-0.275264 1.2617305,-0.288432 0.1356569,-0.01319 2.4038971,-0.252075 3.0950635,-0.2996314 1.0919582,-0.07513 1.3219782,0.06867 1.0735982,0.2006084 -0.185932,0.09397 -0.714827,0.194345 -1.2053069,0.268914 z"
     id="path6-9" />
  <path
     style="display:inline;fill:#2e91f5;fill-opacity:1;stroke:#2e91f5;stroke-width:0.30001;stroke-linecap:round;stroke-linejoin:round;stroke-dasharray:none;stroke-opacity:1"
     d="m 11.292684,9.3423236 c -0.222909,0.05434 -1.274013,0.07281 -1.4971359,0.08041 -0.2231221,0.0077 -0.6117341,0.03135 -1.0711059,0.0513 -0.4593718,0.01995 -1.192686,0.04863 -1.5804567,0.06586 -0.3877705,0.01724 -0.6282848,0.03962 -0.804785,0.04482 -0.1765016,0.0052 -0.5790075,-0.014 -0.6202606,-0.246324 -0.052412,-0.2951588 0.4970091,-0.3846391 1.0957824,-0.3911633 0.5987735,-0.00653 5.1038297,0.098287 4.4779617,0.3951143 v -1.2e-5"
     id="path5-5" />
  <path
     style="display:inline;fill:#2e91f5;fill-opacity:1;stroke:#2e91f5;stroke-width:0.30001;stroke-linecap:round;stroke-linejoin:round;stroke-dasharray:none;stroke-opacity:1"
     d="m 15.395208,9.0419517 c 0.646215,-0.09097 1.275754,-0.080609 1.649029,-0.094742 0.373273,-0.014134 1.075477,-0.014134 1.448751,0 0.373275,0.014133 0.449036,0.012565 0.822144,0.036716 0.373108,0.024151 0.878719,0.05732 1.416837,0.1009165 0.538119,0.043598 1.584779,0.1989224 1.728693,0.2306664 0.143911,0.03174 0.499117,0.131254 0.456288,0.347519 -0.04284,0.216265 -0.390503,0.20546 -0.472819,0.203483 -0.08231,-0.002 -0.647889,-0.07296 -1.580457,-0.134998 -0.932566,-0.06204 -3.227794,-0.157085 -4.014942,-0.179321 -0.78715,-0.02225 -1.153512,-0.02196 -1.521258,-0.01356 -0.367749,0.0084 -1.412715,0.172556 -1.459404,-0.04131 -0.04669,-0.213861 0.880923,-0.364393 1.527138,-0.4553631 z"
     id="path4-8" />
  <path
     style="display:inline;fill:#2e91f5;fill-opacity:1;stroke:#2e91f5;stroke-width:0.30001;stroke-linecap:round;stroke-linejoin:round;stroke-dasharray:none;stroke-opacity:1"
     d="M 11.029275,8.4862433 C 10.80801,8.5441933 9.8580788,8.4256393 9.4447004,8.3986713 9.0313234,8.3717033 7.0845901,8.3010363 6.8230052,8.3010363 c -0.2615841,0 -0.4890045,0.028478 -0.6450741,-0.079521 C 6.0218604,8.113518 6.052287,7.8245982 6.2169201,7.7561116 6.381552,7.6876246 6.4589529,7.6726276 7.1811863,7.7124826 c 0.5876439,0.04431 4.3986537,0.39391 3.8480907,0.7737592"
     id="path3-8" />
  <path
     style="display:inline;fill:#2e91f5;fill-opacity:1;stroke:#2e91f5;stroke-width:0.30001;stroke-linecap:round;stroke-linejoin:round;stroke-dasharray:none;stroke-opacity:1"
     d="m 15.33248,8.0693977 c 0.539651,-0.1834541 1.263658,-0.3375456 1.712163,-0.3733831 0.595634,-0.047593 1.18292,-0.057986 1.783838,-0.025925 0.351048,0.018729 0.920392,0.044942 1.508781,0.1306301 0.676229,0.09848 2.288543,0.3558444 1.909719,0.6855234 -0.216923,0.188782 -0.728293,0.060667 -1.185343,-0.013491 -0.45705,-0.074158 -0.796437,-0.1454974 -1.646309,-0.1840663 -0.849872,-0.038569 -2.404392,0.00984 -2.891268,0.067967 -0.677152,0.080843 -0.696602,0.09816 -1.125727,0.1881987 -0.429129,0.09004 -1.433485,0.4494789 -1.617197,0.285904 -0.183712,-0.1635751 1.01169,-0.5779043 1.551343,-0.7613578 z"
     id="path2-2" />
  <path
     style="display:inline;fill:#2e91f5;fill-opacity:1;stroke:#2e91f5;stroke-width:0.30001;stroke-linecap:round;stroke-linejoin:round;stroke-dasharray:none;stroke-opacity:1"
     d="M 5.3815239,7.8708495 C 5.7229869,8.3255146 4.9599218,10.621732 4.6390854,10.846183 4.318249,11.070634 2.2998401,11.370819 2.1033411,10.898657 1.9068421,10.426493 2.4218615,8.771185 3.0233285,8.2143893 3.6247955,7.6575938 5.0400601,7.4161843 5.3815239,7.8708495 Z"
     id="path1-5" />
  <path
     style="display:inline;fill:url(#linearGradient36);fill-opacity:1;stroke:#f56314;stroke-width:0.30001;stroke-linecap:round;stroke-linejoin:round;stroke-dasharray:none;stroke-opacity:1"
     d="m 12.36549,10.614371 c 0.163993,0.649677 0.454525,1.316676 0.760364,1.848967 0.305835,0.53229 0.363115,0.582941 0.896248,1.251193 0.533134,0.668255 2.788424,2.616 4.614936,2.831658 1.20892,0.07567 1.789869,-0.05729 2.50239,-0.618354 0.712522,-0.561062 1.035014,-1.11832 1.308486,-2.345002 0.273476,-1.226684 -0.01943,-4.3959784 -1.571895,-5.3590684 -1.552467,-0.96309 -3.453237,-0.7771332 -4.198137,-0.7870932 -0.744899,-0.00996 -1.594814,-0.00113 -2.518807,0 -0.477891,5.9e-4 -1.597648,-2.8e-4 -2.720133,0.00222 -1.122488,-0.00248 -2.2422469,-0.00161 -2.7201377,-0.0022 -0.9239925,-0.00113 -1.7739061,-0.00996 -2.5188059,0 C 5.4550454,7.4466408 3.5542771,7.2606881 2.001809,8.2237781 0.44934062,9.1868682 0.15643882,12.356162 0.42991244,13.582846 0.70338602,14.809528 1.0258779,15.366786 1.7383996,15.927847 2.4509215,16.48891 3.0343961,16.654959 4.24079,16.546202 6.1134986,16.377373 8.3225929,14.382805 8.8557247,13.71455 9.3888985,13.046298 9.4461794,12.995647 9.7520184,12.463357 10.057854,11.931066 10.348388,11.264067 10.512379,10.61439 10.67497,9.9702612 10.73689,9.448394 11.438935,9.4395205 c 0.702044,0.00885 0.763965,0.5307212 0.926555,1.1748505 z"
     id="path48" />
  <path
     style="display:inline;fill:#f56314;fill-opacity:1;stroke:#f56314;stroke-width:0.30001;stroke-linecap:round;stroke-linejoin:round;stroke-dasharray:none;stroke-opacity:1"
     d="m 8.1319432,13.648698 c 0.07006,0.08256 -0.3169752,0.423433 -0.9936075,0.85279 -0.3929822,0.249368 -1.0579077,0.615478 -1.7878337,0.855042 -0.5268514,0.172909 -1.0481304,0.245567 -1.5047855,0.267742 -0.9077024,0.04408 -1.1424219,-0.0059 -1.5804567,-0.140268 -0.4380346,-0.134372 -0.7642734,-0.30258 -0.7243766,-0.518257 0.039477,-0.213414 0.7993601,0.007 1.2511952,0.06586 0.4711411,0.06141 1.5343606,0.02305 2.3706853,-0.174507 0.8363247,-0.197559 1.7092723,-0.594169 2.0927206,-0.81477 0.3834483,-0.220602 0.8064029,-0.476184 0.8764589,-0.393629 z"
     id="path47" />
  <path
     style="display:inline;fill:#f56314;fill-opacity:1;stroke:#f56314;stroke-width:0.30001;stroke-linecap:round;stroke-linejoin:round;stroke-dasharray:none;stroke-opacity:1"
     d="m 14.356246,13.335796 c 0.06767,-0.08472 0.873186,0.547009 1.497137,0.88516 0.623952,0.338151 1.545874,0.759936 2.568242,0.870568 1.022369,0.110634 1.374233,0.06141 1.843867,0 0.469635,-0.06141 0.877283,-0.137755 0.790228,0.137632 -0.08705,0.275388 -1.333269,0.543365 -2.095631,0.481347 -0.730428,-0.05942 -1.244205,-0.177441 -1.840401,-0.401183 -0.775096,-0.29088 -1.390628,-0.646546 -1.798947,-0.926645 -0.719601,-0.493629 -1.032168,-0.962159 -0.964495,-1.046879 z"
     id="path46" />
  <path
     style="display:inline;fill:#f56314;fill-opacity:1;stroke:#f56314;stroke-width:0.30001;stroke-linecap:round;stroke-linejoin:round;stroke-dasharray:none;stroke-opacity:1"
     d="m 9.2456117,12.397503 c -0.026043,0.223353 -0.4610886,0.420902 -1.3170483,0.839619 -0.4787611,0.227844 -1.4665621,0.551502 -2.4097594,0.778141 -0.7763816,0.186556 -1.5127671,0.323399 -1.8047927,0.357811 -0.5736547,0.0676 -1.7198384,0.01917 -1.8438667,0 -0.1240285,-0.01916 -0.8561833,-0.104219 -0.89229928,-0.329261 -0.036119,-0.225042 0.16050328,-0.240266 0.23706848,-0.242995 0.076567,-0.0027 0.8058028,0.04999 1.1161981,0.04545 0.3103957,-0.0046 0.6387338,-0.02054 0.9877851,-0.06586 0.3490512,-0.04533 2.650983,-0.533715 3.1085105,-0.663965 0.4575276,-0.130246 2.8442519,-0.942282 2.8182042,-0.718931 z"
     id="path45" />
  <path
     style="display:inline;fill:#f56314;fill-opacity:1;stroke:#f56314;stroke-width:0.30001;stroke-linecap:round;stroke-linejoin:round;stroke-dasharray:none;stroke-opacity:1"
     d="m 13.763977,12.297823 c 0.17292,-0.04846 1.998855,0.813886 2.771209,1.022099 0.77262,0.208285 3.456429,0.522858 4.245468,0.540993 0.346715,0.008 0.438323,-0.0074 0.599049,0.04658 0.165012,0.05541 0.0994,0.38796 0,0.4827 -0.102816,0.098 -0.136645,0.102399 -1.180075,0.114582 -0.791358,-0.01652 -2.173287,-0.188196 -3.355017,-0.511109 -0.654658,-0.178886 -1.235768,-0.450597 -1.649766,-0.65777 -1.286316,-0.667209 -1.603788,-0.989624 -1.430868,-1.038073 z"
     id="path44" />
  <path
     style="display:inline;fill:#f56314;fill-opacity:1;stroke:#f56314;stroke-width:0.30001;stroke-linecap:round;stroke-linejoin:round;stroke-dasharray:none;stroke-opacity:1"
     d="m 9.5557764,11.749516 c -0.1757499,0.117883 -0.9291602,0.354348 -1.7589171,0.600574 -0.8308996,0.246564 -3.7205488,0.677503 -4.0169949,0.711863 -0.2964461,0.03437 -0.5064116,0.04548 -1.0347821,0.06162 -0.5283706,0.01617 -1.7133322,0.07413 -1.85998428,0.0059 -0.1466521,-0.06831 -0.1889902,-0.265344 -0.080205,-0.433998 0.1087884,-0.168652 0.88668638,-0.146472 1.32865968,-0.166192 0.3928272,-0.01753 1.0411841,-0.06307 1.4458412,-0.103705 0.4951002,-0.04972 3.1652174,-0.386393 3.6848223,-0.495557 C 7.7838219,11.82086 10.011378,11.444 9.5557752,11.749595 Z"
     id="path43" />
  <path
     style="display:inline;fill:#f56314;fill-opacity:1;stroke:#f56314;stroke-width:0.30001;stroke-linecap:round;stroke-linejoin:round;stroke-dasharray:none;stroke-opacity:1"
     d="m 13.292245,11.569842 c 0.05619,-0.221683 1.515958,0.160993 2.260747,0.326283 0.744793,0.16529 3.038464,0.547821 3.790326,0.63901 0.356298,0.03318 0.357864,0.03521 0.790229,0.05992 0.432364,0.02472 1.699951,0.03755 1.689667,0.284095 -0.01029,0.24654 -0.481694,0.3158 -1.228701,0.308573 -0.453792,-0.0044 -1.388534,-0.06183 -2.349722,-0.223044 -1.381049,-0.231629 -2.852816,-0.533222 -3.338677,-0.669777 -0.826192,-0.232211 -1.670073,-0.503383 -1.613869,-0.725065 z"
     id="path42" />
  <path
     style="display:inline;fill:#f56314;fill-opacity:1;stroke:#f56314;stroke-width:0.30001;stroke-linecap:round;stroke-linejoin:round;stroke-dasharray:none;stroke-opacity:1"
     d="m 12.917257,10.789743 c 0.07308,-0.194994 1.160583,-0.11083 1.694696,-0.04549 0.534112,0.06535 1.640146,0.186669 2.297901,0.244589 0.625729,0.04337 0.864107,0.063 1.379989,0.09754 0.515881,0.03451 1.328128,0.0939 1.712162,0.126435 0.55317,0.04687 1.097464,0.091 1.646309,0.13237 0.216046,0.03435 0.431992,0.149485 0.351651,0.384577 -0.08034,0.235093 -0.393796,0.205132 -0.483356,0.206778 -0.08955,0.0017 -0.113407,0.0024 -0.26341,0 -0.150003,-0.0024 -0.863539,-0.02587 -1.167874,-0.04549 -0.143592,-0.0093 -1.33674,-0.09275 -2.058893,-0.16328 -0.681762,-0.06657 -1.986827,-0.260596 -2.699946,-0.366132 -0.713121,-0.105534 -1.10579,-0.167139 -1.580457,-0.253531 -0.474665,-0.08639 -0.901841,-0.12338 -0.828772,-0.318371 z"
     id="path41" />
  <path
     style="display:inline;fill:#f56314;fill-opacity:1;stroke:#f56314;stroke-width:0.30001;stroke-linecap:round;stroke-linejoin:round;stroke-dasharray:none;stroke-opacity:1"
     d="m 8.652941,11.173308 c -0.2410189,0.04018 -1.8212638,0.273412 -2.3164784,0.332209 -0.5474678,0.05446 -1.08414,0.120896 -1.6320302,0.152471 -0.1623264,-0.0293 -0.4117684,-0.145633 -0.2765797,-0.366139 0.1392764,-0.227175 1.1260758,-0.275264 1.2617305,-0.288432 0.1356569,-0.01319 2.4038971,-0.252075 3.0950631,-0.299631 1.0919591,-0.07513 1.3219787,0.06867 1.0735991,0.200608 -0.185932,0.09397 -0.7148274,0.194345 -1.2053074,0.268914 z"
     id="path40" />
  <path
     style="display:inline;fill:#f56314;fill-opacity:1;stroke:#f56314;stroke-width:0.30001;stroke-linecap:round;stroke-linejoin:round;stroke-dasharray:none;stroke-opacity:1"
     d="m 10.167545,10.092671 c -0.2229086,0.05434 -1.2740131,0.07281 -1.497136,0.08041 -0.2231221,0.0077 -0.6117341,0.03135 -1.0711059,0.0513 -0.4593718,0.01995 -1.192686,0.04863 -1.5804567,0.06586 -0.3877705,0.01724 -0.6282848,0.03962 -0.804785,0.04482 -0.1765016,0.0052 -0.5790075,-0.014 -0.6202606,-0.246324 -0.052412,-0.2951587 0.4970091,-0.384639 1.0957824,-0.3911632 0.5987735,-0.00653 5.1038298,0.098287 4.4779618,0.3951142 v -1.2e-5"
     id="path39" />
  <path
     style="display:inline;fill:#f56314;fill-opacity:1;stroke:#f56314;stroke-width:0.30001;stroke-linecap:round;stroke-linejoin:round;stroke-dasharray:none;stroke-opacity:1"
     d="m 14.270069,9.7922992 c 0.646215,-0.09097 1.275754,-0.080609 1.649029,-0.094742 0.373273,-0.014134 1.075477,-0.014134 1.448751,0 0.373275,0.014133 0.449036,0.012565 0.822144,0.036716 0.373108,0.024151 0.878719,0.05732 1.416837,0.1009165 0.538119,0.043598 1.584779,0.1989223 1.728693,0.2306663 0.143911,0.03174 0.499117,0.131254 0.456288,0.347519 -0.04284,0.216265 -0.390503,0.20546 -0.472819,0.203483 -0.08231,-0.002 -0.647889,-0.07296 -1.580457,-0.134998 -0.932566,-0.06204 -3.227794,-0.157085 -4.014942,-0.179321 -0.78715,-0.02225 -1.153512,-0.02196 -1.521258,-0.01356 -0.367749,0.0084 -1.412715,0.172556 -1.459404,-0.04131 -0.04669,-0.213861 0.880923,-0.3643929 1.527138,-0.455363 z"
     id="path38" />
  <path
     style="display:inline;fill:#f56314;fill-opacity:1;stroke:#f56314;stroke-width:0.30001;stroke-linecap:round;stroke-linejoin:round;stroke-dasharray:none;stroke-opacity:1"
     d="M 9.9041364,9.2365908 C 9.6828714,9.2945406 8.7329394,9.175987 8.3195613,9.1490192 7.9061843,9.1220513 5.959451,9.0513842 5.6978661,9.0513842 5.436282,9.0513842 5.2088616,9.0798622 5.052792,8.9718632 4.8967213,8.8638655 4.9271479,8.5749457 5.091781,8.5064591 c 0.1646319,-0.068487 0.2420328,-0.083484 0.9642662,-0.043629 0.5876439,0.04431 4.3986538,0.39391 3.8480912,0.7737592"
     id="path37" />
  <path
     style="display:inline;fill:#f56314;fill-opacity:1;stroke:#f56314;stroke-width:0.30001;stroke-linecap:round;stroke-linejoin:round;stroke-dasharray:none;stroke-opacity:1"
     d="m 14.207341,8.8197452 c 0.539651,-0.1834541 1.263658,-0.3375456 1.712163,-0.3733831 0.595634,-0.047593 1.18292,-0.057986 1.783838,-0.025925 0.351048,0.018729 0.920392,0.044942 1.508781,0.1306301 0.676229,0.09848 2.288543,0.3558444 1.909719,0.6855234 -0.216923,0.188782 -0.728293,0.060667 -1.185343,-0.013491 -0.45705,-0.074158 -0.796437,-0.1454974 -1.646309,-0.1840663 -0.849872,-0.038569 -2.404392,0.00984 -2.891268,0.067967 -0.677152,0.080843 -0.696602,0.09816 -1.125727,0.1881987 -0.429129,0.09004 -1.433485,0.4494789 -1.617197,0.285904 -0.183712,-0.1635751 1.01169,-0.5779043 1.551343,-0.7613578 z"
     id="path36" />
  <path
     style="display:inline;fill:#f56314;fill-opacity:1;stroke:#f56314;stroke-width:0.30001;stroke-linecap:round;stroke-linejoin:round;stroke-dasharray:none;stroke-opacity:1"
     d="M 4.2563848,8.621197 C 4.5978478,9.0758621 3.8347827,11.372079 3.5139463,11.59653 3.1931099,11.820981 1.174701,12.121166 0.97820202,11.649004 0.78170302,11.17684 1.2967224,9.5215325 1.8981894,8.9647368 2.4996564,8.4079413 3.914921,8.1665318 4.2563848,8.621197 Z"
     id="path1" />
</svg>
