{
	"asset":{
		"generator":"Khronos glTF Blender I/O v3.6.27",
		"version":"2.0"
	},
	"scene":0,
	"scenes":[
		{
			"name":"Scene",
			"nodes":[
				0
			]
		}
	],
	"nodes":[
		{
			"mesh":0,
			"name":"tinyMustache"
		}
	],
	"materials":[
		{
			"doubleSided":true,
			"name":"Material.002",
			"pbrMetallicRoughness":{
				"baseColorFactor":[
					0.03560129925608635,
					0.010329799726605415,
					0,
					1
				],
				"metallicFactor":0,
				"roughnessFactor":0.5
			}
		}
	],
	"meshes":[
		{
			"name":"Object_3.002",
			"primitives":[
				{
					"attributes":{
						"POSITION":0,
						"NORMAL":1,
						"TEXCOORD_0":2
					},
					"indices":3,
					"material":0
				}
			]
		}
	],
	"accessors":[
		{
			"bufferView":0,
			"componentType":5126,
			"count":1542,
			"max":[
				0.8544484376907349,
				0.060480669140815735,
				0.04270273819565773
			],
			"min":[
				-0.854448676109314,
				-0.05366995185613632,
				-0.04270266741514206
			],
			"type":"VEC3"
		},
		{
			"bufferView":1,
			"componentType":5126,
			"count":1542,
			"type":"VEC3"
		},
		{
			"bufferView":2,
			"componentType":5126,
			"count":1542,
			"type":"VEC2"
		},
		{
			"bufferView":3,
			"componentType":5123,
			"count":4074,
			"type":"SCALAR"
		}
	],
	"bufferViews":[
		{
			"buffer":0,
			"byteLength":18504,
			"byteOffset":0,
			"target":34962
		},
		{
			"buffer":0,
			"byteLength":18504,
			"byteOffset":18504,
			"target":34962
		},
		{
			"buffer":0,
			"byteLength":12336,
			"byteOffset":37008,
			"target":34962
		},
		{
			"buffer":0,
			"byteLength":8148,
			"byteOffset":49344,
			"target":34963
		}
	],
	"buffers":[
		{
			"byteLength":57492,
			"uri":"tinyMustache.bin"
		}
	]
}
