{
	"asset":{
		"generator":"Khronos glTF Blender I/O v3.6.27",
		"version":"2.0"
	},
	"extensionsUsed":[
		"KHR_materials_specular"
	],
	"scene":0,
	"scenes":[
		{
			"name":"Scene",
			"nodes":[
				0
			]
		}
	],
	"nodes":[
		{
			"mesh":0,
			"name":"chinBeard"
		}
	],
	"materials":[
		{
			"alphaCutoff":0.13866709172725677,
			"alphaMode":"MASK",
			"doubleSided":true,
			"emissiveFactor":[
				0.47238239645957947,
				0.47238239645957947,
				0.47238239645957947
			],
			"emissiveTexture":{
				"index":0
			},
			"extensions":{
				"KHR_materials_specular":{
					"specularColorTexture":{
						"index":1
					},
					"specularColorFactor":[
						1.1363637447357176,
						1.0312499999999998,
						1
					]
				}
			},
			"name":"01_-_Default",
			"normalTexture":{
				"index":2
			},
			"occlusionTexture":{
				"index":3
			},
			"pbrMetallicRoughness":{
				"baseColorTexture":{
					"index":4
				},
				"metallicFactor":0.32152479887008667,
				"metallicRoughnessTexture":{
					"index":3
				}
			}
		}
	],
	"meshes":[
		{
			"name":"Beard_01 - Default_0.001",
			"primitives":[
				{
					"attributes":{
						"POSITION":0,
						"NORMAL":1,
						"TEXCOORD_0":2,
						"TEXCOORD_1":3
					},
					"indices":4,
					"material":0
				}
			]
		}
	],
	"textures":[
		{
			"sampler":0,
			"source":0
		},
		{
			"sampler":0,
			"source":1
		},
		{
			"sampler":0,
			"source":2
		},
		{
			"sampler":0,
			"source":3
		},
		{
			"sampler":0,
			"source":4
		}
	],
	"images":[
		{
			"mimeType":"image/png",
			"name":"01_-_Default_emissive",
			"uri":"texs2/01_-_Default_emissive.png"
		},
		{
			"mimeType":"image/png",
			"name":"Image",
			"uri":"texs2/Image.png"
		},
		{
			"mimeType":"image/png",
			"name":"01_-_Default_normal",
			"uri":"texs2/01_-_Default_normal.png"
		},
		{
			"mimeType":"image/png",
			"name":"01_-_Default_metallicRoughness",
			"uri":"texs2/01_-_Default_metallicRoughness.png"
		},
		{
			"mimeType":"image/png",
			"name":"01_-_Default_baseColor",
			"uri":"texs2/01_-_Default_baseColor.png"
		}
	],
	"accessors":[
		{
			"bufferView":0,
			"componentType":5126,
			"count":1224,
			"max":[
				0.6871682405471802,
				0,
				0.17209017276763916
			],
			"min":[
				-0.7000669836997986,
				-3.73245906829834,
				-0.4187617897987366
			],
			"type":"VEC3"
		},
		{
			"bufferView":1,
			"componentType":5126,
			"count":1224,
			"type":"VEC3"
		},
		{
			"bufferView":2,
			"componentType":5126,
			"count":1224,
			"type":"VEC2"
		},
		{
			"bufferView":3,
			"componentType":5126,
			"count":1224,
			"type":"VEC2"
		},
		{
			"bufferView":4,
			"componentType":5123,
			"count":6144,
			"type":"SCALAR"
		}
	],
	"bufferViews":[
		{
			"buffer":0,
			"byteLength":14688,
			"byteOffset":0,
			"target":34962
		},
		{
			"buffer":0,
			"byteLength":14688,
			"byteOffset":14688,
			"target":34962
		},
		{
			"buffer":0,
			"byteLength":9792,
			"byteOffset":29376,
			"target":34962
		},
		{
			"buffer":0,
			"byteLength":9792,
			"byteOffset":39168,
			"target":34962
		},
		{
			"buffer":0,
			"byteLength":12288,
			"byteOffset":48960,
			"target":34963
		}
	],
	"samplers":[
		{
			"magFilter":9729,
			"minFilter":9987
		}
	],
	"buffers":[
		{
			"byteLength":61248,
			"uri":"chinBeard.bin"
		}
	]
}
