{
  "asset": {
    "generator": "Khronos glTF Blender I/O v3.6.27",
    "version": "2.0"
  },
  "scene": 0,
  "scenes": [
    {
      "name": "Scene",
      "nodes": [0]
    }
  ],
  "nodes": [
    {
      "mesh": 0,
      "name": "cyberFaceMask"
    }
  ],
  "materials": [
    {
      "emissiveFactor": [1, 1, 1],
      "emissiveTexture": {
        "index": 0
      },
      "name": "Masks4",
      "normalTexture": {
        "index": 1
      },
      "pbrMetallicRoughness": {
        "baseColorTexture": {
          "index": 2
        },
        "metallicRoughnessTexture": {
          "index": 3
        }
      }
    }
  ],
  "meshes": [
    {
      "name": "Object_11",
      "primitives": [
        {
          "attributes": {
            "POSITION": 0,
            "NORMAL": 1,
            "TEXCOORD_0": 2
          },
          "indices": 3,
          "material": 0
        }
      ]
    }
  ],
  "textures": [
    {
      "sampler": 0,
      "source": 0
    },
    {
      "sampler": 0,
      "source": 1
    },
    {
      "sampler": 0,
      "source": 2
    },
    {
      "sampler": 0,
      "source": 3
    }
  ],
  "images": [
    {
      "mimeType": "image/png",
      "name": "Masks4_emissive",
      "uri": "texs/Masks4_emissive.png"
    },
    {
      "mimeType": "image/png",
      "name": "Masks4_normal",
      "uri": "texs/Masks4_normal.png"
    },
    {
      "mimeType": "image/png",
      "name": "Masks4_baseColor",
      "uri": "texs/Masks4_baseColor.png"
    },
    {
      "mimeType": "image/png",
      "name": "Masks4_metallicRoughness",
      "uri": "texs/Masks4_metallicRoughness.png"
    }
  ],
  "accessors": [
    {
      "bufferView": 0,
      "componentType": 5126,
      "count": 3025,
      "max": [0.3502289652824402, 0.40943393111228943, 0.4215853810310364],
      "min": [-0.3502279818058014, -0.650826632976532, -0.39584678411483765],
      "type": "VEC3"
    },
    {
      "bufferView": 1,
      "componentType": 5126,
      "count": 3025,
      "type": "VEC3"
    },
    {
      "bufferView": 2,
      "componentType": 5126,
      "count": 3025,
      "type": "VEC2"
    },
    {
      "bufferView": 3,
      "componentType": 5123,
      "count": 12036,
      "type": "SCALAR"
    }
  ],
  "bufferViews": [
    {
      "buffer": 0,
      "byteLength": 36300,
      "byteOffset": 0,
      "target": 34962
    },
    {
      "buffer": 0,
      "byteLength": 36300,
      "byteOffset": 36300,
      "target": 34962
    },
    {
      "buffer": 0,
      "byteLength": 24200,
      "byteOffset": 72600,
      "target": 34962
    },
    {
      "buffer": 0,
      "byteLength": 24072,
      "byteOffset": 96800,
      "target": 34963
    }
  ],
  "samplers": [
    {
      "magFilter": 9729,
      "minFilter": 9987
    }
  ],
  "buffers": [
    {
      "byteLength": 120872,
      "uri": "cyberMask.bin"
    }
  ]
}
