{
  "asset": {
    "generator": "Khronos glTF Blender I/O v3.6.27",
    "version": "2.0"
  },
  "scene": 0,
  "scenes": [
    {
      "name": "Scene",
      "nodes": [0]
    }
  ],
  "nodes": [
    {
      "mesh": 0,
      "name": "flatCap"
    }
  ],
  "materials": [
    {
      "doubleSided": true,
      "name": "FlatHat.001",
      "pbrMetallicRoughness": {
        "baseColorTexture": {
          "index": 0
        },
        "metallicFactor": 0,
        "metallicRoughnessTexture": {
          "index": 1
        }
      }
    }
  ],
  "meshes": [
    {
      "name": "Flathat_FlatHat_0.001",
      "primitives": [
        {
          "attributes": {
            "POSITION": 0,
            "NORMAL": 1,
            "TEXCOORD_0": 2,
            "TEXCOORD_1": 3
          },
          "indices": 4,
          "material": 0
        }
      ]
    }
  ],
  "textures": [
    {
      "sampler": 0,
      "source": 0
    },
    {
      "sampler": 0,
      "source": 1
    }
  ],
  "images": [
    {
      "mimeType": "image/png",
      "name": "FlatHat_baseColor",
      "uri": "texs/FlatHat_baseColor.png"
    },
    {
      "mimeType": "image/png",
      "name": "FlatHat_metallicRoughness",
      "uri": "texs/FlatHat_metallicRoughness.png"
    }
  ],
  "accessors": [
    {
      "bufferView": 0,
      "componentType": 5126,
      "count": 5715,
      "max": [0.7449711561203003, 0.3854622542858124, 0.7574316263198853],
      "min": [-0.7609427571296692, -0.38227009773254395, -0.9432294964790344],
      "type": "VEC3"
    },
    {
      "bufferView": 1,
      "componentType": 5126,
      "count": 5715,
      "type": "VEC3"
    },
    {
      "bufferView": 2,
      "componentType": 5126,
      "count": 5715,
      "type": "VEC2"
    },
    {
      "bufferView": 3,
      "componentType": 5126,
      "count": 5715,
      "type": "VEC2"
    },
    {
      "bufferView": 4,
      "componentType": 5123,
      "count": 22422,
      "type": "SCALAR"
    }
  ],
  "bufferViews": [
    {
      "buffer": 0,
      "byteLength": 68580,
      "byteOffset": 0,
      "target": 34962
    },
    {
      "buffer": 0,
      "byteLength": 68580,
      "byteOffset": 68580,
      "target": 34962
    },
    {
      "buffer": 0,
      "byteLength": 45720,
      "byteOffset": 137160,
      "target": 34962
    },
    {
      "buffer": 0,
      "byteLength": 45720,
      "byteOffset": 182880,
      "target": 34962
    },
    {
      "buffer": 0,
      "byteLength": 44844,
      "byteOffset": 228600,
      "target": 34963
    }
  ],
  "samplers": [
    {
      "magFilter": 9729,
      "minFilter": 9987
    }
  ],
  "buffers": [
    {
      "byteLength": 273444,
      "uri": "flatCap.bin"
    }
  ]
}
