{
  "accessors": [
    {
      "bufferView": 2,
      "componentType": 5126,
      "count": 5715,
      "max": [
        1.3278096914291382,
        1.3216831684112549,
        0.6726137399673462
      ],
      "min": [
        -1.2999399900436401,
        -1.6458916664123535,
        -0.6670437455177307
      ],
      "type": "VEC3"
    },
    {
      "bufferView": 2,
      "byteOffset": 68580,
      "componentType": 5126,
      "count": 5715,
      "max": [
        0.9999971389770508,
        0.9997266530990601,
        0.9996789693832397
      ],
      "min": [
        -0.9999668002128601,
        -0.9997318387031555,
        -0.9987297058105469
      ],
      "type": "VEC3"
    },
    {
      "bufferView": 1,
      "componentType": 5126,
      "count": 5715,
      "max": [
        0.9694322943687439,
        0.9999999403953552
      ],
      "min": [
        2.9683075553066374e-08,
        2.739667515072597e-08
      ],
      "type": "VEC2"
    },
    {
      "bufferView": 1,
      "byteOffset": 45720,
      "componentType": 5126,
      "count": 5715,
      "max": [
        0.9694322943687439,
        0.9999999403953552
      ],
      "min": [
        2.9683075553066374e-08,
        2.739667515072597e-08
      ],
      "type": "VEC2"
    },
    {
      "bufferView": 0,
      "componentType": 5125,
      "count": 22422,
      "type": "SCALAR"
    }
  ],
  "asset": {
    "extras": {
      "author": "Fridge (https://sketchfab.com/youssefdarwish01)",
      "license": "CC-BY-4.0 (http://creativecommons.org/licenses/by/4.0/)",
      "source": "https://sketchfab.com/3d-models/flat-cap-bd196ab9e2d8441798177839b9e66e09",
      "title": "Flat Cap"
    },
    "generator": "Sketchfab-16.29.0",
    "version": "2.0"
  },
  "bufferViews": [
    {
      "buffer": 0,
      "byteLength": 89688,
      "name": "floatBufferViews",
      "target": 34963
    },
    {
      "buffer": 0,
      "byteLength": 91440,
      "byteOffset": 89688,
      "byteStride": 8,
      "name": "floatBufferViews",
      "target": 34962
    },
    {
      "buffer": 0,
      "byteLength": 137160,
      "byteOffset": 181128,
      "byteStride": 12,
      "name": "floatBufferViews",
      "target": 34962
    }
  ],
  "buffers": [
    {
      "byteLength": 318288,
      "uri": "scene.bin"
    }
  ],
  "images": [
    {
      "uri": "textures/FlatHat_baseColor.png"
    },
    {
      "uri": "textures/FlatHat_metallicRoughness.png"
    }
  ],
  "materials": [
    {
      "doubleSided": true,
      "name": "FlatHat",
      "pbrMetallicRoughness": {
        "baseColorTexture": {
          "index": 0
        },
        "metallicFactor": 0.0,
        "metallicRoughnessTexture": {
          "index": 1
        }
      }
    }
  ],
  "meshes": [
    {
      "name": "Flathat_FlatHat_0",
      "primitives": [
        {
          "attributes": {
            "NORMAL": 1,
            "POSITION": 0,
            "TEXCOORD_0": 2,
            "TEXCOORD_1": 3
          },
          "indices": 4,
          "material": 0,
          "mode": 4
        }
      ]
    }
  ],
  "nodes": [
    {
      "children": [
        1
      ],
      "matrix": [
        1.0,
        0.0,
        0.0,
        0.0,
        0.0,
        2.220446049250313e-16,
        -1.0,
        0.0,
        0.0,
        1.0,
        2.220446049250313e-16,
        0.0,
        0.0,
        0.0,
        0.0,
        1.0
      ],
      "name": "Sketchfab_model"
    },
    {
      "children": [
        2
      ],
      "matrix": [
        0.009999999776482582,
        0.0,
        0.0,
        0.0,
        0.0,
        0.0,
        0.009999999776482582,
        0.0,
        0.0,
        -0.009999999776482582,
        0.0,
        0.0,
        0.0,
        0.0,
        0.0,
        1.0
      ],
      "name": "Flathat.fbx"
    },
    {
      "children": [
        3
      ],
      "name": "RootNode"
    },
    {
      "children": [
        4
      ],
      "matrix": [
        100.0,
        0.0,
        0.0,
        0.0,
        0.0,
        -1.629206793918314e-05,
        -99.99999999999868,
        0.0,
        0.0,
        99.99999999999868,
        -1.629206793918314e-05,
        0.0,
        0.0,
        0.0,
        0.0,
        1.0
      ],
      "name": "Flathat"
    },
    {
      "mesh": 0,
      "name": "Flathat_FlatHat_0"
    }
  ],
  "samplers": [
    {
      "magFilter": 9729,
      "minFilter": 9987,
      "wrapS": 10497,
      "wrapT": 10497
    }
  ],
  "scene": 0,
  "scenes": [
    {
      "name": "Sketchfab_Scene",
      "nodes": [
        0
      ]
    }
  ],
  "textures": [
    {
      "sampler": 0,
      "source": 0
    },
    {
      "sampler": 0,
      "source": 1
    }
  ]
}
