<?xml version="1.0" encoding="UTF-8" standalone="no"?>
<svg
   width="32"
   height="32"
   viewBox="0 0 24.003047 24.003026"
   version="1.1"
   id="svg1"
   sodipodi:docname="threeDim_mustacheOffIcon1.svg"
   inkscape:version="1.3.2 (091e20e, 2023-11-25, custom)"
   xmlns:inkscape="http://www.inkscape.org/namespaces/inkscape"
   xmlns:sodipodi="http://sodipodi.sourceforge.net/DTD/sodipodi-0.dtd"
   xmlns:xlink="http://www.w3.org/1999/xlink"
   xmlns="http://www.w3.org/2000/svg"
   xmlns:svg="http://www.w3.org/2000/svg">
  <defs
     id="defs1">
    <linearGradient
       id="linearGradient13"
       inkscape:collect="always">
      <stop
         style="stop-color:#2e91f5;stop-opacity:0.3982684;"
         offset="0"
         id="stop14" />
      <stop
         style="stop-color:#2e91f5;stop-opacity:0.85497838;"
         offset="0.89902282"
         id="stop13" />
    </linearGradient>
    <linearGradient
       id="linearGradient11"
       inkscape:collect="always">
      <stop
         style="stop-color:#f56314;stop-opacity:0.85064936;"
         offset="0.1"
         id="stop11" />
      <stop
         style="stop-color:#f56314;stop-opacity:0.40043291;"
         offset="1"
         id="stop12" />
    </linearGradient>
    <linearGradient
       id="swatch9"
       inkscape:swatch="solid">
      <stop
         style="stop-color:#f66313;stop-opacity:1;"
         offset="0"
         id="stop9" />
    </linearGradient>
    <linearGradient
       inkscape:collect="always"
       xlink:href="#linearGradient11"
       id="linearGradient12"
       x1="0.18736579"
       y1="12.001783"
       x2="22.690533"
       y2="12.001783"
       gradientUnits="userSpaceOnUse"
       spreadMethod="pad" />
    <linearGradient
       inkscape:collect="always"
       xlink:href="#linearGradient13"
       id="linearGradient14"
       x1="1.3126661"
       y1="11.251687"
       x2="23.815514"
       y2="11.251687"
       gradientUnits="userSpaceOnUse"
       spreadMethod="pad" />
  </defs>
  <sodipodi:namedview
     id="namedview1"
     pagecolor="#ffffff"
     bordercolor="#000000"
     borderopacity="0.25"
     inkscape:showpageshadow="2"
     inkscape:pageopacity="0.0"
     inkscape:pagecheckerboard="0"
     inkscape:deskcolor="#d1d1d1"
     inkscape:document-units="px"
     inkscape:zoom="16"
     inkscape:cx="9.0625"
     inkscape:cy="19.65625"
     inkscape:window-width="1920"
     inkscape:window-height="1009"
     inkscape:window-x="-8"
     inkscape:window-y="-8"
     inkscape:window-maximized="1"
     inkscape:current-layer="svg1" />
  <path
     id="Selection-7-0"
     style="fill:url(#linearGradient14);fill-rule:nonzero;stroke:#2e91f5;stroke-width:0.749779;stroke-linecap:round;stroke-linejoin:round;stroke-dasharray:none;stroke-opacity:1;fill-opacity:1"
     d="m 20.645657,14.582584 c 0.930426,-0.552022 1.894955,-1.509569 2.274998,-2.539216 l 0.275858,-0.757914 c 0.18891,-0.520841 0.205328,-0.691121 0.244134,-1.033558 v 0 c -0.108547,0.208413 -0.307814,0.619852 -0.481772,0.881041 -0.216625,0.328527 -0.527015,0.798549 -0.796005,1.096791 -0.353989,0.392092 -1.018097,0.88523 -1.495801,1.100241 -0.991993,0.447084 -2.517018,0.519255 -3.534304,0.103435 C 15.524635,12.776119 14.708827,11.443932 14.2702,9.8192017 L 13.712436,7.576695 C 13.266198,6.6609797 12.618618,7.5014367 12.564091,7.4625019 12.509564,7.5023681 11.861982,6.6619111 11.415745,7.5776266 L 10.857982,9.8201337 C 10.419354,11.444862 9.6035466,12.77705 7.9954156,13.434335 6.9781297,13.850154 5.4531047,13.777985 4.4611128,13.330901 3.9834071,13.115889 3.3192994,12.62275 2.965312,12.23066 2.696321,11.932418 2.3859306,11.462395 2.1693058,11.133869 1.9953473,10.87268 1.7960809,10.46124 1.6875332,10.252827 v 0 c 0.038807,0.342438 0.055226,0.512717 0.2441351,1.033557 l 0.2758582,0.757915 c 0.380043,1.029648 1.3445706,1.987195 2.274997,2.539217 2.9404191,1.742414 6.9470535,0.362687 8.0815675,-2.626099 1.134512,2.987855 5.141148,4.367581 8.081566,2.625167 z"
     sodipodi:nodetypes="cccsscccccccccccccssccccc" />
  <path
     id="Selection-7"
     style="fill-rule:evenodd;stroke:#f56314;stroke-width:0.75009489;stroke-linecap:round;stroke-linejoin:round;stroke-dasharray:none;stroke-opacity:1;fill-opacity:1;fill:url(#linearGradient12)"
     d="m 19.520518,15.332679 c 0.930426,-0.552022 1.894955,-1.509569 2.274998,-2.539216 l 0.275858,-0.757914 c 0.18891,-0.520841 0.205328,-0.691121 0.244134,-1.033558 v 0 c -0.108547,0.208413 -0.307814,0.619852 -0.481772,0.881041 -0.216625,0.328527 -0.527015,0.798549 -0.796005,1.096791 -0.353989,0.392092 -1.018097,0.88523 -1.495801,1.100241 -0.991993,0.447084 -2.517018,0.519255 -3.534304,0.103435 -1.60813,-0.657285 -2.423938,-1.989472 -2.862565,-3.614202 L 12.587297,8.3267898 C 12.141059,7.4110745 11.493479,8.2515315 11.438952,8.2125967 11.384425,8.2524629 10.736843,7.4120059 10.290606,8.3277214 L 9.7328402,10.570229 C 9.2942114,12.194957 8.4784039,13.527145 6.8702731,14.18443 5.8529872,14.600249 4.3279622,14.52808 3.3359703,14.080996 2.8582646,13.865984 2.1941569,13.372845 1.8401695,12.980755 1.5711785,12.682513 1.2607881,12.21249 1.0441633,11.883964 0.87020488,11.622775 0.6709385,11.211335 0.56239082,11.002922 v 0 c 0.038807,0.342438 0.055226,0.512717 0.24413507,1.033557 L 1.082384,12.794394 c 0.380043,1.029648 1.3445706,1.987195 2.274997,2.539217 2.9404191,1.742414 6.947057,0.362687 8.081571,-2.626099 1.134512,2.987855 5.141148,4.367581 8.081566,2.625167 z"
     sodipodi:nodetypes="cccsscccccccccccccssccccc" />
</svg>
