<svg
  xmlns="http://www.w3.org/2000/svg"
  viewBox="0 0 24.002952 24.002952"
  width="1"
  height="1"
>
  <path
    d="M 12.823175,22.100562 C 12.329463,21.459817 12.03686,20.771861 11.651987,19.963837 11.103281,18.932751 10.804056,18.270276 10.628648,17.249012 m 5.826154,-2.334375 c 0.0039,0.0078 0.588591,0.721122 1.286325,1.255141 0.732815,0.561306 1.368987,1.039524 1.838712,1.507457 m -4.24636,-1.815895 c 0,0 0.32353,0.572999 0.845856,1.216162 0.491142,0.604183 1.270733,1.223958 1.824243,1.863222 0.728917,0.845856 1.059389,1.411466 1.234606,1.728975 m -5.463887,-4.395176 c 0,0 0.237775,0.530122 0.822469,1.438346 0.385897,0.588591 0.873141,1.527998 1.426651,2.03863 0.631469,0.670448 0.611036,1.550693 0.611036,1.550693 m -4.041236,-4.672955 c 0,0 0.15202,0.658755 0.47555,1.453937 0.265061,0.654857 0.787114,1.409299 1.091155,2.099237 0.432673,0.993886 0.572141,1.551114 0.632995,1.917125 M 12.546442,14.446383 C 11.508945,14.432523 10.945396,14.348243 10.454233,14.147699 9.9784395,13.953432 9.5696275,13.653846 8.9213435,12.972956 m -1.746284,10.06062 c -0.08576,-2.011344 0.109143,-2.541466 -0.424877,-4.669749 -0.366407,-1.481223 -0.834162,-2.311487 -1.184978,-3.527649 -0.393693,-1.37208 -0.775497,-2.514066 -0.830068,-3.862758 -0.02339,-1.3447934 0.51608,-3.3191616 1.412609,-4.991384 l 11.1490995,9.39e-5 1.32261,3.3969127 c 1.075835,0.6977334 1.1421,2.9663424 0.444366,3.8199944 -0.01949,1.375978 -0.01949,2.861099 0.01559,3.64069 0.21049,0.806876 0.635367,0.85755 1.450039,1.711202 0.440469,0.401489 0.614867,1.070176 0.129679,1.713214 -0.407354,0.46964 -0.646493,0.502076 -1.416777,0.408534 -0.251717,0.74408 -0.375317,0.863915 -0.891778,1.068915 -0.399308,0.06535 -0.511948,0.0344 -0.967478,-0.06045 -0.327797,-0.0872 -0.521278,-0.201809 -0.752271,-0.377585 -0.236401,0.307705 -0.235966,0.505339 -0.650302,0.714461 -0.534771,0.161872 -0.655276,0.145966 -1.190047,0.07937 -0.17168,0.352432 -0.302185,0.453638 -0.528266,0.609556 -0.398512,0.166021 -0.494588,0.146761 -0.856885,-0.01259 -0.293573,-0.198024 -0.313198,-0.244738 -0.582152,-0.593788 z" 
    style="fill:#2c92f5;stroke:#000000;stroke-width:0.56256919;stroke-linecap:round;stroke-linejoin:round;"
  />
  <path
    d="m 6.1482815,5.9805922 c 0,0 -1.386056,0.011129 -2.3995237,-0.023953 -0.9433049,0.011694 -0.9004274,-2.3387727 0.031184,-2.3270788 l 2.827627,0.024853 c 1.095325,-1.4266516 1.522026,-2.76461539 4.3597722,-2.68032669 3.336113,-0.071129 3.787382,0.65678739 5.336765,2.64524509 0.670448,0.011694 1.375942,0.00242 2.405002,0.00633 0.900427,-0.03898 1.083631,2.2647115 -0.01949,2.311487 -0.608081,0.027286 -0.589791,0.032302 -1.395875,0.032271 z"
    style="fill:#000000;stroke:#000000;stroke-width:0.438574;stroke-linecap:round;stroke-linejoin:round;"
  />
  <path
    d="m 18.562103,9.3531256 c -0.661508,-0.290129 -1.427769,-0.200164 -2.078727,0.04931 -0.869244,0.385897 -1.336999,1.2785284 -1.161591,2.0113434 0.218286,0.709428 0.626665,1.097995 0.919917,1.375978 0.779591,0.689938 2.140375,0.667891 2.822517,0.410626 0,0 0.299495,-0.347427 0.397647,-0.957586 0.05959,-0.413664 0.08116,-0.865041 0.04379,-1.11814 -0.04905,-0.332228 -0.131473,-0.699475 -0.318812,-1.089289 C 18.925073,9.5838956 18.763157,9.4670646 18.562103,9.3531306 Z m -7.707374,3.4288304 c -0.9549985,-0.689938 -1.5318965,-1.902202 -0.03508,-3.1456484 1.177182,-0.752305 2.253017,-0.08576 2.787037,0.6353654 0.779591,1.044652 0.880938,2.584344 -0.631468,2.927364 -0.767897,0.175408 -1.56308,-0.01169 -2.120489,-0.417081 z" 
    style="fill:#ffffff;stroke:#000000;stroke-width:0.438574;stroke-linecap:round;stroke-linejoin:round;"
  />
  <path
    d="m 12.230072,11.821807 -0.08364,0.33703 -0.576772,0.253885 -0.221309,0.601458 m 1.20151,-1.384249 0.247596,0.193351 0.528809,0.107071 0.354131,0.44499 0.267418,0.09519 m -1.480187,-1.123845 0.384148,-0.432455 0.162588,-0.748242 0.234474,-0.1898468 m -2.704539,0 0.937039,0.3521108 0.173222,0.528715 0.280339,0.03521 0.276894,0.41796 m 5.893336,0.301519 -0.294782,0.402291 0.02038,0.338839 -0.403814,0.54571 -0.08015,0.353243 m 0.83603,-2.211142 -0.0669,-0.354339 -0.206918,-0.123588 0.05976,-0.356538 -0.796236,-0.5119554 -0.127251,-0.325642 m 0.822326,1.9461704 -0.283046,-0.108383 -0.408462,0.09084 -1.213809,-0.639692 -0.319134,0.09091 -0.237958,-0.100668 m 3.047174,0.986792 0.171768,0.26335 0.0674,0.390885 0.290396,0.501735 0.0415,0.360764 m -0.612176,-2.023836 0.230986,-0.115602 0.129212,-0.404186 0.123256,-0.06669 0.07711,-0.163075 0.193232,-0.08648" 
    style="fill:none;stroke:#ec5f61;stroke-width:0.292382px;stroke-linecap:round;stroke-linejoin:round"
  />
  <path
    d="m 18.538031,11.351323 c 0,0.150032 -0.121626,0.271658 -0.271659,0.271658 -0.150032,0 -0.271658,-0.121626 -0.271658,-0.271658 0,-0.150033 0.121626,-0.271659 0.271658,-0.271659 0.150033,0 0.271659,0.121626 0.271659,0.271659 z m -5.91839,0.111104 c 0,0.15049 -0.121996,0.272486 -0.272485,0.272486 -0.15049,0 -0.272486,-0.121996 -0.272486,-0.272486 0,-0.15049 0.121996,-0.272486 0.272486,-0.272486 0.150489,0 0.272485,0.121996 0.272485,0.272486 z" 
    style="fill:#000000;stroke:#000000;stroke-width:0.438574;stroke-linecap:round;stroke-linejoin:round;"
  />
  <path
    d="m 18.558658,9.3536966 c -0.661508,-0.29013 -1.427769,-0.200165 -2.078727,0.0493 -0.869244,0.385898 -1.336999,1.2785284 -1.161591,2.0113444 0.218286,0.709428 0.626665,1.097995 0.919917,1.375978 0.779591,0.689938 2.140375,0.667891 2.822517,0.410626 0,0 0.299495,-0.347428 0.397647,-0.957586 0.05959,-0.413664 0.08116,-0.865041 0.04379,-1.11814 -0.04905,-0.332229 -0.131473,-0.699475 -0.318812,-1.08929 C 18.921628,9.5844566 18.759712,9.4676266 18.558658,9.3536926 Z m -7.703873,3.4195724 c -0.9549985,-0.689938 -1.5318965,-1.902202 -0.03508,-3.1456484 1.177182,-0.752306 2.253018,-0.08576 2.787037,0.6353654 0.779591,1.044652 0.880938,2.584344 -0.631468,2.927364 -0.767897,0.175408 -1.56308,-0.01169 -2.120489,-0.417081 z"
    style="fill:none;stroke:#000000;stroke-width:0.45005535;stroke-linecap:round;stroke-linejoin:round;"
  />
</svg>
