<svg
  xmlns="http://www.w3.org/2000/svg" 
  viewBox="0 -960 960 960"
  height="1px"
  width="1px"
>
  <path
    d="m 799.41968,-288 c -9.99991,0 -19.1665,-3.5 -27.49975,-10.5 -8.33326,-7 -12.49989,-17.16667 -12.49989,-30.5 v -79 h -79.9993 c -13.33321,0 -23.33312,-4.16667 -29.99974,-12.5 -6.66661,-8.33333 -9.99991,-17.5 -9.99991,-27.5 0,-10 3.3333,-19.16667 9.99991,-27.5 6.66662,-8.33333 16.66653,-12.5 29.99974,-12.5 h 79.9993 v -40 c 0,-78.66667 -27.33309,-145 -81.99928,-199 -54.66619,-54 -120.66561,-81 -197.99826,-81 -29.33307,0 -57.16617,4.16667 -83.49926,12.5 -26.3331,8.33333 -50.49956,20.16667 -72.49937,35.5 l -57.99948,-56 c 29.99973,-23.33333 63.16611,-41.16667 99.49912,-53.5 36.33301,-12.33333 74.49934,-18.5 114.49899,-18.5 49.3329,0 95.83249,9.33333 139.49877,28 43.66629,18.66667 81.83261,44.33333 114.49899,77 32.66639,32.66667 58.49949,70.83333 77.49932,114.5 18.99983,43.66667 28.49975,90.5 28.49975,140.5 v 200 c 0,13.33333 -4.16663,23.33333 -12.49989,30 -8.33326,6.66667 -17.49984,10 -27.49976,10 z m -72.99935,160 -39.99965,-40 h -6.99994 c -21.99981,0 -40.83297,-7.83333 -56.4995,-23.5 -15.66653,-15.66667 -23.4998,-34.5 -23.4998,-56.5 v -7 L 220.42478,-634 c -5.99995,16 -10.9999,33.16667 -14.99987,51.5 -3.99996,18.33333 -5.99994,36.5 -5.99994,54.5 v 40 h 79.99929 c 21.99981,0 40.83297,7.83333 56.4995,23.5 15.66654,15.66667 23.4998,34.5 23.4998,56.5 v 160 c 0,22 -7.83326,40.83333 -23.4998,56.5 -15.66653,15.66667 -34.49969,23.5 -56.4995,23.5 h -79.99929 c -21.99981,0 -40.83297,-7.83333 -56.49951,-23.5 -15.66653,-15.66667 -23.49979,-34.5 -23.49979,-56.5 v -280 c 0,-30 3.49997,-59 10.49991,-87 6.99994,-28 17.16652,-54.66667 30.49973,-80 L 55.426236,-800 c -7.999929,-8 -11.999894,-17.33333 -11.999894,-28 0,-10.66667 3.999965,-20 11.999894,-28 7.99993,-7.33333 17.333181,-11.16667 27.999752,-11.5 10.666576,-0.33333 19.999822,3.5 27.999752,11.5 l 755.99334,757 c 6.76204,6.98499 8.37953,21.465687 4.78581,34.58027 -3.51714,12.835131 -11.70182,18.214029 -25.00898,22.281408 -15.73978,4.810921 -31.69002,-3.354338 -39.3894,-9.7995 C 790.33115,-66.566469 766.90562,-87.53744 726.42033,-128 Z M 199.42497,-408 v 160 h 79.99929 v -160 z m 0,0 h 79.99929 z m 479.99577,0 h 79.9993 z"
  />
</svg>
