<svg
  xmlns="http://www.w3.org/2000/svg"
  viewBox="0 0 100 100"
  height="1"
  width="1"
>
  <path
    d="M 60,95 Q 53.75,95 49.375,90.625 45,86.25 45,80 45,73.75 49.375,69.375 53.75,65 60,65 66.25,65 70.625,69.375 75,73.75 75,80 75,86.25 70.625,90.625 66.25,95 60,95 Z m 0,-10 q 2.125,0 3.5625,-1.4375 Q 65,82.125 65,80 65,77.875 63.5625,76.4375 62.125,75 60,75 57.875,75 56.4375,76.4375 55,77.875 55,80 55,82.125 56.4375,83.5625 57.875,85 60,85 Z M 70,60 q -11.5,0 -19.5,-8 -8,-8 -8,-19.5 0,-11.5 8,-19.5 8,-8 19.5,-8 11.5,0 19.5,8 8,8 8,19.5 0,11.5 -8,19.5 -8,8 -19.5,8 z M 70,50 Q 77.375,50 82.4375,44.9375 87.5,39.875 87.5,32.5 87.5,25.125 82.4375,20.0625 77.375,15 70,15 62.625,15 57.5625,20.0625 52.5,25.125 52.5,32.5 q 0,7.375 5.0625,12.4375 Q 62.625,50 70,50 Z M 22.5,80 Q 14.25,80 8.375,74.125 2.5,68.25 2.5,60 2.5,51.75 8.375,45.875 14.25,40 22.5,40 30.75,40 36.625,45.875 42.5,51.75 42.5,60 42.5,68.25 36.625,74.125 30.75,80 22.5,80 Z m 0,-10 q 4.125,0 7.0625,-2.9375 Q 32.5,64.125 32.5,60 32.5,55.875 29.5625,52.9375 26.625,50 22.5,50 18.375,50 15.4375,52.9375 12.5,55.875 12.5,60 q 0,4.125 2.9375,7.0625 Q 18.375,70 22.5,70 Z M 60,80 Z M 70,32.5 Z M 22.5,60 Z"
    style="stroke-width:0.125"
  />
</svg>
