<svg
  xmlns="http://www.w3.org/2000/svg"
  viewBox="0 0 100 100"
  height="1"
  width="1"
>
  <path
    d="m 74.9375,49.99995 z m 5.2898,8.6364 q -1.8353,0 -3.0767,-1.2408 -1.2416,-1.2408 -1.2416,-3.0765 0,-1.836 1.2416,-3.0768 1.2415,-1.2408 3.0767,-1.2408 h 8.3125 q -0.4318,-0.756 -0.9715,-1.296 -0.5398,-0.54 -1.2956,-0.972 -2.8068,-1.62 -6.4232,-2.376 -3.6165,-0.756 -8.2586,-0.756 h -2.267 q -1.8353,0 -3.0227,-1.188 -1.1875,-1.188 -1.1875,-3.0228 0,-1.836 1.0255,-2.9688 1.0255,-1.1328 2.8607,-1.3488 0.5398,-0.12 1.2956,-0.12 h 1.2955 q 5.7216,0 10.6875,1.188 4.9659,1.188 9.2841,3.4545 2.8068,1.512 4.3721,4.4801 1.5653,2.9688 1.5653,6.7471 v 2.4831 q 0,1.836 -1.2415,3.0765 -1.2415,1.2408 -3.0767,1.2408 z m -8.6364,-25.9089 q -5.3977,0 -9.1761,-3.7786 -3.7784,-3.7783 -3.7784,-9.1761 0,-5.3976 3.7784,-9.1762 3.7784,-3.7783 9.1761,-3.7783 5.3977,0 9.1761,3.7783 3.7785,3.7786 3.7785,9.1762 0,5.3978 -3.7785,9.1761 -3.7784,3.7786 -9.1761,3.7786 z m 0,-8.6364 q 1.8353,0 3.0767,-1.2408 1.2415,-1.2408 1.2415,-3.0768 0,-1.836 -1.2415,-3.0766 -1.2415,-1.2408 -3.0767,-1.2408 -1.8353,0 -3.0767,1.2408 -1.2415,1.2408 -1.2415,3.0766 0,1.836 1.2415,3.0768 1.2415,1.2408 3.0767,1.2408 z m 0,-4.3183 z m -46.5284,30.2272 z m -18.2443,8.6364 q -1.8353,0 -3.0767,-1.2408 Q 2.5,56.15235 2.5,54.31825 v -2.483 q 0,-3.7783 1.5653,-6.7471 1.5653,-2.9688 4.3721,-4.4801 4.3182,-2.268 9.2841,-3.4545 4.9659,-1.188 10.6875,-1.188 h 1.2955 q 0.7558,0 1.2955,0.12 1.8353,0.216 2.8608,1.3488 1.0255,1.1328 1.0255,2.9688 0,1.836 -1.1875,3.0228 -1.1875,1.188 -3.0227,1.188 h -2.267 q -4.6421,0 -8.2586,0.756 -3.6164,0.756 -6.4232,2.376 -0.7558,0.432 -1.2956,0.972 -0.5397,0.54 -0.9715,1.296 h 8.3125 q 1.8353,0 3.0767,1.2408 1.2415,1.2407 1.2415,3.0767 0,1.836 -1.2415,3.0766 -1.2415,1.2408 -3.0767,1.2408 z m 21.5909,-25.9089 q -5.3977,0 -9.1761,-3.7786 -3.7784,-3.7783 -3.7784,-9.1761 0,-5.3976 3.7784,-9.1762 3.7784,-3.7783 9.1761,-3.7783 5.3978,0 9.1761,3.7783 3.7785,3.7786 3.7785,9.1762 0,5.3978 -3.7785,9.1761 -3.7783,3.7786 -9.1761,3.7786 z m 0,-8.6364 q 1.8353,0 3.0767,-1.2408 1.2415,-1.2408 1.2415,-3.0768 0,-1.836 -1.2415,-3.0766 -1.2415,-1.2408 -3.0767,-1.2408 -1.8353,0 -3.0767,1.2408 -1.2415,1.2408 -1.2415,3.0766 0,1.836 1.2415,3.0768 1.2415,1.2408 3.0767,1.2408 z m 0,-4.3183 z M 50,71.59085 q -3.5625,0 -6.0994,-2.5368 -2.5369,-2.537 -2.5369,-6.0994 v -12.9547 q 0,-3.5625 2.5369,-6.0993 2.5369,-2.5371 6.0994,-2.5371 3.5625,0 6.0995,2.5371 2.5369,2.5368 2.5369,6.0993 v 12.9547 q 0,3.5624 -2.5369,6.0994 -2.537,2.5368 -6.0995,2.5368 z m 0,21.5909 q -1.4035,0 -2.321,-0.9168 -0.9175,-0.9168 -0.9175,-2.3208 v -5.6136 q -7.0171,-1.08 -12.0369,-6.0454 -5.0199,-4.9661 -5.9915,-11.5512 -0.216,-1.512 0.7557,-2.6448 0.9716,-1.1328 2.483,-1.1328 1.1875,0 2.051,0.7008 0.8638,0.7008 1.0795,1.8888 1.1876,5.6136 5.2898,9.0682 4.1023,3.4545 9.608,3.4545 5.5056,0 9.6079,-3.4545 4.1023,-3.4546 5.2898,-9.0682 0.216,-1.188 1.0795,-1.8888 0.8638,-0.7008 2.051,-0.7008 1.5113,0 2.483,1.1328 0.9715,1.1328 0.7558,2.6448 -0.9716,6.5851 -5.9915,11.5512 -5.0199,4.9658 -12.0369,6.0454 v 5.6136 q 0,1.404 -0.9176,2.3208 -0.9175,0.9168 -2.321,0.9168 z"
    style="stroke-width:0.107955"
  />
</svg>
