<svg
  xmlns="http://www.w3.org/2000/svg"
  viewBox="0 0 4.1666667 4.1666667"
  height="1"
  width="1"
>
  <path
    d="m 1.4944134,4.0624784 q -0.0693,0 -0.12122,-0.0371 -0.0519,-0.0371 -0.0717,-0.10143 l -0.50469005,-1.64271 h -0.49479 q -0.0841,0 -0.14102,-0.0569 -0.0569,-0.0569 -0.0569,-0.14101 0,-0.0841 0.0569,-0.14102 0.0569,-0.0569 0.14102,-0.0569 h 0.64323 q 0.0643001,0 0.11627005,0.0371 0.052,0.0371 0.0718,0.10143 l 0.32656,1.0638 0.62838,-2.82526005 q 0.0149,-0.0693 0.0693,-0.1138 0.0544,-0.0445 0.12369,-0.0445 0.0693,0 0.1236999,0.0421 0.0544,0.0421 0.0693,0.11133 l 0.4304701,1.86041005 0.27708,-0.88567 q 0.0198,-0.0643 0.0718,-0.10144 0.0519,-0.0371 0.11628,-0.0371 0.0643,0 0.1138,0.0346 0.0495,0.0346 0.0742,0.094 l 0.24739,0.66302 h 0.0594 q 0.0841,0 0.14101,0.0569 0.0569,0.0569 0.0569,0.14102 0,0.0841 -0.0569,0.14101 -0.0569,0.0569 -0.14101,0.0569 h -0.19792 q -0.0643,0 -0.1138,-0.0346 -0.0495,-0.0346 -0.0742,-0.094 l -0.094,-0.25235 -0.32162,1.03412 q -0.0198,0.0643 -0.0742,0.1039 -0.0544,0.0396 -0.1236999,0.0346 -0.0693,-0.005 -0.11875,-0.047 -0.0495,-0.0421 -0.0643,-0.10638 l -0.40078,-1.7218701 -0.59869,2.71146 q -0.0149,0.0693 -0.0668,0.10885 -0.0519,0.0396 -0.12123,0.0445 z"
    style="stroke-width:0.00494792" 
  />
</svg>
