<svg
  xmlns="http://www.w3.org/2000/svg"
  viewBox="0 0 24 24"
  width="1"
  height="1"
>
  <path
    d="m 12.53835,1.0204402 1.232463,2.6159489 1.394678,3.342601 0.958999,4.2015039 1.751427,2.368882 0.897246,3.748089 1.302092,5.667877 h -4.450369 c -0.141388,0 -0.222818,0.0051 -0.413056,0.0046 -0.01537,0.0065 -0.306863,-0.411501 -0.403742,-0.684714 -0.396249,-1.119047 -0.327371,-1.520157 -0.331679,-2.807786 -0.005,-1.531792 -0.445742,-1.829717 -0.925942,-2.906605 -0.284272,-0.637994 -0.536939,-1.643708 -0.653211,-2.470616 l -1.507381,1.790464 -0.739336,1.129218 -0.458677,2.312204 -0.2447703,1.598643 -1.62435,2.048741 -4.397999,-0.01411 2.440522,-8.429163 0.789582,0.871981 1.130536,-4.650591 0.637407,-2.3776069 0.67258,-0.719385 1.5791623,-1.453305 0.749377,-0.86617 0.246209,-1.414066 z"
    style="stroke-width:2;stroke-linecap:round;stroke-linejoin:round;" 
  />
  <path
    d="m 15.202945,22.974296 c -0.01537,0.0065 -0.306863,-0.411501 -0.403742,-0.684714 -0.396248,-1.119047 -0.327371,-1.520157 -0.331678,-2.807786 -0.005,-1.531792 -0.445742,-1.829717 -0.925942,-2.906605 -0.284273,-0.637994 -0.536939,-1.643708 -0.653212,-2.470616 l -1.507381,1.790464 -0.739336,1.129218 -0.458676,2.312204 -0.2447707,1.598643 -1.62435,2.048741 z"
    style="fill:#000000;stroke:#000000;stroke-width:2;stroke-linecap:round;stroke-linejoin:round;" 
  />
</svg>
