<svg
  xmlns="http://www.w3.org/2000/svg"
  viewBox="0 0 100 100"
  width="1"
  height="1"
>
  <path
    d="m 52.227168,2.5000012 5.098721,10.8222258 5.769807,13.828398 3.967395,17.381694 7.245684,9.800105 3.711922,15.505909 5.386777,23.448105 H 64.996221 c -0.584925,0 -0.921802,0.0211 -1.70882,0.01903 -0.06359,0.02689 -1.269497,-1.702387 -1.670287,-2.832673 -1.639289,-4.629517 -1.35434,-6.288916 -1.372162,-11.61586 -0.02069,-6.337049 -1.844042,-7.56957 -3.830638,-12.024674 -1.176038,-2.639393 -2.221326,-6.800049 -2.702345,-10.220981 l -6.236061,7.40718 -3.058646,4.671594 -1.897555,9.565628 -1.012619,6.613614 -6.719964,8.475677 -18.194598,-0.05837 10.096482,-34.871592 3.266515,3.6074 4.677046,-19.239575 2.636964,-9.836201 2.782475,-2.976108 6.533022,-6.012348 3.100185,-3.58336 1.018571,-5.850015 z"
    style="stroke-width:5;stroke-linecap:round;stroke-linejoin:round"
  />
  <path
    d="m 63.250644,93.323481 c -0.06359,0.02689 -1.269498,-1.702387 -1.670288,-2.832674 -1.639285,-4.629517 -1.354339,-6.288916 -1.372157,-11.615859 -0.02069,-6.33705 -1.844043,-7.569571 -3.830638,-12.024675 -1.176043,-2.639392 -2.221326,-6.800048 -2.70235,-10.220981 l -6.236061,7.407181 -3.058646,4.671594 -1.89755,9.565628 -1.012621,6.613613 -6.719964,8.475677 z"
    style="fill:#000000;stroke:#000000;stroke-width:5;stroke-linecap:round;stroke-linejoin:round"
  />
</svg>
