<svg
  xmlns="http://www.w3.org/2000/svg"
  viewBox="0 0 100 100"
  width="1"
  height="1"
>
  <path
    d="m 52.329031,2.5000025 5.331924,11.3172045 6.033704,14.460875 4.148855,18.176692 7.577079,10.248339 3.8817,16.215114 5.63316,24.52056 H 65.682109 c -0.611677,0 -0.963962,0.0221 -1.786977,0.0199 -0.06649,0.0281 -1.327561,-1.78025 -1.746682,-2.96223 -1.714266,-4.84126 -1.416284,-6.57656 -1.434921,-12.14714 -0.02163,-6.62689 -1.928385,-7.91579 -4.005843,-12.57466 -1.229827,-2.76011 -2.322924,-7.111061 -2.825944,-10.688459 l -6.521283,7.745969 -3.198541,4.88526 -1.984344,10.003141 -1.058933,6.9161 -7.027319,8.86333 -19.026775,-0.061 10.558271,-36.466533 3.415916,3.772394 4.890964,-20.119547 2.757572,-10.286086 2.909739,-3.112223 6.831825,-6.287339 3.241981,-3.747259 1.065158,-6.117581 z"
    style="stroke-width:5;stroke-linecap:round;stroke-linejoin:round"
  />
</svg>
