<svg
  xmlns="http://www.w3.org/2000/svg"
  viewBox="0 0 100 100"
  height="1"
  width="1"
>
  <path
    d="m 14.843748,96.875005 q -4.833982,0 -8.2763684,-3.442387 Q 3.1250002,89.990239 3.1250002,85.15625 V 61.718749 q 0,-4.83399 3.4423794,-8.276369 3.4423864,-3.442387 8.2763684,-3.442387 4.833989,0 8.276369,3.442387 3.442386,3.442379 3.442386,8.276369 V 85.15625 q 0,4.833989 -3.442386,8.276368 -3.44238,3.442387 -8.276369,3.442387 z m 35.156252,0 q -4.833982,0 -8.276369,-3.442387 -3.44238,-3.442379 -3.44238,-8.276368 V 14.843742 q 0,-4.833981 3.44238,-8.2763678 Q 45.166018,3.1249949 50,3.1249949 q 4.833988,0 8.276368,3.4423793 3.442387,3.4423868 3.442387,8.2763678 V 85.15625 q 0,4.833989 -3.442387,8.276368 Q 54.833989,96.875005 50,96.875005 Z m 35.156253,0 q -4.833982,0 -8.276369,-3.442387 -3.442377,-3.442379 -3.442377,-8.276368 V 44.140619 q 0,-4.833981 3.442377,-8.276368 3.442387,-3.44238 8.276369,-3.44238 4.833989,0 8.276368,3.44238 Q 96.875,39.306638 96.875,44.140619 V 85.15625 q 0,4.833989 -3.442379,8.276368 -3.442379,3.442387 -8.276368,3.442387 z"
  />
</svg>
