<svg
  xmlns="http://www.w3.org/2000/svg"
  viewBox="0 0 100 100"
  height="1"
  width="1"
>
  <path
    d="M 14.374998,97.5 Q 9.4765629,97.5 5.9882779,94.011715 2.5000001,90.523438 2.5000001,85.624996 V 61.874998 q 0,-4.898443 3.4882778,-8.38672 3.488285,-3.488285 8.3867201,-3.488285 4.898442,0 8.386721,3.488285 3.488284,3.488277 3.488284,8.38672 v 23.749998 q 0,4.898442 -3.488284,8.386719 Q 19.27344,97.5 14.374998,97.5 Z M 50,97.5 q -4.898435,0 -8.386721,-3.488285 -3.488278,-3.488277 -3.488278,-8.386719 v -71.25 q 0,-4.898434 3.488278,-8.3867188 Q 45.101565,2.4999999 50,2.4999999 q 4.898441,0 8.38672,3.4882773 3.488285,3.4882848 3.488285,8.3867188 v 71.25 q 0,4.898442 -3.488285,8.386719 Q 54.898442,97.5 50,97.5 Z m 35.625003,0 q -4.898435,0 -8.38672,-3.488285 -3.488276,-3.488277 -3.488276,-8.386719 V 44.062495 q 0,-4.898434 3.488276,-8.386719 3.488285,-3.488278 8.38672,-3.488278 4.898442,0 8.38672,3.488278 Q 97.5,39.164061 97.5,44.062495 v 41.562501 q 0,4.898442 -3.488277,8.386719 Q 90.523445,97.5 85.625003,97.5 Z"
    style="stroke-width:1.01333" 
  />
</svg>
