<svg
  xmlns="http://www.w3.org/2000/svg"
  viewBox="0 0 100 100"
  height="1"
  width="1"
>
  <path
    d="M 49.144998,65.454391 63.957796,44.160996 H 50.765144 L 60.023146,11.757994 H 35.257994 V 48.789988 H 49.144998 Z M 74.025868,45.781141 46.251876,85.93771 q -0.694352,1.04153 -1.793742,1.3887 -1.09939,0.34718 -2.140908,0 -1.041528,-0.34717 -1.735878,-1.21511 -0.694352,-0.86793 -0.694352,-2.14091 V 58.047992 h -4.629002 q -3.818916,0 -6.53846,-2.719534 Q 26,52.608914 26,48.789988 V 11.757994 Q 26,7.939078 28.719534,5.219535 31.439078,2.5 35.257994,2.5 h 27.07965 q 3.703198,0 5.959842,2.893123 2.256632,2.893123 1.33083,6.364871 l -6.596322,23.145 h 5.207628 q 4.166092,0 6.191284,3.703198 2.025184,3.7032 -0.405038,7.174949 z m -24.88087,3.008847 H 35.257994 Z"
    style="stroke-width:0.115726" 
  />
</svg>
