<?xml version="1.0" encoding="UTF-8" standalone="no"?>
<svg
   width="1mm"
   height="1mm"
   version="1.1"
   viewBox="0 0 100 100"
   id="svg3"
   xmlns="http://www.w3.org/2000/svg"
   xmlns:svg="http://www.w3.org/2000/svg">
  <defs
     id="defs3">
    <filter
       style="color-interpolation-filters:sRGB;"
       id="filter6"
       x="0"
       y="0"
       width="1"
       height="1">
      <feColorMatrix
         type="hueRotate"
         values="180"
         result="color1"
         id="feColorMatrix5" />
      <feColorMatrix
         values="-1 0 0 0 1 0 -1 0 0 1 0 0 -1 0 1 -0.21 -0.72 -0.07 2 0 "
         result="color2"
         id="feColorMatrix6" />
    </filter>
  </defs>
  <g
     transform="matrix(0.24054651,0,0,0.24054651,-332.51346,-64.964397)"
     id="g3"
     style="filter:url(#filter6)">
    <rect
       x="1428.4"
       y="270.07001"
       width="323.57001"
       height="415.72"
       fill-rule="evenodd"
       id="rect1" />
    <path
       d="m 1649.4,288.75 c -0.8074,0.0505 -1.8272,0.47923 -2.5742,1.1309 -1.5462,1.3488 -1.9399,1.3729 -2.6895,0.16016 -0.7389,-1.1956 -1.1932,-1.1352 -2.875,0.38671 -1.0989,0.9945 -2.5139,1.492 -3.1425,1.1035 -0.6386,-0.3947 -1.8087,0.24462 -2.6524,1.4492 -0.8306,1.1858 -2.3213,2.0211 -3.3125,1.8574 -0.9912,-0.1637 -2.6871,0.50237 -3.7695,1.4805 -1.5366,1.3886 -2.5256,1.5669 -4.5098,0.8125 -2.0353,-0.7738 -2.886,-0.58388 -4.2734,0.94922 -0.9528,1.0528 -2.0566,1.7138 -2.4531,1.4688 -0.3966,-0.245 -1.7652,0.66544 -3.0411,2.0234 -1.2758,1.3581 -3.0918,2.4688 -4.0371,2.4688 -0.9453,0 -1.9803,0.67976 -2.2988,1.5098 -1.2122,3.159 -15.635,0.45992 -15.635,-2.9258 0,-0.5642 -0.4781,-0.50433 -1.1211,0.13867 -1.3918,1.3918 -3.8392,0.51887 -6.0957,-2.1738 -1.0242,-1.2222 -1.73,-1.5305 -1.75,-0.76367 -0.027,1.0321 -0.476,1.0417 -2.2832,0.0488 -1.2375,-0.68 -3.115,-1.3794 -4.1718,-1.5547 -1.0569,-0.1753 -2.4752,-0.77979 -3.1524,-1.3418 -0.8605,-0.7142 -1.3663,-0.63132 -1.6816,0.27148 -0.3395,0.9719 -0.9553,0.84366 -2.4883,-0.51562 -1.1206,-0.99371 -3.2128,-1.9328 -4.6484,-2.0859 -1.4357,-0.153 -2.9096,-0.57561 -3.2754,-0.94141 -2.0922,-2.0922 -1.998,-0.0975 0.1562,3.3144 1.3819,2.1891 2.5117,4.5729 2.5117,5.2988 0,0.726 0.4787,1.799 1.0625,2.3828 0.5838,0.5838 1.1463,2.6568 1.25,4.6074 0.144,2.7083 0.483,3.3025 1.4375,2.5156 0.8687,-0.7162 1.288,-0.6884 1.375,0.0918 1.4171,12.724 0.8411,25.123 -1.1679,25.123 -0.4518,0 -1.1079,-0.9 -1.4571,-2 -0.3491,-1.1 -1.019,-2 -1.4882,-2 -0.4693,0 -1.1494,-1.35 -1.5118,-3 -0.3624,-1.65 -1.288,-3 -2.0566,-3 -0.7686,0 -2.1378,-1.1303 -3.043,-2.5117 -0.9051,-1.3815 -2.7159,-2.7812 -4.0234,-3.1094 -1.3075,-0.3281 -2.377,-1.2209 -2.377,-1.9863 0,-0.7654 -0.5625,-1.3925 -1.25,-1.3945 -0.6875,0 -2.136,-1.3254 -3.2187,-2.9414 -1.3499,-2.0148 -2.3295,-2.6382 -3.1172,-1.9844 -0.7583,0.6293 -1.5758,0.43775 -2.4043,-0.56055 -0.6903,-0.8321 -1.8195,-1.5117 -2.5098,-1.5117 -0.6903,0 -1.8316,-0.69493 -2.5371,-1.5449 -0.7054,-0.85 -1.8733,-1.3202 -2.5957,-1.043 -0.7223,0.27711 -1.6628,-0.048 -2.0898,-0.7246 -0.9887,-1.5655 -5.7791,-3.6875 -8.3242,-3.6875 -1.0742,0 -1.9532,-0.675 -1.9532,-1.5 0,-1.4954 -1.0102,-1.8774 -4.1601,-1.5684 -0.9138,0.09 -1.9672,-0.32864 -2.3399,-0.93164 -0.4836,-0.7826 -1.0925,-0.75268 -2.1289,0.10742 -1.1796,0.979 -2.1302,0.56633 -5.0625,-2.2012 -1.985,-1.8736 -3.2739,-2.8193 -2.8652,-2.1016 0.5808,1.0199 -0.3142,1.2054 -4.0996,0.84961 -2.6636,-0.2503 -5.6498,-0.78043 -6.6348,-1.1777 -1.1987,-0.4835 -1.6947,-0.30579 -1.5,0.53711 0.3233,1.3998 -4.6336,3.1431 -6.6914,2.3535 -0.7228,-0.2774 -1.599,-0.0417 -1.9473,0.52149 -0.3482,0.5634 -1.3108,0.76301 -2.1386,0.44531 -0.8279,-0.3176 -2.3726,0.20762 -3.4317,1.166 -1.059,0.9584 -2.6337,1.4712 -3.5,1.1387 -0.8911,-0.3419 -1.807,-8.9e-4 -2.1093,0.78711 -0.294,0.7661 -1.6202,1.6654 -2.9454,1.998 -1.3252,0.3326 -3.0927,1.9263 -3.9277,3.541 -0.835,1.6147 -2.3051,3.3945 -3.2676,3.9551 -1.3355,0.7779 -0.3711,1.0256 4.0684,1.0488 5.2166,0.027 5.7561,-0.15963 5.2266,-1.8281 -0.9252,-2.915 1.987,-4.7557 5.4531,-3.4473 2.0255,0.76451 3.1475,0.76068 3.9199,-0.0117 0.7762,-0.77612 1.082,-0.75599 1.082,0.0703 0,0.73491 1.3582,1.0095 3.75,0.75781 2.0625,-0.217 4.1033,-0.42142 4.5352,-0.45312 0.4318,-0.032 0.2979,-0.96673 -0.2969,-2.0781 -0.5948,-1.1113 -0.8224,-2.439 -0.5058,-2.9512 0.6579,-1.0645 8.3235,1.9868 12.547,4.9941 1.7488,1.2453 2.9365,1.5791 3.166,0.89062 0.2297,-0.68907 1.8242,-0.24209 4.254,1.1914 2.1374,1.2612 4.6658,2.3498 5.6171,2.4199 0.9514,0.07 2.8486,1.4289 4.2168,3.0195 1.9392,2.2544 2.788,2.6426 3.8516,1.7617 1.8458,-1.5287 7.2065,1.1277 14.09,6.9844 2.9018,2.4689 6.1508,4.6535 7.2207,4.8535 1.9465,0.3638 10.438,10.405 10.514,12.434 0.022,0.5916 1.166,2.1321 2.541,3.4238 1.375,1.2917 2.5,2.8927 2.5,3.5586 0,1.875 4.1719,4.1117 7.5,4.0215 1.7318,-0.047 4.5692,-1.3358 6.7129,-3.0508 3.0075,-2.4059 3.599,-3.4341 3.1055,-5.4004 -0.3468,-1.3819 -0.2111,-2.1822 0.3144,-1.8574 0.5182,0.3202 0.8859,-1.4783 0.8399,-4.0996 -0.045,-2.5693 0.2755,-5.1635 0.7129,-5.7637 0.4374,-0.6001 0.687,-4.4251 0.5547,-8.5 -0.3003,-9.2454 1.3605,-10.225 2.8965,-1.709 0.6249,3.465 1.6999,9.2258 2.3886,12.801 1.4115,7.3265 1.8441,22.215 0.7559,26 -0.3953,1.375 -1.844,3.7039 -3.2207,5.1758 l -2.5039,2.6758 4.4726,-0.49219 c 2.806,-0.3086 4.4707,-0.0947 4.4707,0.57422 0,0.5861 0.9662,1.0664 2.1465,1.0664 2.0858,0 2.0753,-0.0659 -0.3828,-2.3438 -3.3753,-3.1281 -4.5207,-6.6562 -2.1601,-6.6562 0.9556,0 2.5625,0.74399 3.5683,1.6543 2.0214,1.8293 2.5603,0.47822 0.5938,-1.4883 -1.7996,-1.8002 -1.7939,-7.1935 0.012,-9.9492 1.2643,-1.9296 1.3147,-2.5421 0.2578,-3.1953 -3.096,-1.9134 -0.4134,-19.059 4.6758,-29.887 4.2262,-8.9915 6.0358,-8.5712 4.3242,1.002 -0.6258,3.5 -1.5124,9.0633 -1.9707,12.363 -0.4584,3.3 -1.3,7.1761 -1.8711,8.6133 -1.1003,2.7685 -0.4866,10.587 0.8984,11.443 0.4518,0.2792 0.5854,1.1212 0.2969,1.873 -0.2885,0.7517 -0.044,1.6642 0.543,2.0274 0.5874,0.3631 1.0683,1.9841 1.0683,3.6016 0,1.6176 0.3375,2.9452 0.75,2.9492 1.2713,0.013 3.09,4.8863 2.5684,6.8809 -0.4318,1.6512 1.6219,3.1464 5.5312,4.0312 0.1918,0.043 -0.62,-1.56 -1.8027,-3.5645 -2.3647,-4.0078 -2.0995,-7.4732 0.4121,-5.3887 0.9475,0.7863 0.7337,-0.26183 -0.6289,-3.082 -1.8501,-3.8291 -2.515,-5.7931 -2.7539,-8.1348 -0.042,-0.4125 -0.5523,-0.75 -1.1348,-0.75 -0.5823,0 -0.8396,0.35716 -0.5703,0.79296 0.2694,0.4358 -0.49,0.85595 -1.6894,0.93555 -2.0428,0.1355 -2.0078,-8e-5 0.5683,-2.0801 1.5125,-1.2235 2.75,-3.1184 2.75,-4.2129 0,-1.0944 0.7345,-3.0387 1.6309,-4.3184 0.8964,-1.2798 1.7105,-4.1926 1.8105,-6.4726 0.2018,-4.6171 2.4527,-9.1439 7.2911,-14.662 1.7776,-2.0274 3.0472,-3.8686 2.8222,-4.0938 -0.225,-0.225 0.683,-0.92489 2.0176,-1.5547 3.2424,-1.5301 3.8657,-0.16163 1.3711,3.0098 -2.1212,2.6966 -4.3247,9.3003 -5.418,16.234 -0.4825,3.0603 -0.2537,4.4022 0.916,5.373 0.8574,0.7116 1.6118,2.4768 1.6758,3.9219 0.075,1.6941 0.2774,2.0053 0.5723,0.87696 0.6808,-2.6054 1.7076,-2.1338 3.2656,1.5 l 1.3945,3.25 0.3887,-3.25 c 0.3226,-2.6945 0.8156,-3.25 2.8848,-3.25 1.4091,0 2.2259,0.4354 1.8769,1 -0.3399,0.55 -0.2535,0.99618 0.1914,0.99218 0.445,0 1.8791,-1.5788 3.1875,-3.5 1.3084,-1.9213 2.7499,-3.4922 3.2032,-3.4922 0.4534,0 1.7349,-2.0587 2.8476,-4.5742 1.1127,-2.5155 2.436,-4.3182 2.9414,-4.0059 0.5054,0.3124 1.1888,-0.13354 1.5176,-0.99024 0.3287,-0.85668 1.0535,-1.2744 1.6113,-0.92968 0.5578,0.34472 1.2888,-0.0904 1.625,-0.9668 0.3475,-0.9055 1.3169,-1.3768 2.2442,-1.0918 1.1299,0.3473 2.6257,-1.0155 4.8652,-4.4336 4.8436,-7.3926 16.266,-15.825 16.266,-12.008 0,0.55 -0.434,1 -0.9648,1 -1.5197,0 -8.0352,6.0656 -8.0352,7.4805 0,0.7007 0.675,1.8348 1.5,2.5195 1.2217,1.0139 1.5,0.9617 1.5,-0.2793 0,-2.2102 6.8682,-6.0079 11.332,-6.2656 2.108,-0.1217 4.3014,-0.68816 4.873,-1.2598 0.5716,-0.57163 1.6141,-0.81833 2.3164,-0.54883 0.7023,0.2695 1.5744,0.01 1.9375,-0.57812 0.8958,-1.4494 3.5103,-1.3344 6.6289,0.29296 2.1492,1.1217 2.8921,1.1272 4.3965,0.0274 2.6179,-1.9142 3.9674,-0.55155 1.8301,1.8476 -1.8072,2.0285 -1.8003,2.0294 1.2187,0.48633 2.8729,-1.4685 3.1464,-1.43 5.2051,0.70899 1.6435,1.7076 1.8914,2.5382 1.0176,3.4121 -0.8739,0.8739 -0.6103,1.1562 1.084,1.1562 2.7387,0 9.1659,6.7195 12.158,12.711 2.4168,4.8391 4.3335,5.6903 3.4648,1.5391 -2.2337,-10.674 -3.148,-12.607 -8.7129,-18.422 -0.9625,-1.0057 -1.75,-2.5031 -1.75,-3.3281 0,-0.825 -0.4255,-1.5 -0.9472,-1.5 -1.3238,0 -5.517,-4.0606 -6.9004,-6.6836 -1.9281,-3.6554 -1.38,-4.31 2.3164,-2.7656 1.9073,0.797 4.2698,1.4589 5.25,1.4707 1.7281,0.021 6.9791,6.3698 8.5625,10.354 0.5375,1.3523 1.1023,1.6419 1.8144,0.92968 1.4452,-1.4452 -1.6545,-10.572 -4.4297,-13.043 -4.0394,-3.5975 -11.583,-5.6542 -20.666,-5.6367 -9.8219,0.019 -18.815,1.0024 -20.4,2.2324 -0.6048,0.4693 -1.9996,1.0928 -3.0996,1.3848 -1.1,0.2921 -2.7477,0.839 -3.6621,1.2168 -1.0941,0.452 -1.7779,0.14883 -2,-0.88867 -0.28,-1.3082 -1.3593,-1.0323 -6.3379,1.623 -3.3,1.7601 -7.35,3.3235 -9,3.4746 -1.65,0.1511 -5.42,0.57586 -8.3789,0.94336 -7.1771,0.8912 -6.618,-0.61832 2.6387,-7.1113 3.9205,-2.75 7.1545,-5.3705 7.1855,-5.8223 0.074,-1.0857 -2.105,-3.2221 -3.9628,-3.8867 -0.2038,-0.073 -0.4497,-0.0988 -0.7188,-0.082 z m -17.086,8.9844 c 1.1779,0.0125 1.8222,0.53417 1.8222,1.5762 0,2.162 -6.2684,10.729 -7.8535,10.734 -0.9052,0 -3.3581,1.5776 -5.4512,3.5 -2.0931,1.9223 -4.2091,3.4961 -4.7011,3.4961 -0.4921,0 -1.2884,0.7027 -1.7696,1.5625 -0.7907,1.4135 -0.9984,1.4137 -2.164,0.01 -1.0682,-1.2871 -0.9325,-2.3106 0.7871,-5.9688 2.8091,-5.9762 5.606,-8.7906 12.383,-12.457 3.0373,-1.6432 5.433,-2.4692 6.9473,-2.4531 z m -55.262,5.0723 c 0.1902,0.007 0.3973,0.0303 0.6211,0.0684 4.0961,0.6966 9.8661,7.9161 8.7247,10.916 -0.8015,2.1068 -2.1548,1.4357 -6.8458,-3.3906 -4.3267,-4.4526 -5.3407,-7.7062 -2.5,-7.5938 z m -117.7,12.309 c -0.3886,-0.0114 -0.9698,0.28824 -1.4785,0.80079 -0.9803,0.9876 -0.8666,1.1032 0.5586,0.56054 0.9862,-0.3755 1.5422,-0.93434 1.2344,-1.2422 -0.077,-0.077 -0.185,-0.11515 -0.3145,-0.11915 z m 132.3,5.9258 c 0.2181,0.007 0.5279,0.0558 0.9356,0.13476 1.0369,0.2009 2.0718,0.92774 2.3007,1.6152 0.594,1.7839 -1.2595,1.546 -2.8457,-0.36524 -0.8699,-1.0482 -1.045,-1.4053 -0.3906,-1.3848 z m -139.34,0.0293 c -0.5289,0.0968 -1.2195,0.64579 -1.5683,1.5547 -0.3737,0.9739 -0.1507,1.431 0.58,1.1875 0.6535,-0.2179 1.3663,-0.93088 1.584,-1.584 0.3,-0.89995 -0.067,-1.255 -0.5957,-1.1582 z m 250.12,4.2695 c -0.5063,0.004 -1.0617,0.0985 -1.7285,0.25782 -1.6843,0.4026 -4.4125,0.8108 -6.0625,0.9082 -5.0334,0.2971 -10.806,3.6453 -15.004,8.6992 -2.1964,2.644 -4.5745,4.8143 -5.2832,4.8223 -0.7088,0.01 -3.1616,1.8137 -5.4511,4.0137 -2.2896,2.2 -4.936,4 -5.879,4 -1.7252,0 -7.8828,6.8929 -7.8828,8.8242 0,0.6932 1.0763,0.72777 3.2461,0.10547 5.8068,-1.6654 13.219,-1.1399 16.121,1.1426 l 2.6328,2.0723 2.6758,-2.1016 c 1.8848,-1.4826 2.882,-1.7618 3.3867,-0.94531 0.3936,0.6368 1.2167,0.84851 1.8282,0.47071 0.6115,-0.37791 1.1093,-0.0752 1.1093,0.67187 0,0.95489 1.0085,1.2408 3.3887,0.96289 1.8623,-0.2174 4.3373,0.11413 5.5,0.73633 1.743,0.9328 2.1113,0.84884 2.1113,-0.47266 0,-1.2018 0.5628,-1.4269 2.25,-0.90429 3.7108,1.1494 11.75,5.4145 11.75,6.2344 0,0.4202 1.35,1.2737 3,1.8965 2.2684,0.85617 3,1.7628 3,3.7187 0,1.4228 0.4747,2.5879 1.0528,2.5879 0.5781,0 1.7093,1.575 2.5136,3.5 0.8043,1.925 1.6455,3.5 1.8711,3.5 0.2252,0 0.2591,-6.8114 0.074,-15.137 -0.1883,-8.486 -0.7692,-15.406 -1.3223,-15.75 -1.4497,-0.9009 -10.188,-14.418 -10.188,-15.764 -10e-4,-0.63249 -1.6614,-2.8098 -3.6895,-4.8379 -2.4086,-2.4086 -3.5006,-3.2239 -5.0215,-3.2129 z m -197.65,7.707 c -1.8643,0 -1.6223,0.49594 1.8574,3.7773 2.2,2.0746 4.6364,3.5704 5.4141,3.3242 0.8342,-0.2639 1.1374,-1.2e-4 0.7402,0.64258 -0.3705,0.5994 0.4558,1.9788 1.836,3.0644 4.2952,3.3786 2.3086,6.0126 -2.0489,2.7168 -1.0676,-0.8075 -2.6732,-1.4825 -3.5683,-1.5 -0.8952,-0.017 -2.1884,-0.70625 -2.8731,-1.5312 -1.4076,-1.696 -5.5632,-2.0157 -6.5,-0.5 -0.3399,0.55 -0.067,1 0.6075,1 0.6744,0 0.9654,0.26117 0.6464,0.58007 -0.3189,0.3189 -1.6838,-0.14324 -3.0332,-1.0273 -2.3997,-1.5723 -2.4433,-1.5524 -1.9707,0.91992 0.3971,2.077 0.096,2.5274 -1.6914,2.5274 -1.3899,0 -1.9187,0.41679 -1.4629,1.1543 0.4421,0.7153 0.2739,0.88351 -0.4414,0.44141 -0.635,-0.3924 -1.1543,-1.3618 -1.1543,-2.1543 0,-1.8125 -1.088,-1.8294 -3.5175,-0.0527 -1.0445,0.7638 -2.479,1.1652 -3.1895,0.89258 -2.0452,-0.7849 -1.5012,1.5368 0.627,2.6758 1.3982,0.7483 2.0337,0.68995 2.3418,-0.21485 0.3079,-0.9039 1.5505,-0.64638 4.5664,0.94922 3.5444,1.875 4.3462,1.9916 5.539,0.79883 0.7671,-0.7671 1.58,-1.2091 1.8067,-0.98242 0.2267,0.22668 4.4428,0.5925 9.3691,0.8125 7.7103,0.3443 10.279,0.95923 18.457,4.4277 11.148,4.7283 12.45,5.0348 8.5176,2.002 -3.0289,-2.336 -4.1179,-3.4028 -11.348,-11.125 -2.3814,-2.5437 -4.7911,-4.625 -5.3555,-4.625 -0.5645,0 -2.7312,-1.35 -4.8145,-3 -2.0833,-1.65 -4.3,-3 -4.9257,-3 -0.6256,0 -1.3963,-0.675 -1.7129,-1.5 -0.3165,-0.825 -1.5401,-1.4972 -2.7188,-1.4941 z m 195.5,11.217 c 2.6197,-0.0688 3.8602,1.034 1.1093,2.8027 -1.5698,1.0094 -1.5441,1.0554 0.25,0.45312 1.1,-0.3693 2.5045,-0.87901 3.1211,-1.1328 0.6166,-0.2539 1.8386,0.25651 2.7149,1.1328 0.8762,0.8763 1.7217,1.5353 1.8789,1.4648 0.1571,-0.0711 1.4855,0.41803 2.9511,1.0859 2.7308,1.2451 4.3595,4.5266 2.7403,5.5274 -1.2922,0.7986 -1.1234,2.4917 0.2187,2.1934 0.6188,-0.1375 1.3319,0.3125 1.584,1 0.5248,1.4312 -1.3015,1.7158 -2.1543,0.33593 -0.3103,-0.5021 -2.2592,-1.1989 -4.3301,-1.5488 -2.0708,-0.34989 -4.4291,-1.0457 -5.2402,-1.5469 -1.2537,-0.7748 -1.1818,-1.1247 0.4746,-2.3359 1.6943,-1.2389 0.9754,-1.2575 -5.5058,-0.13867 -4.0993,0.7077 -7.9032,0.92046 -8.4532,0.47266 -0.55,-0.44788 -2.9125,-0.46306 -5.25,-0.0352 -2.3375,0.4282 -4.2386,0.50081 -4.2246,0.16211 0.031,-0.7503 8.3382,-6.34 12.475,-8.3945 2.0005,-0.99364 4.0689,-1.4568 5.6407,-1.498 z m -10.65,1.7774 c 0.863,0 -2.4864,2.6414 -6.7403,5.3164 -1.5125,0.95103 -2.749,1.3821 -2.748,0.95703 0,-0.8412 8.218,-6.2734 9.4883,-6.2734 z m -6.9942,1.3105 c 0.086,-0.0112 0.1449,-0.004 0.1739,0.0254 0.2673,0.2673 -1.2288,1.6503 -3.3243,3.0742 -3.5049,2.3816 -5.3457,3.1476 -5.3457,2.2227 0,-0.70538 7.2101,-5.1538 8.4961,-5.3223 z m -204.48,2.6094 c -0.749,-0.10427 -1.1236,1.3189 -0.4863,2.7871 0.7436,1.7132 0.7985,1.7116 1.2129,-0.0352 0.2385,-1.0055 0.1673,-2.0924 -0.1563,-2.416 v -0.002 c -0.2048,-0.20482 -0.3975,-0.30988 -0.5703,-0.33398 z m 30.594,4.0801 c -0.5944,0 0.4879,0.873 2.4043,1.9414 3.4841,1.9424 4.9843,2.4336 4.9843,1.6309 0,-0.6179 -6.111,-3.5723 -7.3886,-3.5723 z m -38.328,2.1211 c -0.2292,-0.0144 -0.2832,0.30964 -0.2832,0.96484 0,2.0545 2.34,4.3944 2.8536,2.8535 0.2076,-0.6247 -0.3476,-1.8632 -1.2364,-2.752 -0.6992,-0.69925 -1.1048,-1.052 -1.334,-1.0664 z m -6.4648,1.8789 c -0.5717,0 0.022,0.88509 1.3203,1.9668 2.5053,2.0872 2.8613,2.2854 2.8613,1.6035 0,-0.862 -3.1721,-3.5703 -4.1816,-3.5703 z m 53.721,0.26562 c -0.088,-0.002 -0.1506,0.0115 -0.1816,0.043 -0.2465,0.2465 1.2602,1.372 3.3476,2.502 3.8813,2.1011 5.2949,2.5577 5.2949,1.709 0,-0.70191 -7.152,-4.2302 -8.4609,-4.2539 z m -58.48,5.7695 c -0.9992,0.023 -0.661,0.54885 0.9414,1.4648 3.2721,1.8705 5.0445,1.8472 2.5586,-0.0332 v 0.002 c -1.0676,-0.8075 -2.6426,-1.4531 -3.5,-1.4336 z m 81.562,1.3945 c -0.226,0.038 -0.4486,0.27279 -0.709,0.68555 -0.5775,0.9155 -0.3129,1.8056 0.7832,2.625 2.2141,1.655 2.7341,0.92914 1.2793,-1.7891 -0.5903,-1.103 -0.9769,-1.5849 -1.3535,-1.5215 z m 98.172,4.8106 c -0.1646,0.0159 -0.346,0.0515 -0.543,0.10547 -0.9625,0.264 -3.4495,0.76639 -5.5273,1.1172 -2.0778,0.35081 -3.5179,1.0606 -3.1992,1.5762 0.5599,0.906 -1.7284,3.6152 -6.1563,7.2891 -1.4798,1.2278 -2.9496,1.5628 -4.8027,1.0977 -2.3098,-0.5797 -2.5879,-1.0454 -2.0586,-3.4551 0.5501,-2.5046 0.2903,-2.8557 -2.5723,-3.4844 -1.7512,-0.3847 -3.4648,-0.28012 -3.8086,0.23438 -0.3437,0.5145 -2.65,0.9783 -5.125,1.0293 -2.475,0.051 -5.7876,0.11658 -7.3613,0.14648 -1.5737,0.03 -3.7587,-0.42482 -4.8555,-1.0117 -2.2794,-1.2199 -7.4014,-0.48621 -11.49,1.6465 -3.0885,1.611 -11.293,2.0024 -11.293,0.53906 0,-0.5107 0.675,-1.6027 1.5,-2.4277 2.267,-2.267 1.9368,-2.4721 -3.75,-2.3262 -2.8875,0.074 -7.1258,-0.36079 -9.4199,-0.9668 -3.6999,-0.97738 -4.1051,-0.91886 -3.5801,0.52344 0.3256,0.8943 2.639,3.7615 5.1407,6.3711 2.5016,2.6095 5.0754,5.7595 5.7187,7 1.1273,2.1734 0.7365,7.36 -1.0449,13.879 -0.6204,2.2704 -0.358,2.7114 1.9512,3.291 1.7166,0.4308 2.4768,1.1633 2.1347,2.0547 -0.2923,0.7617 0.1179,1.9226 0.9102,2.5801 2.16,1.7927 1.7345,4.897 -0.8106,5.9199 -1.2375,0.4975 -1.7033,0.93199 -1.0351,0.96679 0.6681,0.035 1.7172,1.0014 2.3301,2.1465 0.9051,1.6912 0.7709,2.3426 -0.7149,3.4688 -1.079,0.8178 -1.3175,1.3992 -0.5801,1.418 0.6875,0.017 1.25,0.89306 1.25,1.9473 0,1.0541 0.5118,2.0866 1.1368,2.2949 0.8075,0.2691 0.7351,1.0344 -0.25,2.6406 -1.2214,1.9913 -1.1786,2.3779 0.3632,3.2539 2.4779,1.4077 2.1853,4.5305 -0.5,5.3359 -2.0227,0.6068 -2.0676,0.74769 -0.4511,1.3965 0.9889,0.3969 2.3516,1.8328 3.0293,3.1914 1.1887,2.3832 1.5877,2.4707 11.367,2.4707 9.3496,0 10.337,0.18752 12.721,2.4238 1.4484,1.3581 2.5992,3.5571 2.6192,5 0.02,1.4166 0.6788,3.7012 1.4648,5.0762 1.8736,3.276 1.9038,7 0.059,7 -0.7925,0 -1.7187,-0.45 -2.0586,-1 -1.0194,-1.6493 -3.3227,-1.1304 -3.9648,0.89257 -0.6877,2.1667 -3.6843,3.2501 -5.6406,2.041 -0.7452,-0.4605 -1.8908,-0.35201 -2.6114,0.24609 -0.706,0.5859 -1.2832,0.73002 -1.2832,0.32032 0,-0.4097 -0.675,-0.1847 -1.5,0.5 -0.825,0.6847 -1.5123,0.85294 -1.5293,0.37304 -0.017,-0.4798 -0.5001,-0.0665 -1.0742,0.91992 -0.6857,1.1786 -1.7055,1.5852 -2.9707,1.1836 -1.08,-0.3427 -1.9258,-0.14352 -1.9258,0.45508 0,0.5871 -0.3375,0.98175 -0.75,0.87695 -2.0998,-0.5333 -7.3993,1.6001 -8.3398,3.3574 -1.709,3.1934 -0.4806,3.1654 4.8418,-0.10937 6.3876,-3.9304 9.1847,-4.0204 9.4316,-0.30664 0.3674,5.5232 -0.2937,8.738 -2.2168,10.785 -1.0814,1.1511 -1.9668,2.6272 -1.9668,3.2793 0,0.652 -0.4722,1.1856 -1.0488,1.1856 -0.5765,0 -1.6203,1.3626 -2.3203,3.0273 -1.2683,3.0163 -1.2795,3.0197 -3.1074,1 -1.0088,-1.1147 -2.33,-2.0273 -2.9375,-2.0273 -1.7923,0 -3.6625,-3.8423 -3.0528,-6.2715 0.5408,-2.1548 -2.4586,-6.7285 -4.4121,-6.7285 -0.4402,0 -1.2893,-1.0738 -1.8867,-2.3848 -0.8464,-1.8577 -0.7461,-2.8691 0.4551,-4.584 2.0873,-2.9801 0.4825,-4.5216 -3.0371,-2.918 -1.4587,0.6647 -2.6524,1.5559 -2.6524,1.9805 0,0.4247 -0.7979,1.0243 -1.7734,1.334 -2.5294,0.8028 -6.962,8.054 -7.7402,12.66 -0.3643,2.1519 -0.3517,5.7472 0.027,7.9902 0.6603,3.9082 0.7496,3.9915 2.1445,2 3.4133,-4.8732 14.025,-0.95448 22.881,8.4492 10.95,11.628 20.75,12.074 32.338,1.4746 2.407,-2.2017 4.5855,-4.002 4.8418,-4.002 0.2562,0 1.6093,-0.9 3.0078,-2 3.0188,-2.3747 6.7044,-2.5461 10.639,-0.49414 3.9305,2.0498 4.1751,1.9741 6.6699,-2.0625 3.1779,-5.1419 3.032,-11.743 -0.416,-18.791 -1.5176,-3.1017 -2.6157,-6.6554 -2.4395,-7.8965 0.2903,-2.0445 0.8367,-2.2473 5.8203,-2.1543 9.2266,0.1722 16.849,4.9569 21.832,13.705 2.6995,4.7387 2.7287,6.7673 0.1347,8.9883 -2.3983,2.0536 -14.926,8.6994 -16.428,8.7148 -0.5716,0.01 -3.1215,1.9183 -5.666,4.25 -7.8499,7.193 -10.473,8.7402 -14.832,8.7402 -4.0217,0 -4.0421,0.018 -4.1914,4 -0.082,2.2 -0.195,4.5239 -0.25,5.1641 -0.055,0.6403 1.4146,2.0107 3.2657,3.0449 4.1163,2.2996 5.2097,3.376 7.666,7.5566 1.0554,1.7963 3.6075,4.3838 5.6719,5.75 3.4478,2.2816 3.6615,2.688 2.6152,4.9844 -0.6265,1.375 -1.4043,2.5456 -1.7285,2.6016 -0.3243,0.056 -2.2716,0.2539 -4.3262,0.4414 -2.0546,0.1874 -4.5296,0.80418 -5.5,1.3691 -1.3955,0.8125 -0.8088,1.0326 2.8047,1.0566 2.5126,0.017 6.9467,0.7369 9.8516,1.5996 2.905,0.8627 5.9098,1.3267 6.6796,1.0312 0.7699,-0.29538 1.4175,0.0112 1.4375,0.68165 0.02,0.6702 1.9326,2.431 4.25,3.9141 2.3174,1.4831 6.5754,4.781 9.4629,7.3281 4.1503,3.6609 5.2735,5.2968 5.3575,7.8047 l 0.1054,3.1719 1.0996,-2.7832 c 1.7661,-4.4753 4.8282,-2.7663 6.1172,3.4141 0.3346,1.6041 1.4319,2.8778 2.8106,3.2656 1.9553,0.55 2.0569,0.80234 0.7597,1.8691 -2.2129,1.8199 -4.3368,6.3795 -3.5586,7.6387 0.3723,0.6025 0.3122,1.1042 -0.1328,1.1152 -0.445,0.011 -2.5624,1.5501 -4.707,3.4219 -3.5567,3.1042 -8.2926,5.4863 -7.1133,3.5781 0.2697,-0.4363 -0.1811,-1.3496 -1,-2.0293 -0.8189,-0.6795 -1.5234,-1.9682 -1.5664,-2.8633 -0.05,-1.0364 -0.2628,-1.1728 -0.584,-0.37695 -0.2774,0.6875 -1.1893,1.25 -2.0273,1.25 -0.9964,0 -1.3086,0.56335 -0.9004,1.627 0.6549,1.7068 -0.9549,4.373 -2.6406,4.373 -0.5433,0 -0.7132,-1.0859 -0.3789,-2.418 0.7546,-3.0066 -1.198,-3.9257 -3.7012,-1.7422 -1.0827,0.9444 -2.0882,1.1952 -2.5,0.62109 -1.0332,-1.44 -7.7407,-1.1529 -7.4395,0.31836 0.1375,0.6717 -0.2,1.2207 -0.75,1.2207 -0.55,0 -1,-0.40148 -1,-0.89258 0,-1.5102 -3.174,-2.2081 -4.6132,-1.0137 -0.7483,0.6212 -2.0604,0.8608 -2.9141,0.5332 -0.8538,-0.3276 -2.4925,-0.0394 -3.6426,0.63867 -1.6754,0.98809 -2.1848,0.97641 -2.5586,-0.0586 -0.314,-0.8693 -0.8501,-0.9702 -1.6426,-0.3125 -0.6477,0.5376 -2.293,1.1295 -3.6543,1.3164 -1.3613,0.1868 -3.0371,0.69205 -3.7246,1.123 -0.6875,0.4311 -1.6899,0.51063 -2.2285,0.17773 -1.4315,-0.8847 -4.9837,1.2856 -9.0742,5.543 -3.1575,3.2863 -3.7183,3.537 -4.6641,2.0898 -0.8267,-1.265 -1.3585,-1.3737 -2.3007,-0.47266 -0.674,0.64464 -1.7997,0.95114 -2.502,0.68164 -0.7024,-0.2695 -1.5619,-0.0283 -1.9102,0.53516 -0.3482,0.56381 -1.2386,0.79171 -1.9785,0.50781 -0.7399,-0.2839 -2.8402,0.39165 -4.666,1.502 -2.448,1.4888 -3.6621,1.7349 -4.623,0.9375 -0.9775,-0.8113 -1.3028,-0.68504 -1.3028,0.50586 0,3.1885 5.389,4.3626 15,3.2695 2.475,-0.2814 4.5,-0.57343 4.5,-0.64843 0,-0.075 2.7,-0.26438 6,-0.42188 3.3,-0.1574 7.5328,-0.90656 9.4063,-1.6641 2.5472,-1.0299 3.5074,-1.0796 3.8086,-0.19922 0.517,1.5111 7.8988,-0.94107 7.5547,-2.5098 -0.1601,-0.73037 0.6712,-0.73553 2.7246,-0.0195 2.5156,0.877 3.7504,0.59947 8.3008,-1.8652 4.2695,-2.3124 5.5823,-2.6404 6.5253,-1.6309 0.6493,0.6951 1.155,1.619 1.125,2.0547 -0.1442,2.0651 -15.366,11.293 -18.629,11.293 -0.7243,0 -1.3164,0.45 -1.3164,1 0,0.55 -0.8137,1 -1.8086,1 -0.9949,0 -2.6824,0.66125 -3.75,1.4688 -1.0676,0.80755 -2.7289,1.482 -3.6914,1.5 -0.9625,0.017 -1.75,0.40824 -1.75,0.86914 0,0.4609 -1.6538,0.90056 -3.6757,0.97656 -2.0219,0.076 -4.1362,0.59901 -4.6993,1.1621 -0.5631,0.563 -1.8342,1.0234 -2.8242,1.0234 -2.4301,0 -2.2673,0.83859 0.6992,3.5879 5.03,4.6616 1.8592,9.1542 -5.5742,7.8984 -2.6911,-0.4547 -3.9258,-0.2987 -3.9258,0.4961 0,1.4001 -2.4837,4.0176 -3.8125,4.0176 -0.5251,0 -1.2018,0.94431 -1.5039,2.0996 -0.3021,1.1554 -0.9877,1.8311 -1.5234,1.5 -0.5458,-0.33749 -0.7683,0.18423 -0.5059,1.1875 0.2757,1.0544 -0.6582,3.005 -2.2754,4.75 -2.3138,2.4967 -2.4805,3.0124 -1.0546,3.2871 0.9302,0.1791 3.2651,-0.19362 5.1875,-0.82812 1.9225,-0.6345 4.8007,-0.86613 6.3964,-0.51563 1.7183,0.3773 3.1807,0.1849 3.586,-0.4707 0.4512,-0.7302 1.0855,-0.77466 1.8613,-0.13086 0.6469,0.5369 2.9686,1.1904 5.1602,1.4512 3.3721,0.4014 14.822,2.4918 21.984,4.0137 1.1,0.2337 2.316,0.47506 2.7012,0.53906 0.3852,0.064 1.0958,-0.59163 1.5801,-1.457 0.4843,-0.86537 1.9703,-2.124 3.3008,-2.7988 1.5952,-0.809 2.3843,-2.0363 2.3203,-3.5996 l -0.098,-2.3691 1.9707,2.4199 1.9707,2.4219 -0.4004,-4.25 c -0.3019,-3.2138 -0.048,-4.25 1.0391,-4.25 2.0677,0 6.9019,-5.7484 7.6328,-9.0762 0.3424,-1.5586 1.4683,-3.1016 2.502,-3.4297 1.2044,-0.3821 1.662,-1.1624 1.2754,-2.1699 -0.3544,-0.9234 0.088,-1.9592 1.0722,-2.5098 0.9215,-0.5157 1.3921,-1.3947 1.0469,-1.9531 -0.345,-0.5583 0.3511,-1.927 1.5469,-3.041 1.1958,-1.1141 1.9336,-2.6531 1.6386,-3.4219 -0.2951,-0.7689 -0.028,-1.3984 0.5918,-1.3984 0.6201,0 3.3174,-2.25 5.9961,-5 2.6786,-2.75 5.0975,-5 5.375,-5 0.2775,0 1.8114,-1.3372 3.4082,-2.9707 2.6406,-2.7013 3.1857,-2.8715 6.0274,-1.8809 1.9119,0.6665 2.9305,1.5989 2.623,2.4004 -0.2765,0.7204 -0.8062,2.9205 -1.1758,4.8906 -0.3696,1.9702 -1.0709,3.8295 -1.5585,4.1309 -0.4877,0.3013 -0.8868,1.2015 -0.8868,2 0,0.7986 -0.8353,3.358 -1.8574,5.6894 -4.3607,9.9473 -6.4348,15.74 -5.6367,15.74 0.2008,0 1.5645,-0.45608 3.0312,-1.0137 1.8474,-0.7024 2.4803,-1.5025 2.0586,-2.6016 -0.3827,-0.9971 0.3045,-2.3046 1.8516,-3.5215 1.3539,-1.065 2.2697,-2.4831 2.0352,-3.1504 -0.5148,-1.4647 0.9047,-3.3059 5.4101,-7.0234 3.3604,-2.7727 3.3665,-2.793 0.6426,-2.1094 -2.5651,0.6438 -2.6737,0.54709 -1.6074,-1.4453 0.6286,-1.1745 1.6047,-2.1348 2.1699,-2.1348 0.5652,0 0.8957,-0.78846 0.7324,-1.752 -0.2829,-1.6701 1.1077,-4.0952 5.7715,-10.061 1.1557,-1.4781 1.894,-3.2867 1.6406,-4.0176 -0.2535,-0.731 0.4701,-1.9808 1.6074,-2.7774 1.1373,-0.7966 1.8355,-2.0504 1.5528,-2.7871 -0.2827,-0.7368 0.8603,-3.3768 2.541,-5.8672 1.6808,-2.4904 3.0566,-4.8491 3.0566,-5.2402 0,-0.3911 1.35,-2.4147 3,-4.498 3.3985,-4.291 3.5365,-4.7268 1.6407,-5.1777 -1.0806,-0.257 -0.9488,-1.2454 0.6406,-4.8223 2.1938,-4.937 2.7934,-7.2387 2.8594,-10.963 0.024,-1.3546 0.679,-3.3674 1.4531,-4.4726 1.8252,-2.6058 1.7767,-3.5644 -0.1758,-3.5644 -1.3389,0 -1.2568,-0.52397 0.5293,-3.4141 l 2.1094,-3.4141 -2.211,0.57813 -2.2129,0.57812 2.1836,-3.5312 c 2.7035,-4.3744 2.742,-5.1662 0.1836,-3.7969 -1.7497,0.9364 -2,0.76005 -2,-1.4062 0,-1.3619 0.4567,-2.7579 1.0157,-3.1035 0.559,-0.3454 0.7275,-1.0984 0.373,-1.6719 -0.3544,-0.57354 -0.024,-1.4359 0.7344,-1.916 1.1165,-0.7071 1.0723,-0.87472 -0.2305,-0.88672 -1.2585,-0.012 -1.5569,-0.93198 -1.3711,-4.2266 0.1307,-2.3154 0.7381,-4.3762 1.3496,-4.5801 0.7307,-0.2435 0.6012,-0.88113 -0.3789,-1.8613 -2.1856,-2.1855 -1.8201,-5.9952 0.7578,-7.8848 l 2.25,-1.6484 -2.3476,0.69141 c -2.1053,0.61966 -2.2764,0.44709 -1.6367,-1.6582 0.3925,-1.2918 1.586,-3.3018 2.6523,-4.4688 l 1.9395,-2.123 -2.8028,0.43359 -2.8047,0.43164 3.25,-2.8828 c 3.6976,-3.2805 4.0786,-4.268 1.3731,-3.5606 -1.5696,0.4105 -1.794,0.0557 -1.3692,-2.166 0.2794,-1.4617 1.3488,-3.1841 2.377,-3.8262 1.0282,-0.6421 1.8691,-1.5132 1.8691,-1.9355 0,-0.4224 -0.88,-0.21828 -1.955,0.45312 -2.4123,1.5065 -3.783,0.39091 -2.0645,-1.6797 0.7051,-0.8496 0.8202,-1.5234 0.2598,-1.5234 -2.1414,0 -0.6335,-5.9795 2.2734,-9.0137 1.6406,-1.7124 2.2565,-2.8354 1.3672,-2.4941 -2.8808,1.1054 -2.9824,-3.1192 -0.1426,-5.959 3.0771,-3.077 2.2474,-3.1882 -3.3945,-0.45703 -2.7713,1.3416 -5.0755,1.8256 -6.5137,1.3691 l -2.2265,-0.70703 2.4492,-2.0352 c 1.3465,-1.1196 1.7036,-1.7659 0.7949,-1.4375 -2.1861,0.7901 -3.1098,-0.24533 -1.7168,-1.9238 1.4503,-1.7475 0.4599,-1.6985 -3.1231,0.1543 -2.9048,1.5022 -4.826,0.6368 -3.4668,-1.5625 0.3638,-0.5868 0.053,-0.98898 -0.6894,-0.89258 -1.9431,0.2524 -5.8516,-1.1327 -5.8516,-2.0742 0,-0.44 0.5625,-1.0272 1.25,-1.3047 0.6875,-0.27737 -0.2125,-0.54048 -2,-0.58398 -3.2044,-0.078 -4.4348,-1.5119 -2,-2.332 0.6875,-0.2316 -0.3912,-0.73253 -2.3984,-1.1113 -4.0056,-0.7559 -6.4246,-2.8994 -5.3086,-4.7051 0.5297,-0.8571 -0.9072,-0.96768 -5.543,-0.42968 -4.3752,0.5078 -6.0583,0.40219 -5.5937,-0.34961 0.8677,-1.4039 -5.2656,-3.066 -7.9063,-2.1426 -1.1,0.3846 -3.2489,1.0016 -4.7754,1.3711 -2.5548,0.6185 -2.7257,0.47814 -2.164,-1.7598 0.4821,-1.9208 0.1441,-2.5789 -1.6074,-3.1348 -1.7371,-0.5514 -1.919,-0.895 -0.836,-1.5918 0.8735,-0.5621 0.187,-0.65982 -1.8672,-0.26562 -4.4625,0.8563 -4.159,-1.0081 0.5,-3.0703 2.0625,-0.9129 5.775,-2.7966 8.25,-4.1875 3.7101,-2.0849 4.0851,-2.1642 2.1387,-0.44922 -3.2656,2.8773 -2.1135,2.6029 3.8613,-0.91992 5.0328,-2.9675 8.7012,-3.9422 7.4961,-1.9922 -0.6525,1.0557 4.055,-0.69547 6.2539,-2.3262 0.7992,-0.5927 1.25,-0.53952 1.25,0.14648 0,0.59 -0.7875,1.5312 -1.75,2.0918 -0.9625,0.5606 -1.4038,1.0321 -0.9804,1.0488 0.4234,0.017 2.6625,-1.1636 4.9746,-2.623 4.0282,-2.5429 4.4975,-2.6105 11.23,-1.6445 7.9756,1.1443 9.3195,0.83504 7.0879,-1.6309 -2.1618,-2.3887 -1.1693,-2.9755 4.2735,-2.5215 2.565,0.2139 4.1015,0.14179 3.414,-0.16211 -0.6875,-0.304 -1.25,-1.5509 -1.25,-2.7695 0,-1.6246 -0.9339,-2.5526 -3.5,-3.4805 -3.8985,-1.4098 -4.4839,-3.7916 -2,-8.1367 0.786,-1.375 1.4459,-5.1515 1.4649,-8.3926 0.034,-5.7178 -0.106,-6.0331 -4.7149,-10.619 -4.8457,-4.8214 -10.152,-7.0469 -19.75,-8.2832 l -4,-0.51562 3.0821,1.3379 c 3.6963,1.6069 8.2588,7.3329 10.098,12.67 3.2945,9.5626 -3.1177,18.561 -13.971,19.604 -17.745,1.705 -23.826,-20.178 -8.4375,-30.361 5.2753,-3.491 3.813,-4.0668 -6.1367,-2.418 -10.677,1.7692 -12.607,3.7287 -14.746,14.967 -0.9424,4.9524 -0.9578,6.6649 -0.062,7.2344 0.7734,0.4919 0.5756,0.75162 -0.5781,0.76172 -0.9625,0.01 -1.75,-0.7079 -1.75,-1.5918 0,-1.0102 -0.551,-1.3953 -1.4844,-1.0371 -3.3236,1.2754 -4.6232,-6.3106 -1.9629,-11.455 0.8532,-1.6502 1.2786,-3.8545 0.9473,-4.8984 -0.4503,-1.4187 0.1688,-2.2973 2.4492,-3.4766 3.172,-1.6404 4.3201,-5.519 1.8477,-5.2852 z m -92.977,0.002 c -0.6178,0.065 -0.8164,0.81505 -0.8164,2.5918 0,1.6764 -0.4319,3.3157 -0.9609,3.6426 -0.6157,0.3805 -0.6157,1.5036 0,3.123 1.4842,3.9036 1.1457,8.6138 -0.9063,12.639 -1.8607,3.6497 -1.859,3.6698 0.3887,5.7812 2.396,2.251 2.3315,4.6481 -0.2344,8.6309 -1.125,1.746 -1.1412,2.2634 -0.086,2.7578 0.7148,0.33482 -0.9323,0.37534 -3.6602,0.0898 -2.727,-0.2853 -5.3708,-0.92944 -5.873,-1.4316 -0.8733,-0.8732 -2.8897,-0.33854 -8.416,2.2266 -1.2367,0.574 -2.5083,0.78275 -2.8262,0.46485 -0.3179,-0.318 -2.5481,0.29262 -4.9551,1.3574 -3.5955,1.5904 -5.9464,1.8524 -13.174,1.4688 -4.8384,-0.2569 -9.0219,-0.54703 -9.2969,-0.64453 -0.275,-0.0977 -0.7861,-0.1406 -1.1367,-0.0957 -0.3506,0.044 -2.0381,-0.35156 -3.75,-0.88086 -1.7119,-0.5294 -4.5445,-1.4049 -6.2949,-1.9453 -4.3332,-1.3378 -2.5672,0.15589 5.0547,4.2754 3.5045,1.8941 7.6255,4.6277 9.1582,6.0742 2.6585,2.5093 6.3174,4.4692 8.4687,4.5371 0.55,0.017 0.175,-0.59292 -0.834,-1.3574 -1.7449,-1.3229 -1.7092,-1.4732 0.752,-3.0859 1.4935,-0.9786 3.5129,-1.4508 4.7813,-1.1191 1.2079,0.3159 2.6808,0.17149 3.2734,-0.32031 0.5925,-0.4918 3.2591,-1.1548 5.9238,-1.4746 2.6647,-0.3199 5.5283,-0.96519 6.3653,-1.4336 0.837,-0.46841 2.3892,-0.62631 3.4472,-0.34961 1.058,0.2767 2.9061,0.0386 4.1074,-0.5293 9.008,-4.2596 12.907,-3.7296 8.0801,1.0977 -1.4675,1.4675 -3.0582,2.668 -3.5332,2.668 -0.475,0 -0.8633,0.40243 -0.8633,0.89453 0,1.2911 7.3841,-0.54718 7.8536,-1.9551 0.2131,-0.6416 1.2342,-1.8906 2.2675,-2.7754 1.0334,-0.8848 1.8789,-1.9649 1.8789,-2.4004 0,-0.4356 1.4625,-2.1763 3.25,-3.8691 1.9384,-1.8357 2.5357,-2.8493 1.4786,-2.5098 -1.0644,0.3416 -2.6091,-0.26533 -3.8633,-1.5195 -2.6692,-2.6692 -2.0863,-6.9403 2.1093,-15.463 3.2931,-6.6892 3.7752,-9.4023 1.6719,-9.4023 -2.4441,0 -6.8939,-4.9445 -6.3437,-7.0488 0.2805,-1.0733 0.364,-1.9512 0.1855,-1.9512 -0.1785,0 -1.0362,-0.27353 -1.9062,-0.60743 -0.3072,-0.11789 -0.5598,-0.17199 -0.7657,-0.15039 z m -90.15,1.2305 c -0.3695,0.042 -0.2042,0.37691 0.4004,1.1055 1.381,1.6639 1.6305,1.7208 2.3633,0.53516 0.3013,-0.4875 -0.3728,-1.1277 -1.498,-1.4219 -0.6293,-0.16455 -1.0435,-0.24395 -1.2657,-0.21875 z m 174.56,8.5274 c 2.4035,0 -0.765,7.9974 -6.3399,16 -0.7292,1.0464 -0.717,2.3528 0.037,4.3223 l 1.0801,2.8242 2.5859,-3.0742 c 2.7778,-3.3012 5.0206,-4.1072 3.9961,-1.4375 -0.3441,0.8989 -0.3376,3.1828 0.018,5.0762 0.5595,2.9825 0.953,3.3657 2.9473,2.8652 1.275,-0.32 2.8926,-0.01 3.625,0.69531 0.7273,0.7001 5.3977,3.0056 10.379,5.123 4.9811,2.1174 9.9311,4.4982 11,5.291 1.8916,1.403 1.8696,1.5053 -0.8614,3.877 -1.5432,1.3401 -3.4557,2.4375 -4.25,2.4375 -0.7944,0 -1.4453,0.46962 -1.4453,1.0449 0,1.6908 -10.171,5.9347 -14.25,5.9453 -2.0625,0.01 -3.75,-0.35102 -3.75,-0.79102 0,-0.44 0.5625,-1.3962 1.25,-2.125 0.9554,-1.012 0.9685,-1.4279 0.057,-1.7637 -0.6566,-0.2418 -0.9456,-1.0855 -0.6426,-1.875 0.3029,-0.7895 0.052,-1.4355 -0.5566,-1.4355 -0.6088,0 -1.1075,-0.7012 -1.1075,-1.5586 0,-0.8575 -0.429,-1.2938 -0.955,-0.96875 -0.5259,0.3251 -0.6782,1.3162 -0.3379,2.2031 0.7438,1.9383 -2.1573,4.3242 -5.2578,4.3242 -3.7535,0 -11.048,-7.3504 -12.324,-12.418 -1.5509,-6.1594 -1.4065,-11.102 0.3653,-12.572 0.8191,-0.6796 1.2283,-1.6562 0.9121,-2.168 -0.3163,-0.5118 -0.048,-1.564 0.5957,-2.3398 1.7146,-2.066 5.0019,-8.7303 5.0019,-10.141 0,-1.2452 6.8365,-7.3613 8.2286,-7.3613 z m -170.08,7.5605 c -0.6361,-0.0232 -1.1504,0.43593 -1.1504,1.4707 0,1.0827 0.45,1.9688 1,1.9688 0.55,0 1,0.82568 1,1.834 0,1.9981 0.8248,3.166 2.2344,3.166 0.4954,0 0.6096,-1.0125 0.2539,-2.25 -0.3557,-1.2375 -0.8532,-2.9965 -1.1055,-3.9082 -0.3943,-1.425 -1.4145,-2.2514 -2.2324,-2.2812 z m 148.2,0.55469 c 0.6077,-0.0609 0.6116,0.42668 0.1953,1.7383 -0.4745,1.495 -0.2032,2.3403 0.8847,2.7578 1.9825,0.7611 2.0124,2.7737 0.066,4.3887 -0.825,0.6847 -1.5,2.0907 -1.5,3.125 0,1.0343 -1.274,3.9285 -2.832,6.4316 -2.3542,3.7823 -3.0344,4.3088 -4.0234,3.1172 -1.5753,-1.8981 -1.1868,-11.489 0.5351,-13.211 0.7458,-0.7458 1.2594,-1.7183 1.1406,-2.1602 -0.3605,-1.3415 1.2577,-5.3027 2.1661,-5.3027 0.468,0 1.6134,-0.29415 2.5468,-0.65235 0.3441,-0.13205 0.6155,-0.21212 0.8184,-0.23242 z m 114.2,3.9629 c -0.6294,-0.0318 -2.0394,0.81544 -4.0489,2.4844 l -3,2.4922 3.4668,-1.4277 c 1.9068,-0.7857 3.6325,-1.9228 3.834,-2.5274 0.2221,-0.66639 0.1258,-1.0024 -0.2519,-1.0215 z m -68.291,1.7188 c -0.1289,-0.0566 -0.2009,0.0103 -0.2109,0.21875 -0.09,2.9259 3.6429,8.348 7.0313,10.215 4.1403,2.2811 9.5744,1.8658 13.662,-1.0449 3.0539,-2.1745 5.9893,-6.7899 4.9687,-7.8105 -0.345,-0.345 -2.783,1.4486 -5.418,3.9863 -5.0336,4.8481 -10.291,6.3887 -10.291,3.0156 0,-1.3071 -0.2818,-1.3877 -1.455,-0.41406 -1.98,1.6433 -3.1533,0.71185 -6.0137,-4.7812 -1.0056,-1.931 -1.8854,-3.2151 -2.2735,-3.3848 z m 68.354,6.4922 c -0.568,-0.0948 -1.974,1.2201 -5.4161,4.5664 -5.0418,4.9015 -5.6009,5.8062 -4.25,6.8809 1.3749,1.0939 1.2645,1.4692 -0.9453,3.2285 l -2.5,1.9902 2.3575,0.0215 c 1.6797,0.016 2.1914,0.45444 1.7812,1.5234 -0.8713,2.2707 1.2945,1.7955 3.418,-0.75 2.427,-2.9102 2.4112,-3.685 -0.059,-3.0391 -3.0236,0.7907 -2.3523,-0.91123 1.4629,-3.7109 3.5116,-2.577 4.4994,-4.577 4.5234,-9.1445 0,-0.93969 -0.033,-1.5061 -0.3711,-1.5664 z m -255.08,0.93359 c -0.062,0.002 -0.1076,0.02 -0.1406,0.0527 -0.7137,0.7137 5.5469,5.7246 7.1524,5.7246 0.7988,0 1.1584,-0.6124 0.8418,-1.4375 -0.3032,-0.7902 -1.0927,-1.2284 -1.754,-0.97461 -0.6613,0.2537 -2.2298,-0.49527 -3.4843,-1.6641 -1.0978,-1.0227 -2.1852,-1.7186 -2.6153,-1.7012 z m 170.71,0.46485 c 1.6277,-0.0855 4.1037,0.9005 9.9707,3.6894 5.1056,2.427 11.083,4.9071 13.283,5.5117 5.6337,1.5481 16.114,1.3756 24.584,-0.40625 3.9679,-0.8347 7.4356,-1.2968 7.707,-1.0254 0.8886,0.8882 -2.2216,3.8237 -5.5078,5.1973 -3.6458,1.524 -19.529,1.6743 -25.621,0.24219 -4.7841,-1.1246 -17.283,-6.538 -20.775,-8.998 -1.437,-1.0122 -2.8647,-1.5865 -3.1739,-1.2773 -0.3092,0.3092 -1.3427,0.1258 -2.2969,-0.4082 -1.5969,-0.8938 -1.5674,-1.0615 0.3907,-2.1094 0.448,-0.2398 0.8969,-0.38751 1.4394,-0.41601 z m -12.969,3.5625 c -0.4226,0.27593 -0.098,4.8435 0.709,7.75 0.5349,1.925 0.9432,3.9002 0.9082,4.3887 -0.035,0.4885 0.5372,1.2636 1.2714,1.7226 0.986,0.6158 1.4192,0.0436 1.6524,-2.1758 0.2293,-2.1832 -0.3197,-3.5276 -2,-4.8984 -2.0965,-1.7104 -2.1505,-1.9536 -0.5664,-2.5703 2.1,-0.8176 2.3237,-2.4668 0.334,-2.4668 -0.7791,0 -1.6445,-0.5625 -1.9219,-1.25 -0.1162,-0.28793 -0.213,-0.4469 -0.293,-0.4961 -0.035,-0.0213 -0.066,-0.0212 -0.094,-0.004 z m -15.791,3.1016 c 1.2358,-0.0768 1.6674,2.4951 0.5254,4.6289 -0.6288,1.1749 -1.3073,4.1499 -1.5079,6.6113 -0.3774,4.6315 -2.4442,10.408 -3.7226,10.408 -0.4017,0 -1.4334,-1.3634 -2.2949,-3.0293 -1.505,-2.9104 -1.4333,-3.3163 1.875,-10.381 1.8936,-4.0435 3.9412,-7.6577 4.5488,-8.0332 0.2071,-0.12798 0.3997,-0.19408 0.5762,-0.20508 z m -67.062,16.648 c -0.6268,0 -0.8934,1.2514 -0.6368,3 0.2422,1.65 0.7261,3 1.0762,3 0.3501,0 0.6367,-1.35 0.6367,-3 0,-1.65 -0.4838,-3 -1.0761,-3 z m 70.582,30.209 c 1.1835,0.0673 2.7402,0.76172 4.4082,2.1094 l 2.9141,2.3535 -2.1641,2.1641 c -2.6198,2.6197 -3.3941,2.6794 -5.416,0.41407 -0.8592,-0.9625 -1.7157,-2.875 -1.9043,-4.25 -0.2645,-1.9276 0.6404,-2.8776 2.1621,-2.791 z m -106.99,12.189 c -1.0757,0.064 -2.1425,0.61189 -3.1192,1.6387 -1.4316,1.5051 -1.9426,12.478 -0.6758,14.51 0.3574,0.5764 0.5207,2.2639 0.3575,3.75 -0.1631,1.4862 0.1182,2.7031 0.625,2.7031 0.5068,0 0.6249,0.4779 0.2636,1.0625 -0.3613,0.5847 0.1063,1.9068 1.0391,2.9375 0.9327,1.0307 1.4315,2.3036 1.1074,2.8281 -0.3242,0.5245 0.5321,1.688 1.9024,2.5859 1.3703,0.8978 2.4902,2.2589 2.4902,3.0254 0,0.7665 0.5625,1.6557 1.25,1.9766 0.8928,0.4166 0.9241,0.74021 0.1152,1.1289 -0.8198,0.3939 -0.8474,1.6586 -0.1054,4.582 0.6975,2.7648 0.6949,5.0967 -0.012,7.3984 -0.5677,1.849 -0.7981,3.5964 -0.5117,3.8828 0.6337,0.63369 3.9072,-1.0322 4.7696,-2.4277 0.343,-0.5549 2.2814,-1.8776 4.3066,-2.9394 2.0252,-1.062 4.9208,-2.9687 6.4355,-4.2363 l 2.754,-2.3047 -2.4727,-5 c -1.6421,-3.3201 -2.4829,-6.7369 -2.5039,-10.168 -0.033,-5.4733 2.5816,-12.936 5.332,-15.219 1.7858,-1.4821 2.1891,-4.6544 0.7071,-5.5703 -0.512,-0.3164 -1.2285,-0.0966 -1.5899,0.48829 -0.4327,0.7001 -1.7972,0.38824 -3.998,-0.91016 -1.8379,-1.0844 -4.1929,-1.7484 -5.2325,-1.4766 -1.0396,0.2719 -2.4361,-0.16626 -3.1054,-0.97266 -0.6757,-0.8142 -2.1065,-1.2333 -3.2149,-0.94336 -1.0979,0.2871 -2.7758,-0.18493 -3.7304,-1.0488 -1.0111,-0.915 -2.0969,-1.3406 -3.1739,-1.2812 h -0.01 z m 64.834,28.766 c 0.054,-0.0126 0.1117,-0.008 0.1777,0.0137 0.6152,0.2051 1.1189,0.81146 1.1289,1.3477 0.01,0.5363 0.4922,1.5568 1.0821,2.2676 0.7451,0.8985 0.7537,1.6096 0.027,2.3359 -0.5746,0.5746 -1.2585,0.66753 -1.5195,0.20703 -1.1906,-2.0999 -1.7035,-5.9827 -0.8984,-6.1719 z m 95.566,5.6699 c 3.1943,0.14318 18.858,17.421 23.396,26.166 6.2348,12.013 7.4657,17.98 6.2168,30.15 -1.1888,11.584 -5.943,24.205 -8.7168,23.141 -1.1815,-0.4533 -1.3279,0.12742 -0.7754,3.0742 0.4643,2.4749 0.314,3.6348 -0.4726,3.6348 -0.6353,0 -1.0831,-0.5625 -0.9941,-1.25 0.544,-4.1888 -1.1372,-4.8043 -1.7715,-0.64844 -0.1721,1.1281 -0.9866,2.7249 -1.8086,3.5469 -0.822,0.822 -1.4942,2.0755 -1.4942,2.7871 0,0.7115 -0.9758,2.5333 -2.1679,4.0488 l -2.1661,2.7559 2.1661,-0.6875 c 1.2992,-0.4124 2.1679,-0.26089 2.1679,0.37891 0,0.5871 -0.4128,1.0684 -0.9179,1.0684 -0.505,0 -1.5175,0.21245 -2.25,0.47265 -0.7324,0.2602 -2.1142,0.0162 -3.0703,-0.54297 -1.3065,-0.7639 -1.6232,-1.9191 -1.2735,-4.6504 0.2559,-1.9985 1.0247,-3.9794 1.709,-4.4023 0.6843,-0.4229 0.9321,-1.0816 0.5488,-1.4648 -0.3833,-0.38328 -1.3271,-0.175 -2.0957,0.4629 -1.3827,1.1475 -4.6504,0.579 -4.6504,-0.8086 0,-1.1401 4.5063,-5.0664 5.8145,-5.0664 0.652,0 1.1855,-0.91395 1.1855,-2.0312 0,-1.1172 0.675,-2.2908 1.5,-2.6074 1.7763,-0.6816 2.0109,-4.025 0.3223,-4.5879 -0.6898,-0.2299 -0.845,-0.92895 -0.375,-1.6894 0.6555,-1.0601 0.9519,-1.0566 1.6172,0.0195 0.645,1.0437 1.2512,0.92026 2.9199,-0.58984 1.91,-1.7285 2.0471,-2.6063 1.4766,-9.459 -0.346,-4.1551 -0.8212,-8.9047 -1.0567,-10.555 -0.2355,-1.6503 -0.6303,-5.6638 -0.8769,-8.918 -0.2467,-3.2543 -0.9805,-6.2445 -1.6309,-6.6465 -0.6508,-0.4019 -0.9352,-1.6777 -0.6328,-2.834 0.3024,-1.1563 0.1475,-2.1016 -0.3437,-2.1016 -1.349,0 -4.0295,-7.0807 -3.4141,-9.0195 0.2963,-0.9337 -0.145,-2.2679 -0.9824,-2.9629 -0.8375,-0.695 -1.5235,-1.775 -1.5235,-2.4004 0,-0.6254 -0.8439,-1.6626 -1.875,-2.3066 -1.3291,-0.8303 -1.7284,-1.9377 -1.3711,-3.8066 0.3681,-1.9253 -0.069,-3.0374 -1.625,-4.127 -2.3034,-1.6134 -2.6203,-3.052 -1.1757,-5.3359 0.095,-0.15033 0.2539,-0.21703 0.4668,-0.20703 z m -23.145,37.691 c 5.0311,0.023 6.0787,0.3777 8.1172,2.75 1.2872,1.498 2.7572,2.7246 3.2676,2.7246 1.9186,0 9.2667,7.864 9.9277,10.625 0.3786,1.5814 1.1069,3.4081 1.6192,4.0605 1.057,1.3458 -0.6569,5.3145 -2.295,5.3145 -0.5592,0 -1.4751,-1.3197 -2.0371,-2.9316 -0.6459,-1.8529 -3.5768,-4.7956 -7.9687,-8 -3.8212,-2.788 -7.2817,-5.0684 -7.6895,-5.0684 -0.4078,0 -1.5866,-1.125 -2.6191,-2.5 -1.1006,-1.4655 -2.8824,-2.5 -4.3067,-2.5 -1.9474,0 -2.3655,-0.4464 -2.1093,-2.25 0.2897,-2.0404 0.8557,-2.2486 6.0937,-2.2246 z m 15.627,32.535 v 0.004 c -0.8499,0.1448 -1.9024,1.3488 -1.9024,2.498 0,1.9615 1.6386,1.8253 2.416,-0.20118 0.3478,-0.9037 0.4252,-1.8502 0.1739,-2.1016 -0.099,-0.0995 -0.2147,-0.16045 -0.3399,-0.18945 -0.1095,-0.0302 -0.2262,-0.0308 -0.3476,-0.01 z m -1.4492,5.4082 c -0.1112,-0.01 -0.2366,-0.005 -0.3711,0.0137 -0.1793,0.0253 -0.3758,0.0772 -0.5821,0.15625 -0.825,0.3166 -1.5,0.94052 -1.5,1.3867 0,0.44618 -0.2629,1.6351 -0.584,2.6426 -0.4538,1.4265 -0.1218,1.3091 1.5,-0.52929 1.1472,-1.2984 2.084,-2.747 2.084,-3.2188 0,-0.2653 -0.2129,-0.42217 -0.5468,-0.45117 z m -5.0118,6.5312 c -0.8574,0 -1.2813,0.45 -0.9414,1 0.3399,0.55 1.0411,1 1.5586,1 0.5175,0 0.9414,-0.45 0.9414,-1 0,-0.55 -0.7011,-1 -1.5586,-1 z m -85.941,19.004 c -0.8899,0 -1.3399,0.45 -1,1 0.3399,0.55 0.7899,1 1,1 0.2101,0 0.6601,-0.45 1,-1 0.3399,-0.55 -0.1101,-1 -1,-1 z"
       fill="#e6e6e6"
       id="path1" />
    <path
       d="m 1510.5,368.09 c -1.7572,-0.0154 -3.8177,0.0301 -6.3946,0.10937 -10.977,0.3378 -11.832,0.52343 -18.793,4.0781 -6.8282,3.4871 -17.206,11.334 -17.207,13.012 -3e-4,0.4125 0.675,0.75 1.5,0.75 1.1049,0 1.5,1.1524 1.5,4.377 0,2.6712 0.5847,4.8634 1.5,5.623 0.825,0.6847 1.5,2.2732 1.5,3.5293 0,1.763 0.4401,2.1684 1.9278,1.7793 1.7892,-0.4679 13.001,3.2942 17.572,5.8965 4.5733,2.6033 11.804,3.0217 26.031,1.5039 2.2168,-0.2365 5.3668,-1.0882 7,-1.8926 1.6332,-0.8045 3.7562,-1.2846 4.7187,-1.0664 1.2315,0.2792 1.75,-0.21864 1.75,-1.6777 0,-2.4796 0.8155,-2.5902 3.7774,-0.51562 2.0512,1.4367 2.222,1.4175 2.209,-0.25 -0.026,-3.411 -1.2215,-6.3066 -2.6036,-6.3066 -1.7082,0 -1.804,-2.1803 -0.1679,-3.8164 0.6683,-0.6683 1.231,-3.828 1.25,-7.0234 0.052,-8.7508 -2.9626,-12.2 -13.707,-15.68 -5.5514,-1.7979 -8.0915,-2.3835 -13.363,-2.4297 z m -1.3789,5.2891 c 1.6888,-0.003 3.3997,0.35531 5.125,1.0781 8.8184,3.6943 13.614,16.111 9.1445,23.678 -1.6528,2.7979 -4.2852,3.9676 -4.2852,1.9043 0,-0.55 -0.459,-1 -1.0195,-1 -0.5655,0 -0.7595,1.0277 -0.4375,2.3105 0.731,2.9125 -2.6827,4.6895 -9.0117,4.6895 -3.4066,0 -5.3334,-0.73068 -8.7031,-3.2969 -8.2892,-6.3129 -8.9248,-16.48 -1.5079,-24.119 3.3782,-3.4792 6.9801,-5.2371 10.695,-5.2441 z m 2.1093,6.2715 c -1.6899,0.0351 -3.125,0.528 -3.125,1.5391 0,0.5519 1.5518,0.86837 3.4473,0.70507 1.8955,-0.1633 3.7698,0.0274 4.166,0.42383 1.102,1.102 1.3801,0.86442 0.7891,-0.67578 -0.5094,-1.3274 -3.1046,-2.0373 -5.2774,-1.9922 z m -4.205,3.5195 c -0.1199,-0.0636 -0.6499,0.19663 -1.67,0.74023 -2.3269,1.2399 -2.9005,2.1289 -1.373,2.1289 0.4826,0 1.4951,-0.74907 2.25,-1.6641 0.6222,-0.7543 0.913,-1.1416 0.793,-1.2051 z m -10.035,7.252 c -0.5464,-0.10331 -0.7992,0.78809 -0.3867,2.7422 1.3601,6.4442 8.4508,11.392 14.502,10.119 1.375,-0.2892 2.687,-0.68707 2.916,-0.88477 0.2294,-0.1976 -0.6937,-0.35937 -2.0527,-0.35937 -3.3851,0 -11.7,-5.4439 -12.822,-8.3945 -0.7682,-2.0214 -1.6098,-3.1193 -2.1562,-3.2226 z"
       fill="#ffffff"
       id="path2" />
    <path
       d="m 1561,563.46 c -1.0816,-0.003 -1.8981,0.58575 -3.4219,1.998 -2.1088,1.9548 -2.5842,3.1029 -2.0938,5.0566 0.3678,1.4655 0.206,2.5293 -0.3847,2.5293 -0.5604,0 -1.0291,-1.2375 -1.041,-2.75 -0.012,-1.5125 -0.8,-3.7287 -1.75,-4.9238 -1.5841,-1.9922 -2.287,-2.1124 -8.4434,-1.4512 -3.6933,0.3966 -6.9116,0.92532 -7.1524,1.1738 -0.2408,0.2484 -0.5941,1.7919 -0.7851,3.4316 -0.2738,2.3503 0.076,3.0533 1.6523,3.3184 4.9692,0.8355 27.587,8.4443 33,11.102 7.358,3.6121 8.1181,3.6798 9.6387,0.84961 0.6648,-1.2375 1.4795,-3.567 1.8106,-5.1758 0.3312,-1.6089 1.2217,-3.1305 1.9785,-3.3828 1.0634,-0.3544 1.2271,0.28596 0.7207,2.8184 -0.9795,4.8972 0.594,6.2054 5.1621,4.2949 5.3614,-2.2424 25.74,-7.2495 32.439,-7.9707 l 5.75,-0.61914 v -7.4258 l -7.75,-0.61133 c -6.8689,-0.541 -8.0801,-0.3704 -10.654,1.5 -2.256,1.6388 -3.2899,1.87 -4.6328,1.0312 -1.1977,-0.7479 -4.7124,-0.79871 -11.441,-0.16211 -6.5006,0.615 -11.087,0.57076 -13.867,-0.13477 -2.2845,-0.57988 -6.1793,-1.441 -8.6543,-1.9141 -2.475,-0.4732 -5.9099,-1.3685 -7.6347,-1.9883 -1.0503,-0.3775 -1.7963,-0.59375 -2.4453,-0.59375 z m 70.799,2.084 -0.1094,3.748 -0.1094,3.752 h 5.25 c 2.8875,-3e-4 5.2833,-0.3375 5.3243,-0.75 0.041,-0.4125 0.2598,-1.7394 0.4863,-2.9492 0.5151,-2.7521 0.071,-3.0107 -5.9512,-3.4473 l -4.8906,-0.35351 z m -100.13,0.59765 c -0.7033,-0.0182 -1.7719,0.18915 -3.4629,0.52735 -4.1006,0.8201 -4.0213,3.1377 0.125,3.6523 1.7875,0.2218 3.7502,0.4745 4.3614,0.5625 0.6668,0.096 0.9193,-0.84064 0.6328,-2.3398 -0.3281,-1.7159 -0.4842,-2.3724 -1.6563,-2.4024 z m 116.97,3.3887 c -0.6382,0.0524 -1.5519,0.50897 -2.5196,1.4766 -1.12,1.1201 -2.0371,2.2621 -2.0371,2.5371 0,1.2287 2.8497,0.3239 4.4102,-1.4004 1.5058,-1.6639 1.21,-2.7003 0.1465,-2.6133 z m -41.772,0.57813 c 0.8373,-0.006 2.1793,2.0798 2.1993,3.6856 0.025,2.0267 -1.7924,1.4277 -2.5078,-0.82618 -0.363,-1.1414 -0.3708,-2.3656 -0.016,-2.7207 0.094,-0.0936 0.2027,-0.13787 0.3223,-0.13867 z"
       fill="#ffffff"
       id="path3" />
  </g>
</svg>
