<svg
  xmlns="http://www.w3.org/2000/svg"
  viewBox="0 0 100 100"
  height="1"
  width="1"
>
  <path
    d="m 18.33333,92.222225 q -2.24305,0 -3.76041,-1.51737 -1.51737,-1.51735 -1.51737,-3.76042 V 55.277775 H 7.77778 q -2.24306,0 -3.76041,-1.51737 Q 2.5,52.243055 2.5,49.999995 q 0,-2.24305 1.51737,-3.76042 1.51735,-1.51735 3.76041,-1.51735 h 21.1111 q 2.24307,0 3.76042,1.51735 1.51737,1.51737 1.51737,3.76042 0,2.24306 -1.51737,3.76041 -1.51735,1.51737 -3.76042,1.51737 h -5.27776 v 31.66666 q 0,2.24307 -1.51737,3.76042 -1.51736,1.51737 -3.76042,1.51737 z m 0,-58.05557 q -2.24305,0 -3.76041,-1.51735 -1.51737,-1.51736 -1.51737,-3.76041 v -15.83334 q 0,-2.24306 1.51737,-3.76041 1.51736,-1.51737 3.76041,-1.51737 2.24306,0 3.76042,1.51737 1.51737,1.51735 1.51737,3.76041 v 15.83334 q 0,2.24305 -1.51737,3.76041 -1.51736,1.51735 -3.76042,1.51735 z m 21.11112,0 q -2.24306,0 -3.76042,-1.51735 -1.51736,-1.51736 -1.51736,-3.76041 0,-2.24307 1.51736,-3.76042 1.51736,-1.51737 3.76042,-1.51737 h 5.27777 v -10.55555 q 0,-2.24306 1.51736,-3.76041 1.51737,-1.51737 3.76042,-1.51737 2.24305,0 3.76042,1.51737 1.51736,1.51735 1.51736,3.76041 v 10.55555 h 5.27777 q 2.24306,0 3.76042,1.51737 1.51736,1.51735 1.51736,3.76042 0,2.24305 -1.51736,3.76041 -1.51736,1.51735 -3.76042,1.51735 z M 50,92.222225 q -2.24305,0 -3.76042,-1.51737 -1.51736,-1.51735 -1.51736,-3.76042 v -36.94444 q 0,-2.24305 1.51736,-3.76042 1.51737,-1.51735 3.76042,-1.51735 2.24305,0 3.76042,1.51735 1.51736,1.51737 1.51736,3.76042 v 36.94444 q 0,2.24307 -1.51736,3.76042 -1.51737,1.51737 -3.76042,1.51737 z m 31.66667,0 q -2.24306,0 -3.76042,-1.51737 -1.51737,-1.51735 -1.51737,-3.76042 v -10.55554 h -5.27776 q -2.24307,0 -3.76042,-1.51737 -1.51737,-1.51736 -1.51737,-3.76042 0,-2.24305 1.51737,-3.76041 1.51735,-1.51737 3.76042,-1.51737 h 21.1111 q 2.24306,0 3.76042,1.51737 1.51736,1.51736 1.51736,3.76041 0,2.24306 -1.51736,3.76042 -1.51736,1.51737 -3.76042,1.51737 h -5.27777 v 10.55554 q 0,2.24307 -1.51737,3.76042 -1.51736,1.51737 -3.76041,1.51737 z m 0,-36.94445 q -2.24306,0 -3.76042,-1.51737 -1.51737,-1.51735 -1.51737,-3.76041 v -36.94444 q 0,-2.24306 1.51737,-3.76041 1.51736,-1.51737 3.76042,-1.51737 2.24305,0 3.76041,1.51737 1.51737,1.51735 1.51737,3.76041 v 36.94444 q 0,2.24306 -1.51737,3.76041 -1.51736,1.51737 -3.76041,1.51737 z"
    style="stroke-width:0.13119"
  />
</svg>
