<svg
  xmlns="http://www.w3.org/2000/svg"
  viewBox="0 0 100 100"
  height="1"
  width="1"
>
  <path
    d="m 76.5678,84.061275 q -1.36245,0.86702 -2.72491,1.61017 -1.36245,0.74316 -2.84876,1.36245 -1.85788,0.86702 -3.7777,0 -1.91982,-0.86701 -2.66297,-2.84876 -0.74316,-1.85789 0.18578,-3.65385 0.92895,-1.79595 2.78684,-2.66297 0.86701,-0.37158 1.61017,-0.80508 0.74315,-0.43351 1.48631,-0.92895 L 52.91069,60.404175 v 13.74837 q 0,3.34419 -3.03455,4.64472 -3.03455,1.30052 -5.38787,-1.05281 L 28.138853,61.395045 H 13.27575 q -2.105607,0 -3.529987,-1.42438 -1.424381,-1.42438 -1.424381,-3.52999 v -19.81747 q 0,-2.10561 1.424381,-3.52999 1.42438,-1.42438 3.529987,-1.42438 H 24.175359 L 3.862451,11.355935 Q 2.5,9.993475 2.5,7.887875 q 0,-2.10561 1.362451,-3.46806 1.362451,-1.36245 3.468057,-1.36245 2.105607,0 3.468058,1.36245 l 84.224254,84.22425 q 1.36245,1.36245 1.36245,3.46806 0,2.10561 -1.36245,3.46806 -1.36245,1.36245 -3.46806,1.36245 -2.10561,0 -3.46806,-1.36245 z m 11.02346,-37.65319 q 0,-10.28032 -5.4498,-18.76467 -5.4498,-8.48436 -14.61538,-12.69557 -1.85789,-0.86701 -2.72491,-2.66297 -0.86701,-1.79596 -0.24771,-3.65385 0.74315,-1.98174 2.66297,-2.84876 1.91982,-0.86701 3.90156,0 12.01434,5.32595 19.19818,16.22556 7.18383,10.89961 7.18383,24.40026 0,4.08735 -0.74316,8.11277 -0.74315,4.02543 -2.1056,7.7412 -0.99087,2.72491 -3.03455,3.40613 -2.04368,0.68123 -3.77771,0.0619 -1.73403,-0.61929 -2.78683,-2.22946 -1.0528,-1.61017 -0.0619,-3.71578 1.36245,-3.22034 1.98175,-6.50261 0.61929,-3.28227 0.61929,-6.87418 z m -20.9322,-17.58801 q 4.08735,2.60104 6.31682,7.80313 2.22947,5.20209 2.22947,9.90874 v 1.23859 q 0,0.61929 -0.12386,1.23859 -0.24772,1.61017 -1.73403,2.10561 -1.48631,0.49543 -2.7249,-0.74316 l -6.31682,-6.31682 q -0.74316,-0.74315 -1.11474,-1.6721 -0.37157,-0.92894 -0.37157,-1.91981 v -9.53716 q 0,-1.48631 1.30052,-2.16754 1.30052,-0.68122 2.53911,0.0619 z m -24.8957,-7.30769 q -0.74315,-0.74316 -0.74315,-1.73403 0,-0.99087 0.74315,-1.73403 l 2.72491,-2.7249 q 2.35332,-2.35332 5.38787,-1.0528 3.03455,1.30052 3.03455,4.64472 v 7.80313 q 0,1.73402 -1.48631,2.35332 -1.48631,0.6193 -2.7249,-0.6193 z"
    style="stroke-width:0.123859" 
  />
</svg>
