<svg
  xmlns="http://www.w3.org/2000/svg"
  viewBox="0 0 100 100"
  height="1"
  width="1"
>
  <path
    d="M 81.9896,88.699618 78.14044,84.954487 H 23.420025 q -3.43303,0 -5.877762,-2.44475 -2.444733,-2.44472 -2.444733,-5.87775 V 21.911563 l -3.849155,-3.84915 Q 10,16.814038 10,15.097538 q 0,-1.716525 1.248375,-2.9649 1.248375,-1.248375 2.96489,-1.248375 1.716515,0 2.964887,1.248375 l 70.741228,70.74123 q 1.24837,1.248369 1.24837,2.912869 0,1.664501 -1.24837,2.912881 -1.24838,1.248369 -2.9649,1.248369 -1.7165,0 -2.96488,-1.248369 z M 90,73.094938 81.6775,64.772438 V 18.374513 h -8.322493 v 35.3706 q 0,0.520175 -0.15605,1.040325 -0.15605,0.52015 -0.46814,1.0403 L 56.71001,39.804938 V 18.374513 H 48.387515 V 31.482438 L 26.957087,10.052013 H 81.6775 q 3.43302,0 5.87777,2.444725 Q 90,14.941488 90,18.374513 Z m -66.579975,3.53705 H 36.944082 V 57.906363 H 35.90377 q -1.76853,0 -2.964888,-1.19635 -1.19636,-1.19635 -1.19636,-2.9649 v -15.18855 l -8.322497,-8.3225 z m 19.76593,0 H 61.911573 V 68.725613 L 48.179455,54.993488 q -0.416125,1.352425 -1.508452,2.13265 -1.09233,0.780225 -2.444735,0.780225 h -1.040313 z m 24.96749,0 h 1.6645 l -1.6645,-1.6645 z"
  />
</svg>
