<svg
  xmlns="http://www.w3.org/2000/svg"
  viewBox="0 0 100 100"
  height="1"
  width="1"
>
  <path
    d="m 18.888889,90 q -3.66667,0 -6.27778,-2.61111 -2.61111,-2.61111 -2.61111,-6.27778 V 18.88889 q 0,-3.66667 2.61111,-6.27778 Q 15.222219,10 18.888889,10 h 62.222222 q 3.66667,0 6.27778,2.61111 2.61111,2.61111 2.61111,6.27778 v 62.22222 q 0,3.66667 -2.61111,6.27778 Q 84.777781,90 81.111111,90 Z m 0,-8.88889 h 14.44445 v -20 h -1.11112 q -1.88888,0 -3.16667,-1.27777 -1.27777,-1.27779 -1.27777,-3.16668 V 18.88889 h -8.88889 z m 47.777772,0 h 14.44445 V 18.88889 h -8.88889 v 37.77777 q 0,1.88889 -1.27777,3.16668 -1.27779,1.27777 -3.16667,1.27777 h -1.11112 z m -26.666662,0 h 20.000002 v -20 h -1.11111 q -1.88889,0 -3.16667,-1.27777 -1.27777,-1.27779 -1.27777,-3.16668 V 18.88889 h -8.8889 v 37.77777 q 0,1.88889 -1.27777,3.16668 -1.27778,1.27777 -3.16667,1.27777 h -1.111112 z"
  />
</svg>
