<svg
  xmlns="http://www.w3.org/2000/svg"
  viewBox="0 0 100 100"
  height="1"
  width="1"
>
  <path
    d="m 16.6375,18.506777 c -0.14271,-0.006 -0.28879,-5.3e-4 -0.43655,0.008 -1.18204,0.0716 -2.16708,0.57143 -2.9551,1.50274 -3.43867,4.29833 -6.08764,8.99237 -7.95025,14.07873 -1.86261,5.08637 -2.7956,10.38431 -2.7956,15.9005 0,5.5162 0.93299,10.82253 2.7956,15.90889 1.86261,5.08636 4.51158,9.7804 7.95025,14.07874 0.78802,0.9313 1.77306,1.4311 2.9551,1.50274 1.18205,0.0716 2.20458,-0.32406 3.06425,-1.18372 0.85967,-0.85967 1.30741,-1.85926 1.34323,-3.00548 0.0358,-1.14623 -0.34532,-2.22081 -1.13335,-3.22376 -2.72228,-3.43866 -4.79646,-7.22267 -6.22923,-11.3419 -1.43278,-4.11924 -2.14917,-8.36554 -2.14917,-12.73551 0,-4.36997 0.71639,-8.60787 2.14917,-12.72711 1.43277,-4.11924 3.50695,-7.90324 6.22923,-11.34191 0.78803,-1.00294 1.16917,-2.07753 1.13335,-3.22375 -0.0358,-1.14622 -0.48356,-2.14581 -1.34323,-3.00548 -0.75221,-0.75221 -1.62867,-1.15294 -2.6277,-1.19212 z m 66.725,0 c -0.99903,0.0392 -1.8671,0.43991 -2.6193,1.19212 -0.85967,0.85967 -1.30742,1.85926 -1.34324,3.00548 -0.0358,1.14622 0.33693,2.22081 1.12496,3.22375 2.72228,3.43867 4.79646,7.22267 6.22923,11.34191 1.43278,4.11924 2.14917,8.35714 2.14917,12.72711 0,4.36997 -0.71639,8.61627 -2.14917,12.73551 -1.43277,4.11923 -3.50695,7.90324 -6.22923,11.3419 -0.78803,1.00295 -1.16077,2.07753 -1.12496,3.22376 0.0358,1.14622 0.48357,2.14581 1.34324,3.00548 0.85966,0.85966 1.8738,1.25536 3.05585,1.18372 1.18204,-0.0716 2.16708,-0.57144 2.9551,-1.50274 3.43867,-4.29834 6.09604,-8.99238 7.95865,-14.07874 1.86261,-5.08636 2.7872,-10.39269 2.7872,-15.90889 0,-5.51619 -0.92459,-10.81413 -2.7872,-15.9005 -1.86261,-5.08636 -4.51998,-9.7804 -7.95865,-14.07873 -0.78802,-0.93131 -1.77306,-1.4311 -2.9551,-1.50274 -0.14776,-0.009 -0.29384,-0.014 -0.43655,-0.008 z m -54.80382,11.82883 c -1.18204,0 -2.12958,0.49979 -2.84597,1.50274 -1.93425,2.65064 -3.41909,5.5162 -4.45785,8.59668 -1.03876,3.08047 -1.56151,6.26673 -1.56151,9.56212 0,3.29539 0.52275,6.49005 1.56151,9.57052 1.03876,3.08047 2.5236,5.94604 4.45785,8.59668 0.71639,1.00294 1.66393,1.50274 2.84597,1.50274 1.18204,0 2.20458,-0.4332 3.06424,-1.29286 0.85967,-0.85967 1.32197,-1.89676 1.39361,-3.11462 0.0716,-1.21786 -0.24906,-2.32995 -0.96545,-3.33289 -1.21786,-1.79097 -2.15085,-3.6715 -2.7956,-5.64157 -0.64475,-1.97007 -0.96545,-4.06719 -0.96545,-6.288 0,-2.14917 0.3207,-4.22334 0.96545,-6.22923 0.64475,-2.00589 1.57774,-3.90097 2.7956,-5.69194 0.71639,-1.00295 1.03708,-2.11503 0.96545,-3.33289 -0.0716,-1.21787 -0.53394,-2.25495 -1.39361,-3.11462 -0.85966,-0.85967 -1.8822,-1.29286 -3.06424,-1.29286 z m 42.88264,0 c -1.18204,0 -2.19618,0.43319 -3.05585,1.29286 -0.85966,0.85967 -1.33036,1.89675 -1.402,3.11462 -0.0716,1.21786 0.24906,2.32994 0.96545,3.33289 1.21786,1.79097 2.15085,3.68605 2.7956,5.69194 0.64475,2.00589 0.96545,4.08006 0.96545,6.22923 0,2.22081 -0.3207,4.31793 -0.96545,6.288 -0.64475,1.97007 -1.57774,3.8506 -2.7956,5.64157 -0.71639,1.00294 -1.03708,2.11503 -0.96545,3.33289 0.0716,1.21786 0.54234,2.25495 1.402,3.11462 0.85967,0.85966 1.87381,1.29286 3.05585,1.29286 1.18204,0 2.13798,-0.4998 2.85437,-1.50274 1.93425,-2.65064 3.41908,-5.51621 4.45785,-8.59668 1.03876,-3.08047 1.55311,-6.27513 1.55311,-9.57052 0,-3.29539 -0.51435,-6.48165 -1.55311,-9.56212 -1.03877,-3.08048 -2.5236,-5.94604 -4.45785,-8.59668 -0.71639,-1.00295 -1.67233,-1.50274 -2.85437,-1.50274 z" 
    style="stroke-width:0.107458"
  />
</svg>
