<svg
  xmlns="http://www.w3.org/2000/svg"
  viewBox="0 -960 960 960"
  height="1px"
  width="1px"
>
  <path
    d="m 162.66676,-72 q -37.4,0 -64.03347,-26.63315 Q 72,-125.26694 72,-162.66694 V -616 Q 72,-729.33324 151.33324,-808.66676 230.66676,-888 344,-888 h 272 q 113.3327,0 192.6669,79.33324 Q 888,-729.33324 888,-616 v 453.33306 q 0,37.4 -26.6327,64.03379 Q 834.7327,-72 797.3331,-72 Z m 0,-90.66694 H 797.3331 V -616 q 0,-74.8 -53.2658,-128.06676 Q 690.8,-797.33324 616,-797.33324 H 344 q -74.8,0 -128.06676,53.26648 Q 162.66676,-690.8 162.66676,-616 Z m 90.66648,0 v -90.66612 q 0,-37.4 26.63352,-64.03388 Q 306.6,-344 344,-344 h 272 q 37.4,0 64.0331,26.63306 26.6338,26.63388 26.6338,64.03388 v 90.66612 H 616 v -90.66612 h -90.66694 v 90.66612 h -90.66612 v -90.66612 H 344 v 90.66612 z"
    style="stroke-width:1.13331"
  />
  <path
    id="eyes"
    d="M 536.43982,-608.8056 H 695.3153 c 5.9062,0 10.661,4.75483 10.661,10.66104 v 60.70532 c 0,5.90621 -4.7548,10.66104 -10.661,10.66104 H 536.43982 c -5.90621,0 -10.66104,-4.75483 -10.66104,-10.66104 v -60.70532 c 0,-5.90621 4.75483,-10.66104 10.66104,-10.66104 z m -271.70488,0 h 158.87493 c 5.9062,0 10.66104,4.75483 10.66104,10.66104 v 60.70505 c 0,5.90621 -4.75484,10.66104 -10.66104,10.66104 H 264.73494 c -5.90621,0 -10.66104,-4.75483 -10.66104,-10.66104 v -60.70505 c 0,-5.90621 4.75483,-10.66104 10.66104,-10.66104 z"
    style="fill-rule:evenodd;stroke-width:0.788803;stroke-linecap:round;stroke-linejoin:round" 
  />
</svg>
