<svg
  xmlns="http://www.w3.org/2000/svg"
  viewBox="0 0 100 100"
  height="1"
  width="1"
>
  <path
    d="M 13.05556,97.5 Q 8.70139,97.5 5.60069,94.39931 2.5,91.29861 2.5,86.94444 V 34.16667 Q 2.5,20.97222 11.73611,11.73611 20.97222,2.5 34.16667,2.5 h 31.66666 q 13.19445,0 22.43056,9.23611 Q 97.5,20.97222 97.5,34.16667 v 52.77777 q 0,4.35417 -3.10069,7.45487 Q 91.29861,97.5 86.94444,97.5 Z m 0,-10.55556 H 86.94444 V 34.16667 q 0,-8.70834 -6.20138,-14.90973 -6.20139,-6.20138 -14.90973,-6.20138 H 34.16667 q -8.70834,0 -14.90973,6.20138 -6.20138,6.20139 -6.20138,14.90973 z M 34.16667,50 q -4.35417,0 -7.45486,-3.10069 -3.1007,-3.1007 -3.1007,-7.45487 0,-4.35416 3.1007,-7.45486 3.10069,-3.10069 7.45486,-3.10069 4.35416,0 7.45486,3.10069 3.10069,3.1007 3.10069,7.45486 0,4.35417 -3.10069,7.45487 Q 38.52083,50 34.16667,50 Z m 31.66666,0 q -4.35416,0 -7.45486,-3.10069 -3.10069,-3.1007 -3.10069,-7.45487 0,-4.35416 3.10069,-7.45486 3.1007,-3.10069 7.45486,-3.10069 4.35417,0 7.45486,3.10069 3.1007,3.1007 3.1007,7.45486 0,4.35417 -3.1007,7.45487 Q 70.1875,50 65.83333,50 Z M 23.61111,86.94444 V 76.38889 q 0,-4.35417 3.1007,-7.45486 3.10069,-3.1007 7.45486,-3.1007 h 31.66666 q 4.35417,0 7.45486,3.1007 3.1007,3.10069 3.1007,7.45486 V 86.94444 H 65.83333 V 76.38889 H 55.27778 V 86.94444 H 44.72222 V 76.38889 H 34.16667 v 10.55555 z m -10.55555,0 h 73.88888 z"
    style="stroke-width:0.131944" 
  />
</svg>
