<svg
  xmlns="http://www.w3.org/2000/svg"
  viewBox="0 0 100 100"
  height="1"
  width="1"
>
  <path
    d="m 27.032426,45.277604 q 1.700263,-3.400522 3.521974,-6.558144 1.821713,-3.157646 4.007766,-6.315268 L 27.76111,31.068268 17.559528,41.269858 Z M 85.570089,11.879588 q -8.50134,0.243 -18.156407,4.979345 -9.655065,4.736445 -17.549132,12.630512 -5.100802,5.100795 -9.108565,10.930264 -4.007766,5.829494 -5.950924,10.930288 l 13.845015,13.723536 q 5.10077,-1.943148 10.930264,-5.950919 5.829469,-4.00777 10.930264,-9.10854 7.894065,-7.894092 12.630535,-17.488432 4.73645,-9.59434 4.97935,-18.095682 0,-0.485774 -0.18225,-0.971574 -0.18225,-0.485774 -0.54653,-0.850124 -0.36435,-0.364349 -0.85012,-0.546524 -0.4858,-0.18225 -0.97158,-0.18225 z m -26.718448,29.14737 q -2.793272,-2.793297 -2.793272,-6.861793 0,-4.068471 2.793272,-6.861768 2.793297,-2.793297 6.922518,-2.793297 4.129196,0 6.92249,2.793297 2.7933,2.793297 2.7933,6.861768 0,4.068496 -2.7933,6.861793 -2.793294,2.793297 -6.92249,2.793297 -4.129221,0 -6.922518,-2.793297 z m -4.129196,31.819221 4.007746,9.59434 10.20159,-10.20157 -1.335924,-6.801066 q -3.157622,2.186048 -6.315269,3.947046 -3.157621,1.760973 -6.558143,3.46125 z M 97.350479,7.9932673 q 0.97157,13.3592107 -4.3721,26.0504727 -5.34369,12.691237 -16.88121,24.22875 l 2.42895,12.023288 q 0.4858,2.428951 -0.24275,4.736441 -0.7287,2.3075 -2.42897,4.00777 l -15.30236,15.30239 q -1.821723,1.8217 -4.37212,1.39665 -2.550373,-0.42508 -3.521972,-2.85402 L 45.249662,75.518019 24.482156,54.750519 7.1151773,47.342227 q -2.42895,-0.971574 -2.91474,-3.521972 -0.485789,-2.550397 1.335921,-4.37212 L 20.838733,24.145775 q 1.700263,-1.700273 4.068488,-2.428947 2.368225,-0.728699 4.797172,-0.243 l 12.023296,2.428948 q 11.537508,-11.537513 24.22877,-16.8812077 12.69124,-5.343669 26.05045,-4.372095 0.9716,0.121499 1.94317,0.546524 0.97157,0.42505 1.70025,1.153749 0.7287,0.728674 1.15375,1.700248 0.42507,0.971574 0.54652,1.943173 z M 11.608605,67.745381 q 4.25066,-4.250646 10.383754,-4.311371 6.133094,-0.06075 10.383754,4.189921 4.250658,4.250668 4.189936,10.383768 -0.06073,6.13309 -4.311383,10.38374 -5.829477,5.82949 -13.784283,6.92251 -7.954805,1.09303 -15.9703337,2.18605 1.093026,-8.01552 2.186053,-15.97033 1.093026,-7.95482 6.9225027,-13.784288 z m 6.922502,6.801068 q -2.064605,2.0646 -2.854014,4.97934 -0.789409,2.91473 -1.275199,5.95092 3.036187,-0.4858 5.950924,-1.21447 2.91474,-0.7287 4.979345,-2.7933 1.457368,-1.45737 1.578816,-3.52197 0.12145,-2.0646 -1.335921,-3.52197 -1.457369,-1.45737 -3.521977,-1.39665 -2.064605,0.0607 -3.521974,1.5181 z"
    style="stroke-width:0.121447" 
  />
</svg>
