<svg
  xmlns="http://www.w3.org/2000/svg"
  viewBox="0 0 100 100"
  height="1"
  width="1"
>
  <path
    d="m 50.049428,59.93496 q -6.524454,0 -11.170656,-4.6462 -4.646202,-4.6462 -4.646202,-11.17066 0,-6.52445 4.646202,-11.17065 4.646202,-4.6462 11.170656,-4.6462 6.524453,0 11.170655,4.6462 4.646202,4.6462 4.646202,11.17065 0,6.52446 -4.646202,11.17066 -4.646202,4.6462 -11.170655,4.6462 z M 18.415713,80.49688 q 0,-3.26223 1.680541,-6.12904 1.680541,-2.8668 4.646202,-4.34963 5.041623,-2.57024 11.368366,-4.34964 6.326743,-1.77939 13.938606,-1.77939 7.611862,0 13.938605,1.77939 6.326743,1.7794 11.368367,4.34964 2.96566,1.48283 4.646201,4.34963 1.680542,2.86681 1.680542,6.12904 v 3.16337 q 0,3.26223 -2.323101,5.58533 -2.323101,2.3231 -5.585328,2.3231 H 26.324142 q -3.262227,0 -5.585328,-2.3231 -2.323101,-2.3231 -2.323101,-5.58533 z m 7.908429,3.16337 h 47.450572 v -3.16337 q 0,-1.08741 -0.543705,-1.97711 -0.543704,-0.8897 -1.433402,-1.38398 -3.558793,-1.77939 -9.144121,-3.55879 -5.585328,-1.77939 -12.604058,-1.77939 -7.018731,0 -12.604059,1.77939 -5.585327,1.7794 -9.14412,3.55879 -0.889699,0.49428 -1.433403,1.38398 -0.543704,0.8897 -0.543704,1.97711 z M 50.049428,52.02653 q 3.262227,0 5.585327,-2.3231 2.323101,-2.3231 2.323101,-5.58533 0,-3.26222 -2.323101,-5.58532 -2.3231,-2.3231 -5.585327,-2.3231 -3.262227,0 -5.585328,2.3231 -2.323101,2.3231 -2.323101,5.58532 0,3.26223 2.323101,5.58533 2.323101,2.3231 5.585328,2.3231 z M 17.62487,23.65505 q -2.174818,2.17481 -5.041623,3.41051 -2.8668058,1.23569 -6.1290326,1.23569 -1.6805411,0 -2.8173778,-1.13684 Q 2.5,26.02757 2.5,24.34703 q 0,-1.68054 1.1368366,-2.81737 1.1368367,-1.13684 2.8173778,-1.13684 1.6805411,0 3.0645161,-0.64256 1.3839745,-0.64256 2.4713835,-1.72997 1.087409,-1.08741 1.680542,-2.47138 0.593132,-1.38398 0.593132,-3.06452 0,-1.68054 1.186264,-2.86681 1.186264,-1.18626 2.866805,-1.18626 1.680542,0 2.817378,1.18626 1.136837,1.18627 1.136837,2.86681 0,3.26223 -1.235692,6.12903 -1.235692,2.86681 -3.41051,5.04163 z m 11.269511,11.26951 q -4.349636,4.34963 -10.083247,6.82102 -5.733611,2.47138 -12.3569196,2.47138 -1.6805411,0 -2.8173778,-1.13684 Q 2.5,41.94329 2.5,40.26275 q 0,-1.68055 1.1368366,-2.81738 1.1368367,-1.13684 2.8173778,-1.13684 5.0416236,0 9.3418316,-1.87825 4.300208,-1.87825 7.463579,-5.14048 3.163372,-3.26223 5.041624,-7.51301 1.878252,-4.25078 1.878252,-9.2924 0,-1.68054 1.186264,-2.86681 1.186264,-1.18626 2.866805,-1.18626 1.680541,0 2.817378,1.18626 1.136837,1.18627 1.136837,2.86681 0,6.52445 -2.471384,12.30749 -2.471384,5.78304 -6.82102,10.13268 z m 42.211238,0 Q 66.755983,30.57492 64.284599,24.84131 61.813215,19.1077 61.71436,12.48439 q 0,-1.68054 1.186264,-2.86681 1.186265,-1.18626 2.866806,-1.18626 1.680541,0 2.817377,1.18626 1.136837,1.18627 1.136837,2.86681 0,4.94277 1.878252,9.24298 1.878252,4.3002 5.140479,7.56243 3.262226,3.26223 7.562435,5.14048 4.300208,1.87825 9.242976,1.87825 1.680541,0 2.817377,1.13684 Q 97.5,38.5822 97.5,40.26275 q 0,1.68054 -1.136837,2.81737 -1.136836,1.13684 -2.817377,1.13684 -6.623309,0 -12.35692,-2.47138 -5.733611,-2.47139 -10.083247,-6.82102 z M 82.37513,23.65505 q -2.174818,-2.17482 -3.41051,-5.04163 -1.235692,-2.8668 -1.334547,-6.12903 0,-1.68054 1.186264,-2.86681 1.186264,-1.18626 2.866806,-1.18626 1.680541,0 2.817377,1.18626 1.136837,1.18627 1.136837,2.86681 0,1.68054 0.64256,3.06452 0.64256,1.38397 1.729969,2.47138 1.087408,1.08741 2.471384,1.72997 1.383975,0.64256 3.064516,0.64256 1.680541,0 2.817377,1.13684 Q 97.5,22.66649 97.5,24.34703 q 0,1.68054 -1.136837,2.81738 -1.136836,1.13684 -2.817377,1.13684 -3.262227,0 -6.129033,-1.23569 -2.866805,-1.2357 -5.041623,-3.41051 z M 50.049428,44.1181 Z m 0,39.54215 z"
    style="stroke-width:0.0988554" 
  />
</svg>
