<svg
  xmlns="http://www.w3.org/2000/svg"
  viewBox="0 -960 960 960"
  height="1px"
  width="1px"
>
  <path
    d="M 134.46429,-317.32701 42.053571,-407.7288 Q 30,-419.78237 30,-435.8538 q 0,-16.07142 12.053571,-28.125 88.392859,-95.4241 203.906249,-143.13616 115.51339,-47.71205 234.04018,-47.71205 118.52679,0 233.53795,47.71205 115.01116,47.71206 204.40848,143.13616 Q 930,-451.92522 930,-435.8538 q 0,16.07143 -12.05357,28.125 l -92.41072,90.40179 q -11.0491,11.04911 -25.61384,12.05357 -14.56473,1.00447 -26.6183,-8.03571 l -116.51786,-88.39286 q -8.03571,-6.02679 -12.05357,-14.0625 -4.01785,-8.03571 -4.01785,-18.08036 V -548.3538 q -38.16965,-12.05357 -78.34822,-19.08482 -40.17857,-7.03125 -82.36607,-7.03125 -42.1875,0 -82.36607,7.03125 -40.17857,7.03125 -78.34822,19.08482 v 114.50893 q 0,10.04465 -4.01785,18.08036 -4.01786,8.03571 -12.05357,14.0625 l -116.51786,88.39286 q -12.05357,9.04018 -26.61831,8.03571 -14.56473,-1.00446 -25.61383,-12.05357 z m 104.46428,-198.88393 q -29.12946,15.06697 -56.25,34.65402 -27.12053,19.58705 -56.25,43.6942 l 40.17857,40.17857 72.32143,-56.25 z m 482.14286,2.00893 v 60.26786 l 72.32143,56.25 40.17857,-38.16965 q -29.12947,-26.11607 -56.25,-45.20089 -27.12054,-19.08482 -56.25,-33.14732 z m -482.14286,-2.00893 z m 482.14286,2.00893 z"
    style="stroke-width:1.00446" 
  />
</svg>
