<svg
  xmlns="http://www.w3.org/2000/svg"
  viewBox="0 -960 1280 1280"
  height="1"
  width="1"
>
  <path
    d="m 1173.3332,-320 q -26.6671,0 -47.4992,-19.1668 Q 1105,-358.33335 1101.6662,-386.66665 1079.9995,-541.6668 970.8331,-650.83335 861.6668,-759.99996 706.66665,-781.6668 678.33335,-785 659.1668,-804.99996 640,-825.00004 640,-853.33335 q 0,-28.3333 19.99996,-47.49985 20.00008,-19.1668 46.66669,-15.8336 210.00031,23.3336 358.33285,171.66684 148.3343,148.33331 171.6674,358.33331 3.3331,26.66661 -15.8331,46.66669 Q 1201.6667,-320 1173.3332,-320 Z M 895,-320 q -21.66665,0 -38.33335,-15 -16.66669,-15 -24.99985,-40.00004 -13.33343,-48.33333 -50.83343,-85.83333 -37.5,-37.5 -85.83333,-50.83343 Q 670,-519.99996 655,-536.66665 q -15,-16.6667 -15,-39.99998 0,-33.33333 23.33335,-54.16657 23.33328,-20.83343 51.66665,-14.16684 93.3332,21.66684 160.8332,89.16684 67.5003,67.5 89.1673,160.8332 6.6654,28.33337 -15,51.66665 Q 928.3334,-320 895,-320 Z m 274.9994,600 Q 961.6669,280 758.33337,189.16661 554.99996,98.33335 388.3332,-68.333231 221.66663,-234.99996 130.83335,-438.33337 40,-641.66665 40,-849.99996 q 0,-30 19.99996,-50.00008 Q 80.00004,-920 110.00004,-920 h 270 q 23.33316,0 41.66661,15.83335 18.33339,15.83328 21.66672,37.5 l 43.33343,233.33328 q 3.3332,26.66674 -1.66676,45 -5.00008,18.33333 -18.33339,31.66657 l -161.66661,163.33343 q 33.33333,61.66657 79.16661,119.16672 45.83335,57.50002 100.83339,110.83328 51.66659,51.66665 108.33333,95.833385 56.66667,44.16674 120,80.833252 L 869.99996,-143.33321 q 14.99993,-14.99999 39.16696,-22.49999 24.16618,-7.5 47.49908,-4.1668 l 230.0007,46.66671 q 23.3333,6.66665 38.3333,24.166516 15,17.50006 15,39.166789 V 209.99996 q 0,30.00001 -19.9995,50.00007 Q 1199.9994,280 1169.9994,280 Z M 241.66665,-519.99996 351.6668,-630.00004 323.33337,-786.66663 H 175 q 8.33335,68.33328 23.33335,135 15,66.66659 43.3333,131.66667 z M 838.3332,76.66665 q 64.99992,28.33332 132.4999,44.99998 67.5001,16.66674 135.8328,21.66674 V -3.333318 L 950.0005,-35 Z M 241.66665,-519.99996 Z M 838.3332,76.66665 Z"
    style="stroke-width:1.66663" 
  />
</svg>
