<svg
  xmlns="http://www.w3.org/2000/svg"
  viewBox="0 -960 1280 1280"
  height="1"
  width="1"
>
  <path
    d="m 440.5,148.16935 q 57,0 84,-30 27,-29.999995 115.5,-29.999995 85.5,0 116.25,29.999995 30.75,30 84.75,30 57,0 84,-30 27,-29.999995 115.5,-29.999995 58.5,0 87,15.749995 28.5,15.75 54,29.25 22.5,12 40.5,30.75 18,18.75 18,44.25 0,25.5 -18,42 -18,16.5 -42,10.5 -48,-12 -72,-32.25 -24,-20.25 -67.5,-20.25 -55.5,0 -84,30 -28.5,30 -115.5,30 -87,0 -116.25,-30 -29.25,-30 -84.75,-30 -57,0 -84,30 -27,30 -115.5,30 -88.5,0 -115.5,-30 -27,-30 -84,-30 -43.5,0 -67.5,20.25 -24,20.25 -72,32.25 -24,6 -42.75,-10.5 -18.75,-16.5 -18.75,-42 0,-25.5 17.25,-44.25 17.25,-18.75 39.75,-30.75 25.5,-13.5 54.75,-29.25 Q 181,88.169355 241,88.169355 q 88.5,0 115.5,29.999995 27,30 84,30 z m 0,-149.9999922 q -85.5,0 -115.5,-29.9999998 -30,-30 -84,-30 -42,0 -67.5,20.25 -25.5,20.25 -73.5,32.2499998 -24,6 -42,-10.4999998 -18,-16.5 -18,-42 0,-25.5 18,-44.249998 18,-18.75 40.5,-30.75 25.5,-13.50001 54,-29.25001 28.5,-15.75 87,-15.75 9,0 18,0.75 9,0.75 16.5,2.25 l -57,-210 -46.5,60 q -15,19.5 -39,23.25 -24,3.75 -43.5,-12.75 -21,-16.5 -23.25,-41.25 -2.25,-24.75 14.25,-44.25 l 372,-460.5 q 25.5,-30 63,-39.75 37.5,-9.75 73.5,3.75 l 555,211.5 q 22.5,9 33,31.5 10.5,22.5 1.5,45 -9,24 -32.25,33.75 -23.25,9.75 -47.25,0.75 l -69,-28.5 121.5,451.5 q 9,4.5 17.25,9 8.25,4.50001 15.75,9.00001 22.5,12 39.75,30.75 17.25,18.749998 17.25,44.249998 0,25.5 -18,42 -18,16.4999998 -42,10.4999998 -48,-11.9999998 -72,-32.2499998 -24,-20.25 -67.5,-20.25 -57,0 -84,30 -27,29.9999998 -115.5,29.9999998 -85.5,0 -116.25,-29.9999998 -30.75,-30 -84.75,-30 -57,0 -84,30 -27,29.9999998 -115.5,29.9999998 z m 0,-119.9999978 q 45,0 69.75,-21 24.75,-21.00001 75.75,-33.00001 l -48,-175.5 q -3,-12 3,-22.5 6,-10.5 18,-13.5 l 175.5,-46.5 q 12,-3 22.5,3 10.5,6 13.5,18 l 76.5,289.50001 q 46.5,-3 73.5,-27.75001 27,-24.75 97.5,-29.25 l -129,-481.5 -343.5,-126 -235.5,282 103.5,381.00001 q 6,1.5 12.75,2.25 6.75,0.75 14.25,0.75 z M 664,-454.83065 Z"
    style="stroke-width:1.5" 
  />
</svg>
