<svg
  xmlns="http://www.w3.org/2000/svg"
  viewBox="0 -960 1280 1280"
  height="1"
  width="1"
>
  <path
    d="m 641.5,164.5 q -45,30 -96.75,42.75 Q 493,220 440.5,220 388,220 337,205.75 286,191.5 239.5,164.5 206.5,184 171.25,196.75 136,209.5 98.5,215.5 74.5,218.5 57.25,202 40,185.5 40,160 40,134.5 56.5,116.5 73,98.5 98.5,92.5 127,85 151.75,73 176.5,61 200.5,44.5 q 16.5,-12 38.25,-12 21.75,0 38.25,12 Q 313,70 355,84.25 397,98.5 440.5,98.5 484,98.5 526.75,85 569.5,71.5 605.5,46 622,34 643,34.75 664,35.5 680.5,47.5 716.5,73 757.75,85.75 799,98.5 842.5,98.5 q 45,0 87,-15.75 42,-15.75 79.5,-41.25 16.5,-10.5 34.5,-11.25 18,-0.75 34.5,11.25 24,16.5 48,30 24,13.5 52.5,21 25.5,7.5 43.5,24.75 18,17.25 18,42.75 0,25.5 -18,42.75 -18,17.25 -43.5,12.75 -36,-6 -69.75,-19.5 -33.75,-13.5 -65.25,-31.5 -45,27 -96.75,41.25 Q 895,220 842.5,220 790,220 738.25,205.75 686.5,191.5 641.5,164.5 Z M 40,-50 v -120 q 0,-145.5 56.25,-271.5 56.25,-126 153.75,-219 97.5,-93 228.75,-146.25 Q 610,-860 760,-860 q 25.5,0 53.25,0.75 27.75,0.75 53.25,5.25 30,4.5 44.25,31.5 14.25,27 0.75,54 -15,31.5 -23.25,63 -8.25,31.5 -8.25,66 0,82.5 58.5,141 58.5,58.5 141,58.5 H 1180 q 25.5,0 42.75,17.25 17.25,17.25 17.25,42.75 0,25.5 -17.25,42.75 Q 1205.5,-320 1180,-320 h -100.5 q -133.5,0 -226.5,-93 -93,-93 -93,-226.5 0,-21 3,-44.25 3,-23.25 9,-45.75 -111,27 -181.5,114.75 Q 520,-527 520,-410 q 0,54 17.25,102.75 17.25,48.75 48.75,92.25 l 19.5,-13.5 q 16.5,-12 34.5,-12 18,0 34.5,12 34.5,24 80.25,40.5 45.75,16.5 87.75,16.5 42,0 87.75,-16.5 45.75,-16.5 80.25,-40.5 16.5,-10.5 33.75,-11.25 17.25,-0.75 33.75,9.75 l 33,22.5 q 16.5,9 33.75,17.25 17.25,8.25 35.25,12.75 25.5,7.5 42.75,24.75 17.25,17.25 17.25,42.75 0,25.5 -18,42.75 -18,17.25 -43.5,12.75 -34.5,-6 -68.25,-18.75 -33.75,-12.75 -66.75,-32.25 -48,30 -97.5,42.75 Q 896.5,-50 842.5,-50 q -54,0 -108,-15 -54,-15 -93,-40.5 Q 595,-77 544,-64.25 493,-51.5 440.5,-50 388,-48.5 337,-63.5 q -51,-15 -97.5,-42 -46.5,27 -96.75,41.25 Q 92.5,-50 40,-50 Z m 397.5,-121.5 h 15 q 7.5,0 15,-1.5 -33,-52.5 -50.25,-112.5 Q 400,-345.5 400,-410 400,-531.5 455.5,-629.75 511,-728 610,-791 v 66 q -93,24 -171.75,72.75 -78.75,48.75 -138,117.75 -59.25,69 -95.25,153.75 -36,84.75 -43.5,180.75 12,-7.5 22.5,-13.5 10.5,-6 21,-13.5 16.5,-12 34.5,-12.75 18,-0.75 34.5,11.25 13.5,9 27,16.5 13.5,7.5 28.5,15 25.5,12 52.5,18.75 27,6.75 55.5,6.75 z m -51,-310.5 z"
    style="stroke-width:1.52;paint-order:stroke fill markers" 
  />
</svg>
