<svg
  xmlns="http://www.w3.org/2000/svg"
  viewBox="0 0 100 100"
  height="1"
  width="1"
>
  <path
    d="m 34.20625,87.063396 q 4.5125,0 6.65,-2.375 2.1375,-2.37499 9.14375,-2.37499 6.76875,0 9.203125,2.37499 2.434375,2.375 6.709375,2.375 4.5125,0 6.65,-2.375 2.1375,-2.37499 9.14375,-2.37499 4.63125,0 6.8875,1.24687 2.25625,1.24687 4.275,2.31562 1.78125,0.95 3.20625,2.43438 1.425,1.48437 1.425,3.50312 0,2.01875 -1.425,3.325 -1.425,1.30625 -3.325,0.83125 -3.8,-0.95 -5.7,-2.55312 -1.9,-1.60313 -5.34375,-1.60313 -4.39375,0 -6.65,2.375 -2.25625,2.375 -9.14375,2.375 -6.8875,0 -9.203125,-2.375 -2.315625,-2.375 -6.709375,-2.375 -4.5125,0 -6.65,2.375 -2.1375,2.375 -9.14375,2.375 -7.00625,0 -9.14375,-2.375 -2.1375,-2.375 -6.65,-2.375 -3.44375,0 -5.34375,1.60313 -1.9,1.60312 -5.7,2.55312 -1.9,0.475 -3.384375,-0.83125 Q 2.5,93.832146 2.5,91.813396 q 0,-2.01875 1.365625,-3.50312 1.365625,-1.48438 3.146875,-2.43438 2.01875,-1.06875 4.334375,-2.31562 2.315625,-1.24687 7.065625,-1.24687 7.00625,0 9.14375,2.37499 2.1375,2.375 6.65,2.375 z m 0,-11.87499 q -6.76875,0 -9.14375,-2.375 -2.375,-2.375 -6.65,-2.375 -3.325,0 -5.34375,1.60312 -2.01875,1.60313 -5.81875,2.55313 -1.9,0.475 -3.325,-0.83125 -1.425,-1.30625 -1.425,-3.325 0,-2.01875 1.425,-3.50313 1.425,-1.48437 3.20625,-2.43437 2.01875,-1.06876 4.275,-2.31563 2.25625,-1.24688 6.8875,-1.24688 0.7125,0 1.425,0.0594 0.7125,0.0594 1.30625,0.17812 l -4.5125,-16.625 -3.68125,4.75 q -1.1875,1.54375 -3.0875,1.84063 -1.9,0.29687 -3.44375,-1.00938 -1.6625,-1.30625 -1.840625,-3.26562 -0.178125,-1.95938 1.128125,-3.50313 l 29.45,-36.4562496 q 2.01875,-2.375 4.9875,-3.14687 2.96875,-0.77188 5.81875,0.29687 l 43.9375,16.7437496 q 1.78125,0.7125 2.6125,2.49375 0.83125,1.78125 0.11875,3.5625 -0.7125,1.9 -2.55312,2.67188 -1.84063,0.77187 -3.74063,0.0594 l -5.4625,-2.25625 9.61875,35.74375 q 0.7125,0.35625 1.36563,0.7125 0.65312,0.35626 1.24687,0.71251 1.78125,0.95 3.14687,2.43437 1.36563,1.48438 1.36563,3.50313 0,2.01875 -1.425,3.325 -1.425,1.30625 -3.325,0.83125 -3.8,-0.95 -5.7,-2.55313 -1.9,-1.60312 -5.34375,-1.60312 -4.5125,0 -6.65,2.375 -2.1375,2.375 -9.14375,2.375 -6.76875,0 -9.203125,-2.375 -2.434375,-2.375 -6.709375,-2.375 -4.5125,0 -6.65,2.375 -2.1375,2.375 -9.14375,2.375 z m 0,-9.5 q 3.5625,0 5.521875,-1.6625 1.959375,-1.66251 5.996875,-2.61251 l -3.8,-13.89375 q -0.2375,-0.95 0.2375,-1.78125 0.475,-0.83125 1.425,-1.06875 l 13.89375,-3.68125 q 0.95,-0.2375 1.78125,0.2375 0.83125,0.475 1.06875,1.425 l 6.05625,22.91876 q 3.68125,-0.2375 5.81875,-2.19688 2.1375,-1.95938 7.71875,-2.31563 l -10.2125,-38.11875 -27.19375,-9.975 -18.64375,22.325 8.19375,30.16251 q 0.475,0.11875 1.009375,0.17812 0.534375,0.0594 1.128125,0.0594 z M 51.9,39.325896 Z"
    style="stroke-width:0.11875"
  />
</svg>
