<?xml version="1.0" encoding="UTF-8" standalone="no"?>
<!-- Created with Inkscape (http://www.inkscape.org/) -->

<svg
   width="1"
   height="1"
   viewBox="0 0 100 100"
   version="1.1"
   id="svg5"
   xmlns="http://www.w3.org/2000/svg"
   xmlns:svg="http://www.w3.org/2000/svg">
  <defs
     id="defs2" />
  <g
     id="layer1"
     transform="translate(20.409558,-134.34711)">
    <path
       style="fill:#f56114;stroke-width:0.119689;fill-opacity:1"
       d="m 19.913948,217.2472 c -0.263491,0 -0.448975,-0.12731 -0.78768,-0.54066 -0.243668,-0.29736 -0.565916,-0.84943 -0.716107,-1.22681 -0.150195,-0.37738 -0.421723,-1.00931 -0.603403,-1.40429 -0.18168,-0.39497 -0.596636,-1.28365 -0.922128,-1.97486 -0.325496,-0.6912 -0.790172,-1.58911 -1.032619,-1.99535 -0.366119,-0.61346 -0.521936,-0.76419 -0.919567,-0.88951 -0.337507,-0.10637 -0.778909,-0.45505 -1.49611,-1.18182 -0.758181,-0.76831 -1.230792,-1.39366 -1.855176,-2.45474 -0.544578,-0.92547 -1.104654,-1.69233 -1.6001767,-2.19099 -0.4192947,-0.42194 -0.9426971,-0.84252 -1.1631221,-0.93462 -0.2204204,-0.0921 -0.6196662,-0.16746 -0.8872142,-0.16746 -0.2675436,0 -0.6622702,0.0735 -0.8771762,0.16326 -0.2149016,0.0898 -0.5314456,0.33049 -0.7034356,0.53489 -0.1719855,0.2044 -0.4048008,0.64891 -0.5173678,0.98782 -0.1125671,0.33892 -0.2114003,1.0273 -0.2196243,1.52975 -0.00823,0.50245 0.017145,1.29057 0.056406,1.75137 0.045734,0.537 0.2676883,1.3965 0.6181598,2.39378 0.3007428,0.85577 0.7584208,2.1697 1.0170527,2.91983 0.4070717,1.18065 0.5290073,1.4077 0.9076477,1.69002 0.2405689,0.17937 0.5453829,0.46341 0.6773656,0.63119 0.1319781,0.16779 0.2729267,0.46988 0.31321,0.67131 0.064205,0.32102 0.031937,0.38195 -0.2612194,0.49341 -0.1839597,0.0699 -0.4835715,0.0944 -0.6658122,0.0544 -0.1822361,-0.04 -0.5585378,-0.23736 -0.8362279,-0.43851 l -0.5048871,-0.36574 -0.728854,0.36586 c -0.4008697,0.20122 -1.0789456,0.45632 -1.5068352,0.56687 -0.4278851,0.11056 -1.0472753,0.25499 -1.3764177,0.32095 -0.3368326,0.0675 -1.2158409,0.088 -2.0107406,0.0469 -1.1684509,-0.0604 -1.5197638,-0.12502 -2.0347115,-0.37418 -0.3423289,-0.16563 -0.7053943,-0.36792 -0.806815,-0.44952 -0.1014253,-0.0816 -0.3303276,-0.34196 -0.5086779,-0.57858 -0.1783503,-0.23661 -0.3242749,-0.53971 -0.3242749,-0.67355 0,-0.13385 0.080517,-0.31017 0.1789203,-0.39184 0.1446172,-0.12002 0.2995259,-0.10008 0.8079007,0.10399 0.3459387,0.13887 1.0598556,0.34106 1.5864879,0.44931 0.7617864,0.15659 1.3244905,0.18124 2.7528445,0.12057 1.1705092,-0.0497 2.1234298,-0.15951 2.7380747,-0.31547 0.5185123,-0.13157 0.9628546,-0.23922 0.9874317,-0.23922 0.024564,0 0.044694,-0.0934 0.044694,-0.20749 0,-0.11412 -0.170158,-0.55846 -0.3781293,-0.98743 -0.2079758,-0.42897 -0.6751038,-1.26469 -1.0380651,-1.85715 -0.3629614,-0.59246 -0.8368341,-1.29891 -1.0530566,-1.5699 -0.2385739,-0.299 -0.5286318,-0.5198 -0.7378109,-0.56163 -0.1895781,-0.0379 -0.6092798,-0.27813 -0.9326681,-0.53381 C 2.270645,208.28187 1.8545169,207.87393 1.6693042,207.63101 1.484087,207.38809 1.1702301,206.79975 0.97184,206.32358 0.7734453,205.84742 0.4891732,205.13467 0.3401182,204.7397 c -0.1490595,-0.39497 -0.6616866,-1.76841 -1.1391783,-3.05207 -0.4774962,-1.28366 -0.9383362,-2.49551 -1.0241005,-2.693 -0.085764,-0.19748 -0.250625,-0.65529 -0.3663587,-1.01735 -0.1157336,-0.36206 -0.2504485,-0.76601 -0.2993585,-0.89767 -0.04891,-0.13165 -0.1547593,-0.41442 -0.2352174,-0.62836 -0.080458,-0.21395 -0.1844075,-0.38899 -0.2309967,-0.38899 -0.046589,0 -0.2139426,0.28276 -0.3719002,0.62836 -0.157953,0.34561 -0.4833951,0.89946 -0.7231994,1.23079 -0.2398045,0.33133 -0.6211365,0.74363 -0.8474061,0.91621 -0.2262695,0.17258 -0.6665992,0.43375 -0.9785155,0.58037 -0.4688288,0.22037 -0.6854222,0.25298 -1.2497141,0.18813 -0.3754341,-0.0432 -0.9600681,-0.21321 -1.2991951,-0.37793 -0.33913,-0.16472 -0.706104,-0.4361 -0.815505,-0.60306 -0.1094,-0.16696 -0.201837,-0.51568 -0.205415,-0.77493 -0.0036,-0.25925 -0.03194,-0.47136 -0.06299,-0.47136 -0.03108,0 -0.473524,0.37656 -0.9832417,0.83681 -0.619893,0.55973 -1.062181,0.86254 -1.33575,0.91452 -0.224944,0.0428 -0.506407,0.12757 -0.625466,0.18851 -0.119063,0.0609 -0.384991,0.0738 -0.59095,0.0285 -0.208066,-0.0457 -0.662559,-0.35471 -1.022752,-0.69536 -0.356551,-0.33721 -0.750405,-0.81331 -0.875236,-1.058 -0.12483,-0.24468 -0.226966,-0.60057 -0.226966,-0.79086 0,-0.19028 0.06226,-0.52905 0.138366,-0.75282 0.0761,-0.22377 0.291537,-0.60311 0.478754,-0.84298 0.187216,-0.23988 0.340392,-0.46924 0.340392,-0.5097 0,-0.0404 -0.287117,0.0885 -0.638041,0.28652 -0.459388,0.25926 -0.796135,0.36009 -1.202632,0.36009 -0.464174,0 -0.617363,-0.0585 -0.861352,-0.32914 -0.163223,-0.18104 -0.437905,-0.59845 -0.610406,-0.92759 -0.212762,-0.40596 -0.330658,-0.84867 -0.366549,-1.37642 -0.04842,-0.71195 -0.02217,-0.8237 0.309161,-1.31658 0.199141,-0.29623 0.540611,-0.70954 0.758824,-0.91847 0.218212,-0.20893 1.030614,-0.761 1.805338,-1.22681 0.774724,-0.46582 1.447973,-0.84814 1.49611,-0.8496 0.04814,-0.001 0.222176,-0.10799 0.386747,-0.23672 l 0.299222,-0.23405 -0.426265,-0.003 c -0.259822,-0.002 -0.527981,-0.0974 -0.686761,-0.24535 -0.143274,-0.13348 -0.294541,-0.37834 -0.336154,-0.54413 -0.04162,-0.16579 -0.05111,-0.59741 -0.02113,-0.95916 0.0332,-0.40016 0.148761,-0.78468 0.295138,-0.98191 0.132322,-0.1783 0.573045,-0.4973 0.979384,-0.7089 0.406334,-0.21159 0.740643,-0.42703 0.742904,-0.47875 0.0023,-0.0517 -0.08211,-0.11195 -0.187497,-0.13384 -0.105379,-0.0219 -0.262839,0.0193 -0.349901,0.0916 -0.118104,0.098 -0.21915,0.0777 -0.397952,-0.0799 -0.131806,-0.11619 -0.330061,-0.44819 -0.440565,-0.73777 -0.1105,-0.28959 -0.232214,-0.86171 -0.270466,-1.27138 -0.03827,-0.40967 -0.03252,-0.99178 0.01271,-1.29358 0.04525,-0.30179 0.183516,-0.67222 0.307243,-0.82318 l 0.224958,-0.27445 0.516535,0.26963 c 0.284096,0.1483 0.629541,0.26948 0.767658,0.2693 0.177803,-2.4e-4 0.315305,-0.14266 0.470933,-0.48778 0.120895,-0.2681 0.35385,-0.59289 0.51768,-0.72176 0.195852,-0.15406 0.450734,-0.22529 0.744175,-0.20798 0.3874207,0.0229 0.5359557,-0.0556 1.1259377,-0.59481 0.373804,-0.34164 0.748826,-0.62116 0.833387,-0.62116 0.08456,0 0.299223,0.11443 0.477021,0.25429 0.177803,0.13986 0.4522003,0.45851 0.6097734,0.70813 0.1575776,0.24961 0.3887237,0.75664 0.513663,1.12673 0.1608029,0.47631 0.3454457,0.76015 0.6320429,0.97159 0.2226823,0.16429 0.5804324,0.57714 0.7950037,0.91745 0.2145668,0.3403 0.390126,0.68856 0.390126,0.77389 0,0.0853 0.043925,0.15516 0.097662,0.15516 0.053719,0 0.2155168,-0.28276 0.359555,-0.62836 0.1440337,-0.34561 0.6936057,-1.27469 1.2212604,-2.06464 0.5276592,-0.78995 1.0519754,-1.57091 1.1651531,-1.73548 0.1131733,-0.16458 0.7584344,-0.98787 1.4339136,-1.82954 0.6754748,-0.84168 1.2281408,-1.57764 1.2281408,-1.63546 0,-0.0578 -0.2692987,-0.27084 -0.5984456,-0.47336 -0.3291424,-0.20253 -0.5974731,-0.43605 -0.5962924,-0.51895 0.00136,-0.0829 0.518924,-0.7701 1.1505327,-1.52714 0.6316087,-0.75703 1.4232739,-1.69958 1.7592606,-2.09455 0.3359867,-0.39497 1.0475151,-1.15439 1.5811817,-1.6876 0.6653462,-0.66477 1.1455295,-1.03639 1.5278658,-1.1824 0.3727777,-0.14237 0.7515583,-0.1943 1.142865,-0.1567 l 0.5852953,0.0562 0.8577109,-1.02823 c 0.4717466,-0.56553 1.1384182,-1.41691 1.4815026,-1.89195 0.3430798,-0.47504 1.0232408,-1.3871 1.5114628,-2.0268 0.488222,-0.6397 0.99989,-1.2993 1.137043,-1.46577 0.137153,-0.16646 0.384015,-0.44415 0.548591,-0.61708 0.164571,-0.17293 0.622317,-0.68661 1.017215,-1.14151 0.394899,-0.45489 0.906567,-1.04206 1.137043,-1.30481 0.230477,-0.26275 0.849931,-0.92837 1.376558,-1.47915 0.526633,-0.55079 1.263105,-1.21026 1.636606,-1.46549 0.373502,-0.25523 0.965962,-0.56722 1.316579,-0.69332 0.350616,-0.12608 0.799061,-0.26732 0.996547,-0.31384 0.345771,-0.0815 0.349096,-0.0884 0.08977,-0.18753 -0.149331,-0.0571 -0.269298,-0.20477 -0.269298,-0.33152 0,-0.12572 0.06732,-0.28244 0.149611,-0.34827 0.08229,-0.0658 0.275478,-0.15834 0.429315,-0.20556 0.153841,-0.0472 0.458334,-0.0523 0.676655,-0.0114 0.218321,0.0409 0.428536,0.15679 0.467141,0.2574 0.04049,0.10556 -0.04932,0.30244 -0.21244,0.46556 l -0.282639,0.28264 0.253923,0.0681 c 0.139654,0.0375 0.421,0.0689 0.625207,0.0698 0.204208,9.1e-4 0.919966,0.14 1.590573,0.30911 0.670607,0.16911 2.011609,0.60622 2.980001,0.97135 0.968391,0.36514 2.326244,0.93137 3.017447,1.25831 0.691204,0.32693 1.461318,0.69822 1.711369,0.82509 0.3171,0.16088 0.516246,0.19697 0.658289,0.11933 0.112006,-0.0612 0.400911,-0.31755 0.642004,-0.56962 0.241094,-0.25207 0.627886,-0.8084 0.859534,-1.23629 0.231653,-0.42788 0.579967,-1.18193 0.774037,-1.67564 0.19407,-0.49372 0.391641,-1.13032 0.439049,-1.41468 0.0474,-0.28436 0.165168,-0.54731 0.261685,-0.58435 0.102389,-0.0393 0.351092,0.1013 0.597008,0.33748 0.231829,0.22265 0.535078,0.62026 0.673887,0.88357 0.171962,0.32621 0.254429,0.70757 0.258812,1.19689 0.0045,0.48496 -0.07028,0.87289 -0.229847,1.19476 -0.129956,0.26214 -0.506973,0.75244 -0.837825,1.08956 -0.330843,0.33711 -0.910095,0.78572 -1.28722,0.9969 -0.377125,0.21118 -0.721313,0.44161 -0.764858,0.51207 -0.04356,0.0705 0.01837,0.18835 0.137619,0.26197 0.11924,0.0736 0.35571,0.21684 0.525483,0.31827 0.169774,0.10143 0.707231,0.45152 1.194349,0.77798 0.487118,0.32645 1.001401,0.67434 1.142856,0.77309 0.141456,0.0987 0.712385,0.56416 1.268734,1.03425 0.556348,0.4701 1.205151,1.06256 1.441785,1.31658 0.236637,0.25402 0.546333,0.65672 0.688213,0.89489 0.14188,0.23817 0.257442,0.58826 0.256795,0.77798 -4.52e-4,0.18972 -0.127128,0.61424 -0.281083,0.94338 -0.153954,0.32915 -0.525931,0.8243 -0.82661,1.10033 -0.30068,0.27604 -0.883206,0.67176 -1.294499,0.87938 -0.411297,0.20762 -0.99481,0.4524 -1.296703,0.54395 -0.301887,0.0916 -0.872607,0.20015 -1.268261,0.24133 -0.515559,0.0537 -0.842444,0.0235 -1.153749,-0.10662 -0.238905,-0.0998 -0.643606,-0.37051 -0.899334,-0.60155 -0.255723,-0.23103 -0.620579,-0.74566 -0.810791,-1.14362 -0.190207,-0.39796 -0.381734,-0.70138 -0.425614,-0.67426 -0.04388,0.0271 -0.339348,0.49612 -0.656579,1.04223 -0.317241,0.54611 -0.730329,1.24956 -0.917976,1.56324 -0.187651,0.31368 -0.341179,0.60677 -0.341179,0.65133 0,0.0446 -0.221837,0.46116 -0.492968,0.92579 -0.27113,0.46463 -0.612432,1.03329 -0.758448,1.26369 -0.146015,0.2304 -0.617825,1.0383 -1.048465,1.79534 -0.430635,0.75703 -0.887815,1.56493 -1.015949,1.79533 -0.128133,0.2304 -0.412273,0.75703 -0.631418,1.17029 -0.336905,0.63533 -0.377238,0.79245 -0.261147,1.01735 0.07552,0.14629 0.218466,0.50165 0.31767,0.7897 0.0992,0.28805 0.180368,0.80341 0.180368,1.14525 0,0.34183 -0.07929,0.88851 -0.176202,1.21485 -0.09691,0.32634 -0.53069,1.09607 -0.963944,1.71051 -0.43326,0.61445 -0.956164,1.25937 -1.162014,1.43317 -0.205845,0.1738 -0.701156,0.53641 -1.100686,0.80578 -0.399531,0.26938 -1.025739,0.68279 -1.391577,0.91869 -0.587259,0.37867 -0.716025,0.53858 -1.099483,1.3654 -0.238877,0.51507 -0.622711,1.34381 -0.852961,1.84165 -0.230255,0.49784 -0.456158,1.06337 -0.502015,1.25673 -0.04586,0.19336 -0.318715,0.81229 -0.606353,1.37539 -0.287642,0.5631 -0.522981,1.06464 -0.522981,1.11453 0,0.0499 -0.129662,0.37015 -0.28814,0.71168 -0.158482,0.34152 -0.394433,0.86332 -0.524339,1.15955 -0.129911,0.29623 -0.277088,0.67325 -0.327066,0.83782 -0.04998,0.16457 -0.33258,0.71598 -0.628008,1.22535 -0.332906,0.57399 -0.770241,1.12274 -1.150202,1.44323 -0.337186,0.28442 -0.807485,0.63489 -1.045109,0.77883 -0.237628,0.14394 -0.668508,0.34622 -0.957512,0.4495 -0.289008,0.10327 -1.171785,0.2948 -1.961731,0.42561 -1.0281179,0.17025 -1.6913606,0.21627 -2.3339346,0.16194 -0.4937136,-0.0417 -1.4200169,-0.17741 -2.0584473,-0.30148 -0.6384258,-0.12407 -1.2982124,-0.26008 -1.4661854,-0.30223 -0.167973,-0.0422 -0.3054067,-0.0256 -0.3054067,0.0368 0,0.0624 0.1211846,0.16859 0.2692987,0.23599 0.1481141,0.0674 0.7271079,0.21746 1.2866545,0.33348 0.667988,0.1385 1.0892821,0.29253 1.2268108,0.44853 0.1151999,0.13068 0.2094551,0.33934 0.2094551,0.46371 0,0.16709 -0.085932,0.2259 -0.3291424,0.22528 -0.1810328,-4.5e-4 -0.7729191,-0.10723 -1.3153074,-0.23726 -0.6487444,-0.15554 -1.1694009,-0.21131 -1.5217271,-0.16302 -0.3717147,0.051 -0.6585517,0.0151 -0.9375401,-0.11733 -0.2210809,-0.10492 -0.4604691,-0.31916 -0.5319793,-0.47611 -0.085068,-0.1867 -0.3717283,-0.38109 -0.8291484,-0.56227 -0.3845212,-0.1523 -0.7841605,-0.34907 -0.8880873,-0.43725 -0.1039269,-0.0882 -0.2403382,-0.16032 -0.3031403,-0.16032 -0.062798,0 -0.4894342,-0.19774 -0.9480848,-0.43942 -0.4586461,-0.24169 -0.9550874,-0.56763 -1.103206,-0.7243 -0.1481141,-0.15668 -0.2692987,-0.41196 -0.2692987,-0.56728 0,-0.27347 0.038858,-0.26212 1.2268108,0.35804 0.6747464,0.35225 1.6239711,0.80937 2.1093883,1.01581 0.6045164,0.2571 0.9213498,0.33659 1.0056394,0.2523 0.08429,-0.0843 0.013616,-0.16882 -0.2242882,-0.26828 -0.1910437,-0.0799 -0.8320933,-0.36964 -1.4245495,-0.64394 -0.5924608,-0.27431 -1.6641097,-0.85892 -2.3814465,-1.29914 -0.7173323,-0.44023 -1.3323164,-0.77234 -1.3666285,-0.73803 -0.034289,0.0343 -4.524e-4,0.18348 0.074966,0.3315 0.075541,0.14802 0.1888814,0.4117 0.2518645,0.58596 0.062983,0.17426 0.085488,0.34586 0.050005,0.38134 -0.035466,0.0355 -0.1936177,0.0154 -0.3514215,-0.0446 -0.1578038,-0.06 -0.2865339,-0.07 -0.2860634,-0.0223 4.523e-4,0.0478 0.1845251,0.57367 0.4090078,1.16873 0.2244872,0.59506 0.5472602,1.38604 0.7172779,1.75774 0.1700177,0.3717 0.3091252,0.73386 0.3091252,0.8048 0,0.0709 0.051253,0.22251 0.1138925,0.33682 0.062639,0.1143 0.2017829,0.42327 0.3092065,0.68658 0.1074237,0.26332 0.2716149,0.65563 0.3648658,0.87181 0.093251,0.21618 0.1695473,0.44266 0.1695473,0.5033 0,0.0606 0.153832,0.4493 0.3418539,0.86368 0.1880174,0.41439 0.465893,1.07659 0.6175038,1.47156 0.1516064,0.39498 0.515581,1.22981 0.8088281,1.85518 0.293247,0.62537 0.6594021,1.3055 0.8136865,1.51139 0.1542798,0.2059 0.5343949,0.54252 0.8447007,0.74806 0.3866066,0.25607 0.709244,0.37371 1.0250008,0.37371 0.3720539,0 0.4863671,-0.0561 0.593551,-0.29136 0.095183,-0.20891 0.097671,-0.5277 0.00878,-1.12659 -0.068185,-0.45938 -0.1067315,-1.17657 -0.085669,-1.59375 0.02108,-0.41717 0.1511676,-1.11685 0.2891079,-1.55483 0.1773913,-0.56322 0.4082388,-0.97142 0.7886027,-1.39448 0.2957803,-0.32899 0.7515177,-0.70956 1.0127462,-0.84572 0.2612239,-0.13616 0.8130984,-0.28073 1.226381,-0.32127 0.5481696,-0.0538 0.8647452,-0.0239 1.1703419,0.11041 0.2303996,0.10128 0.7959308,0.55021 1.2567308,0.99763 0.460803,0.44742 1.032256,1.10972 1.269898,1.47178 0.237638,0.36206 0.796402,1.24059 1.24169,1.9523 0.445287,0.7117 1.048605,1.51801 1.340707,1.79179 0.292103,0.27378 0.675891,0.59327 0.852866,0.70999 0.204262,0.13472 0.550405,0.2125 0.947854,0.213 0.578845,9e-4 0.632138,-0.0233 0.706259,-0.31864 0.04411,-0.17568 0.01524,-0.83546 -0.06409,-1.46619 -0.07935,-0.63072 -0.22052,-1.55071 -0.313721,-2.04443 -0.09321,-0.49371 -0.250353,-1.43627 -0.349218,-2.09455 -0.09887,-0.65829 -0.288972,-2.13064 -0.422457,-3.2719 -0.133489,-1.14125 -0.242699,-2.28577 -0.242699,-2.54338 0,-0.37841 0.04316,-0.46839 0.224722,-0.46839 0.123596,0 0.282811,0.07 0.353814,0.15556 0.071,0.0855 0.160718,0.39524 0.199368,0.6882 0.03863,0.29297 0.118357,0.82889 0.17712,1.19096 0.05877,0.36205 0.195572,1.33153 0.304013,2.15439 0.108441,0.82287 0.272963,1.84621 0.365599,2.27409 0.09264,0.42789 0.231015,1.34351 0.307505,2.03471 0.07649,0.69121 0.150607,2.01077 0.164707,2.93238 0.01529,1.00014 0.08543,1.82039 0.173949,2.03471 0.08157,0.19748 0.278414,0.8438 0.437444,1.43627 0.159025,0.59245 0.452222,1.59639 0.651544,2.23097 0.199322,0.63457 0.453996,1.2329 0.565939,1.32962 0.111947,0.0967 0.329486,0.20657 0.483417,0.24413 0.153936,0.0375 0.719468,-0.041 1.256735,-0.17463 0.537268,-0.1336 1.353872,-0.43219 1.814671,-0.66352 0.460804,-0.23133 1.268705,-0.70289 1.795333,-1.0479 0.526632,-0.34502 1.301003,-0.9044 1.720823,-1.24306 0.443433,-0.35773 0.88355,-0.61577 1.050238,-0.61577 0.19953,0 0.323293,0.0956 0.406307,0.31399 0.06566,0.17269 0.08359,0.50476 0.03985,0.73791 -0.04374,0.23316 -0.20438,0.617 -0.356977,0.85298 -0.152597,0.23597 -0.368218,0.50984 -0.479152,0.60858 -0.110938,0.0987 -0.368905,0.32039 -0.573262,0.49254 -0.204361,0.17215 -0.838512,0.56263 -1.409228,0.86774 -0.57072,0.30511 -1.167049,0.55474 -1.325178,0.55474 -0.158134,0 -0.540262,0.0861 -0.849175,0.19138 -0.399634,0.13617 -0.871915,0.17933 -1.63718,0.14961 l -1.075521,-0.0418 6.3e-5,0.56852 c 5.9e-5,0.54663 -0.01321,0.56852 -0.344591,0.56852 z M -6.9086282,198.92536 c 0.7862007,0.008 0.9590728,-0.0308 1.3692477,-0.30955 0.2581931,-0.17544 0.5911626,-0.45821 0.7399235,-0.62836 0.1487655,-0.17016 0.4107811,-0.56446 0.5822599,-0.87623 0.171479,-0.31177 0.4411532,-0.94723 0.5992736,-1.41213 0.2145306,-0.63074 0.2591838,-0.91974 0.1759347,-1.13871 -0.097888,-0.25746 -0.078617,-0.29343 0.1572157,-0.29343 0.2297075,0 0.3069763,-0.12615 0.5315179,-0.86775 0.1445087,-0.47726 0.3723117,-1.33291 0.5062351,-1.90146 0.1384786,-0.58789 0.242609,-1.43961 0.2414419,-1.97486 -0.00136,-0.53476 -0.09877,-1.30293 -0.2260434,-1.77898 -0.1231931,-0.4608 -0.3065285,-1.02633 -0.4074109,-1.25673 -0.1008779,-0.2304 -0.3627126,-0.60244 -0.5818528,-0.82676 -0.2191403,-0.22431 -0.6051,-0.55847 -0.8576837,-0.74258 -0.2525839,-0.18411 -0.7563898,-0.42113 -1.1195637,-0.52671 -0.4643143,-0.13498 -1.1451224,-0.1915 -2.2935968,-0.19043 -1.1749058,9.1e-4 -1.9523848,0.0691 -2.7703235,0.24231 -0.625375,0.13243 -1.437967,0.3444 -1.805764,0.47104 -0.367797,0.12664 -0.825611,0.31239 -1.017356,0.41278 -0.191749,0.10039 -0.473601,0.30044 -0.626343,0.44456 -0.235977,0.22266 -0.266051,0.33659 -0.200132,0.75821 0.04487,0.28701 0.187154,0.59016 0.337521,0.7191 0.216503,0.18567 0.379956,0.21041 0.978108,0.14805 0.394993,-0.0412 1.010063,-0.1525 1.366827,-0.24736 0.356764,-0.0949 0.693389,-0.14485 0.748057,-0.11106 0.05466,0.0338 0.0994,0.16013 0.0994,0.28076 0,0.13111 -0.114431,0.24806 -0.284481,0.29074 -0.156464,0.0393 -0.762388,0.29679 -1.346498,0.57227 -0.584114,0.27548 -1.519831,0.79937 -2.079378,1.16419 -0.559542,0.36484 -1.381367,0.92571 -1.82627,1.24638 -0.481545,0.3471 -0.929596,0.78899 -1.107119,1.09191 -0.197965,0.3378 -0.297323,0.68637 -0.295581,1.03693 0.0014,0.29045 0.104655,0.7528 0.22935,1.02744 0.124695,0.27464 0.367653,0.59169 0.539901,0.70455 0.236692,0.15508 0.465684,0.1891 0.937616,0.13929 0.414315,-0.0437 0.979258,-0.25061 1.678889,-0.61478 0.579944,-0.30187 1.301334,-0.73738 1.603085,-0.96778 0.301752,-0.2304 0.596446,-0.41892 0.654874,-0.41892 0.05843,0 0.138637,0.0844 0.178237,0.18764 0.04429,0.11537 -0.03782,0.27632 -0.213214,0.41793 -0.156867,0.12666 -0.748184,0.67508 -1.314036,1.21871 -0.565853,0.54362 -1.171776,1.23551 -1.346498,1.53752 -0.179825,0.31084 -0.317675,0.73218 -0.317675,0.97098 0,0.29069 0.114272,0.56565 0.367512,0.88431 0.202131,0.25435 0.511826,0.55764 0.688209,0.67396 0.176382,0.11633 0.509207,0.21068 0.739611,0.20966 0.2304,-9e-4 0.637933,-0.10132 0.90563,-0.2229 0.267693,-0.12159 0.814117,-0.47006 1.214272,-0.77438 0.400159,-0.30432 0.9890327,-0.8306 1.3086157,-1.16951 0.31958,-0.33891 0.727357,-0.77023 0.906164,-0.95848 0.178812,-0.18826 0.382477,-0.34228 0.452594,-0.34228 0.07011,0 0.159405,0.0832 0.198431,0.1849 0.03904,0.10169 -0.151177,0.66299 -0.42267,1.24731 -0.28158,0.60605 -0.493618,1.24213 -0.493618,1.48077 0,0.38415 0.04162,0.43308 0.508678,0.59841 0.279771,0.099 0.9135869,0.18431 1.4084811,0.18951 z m 1.1156235,-6.69814 c -0.8225257,0.005 -0.8703364,-0.0107 -1.1851025,-0.38397 -0.1803996,-0.21394 -0.4110842,-0.5775 -0.5126271,-0.8079 -0.119384,-0.27089 -0.18699,-0.79956 -0.191315,-1.49611 -0.0051,-0.81191 0.04515,-1.17206 0.2038546,-1.46236 0.1158015,-0.21184 0.3581708,-0.52534 0.5385975,-0.69666 0.1804312,-0.17132 0.6297223,-0.466 0.9984287,-0.65484 0.3687064,-0.18883 1.0062366,-0.45648 1.4167282,-0.59477 0.4104916,-0.13828 0.8467229,-0.21957 0.9694004,-0.18063 0.1226774,0.0389 0.3344758,0.25108 0.4706564,0.47142 0.1361806,0.22035 0.354294,0.71075 0.4846979,1.08977 0.1304039,0.37901 0.2370494,0.93652 0.2369997,1.2389 -6.34e-5,0.36335 -0.1229534,0.80949 -0.3623778,1.31559 -0.2269888,0.47981 -0.5685578,0.94914 -0.9146322,1.25674 -0.3037963,0.27001 -0.7197209,0.58292 -0.9242813,0.69536 -0.2496479,0.13723 -0.6537068,0.20609 -1.2290275,0.20946 z m -0.065643,-0.47486 c 0.268973,-9.1e-4 0.6816857,-0.13747 1.0469813,-0.347 0.3316485,-0.19023 0.8071137,-0.55328 1.0565942,-0.80677 0.2494805,-0.2535 0.5840604,-0.71495 0.7435062,-1.02545 0.1594504,-0.3105 0.2899086,-0.74439 0.2899086,-0.9642 0,-0.2198 -0.1107802,-0.72768 -0.2461782,-1.12862 -0.1354026,-0.40094 -0.3473411,-0.82053 -0.4709776,-0.93242 -0.2120834,-0.19193 -0.2641599,-0.18879 -0.9207845,0.0555 -0.3827977,0.14244 -1.0262041,0.44289 -1.4297926,0.66769 -0.4035884,0.22479 -0.901794,0.60005 -1.1071235,0.8339 -0.2053249,0.23386 -0.3785363,0.5445 -0.3849147,0.69033 -0.00638,0.14582 -0.00362,0.48057 0.00611,0.74389 0.00973,0.26331 0.095798,0.72174 0.1912653,1.01872 0.095468,0.29698 0.3103466,0.68747 0.4775098,0.86774 0.2265908,0.24437 0.4169107,0.32749 0.7479168,0.32666 z m 9.4272016,6.82338 c 0.039763,0 0.037954,-0.15645 -0.00407,-0.34767 -0.046834,-0.21322 -0.022437,-0.381 0.06311,-0.43387 0.1027372,-0.0635 0.096703,-0.1133 -0.022935,-0.1891 -0.089311,-0.0566 -0.2027826,-0.10372 -0.252154,-0.10472 -0.049371,-9.1e-4 -0.089768,0.10238 -0.089768,0.22975 0,0.12737 0.052529,0.36974 0.1167289,0.5386 0.0642,0.16886 0.1492676,0.30701 0.1890397,0.30701 z m 5.5589823,-1.01314 c 1.2269868,-0.0369 2.0335718,-0.12699 2.7528398,-0.30744 0.559547,-0.14039 1.205867,-0.36926 1.436266,-0.5086 0.230405,-0.13934 0.597306,-0.39071 0.815343,-0.55858 0.263454,-0.20285 0.579242,-0.68664 0.94143,-1.44228 0.299752,-0.62537 0.759366,-1.59485 1.021368,-2.1544 0.262002,-0.55954 0.71641,-1.52902 1.009788,-2.1544 0.293378,-0.62537 0.617671,-1.29862 0.720653,-1.49611 0.102981,-0.19748 0.587109,-1.13333 1.075842,-2.07967 0.488728,-0.94633 0.870264,-1.73893 0.847849,-1.76135 -0.02244,-0.0224 -0.541918,0.14786 -1.154455,0.37839 -0.832934,0.31347 -1.153595,0.38603 -1.271943,0.28781 -0.08704,-0.0722 -0.361645,-0.53197 -0.610248,-1.02164 -0.248598,-0.48967 -0.517232,-0.89031 -0.596966,-0.89031 -0.07973,0 -0.620865,0.17965 -1.202515,0.39923 -0.581649,0.21958 -1.542282,0.54927 -2.134743,0.73265 -0.592461,0.18338 -1.427291,0.45789 -1.855176,0.61003 -0.42789,0.15214 -1.4987065,0.49379 -2.3795922,0.75925 -0.8808901,0.26545 -1.6153264,0.498 -1.6320821,0.51677 -0.016737,0.0188 -0.2196469,0.62659 -0.4508789,1.35071 -0.231223,0.72412 -0.5026795,1.6936 -0.6032271,2.1544 -0.1005477,0.4608 -0.2415596,1.199 -0.3133593,1.64044 -0.0718,0.44144 -0.1602556,1.54557 -0.1965717,2.45362 -0.036325,0.90805 -0.020583,1.89262 0.034923,2.18792 l 0.1009774,0.53693 0.9544812,0.20941 c 0.7479259,0.16409 1.3300592,0.19812 2.6899745,0.15722 z m -4.4284895,-0.55218 c 0.1525292,0.008 0.1806664,-0.29223 0.1870493,-1.99544 0.00407,-1.14042 0.073392,-2.31439 0.1603144,-2.7229 0.084041,-0.39497 0.1714472,-0.82585 0.1942284,-0.95751 0.022799,-0.13166 0.1027055,-0.55566 0.1775994,-0.94221 0.074894,-0.38656 0.3524257,-1.29294 0.6167348,-2.01416 0.2643091,-0.72123 0.4565335,-1.33535 0.4271704,-1.36471 -0.029359,-0.0294 -0.3438127,0.022 -0.6987852,0.1142 -0.354968,0.0922 -0.9290356,0.20638 -1.2757072,0.25379 -0.398151,0.0545 -0.6685942,0.15911 -0.7342553,0.28416 -0.05717,0.10887 -0.2226687,0.62883 -0.3677791,1.15546 -0.1451058,0.52664 -0.2865294,1.09216 -0.3142776,1.25673 -0.02773,0.16458 -0.1377458,0.70318 -0.2444457,1.1969 -0.1507378,0.69751 -0.1779567,1.25793 -0.1220622,2.51346 0.039537,0.88869 0.1023526,1.82861 0.1395327,2.08871 0.037185,0.2601 0.096458,0.50246 0.1317293,0.53859 0.035285,0.0361 0.3969703,0.18268 0.8037751,0.32566 0.4068048,0.14297 0.8204358,0.26414 0.9191785,0.26927 z m -1.0524866,-1.78596 c -0.1406183,0 -0.3114232,-0.10418 -0.3795678,-0.23152 -0.068145,-0.12732 -0.1238988,-0.33078 -0.1238988,-0.45212 0,-0.12134 0.083846,-0.34031 0.186321,-0.48662 0.1024747,-0.1463 0.282639,-0.26601 0.4003631,-0.26601 0.1177195,0 0.3031765,0.0985 0.4121201,0.21888 0.1089481,0.12038 0.1980825,0.35441 0.1980825,0.52005 0,0.16564 -0.098494,0.39031 -0.2188778,0.49925 -0.120384,0.10895 -0.3339285,0.19809 -0.4745423,0.19809 z m 0.1020405,-0.35907 c 0.1783367,0 0.2323132,-0.0834 0.2323132,-0.35907 0,-0.2751 -0.05409,-0.35906 -0.231309,-0.35906 -0.1272237,0 -0.2653495,0.10724 -0.3069492,0.2383 -0.041618,0.13107 -0.04207,0.29265 -9.048e-4,0.35907 0.04103,0.0664 0.1791782,0.12076 0.3069493,0.12076 z m 0.5734387,-4.54818 c -0.046404,0 -0.1960016,-0.14191 -0.3324356,-0.31536 -0.1364384,-0.17345 -0.2480646,-0.34997 -0.2480646,-0.39228 0,-0.0423 0.083842,-0.19662 0.186321,-0.34292 0.1040354,-0.14853 0.3124682,-0.26601 0.4719683,-0.26601 0.1571071,0 0.3635359,0.1112 0.4587366,0.24712 0.095201,0.13591 0.1453998,0.353 0.1115582,0.48241 -0.033837,0.12942 -0.1745232,0.31444 -0.3126219,0.41117 -0.1381032,0.0967 -0.2890581,0.17587 -0.335462,0.17587 z m -0.04658,-0.35906 c 0.085194,0 0.2213795,-0.0801 0.3026337,-0.17801 0.081259,-0.0979 0.1164709,-0.25949 0.078259,-0.35907 -0.038225,-0.0996 -0.1500638,-0.18106 -0.2485577,-0.18106 -0.098494,0 -0.2275543,0.0943 -0.2868053,0.20946 -0.059251,0.1152 -0.083584,0.27678 -0.05408,0.35907 0.029494,0.0823 0.1233515,0.14961 0.2085503,0.14961 z m -2.0797944,6.22137 c 0.038451,0.001 0.065457,-0.92664 0.059993,-2.06219 -0.00932,-1.93504 0.014431,-2.16605 0.3783101,-3.68043 0.2135309,-0.88869 0.468467,-1.87743 0.5665221,-2.1972 l 0.1782825,-0.5814 -0.3871404,0.056 c -0.2129248,0.0308 -1.0873189,0.19631 -1.9430936,0.36785 -0.8557747,0.17155 -1.7175342,0.32721 -1.9150197,0.34591 l -0.3590664,0.034 -0.078337,1.35041 c -0.045011,0.77578 -0.1595951,1.5535 -0.2692987,1.82768 -0.1050306,0.2625 -0.1909623,0.61256 -0.1909623,0.77791 0,0.16535 -0.078404,0.48829 -0.1742337,0.71763 -0.1718091,0.4112 -0.1685566,0.42215 0.2341181,0.78858 0.2245912,0.20437 0.6934789,0.56142 1.0419736,0.79343 0.3484946,0.23201 1.1183693,0.65529 1.7108256,0.94062 0.5924608,0.28533 1.1086661,0.51988 1.1471263,0.52123 z m -3.5001687,-8.18805 c 0.1092557,-0.0335 0.6362635,-0.13598 1.1711289,-0.22772 0.5348654,-0.0917 1.0365814,-0.20639 1.1149178,-0.2548 0.1056775,-0.0653 0.093346,-0.14227 -0.047779,-0.29822 -0.1106852,-0.12231 -0.1570121,-0.29672 -0.1107983,-0.41714 0.043699,-0.11383 0.00923,-0.49948 -0.076518,-0.85699 -0.1371487,-0.57169 -0.1860406,-0.64158 -0.4056784,-0.5799 -0.1373568,0.0386 -0.7479439,0.30639 -1.3568619,0.59515 -0.6089179,0.28875 -1.107119,0.5692 -1.107119,0.62322 0,0.054 0.073125,0.20446 0.1624994,0.3343 0.089379,0.12985 0.2288933,0.44015 0.3100344,0.68956 0.10893,0.33482 0.1995075,0.43752 0.3461741,0.39254 z m -0.92415,-2.46181 c 0.062386,0 0.9868571,-0.35719 2.0543804,-0.79375 1.0675188,-0.43656 2.1563847,-0.87889 2.4197032,-0.98295 0.2633139,-0.10406 0.5056832,-0.22232 0.5385974,-0.26281 0.032932,-0.0405 0.6688204,-0.33385 1.4131273,-0.65191 1.0141711,-0.43339 1.392997,-0.656 1.511766,-0.88838 0.087162,-0.17055 0.3196427,-0.71404 0.5166169,-1.20775 0.1969788,-0.49372 0.8520789,-1.93599 1.4557811,-3.20506 l 1.0976373,-2.30739 -0.1325571,-0.98405 C 8.5734947,173.70438 8.4302893,172.88454 8.3281719,172.42373 8.22605,171.96293 7.9342415,170.81042 7.6797035,169.8626 7.42517,168.91478 7.1844112,168.10688 7.1446843,168.06727 c -0.039718,-0.0396 -0.208383,0.0896 -0.3747998,0.28705 -0.1664169,0.19748 -0.4438039,0.52064 -0.6164137,0.71813 -0.1726097,0.19748 -0.6935558,0.81687 -1.157662,1.37642 -0.4641061,0.55955 -1.0035042,1.2328 -1.19866,1.49611 -0.1951557,0.26331 -0.5302784,0.67182 -0.744714,0.90777 -0.2144402,0.23597 -0.8876892,1.05578 -1.4961096,1.82181 -0.6084248,0.76603 -1.6768031,2.16184 -2.3741679,3.1018 -0.6973647,0.93996 -1.5217497,2.07299 -1.831965,2.51785 -0.3102154,0.44486 -0.8841698,1.38337 -1.2754494,2.08558 -0.3912841,0.70222 -0.7114199,1.3086 -0.7114199,1.34753 0,0.0389 0.2827612,0.24379 0.6283653,0.45525 0.3455995,0.21147 0.8618817,0.60107 1.1472937,0.86579 0.2854121,0.26471 0.5699737,0.4813 0.6323642,0.4813 z m 19.9063418,-0.23938 c 0.02678,0 0.658819,-0.30278 1.404555,-0.67286 0.745737,-0.37008 1.716739,-0.90584 2.157778,-1.19059 0.44104,-0.28475 1.2972,-0.96182 1.902575,-1.5046 0.683799,-0.6131 1.313919,-1.31353 1.663685,-1.84931 0.388479,-0.59509 0.607032,-1.08623 0.705037,-1.58438 0.07812,-0.39706 0.109102,-0.87381 0.06885,-1.05944 -0.04026,-0.18562 -0.181087,-0.64092 -0.312975,-1.01176 -0.201674,-0.56707 -0.310961,-0.70635 -0.687426,-0.87611 -0.341058,-0.1538 -0.616658,-0.183 -1.157589,-0.12264 -0.390479,0.0436 -1.006192,0.17487 -1.368248,0.29176 -0.362062,0.11689 -1.196892,0.44008 -1.855176,0.71819 -0.65829,0.27811 -1.412332,0.60213 -1.675646,0.72004 -0.263313,0.11792 -1.157648,0.51689 -1.987407,0.88661 -0.829764,0.36971 -1.570334,0.67221 -1.645721,0.67221 -0.07539,0 -0.137072,0.0739 -0.137072,0.16432 0,0.0904 0.113685,0.427 0.252625,0.74805 0.138944,0.32106 0.435177,0.97903 0.658289,1.46215 0.223117,0.48313 0.405665,0.89614 0.405665,0.91781 0,0.0217 0.350897,0.7709 0.779763,1.66497 0.428872,0.89407 0.801667,1.62558 0.828438,1.62558 z m -29.246336,-1.38259 c 0.05373,-0.0332 -0.0109,-0.24444 -0.143658,-0.46941 -0.186466,-0.31603 -0.257216,-0.7099 -0.311143,-1.73214 -0.03841,-0.7277 -0.09091,-1.3231 -0.116715,-1.3231 -0.02583,0 -0.156764,0.10233 -0.291013,0.22741 -0.186375,0.17363 -0.245486,0.38237 -0.249982,0.88274 -0.0041,0.46597 0.0867,0.85757 0.314535,1.35522 0.176229,0.38494 0.405891,0.79434 0.510356,0.90977 0.10447,0.11543 0.233897,0.18271 0.28762,0.14951 z m 0.759113,-0.21933 c 0.136542,-0.0338 0.706068,-0.11741 1.2656147,-0.1859 0.559546,-0.0685 1.502094,-0.12275 2.0945552,-0.12058 0.5924563,0.002 1.2387759,0.0151 1.4362659,0.0286 0.3580622,0.0246 0.3589805,0.023 0.3281653,-0.57381 -0.018683,-0.36146 -0.1608528,-0.85707 -0.3590665,-1.25154 -0.18049,-0.35919 -0.5319115,-0.81439 -0.7809396,-1.01154 -0.3578903,-0.28335 -0.620001,-0.37578 -1.2508183,-0.44107 -0.438927,-0.0454 -0.855548,-0.0605 -0.925828,-0.0336 -0.07028,0.027 -0.267096,0.27697 -0.437376,0.55555 -0.17028,0.27859 -0.48933,0.79296 -0.7089947,1.14304 -0.219665,0.35008 -0.429455,0.8503 -0.466201,1.11159 -0.03673,0.26128 -0.120248,0.47584 -0.185565,0.47678 -0.06532,9.1e-4 -0.195409,-0.35776 -0.289099,-0.79711 -0.155994,-0.73157 -0.15176,-0.85555 0.0503,-1.47237 0.121352,-0.37045 0.3728,-0.96977 0.558777,-1.33183 0.286801,-0.55836 0.309202,-0.66448 0.147549,-0.69904 -0.104827,-0.0224 -0.313043,0.0743 -0.462704,0.21488 -0.149666,0.1406 -0.36473,0.53596 -0.477926,0.87858 -0.113191,0.34261 -0.235208,0.92625 -0.271144,1.29697 -0.03619,0.37349 0.0018,0.96053 0.08537,1.31658 0.08288,0.35339 0.206976,0.71332 0.275754,0.79984 0.06878,0.0865 0.236773,0.1297 0.373316,0.096 z m 3.9154642,-0.62264 c -0.05665,0.035 -0.1374382,0.0292 -0.1795355,-0.0129 -0.042115,-0.0421 -0.076536,-0.14835 -0.076536,-0.23612 0,-0.0878 0.080788,-0.15959 0.179531,-0.15959 0.098743,0 0.1795355,0.0776 0.1795355,0.17247 0,0.0949 -0.04635,0.20111 -0.102995,0.23612 z m -0.4655311,-0.52828 c -0.1261697,0 -0.2653094,-0.0359 -0.3091934,-0.0798 -0.04388,-0.0439 -0.07979,-0.12842 -0.07979,-0.18786 0,-0.0594 0.116964,-0.0908 0.2599261,-0.0698 0.142957,0.021 0.2820962,0.10557 0.3091929,0.18786 0.027911,0.0848 -0.050122,0.14961 -0.1801326,0.14961 z m -0.6499844,-0.38372 c -0.09972,0.0194 -0.324161,-0.1521 -0.498757,-0.381 -0.174596,-0.22891 -0.317444,-0.47365 -0.317444,-0.54387 0,-0.0702 0.05262,-0.12767 0.116928,-0.12767 0.06431,0 0.20147,0.12902 0.304796,0.28672 0.103329,0.15769 0.298752,0.31571 0.434281,0.35116 0.135529,0.0354 0.222809,0.13532 0.193962,0.22195 -0.02886,0.0866 -0.134041,0.17336 -0.233766,0.19271 z m -0.779139,-1.41161 c -0.09718,0 -0.154284,-0.0673 -0.126884,-0.14961 0.02741,-0.0823 0.139415,-0.16699 0.248933,-0.18823 0.138854,-0.0269 0.177255,0.0184 0.126884,0.14961 -0.03972,0.10353 -0.151746,0.18823 -0.248933,0.18823 z m -4.0988897,2.75284 c 0.05388,0 0.12735,-0.0475 0.163264,-0.10564 0.03592,-0.0581 -0.04171,-0.41663 -0.17247,-0.79672 -0.13077,-0.38009 -0.237764,-0.86457 -0.237764,-1.07662 0,-0.21206 0.08478,-0.58847 0.188402,-0.83647 0.15452,-0.36982 0.159898,-0.46897 0.0299,-0.55138 -0.08716,-0.0553 -0.215028,-0.10131 -0.284149,-0.10231 -0.06912,-9e-4 -0.190307,0.0628 -0.269299,0.14179 -0.08873,0.0887 -0.143627,0.52483 -0.143627,1.14089 0,0.62192 0.06853,1.16129 0.182092,1.43307 0.100149,0.2397 0.241396,0.50727 0.313875,0.5946 0.07248,0.0873 0.175871,0.15879 0.229757,0.15879 z m 2.153259,-1.43626 c 0.06228,0 0.113924,-0.0404 0.114765,-0.0898 9.05e-4,-0.0494 0.283607,-0.522 0.6283657,-1.05029 0.344762,-0.52828 0.781346,-1.16114 0.970187,-1.40634 0.188845,-0.2452 0.396658,-0.44582 0.461808,-0.44582 0.06516,0 0.08637,0.12786 0.04715,0.28413 -0.06698,0.26688 -0.0332,0.2879 0.555547,0.34596 0.344772,0.034 0.6422988,0.0478 0.661167,0.0306 0.018864,-0.0171 -0.07735,-0.32093 -0.213825,-0.67509 -0.136475,-0.35416 -0.383341,-0.7647 -0.548595,-0.91232 -0.290913,-0.25985 -0.310717,-0.26175 -0.623213,-0.0598 -0.177513,0.1147 -0.446301,0.34319 -0.59731,0.50776 -0.151009,0.16458 -0.488407,0.75201 -0.7497757,1.30542 -0.261364,0.55341 -0.552679,1.26705 -0.64736,1.58588 -0.0959,0.32292 -0.12199,0.57968 -0.05891,0.57968 z M 6.2333496,181.939 c 0.057301,0 0.3953102,-0.10274 0.7511286,-0.2283 0.355823,-0.12557 0.9012467,-0.32657 1.2120546,-0.44667 0.4587275,-0.17725 0.5798172,-0.28636 0.6432481,-0.5796 0.042975,-0.19868 0.1791646,-0.5042 0.3026382,-0.67893 0.1234691,-0.17473 0.2244918,-0.34965 0.2244918,-0.38871 0,-0.039 0.197983,-0.35391 0.4399587,-0.69966 0.2419754,-0.34575 0.5786004,-0.78137 0.7480574,-0.96805 0.169452,-0.18667 0.604326,-0.51216 0.966383,-0.72331 0.362061,-0.21114 0.900658,-0.47293 1.196891,-0.58173 0.296228,-0.10881 0.86176,-0.2788 1.256731,-0.37777 0.394975,-0.099 1.526033,-0.33915 2.513465,-0.53375 0.987432,-0.19461 2.280071,-0.41209 2.872532,-0.48331 0.592461,-0.0712 1.642731,-0.1627 2.333934,-0.20331 0.691204,-0.0406 1.767937,-0.1086 2.392751,-0.15111 l 1.136016,-0.0773 0.506552,-0.77514 c 0.2786,-0.42633 0.465368,-0.81633 0.415038,-0.86666 -0.05034,-0.0503 -0.54712,-0.0414 -1.10397,0.0198 -0.556851,0.0612 -1.631847,0.16922 -2.388879,0.24 -0.757032,0.0708 -1.941949,0.15821 -2.633153,0.1943 -0.691203,0.0361 -2.071213,0.14477 -3.066688,0.24153 -0.995475,0.0968 -2.341973,0.30558 -2.992219,0.46406 -0.650246,0.15847 -1.424635,0.37399 -1.720868,0.47892 -0.296229,0.10493 -0.931298,0.38954 -1.411268,0.63247 -0.639526,0.32368 -1.1271321,0.70238 -1.8251167,1.41747 -0.6636091,0.67988 -1.0460132,1.18897 -1.2609826,1.67877 -0.1696965,0.38663 -0.5288987,1.16078 -0.7982291,1.72033 -0.2693304,0.55955 -0.5628172,1.16547 -0.6521868,1.3465 -0.08937,0.18103 -0.1156115,0.32915 -0.05831,0.32915 z m 2.6181657,-2.75285 c -0.095382,0 -0.2406141,-0.081 -0.3227323,-0.1799 -0.082114,-0.0989 -0.1493038,-0.31422 -0.1493038,-0.47839 0,-0.16416 0.06719,-0.37944 0.1493038,-0.47838 0.082118,-0.099 0.2707689,-0.1799 0.4192177,-0.1799 0.1484534,0 0.3363803,0.0801 0.4176209,0.17797 0.087764,0.10575 0.1155979,0.30593 0.068592,0.49322 -0.043518,0.17338 -0.1534023,0.38952 -0.2441924,0.48031 -0.090795,0.0908 -0.2431202,0.16507 -0.3385059,0.16507 z m -0.00317,-0.37956 c 0.1217636,-0.0232 0.2367961,-0.16567 0.2588173,-0.32052 0.030671,-0.21579 -0.00986,-0.26929 -0.1795309,-0.23693 -0.1217592,0.0232 -0.2367962,0.16568 -0.2588174,0.32052 -0.03067,0.21579 0.00986,0.26929 0.179531,0.23693 z m 0.819246,1.81583 c 0.033792,0 0.1549946,-0.0523 0.2693033,-0.11632 0.1143044,-0.064 0.6844544,-0.33328 1.2669904,-0.59845 0.58254,-0.26516 1.086025,-0.48212 1.118862,-0.48212 0.03284,0 0.552621,-0.23651 1.155079,-0.52558 0.602463,-0.28906 1.633986,-0.7527 2.292271,-1.03029 0.658289,-0.2776 1.923999,-0.81627 2.812688,-1.19706 0.888689,-0.38078 1.858171,-0.8013 2.154399,-0.93448 l 0.538602,-0.24215 -0.418914,-0.0102 c -0.230399,-0.006 -0.87672,0.0475 -1.436265,0.11809 -0.559542,0.0706 -1.690601,0.23582 -2.513461,0.3672 -0.822865,0.13138 -1.980853,0.36647 -2.573314,0.52242 -0.592456,0.15596 -1.292639,0.3822 -1.555953,0.50277 -0.263314,0.12056 -0.731578,0.36974 -1.040586,0.55373 -0.345151,0.20552 -0.725972,0.58182 -0.987431,0.97574 -0.234082,0.35265 -0.425605,0.67165 -0.425605,0.70888 0,0.0372 -0.161581,0.33029 -0.3590669,0.65125 -0.1974854,0.32095 -0.3590664,0.61799 -0.3590664,0.66008 0,0.0421 0.02764,0.0765 0.061468,0.0765 z m -0.4271568,-4.53314 c 0.3913384,-0.32568 0.8827225,-0.6912 1.0919605,-0.81227 l 0.380436,-0.22012 -0.07337,-1.37642 c -0.04035,-0.75703 -0.158089,-1.78037 -0.261627,-2.27409 -0.103542,-0.49372 -0.3783776,-1.6517 -0.6107496,-2.57331 -0.2323675,-0.9216 -0.4862315,-1.96785 -0.5641427,-2.32499 -0.077911,-0.35715 -0.2002991,-0.6689 -0.2719722,-0.69279 -0.071673,-0.0239 -0.4303233,0.3491 -0.7970031,0.82888 l -0.6666853,0.87233 0.1596947,0.65828 c 0.087836,0.36206 0.2408901,0.95452 0.3401213,1.31658 0.099236,0.36206 0.3442289,1.22382 0.544433,1.91502 0.2001997,0.6912 0.4261073,1.73093 0.5020145,2.3105 0.075903,0.57958 0.1011358,1.25032 0.056071,1.49055 -0.045056,0.24022 -0.185163,0.6391 -0.3113237,0.8864 -0.1261607,0.2473 -0.2293864,0.48067 -0.2293864,0.51861 0,0.038 0.3201856,-0.19749 0.711528,-0.52316 z m 1.9163635,-1.21192 c 0.03945,0 0.190392,-0.0832 0.335475,-0.18477 0.145088,-0.10162 0.870712,-0.33976 1.612514,-0.52921 0.741792,-0.18944 2.291267,-0.45377 3.44327,-0.58739 1.152007,-0.13363 2.794732,-0.30033 3.650512,-0.37044 0.855774,-0.0701 2.30999,-0.1862 3.231598,-0.25796 0.921603,-0.0718 1.994668,-0.16512 2.384595,-0.20747 l 0.70895,-0.077 0.517856,-0.87792 c 0.284824,-0.48287 0.517861,-0.92721 0.517861,-0.98744 0,-0.0602 -0.123876,-0.1095 -0.275284,-0.1095 -0.151407,0 -0.339917,-0.0646 -0.41891,-0.14363 -0.079,-0.079 -0.143626,-0.18671 -0.143626,-0.23938 0,-0.0527 0.296228,-0.0957 0.658285,-0.0957 0.362061,0 0.658289,-0.0455 0.658289,-0.10113 0,-0.0556 0.210183,-0.42633 0.467074,-0.82378 0.25689,-0.39746 0.601019,-0.95788 0.764726,-1.24537 0.163712,-0.28749 0.573634,-0.9977 0.910941,-1.57823 0.337308,-0.58053 0.801079,-1.34908 1.030606,-1.70789 0.229526,-0.35881 0.417318,-0.69943 0.417318,-0.75693 0,-0.0575 0.08243,-0.13619 0.183177,-0.17485 0.118773,-0.0456 0.218525,0.0236 0.283729,0.19664 0.05531,0.14682 0.198937,0.5901 0.319181,0.98508 0.160034,0.52568 0.365246,0.86764 0.765745,1.27603 0.38448,0.39205 0.683409,0.58347 1.005576,0.6439 0.32481,0.0609 0.741689,0.008 1.430051,-0.18026 0.534376,-0.14645 1.269634,-0.41707 1.633902,-0.60138 0.364268,-0.18431 0.91194,-0.55534 1.217048,-0.82451 0.312012,-0.27526 0.643162,-0.71038 0.756815,-0.99443 0.125749,-0.31428 0.174732,-0.65076 0.129686,-0.89088 -0.0408,-0.21755 -0.312459,-0.65288 -0.622729,-0.99798 -0.302689,-0.33666 -0.799189,-0.78138 -1.103338,-0.98827 -0.304149,-0.20688 -0.579926,-0.40664 -0.61284,-0.4439 -0.03293,-0.0373 -0.285592,-0.24279 -0.561506,-0.45673 -0.275912,-0.21394 -0.536843,-0.38899 -0.57984,-0.38899 -0.04302,0 -0.436638,-0.23433 -0.87476,-0.52073 -0.438123,-0.2864 -1.092816,-0.70851 -1.454873,-0.93802 -0.362061,-0.22951 -0.740072,-0.44652 -0.840028,-0.48223 -0.09995,-0.0357 -0.74627,0.005 -1.436266,0.089 -0.689991,0.0847 -1.846988,0.2145 -2.571106,0.2885 -0.724118,0.074 -1.585877,0.15952 -1.915019,0.19005 -0.329147,0.0305 -1.675645,0.13572 -2.992219,0.23376 -1.316578,0.098 -2.582288,0.20212 -2.812688,0.23128 -0.230404,0.0292 -0.957513,0.0839 -1.615802,0.12162 -0.658289,0.0377 -1.735488,0.0988 -2.393773,0.13571 -0.658289,0.0369 -1.6547,0.11727 -2.214247,0.17857 -0.559543,0.0613 -1.056002,0.11189 -1.103242,0.11243 -0.04724,4.5e-4 -0.31654,0.31068 -0.598447,0.6892 -0.281901,0.37851 -0.555144,0.70689 -0.607198,0.72973 -0.05205,0.0228 -0.792629,0.95775 -1.645721,2.07759 -0.8530924,1.11983 -1.5510769,2.09282 -1.5510769,2.16219 0,0.0694 0.081295,0.40018 0.1806483,0.73511 0.099358,0.33493 0.3731125,1.25528 0.6083386,2.04523 0.235231,0.78994 0.564663,2.02872 0.732075,2.75284 0.221221,0.95686 0.306108,1.66812 0.310695,2.60323 0.0036,0.70766 0.03859,1.28666 0.078,1.28666 z m 4.964481,-9.57624 c -0.409198,-9.1e-4 -0.737612,-0.0894 -1.069333,-0.2885 -0.263313,-0.15805 -0.591433,-0.4403 -0.729157,-0.62723 -0.137719,-0.18693 -0.31815,-0.54551 -0.400956,-0.79684 -0.08281,-0.25134 -0.150557,-0.63409 -0.150557,-0.85055 0,-0.21646 0.08422,-0.55643 0.187158,-0.75548 0.102937,-0.19906 0.330174,-0.5319 0.504978,-0.73964 0.174804,-0.20774 0.470272,-0.45655 0.656588,-0.55289 0.186317,-0.0964 0.630152,-0.25108 0.986296,-0.34385 0.479722,-0.12495 0.789386,-0.1384 1.194906,-0.0519 0.30105,0.0642 0.61341,0.19631 0.69413,0.29358 0.127889,0.15409 0.04797,0.16671 -0.621457,0.0981 -0.440638,-0.0452 -0.965153,-0.0243 -1.230059,0.0488 -0.254009,0.0701 -0.639263,0.24909 -0.85611,0.39768 -0.216851,0.14859 -0.533653,0.48512 -0.704005,0.74784 -0.220339,0.33981 -0.309731,0.63837 -0.309731,1.03446 0,0.37946 0.08589,0.68425 0.269705,0.95701 0.148341,0.22011 0.446794,0.50364 0.663234,0.63004 0.229368,0.13396 0.631925,0.23343 0.96503,0.23846 0.410705,0.006 0.735079,-0.0828 1.152863,-0.31631 0.388696,-0.21724 0.621132,-0.28514 0.701391,-0.20488 0.08026,0.0803 0.0483,0.1993 -0.09642,0.35922 -0.119054,0.13155 -0.441787,0.34826 -0.717188,0.48158 -0.297183,0.14387 -0.740792,0.24194 -1.091304,0.24127 z m 10.410955,-0.78891 c -0.162033,0.0489 -0.313671,10e-4 -0.433453,-0.13585 -0.101331,-0.11614 -0.249381,-0.33695 -0.329003,-0.4907 -0.07962,-0.15375 -0.126934,-0.29718 -0.105143,-0.31872 0.0218,-0.0215 0.685938,-0.0573 1.475884,-0.0795 l 1.436266,-0.0404 0.06111,-1.09841 c 0.03361,-0.60412 0.09966,-1.13697 0.146793,-1.1841 0.04713,-0.0471 0.113842,-0.0107 0.148259,0.0811 0.03442,0.0917 0.111146,0.65148 0.170524,1.24394 0.06637,0.66226 0.06478,1.15788 -0.0041,1.28665 -0.0907,0.16951 -0.275316,0.20946 -0.967894,0.20946 -0.671245,0 -0.909109,0.0487 -1.102912,0.22562 -0.1359,0.12409 -0.359239,0.2595 -0.49631,0.30091 z m -25.4083167,9.16357 c 0.041573,0.003 0.2277352,-0.19729 0.4137305,-0.44415 0.1859908,-0.24685 0.6567241,-0.82585 1.046072,-1.28665 0.389348,-0.4608 0.9841385,-1.15955 1.3217582,-1.55278 0.3376198,-0.39323 1.0582,-1.21712 1.601285,-1.83088 0.5430894,-0.61376 0.9874316,-1.16725 0.9874316,-1.22998 0,-0.0627 -0.1211846,-0.11289 -0.2692987,-0.11144 -0.1481141,0.001 -0.4847386,0.10594 -0.7480525,0.23222 -0.2633184,0.12627 -0.6134054,0.35556 -0.7779811,0.50954 -0.1645712,0.15397 -0.6261305,0.65539 -1.0256929,1.11428 -0.3995579,0.45888 -0.80938,0.95666 -0.9107148,1.10618 -0.1013393,0.14951 -0.36739,0.47267 -0.5912303,0.71813 -0.2238404,0.24546 -0.4975587,0.58094 -0.6082575,0.74551 -0.1107033,0.16457 -0.4468212,0.56816 -0.7469352,0.89687 -0.3001094,0.3287 -0.5456543,0.641 -0.5456543,0.69399 0,0.053 0.175048,0.17242 0.3889905,0.26541 0.2139426,0.093 0.4229905,0.17118 0.4645495,0.17375 z m 44.1565967,43.07826 c -0.506633,-0.008 -1.135085,-0.10023 -1.428101,-0.20945 -0.287814,-0.10728 -0.75909,-0.41426 -1.047275,-0.68218 -0.409872,-0.38103 -0.523981,-0.57119 -0.523981,-0.87318 0,-0.25522 0.104461,-0.49052 0.308225,-0.69429 0.285176,-0.28518 0.361324,-0.30222 1.018518,-0.22786 0.390659,0.0442 0.965604,0.16049 1.277653,0.25842 0.312047,0.0979 1.15982,0.20895 1.883937,0.24672 1.107513,0.0577 1.419791,0.0325 1.966567,-0.15924 0.357493,-0.12534 0.665301,-0.2795 0.68402,-0.34256 0.01873,-0.0631 -0.475755,-0.43006 -1.098822,-0.81556 -0.623073,-0.38548 -1.132854,-0.74509 -1.132854,-0.79912 0,-0.054 -0.06733,-0.11564 -0.149612,-0.13693 -0.08228,-0.0213 -0.63117,-0.308 -1.219746,-0.63714 -0.588569,-0.32915 -1.373821,-0.89468 -1.744996,-1.25673 -0.532111,-0.51904 -0.706331,-0.78436 -0.823603,-1.25426 -0.08404,-0.33676 -0.135303,-1.13619 -0.117859,-1.83802 l 0.0309,-1.24205 -0.701152,-0.3974 c -0.385638,-0.21857 -0.935952,-0.65679 -1.22292,-0.97384 -0.286973,-0.31704 -0.654711,-0.84322 -0.817197,-1.16929 -0.1925,-0.3863 -0.295432,-0.79591 -0.295432,-1.17566 0,-0.32055 0.05906,-0.69317 0.131245,-0.82805 0.10637,-0.19875 0.06946,-0.35874 -0.194775,-0.84423 -0.285449,-0.52446 -0.317982,-0.69031 -0.261473,-1.33277 0.03827,-0.43491 0.191071,-0.99022 0.375189,-1.36338 l 0.31064,-0.62961 -0.315603,-0.47691 c -0.27788,-0.41991 -0.305805,-0.55074 -0.233652,-1.09468 0.04506,-0.33977 0.154257,-0.75759 0.242627,-0.92848 0.08837,-0.17089 0.273909,-0.41318 0.412306,-0.53843 0.138397,-0.12525 0.251629,-0.29338 0.251629,-0.37363 0,-0.0802 -0.147137,-0.40853 -0.326971,-0.72951 -0.255701,-0.45638 -0.325067,-0.73361 -0.318227,-1.27181 l 0.0087,-0.6882 h -0.584762 c -0.321619,0 -0.945922,-0.0898 -1.387337,-0.19955 -0.44142,-0.10975 -0.92207,-0.2848 -1.068116,-0.38899 -0.16862,-0.1203 -0.266911,-0.31763 -0.269299,-0.54066 -0.0023,-0.19316 0.07969,-0.6779 0.181684,-1.0772 0.101995,-0.39929 0.232042,-0.88756 0.288995,-1.08505 0.05696,-0.19749 0.408818,-1.40933 0.781912,-2.693 0.373099,-1.28366 0.884197,-2.97845 1.135772,-3.7662 l 0.457411,-1.43226 -0.480975,-0.90167 c -0.26454,-0.49591 -1.013406,-1.93453 -1.66415,-3.19694 -0.650744,-1.26239 -1.183173,-2.40243 -1.183173,-2.53341 0,-0.13097 0.06733,-0.26228 0.149613,-0.29179 0.08229,-0.0295 0.239791,-0.007 0.350015,0.0492 0.110224,0.0566 0.392777,0.41956 0.62789,0.8066 0.235118,0.38704 0.508488,0.77094 0.607493,0.85311 0.144246,0.11971 0.180011,0.11902 0.180011,-0.004 0,-0.0841 -0.193084,-0.75015 -0.429071,-1.48014 -0.235991,-0.72999 -0.437968,-1.54301 -0.448834,-1.80671 -0.01466,-0.35517 0.02678,-0.47945 0.159772,-0.47945 0.09874,0 0.368046,0.28282 0.598445,0.6285 0.2304,0.34567 0.577316,1.00546 0.770924,1.46618 0.193609,0.46074 0.401861,0.83769 0.462786,0.83769 0.06092,0 0.08208,-0.12118 0.04701,-0.2693 -0.03506,-0.14811 -0.176003,-0.79964 -0.313179,-1.44783 -0.137175,-0.6482 -0.249408,-1.41253 -0.249408,-1.69851 0,-0.28598 0.05622,-0.55471 0.12493,-0.59717 0.06871,-0.0425 0.206031,-0.01 0.305149,0.0724 0.09912,0.0823 0.278853,0.36966 0.399404,0.63867 0.120556,0.26901 0.259134,0.62376 0.307949,0.78833 0.04882,0.16457 0.125912,0.35308 0.17133,0.41891 0.04541,0.0658 0.209763,0.53672 0.365219,1.04642 0.155456,0.5097 0.309441,0.89994 0.342197,0.86719 0.03275,-0.0328 0.06378,-1.12434 0.06896,-2.42576 l 0.0094,-2.3662 0.446188,-0.60796 c 0.2454,-0.33439 0.649351,-0.78438 0.897664,-0.99998 0.248314,-0.2156 0.723557,-0.56838 1.056097,-0.78395 0.332539,-0.21558 0.925,-0.52577 1.316578,-0.68932 0.391578,-0.16356 0.98451,-0.33397 1.317633,-0.37869 0.442971,-0.0595 0.7409,-0.0272 1.109078,0.1201 0.282765,0.11314 0.717648,0.44456 0.992226,0.75616 0.268856,0.30511 0.564844,0.70142 0.657751,0.88069 0.09291,0.17927 0.297839,0.69094 0.455398,1.13705 0.15756,0.4461 0.373868,1.12079 0.480681,1.4993 l 0.194211,0.68822 h 0.482404 c 0.265322,0 0.869744,0.0567 1.343155,0.12603 0.473411,0.0693 1.156979,0.20984 1.51904,0.31228 0.362057,0.10245 1.008376,0.29639 1.436266,0.43098 0.427885,0.1346 1.316574,0.49903 1.974863,0.80984 0.65829,0.31081 1.520049,0.80771 1.91502,1.10422 0.394975,0.2965 1.01048,0.81353 1.367791,1.14895 0.49589,0.46549 0.686748,0.57906 0.806345,0.4798 0.08618,-0.0715 0.29008,-0.0966 0.453118,-0.0556 0.18248,0.0458 0.417824,0.28155 0.612238,0.61329 0.173691,0.29639 0.285059,0.61901 0.247481,0.71694 -0.03759,0.0979 -0.166964,0.17806 -0.287524,0.17806 -0.120556,0 -0.291755,-0.0673 -0.380437,-0.14961 -0.130625,-0.12121 -0.14782,-0.11552 -0.09055,0.0299 0.03886,0.0987 0.207723,0.50921 0.375203,0.91214 0.167475,0.40294 0.393111,1.07619 0.501404,1.49612 0.155759,0.60397 0.182358,1.09082 0.127305,2.33013 l -0.06959,1.56663 0.412988,0.19694 c 0.259899,0.12394 0.867681,0.22048 1.639587,0.26044 0.674624,0.0349 1.522822,0.0897 1.884883,0.12175 0.362057,0.032 1.319383,-0.0203 2.127397,-0.11624 0.808005,-0.096 1.519285,-0.20552 1.580616,-0.24343 0.06133,-0.0379 0.202462,0.0699 0.313622,0.23954 0.172592,0.26341 0.181214,0.37821 0.05903,0.78603 -0.07869,0.26267 -0.369254,0.71252 -0.645687,0.99968 -0.362115,0.37617 -0.684318,0.57572 -1.152694,0.7139 -0.357551,0.10548 -1.057729,0.19047 -1.555954,0.18886 -0.498227,-0.002 -1.146501,-0.0584 -1.440618,-0.12615 -0.294111,-0.0678 -0.992869,-0.34922 -1.552791,-0.62544 -0.559922,-0.27622 -1.113719,-0.55539 -1.23066,-0.62037 -0.116942,-0.065 -0.212622,-0.15923 -0.212622,-0.20946 0,-0.0502 -0.10162,-0.0913 -0.225822,-0.0913 -0.183145,0 -0.253633,0.14738 -0.372967,0.77981 -0.08611,0.45636 -0.224347,0.82301 -0.333291,0.88398 -0.152054,0.0851 -0.117805,0.13952 0.186986,0.29713 0.205221,0.10613 0.501259,0.31426 0.657855,0.46252 0.156601,0.14826 0.559017,0.62122 0.894267,1.05102 0.335249,0.42981 0.937133,1.33635 1.337523,2.01454 0.40039,0.67819 0.727981,1.30585 0.727981,1.39479 0,0.0889 -0.09754,0.19268 -0.216756,0.23052 -0.119217,0.0378 -0.398586,0.25639 -0.620825,0.48568 l -0.404068,0.41689 0.449676,0.86087 c 0.247323,0.47347 0.574221,1.07991 0.726443,1.34763 0.152221,0.26772 0.533006,0.91765 0.84618,1.44428 0.313178,0.52663 0.706417,1.16318 0.873865,1.41456 0.196151,0.29447 0.37114,0.43656 0.491936,0.39945 0.103112,-0.0317 0.494487,-0.16955 0.869707,-0.30638 0.53387,-0.19469 0.989712,-0.25197 2.096211,-0.26339 1.115985,-0.0115 1.57759,0.0366 2.190303,0.22825 0.426981,0.13356 0.938156,0.31469 1.135953,0.40252 0.197793,0.0878 0.667649,0.36597 1.044122,0.61808 0.376474,0.25211 0.895041,0.70992 1.152379,1.01735 0.257333,0.30744 0.614957,0.90851 0.794719,1.33572 0.281046,0.6679 0.316376,0.87887 0.252158,1.50567 -0.04108,0.40092 -0.155108,1.03773 -0.253407,1.41513 -0.0983,0.37739 -0.28434,0.918 -0.413418,1.20135 -0.129074,0.28334 -0.532839,0.78766 -0.897253,1.12072 -0.364409,0.33305 -0.945316,0.74277 -1.290902,0.91049 -0.345586,0.16772 -0.971558,0.39192 -1.391047,0.49822 -0.558108,0.14142 -0.988644,0.17058 -1.604909,0.10869 -0.463205,-0.0465 -1.015121,-0.15683 -1.226471,-0.24514 -0.211351,-0.0883 -0.634133,-0.35128 -0.939517,-0.58438 -0.30538,-0.23311 -0.608633,-0.42383 -0.673891,-0.42383 -0.06526,0 -0.118656,0.14078 -0.118656,0.31285 0,0.17207 -0.119131,0.52482 -0.264739,0.78389 -0.145608,0.25907 -0.429184,0.57268 -0.63017,0.69689 -0.274633,0.16974 -0.494492,0.20854 -0.884899,0.15617 -0.286583,-0.0385 -0.767282,-0.23625 -1.072214,-0.44121 -0.304004,-0.20435 -0.67547,-0.55472 -0.825475,-0.77861 -0.150009,-0.22388 -0.332779,-0.62783 -0.406153,-0.89767 -0.08208,-0.30183 -0.108695,-1.02018 -0.06917,-1.86702 0.03936,-0.84324 0.15471,-1.67778 0.297798,-2.15439 0.128459,-0.42789 0.391994,-1.10114 0.585644,-1.49611 0.19364,-0.39498 0.428622,-0.83877 0.522176,-0.98621 0.157184,-0.24772 0.141302,-0.29436 -0.209297,-0.61459 -0.208663,-0.19058 -1.007177,-0.90478 -1.774469,-1.5871 -0.767296,-0.68233 -1.580743,-1.3956 -1.807659,-1.58506 -0.226917,-0.18945 -0.43591,-0.32112 -0.464437,-0.2926 -0.02854,0.0285 0.104733,0.80292 0.296129,1.72088 0.191397,0.91797 0.485051,2.1807 0.652562,2.80607 0.175202,0.65408 0.31421,1.52048 0.327261,2.03975 0.02122,0.84461 -0.0058,0.95136 -0.420457,1.65881 -0.243727,0.41586 -0.66489,1.0191 -0.935916,1.34052 l -0.492773,0.5844 0.583694,0.50962 c 0.321036,0.2803 0.768803,0.69814 0.99504,0.92855 0.226238,0.2304 0.51004,0.58049 0.630677,0.77797 0.120633,0.19749 0.219539,0.57398 0.219783,0.83666 3.62e-4,0.43458 -0.07231,0.54641 -0.807453,1.24173 -0.444342,0.42027 -0.942548,0.85096 -1.107119,0.95709 -0.164571,0.10612 -0.733798,0.51682 -1.264945,0.91267 -0.531147,0.39584 -1.115493,0.82743 -1.298552,0.9591 -0.183055,0.13165 -0.677565,0.49701 -1.098909,0.8119 -0.421344,0.3149 -0.766084,0.62593 -0.766084,0.69118 0,0.0653 0.138158,0.17116 0.307018,0.23536 0.168855,0.0642 0.737272,0.11673 1.26314,0.11673 0.525872,0 1.785398,-0.13384 2.798954,-0.29742 1.050822,-0.16959 2.01255,-0.26484 2.237752,-0.22161 0.217213,0.0417 0.543049,0.1792 0.724077,0.30557 0.208922,0.14583 0.329147,0.33825 0.329147,0.52678 0,0.16335 -0.08135,0.45432 -0.180775,0.64659 -0.09942,0.19226 -0.298915,0.4128 -0.443311,0.49008 -0.144395,0.0773 -0.534322,0.21288 -0.866504,0.30135 -0.332183,0.0885 -1.196426,0.16068 -1.920544,0.16049 -0.76056,-2.4e-4 -1.643793,-0.0775 -2.091388,-0.18296 -0.426148,-0.10044 -1.279607,-0.40401 -1.896577,-0.67459 l -1.121766,-0.49197 -0.79642,0.25918 c -0.438032,0.14255 -0.890675,0.2584 -1.005875,0.25744 -0.150299,-0.001 -0.209459,-0.0985 -0.209459,-0.34434 0,-0.19422 0.152741,-0.54412 0.352661,-0.8079 0.193966,-0.25591 0.584449,-0.74807 0.867744,-1.0937 0.283295,-0.34561 1.026172,-1.09651 1.650828,-1.66865 0.62466,-0.57214 1.311377,-1.25047 1.526034,-1.5074 0.214657,-0.25692 0.390289,-0.5045 0.390289,-0.55016 0,-0.0457 -0.228907,-0.27394 -0.508678,-0.50729 -0.279771,-0.23335 -0.85877,-0.64457 -1.286655,-0.91381 -0.427889,-0.26925 -1.074209,-0.60718 -1.436266,-0.75096 -0.362061,-0.14378 -1.080795,-0.39559 -1.597191,-0.55959 -0.516395,-0.164 -1.054992,-0.27095 -1.196886,-0.23768 -0.141894,0.0333 -0.68887,0.14905 -1.215497,0.25729 -0.526633,0.10823 -1.247534,0.22462 -1.602005,0.25865 -0.510184,0.049 -0.772077,0.15915 -1.25673,0.52868 -0.336733,0.25674 -0.870576,0.69833 -1.186319,0.9813 l -0.574082,0.5145 0.189447,0.4534 c 0.114377,0.27374 0.816125,1.08171 1.770968,2.03901 0.869834,0.87209 1.924438,1.879 2.343565,2.23759 0.419128,0.35858 0.887721,0.83557 1.041318,1.05997 0.211884,0.30956 0.25081,0.46117 0.161328,0.62837 -0.06486,0.1212 -0.210297,0.21869 -0.32318,0.21663 -0.112884,-0.002 -0.420684,-0.13643 -0.684002,-0.29861 -0.263314,-0.16218 -0.619336,-0.29515 -0.791159,-0.29548 -0.171827,-3.6e-4 -0.764283,0.20785 -1.316578,0.46264 -0.552296,0.25479 -1.458772,0.57795 -2.014392,0.71813 -0.638235,0.16103 -1.343385,0.24958 -1.915019,0.24048 z m 2.296872,-5.15015 c 0.115204,0.01 0.209459,-0.0162 0.209459,-0.0578 0,-0.0417 -0.10398,-0.16591 -0.231064,-0.27613 -0.127084,-0.11022 -0.450242,-0.46564 -0.718133,-0.78982 -0.267888,-0.32418 -0.487069,-0.68982 -0.487069,-0.81252 0,-0.1227 0.11596,-0.39299 0.257691,-0.60064 0.141736,-0.20765 0.529062,-0.65897 0.860733,-1.00294 0.331671,-0.34398 0.579262,-0.64691 0.550205,-0.67318 -0.02904,-0.0263 -0.405457,-0.0809 -0.836444,-0.12134 -0.430988,-0.0404 -1.195353,-0.17887 -1.698594,-0.30757 -0.503235,-0.12871 -1.077019,-0.31781 -1.275073,-0.42023 -0.198051,-0.10242 -0.421684,-0.18621 -0.496953,-0.18621 -0.09851,0 -0.115621,0.327 -0.06107,1.16696 0.04166,0.64183 0.132489,1.3797 0.201801,1.6397 0.07487,0.28085 0.303724,0.63768 0.563808,0.87909 0.240782,0.22351 0.707086,0.57681 1.036229,0.78514 0.329142,0.20832 0.733093,0.44369 0.897668,0.52302 0.164572,0.0794 0.4608,0.16502 0.658285,0.1904 0.19749,0.0254 0.453322,0.0542 0.568522,0.0641 z m 11.285973,-0.1217 c 0.441592,0 0.644832,-0.0915 1.292956,-0.58215 0.42295,-0.32019 1.098864,-0.88754 1.502027,-1.26081 0.403163,-0.37325 0.765631,-0.80855 0.80548,-0.96733 0.05085,-0.20261 -0.02393,-0.42772 -0.250765,-0.75507 -0.177767,-0.25652 -0.749532,-0.87611 -1.270586,-1.37685 -0.52105,-0.50076 -0.94737,-0.98009 -0.94737,-1.0652 0,-0.0851 0.135683,-0.2822 0.301516,-0.43799 0.165838,-0.1558 0.468996,-0.54426 0.673688,-0.86324 0.204692,-0.31899 0.350942,-0.6012 0.324999,-0.62715 -0.02592,-0.026 -0.423357,-2.4e-4 -0.883143,0.0572 -0.459782,0.0574 -0.871644,0.0672 -0.915243,0.0218 -0.04361,-0.0454 -0.09746,-0.29749 -0.119687,-0.56022 -0.04013,-0.47429 -0.037,-0.47822 0.438339,-0.55007 0.263314,-0.0398 0.828845,-0.14436 1.25673,-0.23236 0.42789,-0.088 0.817043,-0.19191 0.864786,-0.23093 0.04774,-0.039 0.03728,-0.33888 -0.0233,-0.66636 -0.06056,-0.32748 -0.214838,-1.05323 -0.34284,-1.61278 -0.128002,-0.55954 -0.322316,-1.4213 -0.431812,-1.91502 -0.109495,-0.49371 -0.274957,-1.32813 -0.367693,-1.85426 l -0.168615,-0.9566 0.384354,-0.40295 c 0.211391,-0.22162 0.94988,-0.96143 1.641084,-1.64401 0.691204,-0.68258 1.440197,-1.39704 1.664435,-1.58768 l 0.40771,-0.34663 -0.629935,-1.18203 c -0.346464,-0.65012 -0.861316,-1.50519 -1.144114,-1.90016 -0.282797,-0.39498 -0.706208,-0.90208 -0.94091,-1.1269 -0.360179,-0.345 -0.505792,-0.40566 -0.933618,-0.38889 -0.278785,0.0109 -0.832573,0.17295 -1.230638,0.36008 -0.408786,0.19216 -0.972291,0.59579 -1.294869,0.92749 -0.319485,0.32853 -0.620024,0.77186 -0.682116,1.0062 -0.06105,0.23039 -0.169108,1.98084 -0.240143,3.88988 -0.07104,1.90904 -0.208288,4.46687 -0.305013,5.68406 -0.09673,1.2172 -0.201146,2.45597 -0.232042,2.75284 -0.0309,0.29687 -0.08747,0.82789 -0.1257,1.18005 l -0.06952,0.64028 0.753761,-0.0418 0.753757,-0.0418 0.03759,0.52493 c 0.02067,0.28872 -0.0062,0.56874 -0.05985,0.62227 -0.05359,0.0535 -0.420601,0.12429 -0.815572,0.15724 -0.394976,0.033 -0.814714,0.0626 -0.932754,0.0659 -0.118046,0.003 -0.460678,0.27314 -0.761407,0.59961 -0.300729,0.32647 -0.89086,0.82144 -1.311408,1.09994 -0.420548,0.27851 -0.764632,0.51924 -0.764632,0.53498 0,0.0157 0.308062,0.11816 0.684586,0.22761 0.376523,0.10946 1.229747,0.46001 1.896056,0.779 0.66631,0.31899 1.475844,0.7769 1.798961,1.01759 0.323116,0.2407 0.68174,0.54626 0.796939,0.67903 0.1152,0.13277 0.209456,0.41911 0.209456,0.63631 0,0.27897 -0.13842,0.57002 -0.471503,0.9914 -0.259328,0.32807 -0.443347,0.62465 -0.408935,0.65906 0.03442,0.0344 0.29834,0.0626 0.586516,0.0626 z m 7.95334,-3.88949 c 0.1642,-0.0327 0.362251,-0.11241 0.440103,-0.17702 0.07786,-0.0646 0.226274,-0.36611 0.329817,-0.66999 0.103543,-0.30388 0.188257,-0.81221 0.188257,-1.12963 0,-0.31742 0.03646,-0.57712 0.08101,-0.57712 0.04456,0 0.274687,0.19252 0.511406,0.42783 0.236715,0.2353 0.779257,0.61747 1.205649,0.84925 0.485851,0.2641 1.008358,0.44559 1.399706,0.48617 0.34345,0.0356 0.957385,-9e-4 1.364298,-0.0808 0.406914,-0.08 1.082126,-0.30232 1.500471,-0.49393 0.514423,-0.23561 1.008774,-0.59897 1.527241,-1.12258 0.445406,-0.44981 0.827683,-0.95923 0.912362,-1.21582 0.09275,-0.28102 0.125464,-0.8629 0.08997,-1.60007 -0.04352,-0.90409 -0.119248,-1.2878 -0.344835,-1.74764 -0.200484,-0.40866 -0.362228,-0.59023 -0.527885,-0.59255 -0.174754,-0.002 -0.231182,-0.0747 -0.210324,-0.2693 0.01828,-0.17064 -0.03669,-0.26595 -0.153366,-0.26595 -0.100032,0 -0.212151,-0.0789 -0.249155,-0.17532 -0.037,-0.0964 -0.353615,-0.36538 -0.70358,-0.59767 -0.415549,-0.27583 -0.982623,-0.50538 -1.634534,-0.66166 -0.636087,-0.1525 -1.410729,-0.23928 -2.135272,-0.23924 -0.772834,6e-5 -1.375423,0.0726 -1.88126,0.22641 -0.409315,0.12448 -0.920988,0.33599 -1.137043,0.47001 -0.216055,0.13403 -0.610804,0.47611 -0.877222,0.76019 -0.266417,0.28408 -0.603525,0.68708 -0.749129,0.89555 -0.145599,0.20848 -0.348137,0.77401 -0.450082,1.25673 -0.101946,0.48273 -0.232694,0.96574 -0.290551,1.07336 -0.05786,0.10761 -0.07476,0.31205 -0.03755,0.4543 0.04415,0.16876 -0.0063,0.31271 -0.145115,0.41421 -0.188682,0.13797 -0.205497,0.3032 -0.148657,1.46072 0.03954,0.80469 0.140017,1.48872 0.262106,1.7839 0.108912,0.26332 0.338263,0.58141 0.509674,0.70687 0.171406,0.12547 0.478894,0.26911 0.6833,0.31922 0.204416,0.0501 0.506009,0.0643 0.670214,0.0316 z m -0.597776,-0.75843 c -0.05806,0 -0.141067,-0.0574 -0.184458,-0.12765 -0.04338,-0.0702 -0.04889,-0.15765 -0.01221,-0.19432 0.03669,-0.0367 0.153194,-0.0335 0.258948,0.007 0.105754,0.0406 0.158758,0.12803 0.117787,0.19432 -0.04098,0.0663 -0.121998,0.12053 -0.180055,0.12053 z m 0.454815,-0.11969 c -0.05266,0 -0.09575,-0.10772 -0.09575,-0.23937 0,-0.15959 0.07979,-0.23938 0.239375,-0.23938 0.13166,0 0.239379,0.0431 0.239379,0.0958 0,0.0527 -0.06463,0.16038 -0.143627,0.23938 -0.07899,0.079 -0.186714,0.14362 -0.239379,0.14362 z m -0.954404,-0.35641 c -0.03302,0.099 -0.09788,0.0829 -0.210052,-0.0523 -0.08926,-0.10755 -0.12679,-0.23105 -0.0834,-0.27444 0.04338,-0.0434 0.137918,-0.0199 0.210057,0.0523 0.07213,0.0721 0.109663,0.19564 0.08339,0.27445 z m 6.254622,0.1152 c -0.03841,-9e-4 -0.144041,-0.0488 -0.234759,-0.1063 -0.09072,-0.0575 -0.127939,-0.16436 -0.0827,-0.23755 0.04524,-0.0732 0.154089,-0.13307 0.241904,-0.13307 0.08782,0 0.188646,0.0755 0.224066,0.16783 0.03542,0.0923 0.03221,0.20003 -0.0071,0.23938 -0.03936,0.0394 -0.102964,0.0707 -0.141365,0.0697 z m -0.857765,-0.11785 c -0.146259,0 -0.228757,-0.0619 -0.199539,-0.14961 0.02741,-0.0823 0.139606,-0.16703 0.249354,-0.18831 0.118104,-0.0229 0.199535,0.0381 0.199535,0.14961 0,0.11103 -0.102335,0.18831 -0.24935,0.18831 z m 1.518969,0 c -0.08389,0 -0.187963,-0.0354 -0.231278,-0.0788 -0.04334,-0.0433 -0.01823,-0.1517 0.05578,-0.24085 0.101628,-0.12246 0.174555,-0.12888 0.298182,-0.0263 0.128508,0.10665 0.163603,0.0877 0.163422,-0.0883 -1.17e-4,-0.13258 -0.232331,-0.38358 -0.568521,-0.61458 -0.312559,-0.21475 -0.756802,-0.55497 -0.987201,-0.75603 -0.2304,-0.20107 -0.62785,-0.56164 -0.883225,-0.80127 -0.262662,-0.24647 -0.402729,-0.45621 -0.322515,-0.48295 0.07799,-0.026 0.448509,0.2161 0.823381,0.53799 0.374867,0.3219 1.044425,0.84126 1.487903,1.15415 0.443479,0.31289 0.860891,0.67085 0.927588,0.79548 0.0667,0.12462 0.121266,0.25706 0.121266,0.2943 0,0.0372 -0.131471,0.0677 -0.292156,0.0677 -0.16069,0 -0.325447,0.0539 -0.366133,0.11969 -0.04067,0.0658 -0.142604,0.11969 -0.226491,0.11969 z m -2.167282,-0.11969 c -0.09875,0 -0.179536,-0.0808 -0.179536,-0.17953 0,-0.0987 0.08079,-0.17954 0.179536,-0.17954 0.09874,0 0.17953,0.0808 0.17953,0.17954 0,0.0987 -0.08079,0.17953 -0.17953,0.17953 z m -3.284381,-0.11969 c -0.06194,0 -0.14801,-0.0573 -0.191256,-0.12723 -0.04325,-0.07 0.0076,-0.22246 0.112884,-0.33886 0.105338,-0.11639 0.157816,-0.24533 0.116629,-0.28651 -0.04121,-0.0412 -0.03954,-0.16702 0.0036,-0.27961 0.05713,-0.14888 0.114462,-0.1688 0.210215,-0.073 0.07651,0.0765 0.09224,0.22276 0.03755,0.34916 -0.05175,0.11962 -0.104555,0.27136 -0.117348,0.33719 -0.0128,0.0658 -0.03149,0.18701 -0.04148,0.2693 -0.01004,0.0823 -0.06891,0.14961 -0.130857,0.14961 z m 2.626091,-0.11969 c -0.05806,0 -0.139084,-0.0542 -0.180055,-0.12053 -0.04099,-0.0663 0.01203,-0.15374 0.117787,-0.19433 0.105754,-0.0406 0.22228,-0.0438 0.258949,-0.007 0.03664,0.0367 0.03117,0.12411 -0.01221,0.19432 -0.04338,0.0702 -0.126396,0.12766 -0.184453,0.12766 z m 4.01333,-0.11969 c -0.10081,0 -0.18329,-0.075 -0.18329,-0.16672 0,-0.0917 0.0885,-0.20069 0.196665,-0.2422 0.108166,-0.0415 0.222538,-0.0496 0.254164,-0.018 0.03162,0.0316 0.0256,0.14061 -0.01339,0.2422 -0.03899,0.10158 -0.153353,0.18469 -0.254164,0.18469 z m -4.433244,-0.25932 c -0.06528,0.0603 -0.186014,0.085 -0.268299,0.0548 -0.08229,-0.0302 -0.149611,-0.13116 -0.149611,-0.22442 0,-0.0932 0.0404,-0.16873 0.08977,-0.16772 0.04937,9.1e-4 0.170109,0.0526 0.268299,0.1147 0.116064,0.0734 0.137004,0.15127 0.05984,0.22259 z m -4.115457,0.0199 c -0.05879,0 -0.140844,-0.0885 -0.182349,-0.19667 -0.04153,-0.10816 -0.05086,-0.22127 -0.02076,-0.25136 0.03008,-0.0301 0.112147,-0.0192 0.182354,0.0242 0.07021,0.0434 0.127649,0.15651 0.127649,0.25136 0,0.0949 -0.0481,0.17247 -0.106881,0.17247 z m 9.331191,-0.18465 c -0.06128,0.0379 -0.145246,0.0141 -0.186597,-0.0528 -0.04135,-0.0669 -0.04189,-0.1755 -0.0014,-0.24133 0.04067,-0.0658 0.124654,-0.11969 0.186597,-0.11969 0.06194,0 0.112626,0.0776 0.112626,0.17247 0,0.0949 -0.05014,0.20346 -0.111418,0.24133 z m -5.992712,-0.17442 c -0.06583,0 -0.119687,-0.084 -0.119687,-0.18659 0,-0.10263 0.05386,-0.15332 0.119687,-0.11263 0.06583,0.0407 0.119692,0.12465 0.119692,0.1866 0,0.0619 -0.05386,0.11262 -0.119692,0.11262 z m 6.479894,-0.30954 c -0.05665,0.035 -0.137439,0.0292 -0.179535,-0.0129 -0.04207,-0.0421 -0.07654,-0.14835 -0.07654,-0.23613 0,-0.0878 0.08079,-0.15958 0.179531,-0.15958 0.09874,0 0.179536,0.0776 0.179536,0.17247 0,0.0949 -0.04635,0.20111 -0.102996,0.23612 z m -9.976331,-0.15267 c -0.04053,0.12163 -0.06873,0.12154 -0.144142,-4.5e-4 -0.05156,-0.0834 -0.06142,-0.184 -0.02189,-0.22351 0.03949,-0.0395 0.10437,-0.0393 0.144142,4.6e-4 0.03976,0.0398 0.04963,0.14035 0.02189,0.22351 z m 3.156072,0.0318 c -0.06702,0.0414 -0.157895,0.017 -0.201946,-0.0543 -0.04406,-0.0713 -0.04688,-0.16282 -0.0063,-0.20343 0.04062,-0.0406 0.13148,-0.0161 0.20195,0.0543 0.08595,0.086 0.08802,0.1529 0.0063,0.20343 z m -0.716962,-0.0483 c -0.06899,0 -0.149127,-0.0404 -0.178088,-0.0898 -0.02895,-0.0494 -0.02569,-0.26715 0.0073,-0.48395 0.03338,-0.21945 0.119896,-0.37446 0.195201,-0.3497 0.0744,0.0245 0.152475,0.16146 0.17351,0.30442 0.02104,0.14296 -0.01764,0.25992 -0.08601,0.25992 -0.06834,0 -0.09326,0.0808 -0.05536,0.17954 0.03791,0.0987 0.01244,0.17953 -0.05654,0.17953 z m 7.827812,-0.35907 c -0.09431,0 -0.201959,-0.0961 -0.239225,-0.21347 -0.03727,-0.11742 -0.24255,-0.31674 -0.456194,-0.44294 -0.213644,-0.12621 -0.846569,-0.57871 -1.406501,-1.00558 -0.559926,-0.42685 -1.041394,-0.79396 -1.06992,-0.81579 -0.02854,-0.0218 0.0027,-0.0944 0.06985,-0.16139 0.0825,-0.0825 0.629487,0.25126 1.697585,1.03583 1.042874,0.76603 1.575872,1.23293 1.575872,1.38044 0,0.1226 -0.07716,0.2229 -0.17147,0.2229 z m -10.36115,-0.35906 c -0.06583,0 -0.119687,-0.1109 -0.119687,-0.24645 0,-0.13554 0.05386,-0.21315 0.119687,-0.17246 0.06583,0.0407 0.119692,0.15158 0.119692,0.24644 0,0.0949 -0.05386,0.17247 -0.119692,0.17247 z m 10.842496,-0.36791 c -0.115449,0.0958 -0.193419,0.10045 -0.246441,0.0147 -0.04266,-0.069 -0.04429,-0.17936 -0.0036,-0.24519 0.04067,-0.0658 0.151584,-0.11969 0.246441,-0.11969 0.09486,0 0.17247,0.0473 0.17247,0.10504 0,0.0578 -0.07599,0.1681 -0.168878,0.24519 z m 0.174868,-0.5896 c -0.04718,0 -0.119792,-0.034 -0.161365,-0.0756 -0.04157,-0.0416 -0.0209,-0.17773 0.0459,-0.30258 0.06682,-0.12485 0.167585,-0.1985 0.223931,-0.16367 0.05635,0.0348 0.07429,0.17098 0.0399,0.30257 -0.03443,0.13159 -0.101172,0.23926 -0.14835,0.23926 z m 0.130394,-0.90798 c -0.05665,0.035 -0.137438,0.0292 -0.179536,-0.0129 -0.04211,-0.0421 -0.07654,-0.12142 -0.07654,-0.17628 0,-0.0548 0.08079,-0.0997 0.17953,-0.0997 0.09874,0 0.179536,0.0507 0.179536,0.11263 0,0.0619 -0.04635,0.14127 -0.102995,0.17628 z m -6.454457,-0.41939 c -0.244391,-0.006 -0.627786,-0.0635 -0.851988,-0.12795 -0.224207,-0.0644 -0.682016,-0.29498 -1.017356,-0.51232 -0.33534,-0.21735 -0.761022,-0.55654 -0.945959,-0.75376 l -0.336244,-0.35859 0.51578,-0.5352 c 0.283679,-0.29436 0.739557,-0.68233 1.013067,-0.86216 0.389262,-0.25592 0.688263,-0.34066 1.376422,-0.39011 0.86542,-0.0622 0.889775,-0.056 1.561545,0.39736 0.375325,0.25329 0.738878,0.58424 0.807896,0.73545 0.06902,0.15122 0.125491,0.50751 0.125491,0.79176 0,0.33753 -0.08399,0.6236 -0.242102,0.82461 -0.133159,0.16928 -0.539127,0.41892 -0.902156,0.55474 -0.363029,0.13583 -0.860009,0.2421 -1.104396,0.23617 z m 0.196608,-0.5247 c 0.352521,-0.0374 0.756471,-0.12765 0.897664,-0.20055 0.141193,-0.0729 0.350969,-0.21476 0.466169,-0.31524 0.1152,-0.10049 0.209455,-0.32587 0.209455,-0.50083 0,-0.19248 -0.129997,-0.43995 -0.329142,-0.62657 -0.181029,-0.16965 -0.568549,-0.42855 -0.861154,-0.57533 -0.426903,-0.21416 -0.658868,-0.25379 -1.174078,-0.20062 -0.432074,0.0446 -0.831985,0.18814 -1.222762,0.4389 -0.319385,0.20495 -0.608348,0.4447 -0.642149,0.53277 -0.03379,0.0881 0.0826,0.29807 0.258663,0.46664 0.176062,0.16858 0.643276,0.47353 1.038246,0.67768 0.625335,0.3232 0.800962,0.36238 1.359088,0.30315 z m 6.054139,0.25415 c -0.06172,0.018 -0.367245,-0.16707 -0.678958,-0.41142 -0.311712,-0.24436 -0.863777,-0.65474 -1.226811,-0.91197 -0.363033,-0.25723 -0.660058,-0.51306 -0.660058,-0.56852 0,-0.0555 0.06733,-0.0998 0.149612,-0.0984 0.08228,0.001 0.580491,0.32701 1.107119,0.72375 0.526633,0.39673 1.083075,0.773 1.236541,0.83614 0.153465,0.0631 0.257818,0.17843 0.231898,0.2562 -0.02592,0.0778 -0.09763,0.15618 -0.159342,0.17424 z m -0.202792,-0.95484 c -0.04959,0.20909 -0.05605,0.20928 -0.145056,0.004 -0.05124,-0.11804 -0.05957,-0.2482 -0.01855,-0.28925 0.04103,-0.041 0.106325,-0.0429 0.145056,-0.004 0.03872,0.0387 0.04707,0.1689 0.01855,0.28925 z m -26.899242,5.8407 c 0.62537,-0.0263 1.433271,-0.103 1.795332,-0.17042 0.362057,-0.0674 0.981447,-0.19622 1.376418,-0.28622 0.394975,-0.09 1.175942,-0.38039 1.735488,-0.64533 0.559547,-0.26494 1.123567,-0.56349 1.253383,-0.66345 0.156212,-0.12029 0.240945,-0.33761 0.250576,-0.64268 0.008,-0.25351 0.05406,-0.60233 0.102348,-0.77515 l 0.08779,-0.31422 -0.876973,-0.0711 c -0.482336,-0.0391 -1.846449,-0.13182 -3.031371,-0.20603 -1.184917,-0.0742 -2.53142,-0.17604 -2.992219,-0.22631 -0.460804,-0.0503 -0.903558,-0.0668 -0.983903,-0.0368 -0.08034,0.03 -0.282834,0.35327 -0.449984,0.71837 -0.199439,0.43563 -0.313793,0.91606 -0.332675,1.39766 -0.01995,0.5087 0.03931,0.88514 0.193116,1.22701 0.122035,0.27124 0.337475,0.54927 0.478753,0.61785 0.146812,0.0713 0.744045,0.10418 1.393916,0.0768 z m -2.429434,-0.0696 0.383259,0.0132 -0.311016,-0.59947 c -0.292229,-0.56326 -0.303357,-0.64566 -0.184285,-1.36423 0.0697,-0.42061 0.26368,-1.05093 0.431074,-1.4007 0.167394,-0.34977 0.293297,-0.64226 0.279785,-0.64997 -0.01353,-0.008 -1.155622,-0.1101 -2.538029,-0.2275 -1.382403,-0.11741 -2.754125,-0.22089 -3.048263,-0.22996 -0.4758,-0.0147 -0.547075,0.0181 -0.646094,0.29735 -0.07616,0.21476 -0.05939,0.48963 0.05309,0.8706 0.09041,0.30622 0.302172,0.70358 0.47057,0.88304 0.168398,0.17946 0.519815,0.50409 0.780926,0.72141 0.261111,0.21732 0.944575,0.60734 1.518814,0.86672 0.574235,0.25937 1.355206,0.54687 1.735489,0.63889 0.380278,0.092 0.863885,0.17327 1.074675,0.18056 z m 9.230738,-2.50021 c 0.06839,0 0.235734,-0.15643 0.371873,-0.34762 0.13614,-0.19119 0.247527,-0.40663 0.247527,-0.47875 0,-0.0721 -0.05001,-0.13114 -0.111138,-0.13114 -0.06113,0 -0.19578,0.0846 -0.299223,0.18808 -0.103447,0.10345 -0.188085,0.23369 -0.188085,0.28943 0,0.0557 -0.03271,0.18655 -0.07265,0.29068 -0.03994,0.10413 -0.01669,0.18932 0.05169,0.18932 z m -0.315476,-1.3446 c 0.185036,0.0175 0.335648,-0.009 0.334693,-0.0598 -9.05e-4,-0.0504 -0.0844,-0.32902 -0.185421,-0.61913 -0.145707,-0.41843 -0.157908,-0.64766 -0.05901,-1.10881 0.06857,-0.31974 0.205868,-0.77566 0.305109,-1.01318 0.09924,-0.23751 0.180436,-0.47149 0.180436,-0.51995 0,-0.0485 -0.659782,-0.1263 -1.466186,-0.17296 -0.806404,-0.0467 -1.87014,-0.13308 -2.363853,-0.19204 -0.493718,-0.059 -1.635127,-0.13899 -2.536465,-0.17785 l -1.638795,-0.0707 -0.191148,0.29173 c -0.10513,0.16045 -0.250185,0.6092 -0.322342,0.99721 -0.10837,0.58273 -0.09692,0.8234 0.0658,1.38313 0.194481,0.669 0.203479,0.67841 0.704408,0.73664 0.279074,0.0324 1.476893,0.12518 2.66181,0.20608 1.184922,0.0809 2.608928,0.17876 3.164467,0.21745 0.555534,0.0387 1.161462,0.0847 1.346498,0.10219 z m 0.815188,-0.21136 c 0.06332,0 0.14023,-0.12118 0.170909,-0.2693 0.03067,-0.14811 0.07916,-0.74292 0.107722,-1.3218 0.03696,-0.74918 0.01294,-1.03982 -0.08342,-1.00852 -0.07445,0.0242 -0.213268,0.20159 -0.308482,0.39422 -0.09521,0.19263 -0.172954,0.61953 -0.172759,0.94867 2.39e-4,0.32914 0.03872,0.74656 0.08563,0.92759 0.0469,0.18103 0.137076,0.32914 0.200398,0.32914 z m -9.352845,-0.37946 c 0.454511,0.0178 0.510062,-0.007 0.432544,-0.18906 -0.04892,-0.1152 -0.170669,-0.49008 -0.270556,-0.83306 -0.163088,-0.55999 -0.162558,-0.70041 0.0052,-1.37642 0.102755,-0.41405 0.20528,-0.82645 0.227826,-0.91646 0.02687,-0.1073 -0.08263,-0.17278 -0.318064,-0.19019 -0.19749,-0.0146 -1.301619,-0.12214 -2.453622,-0.23899 -1.152007,-0.11684 -2.361085,-0.21977 -2.686849,-0.22872 -0.569091,-0.0156 -0.605629,0.004 -0.93274,0.48829 -0.20466,0.30333 -0.367842,0.73586 -0.40913,1.08447 -0.05349,0.45163 -0.0123,0.69042 0.186226,1.07956 0.140198,0.27481 0.375401,0.57572 0.522665,0.66868 0.147273,0.093 0.806363,0.23683 1.464652,0.31972 0.658289,0.0829 1.762418,0.18695 2.453622,0.23125 0.691199,0.0443 1.491396,0.0897 1.778214,0.10093 z m 19.606847,-3.3117 c 0.272344,-0.22352 0.380582,-0.40758 0.363206,-0.61763 -0.01362,-0.16458 -0.09171,-0.29922 -0.173554,-0.29922 -0.08184,0 -0.337679,0.15748 -0.568522,0.34995 -0.230843,0.19247 -0.419715,0.4187 -0.419715,0.50273 0,0.084 0.09239,0.20448 0.205316,0.26768 0.15504,0.0868 0.300327,0.0369 0.593269,-0.20351 z m -11.241433,0.0846 c 0.477256,0.009 0.86774,-0.005 0.86774,-0.0293 0,-0.0249 -0.08079,-0.23858 -0.179531,-0.47491 -0.09874,-0.23633 -0.179536,-0.68805 -0.179536,-1.00382 0,-0.34695 0.09546,-0.75225 0.241243,-1.02424 0.179707,-0.3353 0.202602,-0.46226 0.08977,-0.49775 -0.08331,-0.0262 -0.717007,-0.0789 -1.40821,-0.11718 -0.691199,-0.0383 -2.010768,-0.0997 -2.932376,-0.13664 -0.921602,-0.0369 -1.864151,-0.11506 -2.09455,-0.17368 -0.230404,-0.0586 -0.68018,-0.11932 -0.999501,-0.13489 -0.491867,-0.024 -0.613863,0.0158 -0.798347,0.26038 -0.130268,0.1727 -0.23362,0.54861 -0.257233,0.93559 -0.02171,0.35579 0.01439,0.86882 0.08021,1.14006 0.115665,0.4766 0.139795,0.49632 0.718133,0.58726 0.329142,0.0517 1.810292,0.21988 3.291442,0.37362 1.481149,0.15375 3.083483,0.28671 3.560744,0.29548 z m 1.359377,-0.46402 c 0.04562,-0.16391 0.08832,-0.71374 0.09488,-1.22185 0.0096,-0.74217 -0.02072,-0.9113 -0.154193,-0.86008 -0.09136,0.0351 -0.23376,0.30532 -0.31643,0.60059 -0.122112,0.43615 -0.120651,0.63115 0.0078,1.03962 0.08695,0.27652 0.186651,0.55608 0.221556,0.62125 0.03488,0.0652 0.100783,-0.0156 0.146404,-0.17953 z m -9.365553,-0.25694 c 0.123673,0.0143 0.137995,-0.06 0.05984,-0.31038 -0.05651,-0.18103 -0.09975,-0.67923 -0.0961,-1.10712 0.0041,-0.48426 0.082,-0.92024 0.206239,-1.1548 0.194667,-0.36752 0.193025,-0.37836 -0.06649,-0.43931 -0.146345,-0.0344 -1.471378,-0.158 -2.944526,-0.27473 l -2.678439,-0.21225 -0.375722,0.41218 c -0.206651,0.2267 -0.449147,0.6363 -0.538883,0.91022 -0.08974,0.27392 -0.130426,0.62401 -0.09042,0.77797 0.03999,0.15397 0.230503,0.44667 0.423338,0.65044 0.346785,0.36645 0.368046,0.37152 1.947708,0.46388 0.878398,0.0514 2.135689,0.13203 2.793978,0.17926 0.65829,0.0472 1.270053,0.0943 1.359477,0.10464 z m 8.970677,-2.87475 c 0.02031,-0.0445 -0.07395,-0.29814 -0.209455,-0.56375 -0.160187,-0.314 -0.244532,-0.7044 -0.241115,-1.11606 0.0027,-0.34823 0.08722,-0.84858 0.187396,-1.11189 0.100181,-0.26332 0.209288,-0.56332 0.242455,-0.66669 0.05149,-0.16044 -0.190382,-0.2096 -1.653587,-0.33612 -0.942643,-0.0815 -2.360217,-0.19994 -3.150163,-0.2632 -0.789946,-0.0633 -1.732494,-0.12743 -2.094551,-0.14263 l -0.658289,-0.0276 -0.388991,0.76662 c -0.301299,0.59381 -0.388945,0.91758 -0.3888,1.43627 1.08e-4,0.39766 0.08518,0.83979 0.209455,1.08855 0.201362,0.40308 0.245441,0.42427 1.166777,0.56074 0.526632,0.078 1.46918,0.15007 2.094555,0.16014 0.625375,0.0101 1.971873,0.0809 2.992219,0.1574 1.020351,0.0765 1.871792,0.1027 1.892094,0.0582 z m 0.523277,-0.43148 c 0.05494,-0.0549 0.150593,-0.6354 0.212558,-1.28991 0.06305,-0.66596 0.06724,-1.23548 0.0095,-1.29328 -0.05672,-0.0568 -0.15969,-0.0683 -0.228816,-0.0256 -0.06913,0.0427 -0.181241,0.2777 -0.249142,0.52218 -0.0679,0.24448 -0.123754,0.69781 -0.12412,1.0074 -3.58e-4,0.30959 0.0625,0.70154 0.139713,0.87099 0.07721,0.16946 0.185335,0.26315 0.240275,0.20821 z m -9.444256,-0.14598 c 0.400734,0 0.459239,-0.0315 0.389262,-0.20945 -0.0453,-0.1152 -0.131906,-0.51222 -0.192469,-0.88225 -0.08534,-0.52142 -0.06871,-0.79016 0.07393,-1.19443 0.101222,-0.2869 0.289791,-0.70086 0.419041,-0.91992 0.12925,-0.21906 0.235,-0.44176 0.235,-0.49487 0,-0.0531 -0.632858,-0.13279 -1.406346,-0.17705 -0.773489,-0.0442 -2.093257,-0.13843 -2.932818,-0.20928 -1.364412,-0.11513 -1.558998,-0.1075 -1.832762,0.0719 -0.168453,0.11038 -0.464481,0.45014 -0.657841,0.75504 -0.270706,0.42685 -0.351562,0.69494 -0.351562,1.16563 0,0.49471 0.07044,0.70707 0.369417,1.11361 0.203184,0.27629 0.405158,0.50634 0.448833,0.51123 0.0437,0.005 0.187135,0.028 0.318793,0.0513 0.131656,0.0233 1.204839,0.1006 2.384849,0.17169 1.180008,0.0711 2.171928,0.15569 2.204267,0.18803 0.03234,0.0324 0.271023,0.0588 0.53041,0.0588 z m 8.448998,-3.48853 0.642131,0.0175 -0.22,-0.32914 c -0.156695,-0.23443 -0.220927,-0.55557 -0.223221,-1.11603 -0.0027,-0.67697 0.04284,-0.84731 0.326401,-1.21945 0.181291,-0.23791 0.284585,-0.4604 0.229545,-0.49442 -0.05504,-0.034 -0.688114,-0.0898 -1.406821,-0.12406 -0.718712,-0.0342 -2.141574,-0.122 -3.16192,-0.19508 -1.020346,-0.0731 -2.11906,-0.11482 -2.441581,-0.0928 -0.47659,0.0326 -0.632649,0.10229 -0.833396,0.37212 -0.193092,0.25955 -0.242618,0.4902 -0.226906,1.05688 0.01267,0.4569 0.101782,0.86476 0.241057,1.10323 0.167529,0.28685 0.335262,0.39859 0.693618,0.46206 0.259958,0.0461 1.253623,0.1445 2.20814,0.21879 0.954518,0.0743 2.13944,0.1773 2.633153,0.22891 0.493718,0.0516 1.186628,0.10175 1.5398,0.1114 z m 1.202157,0.0175 c 0.05717,0 0.13419,-0.17504 0.171162,-0.38898 0.03696,-0.21395 0.07547,-0.81987 0.08555,-1.3465 0.01009,-0.52663 0.01276,-1.0045 0.0059,-1.06194 -0.0068,-0.0574 -0.09711,-0.0341 -0.200666,0.0518 -0.103556,0.0859 -0.292066,0.3597 -0.41891,0.60834 -0.126848,0.24863 -0.23063,0.61794 -0.23063,0.82067 0,0.20273 0.108817,0.58189 0.241808,0.84259 0.132996,0.26069 0.288583,0.47398 0.345749,0.47398 z m -8.948755,-0.73999 0.435932,0.0219 -0.226477,-0.44422 c -0.12456,-0.24432 -0.226473,-0.69074 -0.226473,-0.99205 0,-0.31014 0.103076,-0.75 0.237565,-1.0138 0.130666,-0.25629 0.217407,-0.48614 0.192762,-0.51079 -0.02465,-0.0246 -0.710546,-0.12498 -1.524224,-0.22297 -0.813677,-0.098 -2.018014,-0.16563 -2.676304,-0.15032 -0.685472,0.0159 -1.334881,0.0949 -1.519845,0.18476 -0.177626,0.0863 -0.460392,0.3371 -0.628365,0.55733 -0.167973,0.22022 -0.304905,0.55691 -0.304285,0.74818 4.52e-4,0.19127 0.163286,0.63053 0.361487,0.97613 0.200321,0.3493 0.452313,0.63544 0.567399,0.64429 0.11387,0.009 1.257305,0.0528 2.540965,0.0978 1.283664,0.0451 2.530103,0.0917 2.769863,0.10378 z m -7.467647,-2.13439 c 0.181029,-9e-4 0.383002,-0.0414 0.44883,-0.0898 0.06583,-0.0484 0.221135,-0.28751 0.34512,-0.53144 0.123989,-0.24392 0.44631,-0.58967 0.716269,-0.76832 0.30201,-0.19986 0.714573,-0.34632 1.072414,-0.3807 0.573927,-0.0551 0.580848,-0.0608 0.526103,-0.42857 -0.03054,-0.20498 -0.193383,-1.019 -0.36193,-1.80895 -0.168548,-0.78995 -0.386919,-1.86715 -0.485273,-2.39378 -0.09835,-0.52663 -0.219841,-1.19987 -0.269972,-1.49611 -0.05013,-0.29623 -0.07634,-0.61649 -0.05824,-0.71169 0.02705,-0.14228 2.4e-4,-0.14599 -0.150525,-0.0209 -0.100887,0.0837 -0.291198,0.48478 -0.422918,0.89123 -0.13172,0.40645 -0.374103,1.35839 -0.538634,2.11542 -0.164526,0.75703 -0.434024,1.99581 -0.598884,2.75284 -0.164856,0.75703 -0.356384,1.69601 -0.425619,2.08662 -0.06923,0.3906 -0.125885,0.72723 -0.125885,0.74805 0,0.0208 0.148114,0.037 0.329147,0.036 z m 17.351947,-0.59661 c 0.03162,0 0.323881,-0.23947 0.649423,-0.53217 0.325541,-0.29269 0.88754,-0.64278 1.248886,-0.77797 0.361342,-0.1352 0.873585,-0.24581 1.138319,-0.24581 0.26473,0 0.454525,-0.0434 0.421765,-0.0964 -0.03275,-0.053 -0.01131,-0.30884 0.04766,-0.56852 0.05897,-0.25968 0.138457,-0.79531 0.176632,-1.19028 l 0.06941,-0.71813 -1.06209,-1.13374 -1.062086,-1.13374 -0.08477,0.53012 c -0.04662,0.29156 -0.249797,0.81855 -0.451503,1.17109 -0.249531,0.43613 -0.569467,0.77559 -1.001116,1.06218 -0.523091,0.34732 -0.747279,0.42223 -1.277901,0.427 -0.427515,0.004 -0.809349,-0.0788 -1.137568,-0.24627 -0.271728,-0.13862 -0.687214,-0.48777 -0.923304,-0.77589 -0.236091,-0.28812 -0.429256,-0.61256 -0.429256,-0.72098 0,-0.10842 0.03524,-0.19713 0.07829,-0.19713 0.04306,0 0.25936,0.21155 0.48068,0.47011 0.221317,0.25856 0.59789,0.53463 0.83683,0.61349 0.249521,0.0823 0.731053,0.11648 1.131293,0.0802 0.456216,-0.0414 0.809109,-0.15148 1.021929,-0.31889 0.17879,-0.14063 0.460248,-0.45463 0.625462,-0.69776 0.165213,-0.24313 0.337333,-0.6854 0.382499,-0.9828 0.04515,-0.29741 0.0313,-0.6754 -0.03081,-0.83997 -0.06211,-0.16457 -0.257605,-0.45175 -0.434445,-0.63817 -0.176844,-0.18642 -0.503154,-0.41532 -0.725135,-0.50868 -0.221986,-0.0933 -0.733654,-0.16937 -1.137045,-0.16894 -0.530549,4.5e-4 -0.832766,0.0666 -1.092506,0.23859 -0.197485,0.13079 -0.453322,0.23815 -0.568522,0.23859 -0.12735,4.5e-4 -0.209455,-0.0897 -0.209455,-0.23004 0,-0.12696 0.0841,-0.31492 0.186873,-0.4177 0.102783,-0.10278 0.486919,-0.2741 0.853644,-0.38071 0.372312,-0.10823 0.848126,-0.16441 1.077426,-0.1272 0.316259,0.0513 0.402032,0.0274 0.373162,-0.10411 -0.02063,-0.0939 -1.557672,-1.70425 -3.41568,-3.57854 -1.858008,-1.87429 -3.483259,-3.46402 -3.611673,-3.53275 -0.137252,-0.0735 -0.387226,-0.53212 -0.606552,-1.11294 -0.205199,-0.5434 -0.541452,-1.38263 -0.747234,-1.86496 -0.205778,-0.48233 -0.555905,-1.11501 -0.778058,-1.40595 -0.222153,-0.29094 -0.560483,-0.60995 -0.751852,-0.70891 -0.19137,-0.099 -0.555481,-0.17993 -0.80914,-0.17993 -0.25366,0 -0.72761,0.13177 -1.053219,0.29282 -0.325614,0.16105 -0.726674,0.3435 -0.891245,0.40543 -0.164571,0.0619 -0.626529,0.35407 -1.026571,0.6492 -0.400042,0.29512 -0.934495,0.78939 -1.187676,1.09836 -0.375243,0.45793 -0.468788,0.67651 -0.506091,1.18246 -0.03225,0.43719 0.01814,0.74379 0.170321,1.0371 0.118846,0.22903 0.537023,0.67373 0.929285,0.98824 0.411581,0.33 1.094909,0.7192 1.615796,0.92031 0.630781,0.24354 0.9026,0.40949 0.9026,0.55102 0,0.17781 -0.171642,0.20457 -1.406202,0.21923 -0.773412,0.009 -1.406269,0.0609 -1.406342,0.11482 -7.7e-5,0.054 0.174904,0.34351 0.388846,0.64344 0.213943,0.29992 0.481807,0.68664 0.595252,0.85939 0.113449,0.17273 0.34417,0.57169 0.512713,0.88657 0.168548,0.31488 0.4918,0.86225 0.718341,1.21639 l 0.411889,0.6439 -1.029185,0.87376 -1.029185,0.87376 0.0776,0.84222 c 0.04266,0.46322 0.154732,1.13845 0.249019,1.50051 0.09429,0.36206 0.33724,1.35846 0.539896,2.21424 0.202656,0.85577 0.415458,1.66878 0.472895,1.80667 0.09718,0.23331 0.231929,0.25674 1.940714,0.33747 1.00996,0.0477 2.024796,0.10735 2.2552,0.13253 0.2304,0.0252 1.146018,0.1059 2.034707,0.17938 0.888689,0.0735 2.53142,0.20959 3.650509,0.30247 1.119093,0.0929 2.310881,0.16999 2.648424,0.17136 0.396979,0.002 0.666328,0.0659 0.762709,0.18203 0.08195,0.0987 0.174885,0.17953 0.206524,0.17953 z M 46.421849,174.63798 c -0.08308,0 -0.186968,-0.0359 -0.230852,-0.0798 -0.04388,-0.0439 -0.07979,-0.2324 -0.07979,-0.41892 0,-0.18651 0.109871,-0.44898 0.244156,-0.58327 0.134286,-0.13429 0.385652,-0.29796 0.558592,-0.3637 0.232951,-0.0886 0.339796,-0.0796 0.412297,0.0347 0.05383,0.0848 0.09869,0.25561 0.0997,0.3795 9.05e-4,0.12388 -0.19051,0.40665 -0.425596,0.62836 -0.235091,0.22172 -0.495414,0.40313 -0.578501,0.40313 z m -6.474619,8.08127 c 0.164572,-0.0342 0.420684,-0.0868 0.569142,-0.11689 0.238357,-0.0484 0.318055,-0.2478 0.6816,-1.70557 0.338691,-1.35811 0.490234,-1.7569 0.854743,-2.24923 0.243681,-0.32915 0.717934,-0.86573 1.053884,-1.19239 0.335955,-0.32667 0.610827,-0.63775 0.610827,-0.69129 0,-0.0535 -0.158903,-0.0152 -0.353122,0.0853 -0.19422,0.10043 -0.489204,0.1826 -0.65553,0.1826 -0.18358,0 -0.369028,-0.10581 -0.47195,-0.26929 -0.09325,-0.14812 -0.237882,-0.90216 -0.321403,-1.67565 -0.08352,-0.77349 -0.196978,-1.40634 -0.252126,-1.40634 -0.05514,0 -0.100268,0.40395 -0.100268,0.89766 0,0.8231 -0.02022,0.89767 -0.243631,0.89767 -0.176215,0 -0.311916,-0.15731 -0.490416,-0.56852 -0.135733,-0.31269 -0.348377,-0.86475 -0.472538,-1.22681 -0.124161,-0.36206 -0.359894,-1.03531 -0.523846,-1.49611 -0.176414,-0.49582 -0.298567,-0.71568 -0.299241,-0.5386 -4.52e-4,0.16457 0.213359,1.16098 0.475529,2.21424 0.262169,1.05326 0.476736,1.95542 0.476808,2.00479 7.7e-5,0.0494 -0.160672,0.0898 -0.357212,0.0898 -0.337556,0 -0.392799,-0.0746 -0.997546,-1.3465 -0.352109,-0.74058 -0.784495,-1.64273 -0.96086,-2.00479 -0.176364,-0.36206 -0.287389,-0.52364 -0.246725,-0.35907 0.04067,0.16457 0.337628,1.04063 0.659922,1.94679 0.322289,0.90617 0.585983,1.72753 0.585983,1.82526 0,0.11772 -0.121438,0.17768 -0.359854,0.17768 -0.313554,0 -0.426175,-0.10394 -0.875366,-0.8079 -0.283535,-0.44434 -0.64319,-1.0368 -0.799234,-1.31658 -0.156044,-0.27977 -0.328898,-0.50867 -0.384123,-0.50867 -0.05523,0 -0.009,0.14812 0.102728,0.32914 0.11173,0.18103 0.376827,0.59938 0.589109,0.92965 0.212287,0.33028 0.552861,0.89581 0.756833,1.25674 0.203972,0.36092 0.743655,1.3853 1.199293,2.2764 l 0.828429,1.62018 -0.288402,1.13267 c -0.158622,0.62296 -0.288913,1.25487 -0.289533,1.40424 -9.05e-4,0.22664 0.04839,0.2613 0.298096,0.20945 z m 2.495054,-3.4134 c 0.09495,0 0.331554,-0.14812 0.5258,-0.32915 0.194242,-0.18103 0.576959,-0.5112 0.850478,-0.73371 0.273519,-0.22252 0.49731,-0.47259 0.49731,-0.55572 0,-0.0831 -0.09007,-0.18571 -0.200155,-0.22796 -0.135086,-0.0518 -0.352679,0.0705 -0.669331,0.37619 -0.258049,0.24914 -0.628374,0.68189 -0.822951,0.96167 -0.249938,0.35938 -0.303109,0.50868 -0.181151,0.50868 z m 0.375755,-2.75285 c 0.08892,0 0.24687,-0.0327 0.351,-0.0726 0.104126,-0.0399 0.189321,-0.12175 0.189321,-0.18177 0,-0.06 -0.224239,-0.45838 -0.49831,-0.88526 -0.274071,-0.42687 -0.521145,-0.75329 -0.549056,-0.72538 -0.02791,0.0279 0.01153,0.36471 0.08764,0.74845 0.07612,0.38373 0.16524,0.79196 0.198055,0.90716 0.0328,0.1152 0.132426,0.20945 0.221348,0.20945 z m -1.158173,-3.94333 c 0.02036,-0.35855 0.0053,-0.77816 -0.03343,-0.93249 -0.03872,-0.15432 -0.124872,-0.24694 -0.191415,-0.20581 -0.07486,0.0463 -0.09035,0.35611 -0.04062,0.81279 0.0442,0.40591 0.113685,0.79188 0.154416,0.85771 0.04071,0.0658 0.0907,-0.17366 0.111052,-0.5322 z m 1.333442,0.46767 0.664274,-0.005 -0.396934,-0.17241 c -0.218312,-0.0948 -0.535272,-0.28123 -0.704353,-0.41423 -0.169077,-0.133 -0.354014,-0.24181 -0.410963,-0.24181 -0.05695,0 -0.103546,0.12387 -0.103546,0.27528 0,0.15141 0.06463,0.33992 0.143626,0.41891 0.07899,0.079 0.442547,0.14152 0.807896,0.13894 z M 9.7000884,199.76971 c -0.5555794,0.002 -0.7072626,-0.0405 -0.8079007,-0.22859 -0.068145,-0.12733 -0.1238989,-0.36582 -0.1238989,-0.52998 0,-0.2722 0.055334,-0.30409 0.6283652,-0.36213 0.3455995,-0.035 1.005386,-0.0952 1.46619,-0.13376 0.460799,-0.0385 1.180117,-0.17537 1.598485,-0.30403 0.418363,-0.12866 0.83873,-0.23392 0.934143,-0.23392 0.131951,0 0.164752,0.13374 0.137004,0.55861 l -0.03646,0.5586 -0.777977,0.16037 c -0.42789,0.0882 -0.885699,0.18226 -1.017356,0.20901 -0.131657,0.0267 -0.481748,0.10584 -0.777976,0.17576 -0.296228,0.0699 -0.846402,0.12845 -1.2225995,0.13006 z"
       id="path39" />
  </g>
</svg>
