<svg
  xmlns="http://www.w3.org/2000/svg"
  viewBox="0 0 100 100"
  height="1"
  width="1"
>
  <path
    d="m 84.2,97.5 q -1.78125,0 -2.79062,-1.54375 Q 80.4,94.4125 80.99375,92.5125 83.0125,86.21875 83.725,79.80625 84.4375,73.39375 83.9625,66.8625 79.33125,76.71875 70.12813,82.35938 60.925,88 50,88 40.025,88 31.95,83.30938 23.875,78.61875 18.175,70.78125 12.475,62.94375 9.3875,52.79062 6.3,42.6375 6.3,31.7125 6.3,25.5375 6.95313,19.54062 7.60625,13.54375 9.26875,7.60625 9.8625,5.35 11.64375,3.925 13.425,2.5 15.8,2.5 q 1.78125,0 2.79062,1.54375 1.00938,1.54375 0.41563,3.44375 -1.9,6.29375 -2.67188,12.70625 Q 15.5625,26.60625 16.0375,33.1375 20.66875,23.28125 29.87187,17.64063 39.075,12 50,12 q 9.975,0 18.05,4.69063 8.075,4.69062 13.775,12.52812 5.7,7.8375 8.7875,17.99063 Q 93.7,57.3625 93.7,68.2875 q 0,6.175 -0.65312,12.17188 -0.65313,5.99687 -2.31563,11.93437 Q 90.1375,94.65 88.35625,96.075 86.575,97.5 84.2,97.5 Z M 50,78.5 q 11.875,0 20.1875,-8.3125 Q 78.5,61.875 78.5,50 78.5,38.125 70.1875,29.8125 61.875,21.5 50,21.5 38.125,21.5 29.8125,29.8125 21.5,38.125 21.5,50 21.5,61.875 29.8125,70.1875 38.125,78.5 50,78.5 Z M 50,69 Q 57.8375,69 63.41875,63.41875 69,57.8375 69,50 69,42.1625 63.41875,36.58125 57.8375,31 50,31 42.1625,31 36.58125,36.58125 31,42.1625 31,50 31,57.8375 36.58125,63.41875 42.1625,69 50,69 Z m 0,-9.5 q -3.91875,0 -6.70938,-2.79062 Q 40.5,53.91875 40.5,50 40.5,46.08125 43.29062,43.29062 46.08125,40.5 50,40.5 q 3.91875,0 6.70938,2.79062 Q 59.5,46.08125 59.5,50 q 0,3.91875 -2.79062,6.70938 Q 53.91875,59.5 50,59.5 Z M 50,50 Z"
    style="stroke-width:0.11875" 
  />
</svg>
