{
	"asset":{
		"generator":"Khronos glTF Blender I/O v3.6.27",
		"version":"2.0"
	},
	"scene":0,
	"scenes":[
		{
			"name":"Scene",
			"nodes":[
				0
			]
		}
	],
	"nodes":[
		{
			"mesh":0,
			"name":"darkKnightFaceMask"
		}
	],
	"materials":[
		{
			"name":"Masks3",
			"normalTexture":{
				"index":0
			},
			"pbrMetallicRoughness":{
				"baseColorTexture":{
					"index":1
				},
				"metallicRoughnessTexture":{
					"index":2
				}
			}
		}
	],
	"meshes":[
		{
			"name":"Object_7",
			"primitives":[
				{
					"attributes":{
						"POSITION":0,
						"NORMAL":1,
						"TEXCOORD_0":2
					},
					"indices":3,
					"material":0
				}
			]
		}
	],
	"textures":[
		{
			"sampler":0,
			"source":0
		},
		{
			"sampler":0,
			"source":1
		},
		{
			"sampler":0,
			"source":2
		}
	],
	"images":[
		{
			"mimeType":"image/png",
			"name":"Masks3_normal",
			"uri":"texs/Masks3_normal.png"
		},
		{
			"mimeType":"image/png",
			"name":"Masks3_baseColor",
			"uri":"texs/Masks3_baseColor.png"
		},
		{
			"mimeType":"image/png",
			"name":"Masks3_metallicRoughness",
			"uri":"texs/Masks3_metallicRoughness.png"
		}
	],
	"accessors":[
		{
			"bufferView":0,
			"componentType":5126,
			"count":1788,
			"max":[
				0.3377600908279419,
				0.5518171787261963,
				0.23721756041049957
			],
			"min":[
				-0.33776000142097473,
				-0.40939515829086304,
				-0.32098543643951416
			],
			"type":"VEC3"
		},
		{
			"bufferView":1,
			"componentType":5126,
			"count":1788,
			"type":"VEC3"
		},
		{
			"bufferView":2,
			"componentType":5126,
			"count":1788,
			"type":"VEC2"
		},
		{
			"bufferView":3,
			"componentType":5123,
			"count":9024,
			"type":"SCALAR"
		}
	],
	"bufferViews":[
		{
			"buffer":0,
			"byteLength":21456,
			"byteOffset":0,
			"target":34962
		},
		{
			"buffer":0,
			"byteLength":21456,
			"byteOffset":21456,
			"target":34962
		},
		{
			"buffer":0,
			"byteLength":14304,
			"byteOffset":42912,
			"target":34962
		},
		{
			"buffer":0,
			"byteLength":18048,
			"byteOffset":57216,
			"target":34963
		}
	],
	"samplers":[
		{
			"magFilter":9729,
			"minFilter":9987
		}
	],
	"buffers":[
		{
			"byteLength":75264,
			"uri":"darkKnightMask.bin"
		}
	]
}
