{
	"asset":{
		"generator":"Khronos glTF Blender I/O v3.6.27",
		"version":"2.0"
	},
	"scene":0,
	"scenes":[
		{
			"name":"Scene",
			"nodes":[
				0
			]
		}
	],
	"nodes":[
		{
			"mesh":0,
			"name":"classicalCurrlyBeard"
		}
	],
	"materials":[
		{
			"doubleSided":true,
			"name":"beard.001",
			"pbrMetallicRoughness":{
				"baseColorFactor":[
					0.7612716555595398,
					0.7612716555595398,
					0.7612716555595398,
					1
				],
				"metallicFactor":0,
				"roughnessFactor":0.5
			}
		}
	],
	"meshes":[
		{
			"name":"Object_1.001",
			"primitives":[
				{
					"attributes":{
						"POSITION":0,
						"NORMAL":1,
						"TEXCOORD_0":2
					},
					"indices":3,
					"material":0
				}
			]
		}
	],
	"accessors":[
		{
			"bufferView":0,
			"componentType":5126,
			"count":7355,
			"max":[
				0.8510714173316956,
				0.9199439883232117,
				0.6166163086891174
			],
			"min":[
				-0.8522476553916931,
				-1.2655752897262573,
				-1.0026466846466064
			],
			"type":"VEC3"
		},
		{
			"bufferView":1,
			"componentType":5126,
			"count":7355,
			"type":"VEC3"
		},
		{
			"bufferView":2,
			"componentType":5126,
			"count":7355,
			"type":"VEC2"
		},
		{
			"bufferView":3,
			"componentType":5123,
			"count":43326,
			"type":"SCALAR"
		}
	],
	"bufferViews":[
		{
			"buffer":0,
			"byteLength":88260,
			"byteOffset":0,
			"target":34962
		},
		{
			"buffer":0,
			"byteLength":88260,
			"byteOffset":88260,
			"target":34962
		},
		{
			"buffer":0,
			"byteLength":58840,
			"byteOffset":176520,
			"target":34962
		},
		{
			"buffer":0,
			"byteLength":86652,
			"byteOffset":235360,
			"target":34963
		}
	],
	"buffers":[
		{
			"byteLength":322012,
			"uri":"classicalCurlyBeard.bin"
		}
	]
}
