{
	"asset":{
		"generator":"Khronos glTF Blender I/O v3.6.27",
		"version":"2.0"
	},
	"scene":0,
	"scenes":[
		{
			"name":"Scene",
			"nodes":[
				0
			]
		}
	],
	"nodes":[
		{
			"mesh":0,
			"name":"classicalCurrlyBeard"
		}
	],
	"materials":[
		{
			"doubleSided":true,
			"name":"beard.001",
			"pbrMetallicRoughness":{
				"baseColorFactor":[
					0.7612716555595398,
					0.7612716555595398,
					0.7612716555595398,
					1
				],
				"metallicFactor":0,
				"roughnessFactor":0.5
			}
		}
	],
	"meshes":[
		{
			"name":"Object_1.001",
			"primitives":[
				{
					"attributes":{
						"POSITION":0,
						"NORMAL":1,
						"TEXCOORD_0":2
					},
					"indices":3,
					"material":0
				}
			]
		}
	],
	"accessors":[
		{
			"bufferView":0,
			"componentType":5126,
			"count":42109,
			"max":[
				0.8525663018226624,
				1.039228916168213,
				0.6177041530609131
			],
			"min":[
				-0.8522476553916931,
				-1.265726089477539,
				-1.0039570331573486
			],
			"type":"VEC3"
		},
		{
			"bufferView":1,
			"componentType":5126,
			"count":42109,
			"type":"VEC3"
		},
		{
			"bufferView":2,
			"componentType":5126,
			"count":42109,
			"type":"VEC2"
		},
		{
			"bufferView":3,
			"componentType":5123,
			"count":232746,
			"type":"SCALAR"
		}
	],
	"bufferViews":[
		{
			"buffer":0,
			"byteLength":505308,
			"byteOffset":0,
			"target":34962
		},
		{
			"buffer":0,
			"byteLength":505308,
			"byteOffset":505308,
			"target":34962
		},
		{
			"buffer":0,
			"byteLength":336872,
			"byteOffset":1010616,
			"target":34962
		},
		{
			"buffer":0,
			"byteLength":465492,
			"byteOffset":1347488,
			"target":34963
		}
	],
	"buffers":[
		{
			"byteLength":1812980,
			"uri":"classicalCurlyBeard.bin"
		}
	]
}
