{
  "accessors": [
    {
      "bufferView": 2,
      "componentType": 5126,
      "count": 35901,
      "max": [
        1.0871878862380981,
        1.1385903358459473,
        0.8197721838951111
      ],
      "min": [
        -0.9582908153533936,
        -0.7633802890777588,
        -0.8208035826683044
      ],
      "type": "VEC3"
    },
    {
      "bufferView": 2,
      "byteOffset": 430812,
      "componentType": 5126,
      "count": 35901,
      "max": [
        0.9999889135360718,
        0.9998940229415894,
        0.9999743700027466
      ],
      "min": [
        -0.9999785423278809,
        -1.0,
        -0.9999977350234985
      ],
      "type": "VEC3"
    },
    {
      "bufferView": 1,
      "componentType": 5126,
      "count": 35901,
      "max": [
        0.0,
        0.0
      ],
      "min": [
        0.0,
        0.0
      ],
      "type": "VEC2"
    },
    {
      "bufferView": 0,
      "componentType": 5125,
      "count": 215394,
      "type": "SCALAR"
    },
    {
      "bufferView": 2,
      "byteOffset": 861624,
      "componentType": 5126,
      "count": 39232,
      "max": [
        2.659517526626587,
        1.915930986404419,
        1.5678001642227173
      ],
      "min": [
        -0.3270360231399536,
        -2.6669254302978516,
        -1.5723228454589844
      ],
      "type": "VEC3"
    },
    {
      "bufferView": 2,
      "byteOffset": 1332408,
      "componentType": 5126,
      "count": 39232,
      "max": [
        0.9999986886978149,
        1.0,
        0.9999755620956421
      ],
      "min": [
        -0.9999955892562866,
        -0.9997463226318359,
        -0.999841570854187
      ],
      "type": "VEC3"
    },
    {
      "bufferView": 1,
      "byteOffset": 287208,
      "componentType": 5126,
      "count": 39232,
      "max": [
        0.0,
        0.0
      ],
      "min": [
        0.0,
        0.0
      ],
      "type": "VEC2"
    },
    {
      "bufferView": 0,
      "byteOffset": 861576,
      "componentType": 5125,
      "count": 235260,
      "type": "SCALAR"
    }
  ],
  "asset": {
    "extras": {
      "author": "Chaitanya Krishnan (https://sketchfab.com/chaitanyak)",
      "license": "CC-BY-4.0 (http://creativecommons.org/licenses/by/4.0/)",
      "source": "https://sketchfab.com/3d-models/sculptjanuary-2022-008-beard-fcbf8829e4bf481ba0538d8ca5814758",
      "title": "SculptJanuary 2022 008 Beard"
    },
    "generator": "Sketchfab-12.68.0",
    "version": "2.0"
  },
  "bufferViews": [
    {
      "buffer": 0,
      "byteLength": 1802616,
      "name": "floatBufferViews",
      "target": 34963
    },
    {
      "buffer": 0,
      "byteLength": 601064,
      "byteOffset": 1802616,
      "byteStride": 8,
      "name": "floatBufferViews",
      "target": 34962
    },
    {
      "buffer": 0,
      "byteLength": 1803192,
      "byteOffset": 2403680,
      "byteStride": 12,
      "name": "floatBufferViews",
      "target": 34962
    }
  ],
  "buffers": [
    {
      "byteLength": 4206872,
      "uri": "scene.bin"
    }
  ],
  "materials": [
    {
      "doubleSided": true,
      "name": "skull",
      "pbrMetallicRoughness": {
        "baseColorFactor": [
          0.12681312530780878,
          0.12681312530780878,
          0.12681312530780878,
          1.0
        ],
        "metallicFactor": 0.0,
        "roughnessFactor": 0.4
      }
    },
    {
      "doubleSided": true,
      "name": "beard",
      "pbrMetallicRoughness": {
        "baseColorFactor": [
          0.000515304,
          0.000515304,
          0.000515304,
          1.0
        ],
        "metallicFactor": 0.0,
        "roughnessFactor": 0.5
      }
    }
  ],
  "meshes": [
    {
      "name": "Object_0",
      "primitives": [
        {
          "attributes": {
            "NORMAL": 1,
            "POSITION": 0,
            "TEXCOORD_0": 2
          },
          "indices": 3,
          "material": 0,
          "mode": 4
        }
      ]
    },
    {
      "name": "Object_1",
      "primitives": [
        {
          "attributes": {
            "NORMAL": 5,
            "POSITION": 4,
            "TEXCOORD_0": 6
          },
          "indices": 7,
          "material": 1,
          "mode": 4
        }
      ]
    }
  ],
  "nodes": [
    {
      "children": [
        1
      ],
      "matrix": [
        1.0,
        0.0,
        0.0,
        0.0,
        0.0,
        2.220446049250313e-16,
        -1.0,
        0.0,
        0.0,
        1.0,
        2.220446049250313e-16,
        0.0,
        0.0,
        0.0,
        0.0,
        1.0
      ],
      "name": "Sketchfab_model"
    },
    {
      "children": [
        2
      ],
      "name": "root"
    },
    {
      "children": [
        3,
        5
      ],
      "matrix": [
        1.0,
        0.0,
        0.0,
        0.0,
        0.0,
        2.220446049250313e-16,
        1.0,
        0.0,
        0.0,
        -1.0,
        2.220446049250313e-16,
        0.0,
        0.0,
        0.0,
        0.0,
        1.0
      ],
      "name": "GLTF_SceneRootNode"
    },
    {
      "children": [
        4
      ],
      "name": "Cube_0"
    },
    {
      "mesh": 0,
      "name": "Object_4"
    },
    {
      "children": [
        6
      ],
      "matrix": [
        1.0,
        0.0,
        0.0,
        0.0,
        0.0,
        1.0,
        0.0,
        0.0,
        0.0,
        0.0,
        1.0,
        0.0,
        0.11250364780426025,
        -1.5062332153320313,
        0.0011975765228271484,
        1.0
      ],
      "name": "Cube.002_1"
    },
    {
      "mesh": 1,
      "name": "Object_6"
    }
  ],
  "scene": 0,
  "scenes": [
    {
      "name": "Sketchfab_Scene",
      "nodes": [
        0
      ]
    }
  ]
}
