{
  "accessors": [
    {
      "bufferView": 2,
      "componentType": 5126,
      "count": 17504,
      "max": [
        0.03831525892019272,
        0.043407440185546875,
        0.03388838469982147
      ],
      "min": [
        -0.036448344588279724,
        -0.03205209970474243,
        -0.04500526934862137
      ],
      "type": "VEC3"
    },
    {
      "bufferView": 2,
      "byteOffset": 210048,
      "componentType": 5126,
      "count": 17504,
      "max": [
        0.99997878074646,
        0.99824059009552,
        0.9540956616401672
      ],
      "min": [
        -0.9998287558555603,
        -0.7602497935295105,
        -0.9994690418243408
      ],
      "type": "VEC3"
    },
    {
      "bufferView": 1,
      "componentType": 5126,
      "count": 17504,
      "max": [
        0.8646392822265625,
        0.9912440776824951
      ],
      "min": [
        0.045952800661325455,
        0.5829544067382813
      ],
      "type": "VEC2"
    },
    {
      "bufferView": 0,
      "componentType": 5125,
      "count": 26256,
      "type": "SCALAR"
    },
    {
      "bufferView": 2,
      "byteOffset": 420096,
      "componentType": 5126,
      "count": 10496,
      "max": [
        0.05789455771446228,
        0.04125356674194336,
        0.055677630007267
      ],
      "min": [
        -0.05589084327220917,
        -0.05281585454940796,
        -0.04614105075597763
      ],
      "type": "VEC3"
    },
    {
      "bufferView": 2,
      "byteOffset": 546048,
      "componentType": 5126,
      "count": 10496,
      "max": [
        0.9987204670906067,
        0.9993330836296082,
        0.9862112998962402
      ],
      "min": [
        -0.9986908435821533,
        -0.9967163801193237,
        -0.9985365271568298
      ],
      "type": "VEC3"
    },
    {
      "bufferView": 1,
      "byteOffset": 140032,
      "componentType": 5126,
      "count": 10496,
      "max": [
        0.40647125244140625,
        0.4689788818359375
      ],
      "min": [
        0.028031829744577408,
        0.01156616024672985
      ],
      "type": "VEC2"
    },
    {
      "bufferView": 0,
      "byteOffset": 105024,
      "componentType": 5125,
      "count": 15744,
      "type": "SCALAR"
    },
    {
      "bufferView": 2,
      "byteOffset": 672000,
      "componentType": 5126,
      "count": 6912,
      "max": [
        0.039373256266117096,
        0.02919226884841919,
        0.03964624181389809
      ],
      "min": [
        -0.03718974441289902,
        -0.03823816776275635,
        -0.03264974057674408
      ],
      "type": "VEC3"
    },
    {
      "bufferView": 2,
      "byteOffset": 754944,
      "componentType": 5126,
      "count": 6912,
      "max": [
        0.9996118545532227,
        0.999125063419342,
        0.9974373579025269
      ],
      "min": [
        -0.9995853304862976,
        -0.9988278746604919,
        -0.9993165135383606
      ],
      "type": "VEC3"
    },
    {
      "bufferView": 1,
      "byteOffset": 224000,
      "componentType": 5126,
      "count": 6912,
      "max": [
        0.8843841552734375,
        0.547393798828125
      ],
      "min": [
        0.008755920454859734,
        0.510650634765625
      ],
      "type": "VEC2"
    },
    {
      "bufferView": 0,
      "byteOffset": 168000,
      "componentType": 5125,
      "count": 10368,
      "type": "SCALAR"
    },
    {
      "bufferView": 2,
      "byteOffset": 837888,
      "componentType": 5126,
      "count": 6528,
      "max": [
        0.05788815766572952,
        0.04088681936264038,
        0.05590765178203583
      ],
      "min": [
        -0.05588444322347641,
        -0.05309802293777466,
        -0.045827776193618774
      ],
      "type": "VEC3"
    },
    {
      "bufferView": 2,
      "byteOffset": 916224,
      "componentType": 5126,
      "count": 6528,
      "max": [
        0.9877117872238159,
        0.529353141784668,
        0.9965892434120178
      ],
      "min": [
        -0.9874821305274963,
        -0.9993563890457153,
        -0.5950708389282227
      ],
      "type": "VEC3"
    },
    {
      "bufferView": 1,
      "byteOffset": 279296,
      "componentType": 5126,
      "count": 6528,
      "max": [
        0.8253173828125,
        0.4668121337890625
      ],
      "min": [
        0.444915771484375,
        0.008758540265262127
      ],
      "type": "VEC2"
    },
    {
      "bufferView": 0,
      "byteOffset": 209472,
      "componentType": 5125,
      "count": 9792,
      "type": "SCALAR"
    }
  ],
  "asset": {
    "extras": {
      "author": "shimtimultimedia (https://sketchfab.com/shimtimultimedia)",
      "license": "CC-BY-4.0 (http://creativecommons.org/licenses/by/4.0/)",
      "source": "https://sketchfab.com/3d-models/stylish-hat-dark-d31ab63dbbe54c49a4c698605c23681b",
      "title": "Stylish Hat (Dark)"
    },
    "generator": "Sketchfab-12.67.0",
    "version": "2.0"
  },
  "bufferViews": [
    {
      "buffer": 0,
      "byteLength": 248640,
      "name": "floatBufferViews",
      "target": 34963
    },
    {
      "buffer": 0,
      "byteLength": 331520,
      "byteOffset": 248640,
      "byteStride": 8,
      "name": "floatBufferViews",
      "target": 34962
    },
    {
      "buffer": 0,
      "byteLength": 994560,
      "byteOffset": 580160,
      "byteStride": 12,
      "name": "floatBufferViews",
      "target": 34962
    }
  ],
  "buffers": [
    {
      "byteLength": 1574720,
      "uri": "scene.bin"
    }
  ],
  "extensionsRequired": [
    "KHR_materials_pbrSpecularGlossiness"
  ],
  "extensionsUsed": [
    "KHR_materials_pbrSpecularGlossiness"
  ],
  "images": [
    {
      "uri": "textures/hat_mat_diffuse.jpeg"
    },
    {
      "uri": "textures/hat_mat_specularGlossiness.png"
    },
    {
      "uri": "textures/brim_outer_mat_specularGlossiness.png"
    }
  ],
  "materials": [
    {
      "doubleSided": true,
      "extensions": {
        "KHR_materials_pbrSpecularGlossiness": {
          "diffuseFactor": [
            1.0,
            1.0,
            1.0,
            1.0
          ],
          "diffuseTexture": {
            "index": 0
          },
          "glossinessFactor": 1.0,
          "specularFactor": [
            0.0,
            0.0,
            0.0
          ],
          "specularGlossinessTexture": {
            "index": 1
          }
        }
      },
      "name": "hat_mat"
    },
    {
      "doubleSided": true,
      "extensions": {
        "KHR_materials_pbrSpecularGlossiness": {
          "diffuseFactor": [
            1.0,
            1.0,
            1.0,
            1.0
          ],
          "diffuseTexture": {
            "index": 0
          },
          "glossinessFactor": 1.0,
          "specularFactor": [
            0.0,
            0.0,
            0.0
          ],
          "specularGlossinessTexture": {
            "index": 2
          }
        }
      },
      "name": "brim_outer_mat"
    },
    {
      "doubleSided": true,
      "extensions": {
        "KHR_materials_pbrSpecularGlossiness": {
          "diffuseFactor": [
            1.0,
            1.0,
            1.0,
            1.0
          ],
          "diffuseTexture": {
            "index": 0
          },
          "glossinessFactor": 1.0,
          "specularFactor": [
            0.0,
            0.0,
            0.0
          ],
          "specularGlossinessTexture": {
            "index": 1
          }
        }
      },
      "name": "hat_ribbon_mat"
    },
    {
      "doubleSided": true,
      "extensions": {
        "KHR_materials_pbrSpecularGlossiness": {
          "diffuseFactor": [
            1.0,
            1.0,
            1.0,
            1.0
          ],
          "diffuseTexture": {
            "index": 0
          },
          "glossinessFactor": 1.0,
          "specularFactor": [
            0.0,
            0.0,
            0.0
          ],
          "specularGlossinessTexture": {
            "index": 1
          }
        }
      },
      "name": "brim_inner_mat"
    }
  ],
  "meshes": [
    {
      "name": "stylish_hat_hat_mat_0",
      "primitives": [
        {
          "attributes": {
            "NORMAL": 1,
            "POSITION": 0,
            "TEXCOORD_0": 2
          },
          "indices": 3,
          "material": 0,
          "mode": 4
        }
      ]
    },
    {
      "name": "stylish_hat_brim_outer_mat_0",
      "primitives": [
        {
          "attributes": {
            "NORMAL": 5,
            "POSITION": 4,
            "TEXCOORD_0": 6
          },
          "indices": 7,
          "material": 1,
          "mode": 4
        }
      ]
    },
    {
      "name": "stylish_hat_hat_ribbon_mat_0",
      "primitives": [
        {
          "attributes": {
            "NORMAL": 9,
            "POSITION": 8,
            "TEXCOORD_0": 10
          },
          "indices": 11,
          "material": 2,
          "mode": 4
        }
      ]
    },
    {
      "name": "stylish_hat_brim_inner_mat_0",
      "primitives": [
        {
          "attributes": {
            "NORMAL": 13,
            "POSITION": 12,
            "TEXCOORD_0": 14
          },
          "indices": 15,
          "material": 3,
          "mode": 4
        }
      ]
    }
  ],
  "nodes": [
    {
      "children": [
        1
      ],
      "matrix": [
        0.02500000037252903,
        0.0,
        0.0,
        0.0,
        0.0,
        5.551115205843844e-18,
        -0.02500000037252903,
        0.0,
        0.0,
        0.02500000037252903,
        5.551115205843844e-18,
        0.0,
        0.0,
        0.0,
        0.0,
        1.0
      ],
      "name": "Sketchfab_model"
    },
    {
      "children": [
        2
      ],
      "matrix": [
        1.0,
        0.0,
        0.0,
        0.0,
        0.0,
        0.0,
        1.0,
        0.0,
        0.0,
        -1.0,
        0.0,
        0.0,
        0.0,
        0.0,
        0.0,
        1.0
      ],
      "name": "ee1e57920f9e4f649f8dc0c56c265c54.fbx"
    },
    {
      "children": [
        3
      ],
      "name": "RootNode"
    },
    {
      "children": [
        4,
        5,
        6,
        7
      ],
      "matrix": [
        100.0,
        0.0,
        0.0,
        0.0,
        0.0,
        73.49145554855968,
        67.81597128519266,
        0.0,
        0.0,
        -67.81597128519266,
        73.49145554855968,
        0.0,
        0.0,
        0.0,
        0.0,
        1.0
      ],
      "name": "stylish_hat"
    },
    {
      "mesh": 0,
      "name": "stylish_hat_hat_mat_0"
    },
    {
      "mesh": 1,
      "name": "stylish_hat_brim_outer_mat_0"
    },
    {
      "mesh": 2,
      "name": "stylish_hat_hat_ribbon_mat_0"
    },
    {
      "mesh": 3,
      "name": "stylish_hat_brim_inner_mat_0"
    }
  ],
  "samplers": [
    {
      "magFilter": 9729,
      "minFilter": 9987,
      "wrapS": 10497,
      "wrapT": 10497
    }
  ],
  "scene": 0,
  "scenes": [
    {
      "name": "Sketchfab_Scene",
      "nodes": [
        0
      ]
    }
  ],
  "textures": [
    {
      "sampler": 0,
      "source": 0
    },
    {
      "sampler": 0,
      "source": 1
    },
    {
      "sampler": 0,
      "source": 2
    }
  ]
}
