{
	"asset":{
		"generator":"Khronos glTF Blender I/O v3.6.27",
		"version":"2.0"
	},
	"extensionsUsed":[
		"KHR_materials_specular",
		"KHR_materials_ior"
	],
	"scene":0,
	"scenes":[
		{
			"name":"Scene",
			"nodes":[
				4
			]
		}
	],
	"nodes":[
		{
			"mesh":0,
			"name":"stylish_hat_brim_inner_mat_0"
		},
		{
			"mesh":1,
			"name":"stylish_hat_brim_outer_mat_0"
		},
		{
			"mesh":2,
			"name":"stylish_hat_hat_mat_0"
		},
		{
			"mesh":3,
			"name":"stylish_hat_hat_ribbon_mat_0"
		},
		{
			"children":[
				0,
				1,
				2,
				3
			],
			"name":"stylishHat"
		}
	],
	"materials":[
		{
			"doubleSided":true,
			"extensions":{
				"KHR_materials_specular":{
					"specularColorTexture":{
						"index":0
					}
				},
				"KHR_materials_ior":{
					"ior":1.4500000476837158
				}
			},
			"name":"brim_inner_mat",
			"pbrMetallicRoughness":{
				"baseColorTexture":{
					"index":1
				},
				"metallicFactor":0,
				"metallicRoughnessTexture":{
					"index":2
				}
			}
		},
		{
			"doubleSided":true,
			"extensions":{
				"KHR_materials_specular":{
					"specularColorTexture":{
						"index":3
					}
				},
				"KHR_materials_ior":{
					"ior":1.4500000476837158
				}
			},
			"name":"brim_outer_mat",
			"pbrMetallicRoughness":{
				"baseColorTexture":{
					"index":4
				},
				"metallicFactor":0,
				"metallicRoughnessTexture":{
					"index":5
				}
			}
		},
		{
			"doubleSided":true,
			"extensions":{
				"KHR_materials_specular":{
					"specularColorTexture":{
						"index":6
					}
				},
				"KHR_materials_ior":{
					"ior":1.4500000476837158
				}
			},
			"name":"hat_mat.001",
			"pbrMetallicRoughness":{
				"baseColorTexture":{
					"index":7
				},
				"metallicFactor":0,
				"metallicRoughnessTexture":{
					"index":8
				}
			}
		},
		{
			"doubleSided":true,
			"extensions":{
				"KHR_materials_specular":{
					"specularColorTexture":{
						"index":9
					}
				},
				"KHR_materials_ior":{
					"ior":1.4500000476837158
				}
			},
			"name":"hat_ribbon_mat",
			"pbrMetallicRoughness":{
				"baseColorTexture":{
					"index":10
				},
				"metallicFactor":0,
				"metallicRoughnessTexture":{
					"index":11
				}
			}
		}
	],
	"meshes":[
		{
			"name":"stylish_hat_brim_inner_mat_0",
			"primitives":[
				{
					"attributes":{
						"POSITION":0,
						"NORMAL":1,
						"TEXCOORD_0":2
					},
					"indices":3,
					"material":0
				}
			]
		},
		{
			"name":"stylish_hat_brim_outer_mat_0",
			"primitives":[
				{
					"attributes":{
						"POSITION":4,
						"NORMAL":5,
						"TEXCOORD_0":6
					},
					"indices":7,
					"material":1
				}
			]
		},
		{
			"name":"stylish_hat_hat_mat_0.001",
			"primitives":[
				{
					"attributes":{
						"POSITION":8,
						"NORMAL":9,
						"TEXCOORD_0":10
					},
					"indices":11,
					"material":2
				}
			]
		},
		{
			"name":"stylish_hat_hat_ribbon_mat_0",
			"primitives":[
				{
					"attributes":{
						"POSITION":12,
						"NORMAL":13,
						"TEXCOORD_0":14
					},
					"indices":15,
					"material":3
				}
			]
		}
	],
	"textures":[
		{
			"sampler":0,
			"source":0
		},
		{
			"sampler":0,
			"source":1
		},
		{
			"sampler":0,
			"source":2
		},
		{
			"sampler":0,
			"source":3
		},
		{
			"sampler":0,
			"source":1
		},
		{
			"sampler":0,
			"source":4
		},
		{
			"sampler":0,
			"source":0
		},
		{
			"sampler":0,
			"source":1
		},
		{
			"sampler":0,
			"source":2
		},
		{
			"sampler":0,
			"source":0
		},
		{
			"sampler":0,
			"source":1
		},
		{
			"sampler":0,
			"source":2
		}
	],
	"images":[
		{
			"mimeType":"image/png",
			"name":"Image",
			"uri":"texs2/Image.png"
		},
		{
			"mimeType":"image/jpeg",
			"name":"hat_mat_diffuse",
			"uri":"texs2/hat_mat_diffuse.jpg"
		},
		{
			"mimeType":"image/png",
			"name":"hat_mat_specularGlossiness",
			"uri":"texs2/hat_mat_specularGlossiness.png"
		},
		{
			"mimeType":"image/png",
			"name":"Image",
			"uri":"texs2/Image-1.png"
		},
		{
			"mimeType":"image/png",
			"name":"brim_outer_mat_specularGlossiness",
			"uri":"texs2/brim_outer_mat_specularGlossiness.png"
		}
	],
	"accessors":[
		{
			"bufferView":0,
			"componentType":5126,
			"count":7068,
			"max":[
				1.2838947772979736,
				-0.14434170722961426,
				1.522493839263916
			],
			"min":[
				-1.2394546270370483,
				-0.29638034105300903,
				-1.541368007659912
			],
			"type":"VEC3"
		},
		{
			"bufferView":1,
			"componentType":5126,
			"count":7068,
			"type":"VEC3"
		},
		{
			"bufferView":2,
			"componentType":5126,
			"count":7068,
			"type":"VEC2"
		},
		{
			"bufferView":3,
			"componentType":5123,
			"count":9792,
			"type":"SCALAR"
		},
		{
			"bufferView":4,
			"componentType":5126,
			"count":11442,
			"max":[
				1.2840367555618286,
				-0.14934313297271729,
				1.5226669311523438
			],
			"min":[
				-1.2395966053009033,
				-0.24284018576145172,
				-1.5415395498275757
			],
			"type":"VEC3"
		},
		{
			"bufferView":5,
			"componentType":5126,
			"count":11442,
			"type":"VEC3"
		},
		{
			"bufferView":6,
			"componentType":5126,
			"count":11442,
			"type":"VEC2"
		},
		{
			"bufferView":7,
			"componentType":5123,
			"count":15744,
			"type":"SCALAR"
		},
		{
			"bufferView":8,
			"componentType":5126,
			"count":18388,
			"max":[
				0.8497896790504456,
				0.5991387367248535,
				0.9906392097473145
			],
			"min":[
				-0.8083836436271667,
				-0.03510177135467529,
				-1.010253667831421
			],
			"type":"VEC3"
		},
		{
			"bufferView":9,
			"componentType":5126,
			"count":18388,
			"type":"VEC3"
		},
		{
			"bufferView":10,
			"componentType":5126,
			"count":18388,
			"type":"VEC2"
		},
		{
			"bufferView":11,
			"componentType":5123,
			"count":26256,
			"type":"SCALAR"
		},
		{
			"bufferView":12,
			"componentType":5126,
			"count":7000,
			"max":[
				0.8732548952102661,
				-0.03463217616081238,
				1.02351713180542
			],
			"min":[
				-0.8248270750045776,
				-0.20486217737197876,
				-1.045987844467163
			],
			"type":"VEC3"
		},
		{
			"bufferView":13,
			"componentType":5126,
			"count":7000,
			"type":"VEC3"
		},
		{
			"bufferView":14,
			"componentType":5126,
			"count":7000,
			"type":"VEC2"
		},
		{
			"bufferView":15,
			"componentType":5123,
			"count":10368,
			"type":"SCALAR"
		}
	],
	"bufferViews":[
		{
			"buffer":0,
			"byteLength":84816,
			"byteOffset":0,
			"target":34962
		},
		{
			"buffer":0,
			"byteLength":84816,
			"byteOffset":84816,
			"target":34962
		},
		{
			"buffer":0,
			"byteLength":56544,
			"byteOffset":169632,
			"target":34962
		},
		{
			"buffer":0,
			"byteLength":19584,
			"byteOffset":226176,
			"target":34963
		},
		{
			"buffer":0,
			"byteLength":137304,
			"byteOffset":245760,
			"target":34962
		},
		{
			"buffer":0,
			"byteLength":137304,
			"byteOffset":383064,
			"target":34962
		},
		{
			"buffer":0,
			"byteLength":91536,
			"byteOffset":520368,
			"target":34962
		},
		{
			"buffer":0,
			"byteLength":31488,
			"byteOffset":611904,
			"target":34963
		},
		{
			"buffer":0,
			"byteLength":220656,
			"byteOffset":643392,
			"target":34962
		},
		{
			"buffer":0,
			"byteLength":220656,
			"byteOffset":864048,
			"target":34962
		},
		{
			"buffer":0,
			"byteLength":147104,
			"byteOffset":1084704,
			"target":34962
		},
		{
			"buffer":0,
			"byteLength":52512,
			"byteOffset":1231808,
			"target":34963
		},
		{
			"buffer":0,
			"byteLength":84000,
			"byteOffset":1284320,
			"target":34962
		},
		{
			"buffer":0,
			"byteLength":84000,
			"byteOffset":1368320,
			"target":34962
		},
		{
			"buffer":0,
			"byteLength":56000,
			"byteOffset":1452320,
			"target":34962
		},
		{
			"buffer":0,
			"byteLength":20736,
			"byteOffset":1508320,
			"target":34963
		}
	],
	"samplers":[
		{
			"magFilter":9729,
			"minFilter":9987
		}
	],
	"buffers":[
		{
			"byteLength":1529056,
			"uri":"stylishHat.bin"
		}
	]
}
