{
	"asset":{
		"generator":"Khronos glTF Blender I/O v3.6.27",
		"version":"2.0"
	},
	"scene":0,
	"scenes":[
		{
			"name":"Scene",
			"nodes":[
				0
			]
		}
	],
	"nodes":[
		{
			"mesh":0,
			"name":"gasMask2"
		}
	],
	"materials":[
		{
			"doubleSided":true,
			"name":"material_3",
			"normalTexture":{
				"index":0
			},
			"pbrMetallicRoughness":{
				"baseColorTexture":{
					"index":1
				},
				"metallicRoughnessTexture":{
					"index":2
				}
			}
		}
	],
	"meshes":[
		{
			"name":"defaultMaterial.009",
			"primitives":[
				{
					"attributes":{
						"POSITION":0,
						"NORMAL":1,
						"TEXCOORD_0":2
					},
					"indices":3,
					"material":0
				}
			]
		}
	],
	"textures":[
		{
			"sampler":0,
			"source":0
		},
		{
			"sampler":0,
			"source":1
		},
		{
			"sampler":0,
			"source":2
		}
	],
	"images":[
		{
			"mimeType":"image/png",
			"name":"material_3_normal",
			"uri":"texs/material_3_normal.png"
		},
		{
			"mimeType":"image/png",
			"name":"material_3_baseColor",
			"uri":"texs/material_3_baseColor.png"
		},
		{
			"mimeType":"image/png",
			"name":"material_3_metallicRoughness",
			"uri":"texs/material_3_metallicRoughness.png"
		}
	],
	"accessors":[
		{
			"bufferView":0,
			"componentType":5126,
			"count":2106,
			"max":[
				0.6669563055038452,
				0.35525763034820557,
				0.1806148886680603
			],
			"min":[
				-0.6672906279563904,
				-0.8111215233802795,
				-0.49401482939720154
			],
			"type":"VEC3"
		},
		{
			"bufferView":1,
			"componentType":5126,
			"count":2106,
			"type":"VEC3"
		},
		{
			"bufferView":2,
			"componentType":5126,
			"count":2106,
			"type":"VEC2"
		},
		{
			"bufferView":3,
			"componentType":5123,
			"count":7446,
			"type":"SCALAR"
		}
	],
	"bufferViews":[
		{
			"buffer":0,
			"byteLength":25272,
			"byteOffset":0,
			"target":34962
		},
		{
			"buffer":0,
			"byteLength":25272,
			"byteOffset":25272,
			"target":34962
		},
		{
			"buffer":0,
			"byteLength":16848,
			"byteOffset":50544,
			"target":34962
		},
		{
			"buffer":0,
			"byteLength":14892,
			"byteOffset":67392,
			"target":34963
		}
	],
	"samplers":[
		{
			"magFilter":9729,
			"minFilter":9987
		}
	],
	"buffers":[
		{
			"byteLength":82284,
			"uri":"gasMask2.bin"
		}
	]
}
