{
	"asset":{
		"generator":"Khronos glTF Blender I/O v3.6.27",
		"version":"2.0"
	},
	"scene":0,
	"scenes":[
		{
			"name":"Scene",
			"nodes":[
				0
			]
		}
	],
	"nodes":[
		{
			"mesh":0,
			"name":"tenguMask"
		}
	],
	"materials":[
		{
			"doubleSided":true,
			"name":"tenmask.001",
			"normalTexture":{
				"index":0
			},
			"occlusionTexture":{
				"index":1
			},
			"pbrMetallicRoughness":{
				"baseColorTexture":{
					"index":2
				},
				"metallicFactor":0,
				"metallicRoughnessTexture":{
					"index":1
				}
			}
		}
	],
	"meshes":[
		{
			"name":"tengumask_tenmask_0.001",
			"primitives":[
				{
					"attributes":{
						"POSITION":0,
						"NORMAL":1,
						"TEXCOORD_0":2
					},
					"indices":3,
					"material":0
				}
			]
		}
	],
	"textures":[
		{
			"sampler":0,
			"source":0
		},
		{
			"sampler":0,
			"source":1
		},
		{
			"sampler":0,
			"source":2
		}
	],
	"images":[
		{
			"mimeType":"image/png",
			"name":"tenmask_normal",
			"uri":"tex2/tenmask_normal.png"
		},
		{
			"mimeType":"image/png",
			"name":"tenmask_metallicRoughness",
			"uri":"tex2/tenmask_metallicRoughness.png"
		},
		{
			"mimeType":"image/png",
			"name":"tenmask_baseColor",
			"uri":"tex2/tenmask_baseColor.png"
		}
	],
	"accessors":[
		{
			"bufferView":0,
			"componentType":5126,
			"count":871,
			"max":[
				0.3949052691459656,
				0.704174816608429,
				0.17269213497638702
			],
			"min":[
				-0.395073264837265,
				-0.47057273983955383,
				-0.7535715699195862
			],
			"type":"VEC3"
		},
		{
			"bufferView":1,
			"componentType":5126,
			"count":871,
			"type":"VEC3"
		},
		{
			"bufferView":2,
			"componentType":5126,
			"count":871,
			"type":"VEC2"
		},
		{
			"bufferView":3,
			"componentType":5123,
			"count":3900,
			"type":"SCALAR"
		}
	],
	"bufferViews":[
		{
			"buffer":0,
			"byteLength":10452,
			"byteOffset":0,
			"target":34962
		},
		{
			"buffer":0,
			"byteLength":10452,
			"byteOffset":10452,
			"target":34962
		},
		{
			"buffer":0,
			"byteLength":6968,
			"byteOffset":20904,
			"target":34962
		},
		{
			"buffer":0,
			"byteLength":7800,
			"byteOffset":27872,
			"target":34963
		}
	],
	"samplers":[
		{
			"magFilter":9729,
			"minFilter":9987
		}
	],
	"buffers":[
		{
			"byteLength":35672,
			"uri":"tenguMask.bin"
		}
	]
}
