<?xml version="1.0" encoding="UTF-8" standalone="no"?>
<svg
   width="32"
   height="32"
   viewBox="0 0 24.003008 24.002979"
   version="1.1"
   id="svg1"
   sodipodi:docname="threeDim_threeDGlassesIcon.svg"
   inkscape:version="1.3.2 (091e20e, 2023-11-25, custom)"
   xmlns:inkscape="http://www.inkscape.org/namespaces/inkscape"
   xmlns:sodipodi="http://sodipodi.sourceforge.net/DTD/sodipodi-0.dtd"
   xmlns:xlink="http://www.w3.org/1999/xlink"
   xmlns="http://www.w3.org/2000/svg"
   xmlns:svg="http://www.w3.org/2000/svg">
  <defs
     id="defs1">
    <linearGradient
       id="linearGradient3"
       inkscape:collect="always">
      <stop
         style="stop-color:#2e91f5;stop-opacity:0.40476191;"
         offset="0"
         id="stop4" />
      <stop
         style="stop-color:#2e91f5;stop-opacity:0.84848487;"
         offset="0.90065145"
         id="stop3" />
    </linearGradient>
    <linearGradient
       id="linearGradient1"
       inkscape:collect="always">
      <stop
         style="stop-color:#f56314;stop-opacity:0.84848487;"
         offset="0"
         id="stop1" />
      <stop
         style="stop-color:#f56314;stop-opacity:0.40476191;"
         offset="1"
         id="stop2" />
    </linearGradient>
    <linearGradient
       inkscape:collect="always"
       xlink:href="#linearGradient1"
       id="linearGradient2"
       x1="0.18752371"
       y1="12.001489"
       x2="22.690426"
       y2="12.001489"
       gradientUnits="userSpaceOnUse" />
    <linearGradient
       inkscape:collect="always"
       xlink:href="#linearGradient3"
       id="linearGradient4"
       x1="1.3126645"
       y1="11.250592"
       x2="23.815566"
       y2="11.250592"
       gradientUnits="userSpaceOnUse" />
  </defs>
  <sodipodi:namedview
     id="namedview1"
     pagecolor="#ffffff"
     bordercolor="#000000"
     borderopacity="0.25"
     inkscape:showpageshadow="2"
     inkscape:pageopacity="0.0"
     inkscape:pagecheckerboard="0"
     inkscape:deskcolor="#d1d1d1"
     inkscape:document-units="mm"
     inkscape:zoom="14.429693"
     inkscape:cx="14.068213"
     inkscape:cy="20.963717"
     inkscape:window-width="1920"
     inkscape:window-height="1009"
     inkscape:window-x="-8"
     inkscape:window-y="-8"
     inkscape:window-maximized="1"
     inkscape:current-layer="svg1" />
  <path
     id="Selection-0"
     style="fill:url(#linearGradient4);stroke:#2e91f5;stroke-width:0.450056;stroke-linecap:round;stroke-linejoin:round;stroke-dasharray:none;stroke-opacity:1"
     d="m 1.5376925,7.8947246 h 9.5881935 c 0.404302,1.8952661 2.403441,1.9016581 2.876458,0 h 9.588194 V 14.60646 h -6.072522 c -1.901659,-0.0032 -1.04831,-0.41389 -2.55845,-1.724277 -0.636017,-0.549722 -1.550091,-0.899692 -2.395451,-0.899692 -0.950828,0 -1.866502,0.402704 -2.553655,1.041917 -1.3503372,1.252857 -0.6679774,1.572464 -2.2404414,1.582052 H 1.5376925 Z M 10.007264,9.0133472 H 2.6563151 V 13.64764 h 3.6754744 c 0.3819297,0 1.3998763,0.04155 1.7066986,-0.09109 0.3451749,-0.150211 0.5361389,-0.505773 1.0243388,-1.021139 0.4881989,-0.515365 0.9236622,-0.691948 0.9444371,-1.764227 z m 12.464652,0 h -7.510752 v 1.5980318 c 0.008,1.243269 0.34917,1.203319 0.931653,1.786601 0.582482,0.583281 0.728702,0.970005 1.172956,1.153778 0.333987,0.137431 1.326366,0.09588 1.730668,0.09588 h 3.515671 z" />
  <path
     id="Selection"
     style="fill:url(#linearGradient2);stroke:#f56314;stroke-width:0.450056;stroke-linecap:round;stroke-linejoin:round;stroke-dasharray:none;stroke-opacity:1"
     d="m 0.4125517,8.6456219 h 9.5881943 c 0.404302,1.8952661 2.403441,1.9016581 2.876458,0 h 9.588194 v 6.7117351 h -6.072522 c -1.901659,-0.0032 -1.04831,-0.41389 -2.55845,-1.724277 -0.636017,-0.549722 -1.550091,-0.899692 -2.395451,-0.899692 -0.950828,0 -1.8665024,0.402704 -2.5536559,1.041917 -1.3503372,1.252857 -0.6679774,1.572464 -2.2404414,1.582052 H 0.4125517 Z M 8.8821233,9.7642445 H 1.5311742 v 4.6342925 h 3.6754744 c 0.3819297,0 1.3998763,0.04155 1.7066986,-0.09109 0.3451749,-0.150211 0.5361389,-0.505773 1.0243388,-1.021139 0.4881989,-0.515365 0.9236622,-0.691948 0.9444373,-1.764227 z m 12.4646527,0 h -7.510752 v 1.5980315 c 0.008,1.243269 0.34917,1.203319 0.931653,1.786601 0.582482,0.583281 0.728702,0.970005 1.172956,1.153778 0.333987,0.137431 1.326366,0.09588 1.730668,0.09588 h 3.515671 z" />
</svg>
