{
	"asset":{
		"generator":"Khronos glTF Blender I/O v3.6.27",
		"version":"2.0"
	},
	"scene":0,
	"scenes":[
		{
			"name":"Scene",
			"nodes":[
				0
			]
		}
	],
	"nodes":[
		{
			"mesh":0,
			"name":"mechanicalGrasshopper"
		}
	],
	"materials":[
		{
			"doubleSided":true,
			"emissiveFactor":[
				1,
				1,
				1
			],
			"emissiveTexture":{
				"index":0
			},
			"name":"DefaultMaterial.001",
			"normalTexture":{
				"index":1
			},
			"occlusionTexture":{
				"index":2
			},
			"pbrMetallicRoughness":{
				"baseColorTexture":{
					"index":3
				},
				"metallicRoughnessTexture":{
					"index":2
				}
			}
		}
	],
	"meshes":[
		{
			"name":"defaultMaterial.005",
			"primitives":[
				{
					"attributes":{
						"POSITION":0,
						"NORMAL":1,
						"TEXCOORD_0":2
					},
					"indices":3,
					"material":0
				}
			]
		}
	],
	"textures":[
		{
			"sampler":0,
			"source":0
		},
		{
			"sampler":0,
			"source":1
		},
		{
			"sampler":0,
			"source":2
		},
		{
			"sampler":0,
			"source":3
		}
	],
	"images":[
		{
			"mimeType":"image/jpeg",
			"name":"DefaultMaterial_emissive",
			"uri":"texs/DefaultMaterial_emissive.jpg"
		},
		{
			"mimeType":"image/png",
			"name":"DefaultMaterial_normal",
			"uri":"texs/DefaultMaterial_normal.png"
		},
		{
			"mimeType":"image/png",
			"name":"DefaultMaterial_metallicRoughness",
			"uri":"texs/DefaultMaterial_metallicRoughness.png"
		},
		{
			"mimeType":"image/png",
			"name":"DefaultMaterial_baseColor",
			"uri":"texs/DefaultMaterial_baseColor.png"
		}
	],
	"accessors":[
		{
			"bufferView":0,
			"componentType":5126,
			"count":20116,
			"max":[
				0.578577995300293,
				0.7104710340499878,
				1.6486419439315796
			],
			"min":[
				-0.578577995300293,
				-0.276962548494339,
				-0.3488251864910126
			],
			"type":"VEC3"
		},
		{
			"bufferView":1,
			"componentType":5126,
			"count":20116,
			"type":"VEC3"
		},
		{
			"bufferView":2,
			"componentType":5126,
			"count":20116,
			"type":"VEC2"
		},
		{
			"bufferView":3,
			"componentType":5123,
			"count":50280,
			"type":"SCALAR"
		}
	],
	"bufferViews":[
		{
			"buffer":0,
			"byteLength":241392,
			"byteOffset":0,
			"target":34962
		},
		{
			"buffer":0,
			"byteLength":241392,
			"byteOffset":241392,
			"target":34962
		},
		{
			"buffer":0,
			"byteLength":160928,
			"byteOffset":482784,
			"target":34962
		},
		{
			"buffer":0,
			"byteLength":100560,
			"byteOffset":643712,
			"target":34963
		}
	],
	"samplers":[
		{
			"magFilter":9729,
			"minFilter":9987
		}
	],
	"buffers":[
		{
			"byteLength":744272,
			"uri":"mechanicalGrasshopper.bin"
		}
	]
}
