{
	"asset":{
		"generator":"Khronos glTF Blender I/O v3.6.27",
		"version":"2.0"
	},
	"scene":0,
	"scenes":[
		{
			"name":"Scene",
			"nodes":[
				0
			]
		}
	],
	"nodes":[
		{
			"mesh":0,
			"name":"cat2"
		}
	],
	"materials":[
		{
			"doubleSided":true,
			"name":"Material1-material.001",
			"pbrMetallicRoughness":{
				"baseColorTexture":{
					"index":0
				},
				"metallicFactor":0,
				"roughnessFactor":0.8211145401000977
			}
		}
	],
	"meshes":[
		{
			"name":"cat_Material1-material.008_0.001",
			"primitives":[
				{
					"attributes":{
						"POSITION":0,
						"NORMAL":1,
						"TEXCOORD_0":2
					},
					"indices":3,
					"material":0
				}
			]
		}
	],
	"textures":[
		{
			"sampler":0,
			"source":0
		}
	],
	"images":[
		{
			"mimeType":"image/png",
			"name":"Material1-material.008_baseColor",
			"uri":"texs2/Material1-material_008_baseColor.png"
		}
	],
	"accessors":[
		{
			"bufferView":0,
			"componentType":5126,
			"count":2365,
			"max":[
				0.6390619277954102,
				0.8500248193740845,
				0.6662161946296692
			],
			"min":[
				-0.6390618085861206,
				-0.7922927737236023,
				-0.6662161350250244
			],
			"type":"VEC3"
		},
		{
			"bufferView":1,
			"componentType":5126,
			"count":2365,
			"type":"VEC3"
		},
		{
			"bufferView":2,
			"componentType":5126,
			"count":2365,
			"type":"VEC2"
		},
		{
			"bufferView":3,
			"componentType":5123,
			"count":12822,
			"type":"SCALAR"
		}
	],
	"bufferViews":[
		{
			"buffer":0,
			"byteLength":28380,
			"byteOffset":0,
			"target":34962
		},
		{
			"buffer":0,
			"byteLength":28380,
			"byteOffset":28380,
			"target":34962
		},
		{
			"buffer":0,
			"byteLength":18920,
			"byteOffset":56760,
			"target":34962
		},
		{
			"buffer":0,
			"byteLength":25644,
			"byteOffset":75680,
			"target":34963
		}
	],
	"samplers":[
		{
			"magFilter":9729,
			"minFilter":9987
		}
	],
	"buffers":[
		{
			"byteLength":101324,
			"uri":"cat2.bin"
		}
	]
}
