{
	"asset":{
		"generator":"Khronos glTF Blender I/O v3.6.27",
		"version":"2.0"
	},
	"extensionsUsed":[
		"KHR_materials_specular"
	],
	"scene":0,
	"scenes":[
		{
			"name":"Scene",
			"nodes":[
				0
			]
		}
	],
	"nodes":[
		{
			"mesh":0,
			"name":"seamanHat"
		}
	],
	"materials":[
		{
			"doubleSided":true,
			"extensions":{
				"KHR_materials_specular":{
					"specularColorTexture":{
						"index":0
					},
					"specularColorFactor":[
						1.2586206197738645,
						1,
						1
					]
				}
			},
			"name":"Scene_-_Root.003",
			"normalTexture":{
				"index":1
			},
			"pbrMetallicRoughness":{
				"baseColorTexture":{
					"index":2
				},
				"metallicRoughnessTexture":{
					"index":3
				}
			}
		}
	],
	"meshes":[
		{
			"name":"Circle.001__0.001",
			"primitives":[
				{
					"attributes":{
						"POSITION":0,
						"NORMAL":1,
						"TEXCOORD_0":2
					},
					"indices":3,
					"material":0
				}
			]
		}
	],
	"textures":[
		{
			"sampler":0,
			"source":0
		},
		{
			"sampler":0,
			"source":1
		},
		{
			"sampler":0,
			"source":2
		},
		{
			"sampler":0,
			"source":3
		}
	],
	"images":[
		{
			"mimeType":"image/png",
			"name":"Image",
			"uri":"texs2/Image.png"
		},
		{
			"mimeType":"image/png",
			"name":"Scene_-_Root_normal",
			"uri":"texs2/Scene_-_Root_normal.png"
		},
		{
			"mimeType":"image/png",
			"name":"Scene_-_Root_baseColor",
			"uri":"texs2/Scene_-_Root_baseColor.png"
		},
		{
			"mimeType":"image/png",
			"name":"Scene_-_Root_metallicRoughness",
			"uri":"texs2/Scene_-_Root_metallicRoughness.png"
		}
	],
	"accessors":[
		{
			"bufferView":0,
			"componentType":5126,
			"count":2554,
			"max":[
				1.043962836265564,
				0.5887826681137085,
				1.0693705081939697
			],
			"min":[
				-1.095622181892395,
				-0.6933909058570862,
				-0.7662919759750366
			],
			"type":"VEC3"
		},
		{
			"bufferView":1,
			"componentType":5126,
			"count":2554,
			"type":"VEC3"
		},
		{
			"bufferView":2,
			"componentType":5126,
			"count":2554,
			"type":"VEC2"
		},
		{
			"bufferView":3,
			"componentType":5123,
			"count":12432,
			"type":"SCALAR"
		}
	],
	"bufferViews":[
		{
			"buffer":0,
			"byteLength":30648,
			"byteOffset":0,
			"target":34962
		},
		{
			"buffer":0,
			"byteLength":30648,
			"byteOffset":30648,
			"target":34962
		},
		{
			"buffer":0,
			"byteLength":20432,
			"byteOffset":61296,
			"target":34962
		},
		{
			"buffer":0,
			"byteLength":24864,
			"byteOffset":81728,
			"target":34963
		}
	],
	"samplers":[
		{
			"magFilter":9729,
			"minFilter":9987
		}
	],
	"buffers":[
		{
			"byteLength":106592,
			"uri":"seamanHat.bin"
		}
	]
}
