{
  "asset": {
    "generator": "Khronos glTF Blender I/O v3.6.27",
    "version": "2.0"
  },
  "scene": 0,
  "scenes": [
    {
      "name": "Scene",
      "nodes": [0]
    }
  ],
  "nodes": [
    {
      "mesh": 0,
      "name": "bloodyGlasses"
    }
  ],
  "materials": [
    {
      "alphaMode": "BLEND",
      "name": "Glasses_PBR",
      "normalTexture": {
        "index": 0
      },
      "pbrMetallicRoughness": {
        "baseColorTexture": {
          "index": 1
        },
        "metallicRoughnessTexture": {
          "index": 2
        }
      }
    }
  ],
  "meshes": [
    {
      "name": "Object_4.001",
      "primitives": [
        {
          "attributes": {
            "POSITION": 0,
            "NORMAL": 1,
            "TEXCOORD_0": 2,
            "TEXCOORD_1": 3,
            "TEXCOORD_2": 4,
            "TEXCOORD_3": 5
          },
          "indices": 6,
          "material": 0
        }
      ]
    }
  ],
  "textures": [
    {
      "sampler": 0,
      "source": 0
    },
    {
      "sampler": 0,
      "source": 1
    },
    {
      "sampler": 0,
      "source": 2
    }
  ],
  "images": [
    {
      "mimeType": "image/png",
      "name": "Glasses_PBR_Sheesha_normal",
      "uri": "texs/Glasses_PBR_Sheesha_normal.png"
    },
    {
      "mimeType": "image/png",
      "name": "Glasses_PBR_Sheesha_baseColor",
      "uri": "texs/Glasses_PBR_Sheesha_baseColor.png"
    },
    {
      "mimeType": "image/png",
      "name": "Glasses_PBR_Sheesha_metallicRoughness",
      "uri": "texs/Glasses_PBR_Sheesha_metallicRoughness.png"
    }
  ],
  "accessors": [
    {
      "bufferView": 0,
      "componentType": 5126,
      "count": 3266,
      "max": [0.780382513999939, 0.24000932276248932, 1.2153254747390747],
      "min": [-0.7716238498687744, -0.28261303901672363, -0.17295736074447632],
      "type": "VEC3"
    },
    {
      "bufferView": 1,
      "componentType": 5126,
      "count": 3266,
      "type": "VEC3"
    },
    {
      "bufferView": 2,
      "componentType": 5126,
      "count": 3266,
      "type": "VEC2"
    },
    {
      "bufferView": 3,
      "componentType": 5126,
      "count": 3266,
      "type": "VEC2"
    },
    {
      "bufferView": 4,
      "componentType": 5126,
      "count": 3266,
      "type": "VEC2"
    },
    {
      "bufferView": 5,
      "componentType": 5126,
      "count": 3266,
      "type": "VEC2"
    },
    {
      "bufferView": 6,
      "componentType": 5123,
      "count": 13797,
      "type": "SCALAR"
    }
  ],
  "bufferViews": [
    {
      "buffer": 0,
      "byteLength": 39192,
      "byteOffset": 0,
      "target": 34962
    },
    {
      "buffer": 0,
      "byteLength": 39192,
      "byteOffset": 39192,
      "target": 34962
    },
    {
      "buffer": 0,
      "byteLength": 26128,
      "byteOffset": 78384,
      "target": 34962
    },
    {
      "buffer": 0,
      "byteLength": 26128,
      "byteOffset": 104512,
      "target": 34962
    },
    {
      "buffer": 0,
      "byteLength": 26128,
      "byteOffset": 130640,
      "target": 34962
    },
    {
      "buffer": 0,
      "byteLength": 26128,
      "byteOffset": 156768,
      "target": 34962
    },
    {
      "buffer": 0,
      "byteLength": 27594,
      "byteOffset": 182896,
      "target": 34963
    }
  ],
  "samplers": [
    {
      "magFilter": 9729,
      "minFilter": 9987
    }
  ],
  "buffers": [
    {
      "byteLength": 210492,
      "uri": "bloodyGlasses.bin"
    }
  ]
}
