{
  "asset": {
    "generator": "Khronos glTF Blender I/O v3.6.27",
    "version": "2.0"
  },
  "scene": 0,
  "scenes": [
    {
      "name": "Scene",
      "nodes": [0]
    }
  ],
  "nodes": [
    {
      "mesh": 0,
      "name": "fullMustache"
    }
  ],
  "materials": [
    {
      "doubleSided": true,
      "name": "Mustache.001",
      "normalTexture": {
        "index": 0
      },
      "pbrMetallicRoughness": {
        "baseColorTexture": {
          "index": 1
        },
        "metallicFactor": 0,
        "metallicRoughnessTexture": {
          "index": 2
        }
      }
    }
  ],
  "meshes": [
    {
      "name": "Sphere.003_Mustache_0.001",
      "primitives": [
        {
          "attributes": {
            "POSITION": 0,
            "NORMAL": 1,
            "TEXCOORD_0": 2,
            "TEXCOORD_1": 3,
            "TEXCOORD_2": 4
          },
          "indices": 5,
          "material": 0
        }
      ]
    }
  ],
  "textures": [
    {
      "sampler": 0,
      "source": 0
    },
    {
      "sampler": 0,
      "source": 1
    },
    {
      "sampler": 0,
      "source": 2
    }
  ],
  "images": [
    {
      "mimeType": "image/png",
      "name": "Mustache_normal",
      "uri": "texs/Mustache_normal.png"
    },
    {
      "mimeType": "image/png",
      "name": "Mustache_baseColor",
      "uri": "texs/Mustache_baseColor.png"
    },
    {
      "mimeType": "image/png",
      "name": "Mustache_metallicRoughness",
      "uri": "texs/Mustache_metallicRoughness.png"
    }
  ],
  "accessors": [
    {
      "bufferView": 0,
      "componentType": 5126,
      "count": 1964,
      "max": [0.6737528443336487, 0.29050296545028687, 0.2547531723976135],
      "min": [-0.6733304262161255, -0.29818448424339294, -0.19771289825439453],
      "type": "VEC3"
    },
    {
      "bufferView": 1,
      "componentType": 5126,
      "count": 1964,
      "type": "VEC3"
    },
    {
      "bufferView": 2,
      "componentType": 5126,
      "count": 1964,
      "type": "VEC2"
    },
    {
      "bufferView": 3,
      "componentType": 5126,
      "count": 1964,
      "type": "VEC2"
    },
    {
      "bufferView": 4,
      "componentType": 5126,
      "count": 1964,
      "type": "VEC2"
    },
    {
      "bufferView": 5,
      "componentType": 5123,
      "count": 10794,
      "type": "SCALAR"
    }
  ],
  "bufferViews": [
    {
      "buffer": 0,
      "byteLength": 23568,
      "byteOffset": 0,
      "target": 34962
    },
    {
      "buffer": 0,
      "byteLength": 23568,
      "byteOffset": 23568,
      "target": 34962
    },
    {
      "buffer": 0,
      "byteLength": 15712,
      "byteOffset": 47136,
      "target": 34962
    },
    {
      "buffer": 0,
      "byteLength": 15712,
      "byteOffset": 62848,
      "target": 34962
    },
    {
      "buffer": 0,
      "byteLength": 15712,
      "byteOffset": 78560,
      "target": 34962
    },
    {
      "buffer": 0,
      "byteLength": 21588,
      "byteOffset": 94272,
      "target": 34963
    }
  ],
  "samplers": [
    {
      "magFilter": 9729,
      "minFilter": 9987
    }
  ],
  "buffers": [
    {
      "byteLength": 115860,
      "uri": "fullMustache.bin"
    }
  ]
}
