{
	"asset":{
		"generator":"Khronos glTF Blender I/O v3.6.27",
		"version":"2.0"
	},
	"scene":0,
	"scenes":[
		{
			"name":"Scene",
			"nodes":[
				0
			]
		}
	],
	"nodes":[
		{
			"mesh":0,
			"name":"panda2"
		}
	],
	"materials":[
		{
			"doubleSided":true,
			"name":"Material4-material.001",
			"pbrMetallicRoughness":{
				"baseColorTexture":{
					"index":0
				},
				"metallicFactor":0,
				"roughnessFactor":0.8211145401000977
			}
		}
	],
	"meshes":[
		{
			"name":"panda_Material4-material.010_0.001",
			"primitives":[
				{
					"attributes":{
						"POSITION":0,
						"NORMAL":1,
						"TEXCOORD_0":2
					},
					"indices":3,
					"material":0
				}
			]
		}
	],
	"textures":[
		{
			"sampler":0,
			"source":0
		}
	],
	"images":[
		{
			"mimeType":"image/png",
			"name":"Material4-material.010_baseColor",
			"uri":"texs2/Material4-material_010_baseColor.png"
		}
	],
	"accessors":[
		{
			"bufferView":0,
			"componentType":5126,
			"count":2004,
			"max":[
				0.5166990160942078,
				0.7330265641212463,
				1.0002386569976807
			],
			"min":[
				-0.5166990160942078,
				-0.7330265641212463,
				-1.0002386569976807
			],
			"type":"VEC3"
		},
		{
			"bufferView":1,
			"componentType":5126,
			"count":2004,
			"type":"VEC3"
		},
		{
			"bufferView":2,
			"componentType":5126,
			"count":2004,
			"type":"VEC2"
		},
		{
			"bufferView":3,
			"componentType":5123,
			"count":10896,
			"type":"SCALAR"
		}
	],
	"bufferViews":[
		{
			"buffer":0,
			"byteLength":24048,
			"byteOffset":0,
			"target":34962
		},
		{
			"buffer":0,
			"byteLength":24048,
			"byteOffset":24048,
			"target":34962
		},
		{
			"buffer":0,
			"byteLength":16032,
			"byteOffset":48096,
			"target":34962
		},
		{
			"buffer":0,
			"byteLength":21792,
			"byteOffset":64128,
			"target":34963
		}
	],
	"samplers":[
		{
			"magFilter":9729,
			"minFilter":9987
		}
	],
	"buffers":[
		{
			"byteLength":85920,
			"uri":"panda2.bin"
		}
	]
}
