{
	"asset":{
		"generator":"Khronos glTF Blender I/O v3.6.27",
		"version":"2.0"
	},
	"extensionsUsed":[
		"KHR_materials_specular",
		"KHR_materials_ior"
	],
	"scene":0,
	"scenes":[
		{
			"name":"Scene",
			"nodes":[
				0
			]
		}
	],
	"nodes":[
		{
			"mesh":0,
			"name":"rabbitEars"
		}
	],
	"materials":[
		{
			"doubleSided":true,
			"extensions":{
				"KHR_materials_specular":{
					"specularColorFactor":[
						0,
						0,
						0
					]
				},
				"KHR_materials_ior":{
					"ior":1.4500000476837158
				}
			},
			"name":"Material",
			"pbrMetallicRoughness":{
				"baseColorFactor":[
					0.800000011920929,
					0.800000011920929,
					0.800000011920929,
					1
				],
				"metallicFactor":0,
				"roughnessFactor":0
			}
		}
	],
	"meshes":[
		{
			"name":"Extract3_Extract3_0",
			"primitives":[
				{
					"attributes":{
						"POSITION":0,
						"NORMAL":1,
						"TEXCOORD_0":2
					},
					"indices":3,
					"material":0
				}
			]
		}
	],
	"accessors":[
		{
			"bufferView":0,
			"componentType":5126,
			"count":754,
			"max":[
				1.4011858701705933,
				0.41309037804603577,
				0.4090941548347473
			],
			"min":[
				-1.401186466217041,
				-1.4916044473648071,
				-0.6632972359657288
			],
			"type":"VEC3"
		},
		{
			"bufferView":1,
			"componentType":5126,
			"count":754,
			"type":"VEC3"
		},
		{
			"bufferView":2,
			"componentType":5126,
			"count":754,
			"type":"VEC2"
		},
		{
			"bufferView":3,
			"componentType":5123,
			"count":2712,
			"type":"SCALAR"
		}
	],
	"bufferViews":[
		{
			"buffer":0,
			"byteLength":9048,
			"byteOffset":0,
			"target":34962
		},
		{
			"buffer":0,
			"byteLength":9048,
			"byteOffset":9048,
			"target":34962
		},
		{
			"buffer":0,
			"byteLength":6032,
			"byteOffset":18096,
			"target":34962
		},
		{
			"buffer":0,
			"byteLength":5424,
			"byteOffset":24128,
			"target":34963
		}
	],
	"buffers":[
		{
			"byteLength":29552,
			"uri":"rabbitEars.bin"
		}
	]
}
