<?xml version="1.0" encoding="UTF-8" standalone="no"?>
<svg
   width="32"
   height="32"
   viewBox="0 0 24.002959 24.002976"
   version="1.1"
   id="svg1"
   sodipodi:docname="glassesIcon3.svg"
   inkscape:version="1.3.2 (091e20e, 2023-11-25, custom)"
   xmlns:inkscape="http://www.inkscape.org/namespaces/inkscape"
   xmlns:sodipodi="http://sodipodi.sourceforge.net/DTD/sodipodi-0.dtd"
   xmlns="http://www.w3.org/2000/svg"
   xmlns:svg="http://www.w3.org/2000/svg">
  <defs
     id="defs1" />
  <sodipodi:namedview
     id="namedview1"
     pagecolor="#ffffff"
     bordercolor="#000000"
     borderopacity="0.25"
     inkscape:showpageshadow="2"
     inkscape:pageopacity="0.0"
     inkscape:pagecheckerboard="0"
     inkscape:deskcolor="#d1d1d1"
     inkscape:document-units="mm"
     inkscape:zoom="22.627417"
     inkscape:cx="11.711456"
     inkscape:cy="17.390407"
     inkscape:window-width="1920"
     inkscape:window-height="1009"
     inkscape:window-x="-8"
     inkscape:window-y="-8"
     inkscape:window-maximized="1"
     inkscape:current-layer="svg1" />
  <path
     id="path1"
     style="fill:none;stroke:#fff;stroke-width:0.150019;stroke-linecap:round;stroke-linejoin:round;stroke-dasharray:none;stroke-opacity:1;fill-opacity:1"
     d="m 4.7728248,8.5987401 c 0.343656,0.4575853 -0.42431,2.7685509 -0.747207,2.9944429 -0.322897,0.225892 -2.354269,0.528006 -2.55203,0.05281 -0.197761,-0.475196 0.320566,-2.141135 0.925896,-2.7015066 0.60533,-0.5603716 2.029684,-0.8033316 2.373341,-0.3457463 z M 14.787692,8.7985636 c 0.543118,-0.1846324 1.271773,-0.3397134 1.723159,-0.3757811 0.599459,-0.047899 1.190517,-0.058358 1.795294,-0.026091 0.353303,0.01885 0.926304,0.045232 1.518472,0.1314691 0.680572,0.099112 2.303241,0.3581298 1.921984,0.6899261 -0.218317,0.1899945 -0.732971,0.061056 -1.192956,-0.013577 -0.459985,-0.074633 -0.801551,-0.1464321 -1.656883,-0.1852486 -0.855331,-0.038816 -2.419833,0.0099 -2.909837,0.068404 -0.6815,0.081362 -0.701075,0.09879 -1.132957,0.1894076 -0.431883,0.090618 -1.442691,0.4523656 -1.627583,0.2877401 -0.184891,-0.1646259 1.018189,-0.581616 1.561307,-0.7662492 z m -4.330843,0.4195227 c -0.222685,0.058322 -1.1787192,-0.060993 -1.5947522,-0.088134 -0.416032,-0.027141 -2.375268,-0.098262 -2.638533,-0.098262 -0.263264,0 -0.492145,0.02866 -0.649217,-0.080031 -0.157073,-0.1086915 -0.126451,-0.3994669 0.03924,-0.4683932 0.165689,-0.068927 0.243587,-0.08402 0.970459,-0.043909 0.591418,0.044595 4.4269042,0.3964401 3.8728052,0.7787287 m 4.393972,0.5592781 c 0.650365,-0.091554 1.283947,-0.081127 1.659619,-0.09535 0.37567,-0.014224 1.082385,-0.014224 1.458056,0 0.375672,0.014224 0.45192,0.012645 0.827424,0.036951 0.375504,0.024306 0.884364,0.057688 1.425937,0.1015647 0.541574,0.043877 1.594958,0.2001984 1.739794,0.2321464 0.144836,0.03195 0.502323,0.132097 0.459221,0.349751 -0.0431,0.217654 -0.393012,0.206779 -0.475856,0.20479 -0.08284,-0.002 -0.652052,-0.07342 -1.590608,-0.135864 -0.938556,-0.06245 -3.248525,-0.158094 -4.040729,-0.180473 -0.792205,-0.02238 -1.160919,-0.02209 -1.531028,-0.01366 -0.37011,0.0084 -1.421789,0.173665 -1.468776,-0.04157 -0.04699,-0.215235 0.886581,-0.3667323 1.536946,-0.4582861 z M 10.72195,10.079665 c -0.224342,0.05468 -1.2821962,0.07327 -1.5067522,0.08093 -0.224555,0.0077 -0.615663,0.03155 -1.077985,0.05163 -0.462322,0.02008 -1.200346,0.04893 -1.590607,0.06628 -0.390261,0.01735 -0.63232,0.03986 -0.809954,0.0451 -0.177635,0.0052 -0.582726,-0.01409 -0.624244,-0.247905 -0.05275,-0.297054 0.500201,-0.3871091 1.10282,-0.3936749 0.602619,-0.00657 5.1366102,0.098918 4.5067222,0.3976519 v -1.2e-5 m -1.5243322,1.087578 c -0.242567,0.04043 -1.832961,0.275167 -2.331356,0.334342 -0.550984,0.0548 -1.091103,0.121672 -1.642512,0.15345 -0.163369,-0.02949 -0.414413,-0.146568 -0.278356,-0.368491 0.140171,-0.228633 1.133308,-0.277031 1.269834,-0.290286 0.136528,-0.01326 2.419336,-0.253692 3.114941,-0.301552 1.0989742,-0.07561 1.3304692,0.06911 1.0804952,0.201895 -0.187127,0.09456 -0.7194192,0.195593 -1.2130492,0.270642 z m 4.2917042,-0.38603 c 0.07354,-0.196246 1.168037,-0.111542 1.70558,-0.04577 0.537543,0.06577 1.65068,0.187868 2.31266,0.24616 0.629748,0.04364 0.869656,0.06341 1.388851,0.09816 0.519194,0.03474 1.336659,0.0945 1.723158,0.127248 0.556723,0.04717 1.104514,0.09158 1.656883,0.13322 0.217433,0.03457 0.434766,0.150445 0.35391,0.387048 -0.08086,0.236603 -0.396326,0.206448 -0.486461,0.208105 -0.09013,0.0017 -0.114135,0.0024 -0.265101,0 -0.150966,-0.0024 -0.869086,-0.02604 -1.175375,-0.04577 -0.144515,-0.0093 -1.345325,-0.09334 -2.072116,-0.16433 -0.686141,-0.06701 -1.999587,-0.262278 -2.717287,-0.368491 -0.717701,-0.106213 -1.112893,-0.168212 -1.590607,-0.25516 -0.477715,-0.08695 -0.907634,-0.124172 -0.834095,-0.320418 z m 0.377396,0.78511 c 0.05656,-0.223107 1.525695,0.162027 2.275268,0.328378 0.749574,0.166351 3.057979,0.55134 3.814668,0.643114 0.358586,0.03339 0.360162,0.03544 0.795304,0.06031 0.435142,0.02487 1.71087,0.0378 1.70052,0.285922 -0.01035,0.248122 -0.484788,0.317827 -1.236593,0.310552 -0.456706,-0.0044 -1.397453,-0.06223 -2.364813,-0.224475 -1.389919,-0.233117 -2.871138,-0.536646 -3.360119,-0.674079 -0.831499,-0.233701 -1.680799,-0.506615 -1.624235,-0.729722 z m -3.760466,0.180827 c -0.1768792,0.118641 -0.9351282,0.356624 -1.7702142,0.604431 -0.836236,0.248148 -3.744444,0.681855 -4.042794,0.716436 -0.29835,0.03458 -0.509664,0.04576 -1.041428,0.06202 -0.531764,0.01626 -1.724336,0.07461 -1.87193,0.0059 -0.147594,-0.06875 -0.190204,-0.267053 -0.08072,-0.436789 0.109487,-0.169735 0.892381,-0.147413 1.337193,-0.16726 0.39535,-0.01764 1.047871,-0.06348 1.455127,-0.104371 0.49828,-0.05003 3.185546,-0.388875 3.708488,-0.498739 0.522943,-0.109862 2.7648072,-0.489143 2.3062772,-0.181586 z m 4.235228,0.55183 c 0.174031,-0.04876 2.011693,0.819114 2.789007,1.028663 0.777582,0.209621 3.478627,0.526216 4.272735,0.544468 0.348941,0.008 0.441138,-0.0074 0.602896,0.04688 0.166072,0.05576 0.100032,0.390451 0,0.485799 -0.103477,0.09863 -0.137523,0.103058 -1.187654,0.115319 -0.796441,-0.01662 -2.187245,-0.189406 -3.376565,-0.514391 -0.658862,-0.180036 -1.243705,-0.453492 -1.66036,-0.661996 -1.294578,-0.671497 -1.61409,-0.995984 -1.440059,-1.044743 z m -4.5473852,0.100319 c -0.02621,0.224786 -0.46405,0.423604 -1.325507,0.845011 -0.481836,0.229306 -1.475981,0.555043 -2.425236,0.783139 -0.781368,0.187754 -1.522483,0.325476 -1.816384,0.36011 -0.577339,0.06803 -1.730884,0.01928 -1.855709,0 -0.124825,-0.01928 -0.861682,-0.10489 -0.89803,-0.331377 -0.03635,-0.226487 0.161534,-0.241808 0.238591,-0.244555 0.07706,-0.0027 0.810978,0.05031 1.123367,0.04573 0.312389,-0.0046 0.642836,-0.02067 0.994129,-0.06628 0.351293,-0.04561 2.668009,-0.537143 3.128475,-0.668229 0.460466,-0.131085 2.862519,-0.948335 2.836304,-0.723549 z m 5.1434592,0.944319 c 0.06811,-0.08526 0.878793,0.550521 1.506751,0.890845 0.627959,0.340323 1.555802,0.764816 2.584737,0.876159 1.028935,0.111344 1.383059,0.06181 1.855709,0 0.47265,-0.06181 0.882917,-0.13864 0.795304,0.138516 -0.08761,0.277156 -1.341832,0.546853 -2.10909,0.484437 -0.73512,-0.0598 -1.252197,-0.178579 -1.852222,-0.403758 -0.780075,-0.292749 -1.399559,-0.6507 -1.810501,-0.932596 -0.724222,-0.4968 -1.038797,-0.96834 -0.970688,-1.053603 z M 8.6732738,13.65853 c 0.07051,0.08309 -0.319011,0.426151 -0.999989,0.858266 -0.395506,0.250969 -1.064702,0.619432 -1.799316,0.860532 -0.530235,0.174022 -1.054862,0.247146 -1.51445,0.269462 -0.913532,0.04436 -1.149759,-0.0059 -1.590607,-0.141167 -0.440848,-0.135236 -0.769182,-0.304524 -0.729029,-0.521587 0.03973,-0.214784 0.804494,0.007 1.259231,0.06628 0.474167,0.0618 1.544215,0.0232 2.385911,-0.175629 0.841696,-0.198826 1.72025,-0.597982 2.106161,-0.82 0.385911,-0.222019 0.811582,-0.479243 0.882088,-0.396157 z M 11.994682,7.4088312 c 1.136525,-0.00251 2.263474,-0.00164 2.744434,-0.00223 0.929928,-0.00113 1.7853,-0.010021 2.534984,0 0.749684,0.010021 2.66266,-0.1771272 4.225099,0.7921484 1.562439,0.9692754 1.857222,4.1589224 1.581992,5.3934844 -0.27523,1.234562 -0.599793,1.795399 -1.316891,2.360064 -0.717098,0.564665 -1.301777,0.698479 -2.518462,0.622325 C 17.407595,16.357587 15.13782,14.397332 14.601263,13.724785 14.064707,13.052242 14.007059,13.001265 13.699258,12.465556 13.391456,11.929847 13.099057,11.258564 12.934012,10.604715 12.770377,9.9564493 12.708059,9.4312305 11.999687,9.4223098 m 0.0086,-2.0134588 c -1.136525,-0.00251 -2.2634762,-0.00164 -2.7444362,-0.00223 -0.929927,-0.00113 -1.785299,-0.010021 -2.534983,0 -0.749684,0.010021 -2.66266,-0.1771272 -4.225099,0.7921484 -1.56243895,0.9692754 -1.85722195,4.1589226 -1.58199195,5.3934846 0.27522995,1.234562 0.59979295,1.795399 1.31689095,2.360064 0.717098,0.564665 1.30432,0.731782 2.518462,0.622325 1.884736,-0.169912 4.108018,-2.177291 4.644574,-2.849838 0.536598,-0.672543 0.594247,-0.72352 0.9020492,-1.259229 0.307802,-0.535709 0.600201,-1.206992 0.765246,-1.860841 0.163635,-0.6482659 0.225953,-1.1734847 0.934325,-1.1824054" />
</svg>
