<?xml version="1.0" encoding="UTF-8" standalone="no"?>
<svg
   width="32"
   height="32"
   viewBox="0 0 23.999996 23.999941"
   version="1.1"
   id="svg1"
   sodipodi:docname="defaultGlassesIcon.svg"
   inkscape:version="1.3.2 (091e20e, 2023-11-25, custom)"
   xmlns:inkscape="http://www.inkscape.org/namespaces/inkscape"
   xmlns:sodipodi="http://sodipodi.sourceforge.net/DTD/sodipodi-0.dtd"
   xmlns="http://www.w3.org/2000/svg"
   xmlns:svg="http://www.w3.org/2000/svg">
  <defs
     id="defs1" />
  <sodipodi:namedview
     id="namedview1"
     pagecolor="#ffffff"
     bordercolor="#000000"
     borderopacity="0.25"
     inkscape:showpageshadow="2"
     inkscape:pageopacity="0.0"
     inkscape:pagecheckerboard="0"
     inkscape:deskcolor="#d1d1d1"
     inkscape:document-units="in"
     inkscape:zoom="22.066102"
     inkscape:cx="10.559183"
     inkscape:cy="20.551885"
     inkscape:window-width="1920"
     inkscape:window-height="1009"
     inkscape:window-x="-8"
     inkscape:window-y="-8"
     inkscape:window-maximized="1"
     inkscape:current-layer="svg1" />
  <path
     id="Selection"
     fill="none"
     stroke="#fff"
     stroke-width="0.0578533"
     d="m 0.97510357,8.5890806 c 0,0 0.90718343,-0.10402 0.90718343,-0.10402 0,0 1.705232,-0.1233449 1.705232,-0.1233449 0,0 0.8526161,-0.056841 0.8526161,-0.056841 0,0 2.2168017,0 2.2168017,0 0.7122186,0.00111 2.1571192,0.2438482 2.842054,0.4558655 0,0 1.2505052,0.4984966 1.2505052,0.4984966 0.259758,0.076744 1.07259,0.1290284 1.364182,0.125618 0.187011,-0.00226 0.915714,-0.069346 1.079979,-0.1159557 0,0 1.307349,-0.5081589 1.307349,-0.5081589 0.684931,-0.2120173 2.129832,-0.454729 2.842055,-0.4558655 0,0 2.159961,0 2.159961,0 0,0 0.852614,0.056841 0.852614,0.056841 0,0 1.762073,0.1233449 1.762073,0.1233449 0,0 0.907184,0.10402 0.907184,0.10402 0,0 0,0.8526159 0,0.8526159 0,0 -0.05453,0.5115698 -0.05453,0.5115698 -0.611041,0.2398697 -0.628663,0.6320737 -0.738933,1.1936627 0,0 -0.381976,1.705234 -0.381976,1.705234 -0.171116,0.572957 -0.411555,1.234019 -0.784432,1.705232 -0.807137,1.022 -1.953623,1.150457 -3.153539,1.136815 -1.050997,-0.01253 -2.558422,-0.387087 -3.351354,-1.097032 -0.359237,-0.321717 -0.776447,-0.97937 -1.024848,-1.403973 -0.228498,-0.391629 -0.497352,-1.03962 -0.617289,-1.477866 -0.128462,-0.468938 -0.181321,-0.99358 -0.747462,-1.137958 -0.345592,-0.0881 -0.681522,0.106861 -0.861141,0.399025 -0.109706,0.177912 -0.191553,0.625251 -0.259767,0.852617 -0.121636,0.40357 -0.372877,1.00097 -0.58489,1.364182 -0.248397,0.424603 -0.6656109,1.082256 -1.0248467,1.403973 C 8.646944,15.307123 7.1395192,15.681711 6.0885272,15.69421 4.8886125,15.707843 3.7421274,15.579395 2.9349848,14.557395 2.5621065,14.086182 2.3216692,13.42512 2.1505776,12.852163 c 0,0 -0.3819721,-1.705234 -0.3819721,-1.705234 C 1.6600388,10.58534 1.6384398,10.191999 1.029672,9.9532663 c 0,0 -0.0545667,-0.5115698 -0.0545667,-0.5115698 z M 4.6674991,8.9949253 C 3.9547122,9.1120186 3.2203251,9.2677622 2.7712814,9.8964245 2.4705913,10.31648 2.50697,10.719484 2.5075382,11.20377 c 0.00175,1.123176 0.4410872,2.6522 1.3664599,3.357605 0.4916752,0.375149 1.2618714,0.557041 1.8734818,0.564428 0.9316254,0.01078 2.2401068,-0.197238 3.0125767,-0.741209 1.0498542,-0.739503 1.4920794,-2.179852 1.4778694,-3.408188 -0.0028,-0.231344 -0.03239,-0.459845 -0.10061,-0.682093 C 9.9423509,9.6633764 9.4250972,9.3382457 8.8168978,9.1660168 7.9102822,8.9102321 6.9644477,8.9869678 6.0316854,8.9949253 Z m 11.3113739,0 c -0.619568,0.1028824 -1.367593,0.2438483 -1.806977,0.73325 -0.411529,0.4587087 -0.416647,1.0686127 -0.409823,1.6461167 0.01134,0.96403 0.488831,2.030932 1.146481,2.726095 0.646855,0.684375 2.081522,1.01462 3.002915,1.025416 0.683797,0.0082 1.386354,-0.06595 1.989439,-0.417778 0.305804,-0.178484 0.48997,-0.385384 0.701985,-0.662205 0.699146,-0.913437 0.891269,-2.003075 0.889563,-3.126256 -5.85e-4,-0.236458 0.003,-0.393908 -0.06932,-0.625251 C 21.249747,9.7406808 20.816048,9.4291918 20.298794,9.2257 19.467778,8.8994329 18.192835,8.9869678 17.286219,8.9949253 Z"
     style="stroke:#fff;stroke-width:0.450207;stroke-dasharray:none;stroke-opacity:1" />
</svg>
