<?xml version="1.0" encoding="UTF-8" standalone="no"?>
<svg
   width="32"
   height="32"
   viewBox="0 0 99.999734 99.999821"
   version="1.1"
   id="svg1"
   sodipodi:docname="glassesOffIcon2.svg"
   inkscape:version="1.3.2 (091e20e, 2023-11-25, custom)"
   xmlns:inkscape="http://www.inkscape.org/namespaces/inkscape"
   xmlns:sodipodi="http://sodipodi.sourceforge.net/DTD/sodipodi-0.dtd"
   xmlns="http://www.w3.org/2000/svg"
   xmlns:svg="http://www.w3.org/2000/svg">
  <defs
     id="defs1" />
  <sodipodi:namedview
     id="namedview1"
     pagecolor="#ffffff"
     bordercolor="#000000"
     borderopacity="0.25"
     inkscape:showpageshadow="2"
     inkscape:pageopacity="0.0"
     inkscape:pagecheckerboard="0"
     inkscape:deskcolor="#d1d1d1"
     inkscape:document-units="mm"
     inkscape:zoom="19.50431"
     inkscape:cx="20.687735"
     inkscape:cy="18.688177"
     inkscape:window-width="1920"
     inkscape:window-height="1009"
     inkscape:window-x="-8"
     inkscape:window-y="-8"
     inkscape:window-maximized="1"
     inkscape:current-layer="svg1" />
  <path
     id="Selection"
     fill="none"
     stroke="#fff"
     stroke-width="0.929561"
     d="m 96.077911,42.861384 c -0.650212,-0.24731 -1.483819,-0.141721 -2.179885,-0.141721 0,0 -4.306963,0 -4.306963,0 0,0 -14.86598,0 -14.86598,0 0,0 -50.433208,0 -50.433208,0 0,0 -11.392616,0 -11.392616,0 0,0 -2.361881,0 -2.361881,0 -0.29733,0.0059 -0.6627199,-0.0059 -0.8891909,0.222295 -0.250082,0.248693 -0.219519,0.701614 -0.22229,1.028116 -0.01,1.387947 -0.0431,1.664436 -1.528278,1.667219 0,0 -3.195494,0 -3.195494,0 -0.29732,0.0059 -0.662711,-0.0059 -0.889171,0.222296 -0.26676,0.26674 -0.2223,0.814152 -0.2223,1.167035 -9.3e-4,1.329603 -0.006,1.5255 1.38933,1.513 0,0 3.473382,0 3.473382,0 0.154202,0.01254 0.401505,0.01106 0.547381,0 1.0322919,-0.309819 0.2223,-1.772808 0.786379,-2.442459 0.3153789,-0.373747 0.8641659,-0.319552 1.3059799,-0.309836 0,0 14.032382,0 14.032382,0 0,0 0.830817,0 0.830817,0 1.475487,0.295936 0.368179,2.09931 1.157333,2.625873 0.536283,0.357051 1.822831,-0.145884 2.354933,0.479321 0.534901,0.627982 -0.0848,2.006203 0.562685,2.438295 0.536295,0.357063 1.822821,-0.145887 2.354934,0.479319 0.500168,0.587692 -0.0111,1.883963 0.464052,2.357718 0.46404,0.46405 1.643593,-0.02507 2.218781,0.46405 0.782198,0.665489 -0.19589,2.332709 0.901686,2.660592 0.187566,0.0236 0.616866,0.0153 0.825263,0 0,0 17.644684,0 17.644684,0 0,0 0.691887,0 0.691887,0 1.262924,-0.208398 0.305652,-1.820038 0.939193,-2.56473 0.564079,-0.662719 1.949257,-0.0542 2.453587,-0.559912 0.447377,-0.445973 0.02229,-1.651922 0.384852,-2.246564 0.573793,-0.937806 2.268794,0.04032 2.671703,-0.886396 0.0806,-0.18479 0.07928,-0.472385 0.0833,-0.673833 0,0 0,-2.91763 0,-2.91763 0,-0.312603 -0.01944,-0.814154 0.102804,-1.096193 0.295935,-0.690497 1.815871,-0.773856 2.33827,-0.329266 0.690492,0.586292 -0.0111,1.947858 0.658546,2.395229 0.536286,0.357051 1.822821,-0.145884 2.354947,0.479321 0.500156,0.587692 -0.0111,1.883948 0.46403,2.357718 0.464042,0.464037 1.643594,-0.02507 2.218782,0.464037 0.782208,0.665503 -0.1959,2.332706 0.901688,2.66059 0.187553,0.0236 0.616863,0.0153 0.825278,0 0,0 17.644656,0 17.644656,0 0,0 0.691894,0 0.691894,0 1.262979,-0.208397 0.305716,-1.820037 0.93925,-2.564731 0.564075,-0.662718 1.949252,-0.05418 2.45359,-0.559896 0.416803,-0.416809 0.07781,-1.549128 0.325106,-2.124308 0.444581,-1.036447 2.031216,-0.230628 2.592508,-0.793322 0.227859,-0.226461 0.216741,-0.591859 0.2223,-0.889179 0,0 0,-3.334422 0,-3.334422 -9.28e-4,-0.569627 0.08194,-0.815554 -0.320935,-1.247626 z"
     style="stroke-width:2.49999;stroke-dasharray:none" />
  <path
     style="fill:none;stroke:#fff;stroke-width:2.49999;stroke-linecap:round;stroke-linejoin:round;stroke-dasharray:none;stroke-opacity:1"
     d="m 34.847988,46.34382 7.630507,7.630508"
     id="path1" />
  <path
     style="fill:none;stroke:#fff;stroke-width:2.49999;stroke-linecap:round;stroke-linejoin:round;stroke-dasharray:none;stroke-opacity:1"
     d="m 42.488987,46.220991 7.630507,7.630508"
     id="path1-4" />
  <path
     style="fill:none;stroke:#fff;stroke-width:2.49999;stroke-linecap:round;stroke-linejoin:round;stroke-dasharray:none;stroke-opacity:1"
     d="m 50.599161,46.131731 4.885,4.885001"
     id="path1-9" />
  <path
     style="fill:none;stroke:#fff;stroke-width:2.49999;stroke-linecap:round;stroke-linejoin:round;stroke-dasharray:none;stroke-opacity:1"
     d="m 71.02135,46.041332 4.885,4.885001"
     id="path1-9-7" />
  <path
     style="fill:none;stroke:#fff;stroke-width:2.49999;stroke-linecap:round;stroke-linejoin:round;stroke-dasharray:none;stroke-opacity:1"
     d="m 78.472301,45.914294 4.885,4.885001"
     id="path1-9-8" />
  <path
     style="fill:none;stroke:#fff;stroke-width:2.49999;stroke-linecap:round;stroke-linejoin:round;stroke-dasharray:none;stroke-opacity:1"
     d="m 86.269387,46.04503 2.594461,2.594461"
     id="path1-9-1" />
</svg>
