<?xml version="1.0" encoding="UTF-8" standalone="no"?>
<svg
   width="32"
   height="32"
   viewBox="0 0 99.999784 99.99971"
   version="1.1"
   id="svg1"
   sodipodi:docname="glassesIcon5.svg"
   inkscape:version="1.3.2 (091e20e, 2023-11-25, custom)"
   xmlns:inkscape="http://www.inkscape.org/namespaces/inkscape"
   xmlns:sodipodi="http://sodipodi.sourceforge.net/DTD/sodipodi-0.dtd"
   xmlns="http://www.w3.org/2000/svg"
   xmlns:svg="http://www.w3.org/2000/svg">
  <defs
     id="defs1" />
  <sodipodi:namedview
     id="namedview1"
     pagecolor="#ffffff"
     bordercolor="#000000"
     borderopacity="0.25"
     inkscape:showpageshadow="2"
     inkscape:pageopacity="0.0"
     inkscape:pagecheckerboard="0"
     inkscape:deskcolor="#d1d1d1"
     inkscape:document-units="mm"
     inkscape:zoom="22.627417"
     inkscape:cx="17.058951"
     inkscape:cy="18.848815"
     inkscape:window-width="1920"
     inkscape:window-height="1009"
     inkscape:window-x="-8"
     inkscape:window-y="-8"
     inkscape:window-maximized="1"
     inkscape:current-layer="svg1" />
  <path
     id="path1-1"
     style="fill:none;stroke:#fff;stroke-width:1.87499526;stroke-dasharray:none;stroke-opacity:1"
     d="M 50.00649,34.018493 H 38.992806 c 0,0 -6.15358,-0.958908 -9.331681,-1.066478 -3.178101,-0.107571 -11.256679,-0.199962 -17.063644,3.015466 -2.335586,1.293103 -3.8286576,2.855496 -4.9964506,5.249737 l -1.423742,3.404731 c -0.9598307,1.354425 -3.2580936,0.439924 -2.8475021,2.98347 0.2692867,1.671703 1.7303624,0.941169 2.2609322,2.682193 0.4292609,1.402418 0.1839739,3.727342 1.7570249,7.193393 2.8554906,6.28688 8.8997646,9.67562 15.6478946,9.5983 6.697474,-0.07999 12.973707,-5.332395 17.098306,-10.131539 1.362424,-1.586384 2.874158,-3.500716 3.88198,-5.332389 0.85318,-1.55439 1.691529,-2.809727 2.151618,-5.06577 0.457732,-2.244489 0.542278,-5.833751 3.876123,-5.870456 M 32.593939,36.503386 c 1.753368,0.246279 1.754611,0.252992 3.999292,0.813189 2.244681,0.560198 6.766802,2.516893 6.66282,6.833456 -0.06666,2.708852 -2.063637,6.369541 -3.634024,8.531823 -4.036614,5.551011 -9.648964,11.294 -16.893008,11.707261 -0.997155,0.05599 -1.466408,-0.09865 -2.399575,-0.199965 C 13.056071,63.399958 8.8354794,56.633148 8.8648074,49.74904 c 0.01067,-2.596871 0.586564,-5.532355 2.0129776,-7.731964 2.191609,-3.386064 7.100847,-5.329811 10.886995,-5.630422 3.786146,-0.30061 9.075791,-0.129547 10.829159,0.116732 v 0 m 17.39932,-2.479602 h 11.013684 c 0,0 6.15358,-0.958908 9.331681,-1.066479 3.1781,-0.10757 11.256679,-0.199961 17.063644,3.015467 2.335586,1.293103 3.828658,2.855496 4.99645,5.249736 l 1.423743,3.404731 c 0.95983,1.354426 3.25809,0.439925 2.8475,2.983471 -0.26929,1.671703 -1.730361,0.941169 -2.260931,2.682192 -0.42926,1.402418 -0.183973,3.727343 -1.757024,7.193393 -2.855492,6.286881 -8.899765,9.675621 -15.647895,9.598301 -6.697475,-0.07999 -12.973708,-5.332395 -17.098307,-10.131539 -1.362424,-1.586384 -2.874158,-3.500716 -3.881979,-5.332389 -0.853181,-1.554391 -1.69153,-2.809727 -2.151619,-5.065771 -0.457732,-2.244488 -0.542278,-5.83375 -3.876122,-5.870456 M 67.40581,36.508677 c -1.753369,0.246279 -1.754611,0.252991 -3.999292,0.813189 -2.244681,0.560198 -6.766803,2.516892 -6.66282,6.833456 0.06666,2.708852 2.063637,6.369541 3.634023,8.531823 4.036614,5.55101 9.648964,11.294 16.893008,11.70726 0.997156,0.05599 1.466409,-0.09865 2.399576,-0.199964 7.273372,-0.789192 11.493964,-7.556002 11.464636,-14.44011 -0.01067,-2.596871 -0.586564,-5.532356 -2.012977,-7.731964 -2.191609,-3.386064 -7.100848,-5.329812 -10.886995,-5.630422 -3.786147,-0.30061 -9.075792,-0.129548 -10.829159,0.116732 v 0" />
</svg>
