{
	"asset":{
		"generator":"Khronos glTF Blender I/O v3.6.27",
		"version":"2.0"
	},
	"extensionsUsed":[
		"KHR_materials_transmission"
	],
	"scene":0,
	"scenes":[
		{
			"name":"Scene",
			"nodes":[
				10
			]
		}
	],
	"nodes":[
		{
			"mesh":0,
			"name":"Object_22"
		},
		{
			"mesh":1,
			"name":"Object_24"
		},
		{
			"mesh":2,
			"name":"Object_26"
		},
		{
			"mesh":3,
			"name":"Object_28"
		},
		{
			"mesh":4,
			"name":"Object_30"
		},
		{
			"mesh":5,
			"name":"Object_32"
		},
		{
			"mesh":6,
			"name":"Object_34"
		},
		{
			"mesh":7,
			"name":"Object_36"
		},
		{
			"mesh":8,
			"name":"Object_38"
		},
		{
			"mesh":9,
			"name":"Object_40"
		},
		{
			"children":[
				0,
				1,
				2,
				3,
				4,
				5,
				6,
				7,
				8,
				9
			],
			"name":"glasses4"
		}
	],
	"materials":[
		{
			"alphaMode":"BLEND",
			"doubleSided":true,
			"extensions":{
				"KHR_materials_transmission":{
					"transmissionFactor":0.9738318920135498
				}
			},
			"name":"Material.005",
			"pbrMetallicRoughness":{
				"baseColorFactor":[
					1,
					1,
					1,
					0.25
				]
			}
		},
		{
			"doubleSided":true,
			"name":"Material.008",
			"pbrMetallicRoughness":{
				"baseColorFactor":[
					0.04954950138926506,
					0.029243100434541702,
					0.020774299278855324,
					1
				],
				"metallicFactor":0,
				"roughnessFactor":0.5
			}
		},
		{
			"doubleSided":true,
			"name":"Material.010",
			"pbrMetallicRoughness":{
				"baseColorFactor":[
					0.17172344028949738,
					0.17172344028949738,
					0.17172344028949738,
					1
				],
				"roughnessFactor":0.2883003056049347
			}
		},
		{
			"doubleSided":true,
			"name":"Material.007",
			"pbrMetallicRoughness":{
				"baseColorFactor":[
					0.800000011920929,
					0.5666339993476868,
					0.4394029974937439,
					1
				],
				"roughnessFactor":0.5
			}
		}
	],
	"meshes":[
		{
			"name":"Object_9",
			"primitives":[
				{
					"attributes":{
						"POSITION":0,
						"NORMAL":1,
						"TEXCOORD_0":2
					},
					"indices":3,
					"material":0
				}
			]
		},
		{
			"name":"Object_10.001",
			"primitives":[
				{
					"attributes":{
						"POSITION":4,
						"NORMAL":5,
						"TEXCOORD_0":6
					},
					"indices":7,
					"material":1
				}
			]
		},
		{
			"name":"Object_11",
			"primitives":[
				{
					"attributes":{
						"POSITION":8,
						"NORMAL":9,
						"TEXCOORD_0":10
					},
					"indices":11,
					"material":2
				}
			]
		},
		{
			"name":"Object_12",
			"primitives":[
				{
					"attributes":{
						"POSITION":12,
						"NORMAL":13,
						"TEXCOORD_0":14
					},
					"indices":15,
					"material":1
				}
			]
		},
		{
			"name":"Object_13",
			"primitives":[
				{
					"attributes":{
						"POSITION":16,
						"NORMAL":17
					},
					"indices":18,
					"material":1
				}
			]
		},
		{
			"name":"Object_14",
			"primitives":[
				{
					"attributes":{
						"POSITION":19,
						"NORMAL":20,
						"TEXCOORD_0":21
					},
					"indices":22,
					"material":1
				}
			]
		},
		{
			"name":"Object_15",
			"primitives":[
				{
					"attributes":{
						"POSITION":23,
						"NORMAL":24,
						"TEXCOORD_0":25
					},
					"indices":26,
					"material":3
				}
			]
		},
		{
			"name":"Object_16",
			"primitives":[
				{
					"attributes":{
						"POSITION":27,
						"NORMAL":28,
						"TEXCOORD_0":29
					},
					"indices":30,
					"material":1
				}
			]
		},
		{
			"name":"Object_17",
			"primitives":[
				{
					"attributes":{
						"POSITION":31,
						"NORMAL":32,
						"TEXCOORD_0":33
					},
					"indices":34,
					"material":1
				}
			]
		},
		{
			"name":"Object_18",
			"primitives":[
				{
					"attributes":{
						"POSITION":35,
						"NORMAL":36,
						"TEXCOORD_0":37
					},
					"indices":38,
					"material":3
				}
			]
		}
	],
	"accessors":[
		{
			"bufferView":0,
			"componentType":5126,
			"count":164,
			"max":[
				0.709373414516449,
				0.21532388031482697,
				0.017659910023212433
			],
			"min":[
				-0.709373414516449,
				-0.26652637124061584,
				0.00099163968116045
			],
			"type":"VEC3"
		},
		{
			"bufferView":1,
			"componentType":5126,
			"count":164,
			"type":"VEC3"
		},
		{
			"bufferView":2,
			"componentType":5126,
			"count":164,
			"type":"VEC2"
		},
		{
			"bufferView":3,
			"componentType":5123,
			"count":576,
			"type":"SCALAR"
		},
		{
			"bufferView":4,
			"componentType":5126,
			"count":256,
			"max":[
				0.7132884860038757,
				0.22890500724315643,
				0.017659910023212433
			],
			"min":[
				-0.7132884860038757,
				-0.2799517810344696,
				-1.1682692502290593e-07
			],
			"type":"VEC3"
		},
		{
			"bufferView":5,
			"componentType":5126,
			"count":256,
			"type":"VEC3"
		},
		{
			"bufferView":6,
			"componentType":5126,
			"count":256,
			"type":"VEC2"
		},
		{
			"bufferView":7,
			"componentType":5123,
			"count":768,
			"type":"SCALAR"
		},
		{
			"bufferView":8,
			"componentType":5126,
			"count":250,
			"max":[
				0.17683368921279907,
				0.013455613516271114,
				0.1329876333475113
			],
			"min":[
				-0.17683365941047668,
				-0.12634608149528503,
				0.06104317307472229
			],
			"type":"VEC3"
		},
		{
			"bufferView":9,
			"componentType":5126,
			"count":250,
			"type":"VEC3"
		},
		{
			"bufferView":10,
			"componentType":5126,
			"count":250,
			"type":"VEC2"
		},
		{
			"bufferView":11,
			"componentType":5123,
			"count":552,
			"type":"SCALAR"
		},
		{
			"bufferView":12,
			"componentType":5126,
			"count":73,
			"max":[
				0.12897591292858124,
				0.08826074004173279,
				1.8507869015138567e-08
			],
			"min":[
				-0.12897591292858124,
				0.04993724822998047,
				-0.01162892859429121
			],
			"type":"VEC3"
		},
		{
			"bufferView":13,
			"componentType":5126,
			"count":73,
			"type":"VEC3"
		},
		{
			"bufferView":14,
			"componentType":5126,
			"count":73,
			"type":"VEC2"
		},
		{
			"bufferView":15,
			"componentType":5123,
			"count":240,
			"type":"SCALAR"
		},
		{
			"bufferView":16,
			"componentType":5126,
			"count":80,
			"max":[
				0.14877180755138397,
				0.0060387663543224335,
				0.09292353689670563
			],
			"min":[
				-0.14877177774906158,
				-0.02896040491759777,
				0.007811151910573244
			],
			"type":"VEC3"
		},
		{
			"bufferView":17,
			"componentType":5126,
			"count":80,
			"type":"VEC3"
		},
		{
			"bufferView":18,
			"componentType":5123,
			"count":384,
			"type":"SCALAR"
		},
		{
			"bufferView":19,
			"componentType":5126,
			"count":48,
			"max":[
				0.17789539694786072,
				-0.0165028627961874,
				0.10598468035459518
			],
			"min":[
				-0.17789536714553833,
				-0.08170773088932037,
				0.06340211629867554
			],
			"type":"VEC3"
		},
		{
			"bufferView":20,
			"componentType":5126,
			"count":48,
			"type":"VEC3"
		},
		{
			"bufferView":21,
			"componentType":5126,
			"count":48,
			"type":"VEC2"
		},
		{
			"bufferView":22,
			"componentType":5123,
			"count":72,
			"type":"SCALAR"
		},
		{
			"bufferView":23,
			"componentType":5126,
			"count":128,
			"max":[
				0.7615655660629272,
				0.025476709008216858,
				0.07331064343452454
			],
			"min":[
				-0.7615655660629272,
				0,
				0.03736812621355057
			],
			"type":"VEC3"
		},
		{
			"bufferView":24,
			"componentType":5126,
			"count":128,
			"type":"VEC3"
		},
		{
			"bufferView":25,
			"componentType":5126,
			"count":128,
			"type":"VEC2"
		},
		{
			"bufferView":26,
			"componentType":5123,
			"count":336,
			"type":"SCALAR"
		},
		{
			"bufferView":27,
			"componentType":5126,
			"count":202,
			"max":[
				0.7675967216491699,
				0.008800528943538666,
				1.4249612092971802
			],
			"min":[
				-0.7675962448120117,
				-0.30000296235084534,
				1.1855225563049316
			],
			"type":"VEC3"
		},
		{
			"bufferView":28,
			"componentType":5126,
			"count":202,
			"type":"VEC3"
		},
		{
			"bufferView":29,
			"componentType":5126,
			"count":202,
			"type":"VEC2"
		},
		{
			"bufferView":30,
			"componentType":5123,
			"count":552,
			"type":"SCALAR"
		},
		{
			"bufferView":31,
			"componentType":5126,
			"count":148,
			"max":[
				0.7615655660629272,
				0.025476709008216858,
				0.055339500308036804
			],
			"min":[
				-0.7615655660629272,
				0,
				0.00011046367581002414
			],
			"type":"VEC3"
		},
		{
			"bufferView":32,
			"componentType":5126,
			"count":148,
			"type":"VEC3"
		},
		{
			"bufferView":33,
			"componentType":5126,
			"count":148,
			"type":"VEC2"
		},
		{
			"bufferView":34,
			"componentType":5123,
			"count":384,
			"type":"SCALAR"
		},
		{
			"bufferView":35,
			"componentType":5126,
			"count":152,
			"max":[
				0.7615657448768616,
				0.025476709008216858,
				1.1958537101745605
			],
			"min":[
				-0.7615655660629272,
				-0.019579969346523285,
				0.0553392693400383
			],
			"type":"VEC3"
		},
		{
			"bufferView":36,
			"componentType":5126,
			"count":152,
			"type":"VEC3"
		},
		{
			"bufferView":37,
			"componentType":5126,
			"count":152,
			"type":"VEC2"
		},
		{
			"bufferView":38,
			"componentType":5123,
			"count":384,
			"type":"SCALAR"
		}
	],
	"bufferViews":[
		{
			"buffer":0,
			"byteLength":1968,
			"byteOffset":0,
			"target":34962
		},
		{
			"buffer":0,
			"byteLength":1968,
			"byteOffset":1968,
			"target":34962
		},
		{
			"buffer":0,
			"byteLength":1312,
			"byteOffset":3936,
			"target":34962
		},
		{
			"buffer":0,
			"byteLength":1152,
			"byteOffset":5248,
			"target":34963
		},
		{
			"buffer":0,
			"byteLength":3072,
			"byteOffset":6400,
			"target":34962
		},
		{
			"buffer":0,
			"byteLength":3072,
			"byteOffset":9472,
			"target":34962
		},
		{
			"buffer":0,
			"byteLength":2048,
			"byteOffset":12544,
			"target":34962
		},
		{
			"buffer":0,
			"byteLength":1536,
			"byteOffset":14592,
			"target":34963
		},
		{
			"buffer":0,
			"byteLength":3000,
			"byteOffset":16128,
			"target":34962
		},
		{
			"buffer":0,
			"byteLength":3000,
			"byteOffset":19128,
			"target":34962
		},
		{
			"buffer":0,
			"byteLength":2000,
			"byteOffset":22128,
			"target":34962
		},
		{
			"buffer":0,
			"byteLength":1104,
			"byteOffset":24128,
			"target":34963
		},
		{
			"buffer":0,
			"byteLength":876,
			"byteOffset":25232,
			"target":34962
		},
		{
			"buffer":0,
			"byteLength":876,
			"byteOffset":26108,
			"target":34962
		},
		{
			"buffer":0,
			"byteLength":584,
			"byteOffset":26984,
			"target":34962
		},
		{
			"buffer":0,
			"byteLength":480,
			"byteOffset":27568,
			"target":34963
		},
		{
			"buffer":0,
			"byteLength":960,
			"byteOffset":28048,
			"target":34962
		},
		{
			"buffer":0,
			"byteLength":960,
			"byteOffset":29008,
			"target":34962
		},
		{
			"buffer":0,
			"byteLength":768,
			"byteOffset":29968,
			"target":34963
		},
		{
			"buffer":0,
			"byteLength":576,
			"byteOffset":30736,
			"target":34962
		},
		{
			"buffer":0,
			"byteLength":576,
			"byteOffset":31312,
			"target":34962
		},
		{
			"buffer":0,
			"byteLength":384,
			"byteOffset":31888,
			"target":34962
		},
		{
			"buffer":0,
			"byteLength":144,
			"byteOffset":32272,
			"target":34963
		},
		{
			"buffer":0,
			"byteLength":1536,
			"byteOffset":32416,
			"target":34962
		},
		{
			"buffer":0,
			"byteLength":1536,
			"byteOffset":33952,
			"target":34962
		},
		{
			"buffer":0,
			"byteLength":1024,
			"byteOffset":35488,
			"target":34962
		},
		{
			"buffer":0,
			"byteLength":672,
			"byteOffset":36512,
			"target":34963
		},
		{
			"buffer":0,
			"byteLength":2424,
			"byteOffset":37184,
			"target":34962
		},
		{
			"buffer":0,
			"byteLength":2424,
			"byteOffset":39608,
			"target":34962
		},
		{
			"buffer":0,
			"byteLength":1616,
			"byteOffset":42032,
			"target":34962
		},
		{
			"buffer":0,
			"byteLength":1104,
			"byteOffset":43648,
			"target":34963
		},
		{
			"buffer":0,
			"byteLength":1776,
			"byteOffset":44752,
			"target":34962
		},
		{
			"buffer":0,
			"byteLength":1776,
			"byteOffset":46528,
			"target":34962
		},
		{
			"buffer":0,
			"byteLength":1184,
			"byteOffset":48304,
			"target":34962
		},
		{
			"buffer":0,
			"byteLength":768,
			"byteOffset":49488,
			"target":34963
		},
		{
			"buffer":0,
			"byteLength":1824,
			"byteOffset":50256,
			"target":34962
		},
		{
			"buffer":0,
			"byteLength":1824,
			"byteOffset":52080,
			"target":34962
		},
		{
			"buffer":0,
			"byteLength":1216,
			"byteOffset":53904,
			"target":34962
		},
		{
			"buffer":0,
			"byteLength":768,
			"byteOffset":55120,
			"target":34963
		}
	],
	"buffers":[
		{
			"byteLength":55888,
			"uri":"glasses4.bin"
		}
	]
}
