{
	"asset":{
		"generator":"Khronos glTF Blender I/O v3.6.27",
		"version":"2.0"
	},
	"scene":0,
	"scenes":[
		{
			"name":"Scene",
			"nodes":[
				0
			]
		}
	],
	"nodes":[
		{
			"mesh":0,
			"name":"dodoBird"
		}
	],
	"materials":[
		{
			"doubleSided":true,
			"name":"Material.006",
			"pbrMetallicRoughness":{
				"baseColorTexture":{
					"index":0
				},
				"metallicFactor":0,
				"metallicRoughnessTexture":{
					"index":1
				}
			}
		}
	],
	"meshes":[
		{
			"name":"Sphere.003",
			"primitives":[
				{
					"attributes":{
						"POSITION":0,
						"NORMAL":1,
						"TEXCOORD_0":2,
						"TEXCOORD_1":3,
						"TEXCOORD_2":4,
						"TEXCOORD_3":5,
						"TEXCOORD_4":6,
						"TEXCOORD_5":7,
						"TEXCOORD_6":8,
						"TEXCOORD_7":9
					},
					"indices":10,
					"material":0
				}
			]
		}
	],
	"textures":[
		{
			"sampler":0,
			"source":0
		},
		{
			"sampler":0,
			"source":1
		}
	],
	"images":[
		{
			"mimeType":"image/png",
			"name":"Image_0",
			"uri":"texs2/Image_0.png"
		},
		{
			"mimeType":"image/png",
			"name":"Image_1",
			"uri":"texs2/Image_1.png"
		}
	],
	"accessors":[
		{
			"bufferView":0,
			"componentType":5126,
			"count":11850,
			"max":[
				0.4043990969657898,
				0.7846350073814392,
				0.7638506889343262
			],
			"min":[
				-0.45453986525535583,
				-0.7157720923423767,
				-0.6480614542961121
			],
			"type":"VEC3"
		},
		{
			"bufferView":1,
			"componentType":5126,
			"count":11850,
			"type":"VEC3"
		},
		{
			"bufferView":2,
			"componentType":5126,
			"count":11850,
			"type":"VEC2"
		},
		{
			"bufferView":3,
			"componentType":5126,
			"count":11850,
			"type":"VEC2"
		},
		{
			"bufferView":4,
			"componentType":5126,
			"count":11850,
			"type":"VEC2"
		},
		{
			"bufferView":5,
			"componentType":5126,
			"count":11850,
			"type":"VEC2"
		},
		{
			"bufferView":6,
			"componentType":5126,
			"count":11850,
			"type":"VEC2"
		},
		{
			"bufferView":7,
			"componentType":5126,
			"count":11850,
			"type":"VEC2"
		},
		{
			"bufferView":8,
			"componentType":5126,
			"count":11850,
			"type":"VEC2"
		},
		{
			"bufferView":9,
			"componentType":5126,
			"count":11850,
			"type":"VEC2"
		},
		{
			"bufferView":10,
			"componentType":5123,
			"count":49974,
			"type":"SCALAR"
		}
	],
	"bufferViews":[
		{
			"buffer":0,
			"byteLength":142200,
			"byteOffset":0,
			"target":34962
		},
		{
			"buffer":0,
			"byteLength":142200,
			"byteOffset":142200,
			"target":34962
		},
		{
			"buffer":0,
			"byteLength":94800,
			"byteOffset":284400,
			"target":34962
		},
		{
			"buffer":0,
			"byteLength":94800,
			"byteOffset":379200,
			"target":34962
		},
		{
			"buffer":0,
			"byteLength":94800,
			"byteOffset":474000,
			"target":34962
		},
		{
			"buffer":0,
			"byteLength":94800,
			"byteOffset":568800,
			"target":34962
		},
		{
			"buffer":0,
			"byteLength":94800,
			"byteOffset":663600,
			"target":34962
		},
		{
			"buffer":0,
			"byteLength":94800,
			"byteOffset":758400,
			"target":34962
		},
		{
			"buffer":0,
			"byteLength":94800,
			"byteOffset":853200,
			"target":34962
		},
		{
			"buffer":0,
			"byteLength":94800,
			"byteOffset":948000,
			"target":34962
		},
		{
			"buffer":0,
			"byteLength":99948,
			"byteOffset":1042800,
			"target":34963
		}
	],
	"samplers":[
		{
			"magFilter":9729,
			"minFilter":9987
		}
	],
	"buffers":[
		{
			"byteLength":1142748,
			"uri":"dodoBird.bin"
		}
	]
}
