{
	"asset":{
		"generator":"Khronos glTF Blender I/O v3.6.27",
		"version":"2.0"
	},
	"scene":0,
	"scenes":[
		{
			"name":"Scene",
			"nodes":[
				0
			]
		}
	],
	"nodes":[
		{
			"mesh":0,
			"name":"skeletonTRex"
		}
	],
	"materials":[
		{
			"doubleSided":true,
			"name":"bones_material",
			"pbrMetallicRoughness":{
				"baseColorFactor":[
					0.538224995136261,
					0.36449599266052246,
					0.10989599674940109,
					1
				],
				"metallicFactor":0,
				"roughnessFactor":0.9134954214096069
			}
		},
		{
			"doubleSided":true,
			"name":"bones_material_3.001",
			"pbrMetallicRoughness":{
				"baseColorFactor":[
					0.5704709887504578,
					0.3860490024089813,
					0.11601100116968155,
					1
				],
				"metallicFactor":0,
				"roughnessFactor":0.9083663821220398
			}
		}
	],
	"meshes":[
		{
			"name":"vertebra.017_bones_material_0",
			"primitives":[
				{
					"attributes":{
						"POSITION":0,
						"NORMAL":1,
						"TEXCOORD_0":2
					},
					"indices":3,
					"material":0
				},
				{
					"attributes":{
						"POSITION":4,
						"NORMAL":5,
						"TEXCOORD_0":6
					},
					"indices":7,
					"material":1
				}
			]
		}
	],
	"accessors":[
		{
			"bufferView":0,
			"componentType":5126,
			"count":30529,
			"max":[
				0.23182107508182526,
				1.131516456604004,
				1.5344880819320679
			],
			"min":[
				-0.2216794192790985,
				-0.015228001400828362,
				-1.408555507659912
			],
			"type":"VEC3"
		},
		{
			"bufferView":1,
			"componentType":5126,
			"count":30529,
			"type":"VEC3"
		},
		{
			"bufferView":2,
			"componentType":5126,
			"count":30529,
			"type":"VEC2"
		},
		{
			"bufferView":3,
			"componentType":5123,
			"count":138855,
			"type":"SCALAR"
		},
		{
			"bufferView":4,
			"componentType":5126,
			"count":390,
			"max":[
				0.13598717749118805,
				1.0004922151565552,
				-0.9532495737075806
			],
			"min":[
				-0.12709198892116547,
				0.6444627642631531,
				-1.2306019067764282
			],
			"type":"VEC3"
		},
		{
			"bufferView":5,
			"componentType":5126,
			"count":390,
			"type":"VEC3"
		},
		{
			"bufferView":6,
			"componentType":5126,
			"count":390,
			"type":"VEC2"
		},
		{
			"bufferView":7,
			"componentType":5123,
			"count":1422,
			"type":"SCALAR"
		}
	],
	"bufferViews":[
		{
			"buffer":0,
			"byteLength":366348,
			"byteOffset":0,
			"target":34962
		},
		{
			"buffer":0,
			"byteLength":366348,
			"byteOffset":366348,
			"target":34962
		},
		{
			"buffer":0,
			"byteLength":244232,
			"byteOffset":732696,
			"target":34962
		},
		{
			"buffer":0,
			"byteLength":277710,
			"byteOffset":976928,
			"target":34963
		},
		{
			"buffer":0,
			"byteLength":4680,
			"byteOffset":1254640,
			"target":34962
		},
		{
			"buffer":0,
			"byteLength":4680,
			"byteOffset":1259320,
			"target":34962
		},
		{
			"buffer":0,
			"byteLength":3120,
			"byteOffset":1264000,
			"target":34962
		},
		{
			"buffer":0,
			"byteLength":2844,
			"byteOffset":1267120,
			"target":34963
		}
	],
	"buffers":[
		{
			"byteLength":1269964,
			"uri":"skeletonTRex.bin"
		}
	]
}
