<svg
  xmlns="http://www.w3.org/2000/svg"
  viewBox="0 0 100 100"
  width="1"
  height="1"
>
  <path
    d="M 53.334033,92.387698 C 51.255454,89.690095 50.023565,86.793728 48.40321,83.391863 46.093101,79.050884 44.833332,76.261795 44.094846,71.962168 m 24.528715,-9.827962 c 0.01642,0.03284 2.478029,3.035999 5.415562,5.284274 3.085227,2.363157 5.763577,4.376504 7.741168,6.346551 M 63.902674,66.119924 c 0,0 1.362095,2.412386 3.561142,5.120169 2.067759,2.543673 5.349918,5.15299 7.680253,7.844358 3.068816,3.561142 4.460138,5.942419 5.197819,7.279165 M 57.338356,67.859468 c 0,0 1.001057,2.231868 3.46268,6.055586 1.624666,2.478029 3.676014,6.43303 6.006349,8.582844 2.65855,2.822656 2.572525,6.528579 2.572525,6.528579 M 52.365886,69.35285 c 0,0 0.64002,2.773427 2.002115,6.121226 1.115935,2.757016 3.313832,5.933296 4.593876,8.838006 1.821599,4.184364 2.408773,6.530352 2.664975,8.071296 m -9.457893,-32.22057 c -4.367971,-0.05835 -6.740571,-0.41318 -8.808418,-1.257491 -2.00314,-0.817884 -3.724281,-2.079172 -6.453624,-4.94579 M 29.55488,96.315784 C 29.193821,87.847816 30.014383,85.615947 27.766103,76.655655 26.223492,70.419552 24.254194,66.924054 22.777223,61.803885 21.119734,56.027286 19.5123,51.219406 19.28255,45.541273 19.18408,39.879552 21.4553,31.567257 25.229781,24.527027 l 46.938868,3.95e-4 5.568326,14.301356 c 4.529377,2.93753 4.80836,12.48861 1.870827,16.082574 -0.08205,5.79301 -0.08205,12.045524 0.06564,15.327683 0.886184,3.397032 2.674961,3.610375 6.104815,7.204339 1.85442,1.69031 2.588654,4.505552 0.545962,7.212809 -1.715003,1.977233 -2.721803,2.113792 -5.964779,1.71997 -1.059755,3.132655 -1.580123,3.637172 -3.754478,4.500244 -1.681128,0.27513 -2.155354,0.144827 -4.073183,-0.254501 -1.380059,-0.367121 -2.194635,-0.849637 -3.167139,-1.589672 -0.995273,1.29547 -0.993442,2.12753 -2.737839,3.007955 -2.251442,0.681498 -2.75878,0.614532 -5.010222,0.334156 -0.722791,1.483775 -1.27223,1.909863 -2.224055,2.566294 -1.677777,0.698966 -2.082267,0.617879 -3.607575,-0.053 -1.235973,-0.833702 -1.318596,-1.030373 -2.45092,-2.499909 z"
    style="fill:#2c92f5;stroke:#000000;stroke-width:2.36847;stroke-linecap:round;stroke-linejoin:round"
  />
  <path
    d="m 25.232037,24.520948 c 0,0 -5.83544,0.04685 -10.102244,-0.100844 -3.971412,0.04923 -3.790893,-9.846477 0.131288,-9.797244 l 11.904604,0.104633 C 31.777117,8.7211416 33.573572,3.0881749 45.520779,3.4430391 59.566162,3.1435786 61.466051,6.2081823 67.989115,14.579796 c 2.822656,0.04923 5.792859,0.01019 10.125308,0.02665 3.790892,-0.16411 4.5622,9.534671 -0.08205,9.731601 -2.560084,0.114877 -2.483081,0.135995 -5.876778,0.135864 z"
    style="fill:#000000;stroke:#000000;stroke-width:1.84644;stroke-linecap:round;stroke-linejoin:round"
  />
  <path
    d="m 77.495517,38.719665 c -2.785017,-1.221474 -6.011056,-0.842712 -8.751657,0.2076 -3.659607,1.624666 -5.628905,5.382737 -4.890419,8.467965 0.919007,2.986765 2.638325,4.622673 3.872947,5.79301 3.282159,2.904711 9.011201,2.811891 11.88309,1.728778 0,0 1.260905,-1.462703 1.674135,-4.031536 0.25088,-1.741569 0.341692,-3.641913 0.18436,-4.707486 -0.206505,-1.398714 -0.553515,-2.944862 -1.342231,-4.58602 -1.102083,-1.900746 -1.783767,-2.392616 -2.630225,-2.87229 z M 45.046671,53.155397 C 41.026028,50.250686 38.597227,45.146929 44.89898,39.91189 c 4.956059,-3.167282 9.485436,-0.361058 11.733716,2.674955 3.282159,4.398093 3.708841,10.880357 -2.658546,12.324507 -3.232926,0.738486 -6.580729,-0.04922 -8.927479,-1.755955 z"
    style="fill:#ffffff;stroke:#000000;stroke-width:1.84644;stroke-linecap:round;stroke-linejoin:round"
  />
  <path
    d="m 50.837008,49.11307 -0.352133,1.418931 -2.42827,1.068883 -0.931734,2.5322 m 5.058482,-5.827832 1.042405,0.814028 2.226341,0.45078 1.490928,1.873454 1.125858,0.40076 m -6.231742,-4.731504 1.617303,-1.820681 0.684513,-3.150177 0.98716,-0.799274 m -11.386391,0 3.945032,1.482423 0.729283,2.225945 1.180256,0.148238 1.165752,1.759655 m 24.811558,1.269426 -1.241063,1.693687 0.0858,1.426547 -1.700099,2.297496 -0.33744,1.48719 m 3.519774,-9.309138 -0.281656,-1.491804 -0.871147,-0.520318 0.251596,-1.501062 -3.352236,-2.155386 -0.53574,-1.370986 m 3.462078,8.193579 -1.191653,-0.456303 -1.719668,0.382446 -5.110262,-2.69317 -1.343587,0.38274 -1.001828,-0.423822 m 12.828919,4.154497 0.723161,1.10873 0.283761,1.645667 1.222598,2.112356 0.174719,1.518854 m -2.577325,-8.52056 0.972476,-0.486696 0.543995,-1.701665 0.518921,-0.280772 0.324641,-0.686563 0.813527,-0.36409"
    style="fill:none;stroke:#ec5f61;stroke-width:1.23096px;stroke-linecap:round;stroke-linejoin:round"
  />
  <path
    d="m 77.394171,47.132283 c 0,0.631651 -0.512058,1.143709 -1.143712,1.143709 -0.631651,0 -1.143709,-0.512058 -1.143709,-1.143709 0,-0.631654 0.512058,-1.143712 1.143709,-1.143712 0.631654,0 1.143712,0.512058 1.143712,1.143712 z m -24.917037,0.46776 c 0,0.633578 -0.513616,1.147194 -1.14719,1.147194 -0.633579,0 -1.147195,-0.513616 -1.147195,-1.147194 0,-0.633579 0.513616,-1.147195 1.147195,-1.147195 0.633574,0 1.14719,0.513616 1.14719,1.147195 z"
    style="fill:#000000;stroke:#000000;stroke-width:1.84644;stroke-linecap:round;stroke-linejoin:round"
  />
  <path
    d="m 77.481013,38.722069 c -2.785017,-1.221478 -6.011056,-0.842716 -8.751657,0.207558 -3.659607,1.62467 -5.628904,5.382737 -4.890419,8.467969 0.919007,2.986765 2.638325,4.622673 3.872947,5.79301 3.282159,2.904711 9.011201,2.811891 11.88309,1.728778 0,0 1.260905,-1.462708 1.674135,-4.031536 0.25088,-1.741569 0.341692,-3.641913 0.184361,-4.707486 C 81.246964,44.781643 80.899955,43.2355 80.111238,41.594338 79.009155,39.693592 78.327472,39.201726 77.481013,38.722052 Z M 45.046907,53.118824 c -4.020643,-2.904711 -6.449444,-8.008468 -0.147691,-13.243507 4.956059,-3.167286 9.48544,-0.361058 11.733716,2.674954 3.282159,4.398094 3.70884,10.880358 -2.658546,12.324507 -3.232926,0.738486 -6.580729,-0.04922 -8.927479,-1.755954 z"
    style="fill:none;stroke:#000000;stroke-width:1.89478;stroke-linecap:round;stroke-linejoin:round"
  />
</svg>
