<svg
  xmlns="http://www.w3.org/2000/svg"
  viewBox="0 0 100 100"
  width="1"
  height="1"
  id="svg4"
>
  <path
    d="m 2.5,50.674255 44.54723,-44.54723 2.97602,-2.92952 2.92952,2.92952 44.54723,44.54723 -5.90553,5.90553 -3.99902,-3.99902 v 44.22173 h -75.1909 v -44.22173 l -3.99902,3.99902 z M 79.2254,44.210725 49.97675,14.962065 20.7281,44.210725 v 44.22173 h 58.4508 v -44.22173 z" 
    style="stroke-width:5;stroke-linecap:round;stroke-linejoin:round;"
  />
  <path
    d="m 25.56412,70.436855 c 11.67156,-8.32354 18.9721,-4.69652 26.41214,-0.9765 5.34753,2.65051 10.74156,5.39403 18.6466,0.8835 l 3.30152,5.81253 c -10.97406,7.11454 -15.43809,4.46403 -23.11063,0.69751 -5.62653,-2.79002 -12.46206,-5.95203 -21.39011,-0.97651 z m 0,-9.71855 c 11.67156,-8.32354 18.9721,-4.69652 26.41214,-0.9765 5.34753,2.65051 10.74156,5.39403 18.6466,0.8835 l 3.30152,5.81253 c -10.97406,7.11454 -15.43809,4.46403 -23.11063,0.69751 -5.62653,-2.83652 -12.46206,-5.95203 -21.39011,-0.97651 z m 0,-9.90455 c 11.67156,-8.32354 18.9721,-4.69652 26.41214,-0.9765 5.34753,2.65051 10.74156,5.39402 18.6466,0.8835 l 3.30152,5.81253 c -10.97406,7.11454 -15.43809,4.46402 -23.11063,0.6975 -5.62653,-2.79001 -12.46206,-5.95203 -21.39011,-0.9765 z" 
    style="stroke-width:1;stroke-linecap:round;stroke-linejoin:round;"
  />
</svg>
