<svg
  xmlns="http://www.w3.org/2000/svg"
  viewBox="0 0 100 100"
  height="1"
  width="1"
  >
  <path
    d="M 27.777776,85 H 18.888893 Q 15.222223,85 12.611107,82.388893 10,79.777777 10,76.111107 V 45 Q 10,36.666669 13.166669,29.388893 16.33333,22.111107 21.722224,16.722224 27.111107,11.333331 34.388893,8.166669 41.666669,5 50,5 q 8.333331,0 15.611107,3.166669 7.277786,3.166661 12.666669,8.555555 5.388894,5.388883 8.555555,12.666669 Q 90,36.666669 90,45 v 31.111107 q 0,3.66667 -2.611107,6.277786 Q 84.777777,85 81.111107,85 h -8.888883 q -3.666671,0 -6.277777,-2.611107 -2.611116,-2.611116 -2.611116,-6.277786 V 58.333331 q 0,-3.666661 2.611116,-6.277778 2.611106,-2.611106 6.277777,-2.611106 h 8.888883 V 45 q 0,-13 -9.055554,-22.055553 Q 63,13.888893 50,13.888893 q -13,0 -22.055553,9.055554 Q 18.888893,32 18.888893,45 v 4.444447 h 8.888883 q 3.666671,0 6.277777,2.611106 2.611116,2.611117 2.611116,6.277778 v 17.777776 q 0,3.66667 -2.611116,6.277786 Q 31.444447,85 27.777776,85 Z m 0,-26.666669 h -8.888883 v 17.777776 h 8.888883 z m 44.444448,0 v 17.777776 h 8.888883 V 58.333331 Z m -44.444448,0 h -8.888883 z m 44.444448,0 h 8.888883 z"
    style="stroke-width:0.111111" 
  />
</svg>
