<svg
  xmlns="http://www.w3.org/2000/svg"
  viewBox="0 0 100 100"
  height="1"
  width="1"
>
  <path
    d="m 85.852301,72.02157 c -1.12119,0 -2.14894,-0.39242 -3.08326,-1.17726 -0.93431,-0.78483 -1.40147,-1.92471 -1.40147,-3.41963 v -8.85743 h -8.96947 c -1.49491,0 -2.61609,-0.46716 -3.36355,-1.40149 -0.74745,-0.93432 -1.12118,-1.96209 -1.12118,-3.08328 0,-1.12119 0.37373,-2.14895 1.12118,-3.08328 0.74746,-0.93432 1.86864,-1.40149 3.36355,-1.40149 h 8.96947 v -4.48477 c 0,-8.82005 -3.06457,-16.2573 -9.1937,-22.31174 -6.12914,-6.05444 -13.52894,-9.08166 -22.19943,-9.08166 -3.2888,0 -6.40943,0.46717 -9.36187,1.40149 -2.95245,0.93433 -5.66198,2.26108 -8.12858,3.98024 l -6.50286,-6.27868 c 3.36355,-2.61612 7.08214,-4.6155797 11.15577,-5.99838 C 41.210531,5.4414 45.489711,4.75 49.974441,4.75 c 5.53117,0 10.74467,1.04645 15.64051,3.1393403 4.89583,2.09289 9.17501,4.9706197 12.83754,8.6331797 3.66253,3.66257 6.55892,7.94179 8.68917,12.83766 2.13024,4.89588 3.19537,10.1468 3.19537,15.75276 V 67.5368 c 0,1.49492 -0.46716,2.61611 -1.40148,3.36357 -0.93432,0.74747 -1.96207,1.1212 -3.08325,1.1212 z m -8.18464,17.93908 -4.48473,-4.48477 h -0.78483 c -2.4666,0 -4.57816,-0.87827 -6.33468,-2.6348 -1.75652,-1.75654 -2.63478,-3.86812 -2.63478,-6.33474 V 75.7215 L 20.935811,33.2283 c -0.67271,1.7939 -1.2333,3.71862 -1.68178,5.77414 -0.44847,2.05552 -0.67271,4.09235 -0.67271,6.1105 v 4.48477 h 8.96947 c 2.4666,0 4.57816,0.87827 6.33468,2.6348 1.75652,1.75654 2.63478,3.86812 2.63478,6.33474 v 17.93909 c 0,2.46662 -0.87826,4.5782 -2.63478,6.33474 -1.75652,1.75653 -3.86808,2.6348 -6.33468,2.6348 h -8.96947 c -2.4666,0 -4.57816,-0.87827 -6.33468,-2.6348 -1.75652,-1.75654 -2.63478,-3.86812 -2.63478,-6.33474 v -31.3934 c 0,-3.36358 0.39241,-6.61504 1.17724,-9.75438 0.78483,-3.13934 1.9247,-6.12918 3.41961,-8.96954 L 2.436291,14.6165 c -0.89695,-0.89696 -1.34542,-1.9434 -1.34542,-3.13934 0,-1.19594 0.44847,-2.2423897 1.34542,-3.1393397 C 3.333241,7.51561 4.379671,7.08582 5.575601,7.04845 c 1.19593,-0.0374 2.24237,0.39241 3.13931,1.2893703 L 93.476341,93.21211 c 0.75816,0.78315 0.93951,2.40672 0.53658,3.87711 -0.39434,1.43907 -1.312,2.04215 -2.80399,2.49818 -1.76473,0.5394 -3.55306,-0.37609 -4.41631,-1.09871 -1.95932,-1.64016 -4.58578,-3.99141 -9.12496,-8.52804 z m -59.08634,-31.3934 v 17.93909 h 8.96947 V 58.56725 Z m 0,0 h 8.96947 z m 53.81678,0 h 8.96947 z"
    style="stroke-width:0.112119" 
  />
</svg>
