<svg
  xmlns="http://www.w3.org/2000/svg"
  viewBox="0 0 100 100"
  height="1"
  width="1"
>
  <path
    d="m 62.70715,45.25 h -25.4125 q -0.59375,1.425 -1.425,2.79062 -0.83125,1.36563 -2.01875,2.31563 L 37.29465,88 h 25.4125 L 66.1509,50.35625 Q 64.9634,49.2875 64.13215,47.98125 63.3009,46.675 62.70715,45.25 Z m -26.71875,-19 -1.30625,5.225 q 0.83125,0.95 1.48438,2.01875 0.65312,1.06875 1.12812,2.25625 h 25.4125 q 0.475,-1.1875 1.12813,-2.25625 Q 64.4884,32.425 65.31965,31.475 L 64.0134,26.25 Z m 1.30625,71.25 q -3.68125,0 -6.4125,-2.43438 Q 28.1509,92.63125 27.79465,88.95 L 24.1134,47.8625 q -0.11875,-1.1875 0.41563,-2.19688 0.53437,-1.00937 1.60312,-1.60312 0.95,-0.59375 1.6625,-1.425 0.7125,-0.83125 0.7125,-2.01875 0,-1.06875 -0.475,-1.95938 -0.475,-0.89062 -1.425,-1.48437 -1.1875,-0.59375 -1.78125,-1.84063 -0.59375,-1.24687 -0.2375,-2.55312 L 27.6759,20.3125 Q 28.03215,18.65 29.3384,17.7 30.64465,16.75 32.30715,16.75 H 45.2509 V 12 h -2.375 Q 40.85715,12 39.49153,10.63437 38.1259,9.26875 38.1259,7.25 q 0,-2.01875 1.36563,-3.38438 Q 40.85715,2.5 42.8759,2.5 h 14.25 q 2.01875,0 3.38438,1.36562 1.36562,1.36563 1.36562,3.38438 0,2.01875 -1.36562,3.38437 Q 59.14465,12 57.1259,12 h -2.375 v 4.75 h 12.94375 q 1.6625,0 2.90938,0.95 1.24687,0.95 1.60312,2.6125 l 3.20625,12.46875 q 0.35625,1.30625 -0.2375,2.55312 -0.59375,1.24688 -1.78125,1.84063 -0.95,0.475 -1.48437,1.30625 -0.53438,0.83125 -0.53438,1.9 0,1.30625 0.65313,2.19687 0.65312,0.89063 1.72187,1.48438 1.06875,0.59375 1.6625,1.60312 0.59375,1.00938 0.475,2.19688 l -3.68125,40.96875 q -0.35625,3.68125 -3.0875,6.175 Q 66.3884,97.5 62.70715,97.5 Z M 50.0009,45.25 Z m 0,-9.5 z"
    style="stroke-width:0.11875" 
	/>
</svg>
