<?xml version="1.0" encoding="UTF-8" standalone="no"?>
<svg
   version="1.1"
   viewBox="0 0 100 100"
   id="svg1"
   width="1"
   height="1"
   xmlns="http://www.w3.org/2000/svg"
   xmlns:svg="http://www.w3.org/2000/svg">
  <defs
     id="defs1" />
  <g
     transform="matrix(0.04382028,0.04043978,-0.04043978,0.04382028,43.354802,31.832426)"
     id="g1"
     style="fill:#ffffff;fill-opacity:1;stroke-width:0;stroke-dasharray:none;stroke:none;stroke-opacity:1">
    <path
       d="m 250.49,-812.37 c 5.4854,-59.353 80.907,-76.918 106.3,-17.614 9.7574,22.792 -2.0554,65.147 -27.444,72.912 -9.6324,2.9159 -8.0416,19.476 -6.7587,25.192 11.432,50.932 29.517,94.473 32.225,155.1 0.38183,5.0543 -2.396,5.7126 -5.0688,6.517 -41.218,8.9582 -42.027,58.466 -44.77,80.879 l 19.499,914.99 c 0.35508,16.662 29.634,58.619 78.204,22.882 15.816,-12.191 16.329,-39.312 25.199,-69.949 9.717,-33.562 46.556,-32.257 62.553,-1.4765 44.906,86.408 10.46,190.09 -3.789,224.78 -28.03,68.24 -24.909,99.611 6.5539,151.15 23.377,38.292 53.152,76.909 63.05,115 20.116,77.418 -5.8513,152.01 -79.435,172.55 -49.468,10.672 -79.331,15.991 -196.22,3.8884 -79.632,-18.563 -164.18,-21.355 -232.86,-98.715 -83.99,-112.41 -37.744,-208.36 9.5426,-304.18 25.909,-44.782 51.857,-89.539 19.131,-170.57 -24.917,-79.177 -48.489,-158.44 -2.9107,-241.89 15.533,-28.749 57.309,-38.34 72.99,11.006 9.1906,41.114 0.28323,92.32 34.757,119.33 19.527,13.634 44.745,-4.2524 44.895,-11.151 l 18.212,-837.66 c 1.5029,-23.597 -24.856,-24.75 -41.167,-33.998 -20.337,-9.2812 -10.108,-31.762 -8.0372,-50.719 -13.903,-3.2571 -27.806,-11.07 -41.709,7.5307 -8.7799,11.864 -26.613,6.907 -23.027,-15.206 -9.7038,-11.998 -5.4652,-20.064 6.0825,-26.068 1.3265,-18.024 21.717,-19.76 28.096,-1.7379 1.56,21.992 20.026,22.249 33.599,26.213 l 15.062,-64.4 c -7.5764,0.11263 -26.692,-14.662 -40.695,4.4441 -9.3716,16.106 -30.091,4.7545 -25.199,-13.468 -10.116,-13.966 -5.8859,-21.476 5.7929,-25.634 0.59819,-17.096 22.45,-21.743 28.096,-3.9102 1.4717,23.373 19.833,22.259 34.323,26.502 l 15.641,-65.17 c -4.3706,0.8546 -28.534,-14.167 -41.274,5.6481 -7.5529,11.834 -29.727,9.6912 -24.909,-14.337 -8.5012,-10.587 -6.2702,-19.584 6.0825,-27.082 -0.35351,-15.764 25.121,-21.169 28.385,-0.72411 0.64661,18.726 17.283,22.606 33.744,26.647 l 14.772,-65.025 c -5.2929,0.94701 -25.803,-12.638 -38.233,2.6068 -14.052,22.269 -32.372,8.9884 -28.675,-11.296 -7.4022,-12.081 -6.1965,-21.61 7.2411,-27.516 2.7586,-22.595 28.155,-19.249 29.254,0 0.77428,13.002 14.45,19.552 32.901,23.716 z"
       fill-rule="evenodd"
       id="path1"
       style="fill:#ffffff;fill-opacity:1;stroke-width:0;stroke-dasharray:none;stroke:none;stroke-opacity:1" />
  </g>
</svg>
