<svg
  xmlns="http://www.w3.org/2000/svg"
  viewBox="0 0 100 100"
  height="1"
  width="1"
>
  <path
    d="m 35.866445,97.497722 q -1.663139,0 -2.909172,-0.890367 -1.245554,-0.890367 -1.720737,-2.43423 L 19.124424,54.749546 H 7.2499041 q -2.0183252,0 -3.3843546,-1.365549 -1.3655493,-1.36555 -1.3655493,-3.384115 0,-2.018325 1.3655493,-3.384355 1.3655494,-1.365549 3.3843546,-1.365549 H 22.686852 q 1.543145,0 2.790378,0.890367 1.247954,0.890367 1.723136,2.43423 l 7.83715,25.530254 15.080561,-67.8037287 q 0.357586,-1.6631383 1.663138,-2.7310987 1.305552,-1.0679604 2.96845,-1.0679604 1.663138,0 2.968687,1.0103625 1.305552,1.0103626 1.663139,2.671821 L 69.71239,50.832411 76.362064,29.577119 q 0.475182,-1.543143 1.723136,-2.43447 1.245554,-0.890367 2.790617,-0.890367 1.543142,0 2.731098,0.830369 1.187956,0.83037 1.780734,2.255917 l 5.93714,15.91189 h 1.425547 q 2.018326,0 3.384115,1.365549 Q 97.5,47.981557 97.5,50.000362 q 0,2.018325 -1.365549,3.384115 -1.365549,1.365549 -3.384115,1.365549 h -4.749904 q -1.543142,0 -2.731098,-0.830369 Q 84.081378,53.089288 83.4886,51.66374 l -2.255917,-6.056175 -7.718594,24.81796 q -0.475182,1.543143 -1.780734,2.493508 -1.305551,0.950364 -2.968687,0.830369 -1.663139,-0.119996 -2.849895,-1.127958 -1.187956,-1.010363 -1.543142,-2.553026 L 54.753267,28.745067 40.38524,93.817696 q -0.357587,1.663138 -1.603141,2.612303 -1.245554,0.950364 -2.909412,1.06796 z"
    style="stroke-width:0.118746"
  />
</svg>
