<svg
  xmlns="http://www.w3.org/2000/svg"
  viewBox="0 0 100 100"
  height="1"
  width="1"
>
  <path
    d="m 28.4,63.83636 q -8.934546,0 -15.267273,-6.18545 Q 6.8,51.46546 6.8,42.53091 q 0,-7.65818 4.614546,-13.64727 4.614545,-5.9891 12.076363,-7.65818 2.454545,-9.03273 9.818182,-14.6291 Q 40.672727,1 50,1 q 11.487271,0 19.489093,8.00182 8.001814,8.00182 8.001814,19.48909 6.774551,0.78545 11.241822,5.84182 Q 93.2,39.38909 93.2,46.16364 q 0,7.36363 -5.154542,12.51818 -5.154551,5.15454 -12.518187,5.15454 z m 0,-7.85454 h 47.127271 q 4.123636,0 6.970907,-2.84728 2.84728,-2.84727 2.84728,-6.9709 0,-4.12364 -2.84728,-6.97091 -2.847271,-2.84727 -6.970907,-2.84727 h -5.890907 v -7.85455 q 0,-8.14909 -5.743635,-13.89273 Q 58.149091,8.85454 50,8.85454 q -8.149091,0 -13.892727,5.74364 -5.743637,5.74364 -5.743637,13.89273 H 28.4 q -5.694546,0 -9.72,4.02545 -4.025454,4.02546 -4.025454,9.72 0,5.69455 4.025454,9.72 4.025454,4.02546 9.72,4.02546 z M 50,32.41818 Z"
    style="stroke-width:0.0981822" 
  />
</svg>
