<?xml version="1.0" encoding="UTF-8" standalone="no"?>
<svg
   enable-background="new 0 0 5000 3487.2068"
   version="1.1"
   viewBox="0 0 100 100"
   id="svg1"
   width="1"
   height="1"
   xmlns="http://www.w3.org/2000/svg"
   xmlns:svg="http://www.w3.org/2000/svg">
  <defs
     id="defs1" />
  <path
     d="M 20.894947,16.872728 16.689966,53.323372 C 16.590146,53.199464 16.525525,52.752569 41.980272,70.909549 7.6233789,47.296903 16.131379,52.766495 16.002182,52.673777 c -0.127536,-0.09171 -0.261586,-0.175679 -0.401612,-0.251953 -2.164809,-1.179226 -5.7597152,-0.51882 -8.8467627,1.820025 -3.7317024,2.827894 -5.3054354,7.036105 -3.5139675,9.400599 0.097124,0.128225 0.2021742,0.248401 0.3145756,0.360535 0.1130588,0.112797 0.2335805,0.21747 0.3609725,0.314102 0.1264516,0.09589 -7.9283237,-6.011269 26.0122891,18.198152 C -4.4292161,58.902591 -3.5837359,58.5188 30.356212,82.728297 -4.0006811,59.115653 -3.1343015,58.682462 30.805894,82.89228 -3.5509997,59.279635 -2.6713203,58.800846 31.269787,83.010375 -3.0871066,59.39773 -2.1979275,58.877141 31.74242,83.086391 -2.6144737,59.473747 -1.7214947,58.91516 32.219669,83.124163 -2.1372239,59.511518 -1.2423449,58.918731 32.69842,83.127272 -1.6584731,59.514625 -0.76359422,58.889541 33.176354,83.098926 -1.1805394,59.48628 -0.28946032,58.832695 33.651742,83.041918 -0.70515152,59.429273 0.18212758,58.749088 34.123254,82.958641 -0.23363962,59.345995 0.64983958,58.641111 34.589845,82.851173 0.23295138,59.238528 1.1107308,58.512745 35.050698,82.72127 0.69380458,59.108624 1.5639841,58.361941 35.505148,82.57046 1.1482549,58.957816 2.0127346,58.190233 35.952607,82.40005 1.5957134,58.787404 2.4525933,58.002724 36.392598,82.211172 2.0357051,58.598526 2.8849851,57.794845 36.824686,82.004818 2.4677929,58.392172 3.3075732,57.573292 37.248452,81.781857 2.891559,58.169212 3.7237394,57.333232 37.663497,81.543071 3.3066042,57.930425 4.1292849,57.079245 38.069461,81.289162 3.7125677,57.676515 4.5257486,56.812036 38.465982,81.020755 4.1090884,57.40811 4.9127695,56.52843 38.852813,80.738346 4.4959193,57.1257 5.2920006,56.22892 39.232253,80.43819 4.8753594,56.825544 5.658141,55.913567 39.598849,80.122455 5.2419558,56.50981 6.0114377,55.582633 39.951994,79.79175 5.5951005,56.179104 6.3512827,55.236727 40.291174,79.446736 5.9342805,55.834091 6.6752631,54.878413 40.615952,79.088138 6.2590589,55.475493 6.9848419,54.506517 40.925968,78.716698 6.5690746,55.104053 7.2796579,54.123675 41.220898,78.333173 6.8640047,54.720528 7.5593884,53.728751 41.500495,77.938323 7.1436021,54.325679 7.8237861,53.324402 41.764532,77.532912 7.4076389,53.920267 8.0726233,52.907589 42.012837,77.117677 7.6559441,53.505031 8.3057288,52.484754 42.24524,76.693341 7.8883466,53.080694 8.5210318,52.050919 42.46155,76.260569 8.1046565,52.647923 8.722142,51.610548 42.661558,75.820025 8.3046649,52.20738 8.9050507,51.162404 42.844925,75.372416 8.4880314,51.75977 9.0656179,50.731895 43.005539,74.940365 8.6486461,51.32772 9.2148328,50.294145 43.155277,74.50444 8.7983835,50.891795 9.3550704,49.856318 43.29571,74.065416 8.9388168,50.452772 9.4879039,49.415396 43.427992,73.623849 9.0710992,50.011203 9.6125865,48.970027 43.55296,73.180171 9.1960669,49.567526 9.7299544,48.52445 43.671196,72.734632 9.314303,49.121985 9.8424906,48.07891 43.783031,72.287458 9.4261382,48.674813 9.9486259,47.629836 43.888447,71.838727 9.5315534,48.226081 10.046441,47.179206 43.986222,71.388474 9.6293289,47.775829 10.100518,46.709955 44.040785,70.919413 9.6838919,47.306769 10.155081,46.240893 44.095348,70.45039 9.7384548,46.837745 10.209644,45.771871 44.149911,69.981348 9.7930177,46.368704 10.264207,45.302829 44.204474,69.512287 9.8475806,45.899642 10.318769,44.833767 44.259037,69.043245 9.9021435,45.4306 10.373332,44.364726 44.3136,68.574222 9.9567064,44.961578 10.427895,43.895702 44.368159,68.105181 10.011266,44.492536 10.482454,43.42666 44.422722,67.636139 10.065828,44.023493 10.537017,42.957619 44.477285,67.167096 10.120391,43.554451 10.59158,42.488576 44.531848,66.698075 10.174954,43.085429 10.646143,42.019553 44.58641,66.229033 10.229517,42.616387 10.700706,41.550511 44.640973,65.75999 10.28408,42.147345 10.755269,41.081469 44.695536,65.290948 10.338643,41.678302 10.809832,40.612428 44.750099,64.821888 10.393206,41.209242 10.864395,40.143366 44.804662,64.352845 10.447769,40.7402 10.918958,39.674324 44.859225,63.883803 10.502332,40.271157 10.973521,39.205282 44.913788,63.414762 10.556895,39.802115 11.028084,38.73624 44.968351,62.94572 10.611458,39.333073 11.082647,38.267198 45.022914,62.476677 10.666021,38.864031 11.137209,37.798157 45.07749,62.007635 10.720597,38.394989 11.191786,37.329115 45.132053,61.538593 10.77516,37.925947 11.246349,36.860072 45.186616,61.069552 10.829723,37.456906 11.300912,36.39103 45.241175,60.600509 10.884282,36.987864 11.355471,35.921988 45.295738,60.131467 10.938845,36.518822 11.410034,35.452946 45.350301,59.662425 10.993408,36.049779 11.464596,34.983905 45.404864,59.193384 11.04797,35.580737 11.519159,34.514862 45.459427,58.724322 11.102533,35.111677 11.573722,34.045801 45.51399,58.255299 11.157096,34.642654 11.628285,33.576779 45.568549,57.786276 11.211655,34.173631 11.682844,33.107755 45.623108,57.317253 11.266215,33.704608 11.737403,32.638733 45.677671,56.84823 11.320777,33.235585 11.791966,32.16971 45.732234,56.379188 11.37534,32.766542 11.846529,31.700668 45.7868,55.910147 11.429907,32.297502 11.901096,31.231626 45.841363,55.441105 11.48447,31.828459 11.955659,30.762585 45.895922,54.972062 11.539029,31.359417 12.010218,30.293542 45.950485,54.503039 11.593592,30.890394 12.064781,29.824519 46.005048,54.034016 11.648155,30.421371 12.119344,29.355496 46.059607,53.564993 11.702714,29.952348 12.173903,28.886473 46.11417,53.095951 11.757277,29.483306 12.228466,28.417431 46.168733,52.626928 11.81184,29.014283 12.283029,27.948408 46.223296,52.157887 11.866403,28.545242 12.337592,27.479366 46.277857,51.688864 11.920964,28.076219 12.392153,27.010343 46.33242,51.219822 11.975527,27.607177 12.446716,26.541301 46.386983,50.750779 12.03009,27.138134 12.501279,26.072259 46.441546,50.281737 12.084653,26.669092 12.555842,25.603217 46.496105,49.812696 12.139212,26.20005 12.610401,25.134175 46.55067,49.343654 12.193777,25.731008 12.664966,24.665133 46.605233,48.874611 12.248339,25.261966 12.719529,24.196091 46.659796,48.405569 12.302902,24.792924 12.774092,23.727049 46.714359,47.936527 12.357465,24.323882 12.828654,23.258007 46.768923,47.467486 12.41203,23.85484 12.883219,22.788965 46.823483,46.998463 12.466589,23.385817 12.937778,22.319942 46.878045,46.52942 12.521152,22.916775 12.992341,21.8509 46.932608,46.060378 12.575715,22.447733 13.046904,21.381858 46.987171,45.591356 12.630278,21.97871 13.101467,20.912835 47.04173,45.122314 12.684837,21.509668 13.156026,20.443793 47.096293,44.653272 12.7394,21.040626 13.210589,19.974751 47.150858,44.184229 12.793965,20.571584 13.265154,19.50571 47.205421,43.715206 12.848528,20.102561 13.319717,19.036687 47.25998,43.246165 12.903087,19.63352 13.374276,18.567644 47.314543,42.777104 12.95765,19.164459 13.428839,18.098583 47.369112,42.308042 21.600017,24.597989 21.755813,24.373034 21.755813,24.373034 c 0,0 0.628658,-0.220623 26.084488,17.936339 -34.356893,-23.612645 -33.469614,-24.207332 0.471189,0.0022 -34.356893,-23.612646 -33.469614,-24.207332 0.471189,0.0022 -34.356894,-23.612646 -33.469614,-24.207332 0.471169,0.0022 -34.356893,-23.612645 -33.469613,-24.207331 0.471189,0.0022 -34.356893,-23.612645 -33.469613,-24.207331 0.471189,0.0022 -34.356893,-23.612645 -33.469614,-24.207331 0.471189,0.0022 -34.356893,-23.612646 -33.469614,-24.207332 0.47117,0.0022 -34.356893,-23.612646 -33.469614,-24.207332 0.47117,0.0022 -34.356893,-23.612646 -33.469614,-24.207332 0.47117,0.0022 C 17.724032,18.71658 18.611311,18.121894 52.552114,42.331431 18.195221,18.718786 19.0825,18.1241 53.023303,42.333638 18.66641,18.720992 19.553689,18.126306 53.494473,42.33584 19.13758,18.723194 20.024859,18.128508 53.965662,42.338045 19.608769,18.7254 20.496048,18.130714 54.436813,42.34025 20.07992,18.727606 20.967199,18.132919 54.907964,42.342456 20.551071,18.729811 21.43835,18.135125 55.379115,42.344662 21.022222,18.732017 21.909501,18.137331 55.850285,42.346868 21.493391,18.734223 22.380671,18.139537 56.321454,42.349074 21.964561,18.736429 22.851841,18.141743 56.792643,42.351281 22.43575,18.738635 23.32303,18.143949 57.263813,42.353487 22.90692,18.740841 23.794199,18.146155 57.734983,42.355689 23.37809,18.743045 24.265369,18.148358 58.206153,42.357895 23.84926,18.74525 24.736539,18.150564 58.677323,42.360101 24.32043,18.747456 25.207709,18.15277 59.148493,42.362307 24.7916,18.749662 25.678879,18.154976 59.619682,42.364513 c -34.356893,-23.612645 -33.469614,-24.207331 0.47117,0.0022 -34.356893,-23.612645 -33.469614,-24.207331 0.47117,0.0022 -34.356893,-23.612645 -33.469614,-24.207331 0.47117,0.0022 -34.356893,-23.612645 -33.469614,-24.207331 0.47117,0.0022 -34.356893,-23.612645 -33.469614,-24.207332 0.47117,0.0022 -34.356893,-23.612645 -33.469614,-24.207332 0.47117,0.0022 -34.356893,-23.612645 -33.469614,-24.207331 0.47117,0.0022 C 28.560978,18.767303 29.448258,18.172617 63.38906,42.382154 29.032167,18.769509 29.919447,18.174823 63.86023,42.38436 29.503337,18.771715 30.390616,18.177029 64.3314,42.386566 29.974507,18.773921 30.861786,18.179235 64.802589,42.388772 30.445696,18.776127 31.332975,18.181441 65.273778,42.390978 30.916885,18.778332 31.804164,18.183646 65.744929,42.393183 31.388036,18.780538 32.275315,18.185852 66.216099,42.395389 31.859206,18.782744 32.746485,18.188058 66.687288,42.39759 32.330395,18.784944 33.217674,18.190258 67.158458,42.399795 32.801565,18.78715 33.688844,18.192464 67.629647,42.402001 33.272754,18.789356 34.160033,18.19467 68.100817,42.404207 33.743924,18.791562 34.631203,18.196876 68.571987,42.406413 34.215094,18.793768 35.102373,18.199082 69.043157,42.408619 34.686264,18.795974 35.573543,18.201287 69.514327,42.410825 35.157434,18.798179 36.044713,18.203493 69.985515,42.413031 35.628622,18.800385 36.515902,18.205699 70.456723,42.415237 44.687629,24.705182 44.845325,24.480988 44.845325,24.480988 L 41.482024,53.284311 C 41.382656,53.159635 41.318843,52.711247 66.77423,70.868209 32.417337,47.255562 40.925337,52.723635 40.79614,52.630156 c -0.12735,-0.09248 -0.261244,-0.17719 -0.401156,-0.254176 -2.16348,-1.190246 -5.766555,-0.532481 -8.860632,1.812063 -3.731703,2.827894 -5.305436,7.036105 -3.513968,9.4006 0.09712,0.128224 0.202174,0.2484 0.314576,0.360535 0.11306,0.112792 0.23358,0.217469 0.360991,0.314101 0.126454,0.09589 -7.928323,-6.011269 26.012289,18.198153 C 20.351347,58.848787 21.196827,58.464995 55.136775,82.674493 20.779882,59.061847 21.646262,58.628658 55.586457,82.838477 21.229564,59.22583 22.109243,58.747042 56.05035,82.956569 21.693457,59.343924 22.582636,58.823337 56.522983,83.032587 22.16609,59.419941 23.059069,58.861354 57.000232,83.070358 22.643339,59.457712 23.538218,58.864927 57.478983,83.073466 23.12209,59.460821 24.016969,58.835735 57.956917,83.045125 23.600024,59.432479 24.491103,58.778894 58.432305,82.988112 24.075412,59.375467 24.962691,58.695284 58.903817,82.904835 24.546924,59.292191 25.430403,58.587308 59.370408,82.797369 25.013515,59.184724 25.891294,58.458941 59.83128,82.667464 25.474387,59.054819 26.344567,58.308137 60.28573,82.516656 25.928837,58.90401 26.793317,58.136428 60.733189,82.346246 26.376296,58.7336 27.233176,57.948918 61.17318,82.157366 26.816287,58.544722 27.665568,57.741041 61.605268,81.951012 27.248375,58.338368 28.088156,57.519486 62.029034,81.728052 27.672141,58.115408 28.504322,57.279428 62.44408,81.489267 28.087187,57.876621 28.909867,57.025441 62.850043,81.235356 28.49315,57.622711 29.306331,56.758231 63.246583,80.966949 28.88969,57.354304 29.693371,56.474626 63.633433,80.68454 29.27654,57.071896 30.072621,56.175117 64.012873,80.384386 29.65598,56.77174 30.438761,55.859761 64.379469,80.068651 30.022576,56.456006 30.792058,55.528827 64.732614,79.737944 30.375721,56.1253 31.131903,55.182921 65.071794,79.392932 30.714901,55.780287 31.455883,54.824609 65.396572,79.034334 31.039679,55.421689 31.765462,54.452711 65.706588,78.662892 31.349695,55.050247 32.060278,54.06987 66.001518,78.279368 31.644625,54.666722 32.340009,53.674945 66.281116,77.88452 31.924222,54.271873 32.604407,53.270597 66.545152,77.479106 32.188259,53.866461 32.853244,52.853785 66.793457,77.063872 32.436564,53.451227 33.086349,52.430951 67.02586,76.639535 32.668967,53.02689 33.301652,51.997115 67.24217,76.206763 32.885277,52.594118 33.502762,51.556742 67.442178,75.766221 33.085285,52.153576 33.685671,51.108601 67.625545,75.318611 33.268652,51.705965 33.846238,50.678089 67.786159,74.88658 33.429266,51.273935 33.995453,50.240358 67.935901,74.450635 33.579008,50.837989 34.135695,49.802514 68.076334,74.011612 33.719441,50.398966 34.268528,49.361592 68.20862,73.570063 33.851727,49.957417 34.393214,48.916241 68.333588,73.126384 33.976695,49.513739 34.510582,48.470664 68.451824,72.680846 34.094931,49.068199 34.623119,48.025125 68.563665,72.233671 34.206772,48.621026 34.72926,47.576052 68.669086,71.784941 34.312193,48.172296 34.827081,47.125419 68.766867,71.334689 34.409974,47.722043 34.881163,46.658068 68.82143,70.867376 34.464537,47.25473 34.935726,46.190756 68.875993,70.400081 34.5191,46.787436 34.990289,45.723461 68.930552,69.932788 34.573659,46.320143 35.044848,45.256168 68.985121,69.465474 34.628228,45.852829 35.099416,44.788854 69.03968,68.998181 34.682787,45.385536 35.153976,44.321561 69.094243,68.530887 34.73735,44.918241 35.208539,43.854267 69.148806,68.063574 34.791913,44.450929 35.263101,43.386954 69.203368,67.59626 34.846475,43.983615 35.317664,42.91964 69.257931,67.128967 34.901038,43.516322 35.372227,42.452347 69.312494,66.661673 34.955601,43.049027 35.42679,41.985053 69.367053,66.194378 35.01016,42.581733 35.481349,41.517758 69.421616,65.727085 35.064723,42.11444 35.535912,41.050465 69.476179,65.259771 35.119286,41.647126 35.590475,40.583151 69.530742,64.792459 35.173849,41.179814 35.645038,40.115839 69.585305,64.325145 35.228412,40.712501 35.699601,39.648526 69.639868,63.857852 35.282975,40.245207 35.754164,39.181232 69.694431,63.390538 35.337538,39.777894 35.808727,38.713919 69.748994,62.923225 35.392101,39.31058 35.86329,38.246605 69.803557,62.455913 35.446664,38.843267 35.917853,37.779292 69.85812,61.988599 35.501227,38.375955 35.972416,37.311979 69.912683,61.521287 35.55579,37.908642 36.026979,36.844667 69.967246,61.053992 35.610352,37.441348 36.081541,36.377372 70.021808,60.586699 35.664915,36.974053 36.136104,35.910078 70.076371,60.119385 35.719478,36.50674 36.190667,35.442765 70.130934,59.652073 35.774041,36.039428 36.24523,34.975453 70.185497,59.184778 35.828604,35.572133 36.299793,34.508157 70.24006,58.717466 35.883167,35.10482 36.354356,34.040845 70.294619,58.250191 35.937726,34.637545 36.408915,33.57357 70.349178,57.782916 35.992285,34.17027 36.463474,33.106295 70.403741,57.31564 36.046848,33.702995 36.518037,32.63902 70.4583,56.848365 36.101407,33.23572 36.572596,32.171745 70.512863,56.381072 36.15597,32.768425 36.627159,31.70445 70.567426,55.913758 36.210533,32.301113 36.681722,31.237138 70.621989,55.446464 36.265096,31.833818 36.736285,30.769843 70.676552,54.979171 36.319659,31.366524 36.790848,30.30255 70.731115,54.511876 36.374222,30.899231 36.845411,29.835256 70.785674,54.044601 36.428781,30.431955 36.89997,29.367981 70.840237,53.577326 36.483344,29.96468 36.954533,28.900705 70.8948,53.110013 36.537907,29.497368 37.009096,28.433392 70.949359,52.642719 36.592466,29.030073 37.063655,27.966098 71.003922,52.175406 36.647029,28.562761 37.118218,27.498785 71.058485,51.708111 36.701592,28.095466 37.172781,27.031492 71.113044,51.240817 36.756151,27.628173 37.22734,26.564198 71.167607,50.773524 36.810714,27.160879 37.281903,26.096904 71.22217,50.306229 36.865277,26.693584 37.336466,25.629609 71.276733,49.838935 36.91984,26.22629 37.391029,25.162315 71.331296,49.371622 36.974403,25.758977 37.445592,24.695002 71.385859,48.904328 37.028966,25.291684 37.500155,24.227708 71.440422,48.437034 37.083528,24.824389 37.554717,23.760414 71.494984,47.969722 37.138091,24.357076 37.60928,23.293101 71.549547,47.502409 37.192654,23.889763 37.663843,22.825788 71.604106,47.035133 37.247213,23.422488 37.718402,22.358513 71.658669,46.56784 37.301776,22.955194 37.772965,21.891219 71.713232,46.100546 37.356339,22.4879 37.827528,21.423925 71.767791,45.633251 37.410898,22.020606 37.882087,20.956631 71.822354,45.165958 37.465461,21.553312 37.93665,20.489337 71.876917,44.698664 37.520024,21.086018 37.991213,20.022043 71.93148,44.231369 37.574587,20.618724 38.045776,19.554749 71.986039,43.764076 37.629146,20.15143 38.100335,19.087455 72.040602,43.296782 37.683709,19.684136 38.154898,18.620161 72.095165,42.829469 37.738272,19.216823 38.209461,18.152848 72.149728,42.362155 46.380633,24.652101 46.53643,24.427147 46.53643,24.427147 c 0,0 0.625332,-0.225069 26.080687,17.931969 C 38.260224,18.74647 39.143703,18.147984 73.084962,42.356877 38.728069,18.744232 39.611548,18.145746 73.552807,42.354638 39.195914,18.741992 40.079393,18.143506 74.020652,42.3524 39.663759,18.739754 40.547238,18.141268 74.488497,42.35016 40.131604,18.737514 41.015083,18.139028 74.956342,42.347921 40.599449,18.735276 41.482928,18.13679 75.424187,42.34568 41.067294,18.733036 41.950773,18.13455 75.892032,42.343443 41.535139,18.730798 42.418618,18.132311 76.359858,42.341203 42.002965,18.728557 42.886444,18.130071 76.827684,42.338962 42.470791,18.726317 43.35427,18.127831 77.295529,42.336725 42.938636,18.724079 43.822115,18.125593 77.763374,42.334485 43.406481,18.721839 44.28996,18.123353 78.231219,42.332246 43.874326,18.719601 44.757805,18.121115 78.699064,42.330006 44.342171,18.717361 45.22565,18.118875 79.16689,42.327769 44.809997,18.715123 45.693476,18.116637 79.634697,42.32553 45.277804,18.712885 46.161283,18.114399 80.102504,42.32329 45.745611,18.710645 46.62909,18.112159 80.57033,42.321051 46.213437,18.708407 47.096917,18.10992 81.038156,42.318814 46.681263,18.706168 47.564743,18.107682 81.506001,42.316574 47.149108,18.703928 48.032588,18.105442 81.973846,42.314335 47.616953,18.70169 48.500433,18.103204 82.441672,42.312095 48.084779,18.69945 48.968259,18.100964 82.909498,42.309857 48.552605,18.697212 49.436085,18.098726 83.377324,42.30762 49.020431,18.694974 49.903911,18.096488 83.84515,42.305379 49.488257,18.692734 50.371737,18.094248 84.312995,42.30314 49.956102,18.690496 50.839582,18.09201 84.780821,42.3009 50.423928,18.688256 51.307408,18.08977 85.248666,42.298663 50.891773,18.686017 51.775253,18.087531 85.716492,42.29642 51.359599,18.683775 52.243079,18.08529 86.184337,42.29418 51.827444,18.681535 52.710924,18.08305 86.652163,42.291943 52.29527,18.679297 53.17875,18.080811 87.120008,42.289703 52.763115,18.677057 53.646595,18.078571 87.587834,42.287464 53.230941,18.674819 54.114421,18.076333 88.055679,42.285224 53.698786,18.672579 54.582266,18.074093 88.523524,42.282986 54.166631,18.670341 55.050111,18.071855 88.991369,42.280749 54.634476,18.668103 55.517956,18.069617 89.459214,42.278508 55.102321,18.665863 55.985801,18.067377 89.92706,42.276269 55.570166,18.663624 56.453646,18.065139 90.394867,42.274029 56.037973,18.661384 56.921453,18.062898 90.862712,42.271792 56.505819,18.659146 57.389298,18.06066 91.330557,42.269553 56.973664,18.656908 57.857143,18.058422 91.798383,42.267313 57.44149,18.654668 58.324969,18.056182 92.266228,42.265076 57.909335,18.65243 58.792814,18.053944 92.734073,42.262833 58.37718,18.650188 59.260659,18.051702 93.201899,42.260595 58.845006,18.64795 59.728485,18.049464 93.669725,42.258358 59.312832,18.645712 60.196311,18.047226 94.137551,42.256118 59.780658,18.643472 60.664137,18.044986 94.605396,42.253878 60.248503,18.641234 61.133882,18.042748 95.07326,42.251638 69.304165,24.541585 69.461861,24.31739 69.461861,24.31739 L 66.206668,53.181513 C 66.103901,53.062786 66.034178,52.625794 91.489374,70.782888 57.132481,47.170243 65.636681,52.650095 65.505584,52.562317 c -0.128655,-0.08671 -0.263505,-0.165914 -0.404063,-0.237665 -2.173359,-1.109384 -5.709176,-0.434464 -8.752335,1.870525 -3.731702,2.827893 -5.305245,7.036105 -3.513967,9.400599 0.09713,0.128228 0.202174,0.248399 0.314575,0.360536 0.113061,0.11279 0.233581,0.217467 0.360992,0.3141 0.126451,0.09589 -7.928324,-6.011269 26.012289,18.198153 C 45.166182,58.855919 46.011662,58.472127 79.951629,82.681625 45.594736,59.068979 46.461115,58.63579 80.40131,82.845608 46.044417,59.232964 46.924097,58.754174 80.865203,82.963703 46.50831,59.351056 47.397489,58.830469 81.337836,83.039719 46.980943,59.427073 47.873922,58.868487 81.815086,83.077486 47.458193,59.464841 48.353072,58.872056 82.293856,83.080599 47.936963,59.467953 48.831842,58.842869 82.77179,83.052254 48.414897,59.439607 49.305976,58.786023 83.247177,82.995241 48.890284,59.382596 49.777564,58.702412 83.718689,82.911965 49.361796,59.29932 50.245276,58.594436 84.18528,82.804497 49.828387,59.191851 50.706167,58.466068 84.646153,82.674594 50.28926,59.061948 51.159439,58.315266 85.100603,82.523781 50.74371,58.911135 51.60819,58.143554 85.548061,82.353374 51.191168,58.740729 52.048048,57.956046 85.988053,82.164491 51.63116,58.551847 52.48044,57.748165 86.420141,81.958137 52.063248,58.345492 52.903028,57.526612 86.843907,81.735177 52.487014,58.122532 53.319194,57.286552 87.258952,81.496391 52.902059,57.883746 53.72474,57.032566 87.664916,81.242481 53.308023,57.629835 54.121204,56.765357 88.061455,80.974074 53.704562,57.361429 54.508243,56.481749 88.448286,80.691665 54.091393,57.079019 54.887475,56.18224 88.827745,80.391511 54.470852,56.778864 55.253634,55.866886 89.194323,80.075775 54.83743,56.46313 55.606912,55.535952 89.547467,79.745069 55.190574,56.132424 55.946757,55.190046 89.886647,79.400057 55.529754,55.787411 56.270737,54.831733 90.211426,79.041459 55.854533,55.428814 56.580316,54.459837 90.521423,78.670017 56.16453,55.057372 56.875113,54.076996 90.816353,78.286493 56.45946,54.673847 57.154843,53.682071 91.09595,77.891643 56.739057,54.278998 57.419241,53.277723 91.359987,77.486232 57.003094,53.873587 57.668078,52.860909 91.608292,77.070997 57.251399,53.458351 57.901184,52.438074 91.840676,76.64666 57.483783,53.034014 58.116468,52.00424 92.056985,76.213888 57.700092,52.601244 58.317578,51.563867 92.256975,75.773346 57.900082,52.160701 58.500468,51.115724 92.440338,75.325736 58.083445,51.71309 58.662931,50.677615 92.603327,74.887776 58.246434,51.275131 58.814521,50.235855 92.755648,74.445979 58.398755,50.833334 58.959242,49.792158 92.898962,74.001182 58.542069,50.388536 59.094956,49.345461 93.034454,73.553932 58.677561,49.941287 59.222848,48.894412 93.162978,73.10463 58.806085,49.491985 59.345672,48.44321 93.285139,72.653543 58.928246,49.040897 59.460234,47.992122 93.40128,72.200879 59.044387,48.588233 59.570675,47.537558 93.511409,71.746713 59.154516,48.134067 59.673204,47.081492 93.614423,71.291047 59.25753,47.678401 59.723019,46.614426 93.664232,70.823317 59.307339,47.210671 59.772828,46.146695 93.714051,70.355584 59.357158,46.74294 59.822647,45.678964 93.763869,69.887854 59.406976,46.275209 59.872465,45.211234 93.813679,69.420122 59.456785,45.807478 59.922275,44.743503 93.863497,68.952392 59.506604,45.339747 59.972093,44.275772 93.913316,68.484661 59.556423,44.872016 60.021912,43.808041 93.963125,68.01693 59.606232,44.404285 60.071721,43.34031 94.012944,67.549199 59.656051,43.936554 60.12154,42.872579 94.062763,67.081468 59.70587,43.468823 60.171359,42.404848 94.112572,66.613737 59.755679,43.001091 60.221168,41.937117 94.162391,66.146005 59.805498,42.53336 60.270987,41.469386 94.212209,65.678256 59.855316,42.065611 60.320805,41.001636 94.262019,65.210524 59.905126,41.59788 60.370615,40.533905 94.311837,64.742794 59.954944,41.130149 60.420433,40.066174 94.361656,64.275063 60.004763,40.662418 60.470252,39.598443 94.411465,63.807332 60.054572,40.194687 60.520061,39.130712 94.461284,63.339601 60.104391,39.726956 60.56988,38.662981 94.511103,62.87187 60.15421,39.259225 60.619699,38.19525 94.560912,62.404139 60.204019,38.791494 60.669508,37.727519 94.610731,61.936388 60.253838,38.323744 60.719327,37.259768 94.660549,61.468657 60.303656,37.856013 60.769145,36.792037 94.710359,61.000926 60.353466,37.388282 60.818955,36.324307 94.760177,60.533195 60.403284,36.920551 60.868773,35.856576 94.809996,60.065446 60.453103,36.452801 60.918592,35.388825 94.859805,59.597715 60.502912,35.98507 60.968401,34.921095 94.909624,59.129984 60.552731,35.517338 61.01822,34.453364 94.959443,58.662252 60.60255,35.049607 61.068039,33.985632 95.009252,58.194521 60.652359,34.581876 61.117848,33.517901 95.059071,57.726771 60.702178,34.114126 61.167667,33.050151 95.10889,57.25904 60.751996,33.646395 61.217486,32.58242 95.158708,56.791291 60.801815,33.178646 61.267304,32.114671 95.208517,56.32356 60.851624,32.710914 61.317113,31.64694 95.258336,55.855828 60.901443,32.243183 61.366932,31.179209 95.308155,55.388097 60.951262,31.775452 61.416751,30.711477 95.357974,54.920366 61.001081,31.307721 61.46657,30.243746 95.407783,54.452616 61.05089,30.839971 61.516379,29.775997 95.457602,53.984886 61.100709,30.37224 61.566198,29.308265 95.50742,53.517155 61.150527,29.90451 61.616016,28.840534 95.557239,53.049424 61.200346,29.436779 61.665835,28.372804 95.607048,52.581693 61.250155,28.969048 61.715644,27.905073 95.656867,52.113962 61.299974,28.501317 61.765463,27.437342 95.706686,51.646231 61.349793,28.033585 61.815282,26.969611 95.756504,51.17848 61.399611,27.565835 61.865101,26.50186 95.806314,50.710768 61.449421,27.098123 61.91491,26.034148 95.856123,50.243057 61.49923,26.630411 61.964719,25.566436 95.905942,49.775345 61.549049,26.162699 62.014538,25.098724 95.955751,49.307614 61.598858,25.694968 62.064347,24.630993 96.00557,48.839883 61.648677,25.227237 62.114166,24.163262 96.055388,48.372151 61.698495,24.759506 62.163984,23.695531 96.105207,47.90442 61.748314,24.291775 62.213803,23.2278 96.155016,47.436689 61.798123,23.824044 62.263612,22.760069 96.204835,46.968958 61.847942,23.356313 62.313431,22.292338 96.254644,46.501246 61.897751,22.888601 62.36324,21.824626 96.304463,46.033535 61.94757,22.420889 62.413059,21.356914 96.354282,45.565784 61.997389,21.953139 62.462878,20.889164 96.404091,45.098054 62.047198,21.485408 62.512687,20.421433 96.45391,44.630323 62.097017,21.017677 62.562506,19.953702 96.503692,44.16261 62.146799,20.549965 62.612288,19.48599 96.553511,43.694879 62.196618,20.082234 62.662107,19.018259 96.60333,43.227148 62.246437,19.614503 62.711926,18.550528 96.653139,42.759417 62.296246,19.146772 62.761735,18.082797 96.702958,42.291686 62.346065,18.679041 62.811554,17.615066 96.752776,41.823937 62.395883,18.211291 62.861373,17.147316 96.802586,41.356206 62.445693,17.74356 62.911182,16.679585 96.852401,40.888474 62.495508,17.275829 62.960997,16.211854 96.902219,40.420725 62.545326,16.808079 63.010815,15.744104 96.952038,39.952994 62.595145,16.340348 63.060634,15.276373 97.001847,39.485281 62.644954,15.872636 63.110443,14.808661 97.051666,39.01755 62.694773,15.404905 63.160262,14.34093 97.101475,38.549819 62.744582,14.937174 63.210071,13.873199 97.151294,38.082107 62.794401,14.469462 63.25989,13.405487 97.201113,37.614377 62.84422,14.001731 63.309709,12.937756 97.250922,37.146646 62.894029,13.534 63.359518,12.470025 97.300741,36.678913 62.943848,13.066269 63.409337,12.002294 97.350556,36.211182 62.993663,12.598538 63.459152,11.534563 97.400365,35.743452 63.043472,12.130807 63.508961,11.066832 97.450184,35.275701 63.093291,11.663057 63.55878,10.599082 97.5,34.807932 71.730906,17.097879 71.886702,16.872734 71.886702,16.872734 H 20.8957 Z"
     fill="#020202"
     id="path1"
     style="stroke-width:0.0189996;fill:#ffffff;fill-opacity:1" />
</svg>
