<?xml version="1.0" encoding="UTF-8" standalone="no"?>
<svg
  viewBox="0 0 100 100"
  version="1.1"
  id="svg11"
  width="1"
  height="1"
  xmlns="http://www.w3.org/2000/svg"
  xmlns:svg="http://www.w3.org/2000/svg"
>
  <defs
    id="defs11" />
  <g
     transform="matrix(0.21971472,0,0,0.21971472,-28.008574,-74.162539)"
     id="g11">
    <path
       d="m 173.41,714.4 c 14.338,14.607 41.604,3.9842 64.074,11.765 18.219,6.3088 26.889,47.494 48.08,40.016 21.191,-7.478 57.119,-26.888 80.963,-20.296 23.844,6.592 53.551,51.282 72.75,29.456 16.306,-18.537 24.104,-64.742 64.888,-60.087 40.909,4.6694 49.735,1.5445 44.245,-48.913 -3.185,-29.27 22.2,-53.578 -12.144,-76.305 -53.554,-35.439 -138.73,-13.393 -190.33,21.276 -59.092,39.698 -194.07,81.137 -172.52,103.09 z"
       fill-opacity="0.23529"
       fill-rule="evenodd"
       id="path1" />
    <path
       transform="matrix(1,0,0,1.1622,0,-158.65)"
       d="m 497.32,591.87 c 0,75.863 35.791,95.42 35.791,130.61 0,19.515 -35.398,-24.073 -55.259,-14.207 -18.42,9.1505 -41.111,17.794 -64.144,4.1653 -13.717,-8.1165 5.4103,-21.328 -21.11,-21.328 -21.154,0 -53.393,13.096 -73.563,15.917 -18.337,2.5649 -37.912,-14.187 -70.263,-4.6393 -20.119,5.9378 -91.303,48.274 -91.303,28.759 0,-24.854 33.273,-51.928 33.273,-139.27 0,-84.615 68.673,-153.29 153.29,-153.29 84.617,0 153.29,68.673 153.29,153.29 z"
       fill="#dbdbe3"
       fill-opacity="0.62745"
       id="path2" />
    <path
       transform="matrix(1,0,0,1.1622,0,-158.65)"
       d="m 497.32,591.87 c 0,75.863 35.791,95.42 35.791,130.61 0,19.515 -48.884,5.2781 -68.744,15.144 -18.42,9.1505 -10.874,22.934 -37.395,31.778 -19.054,6.3537 -44.46,-22.614 -70.98,-22.614 -21.154,0 -60.197,24.416 -78.534,16.655 -18.337,-7.761 -16.598,-33.613 -44.949,-36.111 -21.159,-1.8642 -75.039,23.329 -75.039,3.814 0,-24.854 33.273,-51.928 33.273,-139.27 0,-84.615 68.673,-153.29 153.29,-153.29 84.617,0 153.29,68.673 153.29,153.29 z"
       fill="#dbdbe3"
       fill-opacity="0.62745"
       stroke="#000000"
       stroke-linecap="round"
       stroke-linejoin="round"
       stroke-width="3.7104"
       id="path3" />
    <path
       d="m 293.5,439.04 c -20.563,2e-5 -37.251,19.174 -37.251,42.801 0,23.627 16.688,42.801 37.251,42.801 15.888,10e-6 29.46,-11.461 34.811,-27.564 5.3513,16.104 18.923,27.564 34.811,27.564 20.563,0 37.251,-19.174 37.251,-42.801 0,-23.627 -16.688,-42.801 -37.251,-42.801 -15.885,0 -29.458,11.427 -34.811,27.526 C 322.9575,450.467 309.385,439.04 293.5,439.04 Z"
       fill="#ffffff"
       stroke="#000000"
       stroke-linecap="round"
       stroke-linejoin="round"
       stroke-width="4"
       id="path4" />
    <path
       transform="matrix(0.10522,0,0,0.10565,318.09,426.67)"
       d="m 497.32,591.87 a 153.29,153.29 0 1 1 -306.58,0 153.29,153.29 0 1 1 306.58,0 z"
       id="path5" />
    <path
       transform="matrix(0.10522,0,0,0.10565,266.9,426.67)"
       d="m 497.32,591.87 a 153.29,153.29 0 1 1 -306.58,0 153.29,153.29 0 1 1 306.58,0 z"
       id="path6" />
    <path
       d="m 444.06,411.72 c 5.9025,-2.08 35.598,37.205 41.012,78.489 3.6824,28.079 2.1213,71.418 6.364,96.167 4.2427,24.749 40.915,88.99 26.163,88.388 -34.648,-1.4142 -56.752,-57.149 -48.841,-136.86 8.9219,-89.899 -38.625,-121.27 -24.698,-126.18 z"
       fill-opacity="0.11765"
       fill-rule="evenodd"
       id="path7" />
    <path
       d="m 458.21,691.03 c -8.0186,7.8555 -22.627,45.255 -30.406,28.284 -7.779,-16.971 -1.2867,-47.191 -7.0711,-91.924 -4.3996,-34.024 -20.587,-74.625 -8.6777,-68.439 11.868,6.1653 20.493,24.751 31.305,57.125 9.4528,28.304 24.456,65.542 14.849,74.953 z"
       fill-opacity="0.11765"
       fill-rule="evenodd"
       id="path8" />
    <path
       d="m 342.94,700.42 c -7.671,8.1953 -26.443,17.954 -35.941,16.107 -12.511,-2.4334 -14.438,-44.388 -9.4142,-71.66 4.9498,-26.87 14.487,-66.042 22.456,-71.918 9.692,-7.146 0.70204,26.773 9.7929,73.403 6.9562,35.681 20.592,46.071 13.107,54.069 z"
       fill-opacity="0.11765"
       fill-rule="evenodd"
       id="path9" />
    <path
       d="m 240.42,677.6 c -11.108,-1.6205 -21.615,1.1402 -30.406,3.5355 -12.297,3.3509 -0.78114,-15.154 15.556,-47.376 12.356,-24.369 15.255,-49.484 22.42,-56.317 8.5351,-8.1399 -2.3875,23.698 -4.4142,54.625 -1.8797,28.683 5.0358,46.728 -3.1569,45.533 z"
       fill-opacity="0.11765"
       fill-rule="evenodd"
       id="path10" />
    <path
       d="m 217.08,459.1 c 27.337,-73.67 79.953,-89.138 93.338,-88.388 20.327,1.1392 14.724,30.624 -24.749,41.012 -40.231,10.588 -82.972,86.136 -68.589,47.376 z"
       fill="#ffffff"
       fill-opacity="0.62745"
       fill-rule="evenodd"
       id="path11" />
  </g>
</svg>
