<?xml version="1.0" encoding="UTF-8" standalone="no"?>
<svg
   viewBox="0 0 100 100"
   version="1.1"
   id="svg126"
   width="1"
   height="1"
   xmlns:xlink="http://www.w3.org/1999/xlink"
   xmlns="http://www.w3.org/2000/svg"
   xmlns:svg="http://www.w3.org/2000/svg">
  <defs
     id="defs5">
    <style
       id="style1">.cls-1,.cls-15,.cls-17{fill:#754c24;}.cls-2{fill:#c69c6d;}.cls-3{fill:#a67c52;stroke-width:5.67px;stroke:url(#Degradado_sin_nombre_280);}.cls-12,.cls-13,.cls-14,.cls-15,.cls-16,.cls-17,.cls-3{stroke-miterlimit:10;}.cls-4{fill:#fff;}.cls-5{fill:#9e958a;}.cls-6{fill:#e6e3e0;}.cls-7{fill:#594936;}.cls-8{fill:#b8b1a8;}.cls-9{fill:#746757;}.cls-10{fill:#2d1800;}.cls-11{fill:#8c6239;}.cls-12,.cls-13,.cls-14,.cls-16{fill:none;}.cls-12,.cls-13,.cls-14{stroke:#754c24;}.cls-12{stroke-width:0.21px;}.cls-13{stroke-width:2.09px;}.cls-14{stroke-width:0.7px;}.cls-15,.cls-16,.cls-17{stroke-width:6.77px;}.cls-15{stroke:url(#Degradado_sin_nombre_280-2);}.cls-16{stroke:#603813;}.cls-17{stroke:url(#Degradado_sin_nombre_280-3);}.cls-18{fill:#603813;}</style>
    <linearGradient
       id="Degradado_sin_nombre_280"
       x1="107.69"
       y1="352.78"
       x2="227.03999"
       y2="352.78"
       gradientUnits="userSpaceOnUse">
      <stop
         offset="0"
         stop-color="#603813"
         id="stop1" />
      <stop
         offset="0.32"
         stop-color="#8c6239"
         id="stop2" />
      <stop
         offset="0.71"
         stop-color="#754c24"
         id="stop3" />
      <stop
         offset="0.81"
         stop-color="#7e552c"
         id="stop4" />
      <stop
         offset="1"
         stop-color="#8c6239"
         id="stop5" />
    </linearGradient>
    <linearGradient
       id="Degradado_sin_nombre_280-2"
       x1="235.81"
       y1="798.08002"
       x2="149.75999"
       y2="712.03003"
       xlink:href="#Degradado_sin_nombre_280" />
    <linearGradient
       id="Degradado_sin_nombre_280-3"
       x1="850.23999"
       y1="798.08002"
       x2="764.19"
       y2="712.03003"
       xlink:href="#Degradado_sin_nombre_280" />
    <linearGradient
       xlink:href="#Degradado_sin_nombre_280"
       id="linearGradient126"
       gradientUnits="userSpaceOnUse"
       x1="107.69"
       y1="352.78"
       x2="227.03999"
       y2="352.78" />
  </defs>
  <g
     id="SVG"
     transform="matrix(0.11422663,0,0,0.11422663,-7.113315,-7.113315)">
    <rect
       class="cls-2"
       x="84.160004"
       y="188.12"
       width="831.67999"
       height="623.76001"
       rx="30.780001"
       id="rect6" />
    <rect
       class="cls-3"
       x="110.53"
       y="272.85001"
       width="113.68"
       height="159.87"
       rx="12.63"
       id="rect7"
       style="stroke:url(#linearGradient126)" />
    <polygon
       class="cls-4"
       points="250.37,411.33 250.37,472.22 280.81,441.77 "
       id="polygon7" />
    <polygon
       class="cls-5"
       points="841.38,379.49 871.83,409.93 871.83,349.04 "
       id="polygon8" />
    <polygon
       class="cls-5"
       points="437.2,232.13 374.91,232.13 374.91,347.68 343.1,379.49 405.38,441.77 374.55,472.61 374.55,611.92 436.83,611.92 436.83,472.61 467.67,441.77 405.38,379.49 437.2,347.68 "
       id="polygon9" />
    <rect
       class="cls-6"
       x="374.54999"
       y="611.92999"
       width="62.290001"
       height="86.300003"
       id="rect9" />
    <rect
       class="cls-5"
       x="499.12"
       y="611.92999"
       width="62.290001"
       height="86.300003"
       id="rect10" />
    <polygon
       class="cls-7"
       points="561.77,232.13 499.48,232.13 499.48,347.68 467.67,379.49 529.96,441.77 499.12,472.61 499.12,611.92 561.4,611.92 561.4,472.61 592.24,441.77 529.96,379.49 561.77,347.68 "
       id="polygon10" />
    <rect
       class="cls-4"
       x="312.26001"
       y="611.92999"
       width="62.290001"
       height="86.300003"
       id="rect11" />
    <polygon
       class="cls-8"
       points="374.91,232.13 312.63,232.13 312.63,347.68 280.81,379.49 343.1,441.77 312.26,472.61 312.26,611.92 374.55,611.92 374.55,472.61 405.38,441.77 343.1,379.49 374.91,347.68 "
       id="polygon11" />
    <rect
       class="cls-8"
       x="436.82999"
       y="611.92999"
       width="62.290001"
       height="86.300003"
       id="rect12" />
    <polygon
       class="cls-9"
       points="499.48,232.13 437.2,232.13 437.2,347.68 405.38,379.49 467.67,441.77 436.83,472.61 436.83,611.92 499.12,611.92 499.12,472.61 529.96,441.77 467.67,379.49 499.48,347.68 "
       id="polygon12" />
    <path
       class="cls-6"
       d="m 312.26,472.61 30.84,-30.84 -62.29,-62.28 31.82,-31.81 V 232.13 h -31.48 a 30.79,30.79 0 0 0 -30.78,30.79 v 148.41 l 30.44,30.44 -30.44,30.45 v 139.71 h 61.89 z"
       id="path12" />
    <path
       d="m 250.37,611.93 v 55.51 a 30.79,30.79 0 0 0 30.78,30.79 h 31.11 v -86.3 z"
       id="path13" />
    <rect
       x="748.26001"
       y="611.92999"
       width="62.290001"
       height="86.300003"
       id="rect13" />
    <polygon
       class="cls-6"
       points="810.91,232.13 748.62,232.13 748.62,347.68 716.81,379.49 779.1,441.77 748.26,472.61 748.26,611.92 810.54,611.92 810.54,472.61 841.38,441.77 779.1,379.49 810.91,347.68 "
       id="polygon13" />
    <polygon
       class="cls-10"
       points="624.05,232.13 561.77,232.13 561.77,347.68 529.96,379.49 592.24,441.77 561.4,472.61 561.4,611.92 623.69,611.92 623.69,472.61 654.52,441.77 592.24,379.49 624.05,347.68 "
       id="polygon14" />
    <rect
       class="cls-9"
       x="561.40002"
       y="611.92999"
       width="62.290001"
       height="86.300003"
       id="rect14" />
    <path
       class="cls-4"
       d="m 810.54,611.93 v 86.3 H 841 a 30.8,30.8 0 0 0 30.79,-30.79 v -55.51 z"
       id="path14" />
    <path
       class="cls-8"
       d="m 779.1,379.49 62.28,62.28 -30.84,30.84 v 139.32 h 61.29 v -202 L 841.38,379.49 871.83,349 V 262.92 A 30.8,30.8 0 0 0 841,232.13 h -30.09 v 115.55 z"
       id="path15" />
    <rect
       class="cls-7"
       x="623.69"
       y="611.92999"
       width="62.290001"
       height="86.300003"
       id="rect15" />
    <polygon
       points="686.34,232.13 624.05,232.13 624.05,347.68 592.24,379.49 654.52,441.77 623.69,472.61 623.69,611.92 685.97,611.92 685.97,472.61 716.81,441.77 654.52,379.49 686.34,347.68 "
       id="polygon15" />
    <rect
       class="cls-10"
       x="685.96997"
       y="611.92999"
       width="62.290001"
       height="86.300003"
       id="rect16" />
    <polygon
       class="cls-4"
       points="748.62,232.13 686.34,232.13 686.34,347.68 654.52,379.49 716.81,441.77 685.97,472.61 685.97,611.92 748.26,611.92 748.26,472.61 779.1,441.77 716.81,379.49 748.62,347.68 "
       id="polygon16" />
    <circle
       class="cls-11"
       cx="202.52"
       cy="409.56"
       r="12.43"
       id="circle16" />
    <circle
       class="cls-1"
       cx="202.52"
       cy="409.56"
       r="8.96"
       id="circle17" />
    <line
       class="cls-12"
       x1="202.52"
       y1="397.76999"
       x2="202.52"
       y2="399.73001"
       id="line17" />
    <line
       class="cls-12"
       x1="210.85001"
       y1="401.22"
       x2="209.46001"
       y2="402.60999"
       id="line18" />
    <line
       class="cls-12"
       x1="214.31"
       y1="409.56"
       x2="212.34"
       y2="409.56"
       id="line19" />
    <line
       class="cls-12"
       x1="210.85001"
       y1="417.89001"
       x2="209.46001"
       y2="416.51001"
       id="line20" />
    <line
       class="cls-12"
       x1="202.52"
       y1="421.35001"
       x2="202.52"
       y2="419.38"
       id="line21" />
    <line
       class="cls-12"
       x1="194.17999"
       y1="417.89001"
       x2="195.57001"
       y2="416.51001"
       id="line22" />
    <line
       class="cls-12"
       x1="190.73"
       y1="409.56"
       x2="192.69"
       y2="409.56"
       id="line23" />
    <line
       class="cls-12"
       x1="194.17999"
       y1="401.22"
       x2="195.57001"
       y2="402.60999"
       id="line24" />
    <line
       class="cls-12"
       x1="196.62"
       y1="399.35001"
       x2="197.60001"
       y2="401.04999"
       id="line25" />
    <line
       class="cls-12"
       x1="205.57001"
       y1="398.17001"
       x2="205.06"
       y2="400.07001"
       id="line26" />
    <line
       class="cls-12"
       x1="212.73"
       y1="403.66"
       x2="211.03"
       y2="404.64001"
       id="line27" />
    <line
       class="cls-12"
       x1="213.89999"
       y1="412.60999"
       x2="212.00999"
       y2="412.10001"
       id="line28" />
    <line
       class="cls-12"
       x1="208.41"
       y1="419.76999"
       x2="207.42999"
       y2="418.07001"
       id="line29" />
    <line
       class="cls-12"
       x1="199.46001"
       y1="420.95001"
       x2="199.97"
       y2="419.04999"
       id="line30" />
    <line
       class="cls-12"
       x1="192.31"
       y1="415.45001"
       x2="194.00999"
       y2="414.47"
       id="line31" />
    <line
       class="cls-12"
       x1="191.13"
       y1="406.51001"
       x2="193.02"
       y2="407.01001"
       id="line32" />
    <line
       class="cls-12"
       x1="192.31"
       y1="403.66"
       x2="194.00999"
       y2="404.64001"
       id="line33" />
    <line
       class="cls-12"
       x1="199.46001"
       y1="398.17001"
       x2="199.97"
       y2="400.07001"
       id="line34" />
    <line
       class="cls-12"
       x1="208.41"
       y1="399.35001"
       x2="207.42999"
       y2="401.04999"
       id="line35" />
    <line
       class="cls-12"
       x1="213.89999"
       y1="406.51001"
       x2="212.00999"
       y2="407.01001"
       id="line36" />
    <line
       class="cls-12"
       x1="212.73"
       y1="415.45001"
       x2="211.03"
       y2="414.47"
       id="line37" />
    <line
       class="cls-12"
       x1="205.57001"
       y1="420.95001"
       x2="205.06"
       y2="419.04999"
       id="line38" />
    <line
       class="cls-12"
       x1="196.62"
       y1="419.76999"
       x2="197.60001"
       y2="418.07001"
       id="line39" />
    <line
       class="cls-12"
       x1="191.13"
       y1="412.60999"
       x2="193.02"
       y2="412.10001"
       id="line40" />
    <circle
       class="cls-11"
       cx="167.28"
       cy="409.56"
       r="12.43"
       id="circle40" />
    <circle
       class="cls-1"
       cx="167.28"
       cy="409.56"
       r="8.96"
       id="circle41" />
    <line
       class="cls-12"
       x1="167.28"
       y1="397.76999"
       x2="167.28"
       y2="399.73001"
       id="line41" />
    <line
       class="cls-12"
       x1="175.62"
       y1="401.22"
       x2="174.23"
       y2="402.60999"
       id="line42" />
    <line
       class="cls-12"
       x1="179.07001"
       y1="409.56"
       x2="177.11"
       y2="409.56"
       id="line43" />
    <line
       class="cls-12"
       x1="175.62"
       y1="417.89001"
       x2="174.23"
       y2="416.51001"
       id="line44" />
    <line
       class="cls-12"
       x1="167.28"
       y1="421.35001"
       x2="167.28"
       y2="419.38"
       id="line45" />
    <line
       class="cls-12"
       x1="158.94"
       y1="417.89001"
       x2="160.33"
       y2="416.51001"
       id="line46" />
    <line
       class="cls-12"
       x1="155.49001"
       y1="409.56"
       x2="157.45"
       y2="409.56"
       id="line47" />
    <line
       class="cls-12"
       x1="158.94"
       y1="401.22"
       x2="160.33"
       y2="402.60999"
       id="line48" />
    <line
       class="cls-12"
       x1="161.39"
       y1="399.35001"
       x2="162.37"
       y2="401.04999"
       id="line49" />
    <line
       class="cls-12"
       x1="170.33"
       y1="398.17001"
       x2="169.82001"
       y2="400.07001"
       id="line50" />
    <line
       class="cls-12"
       x1="177.49001"
       y1="403.66"
       x2="175.78999"
       y2="404.64001"
       id="line51" />
    <line
       class="cls-12"
       x1="178.67"
       y1="412.60999"
       x2="176.77"
       y2="412.10001"
       id="line52" />
    <line
       class="cls-12"
       x1="173.17999"
       y1="419.76999"
       x2="172.19"
       y2="418.07001"
       id="line53" />
    <line
       class="cls-12"
       x1="164.23"
       y1="420.95001"
       x2="164.74001"
       y2="419.04999"
       id="line54" />
    <line
       class="cls-12"
       x1="157.07001"
       y1="415.45001"
       x2="158.77"
       y2="414.47"
       id="line55" />
    <line
       class="cls-12"
       x1="155.89"
       y1="406.51001"
       x2="157.78999"
       y2="407.01001"
       id="line56" />
    <line
       class="cls-12"
       x1="157.07001"
       y1="403.66"
       x2="158.77"
       y2="404.64001"
       id="line57" />
    <line
       class="cls-12"
       x1="164.23"
       y1="398.17001"
       x2="164.74001"
       y2="400.07001"
       id="line58" />
    <line
       class="cls-12"
       x1="173.17999"
       y1="399.35001"
       x2="172.19"
       y2="401.04999"
       id="line59" />
    <line
       class="cls-12"
       x1="178.67"
       y1="406.51001"
       x2="176.77"
       y2="407.01001"
       id="line60" />
    <line
       class="cls-12"
       x1="177.49001"
       y1="415.45001"
       x2="175.78999"
       y2="414.47"
       id="line61" />
    <line
       class="cls-12"
       x1="170.33"
       y1="420.95001"
       x2="169.82001"
       y2="419.04999"
       id="line62" />
    <line
       class="cls-12"
       x1="161.39"
       y1="419.76999"
       x2="162.37"
       y2="418.07001"
       id="line63" />
    <line
       class="cls-12"
       x1="155.89"
       y1="412.60999"
       x2="157.78999"
       y2="412.10001"
       id="line64" />
    <circle
       class="cls-11"
       cx="132.05"
       cy="409.56"
       r="12.43"
       id="circle64" />
    <circle
       class="cls-1"
       cx="132.05"
       cy="409.56"
       r="8.96"
       id="circle65" />
    <line
       class="cls-12"
       x1="132.05"
       y1="397.76999"
       x2="132.05"
       y2="399.73001"
       id="line65" />
    <line
       class="cls-12"
       x1="140.38"
       y1="401.22"
       x2="138.99001"
       y2="402.60999"
       id="line66" />
    <line
       class="cls-12"
       x1="143.84"
       y1="409.56"
       x2="141.87"
       y2="409.56"
       id="line67" />
    <line
       class="cls-12"
       x1="140.38"
       y1="417.89001"
       x2="138.99001"
       y2="416.51001"
       id="line68" />
    <line
       class="cls-12"
       x1="132.05"
       y1="421.35001"
       x2="132.05"
       y2="419.38"
       id="line69" />
    <line
       class="cls-12"
       x1="123.71"
       y1="417.89001"
       x2="125.1"
       y2="416.51001"
       id="line70" />
    <line
       class="cls-12"
       x1="120.26"
       y1="409.56"
       x2="122.22"
       y2="409.56"
       id="line71" />
    <line
       class="cls-12"
       x1="123.71"
       y1="401.22"
       x2="125.1"
       y2="402.60999"
       id="line72" />
    <line
       class="cls-12"
       x1="126.15"
       y1="399.35001"
       x2="127.13"
       y2="401.04999"
       id="line73" />
    <line
       class="cls-12"
       x1="135.10001"
       y1="398.17001"
       x2="134.59"
       y2="400.07001"
       id="line74" />
    <line
       class="cls-12"
       x1="142.25999"
       y1="403.66"
       x2="140.56"
       y2="404.64001"
       id="line75" />
    <line
       class="cls-12"
       x1="143.42999"
       y1="412.60999"
       x2="141.53999"
       y2="412.10001"
       id="line76" />
    <line
       class="cls-12"
       x1="137.94"
       y1="419.76999"
       x2="136.96001"
       y2="418.07001"
       id="line77" />
    <line
       class="cls-12"
       x1="128.99001"
       y1="420.95001"
       x2="129.5"
       y2="419.04999"
       id="line78" />
    <line
       class="cls-12"
       x1="121.84"
       y1="415.45001"
       x2="123.54"
       y2="414.47"
       id="line79" />
    <line
       class="cls-12"
       x1="120.66"
       y1="406.51001"
       x2="122.55"
       y2="407.01001"
       id="line80" />
    <line
       class="cls-12"
       x1="121.84"
       y1="403.66"
       x2="123.54"
       y2="404.64001"
       id="line81" />
    <line
       class="cls-12"
       x1="128.99001"
       y1="398.17001"
       x2="129.5"
       y2="400.07001"
       id="line82" />
    <line
       class="cls-12"
       x1="137.94"
       y1="399.35001"
       x2="136.96001"
       y2="401.04999"
       id="line83" />
    <line
       class="cls-12"
       x1="143.42999"
       y1="406.51001"
       x2="141.53999"
       y2="407.01001"
       id="line84" />
    <line
       class="cls-12"
       x1="142.25999"
       y1="415.45001"
       x2="140.56"
       y2="414.47"
       id="line85" />
    <line
       class="cls-12"
       x1="135.10001"
       y1="420.95001"
       x2="134.59"
       y2="419.04999"
       id="line86" />
    <line
       class="cls-12"
       x1="126.15"
       y1="419.76999"
       x2="127.13"
       y2="418.07001"
       id="line87" />
    <line
       class="cls-12"
       x1="120.66"
       y1="412.60999"
       x2="122.55"
       y2="412.10001"
       id="line88" />
    <circle
       class="cls-11"
       cx="167.28"
       cy="332.04001"
       r="40.630001"
       id="circle88" />
    <circle
       class="cls-1"
       cx="167.28"
       cy="332.04001"
       r="29.299999"
       id="circle89" />
    <line
       class="cls-13"
       x1="167.28"
       y1="293.5"
       x2="167.28"
       y2="299.92001"
       id="line89" />
    <line
       class="cls-14"
       x1="194.53"
       y1="304.79001"
       x2="189.99001"
       y2="309.32001"
       id="line90" />
    <line
       class="cls-14"
       x1="205.81"
       y1="332.04001"
       x2="199.39999"
       y2="332.04001"
       id="line91" />
    <line
       class="cls-14"
       x1="194.53"
       y1="359.28"
       x2="189.99001"
       y2="354.75"
       id="line92" />
    <line
       class="cls-14"
       x1="167.28"
       y1="370.57001"
       x2="167.28"
       y2="364.14999"
       id="line93" />
    <line
       class="cls-14"
       x1="140.03"
       y1="359.28"
       x2="144.57001"
       y2="354.75"
       id="line94" />
    <line
       class="cls-14"
       x1="128.75"
       y1="332.04001"
       x2="135.16"
       y2="332.04001"
       id="line95" />
    <line
       class="cls-14"
       x1="140.03"
       y1="304.79001"
       x2="144.57001"
       y2="309.32001"
       id="line96" />
    <line
       class="cls-14"
       x1="148.00999"
       y1="298.66"
       x2="151.22"
       y2="304.22"
       id="line97" />
    <line
       class="cls-14"
       x1="177.25"
       y1="294.82001"
       x2="175.59"
       y2="301.01001"
       id="line98" />
    <line
       class="cls-14"
       x1="200.64999"
       y1="312.76999"
       x2="195.10001"
       y2="315.98001"
       id="line99" />
    <line
       class="cls-14"
       x1="204.5"
       y1="342.01001"
       x2="198.31"
       y2="340.35001"
       id="line100" />
    <line
       class="cls-14"
       x1="186.55"
       y1="365.41"
       x2="183.34"
       y2="359.85001"
       id="line101" />
    <line
       class="cls-14"
       x1="157.31"
       y1="369.26001"
       x2="158.97"
       y2="363.06"
       id="line102" />
    <line
       class="cls-14"
       x1="133.91"
       y1="351.29999"
       x2="139.47"
       y2="348.09"
       id="line103" />
    <line
       class="cls-14"
       x1="130.06"
       y1="322.06"
       x2="136.25999"
       y2="323.72"
       id="line104" />
    <line
       class="cls-14"
       x1="133.91"
       y1="312.76999"
       x2="139.47"
       y2="315.98001"
       id="line105" />
    <line
       class="cls-14"
       x1="157.31"
       y1="294.82001"
       x2="158.97"
       y2="301.01001"
       id="line106" />
    <line
       class="cls-14"
       x1="186.55"
       y1="298.66"
       x2="183.34"
       y2="304.22"
       id="line107" />
    <line
       class="cls-14"
       x1="204.5"
       y1="322.06"
       x2="198.31"
       y2="323.72"
       id="line108" />
    <line
       class="cls-14"
       x1="200.64999"
       y1="351.29999"
       x2="195.10001"
       y2="348.09"
       id="line109" />
    <line
       class="cls-14"
       x1="177.25"
       y1="369.26001"
       x2="175.59"
       y2="363.06"
       id="line110" />
    <line
       class="cls-14"
       x1="148.00999"
       y1="365.41"
       x2="151.22"
       y2="359.85001"
       id="line111" />
    <line
       class="cls-14"
       x1="130.06"
       y1="342.01001"
       x2="136.25999"
       y2="340.35001"
       id="line112" />
    <line
       class="cls-13"
       x1="167.28"
       y1="277.38"
       x2="167.28"
       y2="283.79001"
       id="line113" />
    <line
       class="cls-13"
       x1="205.92999"
       y1="293.39001"
       x2="201.39999"
       y2="297.92001"
       id="line114" />
    <path
       class="cls-15"
       d="m 224.51,790.09 h -63.45 a 35.035,35.035 0 0 1 0,-70.07 h 63.45 a 35.035,35.035 0 0 1 0,70.07 z"
       id="path114"
       style="stroke:url(#Degradado_sin_nombre_280-2)" />
    <line
       class="cls-16"
       x1="165.82001"
       y1="741.14001"
       x2="165.82001"
       y2="768.96997"
       id="line115" />
    <line
       class="cls-16"
       x1="192.78"
       y1="741.14001"
       x2="192.78"
       y2="768.96997"
       id="line116" />
    <line
       class="cls-16"
       x1="219.75"
       y1="741.14001"
       x2="219.75"
       y2="768.96997"
       id="line117" />
    <path
       class="cls-17"
       d="m 838.94,790.09 h -63.45 a 35.035,35.035 0 0 1 0,-70.07 h 63.45 a 35.035,35.035 0 0 1 0,70.07 z"
       id="path117"
       style="stroke:url(#Degradado_sin_nombre_280-3)" />
    <line
       class="cls-16"
       x1="780.25"
       y1="741.14001"
       x2="780.25"
       y2="768.96997"
       id="line118" />
    <line
       class="cls-16"
       x1="807.21997"
       y1="741.14001"
       x2="807.21997"
       y2="768.96997"
       id="line119" />
    <line
       class="cls-16"
       x1="834.17999"
       y1="741.14001"
       x2="834.17999"
       y2="768.96997"
       id="line120" />
    <path
       class="cls-18"
       d="M 399.76,743.63 H 388 v -6.92 h 32 v 6.92 h -11.75 v 29.76 h -8.49 z"
       id="path120" />
    <path
       class="cls-18"
       d="m 459.13,736.71 -15.88,36.68 h -8.38 L 419,736.71 h 9.17 l 11.17,26.2 11.31,-26.2 z"
       id="path121" />
    <path
       class="cls-18"
       d="m 462.17,736.71 h 8.49 v 36.68 h -8.49 z"
       id="path122" />
    <path
       class="cls-18"
       d="m 476.47,769.78 2.89,-6.39 a 21.58,21.58 0 0 0 12.1,3.82 c 5,0 7.07,-1.68 7.07,-3.93 0,-6.86 -21.32,-2.15 -21.32,-15.77 0,-6.24 5,-11.42 15.45,-11.42 a 24.69,24.69 0 0 1 12.74,3.24 l -2.62,6.45 a 20.72,20.72 0 0 0 -10.17,-2.88 c -5,0 -7,1.88 -7,4.19 0,6.76 21.33,2.1 21.33,15.56 0,6.13 -5.08,11.37 -15.56,11.37 -5.79,-0.02 -11.66,-1.73 -14.91,-4.24 z"
       id="path123" />
    <path
       class="cls-18"
       d="m 512.79,736.71 h 8.48 v 36.68 h -8.48 z"
       id="path124" />
    <path
       class="cls-18"
       d="m 527.67,755.05 c 0,-10.89 8.49,-19 20.07,-19 11.58,0 20.06,8 20.06,19 0,11 -8.54,19 -20.06,19 -11.52,0 -20.07,-8.05 -20.07,-19 z m 31.54,0 c 0,-7 -4.93,-11.73 -11.47,-11.73 -6.54,0 -11.48,4.76 -11.48,11.73 0,6.97 4.93,11.74 11.48,11.74 6.55,0 11.47,-4.79 11.47,-11.74 z"
       id="path125" />
    <path
       class="cls-18"
       d="m 607.84,736.71 v 36.68 h -7 l -18.29,-22.27 v 22.27 h -8.35 v -36.68 h 7 L 599.45,759 v -22.29 z"
       id="path126" />
  </g>
</svg>
