<svg
  xmlns="http://www.w3.org/2000/svg"
  viewBox="0 0 100 100"
  height="1"
  width="1"
>
  <path
    d="m 70.098503,11.605939 -6.701729,23.514848 h 5.290839 q 4.232679,0 6.290229,3.76238 2.05755,3.762369 -0.41151,7.289599 l -2.939359,4.232679 q -1.29332,1.76361 -3.40965,1.99876 -2.11634,0.23515 -3.762379,-1.41089 -1.175741,-1.17575 -1.3521,-2.821789 -0.17636,-1.646031 0.764229,-3.056931 l 0.470301,-0.587869 h -7.17203 q -2.35149,0 -3.762379,-1.8224 -1.41089,-1.8224 -0.823021,-4.173879 l 7.7599,-26.924508 H 30.475987 q -1.99876,0 -3.350869,-1.3521 -1.352101,-1.35211 -1.352101,-3.35087 0,-1.998759 1.352101,-3.350869 Q 28.477227,2.2 30.475987,2.2 h 32.215347 q 3.762369,0 6.055069,2.93936 2.2927,2.93935 1.3521,6.466579 z M 82.561382,95.789115 57.518064,70.863363 46.348505,86.971031 q -0.70544,1.05817 -1.8224,1.41089 -1.116949,0.35272 -2.175119,0 -1.05817,-0.35272 -1.76361,-1.23453 -0.70545,-0.88181 -0.70545,-2.17512 V 58.635634 h -4.70297 q -3.879949,0 -6.642949,-2.76299 -2.76299,-2.762999 -2.76299,-6.642949 V 39.118316 L 2.6108898,15.956188 Q 1.2,14.545299 1.2,12.605319 q 0,-1.93997 1.4108898,-3.35086 1.4108899,-1.4109 3.3508702,-1.4109 1.939969,0 3.350859,1.4109 l 79.950492,79.950482 q 1.410889,1.41089 1.410889,3.29208 0,1.881187 -1.410889,3.292084 -1.41089,1.41089 -3.35087,1.41089 -1.93997,0 -3.350859,-1.41088 z M 45.055196,29.947517 Z"
    style="stroke-width:0.117574" 
  />
</svg>
