<?xml version="1.0" encoding="UTF-8" standalone="no"?>
<svg
   viewBox="0 0 100 100"
   version="1.1"
   id="svg7"
   width="1"
   height="1"
   xmlns="http://www.w3.org/2000/svg"
   xmlns:svg="http://www.w3.org/2000/svg">
  <defs
     id="defs7" />
  <path
     d="M 25.195517,6.3086939 26.292913,5.450441 26.553667,5.482327 Q 26.88758,5.456996 26.96074,5.399779 L 27.0339,5.342562 26.97668,5.269402 27.04984,5.212185 27.253377,5.170911 q 0.349856,-0.1557077 0.553393,-0.1969816 0.219479,-0.1716505 0.480232,-0.1397647 0.14632,-0.1144336 0.553392,-0.1969815 0.407074,-0.082548 0.814146,-0.1650957 0.480233,-0.1397647 0.53745,-0.066604 0.130377,0.015943 0.626552,-0.2541984 0.496175,-0.2701413 0.553393,-0.1969815 0.05722,0.07316 0.276696,-0.098491 0.219479,-0.1716506 0.276696,-0.098491 0.05721,0.07316 0.53745,-0.066604 0.407072,-0.082548 0.537449,-0.066605 0.187594,0.089103 0.740986,-0.1078788 0.626553,-0.2541983 0.756929,-0.2382554 0.187593,0.089103 0.521506,0.063772 0.407073,-0.082548 0.349856,-0.1557075 -0.05721,-0.07316 0.01595,-0.1303767 0.07316,-0.057217 0.187594,0.089103 0.114434,0.1463196 0.725043,0.022497 0.683769,-0.1810385 0.814146,-0.1650957 0.05722,0.07316 0.407073,-0.082548 0.349856,-0.1557077 0.407072,-0.082548 0.05721,0.07316 0.203537,-0.041274 0.146319,-0.1144337 0.260753,0.031886 0.05721,0.07316 0.594666,0.00656 0.594667,0.00656 1.00174,-0.075992 0.407073,-0.082548 0.537449,-0.066604 0.05722,0.07316 0.448347,0.1209886 0.46429,-0.00939 0.553392,-0.1969815 0.146321,-0.1144337 0.203537,-0.041274 0.05722,0.07316 0.78226,0.095658 0.667826,-0.050662 0.871363,-0.091936 0.203536,-0.041274 0.31797,0.1050457 0.05722,0.07316 0.260753,0.031886 0.203536,-0.041274 0.333913,-0.025331 0.07316,-0.057216 0.187594,0.089103 0.130376,0.015943 0.53745,-0.066604 0.333912,-0.025331 0.464288,-0.00939 0.05722,0.07316 0.333914,-0.025331 0.260753,0.031886 0.391129,0.047828 0.05722,0.07316 0.130377,0.015943 0.07316,-0.057217 0.203537,-0.041274 0.05722,0.07316 0.130376,0.015943 0.07316,-0.057217 0.146321,-0.1144337 0.130376,0.015943 0.187593,0.089103 0.05721,0.07316 -0.01595,0.1303766 -0.01595,0.1303767 0.130376,0.015943 0.203537,-0.041274 0.333914,-0.025331 0.114433,0.1463196 0.24481,0.1622625 0.203537,-0.041274 0.407072,-0.082548 0.203537,-0.041274 0.317971,0.1050456 0.05721,0.07316 0.912636,0.1116006 0.85542,0.03844 0.912637,0.1116006 0.05721,0.07316 0.260753,0.031886 0.260753,0.031885 0.39113,0.047828 0.05721,0.07316 0.39113,0.047828 0.46429,-0.00939 0.521507,0.063772 0.05721,0.07316 0.203536,-0.041274 0.07316,-0.057216 0.31797,0.1050456 0.260754,0.031886 0.375187,0.1782055 0.187594,0.089103 0.260754,0.031886 0.203536,-0.041274 0.260753,0.031886 0.05722,0.07316 0.260753,0.031886 0.203537,-0.041274 0.260753,0.031886 0.05722,0.07316 0.260753,0.031886 0.146321,-0.1144337 0.260754,0.031886 0.187593,0.089103 0.203536,-0.041274 0.07316,-0.057216 0.317971,0.1050457 0.375187,0.1782055 0.448347,0.1209886 0.130376,0.015943 0.578722,0.1369316 0.505565,0.1941484 0.578724,0.1369315 0.07316,-0.057217 0.187594,0.089103 0.114434,0.1463195 0.260753,0.031886 0.203537,-0.041274 0.317971,0.1050456 0.09849,0.2766962 0.302026,0.2354223 0.276696,-0.098491 0.578724,0.1369316 0.24481,0.1622625 0.260753,0.031886 0.07316,-0.057217 0.448347,0.1209885 0.375187,0.1782055 0.448346,0.1209886 0.130378,0.015943 0.302028,0.2354224 0.187594,0.089103 0.260753,0.031886 0.07316,-0.057217 0.521506,0.063772 0.375188,0.1782054 0.505565,0.1941483 0.07316,-0.057216 0.187593,0.089103 0.05721,0.07316 0.203536,-0.041274 0.07316,-0.057217 0.114434,0.1463196 0.17165,0.2194794 0.244811,0.1622625 0.07316,-0.057217 0.187593,0.089103 0.24481,0.1622625 0.31797,0.1050457 0.07316,-0.057217 0.317971,0.1050457 0.24481,0.1622624 0.432403,0.2513652 0.260753,0.031886 0.375187,0.1782054 0.187594,0.089103 0.375187,0.1782055 0.203536,-0.041274 0.448347,0.1209886 0.302027,0.2354223 0.375187,0.1782054 0.07316,-0.057216 0.260753,0.031886 0.187594,0.089103 0.31797,0.1050458 0.07316,-0.057217 0.244811,0.1622624 0.171651,0.2194794 0.677214,0.4136279 0.448346,0.1209885 0.750374,0.3564108 0.302027,0.2354223 0.432404,0.2513652 0.07316,-0.057216 0.619997,0.3404681 0.56278,0.2673085 0.693157,0.2832515 0.05722,0.07316 0.359244,0.308582 0.302028,0.235423 0.922025,0.5758914 0.619997,0.340468 0.864808,0.50273 0.24481,0.162262 0.359244,0.308582 0.114433,0.14632 0.260753,0.03189 0.14632,-0.114434 0.203536,-0.04128 0.05722,0.07316 -0.01595,0.130377 -0.07316,0.05721 0.17165,0.21948 0.24481,0.162262 0.375187,0.178205 0.130376,0.01595 0.619997,0.340468 0.473678,0.454901 0.546838,0.397684 0.07316,-0.05721 0.130377,0.01595 0.04128,0.203537 0.228867,0.29264 0.187593,0.0891 0.317971,0.105045 0.07316,-0.05722 0.114433,0.14632 0.04128,0.203536 0.645328,0.674381 0.604055,0.470845 0.677214,0.413627 0.07316,-0.05721 0.416462,0.381743 0.286083,0.365799 0.41646,0.381742 0.07316,-0.05722 0.187594,0.0891 0.05722,0.07316 0.228868,0.292638 0.17165,0.21948 0.24481,0.162262 0.130376,0.01595 0.302027,0.235423 0.114433,0.14632 0.187594,0.0891 0.07316,-0.05722 0.130376,0.01594 0.05722,0.07316 -0.01595,0.130377 -0.07316,0.05722 0.130377,0.01595 0.07316,-0.05722 0.17165,0.219478 0.114434,0.146321 0.759762,0.820701 0.645329,0.674381 0.718488,0.617165 0.07316,-0.05721 0.130377,0.01595 0.05722,0.07316 -0.01595,0.130376 -0.07316,0.05722 0.645329,0.674381 0.775704,0.690324 0.775704,0.690324 0.130377,0.01594 0.14632,-0.114434 l 5.206734,6.657541 -0.146319,0.114434 q -0.07316,0.05722 0.139764,0.480233 0.286084,0.365799 0.343301,0.438959 0.05722,0.07316 0.597499,1.065511 0.483066,0.919191 0.613443,0.935134 0.114433,0.14632 0.04128,0.203537 0.05722,0.07316 0.540282,0.992351 0.483066,0.919192 0.613443,0.935134 0.05722,0.07316 -0.03189,0.260754 -0.03188,0.260753 0.04128,0.203536 0.07316,-0.05722 0.228867,0.292639 0.139765,0.480233 0.52434,1.122727 0.311416,0.699713 0.295473,0.830089 0,0 0.393963,1.106786 0.451179,1.179945 0.508397,1.253104 0.114433,0.146319 0.155707,0.349856 0.04128,0.203537 0.171651,0.219479 0.130377,0.01594 0.05721,0.07316 -0.07316,0.05721 0.04128,0.203535 0.05721,0.07316 0.04128,0.203537 -0.07316,0.05721 0.04128,0.203537 0.04128,0.203536 0.08254,0.407072 -0.0891,0.187594 0.155708,0.349856 0.114434,0.14632 0.09849,0.276696 -0.0891,0.187594 0.04128,0.203537 0.05722,0.07316 0.04128,0.203537 -0.07316,0.05721 0.139766,0.480232 0.08254,0.407073 0.165095,0.814146 0.0094,0.464289 0.139764,0.480233 0.07316,-0.05721 0.114434,0.146319 -0.01595,0.130377 -0.03188,0.260754 -0.07316,0.05721 0.02533,0.333913 0.228868,0.292639 0.08255,0.407072 -0.07316,0.05722 0.09849,0.276696 0.09849,0.276697 0.155707,0.349856 -0.0891,0.187594 0.0094,0.46429 0.09849,0.276697 0.02533,0.333913 -0.01595,0.130377 0.114434,0.14632 0.187594,0.0891 0.08254,0.407073 0.0094,0.46429 0.0094,0.46429 0.07316,-0.05721 0.05721,0.07316 -0.0891,0.187594 0.02533,0.333914 0.114434,0.146319 0.09849,0.276696 -0.01595,0.130376 0.0094,0.464289 0.17165,0.21948 0.196982,0.553393 0.02533,0.333914 -0.04783,0.39113 -0.07316,0.05722 0.04128,0.203537 0.114434,0.146319 0.04128,0.203535 -0.07316,0.05722 -0.02249,0.725043 0.107878,0.740987 0.07599,1.00174 -0.03189,0.260753 0.155707,0.349856 0.05722,0.07316 0.02533,0.333914 -0.162263,0.24481 -0.06377,0.521506 0.04128,0.203537 0.0094,0.46429 0.04128,0.203536 0.114433,0.146319 0.07316,-0.05721 0.130377,0.01595 0.05722,0.07316 -0.162262,0.24481 -0.162263,0.244811 0.0094,0.46429 0.114434,0.146319 0.0094,0.46429 -0.03189,0.260753 0.0094,0.46429 0.04128,0.203536 -0.06377,0.521506 -0.162262,0.24481 -0.06377,0.521506 0.09849,0.276697 0.02533,0.333914 -0.07316,0.05722 0.04128,0.203536 0.130377,0.01595 -0.04783,0.39113 -0.178206,0.375187 -0.06377,0.521507 0.114434,0.14632 0.02533,0.333913 -0.105046,0.31797 0.0094,0.464289 0.114434,0.14632 0.0094,0.46429 -0.105045,0.317971 -0.1116,0.912637 -0.06377,0.521507 -0.136932,0.578723 -0.07316,0.05721 -0.01595,0.130377 0.05722,0.07316 -0.0891,0.187593 -0.0891,0.187594 0.02533,0.333914 0.04128,0.203536 -0.03188,0.260753 -0.07316,0.05721 -0.03189,0.260753 0.114434,0.146319 -0.03188,0.260753 -0.14632,0.114434 -0.01595,0.130377 0.114434,0.14632 0.04128,0.203536 -0.146321,0.114434 -0.0891,0.187594 0.05722,0.07316 -0.0891,0.187593 -0.07316,0.05722 0.04128,0.203537 0.05722,0.07316 -0.01595,0.130377 -0.07316,0.05721 -0.01595,0.130376 0.05722,0.07316 -0.01594,0.130377 -0.07316,0.05721 -0.01595,0.130376 0.05722,0.07316 -0.105046,0.317971 -0.0891,0.187594 -0.194148,0.505563 -0.105046,0.317971 -0.04783,0.39113 0.114434,0.14632 -0.03188,0.260754 -0.0891,0.187593 -0.06377,0.521506 0.04128,0.203537 -0.06377,0.521507 -0.178205,0.375186 -0.178205,0.375186 0.07316,-0.05722 0.05722,0.07316 -0.07316,0.05721 -0.01595,0.130376 0.05722,0.07316 -0.178205,0.375187 -0.105046,0.317971 -0.04783,0.39113 0.05721,0.07316 -0.194148,0.505564 -0.251366,0.432403 -0.136932,0.578723 0.04128,0.203537 -0.105046,0.31797 -0.162262,0.244811 -0.267308,0.562781 -0.162262,0.244811 -0.04783,0.39113 0.130376,0.01595 -0.105046,0.31797 -0.251365,0.432404 -0.120989,0.448346 0.05722,0.07316 -0.194148,0.505565 -0.324526,0.489621 -0.136932,0.578723 0.187593,0.0891 -0.194149,0.505564 -0.397684,0.546837 -0.28325,0.693156 0.05722,0.07316 -0.178206,0.375187 -0.308582,0.359244 -0.194148,0.505565 0.04128,0.203536 -0.03188,0.260753 -0.07316,0.05722 -0.203536,0.04128 -0.05722,-0.07316 -0.01595,0.130377 -0.01595,0.130377 -0.251365,0.432404 -0.178205,0.375187 -0.120989,0.448346 0.05722,0.07316 -0.03188,0.260755 -0.0891,0.187592 -0.0891,0.187592 0.07316,-0.05722 -0.267308,0.562781 -0.324525,0.489621 -0.267308,0.562781 0.05721,0.07316 -0.356411,0.750374 -0.470844,0.604054 -0.486788,0.734431 -0.01595,0.130377 -0.324525,0.489621 -0.251365,0.432403 -0.194148,0.505563 -0.07316,0.05722 -0.162262,0.24481 -0.21948,0.171651 -0.162264,0.244811 0.05722,0.07316 -0.324525,0.48962 -0.308581,0.359245 -0.251365,0.432405 0.114434,0.146319 0.04128,0.203535 -0.07316,0.05722 -0.130377,-0.01595 -0.130376,-0.01595 -0.01595,0.130376 0.04128,0.203537 -0.559946,0.791649 -0.674382,0.645328 -0.559948,0.791647 0.187593,0.0891 -0.251365,0.432404 -0.512119,0.400518 -0.454902,0.473678 -0.01595,0.130377 -0.178206,0.375187 -0.162262,0.24481 -0.292639,0.228868 -0.05722,-0.07316 0.04128,0.203536 0.04128,0.203536 -0.105046,0.31797 -0.219478,0.171651 -0.349856,0.155707 0,0 -0.690323,0.775706 -0.690324,0.775704 -0.893861,0.816979 -0.146319,0.114433 -0.0891,0.187593 0.114434,0.146319 -0.105046,0.31797 -0.219478,0.171651 -0.0891,0.187593 0.05722,0.07316 -0.381742,0.416462 -0.438958,0.343301 -0.658438,0.514951 -0.162263,0.244811 -0.178206,0.375187 0,0 -0.07316,0.05722 -0.07316,0.05721 -0.658438,0.514951 -0.528062,0.530894 -0.690325,0.775705 -0.178205,0.375187 -0.178205,0.375187 l -6.072262,4.748999 -0.05722,-0.07316 -0.07316,0.05722 -0.05722,-0.07316 -0.438959,0.343301 q -0.365799,0.286085 -0.788814,0.499009 -0.423017,0.212924 -0.772873,0.368632 -0.423015,0.212925 -0.935134,0.613442 -0.512118,0.400519 -0.626552,0.254199 -0.130377,-0.01595 -0.976408,0.409906 -0.788815,0.499009 -0.846032,0.425849 -0.130376,-0.01595 -0.496175,0.270141 -0.365799,0.286085 -0.480233,0.139765 -0.05722,-0.07316 -0.903249,0.352689 -0.788814,0.499009 -0.919192,0.483066 -0.05721,-0.07316 -0.887305,0.222313 -0.756928,0.238255 -0.772871,0.368632 -0.01595,0.130376 -0.349856,0.155707 -0.349856,0.155708 -0.407074,0.08254 -0.05721,-0.07316 -0.480232,0.139765 -0.480233,0.139764 -0.610609,0.123822 -0.130377,-0.01595 -0.203537,0.04128 -0.01595,0.130377 -0.07316,0.05722 -0.05722,-0.07316 -0.05722,-0.07316 -0.146319,0.114434 -0.0891,0.187594 -0.07316,0.05722 -0.130377,-0.01595 -0.130377,-0.01595 -0.480233,0.139764 -0.423015,0.212924 -0.480233,0.139765 -0.130376,-0.01595 -0.610609,0.123821 -0.553392,0.196981 -0.960465,0.27953 -0.407073,0.08254 -0.887305,0.222312 -0.407074,0.08255 -0.260753,-0.03188 0.07316,-0.05722 -0.260753,-0.03189 -0.203537,0.04128 -0.333914,0.02533 -0.07316,0.05721 -0.349856,0.155708 -0.276696,0.09849 -0.333913,0.02533 -0.05722,-0.07316 -0.333913,0.02533 -0.276696,0.09849 -0.333914,0.02533 -0.130376,-0.01595 -0.407072,0.08254 -0.203537,0.04128 -0.814146,0.165095 -0.610609,0.123822 -0.798202,0.03472 -0.187594,-0.0891 -0.740987,0.107879 -0.610609,0.123822 -0.667826,0.05066 -0.114434,-0.14632 -0.260753,-0.03189 -0.276697,0.09849 -0.333913,0.02533 -0.114434,-0.146319 -0.260753,-0.03189 -0.146321,0.114434 -0.333914,0.02533 -0.05721,-0.07316 -0.130376,-0.01595 -0.130377,-0.01595 -0.39113,-0.04783 -0.187594,-0.0891 -0.260754,-0.03188 -0.146319,0.114433 -0.349855,0.155708 -0.333913,0.02533 -0.391131,-0.04783 -0.05721,-0.07316 -0.130376,-0.01595 -0.07316,0.05722 -0.260753,-0.03189 -0.203537,0.04128 -0.46429,0.0094 -0.260753,-0.03188 -0.667826,0.05066 -0.407073,0.08255 -0.521507,-0.06377 0.01595,-0.130377 -0.05722,-0.07316 -0.07316,0.05722 -0.130376,-0.01595 -0.05721,-0.07316 -0.333913,0.02533 -0.260754,-0.03189 -0.594667,-0.0065 -0.333913,0.02533 -0.448347,-0.120989 -0.187593,-0.0891 -0.46429,0.0094 -0.203535,0.04128 -0.521506,-0.06377 -0.24481,-0.162263 -0.448347,-0.120989 -0.130377,-0.01595 -0.594666,-0.0065 -0.39113,-0.04783 -0.448347,-0.120989 -0.114433,-0.14632 -0.187594,-0.0891 -0.203536,0.04128 -0.78226,-0.09566 -0.578723,-0.136931 -0.651883,-0.07972 -0.07316,0.05722 -0.187593,-0.0891 -0.130377,-0.01595 -0.203536,0.04128 -0.07316,0.05722 -0.317971,-0.105046 -0.260753,-0.03188 -0.448347,-0.120988 -0.130377,-0.01595 -0.260753,-0.03189 -0.07316,0.05722 -0.130377,-0.01595 -0.05721,-0.07316 -0.203535,0.04128 -0.203537,0.04128 -0.260755,-0.03189 -0.05722,-0.07316 -0.187592,-0.0891 -0.260754,-0.03188 -0.187594,-0.0891 0,0 -0.203536,0.04128 -0.203537,0.04128 -0.24481,-0.162262 0.01595,-0.130377 -0.203537,0.04128 -0.14632,0.114433 -0.317971,-0.105046 -0.04128,-0.203536 -0.187593,-0.0891 -0.130376,-0.01595 -0.505564,-0.194149 -0.375187,-0.178206 -0.448346,-0.120988 -0.07316,0.05722 -0.203537,0.04128 -0.114434,-0.146319 -0.17165,-0.219479 -0.114434,-0.14632 -0.693158,-0.283251 -0.63594,-0.210092 -0.969853,-0.184761 -0.260753,-0.03188 -0.375187,-0.178205 -0.05722,-0.07316 -0.130376,-0.01595 -0.07316,0.05722 -0.750375,-0.356411 -0.750374,-0.356411 -0.896693,-0.241977 -0.07316,0.05722 -0.17165,-0.21948 -0.114434,-0.146319 -0.375188,-0.178205 -0.203536,0.04128 -0.260753,-0.03189 -0.114434,-0.14632 -0.375187,-0.178205 -0.260753,-0.03189 -0.317971,-0.105046 -0.05721,-0.07316 -0.17165,-0.21948 -0.187593,-0.0891 -0.260753,-0.03188 -0.07316,0.05722 -0.375187,-0.178205 -0.375187,-0.178206 -0.505563,-0.194149 -0.203537,0.04128 -0.187594,-0.0891 0.01594,-0.130376 -0.05722,-0.07316 -0.260754,-0.03189 -0.375188,-0.178206 -0.04128,-0.203537 -0.114432,-0.146319 -0.05722,-0.07316 -0.375188,-0.178206 -0.260753,-0.03189 -0.489621,-0.324525 -0.31797,-0.105045 -0.619997,-0.340468 -0.31797,-0.105045 -0.432404,-0.251366 -0.114433,-0.146319 -0.187593,-0.0891 -0.07316,0.05722 -0.130377,-0.01595 -0.05721,-0.07316 -0.130377,-0.01595 -0.07316,0.05721 -0.17165,-0.219479 -0.114434,-0.14632 -0.187594,-0.0891 -0.130376,-0.01595 -0.302027,-0.235422 -0.302027,-0.235422 -0.375187,-0.178206 -0.130377,-0.01595 -0.114434,-0.146319 -0.05721,-0.07316 -0.302027,-0.235423 -0.24481,-0.162262 -0.31797,-0.105046 -0.07316,0.05722 -0.244811,-0.162262 -0.09849,-0.276697 -0.17165,-0.219479 -0.07316,0.05722 -0.187594,-0.0891 -0.187593,-0.0891 -0.24481,-0.162262 -0.203536,0.04128 -0.187593,-0.0891 0.01594,-0.130377 -0.171651,-0.21948 -0.244811,-0.162262 -0.31797,-0.105046 -0.07316,0.05722 -0.130376,-0.01594 -0.114434,-0.14632 -0.114434,-0.14632 -0.130377,-0.01595 -0.302028,-0.235422 -0.155707,-0.349856 -0.228867,-0.29264 -0.130377,-0.01595 -0.302027,-0.235422 -0.171651,-0.219479 -0.24481,-0.162262 -0.130377,-0.01595 -0.244811,-0.162262 -0.114433,-0.146321 -0.343301,-0.438959 -0.375187,-0.178206 -0.718488,-0.617164 -0.489621,-0.324526 -0.619997,-0.340468 -0.130377,-0.01595 -0.114434,-0.14632 0.01595,-0.130377 -0.05722,-0.07316 -0.130376,-0.01595 -0.302026,-0.235422 -0.228868,-0.292639 -0.514952,-0.658439 -0.432404,-0.251365 -0.416461,-0.381742 0.01595,-0.130376 -0.400518,-0.512118 -0.41646,-0.381741 -0.489621,-0.324525 l -0.01595,0.130377 -4.462916,-5.706464 0.146321,-0.114434 -0.171651,-0.21948 0.146319,-0.114433 -0.686602,-0.877917 Q 11.44415,76.017142 11.476035,75.756388 11.361602,75.610069 11.189951,75.390589 11.018301,75.171111 10.592452,74.325078 10.22382,73.552207 10.026839,72.998814 9.6994801,72.42948 9.7726401,72.372262 q 0.07316,-0.05722 -0.05721,-0.07316 -0.05721,-0.07316 -0.114434,-0.14632 -0.05721,-0.07316 -0.139764,-0.480233 -0.139765,-0.480233 -0.320803,-1.164001 -0.311416,-0.699712 -0.524341,-1.122728 -0.139764,-0.480233 -0.196981,-0.553393 -0.05722,-0.07316 -0.04128,-0.203536 0.07316,-0.05722 -0.09849,-0.276697 -0.114434,-0.146319 -0.155709,-0.349855 -0.04128,-0.203537 -0.155707,-0.349856 -0.05722,-0.07316 0.01595,-0.130377 0.07316,-0.05722 -0.06661,-0.53745 -0.08254,-0.407072 -0.30486,-1.294378 -0.222312,-0.887305 -0.336746,-1.033625 -0.057217,-0.07316 -0.041275,-0.203537 0.073161,-0.05722 -0.041274,-0.203536 -0.057217,-0.07316 0.015943,-0.130377 0.07316,-0.05721 -0.1078788,-0.740986 -0.1238218,-0.610609 -0.1810386,-0.683769 -0.057216,-0.07316 0.015943,-0.130377 0.07316,-0.05721 -0.00939,-0.464289 Q 6.8281937,61.823086 6.9013537,61.765868 6.9745137,61.708648 6.78692,61.619549 6.6724862,61.47323 6.818806,61.358796 6.891966,61.301576 6.720315,61.0821 6.5486644,60.86262 6.621824,60.805403 6.7681436,60.690969 6.669652,60.414273 6.628378,60.210737 6.701538,60.15352 6.774698,60.09631 6.749367,59.76239 6.724036,59.428477 6.6096024,59.282158 q -0.1144338,-0.146321 0.031886,-0.260753 0.07316,-0.05722 -0.057216,-0.07316 -0.057217,-0.07316 -0.041274,-0.203537 0.07316,-0.05722 0.015943,-0.130377 -0.041274,-0.203537 0.031886,-0.260753 0.07316,-0.05721 0.031886,-0.260753 -0.1144337,-0.146319 -0.082548,-0.407073 -0.098491,-0.276696 -0.050662,-0.667826 0.031886,-0.260753 -0.00939,-0.46429 -0.057216,-0.07316 0.015943,-0.130377 0.07316,-0.05721 0.031886,-0.260753 -0.1144337,-0.14632 -0.025331,-0.333913 0.1463196,-0.114434 0.031886,-0.260753 -0.1144337,-0.146319 0.031886,-0.260753 0.07316,-0.05722 -0.041274,-0.203537 -0.057216,-0.07316 0.063772,-0.521506 -0.00939,-0.46429 -0.050662,-0.667827 -0.1144338,-0.146319 0.031885,-0.260753 0.1463196,-0.114434 0.063772,-0.521507 0.031886,-0.260753 0.1369315,-0.578723 0.031886,-0.260754 -0.00939,-0.46429 -0.041274,-0.203536 0.031886,-0.260753 0.07316,-0.05721 0.031886,-0.260754 0.015943,-0.130376 0.015943,-0.130376 0.1463195,-0.114434 0.1050456,-0.31797 0.015943,-0.130377 0.047828,-0.391131 0.031886,-0.260753 -0.00939,-0.464289 -0.057217,-0.07316 0.1050456,-0.31797 0.031886,-0.260753 0.063772,-0.521506 0.031886,-0.260754 0.210092,-0.635941 0.162263,-0.244811 0.06377,-0.521507 -0.04128,-0.203536 0.120989,-0.448347 0.235422,-0.302026 0.120988,-0.448346 -0.114434,-0.14632 0.04782,-0.39113 0.162263,-0.244811 0.105045,-0.31797 -0.05721,-0.07316 0.03189,-0.260754 0.0891,-0.187593 0.105046,-0.31797 -0.05722,-0.07316 0.178206,-0.375186 0.235422,-0.302028 0.105045,-0.317971 -0.130376,-0.01595 -0.04128,-0.203537 0.0891,-0.187593 0.178206,-0.375187 0.146319,-0.114433 0.0891,-0.187592 -0.114434,-0.14632 0.105045,-0.317971 0.0891,-0.187593 0.136932,-0.578724 0.105045,-0.317969 0.136931,-0.578723 0.21948,-0.17165 0.0891,-0.187593 -0.05721,-0.07316 0.162262,-0.244811 0.162263,-0.24481 0.105046,-0.31797 -0.05722,-0.07316 0.01595,-0.130377 0.07316,-0.05721 0.130376,0.01594 0.05722,0.07316 0.105046,-0.317969 0.03189,-0.260753 0.136931,-0.578724 0.29264,-0.228868 0.3658,-0.286084 0.07316,-0.05721 0.01595,-0.130377 0.01595,-0.130377 0.1050459,-0.31797 0.01595,-0.130377 -0.02533,-0.333913 -0.05721,-0.07316 0.105046,-0.317971 0.292639,-0.228866 0.324525,-0.48962 0.03189,-0.260754 0.283252,-0.693157 0.251365,-0.432404 0.136931,-0.578723 -0.05721,-0.07316 0.235422,-0.302028 0.235423,-0.302027 0.381742,-0.416461 0.07316,-0.05722 0.0891,-0.187594 0.0891,-0.187593 0.21948,-0.17165 0.07316,-0.05721 -0.04128,-0.203537 -0.114434,-0.146319 0.0891,-0.187592 0.146319,-0.114434 0.219479,-0.171652 -0.04128,-0.203535 0.0891,-0.187593 0.07316,-0.05721 0.0891,-0.187594 Q 12.16,36.076 12.233153,36.018783 q 0.146319,-0.114433 0.528062,-0.530895 0.308581,-0.359244 0.251365,-0.432403 -0.05721,-0.07316 0.486787,-0.734432 0.617164,-0.718487 0.486788,-0.734431 -0.05722,-0.07316 -0.04128,-0.203536 0.07316,-0.05722 0.130377,0.01595 0.05722,0.07316 0.219479,-0.171651 0.03189,-0.260753 0.235423,-0.302027 0.203535,-0.04128 0.146319,-0.114433 -0.05721,-0.07316 0.178205,-0.375187 0.162263,-0.244811 0.381743,-0.416462 0.292638,-0.228866 0.235421,-0.302027 0.01595,-0.130376 0.235422,-0.302027 0.29264,-0.228867 0.381743,-0.416461 0.0891,-0.187594 0.235422,-0.302026 0.21948,-0.171652 0.528061,-0.530896 0.29264,-0.228867 0.235423,-0.302026 -0.05722,-0.07316 0.235422,-0.302028 0.235422,-0.302027 0.74754,-0.702546 0.51212,-0.400517 0.658439,-0.514951 0.146319,-0.114434 0.162262,-0.24481 0.01595,-0.130377 0.21948,-0.171651 0.07316,-0.05722 0.0891,-0.187594 0,0 0.07316,-0.05722 0.07316,-0.05721 0.512118,-0.400519 0.438959,-0.3433 0.528061,-0.530894 0.14632,-0.114434 0.276697,-0.09849 0.130377,0.01595 0.07316,-0.05722 -0.05721,-0.07316 0.21948,-0.171651 0.276696,-0.09849 0.219479,-0.171651 0.07316,-0.05722 0.162262,-0.24481 0.21948,-0.17165 0.731599,-0.572169 0.512118,-0.400517 0.569335,-0.327357 0.07316,-0.05722 0.731597,-0.572169 0.585279,-0.457735 0.919192,-0.483066 0.21948,-0.17165 0.438959,-0.343301 0.21948,-0.17165 0.276696,-0.09849 0.130377,0.01595 0.715655,-0.441792 0.642496,-0.384575 0.772872,-0.368632 0,0 0.292639,-0.228867 0.21948,-0.17165 0.919192,-0.483066 0.699712,-0.311415 1.253104,-0.508397 0.553393,-0.196982 0.715655,-0.441792 0.14632,-0.114434 0.276697,-0.09849 0.05722,0.07316 0.407072,-0.08255 0.29264,-0.228868 0.365799,-0.286084 0.07316,-0.05722 0.260753,0.03188 0.260753,0.03189 0.553393,-0.196982 0.407073,-0.08255 1.033626,-0.336745 0.626552,-0.2542 0.830088,-0.295473 0.130377,0.01595 0.14632,-0.114434 -0.05722,-0.07316 0.407072,-0.08255 0.46429,-0.0094 0.594667,0.0065 0.130376,0.01595 0.01595,-0.130378 -0.114433,-0.146319 -0.04128,-0.203536 0.130376,0.01595 0.31797,0.105046 0.130377,0.01594 0.333913,-0.02533 0.130376,0.01595 0.553392,-0.196982 0.349856,-0.155707 0.756929,-0.238255 0.333913,-0.02533 0.46429,-0.0094 0.146319,-0.114434 0.203537,-0.04128 0.07316,-0.05722 0.146319,-0.114434 0.07316,-0.05722 0.187594,0.0891 0.114434,0.14632 0.260753,0.03189 0.07316,-0.05721 0.553393,-0.196982 0.537449,-0.06661 0.594665,0.0065 0.187594,0.0891 0.46429,-0.0094 0.276697,-0.09849 0.480233,-0.139766 0.14632,-0.114433 0.39113,0.04783 0.31797,0.105045 0.260754,0.03188 -0.05722,-0.07316 0.146319,-0.114434 0.146319,-0.114433 0.333913,-0.02533 0.187593,0.0891 0.537449,-0.06661 0.407074,-0.08254 0.521507,0.06377 0.187593,0.0891 0.39113,0.04783 0.07316,-0.05722 0.203537,-0.04128 0.130376,0.01595 0.203536,-0.04128 0.07316,-0.05722 0.203536,-0.04128 0.05722,0.07316 0.07316,-0.05721 0.146319,-0.114434 0.594666,0.0065 0.578722,0.136932 0.651882,0.07972 0.07316,-0.05721 0.130376,0.01594 0.05722,0.07316 0.130378,0.01595 0.203536,-0.04128 0.260753,0.03189 0.05721,0.07316 1.303767,0.159429 1.262493,-0.0441 1.392868,-0.02817 0.07316,-0.05721 0.317971,0.105046 0.24481,0.162262 0.391129,0.04782 0.146321,-0.114433 0.203536,-0.04128 0.114435,0.146319 0.187594,0.0891 0.07316,-0.05722 0.260753,0.03188 0.114434,0.14632 0.317971,0.105046 0.203536,-0.04128 0.333913,-0.02533 0.05721,0.07316 0.130378,0.01594 0.07316,-0.05722 0.114433,0.146319 0.114432,0.14632 0.448346,0.120989 0.333914,-0.02533 0.521507,0.06377 0.05722,0.07316 0.130376,0.01594 0.07316,-0.05721 0.839477,0.168817 0.839478,0.168818 1.475417,0.378909 0.63594,0.210091 0.766317,0.226035 0.114434,0.146319 0.187593,0.0891 0.07316,-0.05722 0.187593,0.0891 0.171651,0.219479 0.260754,0.03189 0.146321,-0.114434 0.260754,0.03189 0.114433,0.146319 0.302026,0.235422 0.203537,-0.04128 0.260753,0.03189 0.114434,0.146319 0.505565,0.194148 0.448346,0.120989 0.56278,0.267308 0.114433,0.14632 0.31797,0.105046 0.260753,0.03189 0.302027,0.235422 0.05721,0.07316 0.260754,0.03189 0.333912,-0.02533 0.375187,0.178206 0.114434,0.146319 0.56278,0.267308 0.521507,0.06377 0.693157,0.283251 0.17165,0.219479 0.317971,0.105045 0.0891,-0.187593 0.260753,0.03189 0.228867,0.292638 0.343301,0.438958 0.187593,0.0891 0.260753,0.03188 0.203537,-0.04128 0.187593,0.0891 -0.01594,0.130378 0.359244,0.308583 0.375187,0.178206 0.489621,0.324525 0.114434,0.146319 0.31797,0.105046 0.203537,-0.04128 0.260754,0.03188 0.05722,0.07316 0.114433,0.14632 -0.07316,0.05721 0.05722,0.07316 0.07316,-0.05722 0.260753,0.03189 0.114434,0.146319 0.24481,0.162263 0.07316,-0.05722 0.359244,0.308581 0.359244,0.308583 0.489621,0.324525 0.05722,0.07316 0.604054,0.470845 0.546837,0.397685 0.775705,0.690324 0.171651,0.21948 0.375187,0.178205 0.260753,0.03189 0.546838,0.397686 0.286084,0.365799 0.546837,0.397684 0.05722,0.07316 0.947356,0.909804 0.890138,0.836643 1.290657,1.348762 0.530894,0.528062 0.874195,0.96702 0.343302,0.438959 0.416461,0.381741 0.14632,-0.114432 0.203537,-0.04128 0.05721,0.07316 -0.01594,0.130376 -0.07316,0.05722 0.04128,0.203537 0.04128,0.203537 0.171652,0.21948 0.203535,-0.04128 0.286084,0.365798 0.155707,0.349857 0.286083,0.365799 0.203537,-0.04128 0.228868,0.292639 0.02533,0.333913 0.155707,0.349856 0.07316,-0.05722 0.187594,0.0891 0.171651,0.21948 0.244811,0.162262 0.07316,-0.05721 0.05722,0.07316 -0.07316,0.05722 0.09849,0.276696 0.114434,0.146321 0.187594,0.0891 0.07316,-0.05721 0.130377,0.01594 0.05722,0.07316 -0.01595,0.130377 -0.01595,0.130376 0.114434,0.14632 0.05722,0.07316 0.04128,0.203536 -0.0891,0.187594 0.613443,0.935134 0.572168,0.731598 0.499008,0.788815 0.05722,0.07316 0.254199,0.626552 0.212924,0.423017 0.441793,0.715655 0.155707,0.349856 0.286084,0.365799 0.05722,0.07316 -0.01595,0.130377 -0.07316,0.05722 0.212924,0.423016 0.286085,0.365799 0.311415,0.699712 -0.105046,0.31797 0.123822,0.610609 0.228868,0.292639 0.343301,0.438959 0.187595,0.0891 0.114434,0.14632 -0.07316,0.05721 -0.03188,0.260753 0.114434,0.146319 0.09849,0.276696 -0.07316,0.05721 0.155709,0.349856 0.17165,0.21948 0.19698,0.553393 0.02533,0.333912 0.08254,0.407072 0.114434,0.14632 0.17165,0.21948 -0.0891,0.187593 0.139765,0.480232 0.228868,0.292639 0.196982,0.553393 -0.03189,0.260753 0.155708,0.349856 0.114434,0.14632 0.04128,0.203536 -0.07316,0.05722 0.08255,0.407074 0.02533,0.333912 0.09849,0.276696 0.07316,-0.05722 0.130377,0.01595 0.05721,0.07316 -0.03189,0.260753 -0.146319,0.114434 -0.04783,0.391131 0.09849,0.276696 0.228867,0.292639 0.130377,0.01595 -0.01595,0.130376 -0.0891,0.187594 0.06661,0.53745 0.155707,0.349856 0.08254,0.407073 -0.07316,0.05721 -0.01595,0.130376 0.04128,0.203537 0.114434,0.14632 0.07316,-0.05722 0.130377,0.01594 0.05721,0.07316 -0.0891,0.187594 -0.07316,0.05721 0.02533,0.333913 0.09849,0.276696 -0.04783,0.39113 -0.07316,0.05721 0.06661,0.53745 0.06661,0.537449 0.06661,0.537449 -0.146319,0.114433 0.0094,0.464289 0.212925,0.423016 0.123822,0.61061 -0.0891,0.187594 -0.03189,0.260753 0.05722,0.07316 -0.01595,0.130376 -0.07316,0.05722 0.0094,0.46429 0.155709,0.349856 0.139765,0.480233 -0.146319,0.114434 -0.03189,0.260753 0.05722,0.07316 -0.01594,0.130377 -0.07316,0.05722 -0.01595,0.130376 0.05722,0.07316 0.04128,0.203537 -0.01595,0.130376 -0.05438,0.985796 -0.03844,0.85542 0.09194,0.871363 0.07316,-0.05721 -0.07316,0.05722 -0.219479,0.171651 -0.105045,0.31797 0.05722,0.07316 0.04128,0.203536 -0.146319,0.114434 0.04128,0.203537 0.05721,0.07316 -0.01595,0.130376 -0.146319,0.114434 -0.0891,0.187594 0.114434,0.14632 -0.03189,0.260753 -0.07316,0.05722 0.04128,0.203537 0.114434,0.146319 -0.03189,0.260753 -0.01595,0.130377 -0.146319,0.114434 -0.130377,-0.01595 -0.04783,0.39113 0.02533,0.333913 -0.05438,0.985796 -0.136932,0.578723 -0.0065,0.594666 0.05721,0.07316 -0.105046,0.317971 -0.178206,0.375187 -0.178206,0.375187 0.07316,-0.05722 0.05722,0.07316 -0.146319,0.114433 -0.0891,0.187593 0.04128,0.203536 -0.04782,0.391129 -0.162263,0.244811 -0.105046,0.317971 0.05722,0.07316 -0.01595,0.130376 -0.01595,0.130377 0.04128,0.203537 0.05722,0.07316 -0.146319,0.114434 -0.14632,0.114434 -0.0891,0.187593 0.05722,0.07316 -0.03189,0.260753 -0.0891,0.187594 -0.136931,0.578724 -0.04783,0.39113 -0.194149,0.505563 -0.07316,0.05722 -0.01595,0.130378 0.05722,0.07316 -0.01595,0.130376 -0.0891,0.187593 -0.178206,0.375187 -0.178205,0.375187 -0.06377,0.521506 0.05722,0.07316 -0.162263,0.244811 -0.219479,0.17165 -0.251365,0.432404 -0.105045,0.31797 -0.04782,0.39113 0.05721,0.07316 -0.03189,0.260753 -0.219479,0.17165 -0.162262,0.24481 0.05722,0.07316 -0.712822,1.500749 -0.770039,1.427587 -0.712821,1.500747 -0.01595,0.130377 -0.308583,0.359244 -0.162262,0.244811 -0.178206,0.375187 0.114434,0.14632 -0.105044,0.317971 -0.29264,0.228867 -0.617165,0.718488 -0.251366,0.432403 -0.356411,0.750374 -0.21948,0.17165 -0.292639,0.228867 -0.07316,0.05722 -0.01595,0.130377 0.05722,0.07316 -0.251365,0.432403 -0.381743,0.416462 -0.470845,0.604055 -0.0891,0.187594 -0.235422,0.302027 -0.219479,0.171651 -0.617165,0.718489 -0.381742,0.41646 -0.324524,0.48962 0.05721,0.07316 -0.01595,0.130377 -0.07316,0.05722 -0.130376,-0.01595 -0.05722,-0.07316 -0.381742,0.416461 -0.454902,0.473677 -1.275603,1.233439 -0.89386,0.816979 -0.89386,0.816979 -0.07316,0.05722 -0.146319,0.114434 -0.0891,0.187593 -0.14632,0.114434 -0.07316,0.05721 -0.292639,0.228867 -0.178206,0.375187 -1.828995,1.430421 -1.536355,1.201554 -1.886211,1.357263 -0.276697,0.09849 -0.333914,0.02533 -0.05722,-0.07316 -0.130376,-0.01595 0.05722,0.07316 -0.804758,0.629385 -0.919192,0.483066 -1.415367,0.753207 -0.569336,0.327358 -0.903249,0.352689 -0.333912,0.02533 -0.349855,0.155708 -0.0891,0.187594 -0.146321,0.114433 -0.05722,-0.07316 -0.203535,0.04128 -0.203537,0.04128 -0.333914,0.02533 -0.05721,-0.07316 -0.349856,0.155708 -0.365799,0.286084 -0.423016,0.212924 -0.05721,-0.07316 -0.683768,0.181039 -0.626553,0.254198 -0.903249,0.352689 -0.14632,0.114434 -0.130377,-0.01595 -0.05721,-0.07316 -0.610609,0.12382 -0.626552,0.2542 -0.756929,0.238256 -0.07316,0.05722 -0.203536,0.04128 -0.114434,-0.146321 -0.46429,0.0094 -0.349856,0.155707 -0.496176,0.270141 -0.219479,0.17165 -0.260753,-0.03189 -0.114434,-0.146319 -0.46429,0.0094 -0.276697,0.09849 -0.667826,0.05066 -0.260753,-0.03189 -0.610609,0.123822 -0.21948,0.17165 -0.349857,0.155707 -0.05721,-0.07316 -0.130376,-0.01595 -0.07316,0.05722 -0.05721,-0.07316 -0.05722,-0.07316 -0.594667,-0.0065 -0.53745,0.06661 -0.53745,0.06661 -0.114434,-0.146321 -0.333913,0.02533 -0.203536,0.04128 -0.260753,-0.03188 -0.05722,-0.07316 -0.333914,0.02533 -0.219478,0.17165 -0.260753,-0.03189 0.01595,-0.130377 -0.333912,0.02533 -0.203537,0.04128 -0.46429,0.0094 -0.203537,0.04128 -0.333913,0.02533 -0.07316,0.05722 -0.130377,-0.01595 -0.114434,-0.14632 -0.31797,-0.105046 -0.203537,0.04128 -0.260753,-0.03188 -0.114434,-0.14632 -0.39113,-0.04783 -0.276697,0.09849 -0.333913,0.02533 -0.114434,-0.146319 -0.04128,-0.203537 0.07316,-0.05721 -0.203537,0.04128 -0.219479,0.17165 -0.276696,0.09849 -0.114433,-0.14632 -0.187594,-0.0891 -0.130376,-0.01595 -0.260753,-0.03189 -0.05722,-0.07316 -0.276696,0.09849 -0.203536,0.04128 -0.130377,-0.01595 0.07316,-0.05721 -0.114433,-0.146319 -0.187594,-0.0891 -0.333913,0.02533 -0.07316,0.05722 -0.130377,-0.01595 -0.05721,-0.07316 -0.130376,-0.01595 -0.146321,0.114433 -0.260755,-0.03188 -0.17165,-0.21948 -0.187592,-0.0891 -0.07316,0.05722 -0.130377,-0.01595 -0.05721,-0.07316 -0.260753,-0.03189 -0.203537,0.04128 -0.317971,-0.105045 -0.114433,-0.14632 -0.260753,-0.03189 -0.07316,0.05722 -0.187594,-0.0891 -0.114434,-0.146319 -0.505563,-0.194149 -0.46429,0.0094 -0.651883,-0.07972 -0.187594,-0.0891 -0.391131,-0.04783 -0.07316,0.05722 -0.130376,-0.01595 -0.04128,-0.203536 -0.228868,-0.292638 -0.24481,-0.162264 -0.39113,-0.04783 -0.07316,0.05722 -0.260753,-0.03189 -0.05721,-0.07316 -0.203536,0.04128 -0.01595,0.130377 -0.130377,-0.01595 -0.05721,-0.07316 -0.04128,-0.203536 0.01595,-0.130377 -0.05722,-0.07316 -0.07316,0.05722 -0.260753,-0.03188 -0.260753,-0.03189 -0.46429,0.0094 -0.07316,0.05722 -0.114434,-0.146319 -0.114433,-0.14632 -0.302026,-0.235423 -0.244811,-0.162262 -0.317971,-0.105046 -0.07316,0.05722 -0.187593,-0.0891 -0.171651,-0.219479 -0.24481,-0.162263 -0.07316,0.05722 -0.187594,-0.0891 -0.24481,-0.162262 -0.521506,-0.06377 -0.203537,0.04128 -0.244811,-0.162263 -0.04128,-0.203536 -0.171651,-0.219479 -0.05721,-0.07316 -0.130376,-0.01595 -0.203536,0.04128 -0.56278,-0.267308 -0.416462,-0.381742 -0.473678,-0.454902 -0.05722,-0.07316 -0.203537,0.04128 -0.07316,0.05722 -0.114434,-0.14632 -0.114433,-0.146319 -0.187594,-0.0891 -0.07316,0.05722 -0.448346,-0.120989 -0.302027,-0.235423 -0.432404,-0.251365 -0.07316,0.05721 -0.130377,-0.01595 -0.114433,-0.146319 -0.04128,-0.203537 -0.05722,-0.07316 -0.302028,-0.235422 -0.24481,-0.162262 -0.677213,-0.413627 -0.343302,-0.438959 -0.588112,-0.601222 -0.24481,-0.162263 -0.359244,-0.308582 -0.260753,-0.03189 -0.302028,-0.235422 -0.05721,-0.07316 -0.130376,-0.01595 -0.07316,0.05722 -0.228868,-0.292639 -0.228867,-0.29264 -0.302027,-0.235422 -0.07316,0.05721 -0.24481,-0.162263 -0.17165,-0.21948 -0.24481,-0.162263 -0.07316,0.05722 -0.171652,-0.219479 -0.155707,-0.349856 -0.228866,-0.292639 -0.07316,0.05722 -0.416462,-0.381742 -0.343301,-0.438958 -0.530894,-0.528061 l -0.05722,-0.07316 q 0.07316,-0.05721 -0.09849,-0.276696 -0.171651,-0.219479 -0.400519,-0.512118 -0.228867,-0.292639 -0.400518,-0.512119 -0.228867,-0.292639 -0.286084,-0.365799 -0.130376,-0.01595 -0.05722,-0.07316 0.07316,-0.05722 -0.114434,-0.14632 -0.114434,-0.14632 -0.260753,-0.03189 l -0.203537,0.04128 0.01595,-0.130377 q -0.04128,-0.203536 -0.425848,-0.846032 -0.384575,-0.642494 -0.499009,-0.788814 -0.05721,-0.07316 -0.343301,-0.438959 -0.228868,-0.292639 -0.212925,-0.423016 0.07316,-0.05722 -0.04128,-0.203536 -0.17165,-0.219479 -0.09849,-0.276697 0.07316,-0.05722 -0.114433,-0.146319 -0.187593,-0.0891 -0.270142,-0.496175 -0.17165,-0.21948 -0.286083,-0.365799 -0.187594,-0.0891 -0.114434,-0.14632 0.146319,-0.114433 0.04782,-0.39113 -0.04128,-0.203536 -0.467122,-1.049568 -0.368632,-0.772872 -0.565614,-1.326264 -0.196982,-0.553393 -0.123822,-0.61061 0.07316,-0.05721 -0.04128,-0.203536 -0.04128,-0.203536 -0.171652,-0.219479 0,0 -0.02533,-0.333914 -0.02533,-0.333913 -0.139765,-0.480232 -0.05721,-0.07316 0.0891,-0.187594 0,0 -0.114434,-0.14632 -0.130376,-0.01595 -0.114434,-0.146319 0.0891,-0.187594 -0.09849,-0.276696 -0.05722,-0.07316 0.03189,-0.260753 0.01595,-0.130377 -0.02533,-0.333913 -0.05721,-0.07316 -0.04128,-0.203537 0.07316,-0.05721 -0.114434,-0.146319 -0.114434,-0.14632 0.01594,-0.130377 0.07316,-0.05721 0.03188,-0.260753 -0.09849,-0.276697 -0.196981,-0.553393 -0.04128,-0.203537 0.105046,-0.31797 0.0891,-0.187593 -0.05066,-0.667826 -0.08255,-0.407073 -0.123821,-0.610609 -0.04128,-0.203537 0.03188,-0.260754 0.01595,-0.130377 -0.02533,-0.333913 0.01595,-0.130376 0.03189,-0.260754 0.07316,-0.05722 -0.0094,-0.464289 -0.06661,-0.53745 -0.05066,-0.667826 0.0891,-0.187593 0.03189,-0.260753 0.01595,-0.130377 0.105046,-0.317971 0.01594,-0.130376 -0.09849,-0.276696 -0.114434,-0.146319 -0.04128,-0.203536 0.130377,0.01594 0.136931,-0.578724 -0.0094,-0.464289 0.06377,-0.521506 0.0891,-0.187593 0.03188,-0.260753 -0.05721,-0.07316 0.03189,-0.260754 0.146319,-0.114433 0.0891,-0.187594 -0.05722,-0.07316 0.105046,-0.317969 0.162262,-0.24481 0.03188,-0.260754 -0.130376,-0.01595 -0.114434,-0.14632 -0.05721,-0.07316 0.0891,-0.187592 0.203537,-0.04128 0.162262,-0.244811 0.0891,-0.187594 -0.02533,-0.333913 -0.04128,-0.203537 0.178206,-0.375187 0.0891,-0.187594 0.03188,-0.260753 -0.114434,-0.14632 0.06377,-0.521507 0.120989,-0.448347 0.136933,-0.578724 -0.05722,-0.07316 -0.04128,-0.203536 0.14632,-0.114433 0.21948,-0.171651 0.01594,-0.130376 -0.04128,-0.203536 0.07316,-0.05721 0.146319,-0.114433 0.14632,-0.114434 -0.04128,-0.203537 -0.114434,-0.146319 -0.04128,-0.203537 0.07316,-0.05721 0.203537,-0.04128 0.05721,0.07316 0.162262,-0.244811 0.105046,-0.31797 0.120989,-0.448347 -0.05722,-0.07316 0.0891,-0.187593 0.276696,-0.09849 0.0891,-0.187594 -0.114433,-0.146319 0.03189,-0.260753 0.0891,-0.187594 0.267309,-0.562781 0.178205,-0.375187 0.251365,-0.432403 -0.04128,-0.203537 0.105046,-0.317971 0.162262,-0.24481 0.397684,-0.546838 0.178206,-0.375186 0.120989,-0.448346 -0.05722,-0.07316 0.162262,-0.24481 0.21948,-0.171651 0.470845,-0.604054 0.251366,-0.432405 0.324525,-0.489621 0.07316,-0.05721 0.01594,-0.130377 -0.05722,-0.07316 0.01595,-0.130376 0.01594,-0.130378 0.14632,-0.114434 0.07316,-0.05722 0.219479,-0.171651 0.03189,-0.260753 0.251365,-0.432403 0.21948,-0.171652 0.162263,-0.244811 -0.05722,-0.07316 0.0891,-0.187594 0.07316,-0.05721 0.292638,-0.228867 0.21948,-0.17165 0.365799,-0.286084 0.146321,-0.114434 -0.04128,-0.203537 -0.114434,-0.146319 0.162262,-0.24481 0.276697,-0.09849 0.219479,-0.17165 0.01594,-0.130377 0.324526,-0.489621 0.292639,-0.228868 0.349856,-0.155708 0.07316,-0.05722 0.585278,-0.457735 0.381742,-0.416461 0.324525,-0.48962 -0.05721,-0.07316 0.01594,-0.130378 0.07316,-0.05722 0.130377,0.01595 0.05722,0.07316 0.130376,0.01595 0.07316,-0.05722 0.01595,-0.130377 -0.05721,-0.07316 0.528062,-0.530895 0.658438,-0.514951 0.715655,-0.441791 0.05721,0.07316 0.21948,-0.171651 0.292638,-0.228868 1.284989,-0.76915 1.065511,-0.5975 1.211831,-0.711934 0.07316,-0.05721 0.203536,-0.04128 0.130377,0.01595 0.21948,-0.17165 0.01595,-0.130378 0.29264,-0.228868 0.349855,-0.155708 0.903247,-0.352689 0.553393,-0.196982 0.699713,-0.311416 0.0891,-0.187593 0.146319,-0.114434 0.114434,0.146321 0.260753,0.03189 0.0891,-0.187594 0.14632,-0.114434 0.05722,0.07316 0.61061,-0.123822 0.423015,-0.212925 0.496175,-0.270141 0.146319,-0.114434 0.203537,-0.04128 0.05722,0.07316 0.464289,-0.0094 0.423016,-0.212923 0.480232,-0.139764 0.05722,0.07316 0.146321,-0.114434 0.219479,-0.17165 0.276696,-0.09849 0.130376,0.01595 0.260753,0.03189 0.146319,-0.114434 0.407073,-0.08255 0.244811,0.162264 0.464289,-0.0094 0.203537,-0.04128 0.260754,0.03189 0.05722,0.07316 0.14632,-0.114434 0.219479,-0.171651 0.407072,-0.08254 0.114434,0.146319 0.85542,0.03844 0.740986,-0.107879 0.756929,-0.238255 0.07316,-0.05722 0.187593,0.0891 0.04128,0.203537 0.24481,0.162263 0.260754,0.03189 0.53745,-0.06661 0.407073,-0.08255 0.46429,-0.0094 0.05722,0.07316 0.521507,0.06377 0.333913,-0.02533 0.391129,0.04783 0.05722,0.07316 0.260753,0.03189 0.130377,0.01594 0.260754,0.03188 0.05722,0.07316 0.31797,0.105046 0.130377,0.01595 0.260753,0.03189 0.187594,0.0891 0.130377,0.01594 -0.05722,-0.07316 0.260754,0.03189 0.317969,0.105046 0.896693,0.241977 0.651883,0.07972 1.157447,0.273863 0.375187,0.178206 0.39113,0.04783 0.07316,-0.05721 0.7091,0.152874 0.693158,0.283251 0.807591,0.429571 0.17165,0.21948 0.432404,0.251365 0.260753,0.03189 0.24481,0.162263 -0.01594,0.130376 0.130376,0.01595 0.130377,0.01595 0.432405,0.251366 0.317969,0.105045 0.448346,0.120989 0.130377,0.01595 0.187594,0.0891 0.130376,0.01595 0.114434,0.14632 -0.01595,0.130377 0.05721,0.07316 0.07316,-0.05721 0.677215,0.413629 0.546838,0.397684 0.619997,0.340468 0.07316,-0.05722 0.171651,0.219478 0.114433,0.146321 0.187593,0.0891 0.07316,-0.05722 0.979241,0.649051 0.963299,0.779426 1.649901,1.657344 0.686602,0.877917 0.743819,0.951077 -0.07316,0.05722 0.05722,0.07316 0.07316,-0.05722 0.416461,0.381742 0.343302,0.438958 0.270141,0.496176 -0.01595,0.130376 0.05722,0.07316 0.05721,0.07316 0.572169,0.731598 0.499008,0.788815 0.425849,0.846032 -0.07316,0.05722 -0.130376,-0.01595 -0.130378,-0.01594 0.327357,0.569336 0.457735,0.585278 0.556226,0.861974 0.09849,0.276697 0.02533,0.333914 -0.01595,0.130376 0.238256,0.756929 0.311414,0.699711 0.54967,1.456641 0.222313,0.887305 0.20637,1.017682 -0.14632,0.114433 0.04128,0.203536 0.114434,0.14632 0.06661,0.537449 -0.120989,0.448347 -0.05438,0.985797 0.06661,0.53745 0.05066,0.667826 -0.01595,0.130377 0.06661,0.53745 -0.120989,0.448346 -0.06377,0.521506 0.114433,0.14632 -0.03189,0.260754 -0.146319,0.114433 -0.03189,0.260753 0.114434,0.14632 0.08255,0.407073 -0.03189,0.260753 -0.178205,0.375187 -0.0891,0.187593 -0.06377,0.521506 0.02533,0.333914 -0.136931,0.578724 -0.0891,0.187594 0.02533,0.333913 0.114434,0.14632 0.04128,0.203537 -0.203537,0.04128 -0.324526,0.489621 -0.120988,0.448346 -0.136931,0.578722 0.05722,0.07316 -0.0891,0.187594 -0.01595,0.130377 -0.03189,0.260753 0.05722,0.07316 -0.03188,0.260753 -0.105046,0.317971 -0.162262,0.244811 -0.05722,-0.07316 -0.130377,-0.01594 -0.07316,0.05721 0.04128,0.203537 0.187594,0.0891 -0.03189,0.260753 -0.203537,0.04128 -0.146319,0.114434 -0.07316,0.05721 -0.267309,0.56278 -0.267308,0.56278 -0.486788,0.734431 -0.162262,0.244811 -0.178205,0.375187 0.04128,0.203536 -0.194148,0.505564 -0.308583,0.359244 -0.324526,0.48962 0.05722,0.07316 -0.235422,0.302028 -0.292639,0.228867 -0.365799,0.286084 -0.07316,0.05722 -0.308581,0.359244 -0.235423,0.302027 -0.674382,0.645328 -0.365798,0.286084 -0.528062,0.530896 -0.146319,0.114432 -0.235422,0.302026 0.114434,0.14632 -0.01595,0.130377 -0.05721,-0.07316 -0.349856,0.155707 -0.162262,0.24481 -0.454901,0.473678 -0.349856,0.155707 -0.496176,0.270141 -0.146319,0.114434 -0.203536,0.04128 -0.05722,-0.07316 -0.14632,0.114434 -0.0891,0.187592 -0.788814,0.499008 -0.699713,0.311415 -1.049569,0.467123 -0.423016,0.212924 -0.569335,0.327358 -0.203536,0.04128 -0.260753,-0.03189 -0.05722,-0.07316 -0.260753,-0.03188 -0.21948,0.17165 -0.276696,0.09849 -0.05722,-0.07316 -0.203537,0.04128 -0.21948,0.17165 -0.887306,0.222313 -0.553392,0.196981 -0.756929,0.238255 -0.146319,0.114433 -0.203537,0.04128 -0.114433,-0.146319 -0.333912,0.02533 -0.276697,0.09849 -0.333913,0.02533 -0.114434,-0.14632 -0.187594,-0.0891 -0.07316,0.05722 -0.203536,0.04128 -0.05721,-0.07316 -0.46429,0.0094 -0.407073,0.08255 -0.39113,-0.04783 -0.05722,-0.07316 -0.39113,-0.04783 -0.407073,0.08254 -0.46429,0.0094 -0.05721,-0.07316 -0.203536,0.04128 -0.0891,0.187593 -0.260754,-0.03188 -0.228866,-0.29264 -0.375187,-0.178206 -0.130376,-0.01595 -0.260753,-0.03189 -0.114434,-0.146319 -0.187593,-0.0891 -0.07316,0.05722 -0.130376,-0.01595 -0.05722,-0.07316 0.01594,-0.130376 0.07316,-0.05722 -0.130376,-0.01595 -0.276697,0.09849 -0.651884,-0.07972 -0.432403,-0.251365 -0.63594,-0.210091 -0.187594,-0.0891 -0.302028,-0.235423 -0.114433,-0.146319 -0.260753,-0.03188 -0.07316,0.05721 -0.130376,-0.01595 -0.05722,-0.07316 0.01595,-0.130377 0.07316,-0.05722 -0.05721,-0.07316 -0.07316,0.05722 -0.260753,-0.03188 -0.130377,-0.01595 -0.260753,-0.03189 -0.146321,0.114434 -0.432404,-0.251365 -0.212925,-0.423015 -0.286084,-0.365799 -0.07316,0.05721 -0.130377,-0.01595 -0.05721,-0.07316 -0.130378,-0.01595 -0.130376,-0.01595 -0.05722,-0.07316 -0.05721,-0.07316 -0.359244,-0.308581 -0.432404,-0.251366 -0.775705,-0.690324 -0.473677,-0.454902 -0.530895,-0.528062 -0.114434,-0.14632 -0.302027,-0.235423 -0.187594,-0.0891 -0.171651,-0.219479 0.01595,-0.130377 -0.327357,-0.569335 -0.400519,-0.512119 -0.457735,-0.585278 -0.05722,-0.07316 -0.196982,-0.553393 -0.228868,-0.292639 -0.155708,-0.349856 0.130377,0.01595 -0.09849,-0.276696 -0.228867,-0.29264 -0.327357,-0.569336 -0.09849,-0.276696 -0.139765,-0.480232 0.01594,-0.130377 0.03189,-0.260753 0.01595,-0.130377 -0.05722,-0.07316 -0.07316,0.05722 -0.130376,-0.01595 -0.05722,-0.07316 -0.04128,-0.203537 0.01594,-0.130377 -0.09849,-0.276696 -0.05721,-0.07316 0.03189,-0.260753 0.03188,-0.260753 -0.02533,-0.333914 -0.05722,-0.07316 0.0891,-0.187592 0.0891,-0.187594 -0.09849,-0.276697 -0.114434,-0.14632 0.04783,-0.39113 0.178205,-0.375187 0.07972,-0.651883 -0.09849,-0.276697 -0.05066,-0.667826 0.04783,-0.39113 0.06377,-0.521507 -0.05722,-0.07316 0.04782,-0.39113 0.178206,-0.375187 0.324526,-0.489621 0.219479,-0.17165 0.235422,-0.302027 0.01595,-0.130376 0.299193,-0.823534 0.356412,-0.750374 0.79537,-1.093675 0.381742,-0.41646 0.438959,-0.343301 0.07316,-0.05722 0.14632,-0.114434 0.146319,-0.114434 0.470844,-0.604054 0.308583,-0.359244 0.438959,-0.343302 0,0 0.292639,-0.228866 0.308583,-0.359244 0.365799,-0.286085 0.130377,0.01595 0.07316,-0.05722 -0.05721,-0.07316 0.01595,-0.130376 0.07316,-0.05722 0.130377,0.01594 0.05721,0.07316 0.960465,-0.279529 0.903249,-0.35269 1.106785,-0.393964 0.203536,-0.04128 0.260754,0.03188 0.05721,0.07316 0.333912,-0.02533 0.333913,-0.02533 0.391131,0.04782 0.05722,0.07316 0.537449,-0.06661 0.53745,-0.06661 0.594666,0.0065 0.114434,0.14632 0.187594,0.0891 0.130377,0.01594 0.937967,0.445514 0.750375,0.356411 0.864808,0.50273 0,0 0.130377,0.01595 0.07316,-0.05721 0.432403,0.251365 0.302028,0.235422 0.686603,0.877917 0.384575,0.642495 0.499008,0.788815 -0.03188,0.260753 0.08255,0.407073 0.17165,0.219479 0.327357,0.569335 0.155709,0.349856 0.20637,1.017682 0.05066,0.667827 -0.01311,1.189333 -0.07972,0.651884 -0.152876,0.7091 -0.07316,0.05721 -0.01594,0.130377 0.05721,0.07316 -0.01595,0.130376 l -0.07316,0.05722 0.114433,0.146319 -0.219478,0.17165 -0.05721,-0.07316 0.228867,0.292639 0.07316,-0.05722 0.05722,0.07316 0.365799,-0.286083 q 0.365798,-0.286084 0.308582,-0.359245 0.07316,-0.05721 0.162262,-0.24481 0.29264,-0.228867 0.438959,-0.343301 0.14632,-0.114434 0.356411,-0.750374 0.324525,-0.489621 0.226034,-0.766317 -0.04128,-0.203536 0.105046,-0.31797 0.21948,-0.17165 0.162262,-0.24481 -0.05721,-0.07316 0.01594,-0.130377 0.01595,-0.130377 0.0065,-0.594666 0.06377,-0.521507 0.210091,-0.63594 0.07316,-0.05722 -0.02533,-0.333914 -0.02533,-0.333913 -0.05066,-0.667826 0.04782,-0.39113 -0.02533,-0.333913 -0.07316,0.05722 -0.114434,-0.14632 -0.114432,-0.146319 -0.04128,-0.203536 0.07316,-0.05722 -0.08255,-0.407073 -0.155708,-0.349856 -0.327358,-0.569336 -0.09849,-0.276696 -0.02533,-0.333912 0.14632,-0.114434 -0.09849,-0.276697 -0.24481,-0.162262 -0.171651,-0.219479 0.07316,-0.05721 0.01595,-0.130377 -0.05721,-0.07316 -0.228868,-0.292639 -0.171651,-0.219479 -0.743819,-0.951077 -0.775705,-0.690324 -0.759762,-0.820701 0.07316,-0.05721 -0.04128,-0.203537 -0.187593,-0.0891 -0.260753,-0.03188 -0.07316,0.05722 -0.546838,-0.397685 -0.473678,-0.454901 -0.546837,-0.397685 -0.07316,0.05721 -0.244811,-0.162262 -0.171651,-0.21948 -0.24481,-0.162262 -0.07316,0.05721 -0.448347,-0.120989 -0.448347,-0.120989 -0.562781,-0.267309 -0.17165,-0.219479 -0.375187,-0.178205 -0.07316,0.05722 -0.448346,-0.120988 -0.31797,-0.105046 -0.39113,-0.04783 -0.07316,0.05722 -0.578723,-0.136931 -0.505565,-0.194149 -0.578724,-0.136931 -0.130376,-0.01595 -0.39113,-0.04783 -0.31797,-0.105045 -0.521507,-0.06377 -0.146319,0.114434 -0.203536,0.04128 -0.05722,-0.07316 -0.130377,-0.01594 -0.146319,0.114434 -0.260753,-0.03189 -0.05722,-0.07316 -0.203537,0.04128 -0.203536,0.04128 -0.276696,0.09849 -0.130376,-0.01595 -0.798202,0.03472 -0.667827,0.05066 -1.424755,0.288917 -0.610609,0.123822 -0.960465,0.279529 -0.29264,0.228868 -0.553393,0.196982 -0.07316,0.05721 -0.642495,0.384575 -0.569336,0.327358 -0.642496,0.384575 -0.260753,-0.03189 -0.626552,0.254198 l -0.423016,0.212925 -0.05721,-0.07316 q 0,0 -0.07316,0.05721 l 0.05722,0.07316 -0.07316,0.05722 q -0.0891,0.187594 -0.0891,0.187594 -0.07316,0.05721 -0.203536,0.04128 -0.203537,0.04128 -0.21948,0.17165 -0.01594,0.130377 -0.292639,0.228868 -0.276696,0.09849 -0.162263,0.24481 -0.01595,0.130377 -0.162262,0.244811 -0.203536,0.04128 -0.01595,0.130376 l 0.05721,0.07316 -0.203537,0.04128 q -0.146319,0.114434 -0.528061,0.530895 -0.454902,0.473678 -0.397685,0.546837 0.05721,0.07316 -0.162262,0.244811 -0.292639,0.228867 -0.235423,0.302027 0.05722,0.07316 -0.01594,0.130377 -0.07316,0.05721 -0.01595,0.130376 0.05722,0.07316 -0.01595,0.130377 -0.07316,0.05721 -0.130378,-0.01595 -0.130376,-0.01594 -0.381741,0.416461 -0.178205,0.375187 -0.194148,0.505563 0.05722,0.07316 -0.340468,0.619997 -0.413628,0.677215 -0.356411,0.750375 0.05721,0.07316 -0.210092,0.63594 -0.324525,0.489621 -0.283251,0.693158 0.09849,0.276696 -0.02249,0.725043 -0.251365,0.432403 -0.194149,0.505563 0.05722,0.07316 -0.04782,0.39113 -0.105046,0.31797 -0.136931,0.578723 -0.105046,0.317971 0.0094,0.46429 0.04128,0.203537 -0.03189,0.260753 -0.07316,0.05722 -0.01595,0.130377 0.05722,0.07316 -0.01594,0.130376 -0.14632,0.114434 -0.136932,0.578724 0.06661,0.53745 0.09194,0.871362 0.04128,0.203537 0.02533,0.333914 -0.14632,0.114434 -0.03188,0.260753 0.05721,0.07316 -0.01595,0.130376 -0.07316,0.05722 0.02533,0.333914 0.09849,0.276696 0.139765,0.480232 0.04128,0.203537 0.155708,0.349856 0.114433,0.14632 0.04128,0.203537 -0.07316,0.05722 -0.04782,0.39113 0.09849,0.276696 0.196981,0.553393 0.171651,0.219479 0.212925,0.423015 0.05721,0.07316 -0.01595,0.130377 -0.14632,0.114433 -0.03189,0.260753 0.17165,0.219479 0.212924,0.423016 0.09849,0.276696 0.0094,0.46429 -0.07316,0.05721 0.05722,0.07316 0.05722,0.07316 0.171651,0.219479 0.17165,0.219479 0.286083,0.365798 0.130377,0.01595 0.114434,0.146321 -0.0891,0.187593 0.02533,0.333912 0.114434,0.14632 0.187594,0.0891 0.07316,-0.05722 0.130377,0.01595 0.05721,0.07316 -0.01595,0.130376 -0.01595,0.130378 0.196982,0.553393 0.212924,0.423016 0.3433,0.438959 0.07316,-0.05722 0.04128,0.203536 0.04128,0.203537 -0.03189,0.260754 0.05721,0.07316 0.114434,0.146319 0.203537,-0.04128 1.119007,1.129283 0.915469,1.170557 1.201553,1.536355 0.489621,0.324526 0.546838,0.397686 0.130376,0.01595 0.05721,0.07316 0.05722,0.07316 0.114434,0.14632 0.05722,0.07316 0.187594,0.0891 0.07316,-0.05722 0.05721,0.07316 -0.01595,0.130376 0.130377,0.01595 0.203537,-0.04128 0.260753,0.03189 0.05721,0.07316 -0.01595,0.130376 -0.07316,0.05722 0.09849,0.276697 0.187594,0.0891 0.375187,0.178205 0.203537,-0.04128 0.546838,0.397686 0.286084,0.365799 0.432404,0.251365 0.219479,-0.171651 0.333913,-0.02533 0.114434,0.146319 0.04128,0.203536 -0.03188,0.260754 0.05722,0.07316 0.219479,-0.17165 0.391129,0.04783 0.155708,0.349856 0.473678,0.454902 0.244811,0.162263 0.317971,0.105046 0.07316,-0.05721 0.375187,0.178206 0.317969,0.105046 0.375187,0.178205 0.07316,-0.05722 0.146319,-0.114434 0.07316,-0.05721 0.130377,0.01595 0.05721,0.07316 -0.01595,0.130376 -0.07316,0.05722 0.05721,0.07316 0.05722,0.07316 0.187593,0.0891 0.07316,-0.05722 0.619997,0.340468 0.562781,0.267308 0.709101,0.152874 0.0891,-0.187593 0.219479,-0.17165 0.114434,0.146319 0.187593,0.0891 0.07316,-0.05722 0.114434,0.14632 0.04128,0.203536 0.187594,0.0891 0.130376,0.01595 0.260753,0.03188 0.114434,0.14632 0.187594,0.0891 0.07316,-0.05721 0.187593,0.0891 0.05721,0.07316 0.260753,0.03189 0.203537,-0.04128 0.912637,0.1116 0.839477,0.168817 0.912637,0.111601 0.260753,0.03189 0.276696,-0.09849 0.07316,-0.05722 0.187593,0.0891 0.04128,0.203536 0.114433,0.146319 0.146321,-0.114433 0.203537,-0.04128 0.05722,0.07316 0.333913,-0.02533 0.21948,-0.17165 0.333914,-0.02533 0.114434,0.14632 0.448346,0.120989 0.333913,-0.02533 0.46429,-0.0094 0.187594,0.0891 1.00174,-0.07599 0.798202,-0.03472 0.871362,-0.09194 0.146319,-0.114434 0.46429,-0.0094 0.391129,0.04783 0.683769,-0.181038 0.349855,-0.155707 0.407073,-0.08254 0.05722,0.07316 0.610609,-0.123822 0.610609,-0.123822 0.756928,-0.238256 0.276697,-0.09849 0.333914,-0.02533 0.05721,0.07316 0.349856,-0.155708 0.276696,-0.09849 0.553393,-0.196982 0.349856,-0.155707 1.122727,-0.524339 0.772872,-0.368632 1.122729,-0.52434 0.349855,-0.155707 0.407072,-0.08254 0.130377,0.01595 0.146319,-0.114434 0.01595,-0.130376 0.585279,-0.457734 0.642495,-0.384576 0.788815,-0.499009 0.203536,-0.04128 0.146319,-0.114433 -0.05721,-0.07316 0.235423,-0.302028 0.292638,-0.228868 0.423015,-0.212925 0.130377,0.01595 0.07316,-0.05721 0.07316,-0.05722 0.276696,-0.09849 0.333913,-0.02533 0.276697,-0.09849 -0.05722,-0.07316 0.178205,-0.375187 0.219479,-0.17165 0.96702,-0.874196 0.820701,-0.759761 0.967021,-0.874195 -0.04128,-0.203537 0.486787,-0.734431 0.601222,-0.588112 0.544004,-0.661272 0.01595,-0.130377 0.308583,-0.359244 0.162262,-0.24481 0.178205,-0.375187 -0.05722,-0.07316 0.01595,-0.130377 0.07316,-0.05722 0.130377,0.01594 0.187593,0.0891 0.130377,0.01595 0.01595,-0.130378 0.591833,-1.052401 0.50273,-0.864808 0.633106,-0.848865 0.07316,-0.05722 0.01595,-0.130377 -0.05722,-0.07316 -0.04128,-0.203537 0.07316,-0.05722 0.0891,-0.187593 -0.05722,-0.07316 0.267308,-0.56278 0.251365,-0.432405 0.712821,-1.500749 0.388298,-1.011127 0.347023,-1.214664 -0.05721,-0.07316 0.105046,-0.317969 0.162262,-0.24481 0.105046,-0.317971 -0.05722,-0.07316 0.136931,-0.578723 0.251365,-0.432403 0.210091,-0.63594 -0.04128,-0.203537 -0.0094,-0.46429 0.14632,-0.114434 0.235423,-0.302027 0.219479,-0.171651 -0.02533,-0.333913 -0.114434,-0.146319 0.120989,-0.448347 0.235422,-0.302027 0.105045,-0.317971 -0.130376,-0.01595 -0.05721,-0.07316 0.01595,-0.130376 -0.114434,-0.146319 -0.05721,-0.07316 0.146319,-0.114434 0.14632,-0.114434 0.03189,-0.260754 -0.05722,-0.07316 0.03189,-0.260753 0.162263,-0.244811 0.136932,-0.578723 0.03189,-0.260754 -0.0094,-0.46429 -0.114434,-0.14632 -0.09849,-0.276697 -0.05722,-0.07316 0.0891,-0.187593 0,0 -0.02533,-0.333913 -0.02533,-0.333913 0.04783,-0.39113 0.07316,-0.05721 -0.02533,-0.333913 -0.09849,-0.276696 -0.08255,-0.407072 0.01595,-0.130378 0.03188,-0.260754 -0.04128,-0.203536 0.04783,-0.39113 0.0891,-0.187593 -0.08254,-0.407073 -0.17165,-0.219479 -0.02533,-0.333913 0.07316,-0.05721 -0.02533,-0.333913 0.03188,-0.260753 0.04783,-0.39113 0.07316,-0.05722 0.01595,-0.130376 -0.04128,-0.203537 -0.114434,-0.14632 -0.05722,-0.07316 -0.04128,-0.203537 0.07316,-0.05722 -0.123821,-0.610609 -0.254199,-0.626552 -0.238256,-0.756929 0.07316,-0.05722 -0.0094,-0.464289 -0.08254,-0.407074 -0.0094,-0.46429 0.07316,-0.05721 -0.114434,-0.14632 -0.187594,-0.0891 -0.114433,-0.14632 0.07316,-0.05722 -0.165096,-0.814146 -0.295473,-0.830088 -0.483066,-0.91919 -0.05722,-0.07316 -0.08254,-0.407074 0.105046,-0.317969 -0.02533,-0.333912 -0.114433,-0.146321 -0.04128,-0.203537 -0.05722,-0.07316 -0.114434,-0.146319 -0.05722,-0.07316 -0.228868,-0.29264 -0.114433,-0.146319 -0.09849,-0.276696 0.01595,-0.130377 -0.08254,-0.407073 -0.17165,-0.219479 -0.212924,-0.423016 -0.05721,-0.07316 -0.187594,-0.0891 -0.07316,0.05722 0.01595,-0.130376 0.0891,-0.187594 0.01595,-0.130377 -0.07316,0.05722 -0.499009,-0.788815 -0.499008,-0.788814 -0.801035,-1.024236 -0.228868,-0.29264 -0.155708,-0.349856 0.07316,-0.05722 -0.04128,-0.203537 -0.114434,-0.14632 -0.343301,-0.438959 -0.155708,-0.349856 -0.400518,-0.512119 -0.114434,-0.146319 -0.400518,-0.512118 -0.343301,-0.438959 -0.572169,-0.731597 -0.228867,-0.29264 -0.302026,-0.235423 -0.130378,-0.01595 -0.759763,-0.820701 -0.572168,-0.731598 -1.306599,-1.218386 -0.661272,-0.544004 -0.645329,-0.67438 -0.05721,-0.07316 -0.24481,-0.162263 -0.244811,-0.162262 -0.416461,-0.381742 -0.114434,-0.146319 -0.187594,-0.0891 -0.07316,0.05721 -0.24481,-0.162262 -0.24481,-0.162262 -0.31797,-0.105046 -0.05721,-0.07316 -0.171651,-0.219479 -0.114434,-0.14632 -0.187593,-0.0891 -0.07316,0.05721 -0.187594,-0.0891 -0.114433,-0.146321 -0.302026,-0.235423 -0.130378,-0.01595 -0.302028,-0.235422 -0.17165,-0.219479 -0.24481,-0.162263 -0.130377,-0.01595 -0.448347,-0.120989 -0.171651,-0.219479 -0.228868,-0.292638 -0.114433,-0.14632 -0.187593,-0.0891 -0.130377,-0.01595 -0.31797,-0.105046 -0.114434,-0.146319 -0.244811,-0.162262 -0.146319,0.114434 -0.260753,-0.03189 -0.17165,-0.219478 -0.375187,-0.178205 -0.260753,-0.03188 -0.677214,-0.413628 -0.416461,-0.381742 -0.619998,-0.340468 -0.219479,0.171651 -0.276696,0.09849 -0.05722,-0.07316 0.01595,-0.130377 0.01595,-0.130376 -0.114434,-0.146319 -0.260753,-0.03188 -0.333913,0.02533 -0.07316,0.05721 -0.317969,-0.105046 -0.187594,-0.0891 -0.317971,-0.105046 -0.130376,-0.01595 -0.187593,-0.0891 -0.05721,-0.07316 -0.187594,-0.0891 -0.07316,0.05722 -0.448347,-0.120988 -0.302027,-0.235422 -0.375187,-0.178206 -0.07316,0.05721 -0.839477,-0.168817 -0.63594,-0.210091 -0.766316,-0.226034 -0.07316,0.05721 -0.333913,0.02533 -0.244811,-0.162264 -0.317971,-0.105046 -0.07316,0.05722 -0.187593,-0.0891 -0.114434,-0.14632 -0.24481,-0.162262 -0.07316,0.05722 -0.130377,-0.01594 -0.114434,-0.14632 -0.260753,-0.03189 -0.0891,0.187594 -0.07316,0.05722 -0.114434,-0.14632 -0.260753,-0.03189 -0.203537,0.04128 -0.521507,-0.06377 -0.302027,-0.235422 -0.63594,-0.210092 -0.46429,0.0094 -0.521507,-0.06377 -0.05722,-0.07316 -0.260753,-0.03189 -0.14632,0.114433 -0.203537,0.04128 0.01595,-0.130377 -0.187594,-0.0891 -0.276695,0.09849 -1.058955,0.0028 -0.78226,-0.09566 -0.92858,0.01877 -0.203536,0.04128 -0.260753,-0.03189 -0.05721,-0.07316 -0.39113,-0.04782 -0.276696,0.09849 -0.480233,0.139764 -0.146319,0.114434 -0.407072,0.08255 -0.244811,-0.162263 -0.39113,-0.04783 -0.130377,-0.01595 -0.260753,-0.03189 -0.05722,-0.07316 -0.333914,0.02533 -0.203536,0.04128 -0.480232,0.139765 -0.276697,0.09849 -0.407074,0.08255 -0.187593,-0.0891 -0.317969,-0.105046 -0.130377,-0.01595 -0.480233,0.139765 -0.423016,0.212925 -0.407073,0.08255 -0.05722,-0.07316 -0.276696,0.09849 -0.276696,0.09849 -0.333914,0.02533 -0.187592,-0.0891 -1.017681,0.206369 -0.75693,0.238255 -0.814146,0.165096 -0.130377,-0.01595 -0.276696,0.09849 -0.07316,0.05722 -1.529801,0.606888 -1.456641,0.549671 -1.529801,0.606888 -0.01595,0.130376 -0.07316,0.05721 -0.05722,-0.07316 -0.407073,0.08255 -0.333913,0.02533 -0.626552,0.254198 -0.219479,0.171652 -0.861975,0.556227 -0.642495,0.384574 -1.195888,0.581556 -0.423015,0.212924 -0.438958,0.343301 0.114434,0.14632 0.04128,0.203536 -0.07316,0.05722 -0.187593,-0.0891 -0.114434,-0.146319 -0.480234,0.139765 -0.365798,0.286085 -0.658437,0.514953 -0.21948,0.17165 -0.438959,0.3433 -0.14632,0.114434 -0.21948,0.171651 -0.07316,0.05721 -0.877917,0.686603 -0.804758,0.629385 -1.024237,0.801035 -0.162262,0.24481 -0.105046,0.317971 0.04128,0.203535 -0.03189,0.260753 -0.07316,0.05721 -0.203536,0.04128 -0.130377,-0.01595 -0.203536,0.04128 -0.14632,0.114434 -0.203537,0.04128 -0.05721,-0.07316 -0.07316,0.05722 0.05722,0.07316 -0.162262,0.24481 -0.21948,0.171651 -0.235423,0.302028 0.05722,0.07316 -0.07316,0.05721 -0.130376,-0.01595 -0.276696,0.09849 -0.146319,0.114434 -0.0891,0.187594 0.05722,0.07316 -0.324524,0.489621 -0.454902,0.473678 -0.674381,0.645328 -0.14632,0.114434 -0.235423,0.302028 -0.0891,0.187593 -0.219479,0.17165 -0.130377,-0.01595 -0.07316,0.05721 -0.01595,0.130377 -0.105046,0.317971 -0.0891,0.187594 -0.162263,0.24481 -0.07316,0.05721 -0.235423,0.302028 -0.0891,0.187593 -0.381741,0.41646 -0.235422,0.302027 -0.235422,0.302027 -0.14632,0.114434 -0.0891,0.187594 0.114433,0.146319 -0.324526,0.489621 -0.381741,0.41646 -0.559946,0.791648 -0.162263,0.24481 -0.178206,0.375187 -0.14632,0.114434 -0.0891,0.187593 0.05721,0.07316 -0.0891,0.187594 -0.146321,0.114434 -0.0891,0.187593 0.05721,0.07316 -0.324525,0.48962 -0.397685,0.546838 -0.340469,0.619999 0.05722,0.07316 -0.162262,0.24481 -0.235422,0.302027 -0.105045,0.317969 0.114433,0.14632 -0.283251,0.693158 -0.470845,0.604054 -0.283252,0.693157 0.130377,0.01595 -0.105046,0.31797 -0.235422,0.302027 -0.35641,0.750375 -0.105046,0.317969 -0.120989,0.448346 -0.07316,0.05721 -0.01595,0.130376 0.05722,0.07316 -0.178206,0.375187 -0.178205,0.375188 -0.105044,0.317971 0,0 -0.04783,0.391129 -0.105046,0.317971 -0.194149,0.505565 -0.235422,0.302026 -0.178204,0.375187 0.05721,0.07316 -0.178206,0.375187 -0.105046,0.317969 -0.04782,0.391129 0.05722,0.07316 -0.07972,0.651883 -0.210091,0.635941 -0.152874,0.7091 0.05722,0.07316 -0.01594,0.130377 -0.01594,0.130376 -0.03188,0.260754 0.04128,0.203536 -0.105045,0.317969 -0.0891,0.187594 -0.152875,0.709101 -0.120989,0.448347 -0.136931,0.578723 -0.07316,0.05722 0.114433,0.14632 0.114434,0.146319 -0.06377,0.521506 -0.235422,0.302028 -0.120988,0.448347 0,0 -0.01595,0.130376 -0.14632,0.114434 -0.0891,0.187594 0.114434,0.14632 0.04128,0.203537 -0.07316,0.05722 -0.03188,0.260753 0.04128,0.203536 0.0094,0.46429 0.04128,0.203536 0.02533,0.333912 -0.03189,0.260755 -0.120989,0.448348 -0.0891,0.187593 -0.03188,0.260753 0.187594,0.0891 0.06661,0.53745 -0.136932,0.578723 -0.02249,0.725043 0.05722,0.07316 0.04128,0.203535 -0.07316,0.05722 0.04128,0.203537 0.04128,0.203537 -0.04782,0.39113 -0.01595,0.130377 0.04128,0.203537 0.114434,0.146319 0.04128,0.203536 -0.07316,0.05722 0.04128,0.203537 0.05721,0.07316 -0.04783,0.39113 -0.105046,0.317969 -0.04782,0.391129 0.114434,0.14632 0.04128,0.203537 -0.01595,0.130377 0.0094,0.46429 0.155707,0.349856 0.08255,0.407072 0.05722,0.07316 0.08255,0.407073 -0.03188,0.260754 0.08255,0.407073 0.02533,0.333914 0.123822,0.61061 0.04128,0.203536 0.02533,0.333913 -0.01595,0.130377 0.0094,0.46429 0.17165,0.219478 0.270141,0.496175 0.09849,0.276696 -0.04782,0.39113 -0.07316,0.05721 0.04128,0.203537 0.05722,0.07316 0.130377,0.01594 0.07316,-0.05721 0.130377,0.01595 0.05722,0.07316 0.04128,0.203537 -0.0891,0.187593 -0.03188,0.260753 -0.07316,0.05722 0.0094,0.46429 0.09849,0.276696 0.212924,0.423015 0.05722,0.07316 0.04128,0.203537 -0.01594,0.130377 0.155707,0.349856 0.171651,0.21948 0.09849,0.276696 -0.07316,0.05721 0.04128,0.203537 0.05722,0.07316 -0.0891,0.187594 -0.07316,0.05721 0.254198,0.626552 0.343302,0.438958 0.270141,0.496175 -0.01594,0.130377 0.155708,0.349856 0.171651,0.21948 0.155708,0.349856 -0.07316,0.05722 0.06661,0.537449 0.212924,0.423017 0.343301,0.438959 0.07316,-0.05721 0.441792,0.715655 0.295472,0.830089 0.352688,0.903249 -0.07316,0.05722 0.09849,0.276696 0.171652,0.21948 0.155708,0.349856 0.114434,0.14632 0.67066,1.008294 0.499008,0.788815 0.597499,1.065511 0.09849,0.276697 0.17165,0.21948 0.130377,0.01595 0.457736,0.585278 0.270141,0.496175 1.25877,1.609516 1.045847,1.186499 1.103063,1.259659 0.05722,0.07316 0.114434,0.146319 -0.03189,0.260754 0.228867,0.29264 0.05722,0.07316 0.416462,0.381741 0.359243,0.308583 0.645328,0.674382 0.286084,0.365799 0.530894,0.528061 0.302028,0.235422 1.077733,0.925746 0.775704,0.690324 0.890138,0.836644 0.260754,0.03188 0.432404,0.251365 0.317971,0.105046 0.432405,0.251365 0.17165,0.21948 0.604054,0.470845 0.375187,0.178206 0.489621,0.324525 0.17165,0.219479 0.302026,0.235422 0.07316,-0.05722 0.260753,0.03189 0.244811,0.162262 0.416462,0.381741 0.17165,0.21948 0.24481,0.162263 0.07316,-0.05722 0.130377,0.01595 0.04128,0.203537 0.114434,0.146321 0.07316,-0.05722 0.375187,0.178205 0.432403,0.251365 0.864807,0.50273 0.375187,0.178206 0.562781,0.267309 0.187593,0.0891 0.187593,0.0891 0.130376,0.01595 0.375187,0.178206 0.228867,0.292638 0.302027,0.235422 0.07316,-0.05722 0.244811,0.162262 0.24481,0.162263 0.448347,0.120989 0.146319,-0.114434 0.317969,0.105045 0.244811,0.162264 0.359245,0.308583 0.260753,0.03189 0.391129,0.04783 0.07316,-0.05721 0.187594,0.0891 0.187593,0.0891 0.260753,0.03189 0.07316,-0.05722 0.187594,0.0891 0.114434,0.146319 0.187593,0.0891 0.07316,-0.05722 0.260753,0.03188 0.114434,0.14632 0.171651,0.21948 0.130377,0.01595 0.05722,0.07316 -0.07316,0.05722 0.05722,0.07316 0.14632,-0.114433 0.203536,-0.04128 0.05721,0.07316 0.187594,0.0891 0.07316,-0.05722 0.114434,0.146319 0.05721,0.07316 0.07316,-0.05722 0,0 0.07316,-0.05722 0.01595,-0.130376 0.130377,0.01595 0.24481,0.162262 0.375186,0.178206 0.05722,0.07316 0.130377,0.01595 0.07316,-0.05722 0.187594,0.0891 0.05721,0.07316 0.17165,0.219479 0.130377,0.01595 0.260754,0.03189 0.203536,-0.04128 0.725043,0.02249 0.578723,0.136932 0.953911,0.315138 0.505563,0.194147 0.651883,0.07971 0.203536,-0.04128 0.260753,0.03188 0.04128,0.203536 0.375187,0.178205 0.391129,0.04783 0.578723,0.136931 0.244811,0.162264 0.505564,0.194149 0.260753,0.03189 0.407073,-0.08255 0.07316,-0.05721 0.05722,0.07316 0.05721,0.07316 0.187594,0.0891 0.130376,0.01595 0.725043,0.02249 0.464289,-0.0094 0.521506,0.06377 0.114434,0.14632 0.260753,0.03188 0.130376,0.01595 0.187594,0.0891 0.05721,0.07316 0.203536,-0.04128 0.07316,-0.05722 0.130377,0.01595 0.114434,0.14632 0.187593,0.0891 0.05721,0.07316 0.260753,0.03188 0.187594,0.0891 0.407074,-0.08255 0.260753,0.03189 0.187593,0.0891 -0.01595,0.130377 0.114433,0.14632 0.05722,0.07316 0.480233,-0.139764 0.480233,-0.139766 0.521507,0.06377 0.04128,0.203537 0.260753,0.03188 0.21948,-0.17165 0.798203,-0.03472 0.578723,0.136931 0.725043,0.02249 0.0891,-0.187593 0.14632,-0.114433 0.114434,0.14632 0.260753,0.03189 0.146319,-0.114434 0.333913,-0.02533 0.187593,0.0891 0.260753,0.03189 0.14632,-0.114434 0.203536,-0.04128 0.05722,0.07316 0.130378,0.01595 0.07316,-0.05722 0.130376,0.01595 -0.01595,0.130376 0.46429,-0.0094 0.496176,-0.270141 0.610609,-0.123822 0.04128,0.203537 0.130377,0.01595 0.146319,-0.114434 0.260753,0.03188 0.05722,0.07316 0.276696,-0.09849 0.146319,-0.114433 0.203537,-0.04128 0.05721,0.07316 0.260753,0.03188 0.260753,0.03189 0.349856,-0.155708 0.219479,-0.17165 0.333913,-0.02533 0.05722,0.07316 0.187593,0.0891 0,0 1.148059,-0.190426 1.090842,-0.263586 1.440698,-0.419295 0.276696,-0.09849 0.333914,-0.02533 0.05721,0.07316 0.333913,-0.02533 0.349855,-0.155708 0.626552,-0.254199 0.276696,-0.09849 0.333913,-0.02533 0.05722,0.07316 0.699711,-0.311415 0.642496,-0.384575 0.699713,-0.311415 0.130376,0.01594 0.610609,-0.123822 0.349856,-0.155708 0.407073,-0.08254 0.05722,0.07316 0.407073,-0.08254 0.29264,-0.228867 0.438959,-0.343301 0.130376,0.01595 0.187593,0.0891 0.05721,0.07316 0.349856,-0.155707 0.219479,-0.17165 0.349856,-0.155707 0.187594,0.0891 0.626553,-0.254199 0.438958,-0.343301 0.788814,-0.499008 0.349856,-0.155709 0.407074,-0.08255 0.130376,0.01595 0.146319,-0.114433 0.01595,-0.130377 0.292639,-0.228868 0.292639,-0.228867 0.349856,-0.155707 0.05721,0.07316 0.423016,-0.212925 0.365799,-0.286084 0.496176,-0.270141 0.130376,0.01595 0.07316,-0.05722 0.07316,-0.05722 0.585277,-0.457736 0.626553,-0.254198 0.642496,-0.384574 -0.05722,-0.07316 0.07316,-0.05722 0.05722,0.07316 0.349856,-0.155707 0.276697,-0.09849 0.715655,-0.441793 0.423016,-0.212923 0.642496,-0.384574 0.146319,-0.114434 0.512118,-0.400518 0.365799,-0.286084 0.365799,-0.286084 0.01595,-0.130378 1.25966,-1.103063 1.113339,-0.988631 1.186499,-1.045847 0.07316,-0.05722 0.528061,-0.530894 0.454902,-0.473678 0.893861,-0.816979 0.365799,-0.286084 0.528061,-0.530896 0.162264,-0.24481 0.633108,-0.848864 0.470845,-0.604055 0.544004,-0.661271 0.146319,-0.114434 0.763484,-0.832922 0.544004,-0.661271 0.706267,-0.906081 0.0891,-0.187594 0.178205,-0.375187 0.14632,-0.114434 0.0891,-0.187594 -0.05721,-0.07316 0.235422,-0.302027 0.162263,-0.24481 0.779428,-0.963298 0.50273,-0.864809 0.633106,-0.848865 0.07316,-0.05722 0.01595,-0.130377 -0.114434,-0.14632 0.283252,-0.693157 0.324524,-0.489621 0.267308,-0.562781 -0.05722,-0.07316 0.413627,-0.677215 0.486787,-0.734431 0.429571,-0.80759 -0.05722,-0.07316 0.105046,-0.31797 0.292639,-0.228868 0.235422,-0.302027 -0.130376,-0.01595 0.03189,-0.260753 0.162263,-0.244812 0.105045,-0.317971 -0.05721,-0.07316 0.105046,-0.31797 0.0891,-0.187593 0.413628,-0.677214 0.251366,-0.432404 0.120989,-0.448347 -0.05722,-0.07316 0.178205,-0.375187 0.235422,-0.302028 0.120989,-0.448347 0.01595,-0.130376 0.146319,-0.114434 0.14632,-0.114433 0.03189,-0.260753 -0.05722,-0.07316 0.105046,-0.31797 0.21948,-0.17165 0.105046,-0.31797 -0.04128,-0.203537 0.21009,-0.635941 0.235423,-0.302027 0.120989,-0.448346 -0.04128,-0.203537 0.04783,-0.391131 0.21948,-0.17165 0.162263,-0.24481 0.01595,-0.130376 0.14632,-0.114434 0.146319,-0.114432 0.105045,-0.317969 -0.09849,-0.276696 0.06377,-0.521506 0.162262,-0.244812 0.194149,-0.505565 -0.04128,-0.203536 0.136931,-0.578723 0.178205,-0.375187 0.105046,-0.31797 -0.05722,-0.07316 -0.187594,-0.0891 0,0 0.194148,-0.505563 0.178205,-0.375187 0.120989,-0.448348 -0.114434,-0.146319 0.04782,-0.391129 0.162263,-0.244811 0.178206,-0.375187 -0.05721,-0.07316 0.01595,-0.130377 0.07316,-0.05721 -0.04128,-0.203536 -0.05722,-0.07316 0.105046,-0.317971 0.03189,-0.260753 -0.0094,-0.464289 -0.05721,-0.07316 0.03189,-0.260754 0.01595,-0.130376 0.03188,-0.260753 -0.05721,-0.07316 -0.04128,-0.203537 0.0891,-0.187593 0.178206,-0.375187 0.105044,-0.317969 -0.0094,-0.464289 0.01595,-0.130377 0.07316,-0.05721 0.05722,0.07316 0.03189,-0.260753 -0.09849,-0.276696 -0.02533,-0.333913 0.14632,-0.114434 0.04783,-0.39113 -0.04128,-0.203537 0.03189,-0.260753 0.07316,-0.05722 0.01594,-0.130377 -0.05722,-0.07316 0.0891,-0.187594 0.0891,-0.187593 -0.0094,-0.46429 -0.04128,-0.203536 -0.02533,-0.333913 0.07316,-0.05722 -0.02533,-0.333912 -0.04128,-0.203537 0.03189,-0.260754 0.07316,-0.05722 0.01595,-0.130377 -0.05722,-0.07316 -0.0094,-0.46429 0.04783,-0.391129 0.0065,-0.594665 -0.05722,-0.07316 0.03188,-0.260754 0.07316,-0.05722 -0.02533,-0.333913 -0.09849,-0.276696 0.0065,-0.594666 0.04783,-0.391131 -0.05066,-0.667827 -0.08254,-0.407072 -0.0094,-0.464289 0.07316,-0.05722 -0.08254,-0.407073 -0.139765,-0.480233 -0.05066,-0.667826 0.146319,-0.114434 0.03189,-0.260754 -0.04128,-0.203536 0.03188,-0.260753 0.07316,-0.05721 -0.02533,-0.333913 -0.17165,-0.21948 -0.08254,-0.407073 0.07316,-0.05721 -0.02533,-0.333913 -0.155707,-0.349856 -0.196981,-0.553393 -0.04128,-0.203535 -0.114433,-0.146319 -0.07316,0.05721 0.01595,-0.130377 0.14632,-0.114433 0.0891,-0.187594 -0.05722,-0.07316 0.01595,-0.130376 0.07316,-0.05722 -0.02533,-0.333912 -0.155708,-0.349856 -0.196982,-0.553393 -0.155707,-0.349856 -0.06661,-0.53745 0.01594,-0.130377 -0.09849,-0.276696 -0.114434,-0.146319 -0.04128,-0.203537 0.07316,-0.05721 0.01595,-0.130376 -0.05721,-0.07316 0.01595,-0.130377 0.01595,-0.130377 -0.181039,-0.683768 -0.181038,-0.68377 -0.35269,-0.903249 -0.09849,-0.276696 -0.295471,-0.830089 0.0065,-0.594666 -0.05066,-0.667827 -0.114434,-0.146319 -0.04128,-0.203535 0.07316,-0.05722 -0.05722,-0.07316 -0.07316,0.05722 -0.187594,-0.0891 -0.09849,-0.276695 0.04783,-0.391129 0.03189,-0.260753 -0.04128,-0.203537 -0.07316,0.05722 -0.483066,-0.919191 -0.336746,-1.033625 -0.263587,-1.090842 0.01595,-0.130377 -0.3433,-0.438959 -0.343301,-0.438959 -0.196982,-0.553392 0.07316,-0.05722 -0.311416,-0.699713 -0.327357,-0.569334 -0.311414,-0.699711 0.07316,-0.05721 -0.384575,-0.642496 -0.311416,-0.699712 -0.76915,-1.28499 -0.368632,-0.772872 -0.769151,-1.28499 -0.196981,-0.553393 -0.76915,-1.28499 -0.499008,-0.788815 -0.686602,-0.877918 -0.228867,-0.292639 -0.155708,-0.349857 0.07316,-0.05721 -0.17165,-0.219478 -0.24481,-0.162263 -0.171651,-0.21948 0.07316,-0.05721 -0.228867,-0.292639 -0.359245,-0.308582 -0.286084,-0.365799 0.01595,-0.130377 -0.05722,-0.07316 -0.07316,0.05722 -0.130376,-0.01595 -0.05722,-0.07316 0.01595,-0.130377 0.07316,-0.05722 -0.171651,-0.219479 -0.24481,-0.162262 -0.858253,-1.097397 -0.686601,-0.877917 -0.759761,-0.820701 -0.07316,0.05722 -0.302027,-0.235422 -0.171651,-0.219479 -0.24481,-0.162262 -0.07316,0.05722 -0.702546,-0.747541 -0.759763,-0.8207 -0.874195,-0.967021 -0.05722,-0.07316 -0.546838,-0.397684 -0.343302,-0.438959 -0.661271,-0.544004 -0.302028,-0.235422 -1.265327,-1.014849 -0.890138,-0.836644 -1.020514,-0.852587 -0.130377,-0.01594 -0.302028,-0.235422 -0.17165,-0.21948 -0.244811,-0.162263 -0.07316,0.05722 -0.187592,-0.0891 -0.171652,-0.21948 -0.546839,-0.397686 -0.228867,-0.292638 -0.604054,-0.470844 -0.375187,-0.178205 -0.41646,-0.381742 -0.114434,-0.146319 -0.317971,-0.105046 -0.130377,-0.01594 -0.375187,-0.178205 -0.228867,-0.292639 -0.302027,-0.235422 -0.14632,0.114433 -0.203536,0.04128 -0.05722,-0.07316 0.01595,-0.130377 0.01594,-0.130376 -0.302027,-0.235422 -0.244811,-0.162263 -0.375187,-0.178206 -0.203536,0.04128 -0.187593,-0.0891 -0.114434,-0.14632 -0.187594,-0.0891 -0.07316,0.05721 -0.31797,-0.105046 -0.24481,-0.162263 -0.432404,-0.251365 -0.05722,-0.07316 0.01595,-0.130377 0.01595,-0.130376 -0.05721,-0.07316 -0.07316,0.05722 -0.130377,-0.01594 -0.05722,-0.07316 -0.203537,0.04128 -0.07316,0.05721 -0.31797,-0.105046 -0.17165,-0.219479 -0.302027,-0.235422 -0.07316,0.05722 -0.187594,-0.0891 -0.130376,-0.01595 -0.114434,-0.14632 -0.05721,-0.07316 -0.432403,-0.251365 -0.448347,-0.120989 -0.578724,-0.136932 -0.05721,-0.07316 -0.24481,-0.162262 -0.187594,-0.0891 -0.31797,-0.105046 -0.07316,0.05722 -0.56278,-0.267309 -0.489621,-0.324524 -0.562781,-0.267307 -0.07316,0.05721 -0.562781,-0.267308 -0.56278,-0.267308 -0.63594,-0.210092 -0.146319,0.114434 -0.521506,-0.06377 -0.359244,-0.308581 -0.677215,-0.413627 -0.31797,-0.105046 -0.39113,-0.04783 -0.07316,0.05722 -0.260753,-0.03188 -0.114433,-0.14632 -0.187594,-0.0891 -0.07316,0.05721 -0.260753,-0.03189 -0.187594,-0.0891 -0.432404,-0.251365 -0.24481,-0.162262 -0.448346,-0.120988 -0.260753,-0.03189 -0.505565,-0.194149 -0.24481,-0.162262 -0.391129,-0.04782 -0.21948,0.17165 -0.333914,0.02533 -0.187592,-0.0891 -0.302026,-0.235422 -0.187594,-0.0891 -0.782261,-0.09566 -0.464288,0.0094 -0.578722,-0.136931 -0.187594,-0.0891 -0.46429,0.0094 -0.260753,-0.03189 -0.317971,-0.105046 -0.114433,-0.146319 -0.187593,-0.0891 -0.130377,-0.01594 -0.260754,-0.03189 -0.05722,-0.07316 -0.130376,-0.01595 -0.14632,0.114434 -0.203536,0.04128 -0.114434,-0.146319 -0.260754,-0.03189 -0.203536,0.04128 -0.260753,-0.03189 -0.05722,-0.07316 -0.04128,-0.203535 0.07316,-0.05722 -0.07316,0.05721 -0.203536,0.04128 -0.260753,-0.03189 -0.114434,-0.14632 -0.39113,-0.04783 -0.276696,0.09849 -0.260753,-0.03189 -0.05721,-0.07316 -0.130376,-0.01594 -0.07316,0.05721 -0.130377,-0.01595 -0.05721,-0.07316 -0.130378,-0.01595 -0.07316,0.05722 -0.130376,-0.01594 -0.05722,-0.07316 -0.130377,-0.01595 -0.07316,0.05722 -0.187593,-0.0891 -0.05721,-0.07316 -0.260753,-0.03188 -0.07316,0.05721 -0.333913,0.02533 -0.203537,0.04128 -0.260753,-0.03189 -0.114434,-0.146319 -0.187594,-0.0891 -0.07316,0.05722 -0.130377,-0.01595 -0.05721,-0.07316 -0.46429,0.0094 -0.333913,0.02533 -0.464289,0.0094 -0.05722,-0.07316 -0.14632,0.114434 -0.07316,0.05722 -0.31797,-0.105046 -0.244811,-0.162263 -0.448346,-0.120988 -0.146321,0.114434 -0.276697,0.09849 -0.203536,0.04128 -0.260753,-0.03189 -0.05722,-0.07316 -0.203537,0.04128 -0.14632,0.114433 -0.260753,-0.03189 -0.187593,-0.0891 -0.333913,0.02533 -0.203536,0.04128 -0.260754,-0.03189 -0.05721,-0.07316 -0.130376,-0.01595 -0.14632,0.114433 -0.203536,0.04128 -0.114434,-0.146319 -0.521507,-0.06377 -0.46429,0.0094 -0.594667,-0.0065 -0.260753,-0.03188 -0.407072,0.08255 -0.260753,-0.03189 -0.276696,0.09849 -0.07316,0.05721 -0.130378,-0.01595 -0.05721,-0.07316 -0.130376,-0.01595 -0.07316,0.05722 -0.130377,-0.01595 -0.114434,-0.14632 -0.391129,-0.04783 -0.349857,0.155707 -0.407073,0.08255 -0.05721,-0.07316 -0.391131,-0.04783 -0.276696,0.09849 -0.407072,0.08255 -0.114434,-0.14632 -0.39113,-0.04782 -0.203537,0.04128 -0.162263,0.244811 0.05722,0.07316 -0.01595,0.130376 -0.07316,0.05722 -0.260753,-0.03189 -0.17165,-0.219479 -0.651883,-0.07971 -0.594666,-0.0065 -0.594666,-0.0065 -0.130377,-0.01595 -0.14632,0.114434 -0.14632,0.114434 -0.203536,0.04128 -0.130377,-0.01595 -0.53745,0.06661 -0.292639,0.228867 -0.480233,0.139765 -0.260753,-0.03189 -0.46429,0.0094 -0.203535,0.04128 -0.219479,0.171652 -0.07316,0.05722 -0.130377,-0.01594 -0.04128,-0.203537 -0.260753,-0.03189 -0.349856,0.155709 -0.480233,0.139765 -0.187593,-0.0891 -0.391129,-0.04782 -0.203537,0.04128 -0.14632,0.114434 0.05722,0.07316 -0.01594,0.130377 -0.07316,0.05721 -0.130378,-0.01595 -0.05722,-0.07316 -0.276696,0.09849 -0.276696,0.09849 -0.333913,0.02533 -0.187593,-0.0891 -0.480233,0.139764 -0.407072,0.08254 -0.423015,0.212925 -0.07316,0.05721 -0.203537,0.04128 0,0 -0.260753,-0.03189 -0.146319,0.114434 -0.29264,0.228868 -0.146319,0.114433 -0.260753,-0.03189 -0.114434,-0.146319 -0.667825,0.05066 -0.480233,0.139764 -0.496176,0.270141 -0.14632,0.114434 -0.53745,0.06661 -0.448347,-0.120988 -0.782259,-0.09566 -0.333914,0.02533 -0.53745,0.06661 -0.07316,0.05721 -0.130377,-0.01595 -0.05721,-0.07316 -0.130376,-0.01594 -0.07316,0.05722 -0.432405,-0.251366 -0.375187,-0.178205 -0.505563,-0.194148 -0.130377,-0.01595 -0.734431,-0.486787 -0.604055,-0.470845 -0.832922,-0.763484 -0.17165,-0.21948 -0.556225,-0.861975 -0.384575,-0.642494 -0.441793,-0.715655 -0.114433,-0.146319 -0.04128,-0.203536 0.130376,0.01595 0.152874,-0.7091014 -0.107879,-0.7409855 -0.0028,-1.0589557 0.03188,-0.2607532 0.04783,-0.3911299 0.01594,-0.1303766 -0.04128,-0.2035364 -0.05722,-0.07316 0.0891,-0.1875935 0.0891,-0.1875935 0.251365,-0.4324038 0.0891,-0.1875936 0.105045,-0.3179702 0,0 0.162264,-0.2448104 0.219478,-0.1716505 0.308581,-0.3592441 0.0891,-0.1875934 0.105046,-0.3179701 z m 6.56755,-2.3065617 q 0,0 -0.05722,-0.07316 -0.05722,-0.07316 0.05722,0.07316 z m 25.115752,0.7555383 q -0.05721,-0.07316 -0.05721,-0.07316 z M 25.011258,34.868623 q -0.05722,-0.07316 -0.05722,-0.07316 z m -4.24699,4.9722 q -0.05721,-0.07316 -0.05721,-0.07316 0.07316,-0.05721 0.07316,-0.05721 0.05722,0.07316 -0.01595,0.130376 z m 34.684631,-9.322072 q 0,0 -0.05721,-0.07316 0.07316,-0.05721 0.130377,0.01594 z m -36.30553,55.041057 q 0,0 0.07316,-0.05721 0.07316,-0.05722 -0.07316,0.05721 z m 13.521452,-9.395786 q 0.07316,-0.05722 0.07316,-0.05722 z m -2.857843,6.597659 q 0.07316,-0.05722 0.07316,-0.05722 0.05721,0.07316 0.05721,0.07316 -0.07316,0.05722 -0.130377,-0.01595 z M 56.398702,62.790165 q 0.07316,-0.05721 0.07316,-0.05721 z m 36.49946,-16.047273 q 0,0 -0.05722,-0.07316 0.07316,-0.05722 0.130376,0.01594 z M 82.513361,62.410755 q 0.07316,-0.05722 0.07316,-0.05722 z m -22.99645,24.116293 q 0,0 0.07316,-0.05721 0.07316,-0.05722 -0.07316,0.05721 z M 84.60061,78.346647 q 0.07316,-0.05721 0.130377,0.01595 0.05721,0.07316 -0.01594,0.130376 -0.07316,0.05722 -0.130377,-0.01595 -0.05722,-0.07316 0.01595,-0.130376 z"
     fill="#201b18"
     stroke="#201b18"
     id="path4"
     style="fill:#ffffff;fill-opacity:1;stroke:#ffffff;stroke-width:0.1;stroke-dasharray:none;stroke-opacity:1" />
</svg>
