<svg
  xmlns="http://www.w3.org/2000/svg"
  viewBox="0 0 100 100"
  height="1"
  width="1"
>
  <path
    d="M 85.5867,98.63755 1.36245,14.4133 Q 0,13.05085 0,10.94524 0,8.83963 1.36245,7.47718 2.7249,6.11473 4.83051,6.11473 q 2.1056,0 3.46806,1.36245 l 84.22425,84.22425 q 1.36245,1.36246 1.36245,3.46806 0,2.10561 -1.36245,3.46806 Q 91.16037,100 89.05476,100 86.94915,100 85.5867,98.63755 Z M 60.31943,24.81747 v 8.67014 q 0,2.47719 -1.54824,3.65385 -1.54824,1.17666 -3.40613,1.17666 -1.85789,0 -3.40613,-1.23859 -1.54824,-1.23859 -1.54824,-3.71578 V 9.95437 q 0,-2.10561 1.42438,-3.52999 Q 53.25945,5 55.36506,5 h 19.81747 q 2.10561,0 3.52999,1.42438 1.42438,1.42438 1.42438,3.52999 v 9.90873 q 0,2.10561 -1.42438,3.52999 -1.42438,1.42438 -3.52999,1.42438 z M 40.50196,94.17862 q -8.17471,0 -13.99609,-5.82138 -5.82138,-5.82139 -5.82138,-13.99609 0,-8.17471 5.82138,-13.99609 5.82138,-5.82138 13.99609,-5.82138 2.84876,0 5.26401,0.68122 2.41526,0.68123 4.64472,2.04368 v -7.67927 l 9.90874,9.90873 v 14.86311 q 0,8.1747 -5.82139,13.99609 -5.82138,5.82138 -13.99608,5.82138 z"
    style="stroke-width:0.123859" 
  />
</svg>
