<?xml version="1.0" encoding="UTF-8" standalone="no"?>
<svg
   enable-background="new 0 0 88.9 52.3"
   version="1.1"
   viewBox="0 0 100 100"
   id="svg51"
   width="1"
   height="1"
   xmlns="http://www.w3.org/2000/svg"
   xmlns:svg="http://www.w3.org/2000/svg">
  <defs
     id="defs51" />
  <g
     clip-rule="evenodd"
     fill-rule="evenodd"
     id="g51"
     transform="matrix(1.0175976,-0.29564547,0.29564547,1.0175976,-7.3550473,21.083857)">
    <linearGradient
       id="ae"
       x1="-14.394"
       x2="72.061996"
       y1="29.122"
       y2="29.122"
       gradientTransform="matrix(0.9965,0.0841,0.3408,1.0323,-1.1456e-4,4.2441e-4)"
       gradientUnits="userSpaceOnUse">
      <stop
         stop-color="#ABACB0"
         offset="0"
         id="stop1" />
      <stop
         stop-color="#666669"
         offset="1"
         id="stop2" />
    </linearGradient>
    <path
       d="m 88.25,34.3 -76.5,2.05 C 11.683,36.317 11.6,36.267 11.5,36.201 11.4,36.168 11.333,36.135 11.3,36.1 11.267,36.067 11.234,36.05 11.2,36.05 9.6,35.116 7.7,34.151 5.5,33.151 L 1.05,31.1 73.5,29.3 l 8.8,3.05 c 0.233,0.034 0.417,0.084 0.55,0.15 l 5.25,1.65 c 0.067,0 0.117,0.05 0.15,0.15 z"
       fill="url(#ae)"
       id="path2"
       style="fill:url(#ae)" />
    <path
       d="m 75.1,36.8 c -10.833,0.267 -21.066,0.584 -30.699,0.95 -19.367,0.467 -30.25,0.733 -32.65,0.8 0.1,-0.366 0.167,-0.684 0.2,-0.95 C 11.983,37.4 12,37.233 12,37.1 c 1.633,-0.166 3.783,-0.25 6.45,-0.25 2.7,-0.1 5.25,-0.166 7.65,-0.199 2.467,-0.134 4.75,-0.217 6.85,-0.25 2.1,-0.134 4.783,-0.25 8.05,-0.351 2.367,-0.1 4.8,-0.233 7.3,-0.399 2.767,-0.101 5.684,-0.15 8.75,-0.15 3.033,-0.033 5.783,-0.083 8.25,-0.15 2.467,-0.166 4.983,-0.25 7.55,-0.25 2.534,-0.066 5.233,-0.116 8.101,-0.149 2.566,-0.134 5.083,-0.217 7.55,-0.25 0.134,0.3 0.2,0.533 0.2,0.7 v 0.1 c -0.033,0.167 -0.167,0.384 -0.4,0.65 -0.166,0.166 -0.333,0.25 -0.5,0.25 C 83.4,36.467 79.167,36.6 75.1,36.8 Z m -63.35,13.35 77,-2.2 c 0.1,0.2 0.15,0.434 0.15,0.7 -0.034,0.233 -0.184,0.466 -0.45,0.699 l -76.9,2.95 c 0,-0.032 0.034,-0.065 0.1,-0.1 0.233,-0.134 0.35,-0.367 0.35,-0.7 0.067,-0.565 -0.017,-1.016 -0.25,-1.349 z"
       fill="#5b5c5e"
       id="path3" />
    <linearGradient
       id="ag"
       x1="2.4595001"
       x2="76.241997"
       y1="34.195"
       y2="34.195"
       gradientTransform="matrix(0.9996,0.0298,0.3914,1.0121,1.4937e-4,-3.2476e-4)"
       gradientUnits="userSpaceOnUse">
      <stop
         stop-color="#E6E7ED"
         offset="0"
         id="stop3" />
      <stop
         stop-color="#666669"
         offset="1"
         id="stop4" />
    </linearGradient>
    <path
       d="m 12,37.1 h -0.45 c 0.067,-0.199 0.133,-0.333 0.2,-0.399 -0.033,-0.2 -0.033,-0.3 0,-0.3 V 36.35 l 76.5,-2.05 0.25,0.4 c -2.467,0.033 -4.983,0.116 -7.55,0.25 -2.867,0.033 -5.566,0.083 -8.101,0.149 -2.566,0 -5.083,0.084 -7.55,0.25 -2.467,0.067 -5.217,0.117 -8.25,0.15 -3.066,0 -5.983,0.05 -8.75,0.15 -2.5,0.166 -4.933,0.3 -7.3,0.399 -3.267,0.101 -5.95,0.217 -8.05,0.351 -2.1,0.033 -4.383,0.116 -6.85,0.25 -2.4,0.033 -4.95,0.1 -7.65,0.199 C 15.783,36.85 13.633,36.934 12,37.1 Z"
       fill="url(#ag)"
       id="path4"
       style="fill:url(#ag)" />
    <linearGradient
       id="ah"
       x1="-12.075"
       x2="63.926998"
       y1="51.616001"
       y2="51.616001"
       gradientTransform="matrix(0.9983,-0.0579,0.4623,0.9749,9.9838e-6,-2.1015e-4)"
       gradientUnits="userSpaceOnUse">
      <stop
         stop-color="#97989C"
         offset="0"
         id="stop5" />
      <stop
         stop-color="#666669"
         offset="1"
         id="stop6" />
    </linearGradient>
    <path
       d="m 88.75,47.95 -77,2.2 c -0.133,-0.233 -0.267,-0.4 -0.4,-0.5 l 75.9,-2.301 h 0.4 L 88,47.45 c 0.333,0.067 0.583,0.234 0.75,0.5 z"
       fill="url(#ah)"
       id="path6"
       style="fill:url(#ah)" />
    <linearGradient
       id="ai"
       x1="47.720001"
       x2="60.882999"
       y1="-25.187"
       y2="-25.187"
       gradientTransform="matrix(0.3893,0.9211,-1.0828,0.0067,-3.3963e-4,-1.7468e-5)"
       gradientUnits="userSpaceOnUse">
      <stop
         stop-color="#333336"
         offset="0"
         id="stop7" />
      <stop
         stop-color="#3F4042"
         offset=".5176"
         id="stop8" />
      <stop
         stop-color="#454647"
         offset="1"
         id="stop9" />
    </linearGradient>
    <path
       d="m 87.25,47.35 -75.9,2.301 c -0.2,-0.233 -0.45,-0.4 -0.75,-0.5 -0.434,-0.267 -0.85,-0.5 -1.25,-0.7 C 9.05,48.218 8.75,48.017 8.45,47.85 8.217,47.616 8.067,47.45 8,47.35 7.6,47.083 7.267,46.717 7,46.25 6.867,45.917 6.783,45.533 6.75,45.1 V 44.651 L 76,42.85 l 0.4,0.2 0.3,0.15 h -0.05 z"
       fill="url(#ai)"
       id="path9"
       style="fill:url(#ai)" />
    <linearGradient
       id="aj"
       x1="39.860001"
       x2="52.380001"
       y1="-22.872999"
       y2="-22.872999"
       gradientTransform="matrix(0.3714,0.9285,-1.0835,-0.0162,-3.3092e-4,2.4857e-4)"
       gradientUnits="userSpaceOnUse">
      <stop
         stop-color="#343436"
         offset="0"
         id="stop10" />
      <stop
         stop-color="#404042"
         offset=".1255"
         id="stop11" />
      <stop
         stop-color="#505153"
         offset=".3569"
         id="stop12" />
      <stop
         stop-color="#565759"
         offset=".5333"
         id="stop13" />
      <stop
         stop-color="#535456"
         offset=".702"
         id="stop14" />
      <stop
         stop-color="#4A4A4C"
         offset=".8314"
         id="stop15" />
      <stop
         stop-color="#3A3A3C"
         offset=".9412"
         id="stop16" />
      <stop
         stop-color="#343436"
         offset=".9765"
         id="stop17" />
    </linearGradient>
    <path
       d="m 11.25,39 0.1,0.05 h 0.1 L 11.5,39 c 0.033,-0.134 0.117,-0.283 0.25,-0.45 2.4,-0.066 13.283,-0.333 32.65,-0.8 9.633,-0.366 19.866,-0.684 30.699,-0.95 L 75,38.1 c -0.167,1.934 -0.116,3.101 0.15,3.5 0.166,0.567 0.583,1.051 1.25,1.45 L 76,42.85 6.75,44.65 c -0.133,-0.934 -0.167,-1.567 -0.1,-1.9 -0.033,-2.934 -0.033,-4.483 0,-4.65 0,-0.233 0.167,-0.533 0.5,-0.899 l 0.5,-0.05 c 2,1 3.05,1.583 3.15,1.75 0.1,0.033 0.25,0.066 0.45,0.099 z"
       fill="url(#aj)"
       id="path17"
       style="fill:url(#aj)" />
    <path
       d="M 11.75,38.55 C 11.617,38.717 11.533,38.866 11.5,39 l -0.05,0.05 h -0.1 L 11.25,39 v -0.05 c 0,-0.134 0.033,-0.267 0.1,-0.4 v -0.149 c 0,-0.233 0.033,-0.45 0.1,-0.65 -0.067,-0.4 -0.117,-0.684 -0.15,-0.85 l -0.4,-0.5 -9.95,-5.25 0.1,-0.051 4.45,2.05 2.65,1.399 c 0.967,0.334 1.817,0.767 2.55,1.3 V 35.95 L 11.05,36 c 0.034,0 0.083,0.017 0.15,0.05 0.033,0 0.066,0.017 0.1,0.05 0.034,0.034 0.1,0.067 0.2,0.101 0.1,0.066 0.183,0.116 0.25,0.149 v 0.05 c -0.033,0 -0.033,0.1 0,0.3 -0.067,0.066 -0.133,0.2 -0.2,0.399 v 0.051 c -0.066,0.133 0,0.199 0.2,0.199 0,-0.033 0.05,-0.033 0.15,0 0,-0.066 0.017,-0.066 0.05,0 v 0.25 c -0.033,0.267 -0.1,0.585 -0.2,0.951 z"
       fill="#e6e7ed"
       id="path18" />
    <linearGradient
       id="ak"
       x1="30.878"
       x2="52.652"
       y1="2.4033"
       y2="2.4033"
       gradientTransform="matrix(0.1963,0.9805,-0.9605,0.2964,-2.6941e-5,2.6515e-4)"
       gradientUnits="userSpaceOnUse">
      <stop
         stop-color="#77787A"
         offset="0"
         id="stop18" />
      <stop
         stop-color="#575759"
         offset="1"
         id="stop19" />
    </linearGradient>
    <path
       d="m 7.15,37.2 -0.75,0.7 0.1,4.449 c 0,0.667 0.017,1.434 0.05,2.301 -0.031,0.095 -0.048,0.187 -0.05,0.274 V 44.7 l -0.1,0.55 c 0.1,1.066 0.517,1.884 1.25,2.45 l 3.2,2.3 c 0.066,0.066 0.1,0.134 0.1,0.2 0.1,0.066 0.216,0.166 0.35,0.3 0.133,0.1 0.2,0.3 0.2,0.6 -0.033,0.2 -0.083,0.4 -0.15,0.601 -0.167,0.2 -0.4,0.333 -0.7,0.399 -0.033,0 -0.083,0.017 -0.15,0.051 L 0.5,45.1 C 0.233,44.8 0.1,44.6 0.1,44.5 L 0.15,43.3 C 0.183,43.234 0.233,43.167 0.3,43.1 v -0.05 h 0.45 l 3,2.2 c 0.4,0.134 0.7,-0.2 0.9,-1 v -0.2 C 4.783,40.283 4.8,37.95 4.7,37.05 4.666,36.384 4.516,35.817 4.25,35.35 4.083,35.217 3.933,35.134 3.8,35.1 2.734,34.5 1.8,33.901 1,33.3 0.933,33.134 0.8,33.033 0.6,33 0.467,32.767 0.383,32.566 0.35,32.4 v -0.101 c 0,-0.399 0.2,-0.783 0.6,-1.149 l 9.95,5.25 0.4,0.5 c 0.034,0.166 0.083,0.449 0.15,0.85 -0.067,0.2 -0.1,0.417 -0.1,0.65 v 0.149 c -0.067,0.134 -0.1,0.267 -0.1,0.4 V 39 C 11.05,38.967 10.9,38.934 10.8,38.9 10.7,38.733 9.65,38.15 7.65,37.15 Z"
       fill="url(#ak)"
       id="path19"
       style="fill:url(#ak)" />
    <linearGradient
       id="al"
       x1="-11.217"
       x2="-3.2038"
       y1="38.609001"
       y2="38.609001"
       gradientTransform="matrix(0.9234,-0.3837,0.2361,0.9848,9.498e-5,3.5793e-4)"
       gradientUnits="userSpaceOnUse">
      <stop
         stop-color="#E6E7ED"
         offset="0"
         id="stop20" />
      <stop
         stop-color="#A6A6AB"
         offset="1"
         id="stop21" />
    </linearGradient>
    <path
       d="m 0.95,42.75 c 0.167,0.066 0.533,0.366 1.1,0.9 0.9,0.633 1.5,1.017 1.8,1.149 0.267,0.066 0.467,-0.083 0.6,-0.45 0,-0.466 0.017,-0.983 0.05,-1.55 v -2.05 c 0.067,-2.833 0.067,-4.283 0,-4.35 C 4.333,36.032 4.25,35.765 4.25,35.598 4.183,35.432 4.033,35.265 3.8,35.098 c 0.133,0.034 0.284,0.117 0.45,0.25 0.267,0.467 0.417,1.034 0.45,1.7 0.1,0.9 0.083,3.233 -0.05,7 v 0.2 c -0.2,0.8 -0.5,1.134 -0.9,1 l -3,-2.2 h -0.4 c 0.033,-0.133 0.083,-0.233 0.15,-0.3 0,-0.033 0.067,-0.05 0.2,-0.05 0.033,-0.132 0.117,-0.115 0.25,0.052 z"
       fill="url(#al)"
       id="path21"
       style="fill:url(#al)" />
    <path
       d="m 11.35,49.65 c 0.133,0.1 0.267,0.267 0.4,0.5 0.233,0.333 0.317,0.783 0.25,1.35 0,0.333 -0.117,0.566 -0.35,0.7 -0.137,0.066 -0.337,0.1 -0.6,0.1 l -0.2,-0.1 H 10.8 l -0.15,-0.1 c 0.3,-0.066 0.533,-0.199 0.7,-0.399 0.066,-0.2 0.117,-0.4 0.15,-0.601 0,-0.3 -0.067,-0.5 -0.2,-0.6 -0.133,-0.134 -0.25,-0.233 -0.35,-0.3 0,-0.066 -0.034,-0.134 -0.1,-0.2 L 7.65,47.7 C 6.917,47.134 6.5,46.316 6.4,45.25 L 6.5,44.7 v 0.225 C 6.501,44.837 6.519,44.745 6.55,44.651 6.517,43.783 6.5,43.017 6.5,42.35 L 6.4,37.9 7.15,37.2 c -0.333,0.366 -0.5,0.666 -0.5,0.899 -0.033,0.167 -0.033,1.717 0,4.65 -0.066,0.333 -0.033,0.967 0.1,1.9 v 0.449 c 0.033,0.434 0.117,0.817 0.25,1.15 0.267,0.467 0.6,0.833 1,1.1 0.067,0.101 0.217,0.267 0.45,0.5 0.3,0.167 0.6,0.367 0.9,0.601 0.4,0.2 0.816,0.434 1.25,0.7 0.3,0.101 0.55,0.268 0.75,0.501 z"
       fill="#95969a"
       id="path22" />
    <linearGradient
       id="am"
       x1="-1.7622"
       x2="9.8250999"
       y1="42.344002"
       y2="42.344002"
       gradientTransform="matrix(0.9838,0.1791,0.0057,1.0175,1.1429e-4,1.353e-4)"
       gradientUnits="userSpaceOnUse">
      <stop
         stop-color="#ABACB0"
         offset="0"
         id="stop22" />
      <stop
         stop-color="#666669"
         offset="1"
         id="stop23" />
    </linearGradient>
    <path
       d="M 4.5,42.8 C 4.467,43.366 4.45,43.884 4.45,44.35 4.317,44.717 4.117,44.867 3.85,44.8 3.55,44.667 2.95,44.283 2.05,43.651 1.484,43.117 1.117,42.817 0.95,42.751 Z"
       fill="url(#am)"
       id="path23"
       style="fill:url(#am)" />
    <radialGradient
       id="an"
       cx="31.597"
       cy="4.1226001"
       r="1.3463"
       gradientTransform="matrix(0.3714,0.9285,1.2442,-0.3992,-9.0644,2.9084)"
       gradientUnits="userSpaceOnUse">
      <stop
         stop-color="#C4C5C9"
         offset="0"
         id="stop24" />
      <stop
         stop-color="#666669"
         offset="1"
         id="stop25" />
    </radialGradient>
    <path
       d="m 9.2,31 v 0.15 C 9.2,31.349 9.05,31.533 8.75,31.7 8.45,31.8 8.1,31.85 7.7,31.85 7.266,31.85 6.95,31.8 6.75,31.701 6.683,31.634 6.633,31.6 6.6,31.6 6.333,31.467 6.233,31.317 6.3,31.151 c 0,-0.101 0.067,-0.167 0.2,-0.2 0.067,-0.134 0.167,-0.217 0.3,-0.25 0.233,-0.101 0.517,-0.15 0.85,-0.15 H 7.8 c 0.034,-0.033 0.067,-0.05 0.1,-0.05 H 8 c 0.367,0 0.667,0.066 0.9,0.2 C 9.067,30.8 9.167,30.9 9.2,31 Z"
       fill="url(#an)"
       id="path25"
       style="fill:url(#an)" />
    <path
       d="m 9.2,31 c 0.267,0.1 0.4,0.25 0.4,0.45 C 9.567,31.65 9.367,31.8 9,31.9 8.767,32.066 8.433,32.15 8,32.15 7.567,32.15 7.217,32.066 6.95,31.9 6.75,31.833 6.633,31.733 6.6,31.599 c 0.033,0 0.083,0.034 0.15,0.101 0.2,0.1 0.517,0.149 0.95,0.149 0.4,0 0.75,-0.05 1.05,-0.149 0.3,-0.167 0.45,-0.351 0.45,-0.55 z"
       fill="#525355"
       id="path26" />
    <path
       d="m 14.75,35.6 c 0.033,0 0.083,0.017 0.15,0.051 0.233,0.1 0.55,0.149 0.95,0.149 0.433,0 0.783,-0.05 1.05,-0.149 0.333,-0.167 0.5,-0.334 0.5,-0.5 v -0.2 c 0.233,0.133 0.35,0.283 0.35,0.45 -0.033,0.199 -0.2,0.35 -0.5,0.449 -0.333,0.167 -0.717,0.25 -1.15,0.25 -0.367,0 -0.7,-0.083 -1,-0.25 -0.2,-0.067 -0.317,-0.15 -0.35,-0.25 z"
       fill="#525355"
       id="path27" />
    <radialGradient
       id="u"
       cx="37.848999"
       cy="-1.9312"
       r="1.3463"
       gradientTransform="matrix(0.3714,0.9285,1.2442,-0.3992,4.2457,-1.3628)"
       gradientUnits="userSpaceOnUse">
      <stop
         stop-color="#C4C5C9"
         offset="0"
         id="stop27" />
      <stop
         stop-color="#666669"
         offset="1"
         id="stop28" />
    </radialGradient>
    <path
       d="m 14.75,35.6 c -0.2,-0.166 -0.283,-0.316 -0.25,-0.449 0,-0.134 0.067,-0.217 0.2,-0.25 0.033,-0.101 0.117,-0.167 0.25,-0.2 0.267,-0.134 0.55,-0.2 0.85,-0.2 h 0.1 c 0.067,-0.033 0.117,-0.05 0.15,-0.05 h 0.05 c 0.4,0 0.717,0.083 0.95,0.25 0.2,0.066 0.317,0.149 0.35,0.25 v 0.2 c 0,0.166 -0.167,0.333 -0.5,0.5 -0.267,0.1 -0.617,0.149 -1.05,0.149 -0.4,0 -0.717,-0.05 -0.95,-0.149 C 14.833,35.616 14.783,35.6 14.75,35.6 Z"
       fill="url(#u)"
       id="path28"
       style="fill:url(#u)" />
    <radialGradient
       id="v"
       cx="35.694"
       cy="-8.9506998"
       r="1.3463"
       gradientTransform="matrix(0.3714,0.9285,1.2442,-0.3992,19.679,-6.3153)"
       gradientUnits="userSpaceOnUse">
      <stop
         stop-color="#C4C5C9"
         offset="0"
         id="stop29" />
      <stop
         stop-color="#666669"
         offset="1"
         id="stop30" />
    </radialGradient>
    <path
       d="m 23.3,30.75 v 0.2 c 0,0.2 -0.183,0.366 -0.55,0.5 -0.267,0.1 -0.617,0.149 -1.05,0.149 -0.367,0 -0.684,-0.05 -0.95,-0.149 -0.033,-0.033 -0.083,-0.05 -0.15,-0.05 -0.2,-0.167 -0.283,-0.317 -0.25,-0.45 0,-0.134 0.066,-0.217 0.2,-0.25 0.034,-0.101 0.117,-0.167 0.25,-0.2 0.267,-0.134 0.55,-0.2 0.85,-0.2 h 0.15 c 0.034,-0.033 0.067,-0.05 0.1,-0.05 h 0.15 c 0.333,0 0.617,0.083 0.85,0.25 0.2,0.066 0.333,0.15 0.4,0.25 z"
       fill="url(#v)"
       id="path30"
       style="fill:url(#v)" />
    <path
       d="m 23.3,30.75 c 0.2,0.134 0.3,0.3 0.3,0.5 -0.033,0.167 -0.2,0.316 -0.5,0.45 -0.3,0.133 -0.65,0.2 -1.05,0.2 -0.433,0 -0.8,-0.067 -1.1,-0.2 -0.167,-0.101 -0.284,-0.2 -0.35,-0.3 0.066,0 0.117,0.017 0.15,0.05 0.267,0.1 0.583,0.149 0.95,0.149 0.433,0 0.783,-0.05 1.05,-0.149 0.367,-0.134 0.55,-0.3 0.55,-0.5 z"
       fill="#525355"
       id="path31" />
    <path
       d="m 31.25,34.75 c 0.2,0.1 0.3,0.25 0.3,0.45 -0.033,0.166 -0.2,0.316 -0.5,0.45 -0.3,0.133 -0.65,0.199 -1.05,0.199 -0.433,0 -0.783,-0.066 -1.05,-0.199 -0.2,-0.067 -0.333,-0.167 -0.4,-0.301 0.067,0 0.117,0.017 0.15,0.051 0.267,0.133 0.583,0.199 0.95,0.199 0.434,0 0.817,-0.066 1.15,-0.199 0.3,-0.134 0.45,-0.301 0.45,-0.5 z"
       fill="#525355"
       id="path32" />
    <radialGradient
       id="w"
       cx="41.915001"
       cy="-14.911"
       r="1.3463"
       gradientTransform="matrix(0.3714,0.9285,1.2442,-0.3992,32.784,-10.521)"
       gradientUnits="userSpaceOnUse">
      <stop
         stop-color="#C4C5C9"
         offset="0"
         id="stop32" />
      <stop
         stop-color="#666669"
         offset="1"
         id="stop33" />
    </radialGradient>
    <path
       d="m 28.55,35.35 c -0.2,-0.133 -0.283,-0.283 -0.25,-0.449 0,-0.101 0.067,-0.167 0.2,-0.2 0.033,-0.134 0.133,-0.217 0.3,-0.25 0.233,-0.101 0.5,-0.15 0.8,-0.15 h 0.2 c 0.034,-0.033 0.083,-0.05 0.15,-0.05 H 30 c 0.333,0 0.633,0.066 0.9,0.2 0.167,0.066 0.283,0.166 0.35,0.3 v 0.15 c 0,0.199 -0.15,0.366 -0.45,0.5 -0.333,0.133 -0.716,0.199 -1.15,0.199 -0.367,0 -0.683,-0.066 -0.95,-0.199 -0.033,-0.035 -0.083,-0.051 -0.15,-0.051 z"
       fill="url(#w)"
       id="path33"
       style="fill:url(#w)" />
    <radialGradient
       id="x"
       cx="39.375999"
       cy="-20.927999"
       r="1.3463"
       gradientTransform="matrix(0.3714,0.9285,1.2442,-0.3992,46.013,-14.766)"
       gradientUnits="userSpaceOnUse">
      <stop
         stop-color="#C4C5C9"
         offset="0"
         id="stop34" />
      <stop
         stop-color="#666669"
         offset="1"
         id="stop35" />
    </radialGradient>
    <path
       d="m 33.4,31.15 c -0.233,-0.134 -0.333,-0.284 -0.3,-0.45 0,-0.101 0.066,-0.167 0.2,-0.2 0.067,-0.134 0.184,-0.217 0.35,-0.25 0.2,-0.1 0.467,-0.15 0.8,-0.15 h 0.15 c 0.066,-0.033 0.117,-0.05 0.15,-0.05 h 0.05 c 0.367,0 0.684,0.066 0.95,0.2 0.167,0.1 0.267,0.2 0.3,0.3 v 0.15 c 0,0.2 -0.15,0.383 -0.45,0.55 -0.3,0.1 -0.667,0.15 -1.1,0.15 -0.4,0 -0.733,-0.051 -1,-0.15 -0.033,-0.066 -0.067,-0.1 -0.1,-0.1 z"
       fill="url(#x)"
       id="path35"
       style="fill:url(#x)" />
    <path
       d="m 36.05,30.55 c 0.233,0.1 0.35,0.25 0.35,0.45 -0.066,0.2 -0.25,0.35 -0.55,0.45 -0.3,0.166 -0.65,0.25 -1.05,0.25 -0.433,0 -0.767,-0.084 -1,-0.25 -0.233,-0.066 -0.367,-0.167 -0.4,-0.3 0.033,0 0.067,0.033 0.1,0.1 0.267,0.1 0.6,0.15 1,0.15 0.433,0 0.8,-0.051 1.1,-0.15 0.3,-0.167 0.45,-0.35 0.45,-0.55 z"
       fill="#525355"
       id="path36" />
    <radialGradient
       id="y"
       cx="45.486"
       cy="-26.879"
       r="1.3463"
       gradientTransform="matrix(0.3714,0.9285,1.2442,-0.3992,59.099,-18.965)"
       gradientUnits="userSpaceOnUse">
      <stop
         stop-color="#C4C5C9"
         offset="0"
         id="stop36" />
      <stop
         stop-color="#666669"
         offset="1"
         id="stop37" />
    </radialGradient>
    <path
       d="m 44,34.4 v 0.149 c 0,0.2 -0.15,0.367 -0.45,0.5 -0.3,0.134 -0.65,0.2 -1.05,0.2 -0.433,0 -0.75,-0.066 -0.95,-0.2 C 41.483,35.017 41.433,35 41.4,35 c -0.267,-0.134 -0.383,-0.283 -0.35,-0.45 0,-0.1 0.1,-0.166 0.3,-0.2 0.033,-0.133 0.117,-0.216 0.25,-0.25 0.2,-0.1 0.483,-0.149 0.85,-0.149 h 0.1 c 0.067,-0.033 0.117,-0.05 0.15,-0.05 h 0.05 c 0.4,0 0.717,0.066 0.95,0.199 0.167,0.1 0.267,0.2 0.3,0.3 z"
       fill="url(#y)"
       id="path37"
       style="fill:url(#y)" />
    <path
       d="m 44,34.4 c 0.267,0.1 0.4,0.25 0.4,0.449 -0.034,0.2 -0.233,0.351 -0.601,0.45 -0.267,0.167 -0.617,0.25 -1.05,0.25 -0.433,0 -0.783,-0.083 -1.05,-0.25 -0.167,-0.066 -0.267,-0.166 -0.3,-0.3 0.033,0 0.083,0.017 0.15,0.05 0.2,0.134 0.517,0.2 0.95,0.2 0.4,0 0.75,-0.066 1.05,-0.2 0.3,-0.133 0.45,-0.3 0.45,-0.5 C 44,34.483 44,34.434 44,34.4 Z"
       fill="#525355"
       id="path38" />
    <radialGradient
       id="z"
       cx="43.362999"
       cy="-33.992001"
       r="1.3463"
       gradientTransform="matrix(0.3714,0.9285,1.2442,-0.3992,74.736,-23.983)"
       gradientUnits="userSpaceOnUse">
      <stop
         stop-color="#C4C5C9"
         offset="0"
         id="stop38" />
      <stop
         stop-color="#666669"
         offset="1"
         id="stop39" />
    </radialGradient>
    <path
       d="m 50.05,30.25 v 0.2 c 0,0.166 -0.166,0.333 -0.5,0.5 -0.267,0.1 -0.616,0.149 -1.05,0.149 -0.434,0 -0.767,-0.05 -1,-0.149 -0.033,-0.033 -0.066,-0.05 -0.1,-0.05 -0.267,-0.167 -0.351,-0.317 -0.25,-0.45 0,-0.134 0.066,-0.217 0.199,-0.25 0.034,-0.101 0.117,-0.167 0.25,-0.2 0.2,-0.134 0.483,-0.2 0.851,-0.2 h 0.1 c 0.066,-0.033 0.117,-0.05 0.15,-0.05 h 0.05 c 0.4,0 0.7,0.083 0.9,0.25 0.2,0.066 0.333,0.15 0.4,0.25 z"
       fill="url(#z)"
       id="path39"
       style="fill:url(#z)" />
    <path
       d="m 50.05,30.25 c 0.233,0.134 0.351,0.283 0.351,0.45 -0.067,0.2 -0.267,0.35 -0.601,0.45 -0.267,0.166 -0.616,0.25 -1.05,0.25 -0.4,0 -0.75,-0.084 -1.05,-0.25 -0.167,-0.067 -0.267,-0.15 -0.3,-0.25 0.033,0 0.066,0.017 0.1,0.05 0.233,0.1 0.566,0.149 1,0.149 0.434,0 0.783,-0.05 1.05,-0.149 0.334,-0.167 0.5,-0.334 0.5,-0.5 z"
       fill="#525355"
       id="path40" />
    <radialGradient
       id="aa"
       cx="49.424999"
       cy="-39.960999"
       r="1.3463"
       gradientTransform="matrix(0.3714,0.9285,1.2442,-0.3992,87.862,-28.195)"
       gradientUnits="userSpaceOnUse">
      <stop
         stop-color="#C4C5C9"
         offset="0"
         id="stop40" />
      <stop
         stop-color="#666669"
         offset="1"
         id="stop41" />
    </radialGradient>
    <path
       d="m 58,34.05 v 0.2 c 0,0.167 -0.167,0.333 -0.5,0.5 -0.267,0.1 -0.616,0.15 -1.05,0.15 -0.4,0 -0.733,-0.051 -1,-0.15 -0.033,-0.033 -0.066,-0.05 -0.101,-0.05 -0.233,-0.167 -0.316,-0.316 -0.25,-0.45 0,-0.134 0.051,-0.217 0.15,-0.25 0.066,-0.1 0.167,-0.184 0.3,-0.25 0.267,-0.1 0.55,-0.15 0.851,-0.15 h 0.1 c 0.066,-0.033 0.116,-0.05 0.15,-0.05 h 0.1 c 0.366,0 0.65,0.066 0.85,0.2 0.233,0.1 0.367,0.2 0.4,0.3 z"
       fill="url(#aa)"
       id="path41"
       style="fill:url(#aa)" />
    <path
       d="m 58,34.05 c 0.233,0.134 0.35,0.283 0.35,0.45 -0.066,0.2 -0.25,0.35 -0.55,0.45 -0.3,0.166 -0.649,0.25 -1.05,0.25 -0.434,0 -0.8,-0.084 -1.1,-0.25 -0.167,-0.066 -0.267,-0.15 -0.301,-0.25 0.034,0 0.067,0.017 0.101,0.05 0.267,0.1 0.6,0.15 1,0.15 0.434,0 0.783,-0.051 1.05,-0.15 0.333,-0.167 0.5,-0.333 0.5,-0.5 z"
       fill="#525355"
       id="path42" />
    <radialGradient
       id="ab"
       cx="47.152"
       cy="-46.293999"
       r="1.3463"
       gradientTransform="matrix(0.3714,0.9285,1.2442,-0.3992,101.78,-32.663)"
       gradientUnits="userSpaceOnUse">
      <stop
         stop-color="#C4C5C9"
         offset="0"
         id="stop42" />
      <stop
         stop-color="#666669"
         offset="1"
         id="stop43" />
    </radialGradient>
    <path
       d="m 60.5,30.6 c -0.233,-0.133 -0.316,-0.283 -0.25,-0.449 0,-0.101 0.05,-0.167 0.15,-0.2 0.066,-0.134 0.183,-0.217 0.35,-0.25 0.2,-0.101 0.483,-0.15 0.85,-0.15 h 0.1 c 0.066,-0.066 0.116,-0.1 0.149,-0.1 H 61.9 c 0.366,0 0.683,0.083 0.949,0.25 0.167,0.066 0.267,0.166 0.301,0.3 v 0.15 c 0,0.199 -0.15,0.366 -0.45,0.5 -0.3,0.133 -0.65,0.199 -1.05,0.199 -0.434,0 -0.75,-0.066 -0.95,-0.199 C 60.6,30.616 60.533,30.6 60.5,30.6 Z"
       fill="url(#ab)"
       id="path43"
       style="fill:url(#ab)" />
    <path
       d="m 63.15,30 c 0.267,0.1 0.399,0.25 0.399,0.45 -0.1,0.166 -0.3,0.316 -0.6,0.45 -0.267,0.133 -0.617,0.199 -1.05,0.199 -0.434,0 -0.767,-0.066 -1,-0.199 -0.233,-0.101 -0.367,-0.2 -0.4,-0.301 0.033,0 0.1,0.017 0.2,0.051 0.2,0.133 0.517,0.199 0.95,0.199 0.399,0 0.75,-0.066 1.05,-0.199 0.3,-0.134 0.45,-0.301 0.45,-0.5 C 63.15,30.083 63.15,30.033 63.15,30 Z"
       fill="#525355"
       id="path44" />
    <path
       d="m 68.5,34.4 c 0.033,0 0.083,0.017 0.15,0.05 0.199,0.1 0.517,0.149 0.949,0.149 0.4,0 0.75,-0.05 1.051,-0.149 0.3,-0.134 0.449,-0.3 0.449,-0.5 v -0.2 c 0.267,0.134 0.4,0.3 0.4,0.5 -0.033,0.167 -0.233,0.316 -0.6,0.45 -0.267,0.133 -0.617,0.2 -1.051,0.2 -0.433,0 -0.767,-0.067 -1,-0.2 C 68.65,34.6 68.533,34.5 68.5,34.4 Z"
       fill="#525355"
       id="path45" />
    <radialGradient
       id="ac"
       cx="53.215"
       cy="-52.264"
       r="1.3463"
       gradientTransform="matrix(0.3714,0.9285,1.2442,-0.3992,114.91,-36.875)"
       gradientUnits="userSpaceOnUse">
      <stop
         stop-color="#C4C5C9"
         offset="0"
         id="stop45" />
      <stop
         stop-color="#666669"
         offset="1"
         id="stop46" />
    </radialGradient>
    <path
       d="m 68.5,34.4 c -0.267,-0.167 -0.384,-0.317 -0.35,-0.45 0,-0.134 0.1,-0.217 0.3,-0.25 0.033,-0.101 0.116,-0.167 0.25,-0.2 0.2,-0.134 0.483,-0.2 0.85,-0.2 h 0.101 c 0.066,-0.033 0.116,-0.05 0.149,-0.05 h 0.05 c 0.4,0 0.717,0.083 0.95,0.25 0.167,0.066 0.267,0.15 0.3,0.25 v 0.2 c 0,0.2 -0.149,0.366 -0.449,0.5 C 70.35,34.55 70,34.6 69.6,34.6 69.167,34.6 68.85,34.55 68.651,34.451 68.583,34.417 68.533,34.4 68.5,34.4 Z"
       fill="url(#ac)"
       id="path46"
       style="fill:url(#ac)" />
    <radialGradient
       id="ad"
       cx="50.528"
       cy="-57.342999"
       r="1.3463"
       gradientTransform="matrix(0.3714,0.9285,1.2442,-0.3992,126.08,-40.458)"
       gradientUnits="userSpaceOnUse">
      <stop
         stop-color="#C4C5C9"
         offset="0"
         id="stop47" />
      <stop
         stop-color="#666669"
         offset="1"
         id="stop48" />
    </radialGradient>
    <path
       d="m 74.95,29.75 v 0.2 c 0,0.166 -0.15,0.333 -0.45,0.5 -0.3,0.1 -0.65,0.149 -1.05,0.149 -0.434,0 -0.767,-0.05 -1,-0.149 -0.033,-0.033 -0.066,-0.05 -0.101,-0.05 -0.267,-0.167 -0.383,-0.317 -0.35,-0.45 0,-0.134 0.1,-0.217 0.3,-0.25 0.033,-0.101 0.117,-0.184 0.25,-0.25 0.2,-0.101 0.483,-0.15 0.851,-0.15 h 0.1 c 0.066,-0.033 0.116,-0.05 0.15,-0.05 h 0.05 c 0.399,0 0.7,0.066 0.899,0.2 0.201,0.1 0.318,0.2 0.351,0.3 z"
       fill="url(#ad)"
       id="path48"
       style="fill:url(#ad)" />
    <path
       d="m 74.95,29.75 c 0.267,0.134 0.399,0.283 0.399,0.45 -0.033,0.2 -0.233,0.35 -0.6,0.45 -0.267,0.166 -0.616,0.25 -1.05,0.25 -0.434,0 -0.783,-0.084 -1.05,-0.25 -0.167,-0.067 -0.267,-0.15 -0.301,-0.25 0.034,0 0.067,0.017 0.101,0.05 0.233,0.1 0.566,0.149 1,0.149 0.399,0 0.75,-0.05 1.05,-0.149 0.3,-0.167 0.45,-0.334 0.45,-0.5 0.001,-0.1 0.001,-0.167 0.001,-0.2 z"
       fill="#525355"
       id="path49" />
    <path
       d="m 84.4,33.5 c 0.267,0.1 0.399,0.25 0.399,0.45 -0.1,0.2 -0.3,0.35 -0.6,0.45 -0.267,0.133 -0.617,0.199 -1.05,0.199 -0.434,0 -0.784,-0.066 -1.051,-0.199 -0.199,-0.067 -0.316,-0.167 -0.35,-0.301 0.033,0 0.083,0.017 0.15,0.051 0.233,0.133 0.566,0.199 1,0.199 0.399,0 0.75,-0.066 1.05,-0.199 0.3,-0.134 0.45,-0.301 0.45,-0.5 C 84.4,33.583 84.4,33.533 84.4,33.5 Z"
       fill="#525355"
       id="path50" />
    <radialGradient
       id="af"
       cx="57.001999"
       cy="-64.723999"
       r="1.3463"
       gradientTransform="matrix(0.3714,0.9285,1.2442,-0.3992,142.31,-45.666)"
       gradientUnits="userSpaceOnUse">
      <stop
         stop-color="#C4C5C9"
         offset="0"
         id="stop50" />
      <stop
         stop-color="#666669"
         offset="1"
         id="stop51" />
    </radialGradient>
    <path
       d="m 81.75,34.1 c -0.233,-0.133 -0.333,-0.283 -0.3,-0.449 0,-0.101 0.066,-0.167 0.2,-0.2 0.066,-0.134 0.183,-0.217 0.35,-0.25 0.2,-0.101 0.483,-0.15 0.85,-0.15 h 0.101 C 83.017,33.017 83.066,33 83.1,33 h 0.051 c 0.366,0 0.666,0.066 0.899,0.2 0.2,0.066 0.316,0.166 0.351,0.3 v 0.15 c 0,0.199 -0.15,0.366 -0.45,0.5 -0.3,0.133 -0.65,0.199 -1.05,0.199 -0.434,0 -0.767,-0.066 -1,-0.199 C 81.833,34.116 81.783,34.1 81.75,34.1 Z"
       fill="url(#af)"
       id="path51"
       style="fill:url(#af)" />
  </g>
</svg>
