<?xml version="1.0" encoding="UTF-8" standalone="no"?>
<svg
   version="1.1"
   viewBox="0 0 100 100"
   id="svg20"
   width="1"
   height="1"
   xmlns="http://www.w3.org/2000/svg"
   xmlns:svg="http://www.w3.org/2000/svg">
  <defs
     id="defs20" />
  <g
     transform="translate(-167.87,-405.36)"
     id="g20">
    <path
       d="m 245.42723,448.64168 c 3.29776,-2.33318 3.3514,-7.44649 4.03342,-11.4278 0.94583,-5.52157 2.5053,-11.79509 0,-16.80607 -2.0042,-4.00847 -6.5973,-6.39592 -10.75591,-8.06709 -6.9114,-2.77716 -15.56109,-6.09829 -22.18371,-2.68895 -2.49637,1.28514 -3.02306,6.07246 -4.03342,7.39457 -0.0511,-1.52545 -0.81279,-4.88806 -2.68895,-6.05016 -4.38557,-2.71643 -10.77364,-1.48081 -15.46166,0.67227 -4.46594,2.05113 -8.80484,6.01058 -10.08339,10.75591 -2.33324,8.65983 -0.96863,20.6335 6.05016,26.21758 14.37942,11.43919 40.12395,10.61279 55.12333,0 z"
       stroke="#000000"
       stroke-width="0.672268px"
       id="path1" />
    <path
       d="m 238.03709,421.08223 c -12.42138,-5.1451 -27.91281,-5.1451 -40.33419,0 -2.92775,1.2127 -5.50967,3.79462 -6.72268,6.72269 -3.43005,8.28113 0,26.88946 0,26.88946 0,0 -3.79462,-7.93538 -6.72268,-6.72269 -6.21069,2.57256 -4.75344,15.41354 0,20.16742 1.58448,1.58448 6.72268,0 6.72268,0 0,0 0.94128,19.68297 6.72268,26.88946 3.13527,3.90848 8.568,5.57116 13.44473,6.72268 4.3617,1.02968 9.08284,1.02968 13.44473,0 4.87654,-1.1512 10.30946,-2.81395 13.44473,-6.72268 5.78115,-7.20713 6.72268,-26.88946 6.72268,-26.88946 0,0 5.13789,1.58448 6.72269,0 4.75343,-4.75344 6.21069,-17.59448 0,-20.16742 -2.92775,-1.21269 -6.72269,13.44474 -6.72269,6.72269 v -26.88946 c 0,-3.96712 -3.79461,-5.50968 -6.72268,-6.72269 z"
       fill="#ffffff"
       stroke="#000000"
       stroke-width="0.672268px"
       id="path2" />
    <path
       d="m 213.29166,443.34364 -1.49532,-3.7879 c -5.13307,0.20632 -9.21899,2.04365 -13.29148,4.77933 l -2.89887,4.45296 4.69834,-3.40865 c 4.60398,-3.41624 8.52367,-1.74171 12.98752,-2.03567 z"
       stroke="#000000"
       stroke-width="0.456403px"
       id="path3" />
    <path
       d="m 249.358,459.3946 c 0,2.2878 0.34975,4.14239 0.78119,4.14239 0.43143,0 0.78118,-1.85459 0.78118,-4.14239 0,-2.28779 -0.34975,-4.14239 -0.78118,-4.14239 -0.40918,0 -0.74903,1.67426 -0.77908,3.83816"
       color="#000000"
       opacity="0.89958"
       stroke="#000000"
       stroke-linecap="round"
       stroke-linejoin="round"
       stroke-width="1.79889"
       id="path4" />
    <path
       d="m 186.16694,459.3946 c 0,2.2878 0.34975,4.14239 0.78119,4.14239 0.43143,0 0.78119,-1.85459 0.78119,-4.14239 0,-2.28779 -0.34976,-4.14239 -0.78119,-4.14239 -0.40918,0 -0.74903,1.67426 -0.77908,3.83816"
       color="#000000"
       opacity="0.89958"
       stroke="#000000"
       stroke-linecap="round"
       stroke-linejoin="round"
       stroke-width="1.79889"
       id="path5" />
    <g
       transform="matrix(-0.50770307,0,0,0.50770307,258.97265,260.63963)"
       id="g7">
      <path
         transform="matrix(1.3241,0,0,0.86954,50.61,-57.213)"
         d="m 44,500.86 c 0,3.0376 -2.0147,5.5 -4.5,5.5 -2.4853,0 -4.5,-2.4624 -4.5,-5.5 0,-3.0376 2.0147,-5.5 4.5,-5.5 2.3571,0 4.3147,2.223 4.4878,5.0961"
         color="#000000"
         opacity="0.89958"
         id="path6" />
    </g>
    <g
       transform="matrix(-0.67226819,0,0,0.86788202,379.20328,120.38597)"
       stroke="#000000"
       id="g11">
      <path
         d="m 236.98,402.5 c 0,0 -3.9063,1.5706 -4.6858,0.11719 -1.4686,-2.7381 1.664,-7.2484 4.4236,-8.4322 1.6024,-0.68743 4.838,1.7189 4.838,1.7189 z"
         fill="none"
         stroke-width="1.252px"
         id="path9" />
      <path
         d="m 245.33,403.16 c 0,0 4.0405,0.69522 4.5601,-1.2411 0.97878,-3.648 -2.789,-8.0234 -5.6555,-8.6018 -1.6644,-0.33587 -4.4095,3.4424 -4.4095,3.4424 z"
         fill="none"
         stroke-width="1.3635px"
         id="path10" />
      <path
         d="m 236.3232,398.28 c 0.38459,2.4314 1.6968,5.2806 3.5434,5.7566 2.354,0.60669 5.4157,-1.6077 6.4056,-4.5231 2.7797,-8.1864 -5.2495,-21.3489 -5.2495,-21.3489 -1.51211,2.69694 -6.0072,11.8474 -4.6995,20.1154 z"
         fill="#ffffff"
         stroke-width="1.15px"
         id="path11" />
    </g>
    <path
       d="m 222.36261,437.26462 1.27254,-3.85053 c 5.62619,0.10933 10.26386,1.88445 14.97278,4.56618 l 3.59033,4.43699 -5.45629,-3.34867 c -5.35402,-3.35818 -9.47609,-1.59322 -14.37942,-1.80397 z"
       stroke="#000000"
       stroke-width="0.479517px"
       id="path13" />
    <g
       transform="matrix(-0.50770307,0,0,0.50770307,256.27496,260.00637)"
       id="g15">
      <path
         transform="matrix(-1.3241,0,0,0.86954,107.4,-57.213)"
         d="m 44,500.86 c 0,3.0376 -2.0147,5.5 -4.5,5.5 -2.4853,0 -4.5,-2.4624 -4.5,-5.5 0,-3.0376 2.0147,-5.5 4.5,-5.5 2.3571,0 4.3147,2.223 4.4878,5.0961"
         color="#000000"
         opacity="0.89958"
         id="path14" />
    </g>
    <path
       d="m 216.22764,476.13781 -2.39062,2.71199 -3.7204,1.62723 c 5.8636,-0.91038 10.16002,-0.28516 14.35409,-0.10672 l -4.50887,-2.28075 -0.89163,-2.05847 c -1.33459,0.57932 -2.11857,0.38533 -2.84232,0.10672 z"
       stroke="#000000"
       stroke-width="0.4926px"
       id="path18" />
    <path
       d="m 201.3967,480.34265 30.28373,-9.24369 c -0.26548,3.63814 2.03986,4.05198 1.84874,6.05675 l -30.28373,9.24369 c 0.34859,-3.19625 -0.26766,-5.21515 -1.84874,-6.05675 z"
       fill-rule="evenodd"
       stroke="#000000"
       stroke-width="0.633259px"
       id="path19" />
    <path
       d="m 203.24582,471.17939 30.2831,9.24558 c -2.25213,2.86955 -0.57099,4.50039 -1.84912,6.05662 l -30.2831,-9.24558 c 2.07424,-2.45661 2.69066,-4.47544 1.84912,-6.05662 z"
       fill-rule="evenodd"
       stroke="#000000"
       stroke-width="0.633259px"
       id="path20" />
  </g>
</svg>
