<svg
  xmlns="http://www.w3.org/2000/svg"
  viewBox="0 0 100 100"
  height="1"
  width="1"
>
  <path
    d="m 36.43396,97.500001 q -5.65252,0 -9.60929,-3.95677 -3.95676,-3.95676 -3.95676,-9.60928 0,-5.65252 3.95676,-9.60928 3.95677,-3.95676 9.60929,-3.95676 5.65251,0 9.60928,3.95676 Q 50,78.281431 50,83.933951 q 0,5.65252 -3.95676,9.60928 -3.95677,3.95677 -9.60928,3.95677 z m 20.23601,-15.71401 q -0.6783,-6.21777 -4.63506,-10.96588 -3.95677,-4.74812 -9.83539,-6.44387 L 54.18286,52.279851 H 22.41571 q -3.61761,0 -6.10472,-2.48711 -2.48711,-2.48711 -2.48711,-6.10472 0,-2.26101 1.18703,-4.23939 1.18703,-1.97838 3.10888,-3.22194 L 73.06228,3.3290306 q 2.0349,-1.24355 4.29591,-0.62177 2.26101,0.62177 3.50456,2.65668 1.24356,2.03491 0.62178,4.23939 -0.62178,2.2044804 -2.54363,3.4480404 l -42.50694,25.66243 h 41.15033 q 3.61761,0 6.10472,2.48711 2.48711,2.48711 2.48711,6.10472 0,2.03491 -0.50873,4.01329 -0.50872,1.97838 -1.97838,3.44803 z"
    style="stroke-width:0.11305" 
  />
</svg>
