<svg
  xmlns="http://www.w3.org/2000/svg"
  viewBox="0 0 100 100"
  height="1"
  width="1"
>
  <path
    d="M 12,78.5 Q 8.08125,78.5 5.29062,75.70937 2.5,72.91875 2.5,69 V 31 Q 2.5,27.08125 5.29062,24.29062 8.08125,21.5 12,21.5 h 76 q 3.91875,0 6.70938,2.79062 Q 97.5,27.08125 97.5,31 v 38 q 0,3.91875 -2.79062,6.70937 Q 91.91875,78.5 88,78.5 Z M 12,69 H 88 V 31 H 12 Z M 26.25,54.75 v 4.75 q 0,2.01875 1.36563,3.38437 Q 28.98125,64.25 31,64.25 q 2.01875,0 3.38437,-1.36563 Q 35.75,61.51875 35.75,59.5 v -4.75 h 4.75 q 2.01875,0 3.38437,-1.36563 Q 45.25,52.01875 45.25,50 45.25,47.98125 43.88437,46.61562 42.51875,45.25 40.5,45.25 H 35.75 V 40.5 q 0,-2.01875 -1.36563,-3.38438 Q 33.01875,35.75 31,35.75 q -2.01875,0 -3.38437,1.36562 Q 26.25,38.48125 26.25,40.5 v 4.75 H 21.5 q -2.01875,0 -3.38437,1.36562 Q 16.75,47.98125 16.75,50 q 0,2.01875 1.36563,3.38437 Q 19.48125,54.75 21.5,54.75 Z m 35.625,9.5 q 2.96875,0 5.04688,-2.07813 Q 69,60.09375 69,57.125 69,54.15625 66.92188,52.07812 64.84375,50 61.875,50 58.90625,50 56.82813,52.07812 54.75,54.15625 54.75,57.125 q 0,2.96875 2.07813,5.04687 Q 58.90625,64.25 61.875,64.25 Z M 76.125,50 q 2.96875,0 5.04688,-2.07813 Q 83.25,45.84375 83.25,42.875 83.25,39.90625 81.17188,37.82812 79.09375,35.75 76.125,35.75 q -2.96875,0 -5.04687,2.07812 Q 69,39.90625 69,42.875 69,45.84375 71.07813,47.92187 73.15625,50 76.125,50 Z M 12,69 V 31 Z"
    style="stroke-width:0.11875" 
  />
</svg>
