<svg
  xmlns="http://www.w3.org/2000/svg"
  viewBox="0 0 100 100"
  height="1"
  width="1"
>
  <path
    d="m 36.74153,49.83498 z m -10.09888,4.69716 h -4.69716 q -1.99629,0 -3.34673,-1.35043 -1.35043,-1.35044 -1.35043,-3.34673 0,-1.99629 1.35043,-3.34672 1.35044,-1.35044 3.34673,-1.35044 h 4.69716 v -4.69715 q 0,-1.99629 1.35043,-3.34673 1.35043,-1.35043 3.34672,-1.35043 1.99629,0 3.34673,1.35043 1.35043,1.35044 1.35043,3.34673 v 4.69715 h 4.69716 q 1.99629,0 3.34672,1.35044 1.35043,1.35043 1.35043,3.34672 0,1.99629 -1.35043,3.34673 -1.35043,1.35043 -3.34672,1.35043 h -4.69716 v 4.69716 q 0,1.99629 -1.35043,3.34672 -1.35044,1.35043 -3.34673,1.35043 -1.99629,0 -3.34672,-1.35043 -1.35043,-1.35043 -1.35043,-3.34672 z M 12.55117,78.01792 q -3.87515,0 -6.63473,-2.75958 Q 3.15686,72.49876 3.15686,68.62361 V 31.04635 q 0,-3.99258 2.81829,-6.75216 2.8183,-2.75958 6.81088,-2.75958 h 9.04203 l 9.51174,9.51174 H 12.55117 V 68.62361 H 55.53016 L 3.50915,16.6026 Q 2.1,15.19345 2.1,13.25587 2.1,11.31829 3.50915,9.90915 4.91829,8.5 6.85587,8.5 q 1.93758,0 3.34673,1.40915 l 79.85166,79.85167 q 1.40915,1.40914 1.40915,3.28801 0,1.87886 -1.40915,3.28801 -1.40914,1.40914 -3.34672,1.40914 -1.93758,0 -3.34672,-1.40914 L 64.92447,78.01792 Z M 75.96279,49.83498 q -2.93572,0 -4.99073,-2.055 -2.055,-2.05501 -2.055,-4.99073 0,-2.93573 2.055,-4.99073 2.05501,-2.05501 4.99073,-2.05501 2.93573,0 4.99073,2.05501 2.05501,2.055 2.05501,4.99073 0,2.93572 -2.05501,4.99073 -2.055,2.055 -4.99073,2.055 z m 11.7429,-28.18294 q 3.87515,0 6.63473,2.75958 Q 97.1,27.1712 97.1,31.04635 v 37.57726 q 0,1.99629 -1.35043,3.34672 -1.35044,1.35044 -3.34673,1.35044 -1.99629,0 -3.34672,-1.35044 -1.35043,-1.35043 -1.35043,-3.34672 V 31.04635 H 45.43127 q -1.99629,0 -3.34672,-1.35043 -1.35043,-1.35043 -1.35043,-3.34672 0,-1.9963 1.35043,-3.34673 1.35043,-1.35043 3.34672,-1.35043 z m -21.4895,30.88381 z"
    style="stroke-width:0.117429" 
  />
</svg>
