<svg
  xmlns="http://www.w3.org/2000/svg"
  viewBox="0 0 100 100"
  height="1"
  width="1"
>
  <path
    d="M 13.05557,97.5 Q 8.7014,97.5 5.60069,94.39933 2.5,91.29858 2.5,86.94441 V 34.16667 Q 2.5,20.97223 11.7361,11.7361 20.97223,2.5 34.16667,2.5 H 65.83333 Q 79.0277,2.5 88.26392,11.7361 97.5,20.97223 97.5,34.16667 v 52.77774 q 0,4.35417 -3.10062,7.45492 Q 91.29854,97.5 86.94442,97.5 Z m 0,-10.55559 H 86.94442 V 34.16667 q 0,-8.70834 -6.20129,-14.90974 -6.20146,-6.20136 -14.9098,-6.20136 H 34.16667 q -8.70834,0 -14.90974,6.20136 -6.20136,6.2014 -6.20136,14.90974 z m 10.55553,0 V 76.38892 q 0,-4.35417 3.10072,-7.45492 3.10068,-3.10067 7.45485,-3.10067 h 31.66666 q 4.35417,0 7.45484,3.10067 3.10075,3.10075 3.10075,7.45492 V 86.94441 H 65.83333 V 76.38892 H 55.27775 V 86.94441 H 44.72225 V 76.38892 H 34.16667 v 10.55549 z"
    style="stroke-width:0.131942"
  />
  <path
    id="eyes"
    d="m 56.57081,35.00425 h 18.49653 c 0.68761,0 1.24118,0.55356 1.24118,1.24118 v 7.0674 c 0,0.68761 -0.55357,1.24118 -1.24118,1.24118 H 56.57081 c -0.68761,0 -1.24117,-0.55357 -1.24117,-1.24118 v -7.0674 c 0,-0.68762 0.55356,-1.24118 1.24117,-1.24118 z m -31.63231,0 h 18.49647 c 0.68761,0 1.24118,0.55356 1.24118,1.24118 v 7.06737 c 0,0.68761 -0.55357,1.24118 -1.24118,1.24118 H 24.9385 c -0.68761,0 -1.24117,-0.55357 -1.24117,-1.24118 v -7.06737 c 0,-0.68762 0.55356,-1.24118 1.24117,-1.24118 z"
    style="fill-rule:evenodd;stroke-width:0.0918337;stroke-linecap:round;stroke-linejoin:round" 
  />
</svg>
