<svg
  xmlns="http://www.w3.org/2000/svg"
  viewBox="0 0 100 100"
  height="1"
  width="1"
>
  <path
    d="M 7.25,2.5 C 5.904168,2.5 4.774185,2.95335 3.86377,3.86377 2.953354,4.77418 2.5,5.90417 2.5,7.25 v 19 c 0,1.34583 0.453354,2.47582 1.36377,3.38623 C 4.774185,30.54665 5.904168,31 7.25,31 h 19 c 1.34583,0 2.47582,-0.45335 3.38623,-1.36377 C 30.54665,28.72582 31,27.59583 31,26.25 v -19 C 31,5.90417 30.54665,4.77418 29.63623,3.86377 28.72582,2.95335 27.59583,2.5 26.25,2.5 Z M 12,12 h 9.5 v 9.5 H 12 Z" 
    style="stroke-width:0.1"
	/>
  <path
    d="M 7.25,69 C 5.904168,69 4.774185,69.45335 3.86377,70.36377 2.953354,71.27418 2.5,72.40417 2.5,73.75 v 19 c 0,1.34583 0.453354,2.47582 1.36377,3.38623 C 4.774185,97.04665 5.904168,97.5 7.25,97.5 h 19 c 1.34583,0 2.47582,-0.45335 3.38623,-1.36377 C 30.54665,95.22582 31,94.09583 31,92.75 v -19 C 31,72.40417 30.54665,71.27418 29.63623,70.36377 28.72582,69.45335 27.59583,69 26.25,69 Z M 12,78.5 h 9.5 V 88 H 12 Z"
    style="stroke-width:0.1"
	/>
  <path
    d="m 40.5,69 c -1.34583,0 -2.47582,0.45335 -3.38623,1.36377 C 36.20335,71.27418 35.75,72.40417 35.75,73.75 v 19 c 0,1.34583 0.45335,2.47582 1.36377,3.38623 C 38.02418,97.04665 39.15417,97.5 40.5,97.5 h 19 c 1.34583,0 2.47582,-0.45335 3.38623,-1.36377 C 63.79665,95.22582 64.25,94.09583 64.25,92.75 v -19 c 0,-1.34583 -0.45335,-2.47582 -1.36377,-3.38623 C 61.97582,69.45335 60.84583,69 59.5,69 Z m 4.75,9.5 h 9.5 V 88 h -9.5 z"
    style="stroke-width:0.1"
	/>
  <path
    d="m 73.75,35.75 c -1.34583,0 -2.47582,0.45335 -3.38623,1.36377 C 69.45335,38.02418 69,39.15417 69,40.5 v 19 c 0,1.34583 0.45335,2.47582 1.36377,3.38623 0.91041,0.91042 2.0404,1.36377 3.38623,1.36377 h 19 c 1.34583,0 2.47582,-0.45335 3.38623,-1.36377 C 97.04665,61.97582 97.5,60.84583 97.5,59.5 v -19 c 0,-1.34583 -0.45335,-2.47582 -1.36377,-3.38623 C 95.22582,36.20335 94.09583,35.75 92.75,35.75 Z m 4.75,9.5 H 88 v 9.5 h -9.5 z" 
    style="stroke-width:0.1"
	/>
  <path
    d="m 40.5,35.75 c -1.34583,0 -2.47582,0.45335 -3.38623,1.36377 C 36.20335,38.02418 35.75,39.15417 35.75,40.5 v 19 c 0,1.34583 0.45335,2.47582 1.36377,3.38623 C 38.02418,63.79665 39.15417,64.25 40.5,64.25 h 19 c 1.34583,0 2.47582,-0.45335 3.38623,-1.36377 C 63.79665,61.97582 64.25,60.84583 64.25,59.5 v -19 c 0,-1.34583 -0.45335,-2.47582 -1.36377,-3.38623 C 61.97582,36.20335 60.84583,35.75 59.5,35.75 Z m 4.75,9.5 h 9.5 v 9.5 h -9.5 z" 
    style="stroke-width:0.1"
	/>
  <path
    d="m 69,26.25 v -19 Q 69,5.23125 70.36562,3.86562 71.73125,2.5 73.75,2.5 h 19 q 2.01875,0 3.38437,1.36562 Q 97.5,5.23125 97.5,7.25 v 19 q 0,2.01875 -1.36563,3.38437 Q 94.76875,31 92.75,31 h -19 Q 71.73125,31 70.36562,29.63437 69,28.26875 69,26.25 Z"
    style="fill:#d95582;stroke-width:0.1"
	/>
  <path
    d="m 35.75,26.25 v -19 q 0,-2.01875 1.36562,-3.38438 Q 38.48125,2.5 40.5,2.5 h 19 q 2.01875,0 3.38437,1.36562 Q 64.25,5.23125 64.25,7.25 v 19 q 0,2.01875 -1.36563,3.38437 Q 61.51875,31 59.5,31 h -19 Q 38.48125,31 37.11562,29.63437 35.75,28.26875 35.75,26.25 Z"
    style="fill:#4739f6;stroke-width:0.1"
	/>
  <path
    d="m 2.5,59.5 v -19 Q 2.5,38.48125 3.865625,37.11562 5.23125,35.75 7.25,35.75 h 19 q 2.01875,0 3.38438,1.36562 Q 31,38.48125 31,40.5 v 19 q 0,2.01875 -1.36562,3.38437 Q 28.26875,64.25 26.25,64.25 h -19 Q 5.23125,64.25 3.865625,62.88437 2.5,61.51875 2.5,59.5 Z"
    style="fill:#43ed3d;stroke-width:0.1"
	/>
  <path
    d="m 69,92.75 v -19 Q 69,71.73125 70.36562,70.36562 71.73125,69 73.75,69 h 19 q 2.01875,0 3.38437,1.36562 Q 97.5,71.73125 97.5,73.75 v 19 q 0,2.01875 -1.36563,3.38437 Q 94.76875,97.5 92.75,97.5 h -19 q -2.01875,0 -3.38438,-1.36563 Q 69,94.76875 69,92.75 Z"
    style="fill:#dfe047;stroke-width:0.1"
	/>
</svg>
