<svg
  xmlns="http://www.w3.org/2000/svg"
  viewBox="0 0 100 100"
  height="1"
  width="1"
>
  <path
    d="M 40.45,2.5 C 39.104168,2.5 37.974185,2.95335 37.06377,3.86377 36.153354,4.77418 35.7,5.90417 35.7,7.25 v 19 c 0,1.34583 0.453354,2.47582 1.36377,3.38623 C 37.974185,30.54665 39.104168,31 40.45,31 h 19 c 1.34583,0 2.47582,-0.45335 3.38623,-1.36377 C 63.74665,28.72582 64.2,27.59583 64.2,26.25 v -19 C 64.2,5.90417 63.74665,4.77418 62.83623,3.86377 61.92582,2.95335 60.79583,2.5 59.45,2.5 Z M 45.2,12 h 9.5 v 9.5 h -9.5 z" 
    style="stroke-width:0.1"
	/>
  <path
    d="M 73.75,2.5 C 72.40417,2.5 71.27419,2.95335 70.36378,3.86377 69.45336,4.77418 69,5.90417 69,7.25 v 19 c 0,1.34583 0.45336,2.47582 1.36378,3.38623 C 71.27419,30.54665 72.40417,31 73.75,31 h 19 c 1.34584,0 2.47582,-0.45335 3.38623,-1.36377 0.910425,-0.91041 1.363775,-2.0404 1.363775,-3.38623 v -19 c 0,-1.34583 -0.45335,-2.47582 -1.363775,-3.38623 C 95.22582,2.95335 94.09584,2.5 92.75,2.5 Z M 78.5,12 H 88 v 9.5 h -9.5 z" 
    style="stroke-width:0.1"
	/>
  <path
    d="m 40.45,69 c -1.34583,0 -2.47582,0.45335 -3.38623,1.36377 C 36.15335,71.27418 35.7,72.40417 35.7,73.75 v 19 c 0,1.34583 0.45335,2.47582 1.36377,3.38623 C 37.97418,97.04665 39.10417,97.5 40.45,97.5 h 19 c 1.34583,0 2.47582,-0.45335 3.38623,-1.36377 C 63.74665,95.22582 64.2,94.09583 64.2,92.75 v -19 c 0,-1.34583 -0.45335,-2.47582 -1.36377,-3.38623 C 61.92582,69.45335 60.79583,69 59.45,69 Z m 4.75,9.5 h 9.5 V 88 h -9.5 z" 
    style="stroke-width:0.1"
	/>
  <path
    d="m 73.75,69 c -1.34583,0 -2.47582,0.45335 -3.38623,1.36377 C 69.45335,71.27418 69,72.40417 69,73.75 v 19 c 0,1.34583 0.45335,2.47582 1.36377,3.38623 C 71.27418,97.04665 72.40417,97.5 73.75,97.5 h 19.000005 c 1.34583,0 2.47582,-0.45335 3.38622,-1.36377 0.91043,-0.91041 1.36378,-2.0404 1.36378,-3.38623 v -19 c 0,-1.34583 -0.45335,-2.47582 -1.36378,-3.38623 C 95.225825,69.45335 94.095835,69 92.750005,69 Z m 4.750005,9.5 h 9.5 V 88 h -9.5 z" 
    style="stroke-width:0.1"
	/>
  <path
    d="M 7.25,35.7 C 5.90417,35.7 4.77418,36.15335 3.86377,37.06377 2.95335,37.97418 2.5,39.10417 2.5,40.45 v 19 c 0,1.34583 0.45335,2.47582 1.36377,3.38623 C 4.77418,63.74665 5.90417,64.2 7.25,64.2 h 19 c 1.34583,0 2.47582,-0.45335 3.38623,-1.36377 C 30.54665,61.92582 31,60.79583 31,59.45 v -19 C 31,39.10417 30.54665,37.97418 29.63623,37.06377 28.72582,36.15335 27.59583,35.7 26.25,35.7 Z M 12,45.2 h 9.5 v 9.5 H 12 Z" 
    style="stroke-width:0.1"
	/>
  <path
    d="m 2.5,92.75 v -19 Q 2.5,71.73125 3.86562,70.36562 5.23125,69 7.25,69 h 19 q 2.01875,0 3.38437,1.36562 Q 31,71.73125 31,73.75 v 19 q 0,2.01875 -1.36563,3.38437 Q 28.26875,97.5 26.25,97.5 h -19 Q 5.23125,97.5 3.86562,96.13437 2.5,94.76875 2.5,92.75 Z"
    style="fill:#d95582;stroke-width:0.1"
	/>
  <path
    d="m 2.5,26.25 v -19 Q 2.5,5.23125 3.86562,3.86562 5.23125,2.5 7.25,2.5 h 19 q 2.01875,0 3.38437,1.36562 Q 31,5.23125 31,7.25 v 19 q 0,2.01875 -1.36563,3.38437 Q 28.26875,31 26.25,31 h -19 Q 5.23125,31 3.86562,29.63437 2.5,28.26875 2.5,26.25 Z"
    style="fill:#4739f6;stroke-width:0.1"
	/>
  <path
    d="m 35.703125,59.45 v -19 q 0,-2.01875 1.365625,-3.38438 Q 38.434375,35.7 40.453125,35.7 h 19 q 2.01875,0 3.38438,1.36562 1.36562,1.36563 1.36562,3.38438 v 19 q 0,2.01875 -1.36562,3.38437 Q 61.471875,64.2 59.453125,64.2 h -19 q -2.01875,0 -3.384375,-1.36563 Q 35.703125,61.46875 35.703125,59.45 Z"
    style="fill:#43ed3d;stroke-width:0.1"
	/>
  <path
    d="m 69,59.45 v -19 Q 69,38.43125 70.36562,37.06562 71.73125,35.7 73.75,35.7 h 19 q 2.01875,0 3.38437,1.36562 Q 97.5,38.43125 97.5,40.45 v 19 q 0,2.01875 -1.36563,3.38437 Q 94.76875,64.2 92.75,64.2 h -19 q -2.01875,0 -3.38438,-1.36563 Q 69,61.46875 69,59.45 Z"
    style="fill:#dfe047;stroke-width:0.1"
	/>
</svg>
