<svg
  xmlns="http://www.w3.org/2000/svg"
  viewBox="0 0 100 100"
  height="1"
  width="1"
  xmlns:svg="http://www.w3.org/2000/svg"
>
  <path
    d="m 30.08982,81.275059 q -1.23666,-3.58631 -2.28782,-7.29628 -1.05116,-3.70997 -1.66948,-7.41994 l -5.81229,3.9573 v 14.71622 z m 18.17886,-66.16116 q -5.93596,6.30695 -9.52226,16.63304 -3.58631,10.32609 -3.58631,21.70333 0,7.41995 1.36033,14.53072 1.36032,7.11078 3.5863,12.05741 h 19.78651 q 2.22599,-4.94663 3.58631,-12.05741 1.36032,-7.11077 1.36032,-14.53072 0,-11.37724 -3.5863,-21.70333 -3.58631,-10.32609 -9.52226,-16.63304 -0.371,-0.37099 -0.80383,-0.55649 -0.43283,-0.1855 -0.92749,-0.1855 -0.49466,0 -0.92749,0.1855 -0.43283,0.1855 -0.80383,0.55649 z M 50,55.305259 q -4.08097,0 -6.98711,-2.90615 -2.90615,-2.90614 -2.90615,-6.98711 0,-4.08097 2.90615,-6.98711 2.90614,-2.90614 6.98711,-2.90614 4.08097,0 6.98711,2.90614 2.90614,2.90614 2.90614,6.98711 0,4.08097 -2.90614,6.98711 -2.90614,2.90615 -6.98711,2.90615 z m 19.91018,25.9698 9.76959,3.9573 v -14.71622 l -5.81229,-3.9573 q -0.61833,3.70997 -1.66949,7.41994 -1.05116,3.70997 -2.28781,7.29628 z M 53.83363,3.8603186 q 10.38792,8.9039304 15.64372,21.8888304 5.25579,12.9849 5.25579,29.55611 l 10.38792,6.92528 q 2.10232,1.36032 3.27714,3.5863 1.17483,2.22599 1.17483,4.6993 v 22.0125 q 0,2.59698 -2.16415,4.08097 -2.16415,1.48399 -4.63747,0.49466 l -17.80786,-7.17261 h -29.9271 l -17.80787,7.17261 q -2.47331,0.98933 -4.63746,-0.49466 -2.16415,-1.48399 -2.16415,-4.08097 v -22.0125 q 0,-2.47331 1.17482,-4.6993 1.17483,-2.22598 3.27715,-3.5863 l 10.38792,-6.92528 q 0,-16.57121 5.25579,-29.55611 5.25579,-12.9849 15.64371,-21.8888304 0.86566,-0.61833 1.85499,-0.98932 0.98932,-0.371 1.97865,-0.371 0.98932,0 1.97865,0.371 0.98932,0.37099 1.85498,0.98932 z"
    style="stroke-width:0.123666" 
  />
</svg>
