<svg
  xmlns="http://www.w3.org/2000/svg"
  viewBox="0 0 100 100"
  height="1"
  width="1"
>
  <path
    d="M 36.309588,79.782837 69.904343,54.942229 49.796308,50.051917 60.379018,22.410017 28.968395,50.310875 46.437249,54.559333 Z M 32.42998,61.801417 16.846254,58.011427 q -3.016206,-0.733547 -3.804343,-3.787053 -0.788125,-3.053503 1.582617,-5.139107 l 50.7196,-44.9015722 q 1.684655,-1.4538094 3.863564,-1.6559973 2.178898,-0.2021803 4.131981,1.0715094 1.953094,1.2736474 2.500029,3.4032925 0.546935,2.129644 -0.22401,4.2049956 l -11.937801,31.571815 19.47966,4.737488 q 3.267558,0.794677 3.884162,4.006122 0.616613,3.211461 -2.131155,5.20537 L 31.521021,96.18862 q -1.779766,1.29757 -3.912818,1.31124 -2.133062,0.0137 -3.804241,-1.324523 -1.671179,-1.338193 -2.296239,-3.420278 -0.62505,-2.082094 0.145895,-4.157434 z M 49.742013,51.369799 Z"
    style="stroke-width:0.129339" 
  />
</svg>
