<svg
  xmlns="http://www.w3.org/2000/svg"
  viewBox="0 0 100 100"
  height="1"
  width="1"
>
  <path
    d="m 50.11875,88.35625 q -3.5625,2.375 -7.659375,3.38438 Q 38.3625,92.75 34.20625,92.75 30.05,92.75 26.0125,91.62188 21.975,90.49375 18.29375,88.35625 15.68125,89.9 12.890625,90.90938 10.1,91.91875 7.13125,92.39375 5.23125,92.63125 3.865625,91.325 2.5,90.01875 2.5,88 q 0,-2.01875 1.30625,-3.44375 1.30625,-1.425 3.325,-1.9 2.25625,-0.59375 4.215625,-1.54375 1.959375,-0.95 3.859375,-2.25625 1.30625,-0.95 3.028125,-0.95 1.721875,0 3.028125,0.95 2.85,2.01875 6.175,3.14688 3.325,1.12812 6.76875,1.12812 3.44375,0 6.828125,-1.06875 3.384375,-1.06875 6.234375,-3.0875 1.30625,-0.95 2.96875,-0.89062 1.6625,0.0594 2.96875,1.00937 2.85,2.01875 6.115625,3.02813 3.265625,1.00937 6.709375,1.00937 3.5625,0 6.8875,-1.24687 3.325,-1.24688 6.29375,-3.26563 1.30625,-0.83125 2.73125,-0.89062 1.425,-0.0594 2.73125,0.89062 1.9,1.30625 3.8,2.375 1.9,1.06875 4.15625,1.6625 Q 94.65,83.25 96.075,84.61563 97.5,85.98125 97.5,88 q 0,2.01875 -1.425,3.38438 -1.425,1.36562 -3.44375,1.00937 -2.85,-0.475 -5.52187,-1.54375 -2.67188,-1.06875 -5.16563,-2.49375 -3.5625,2.1375 -7.65937,3.26563 Q 70.1875,92.75 66.03125,92.75 61.875,92.75 57.778125,91.62188 53.68125,90.49375 50.11875,88.35625 Z M 2.5,71.375 v -9.5 Q 2.5,50.35625 6.953125,40.38125 11.40625,30.40625 19.125,23.04375 26.84375,15.68125 37.234375,11.46563 47.625,7.25 59.5,7.25 q 2.01875,0 4.21563,0.0594 2.19687,0.0594 4.21562,0.41562 2.375,0.35625 3.50313,2.49375 1.12812,2.1375 0.0594,4.275 -1.1875,2.49375 -1.84062,4.9875 -0.65313,2.49375 -0.65313,5.225 0,6.53125 4.63125,11.1625 4.63125,4.63125 11.1625,4.63125 H 92.75 q 2.01875,0 3.38437,1.36563 Q 97.5,43.23125 97.5,45.25 q 0,2.01875 -1.36563,3.38438 Q 94.76875,50 92.75,50 H 84.79375 Q 74.225,50 66.8625,42.6375 59.5,35.275 59.5,24.70625 q 0,-1.6625 0.2375,-3.50312 Q 59.975,19.3625 60.45,17.58125 51.6625,19.71875 46.08125,26.66563 40.5,33.6125 40.5,42.875 q 0,4.275 1.365625,8.13438 1.365625,3.85937 3.859375,7.30312 l 1.54375,-1.06875 q 1.30625,-0.95 2.73125,-0.95 1.425,0 2.73125,0.95 2.73125,1.9 6.353125,3.20625 3.621875,1.30625 6.946875,1.30625 3.325,0 6.94688,-1.30625 3.62187,-1.30625 6.35312,-3.20625 1.30625,-0.83125 2.67188,-0.89062 1.36562,-0.0594 2.67187,0.77187 l 2.6125,1.78125 q 1.30625,0.7125 2.67188,1.36563 Q 91.325,60.925 92.75,61.28125 94.76875,61.875 96.13437,63.24063 97.5,64.60625 97.5,66.625 q 0,2.01875 -1.425,3.38438 Q 94.65,71.375 92.63125,71.01875 89.9,70.54375 87.22813,69.53438 84.55625,68.525 81.94375,66.98125 q -3.8,2.375 -7.71875,3.38438 -3.91875,1.00937 -8.19375,1.00937 -4.275,0 -8.55,-1.1875 Q 53.20625,69 50.11875,66.98125 46.4375,69.2375 42.4,70.24688 38.3625,71.25625 34.20625,71.375 30.05,71.49375 26.0125,70.30625 21.975,69.11875 18.29375,66.98125 14.6125,69.11875 10.634375,70.24688 6.65625,71.375 2.5,71.375 Z m 31.46875,-9.61875 h 1.1875 q 0.59375,0 1.1875,-0.11875 -2.6125,-4.15625 -3.978125,-8.90625 Q 31,47.98125 31,42.875 31,33.25625 35.39375,25.47813 39.7875,17.7 47.625,12.7125 v 5.225 q -7.3625,1.9 -13.596875,5.75938 -6.234375,3.85937 -10.925,9.32187 Q 18.4125,38.48125 15.5625,45.19063 12.7125,51.9 12.11875,59.5 q 0.95,-0.59375 1.78125,-1.06875 0.83125,-0.475 1.6625,-1.06875 1.30625,-0.95 2.73125,-1.00937 1.425,-0.0594 2.73125,0.89062 1.06875,0.7125 2.1375,1.30625 1.06875,0.59375 2.25625,1.1875 2.01875,0.95 4.15625,1.48438 2.1375,0.53437 4.39375,0.53437 z M 29.93125,37.175 Z"
    style="stroke-width:0.120333;paint-order:stroke fill markers"
  />
</svg>
