<svg
  xmlns="http://www.w3.org/2000/svg"
  viewBox="0 0 100 100"
  height="1"
  width="1"
>
  <path
    d="m 50.186973,97.5 q -6.76875,0 -11.99375,-4.275 -5.225,-4.275 -6.53125,-10.925 -6.29375,2.01875 -12.70625,-0.2375 -6.4125,-2.25625 -9.8562496,-7.8375 -3.5625,-5.7 -2.6125,-12.64687 Q 7.4369734,54.63125 12.661973,50 7.6744734,45.4875 6.6650934,38.8375 q -1.00937,-6.65 2.19688,-12.35 3.2062496,-5.7 9.6781196,-8.25312 6.47188,-2.55313 12.88438,-0.53438 1.30625,-6.65 6.53125,-10.925 5.225,-4.275 11.99375,-4.275 6.76875,0 11.99375,4.275 5.225,4.275 6.53125,10.925 6.65,-2.01875 12.88437,0.35625 6.23438,2.375 9.67813,8.43125 3.20625,5.9375 2.31562,12.40938 -0.89062,6.47187 -6.11562,11.10312 5.225,4.63125 6.23437,11.45938 1.00938,6.82812 -2.19687,12.76562 -3.44375,6.05625 -9.67813,8.075 -6.23437,2.01875 -12.88437,0 -1.30625,6.65 -6.53125,10.925 -5.225,4.275 -11.99375,4.275 z m 0,-9.5 q 5.58125,0 8.37187,-4.80937 2.79063,-4.80938 -0.0594,-9.44063 l -3.325,-5.4625 q -1.30625,0.35625 -2.49375,0.53437 Q 51.493193,69 50.186943,69 q -1.1875,0 -2.43438,-0.17813 -1.24687,-0.17812 -2.55312,-0.53437 l -3.325,5.4625 q -2.85,4.63125 -0.0594,9.44063 Q 44.605673,88 50.186923,88 Z m -33.25,-19 q 2.85,4.86875 8.37187,4.86875 5.52188,0 8.25313,-4.86875 l 3.0875,-5.4625 q -0.95,-0.95 -1.78125,-2.01875 -0.83125,-1.06875 -1.425,-2.25625 -0.59375,-1.06875 -1.06875,-2.19687 -0.475,-1.12813 -0.83125,-2.31563 h -6.29375 q -5.58125,0 -8.3125,4.69063 -2.73125,4.69062 0,9.55937 z m 49.4,0 q 2.73125,4.86875 8.25312,4.86875 5.52188,0 8.37188,-4.86875 2.73125,-4.86875 0,-9.55937 Q 80.230723,54.75 74.649473,54.75 h -6.29375 q -0.2375,1.1875 -0.77188,2.31563 -0.53437,1.12812 -1.12812,2.19687 -0.59375,1.1875 -1.425,2.25625 -0.83125,1.06875 -1.78125,2.01875 z m -16.3875,-19 z m -18.40625,-4.75 q 0.35625,-1.30625 0.89062,-2.55313 0.53438,-1.24687 1.12813,-2.31562 0.59375,-1.06875 1.36562,-2.01875 0.77188,-0.95 1.72188,-1.9 L 33.561973,31 q -2.73125,-4.86875 -8.25313,-4.86875 -5.52187,0 -8.37187,4.86875 -2.73125,4.86875 0,9.55938 2.73125,4.69062 8.3125,4.69062 z m 43.10625,0 q 5.58125,0 8.3125,-4.69062 2.73125,-4.69063 0,-9.55938 -2.85,-4.86875 -8.37188,-4.86875 -5.52187,0 -8.25312,4.86875 l -3.0875,5.4625 q 0.95,0.95 1.72187,1.9 0.77188,0.95 1.36563,2.01875 0.59375,1.06875 1.12812,2.31562 0.53438,1.24688 0.89063,2.55313 z M 44.843223,31.7125 q 1.30625,-0.35625 2.55312,-0.53437 Q 48.643223,31 49.949473,31 q 1.30625,0 2.55312,0.17813 1.24688,0.17812 2.55313,0.53437 l 3.20625,-5.4625 q 2.73125,-4.63125 0,-9.44062 Q 55.530723,12 49.949473,12 q -5.58125,0 -8.3125,4.75 -2.73125,4.75 0,9.5 z m 0,0 q 1.30625,-0.35625 2.55312,-0.53437 Q 48.643223,31 49.949473,31 q 1.30625,0 2.55312,0.17813 1.24688,0.17812 2.55313,0.53437 -1.30625,-0.35625 -2.55313,-0.53437 Q 51.255723,31 49.949473,31 q -1.30625,0 -2.55313,0.17813 -1.24687,0.17812 -2.55312,0.53437 z m -11.4,27.55 q -0.59375,-1.06875 -1.06875,-2.19687 -0.475,-1.12813 -0.83125,-2.31563 0.35625,1.1875 0.83125,2.31563 0.475,1.12812 1.06875,2.19687 0.59375,1.1875 1.425,2.25625 0.83125,1.06875 1.78125,2.01875 -0.95,-0.95 -1.78125,-2.01875 -0.83125,-1.06875 -1.425,-2.25625 z m -1.9,-14.0125 q 0.35625,-1.30625 0.89062,-2.55313 0.53438,-1.24687 1.12813,-2.31562 0.59375,-1.06875 1.36562,-2.01875 0.77188,-0.95 1.72188,-1.9 -0.95,0.95 -1.72188,1.9 -0.77187,0.95 -1.36562,2.01875 -0.59375,1.06875 -1.12813,2.31562 -0.53437,1.24688 -0.89062,2.55313 z M 50.186973,69 q -1.1875,0 -2.43438,-0.17813 -1.24687,-0.17812 -2.55312,-0.53437 1.30625,0.35625 2.55312,0.53437 Q 48.999473,69 50.186973,69 q 1.30625,0 2.49375,-0.17813 1.1875,-0.17812 2.49375,-0.53437 -1.30625,0.35625 -2.49375,0.53437 Q 51.493223,69 50.186973,69 Z m 13.0625,-5.4625 q 0.95,-0.95 1.78125,-2.01875 0.83125,-1.06875 1.425,-2.25625 0.59375,-1.06875 1.12812,-2.19687 0.53438,-1.12813 0.77188,-2.31563 -0.2375,1.1875 -0.77188,2.31563 -0.53437,1.12812 -1.12812,2.19687 -0.59375,1.1875 -1.425,2.25625 -0.83125,1.06875 -1.78125,2.01875 z M 68.355723,45.25 q -0.35625,-1.30625 -0.89063,-2.55313 -0.53437,-1.24687 -1.12812,-2.31562 -0.59375,-1.06875 -1.36563,-2.01875 -0.77187,-0.95 -1.72187,-1.9 0.95,0.95 1.72187,1.9 0.77188,0.95 1.36563,2.01875 0.59375,1.06875 1.12812,2.31562 0.53438,1.24688 0.89063,2.55313 z M 49.949473,59.5 q 3.91875,0 6.70937,-2.79062 2.79063,-2.79063 2.79063,-6.70938 0,-3.91875 -2.79063,-6.70938 Q 53.868223,40.5 49.949473,40.5 q -3.91875,0 -6.70938,2.79062 -2.79062,2.79063 -2.79062,6.70938 0,3.91875 2.79062,6.70938 2.79063,2.79062 6.70938,2.79062 z"
    style="stroke-width:0.11875"
  />
</svg>
