{
	"asset":{
		"generator":"Khronos glTF Blender I/O v3.6.27",
		"version":"2.0"
	},
	"scene":0,
	"scenes":[
		{
			"name":"Scene",
			"nodes":[
				0
			]
		}
	],
	"nodes":[
		{
			"mesh":0,
			"name":"vikingHelmet",
			"scale":[
				0.00867235567420721,
				0.00867235567420721,
				0.00867235567420721
			]
		}
	],
	"materials":[
		{
			"doubleSided":true,
			"name":"Scene_-_Root.004",
			"normalTexture":{
				"index":0
			},
			"occlusionTexture":{
				"index":1
			},
			"pbrMetallicRoughness":{
				"baseColorTexture":{
					"index":2
				},
				"metallicRoughnessTexture":{
					"index":1
				}
			}
		}
	],
	"meshes":[
		{
			"name":"Fin__0.001",
			"primitives":[
				{
					"attributes":{
						"POSITION":0,
						"NORMAL":1,
						"TEXCOORD_0":2
					},
					"indices":3,
					"material":0
				}
			]
		}
	],
	"textures":[
		{
			"sampler":0,
			"source":0
		},
		{
			"sampler":0,
			"source":1
		},
		{
			"sampler":0,
			"source":2
		}
	],
	"images":[
		{
			"mimeType":"image/png",
			"name":"Scene_-_Root_normal",
			"uri":"texs2/Scene_-_Root_normal.png"
		},
		{
			"mimeType":"image/png",
			"name":"Scene_-_Root_metallicRoughness",
			"uri":"texs2/Scene_-_Root_metallicRoughness.png"
		},
		{
			"mimeType":"image/png",
			"name":"Scene_-_Root_baseColor",
			"uri":"texs2/Scene_-_Root_baseColor.png"
		}
	],
	"accessors":[
		{
			"bufferView":0,
			"componentType":5126,
			"count":24839,
			"max":[
				81.81404876708984,
				94.26914978027344,
				84.33101654052734
			],
			"min":[
				-81.81404876708984,
				-94.26914978027344,
				-84.33101654052734
			],
			"type":"VEC3"
		},
		{
			"bufferView":1,
			"componentType":5126,
			"count":24839,
			"type":"VEC3"
		},
		{
			"bufferView":2,
			"componentType":5126,
			"count":24839,
			"type":"VEC2"
		},
		{
			"bufferView":3,
			"componentType":5123,
			"count":111360,
			"type":"SCALAR"
		}
	],
	"bufferViews":[
		{
			"buffer":0,
			"byteLength":298068,
			"byteOffset":0,
			"target":34962
		},
		{
			"buffer":0,
			"byteLength":298068,
			"byteOffset":298068,
			"target":34962
		},
		{
			"buffer":0,
			"byteLength":198712,
			"byteOffset":596136,
			"target":34962
		},
		{
			"buffer":0,
			"byteLength":222720,
			"byteOffset":794848,
			"target":34963
		}
	],
	"samplers":[
		{
			"magFilter":9729,
			"minFilter":9987
		}
	],
	"buffers":[
		{
			"byteLength":1017568,
			"uri":"vikingHelmet2.bin"
		}
	]
}
