<?xml version="1.0" encoding="UTF-8" standalone="no"?>
<svg
   width="32"
   height="32"
   viewBox="0 0 24.00299 24.002987"
   version="1.1"
   id="svg1"
   sodipodi:docname="mustacheIcon4.svg"
   inkscape:version="1.3.2 (091e20e, 2023-11-25, custom)"
   xmlns:inkscape="http://www.inkscape.org/namespaces/inkscape"
   xmlns:sodipodi="http://sodipodi.sourceforge.net/DTD/sodipodi-0.dtd"
   xmlns="http://www.w3.org/2000/svg"
   xmlns:svg="http://www.w3.org/2000/svg">
  <defs
     id="defs1" />
  <sodipodi:namedview
     id="namedview1"
     pagecolor="#ffffff"
     bordercolor="#000000"
     borderopacity="0.25"
     inkscape:showpageshadow="2"
     inkscape:pageopacity="0.0"
     inkscape:pagecheckerboard="0"
     inkscape:deskcolor="#d1d1d1"
     inkscape:document-units="px"
     inkscape:zoom="22.627417"
     inkscape:cx="20.152543"
     inkscape:cy="19.997864"
     inkscape:window-width="1920"
     inkscape:window-height="1009"
     inkscape:window-x="-8"
     inkscape:window-y="-8"
     inkscape:window-maximized="1"
     inkscape:current-layer="svg1" />
  <path
     id="path1-6"
     style="fill:none;stroke:#fff;stroke-width:0.75006997;stroke-linecap:round;stroke-linejoin:round;stroke-dasharray:none;stroke-opacity:1"
     d="m 16.610973,13.768965 c 0,0 2.491925,0.366976 2.943405,0.372198 0.45148,0.0052 2.728823,0.175654 3.21211,-0.761487 0.122484,-0.237372 0.108242,-0.49848 0.111091,-0.761488 -1.476449,0.124383 -1.922711,0.565893 -3.513098,0 C 17.802579,12.053245 15.758334,10.253968 14.522103,9.9539316 13.707446,9.7554886 12.569388,9.7886418 12.0015,10.438005 11.433611,9.7883136 10.295553,9.7551605 9.4808943,9.9536024 8.2446653,10.253639 6.2004192,12.052916 4.6385172,12.61786 c -1.5903873,0.565891 -2.0366491,0.124381 -3.5130975,0 0.00282,0.263007 -0.011398,0.524114 0.1110902,0.761487 0.4832867,0.937141 2.7606297,0.76671 3.21211,0.761488 0.4514812,-0.0052 2.9434057,-0.372198 2.9434057,-0.372198 1.858142,-0.306686 3.4620244,-0.383636 4.6094744,-2.088745 1.147448,1.705439 2.751331,1.782389 4.609473,2.089073 z"
     sodipodi:nodetypes="cscccccccccsccc" />
</svg>
