<?xml version="1.0" encoding="UTF-8" standalone="no"?>
<svg
   width="32"
   height="32"
   viewBox="0 0 24.00299 24.002987"
   version="1.1"
   id="svg1"
   sodipodi:docname="threeDim_mustacheOffIcon4.svg"
   inkscape:version="1.3.2 (091e20e, 2023-11-25, custom)"
   xmlns:inkscape="http://www.inkscape.org/namespaces/inkscape"
   xmlns:sodipodi="http://sodipodi.sourceforge.net/DTD/sodipodi-0.dtd"
   xmlns:xlink="http://www.w3.org/1999/xlink"
   xmlns="http://www.w3.org/2000/svg"
   xmlns:svg="http://www.w3.org/2000/svg">
  <defs
     id="defs1">
    <linearGradient
       id="linearGradient3"
       inkscape:collect="always">
      <stop
         style="stop-color:#2e91f5;stop-opacity:0.3982684;"
         offset="0"
         id="stop3" />
      <stop
         style="stop-color:#2e91f5;stop-opacity:0.85281384;"
         offset="0.89999998"
         id="stop4" />
    </linearGradient>
    <linearGradient
       id="linearGradient1"
       inkscape:collect="always">
      <stop
         style="stop-color:#f56314;stop-opacity:0.85497838;"
         offset="0.1"
         id="stop1" />
      <stop
         style="stop-color:#f56314;stop-opacity:0.40043291;"
         offset="1"
         id="stop2" />
    </linearGradient>
    <linearGradient
       inkscape:collect="always"
       xlink:href="#linearGradient1"
       id="linearGradient2"
       x1="0.18752335"
       y1="12.001177"
       x2="22.690325"
       y2="12.001177"
       gradientUnits="userSpaceOnUse" />
    <linearGradient
       inkscape:collect="always"
       xlink:href="#linearGradient3"
       id="linearGradient4"
       x1="1.3126634"
       y1="11.251084"
       x2="23.815465"
       y2="11.251084"
       gradientUnits="userSpaceOnUse" />
  </defs>
  <sodipodi:namedview
     id="namedview1"
     pagecolor="#ffffff"
     bordercolor="#000000"
     borderopacity="0.25"
     inkscape:showpageshadow="2"
     inkscape:pageopacity="0.0"
     inkscape:pagecheckerboard="0"
     inkscape:deskcolor="#d1d1d1"
     inkscape:document-units="px"
     inkscape:zoom="22.627417"
     inkscape:cx="12.860505"
     inkscape:cy="14.694563"
     inkscape:window-width="1920"
     inkscape:window-height="1009"
     inkscape:window-x="-8"
     inkscape:window-y="-8"
     inkscape:window-maximized="1"
     inkscape:current-layer="svg1" />
  <path
     id="path1-1"
     style="fill:url(#linearGradient4);stroke:#2e91f5;stroke-width:0.749782;stroke-linecap:round;stroke-linejoin:round;stroke-dasharray:none;stroke-opacity:1"
     d="M 12.5524,8.6934129 C 11.844489,8.1303662 10.664055,8.3039683 9.8586901,8.6573316 8.6325331,9.1941008 6.8430311,11.432012 5.327813,12.302778 c -1.544561,0.876955 -2.0876478,0.501001 -3.6402655,0.641877 0.050971,0.272013 0.083951,0.545171 0.2542426,0.768756 0.6720052,0.882761 3.0006455,0.290069 3.467514,0.202168 0.4668657,-0.08792 2.981948,-0.92346 2.981948,-0.92346 1.8665209,-0.656285 3.6918199,-1.732319 4.1674149,-3.0084373 0.488561,1.2789283 2.609531,2.4509393 4.178211,2.9888343 v 0 c 0,0 2.515078,0.835559 2.981947,0.92346 0.466864,0.08792 2.795508,0.680594 3.467513,-0.202167 0.170289,-0.223586 0.203237,-0.49675 0.254243,-0.768756 -1.552616,-0.140877 -2.095704,0.235078 -3.640265,-0.641877 -1.515217,-0.870767 -3.304718,-3.108679 -4.530877,-3.6454475 -0.807889,-0.3544717 -1.993202,-0.5280526 -2.700291,0.041056 -0.0014,-0.00243 -0.003,-0.00486 -0.0044,-0.00727"
     sodipodi:nodetypes="ccccccccscccccccc" />
  <path
     id="path1"
     style="fill:url(#linearGradient2);stroke:#f56314;stroke-width:0.749782;stroke-linecap:round;stroke-linejoin:round;stroke-dasharray:none;stroke-opacity:1"
     d="M 11.42726,9.4435063 C 10.719349,8.8804596 9.5389151,9.0540617 8.7335498,9.407425 c -1.226157,0.5367692 -3.015659,2.77468 -4.5308769,3.645446 -1.544561,0.876955 -2.0876478,0.501001 -3.64026549,0.641877 0.050971,0.272013 0.083951,0.545171 0.2542426,0.768756 0.67200519,0.882761 3.00064549,0.290069 3.46751399,0.202168 0.4668657,-0.08792 2.9819475,-0.92346 2.9819475,-0.92346 1.8665212,-0.656285 3.6918205,-1.732319 4.1674155,-3.008437 0.488561,1.278928 2.609531,2.450939 4.178211,2.988834 v 0 c 0,0 2.515078,0.835559 2.981947,0.92346 0.466864,0.08792 2.795508,0.680594 3.467513,-0.202167 0.170289,-0.223586 0.203237,-0.49675 0.254243,-0.768756 -1.552616,-0.140877 -2.095704,0.235078 -3.640265,-0.641877 -1.515217,-0.870767 -3.304718,-3.1086786 -4.530877,-3.6454471 -0.807889,-0.3544717 -1.993202,-0.5280526 -2.700291,0.041056 -0.0014,-0.00243 -0.003,-0.00486 -0.0044,-0.00727"
     sodipodi:nodetypes="ccccccccscccccccc" />
</svg>
