<?xml version="1.0" encoding="UTF-8" standalone="no"?>
<svg
   width="32"
   height="32"
   viewBox="0 0 24.00299 24.002987"
   version="1.1"
   id="svg1"
   sodipodi:docname="threeDim_mustacheIcon4.svg"
   inkscape:version="1.3.2 (091e20e, 2023-11-25, custom)"
   xmlns:inkscape="http://www.inkscape.org/namespaces/inkscape"
   xmlns:sodipodi="http://sodipodi.sourceforge.net/DTD/sodipodi-0.dtd"
   xmlns:xlink="http://www.w3.org/1999/xlink"
   xmlns="http://www.w3.org/2000/svg"
   xmlns:svg="http://www.w3.org/2000/svg">
  <defs
     id="defs1">
    <linearGradient
       id="linearGradient3"
       inkscape:collect="always">
      <stop
         style="stop-color:#2e91f5;stop-opacity:0.40043291;"
         offset="0"
         id="stop3" />
      <stop
         style="stop-color:#2e91f5;stop-opacity:0.85281384;"
         offset="0.89576548"
         id="stop4" />
    </linearGradient>
    <linearGradient
       id="linearGradient1"
       inkscape:collect="always">
      <stop
         style="stop-color:#f56314;stop-opacity:0.85497838;"
         offset="0.09934854"
         id="stop1" />
      <stop
         style="stop-color:#f56314;stop-opacity:0.40043291;"
         offset="1"
         id="stop2" />
    </linearGradient>
    <linearGradient
       inkscape:collect="always"
       xlink:href="#linearGradient1"
       id="linearGradient2"
       x1="0.18752335"
       y1="12.001494"
       x2="22.690323"
       y2="12.001494"
       gradientUnits="userSpaceOnUse" />
    <linearGradient
       inkscape:collect="always"
       xlink:href="#linearGradient3"
       id="linearGradient4"
       x1="1.3126634"
       y1="11.251045"
       x2="23.815463"
       y2="11.251045"
       gradientUnits="userSpaceOnUse" />
  </defs>
  <sodipodi:namedview
     id="namedview1"
     pagecolor="#ffffff"
     bordercolor="#000000"
     borderopacity="0.25"
     inkscape:showpageshadow="2"
     inkscape:pageopacity="0.0"
     inkscape:pagecheckerboard="0"
     inkscape:deskcolor="#d1d1d1"
     inkscape:document-units="px"
     inkscape:zoom="22.627417"
     inkscape:cx="20.152543"
     inkscape:cy="19.997864"
     inkscape:window-width="1920"
     inkscape:window-height="1009"
     inkscape:window-x="-8"
     inkscape:window-y="-8"
     inkscape:window-maximized="1"
     inkscape:current-layer="svg1" />
  <path
     id="path1-6-1"
     style="fill:url(#linearGradient4);stroke:#2e91f5;stroke-width:0.75007;stroke-linecap:round;stroke-linejoin:round;stroke-dasharray:none;stroke-opacity:1"
     d="m 17.173542,13.018516 c 0,0 2.491925,0.366976 2.943405,0.372198 0.45148,0.0052 2.728823,0.175654 3.21211,-0.761487 0.122484,-0.237372 0.108242,-0.49848 0.111091,-0.761488 -1.476449,0.124383 -1.922711,0.565893 -3.513098,0 C 18.365148,11.302796 16.320903,9.5035193 15.084672,9.2034831 14.270015,9.0050401 13.131957,9.0381933 12.564069,9.6875563 11.99618,9.0378651 10.858122,9.004712 10.043463,9.2031539 8.8072341,9.5031903 6.7629885,11.302467 5.2010865,11.867411 c -1.5903873,0.565891 -2.0366491,0.124381 -3.5130975,0 0.00282,0.263007 -0.011398,0.524114 0.1110902,0.761487 0.4832867,0.937141 2.7606297,0.76671 3.21211,0.761488 0.4514812,-0.0052 2.9434059,-0.372198 2.9434059,-0.372198 1.858142,-0.306686 3.4620239,-0.383636 4.6094739,-2.088745 1.147448,1.705439 2.751331,1.782389 4.609473,2.089073 z"
     sodipodi:nodetypes="cscccccccccsccc" />
  <path
     id="path1-6"
     style="fill:url(#linearGradient2);stroke:#f56314;stroke-width:0.75007;stroke-linecap:round;stroke-linejoin:round;stroke-dasharray:none;stroke-opacity:1"
     d="m 16.048402,13.768965 c 0,0 2.491925,0.366976 2.943405,0.372198 0.45148,0.0052 2.728823,0.175654 3.21211,-0.761487 0.122484,-0.237372 0.108242,-0.49848 0.111091,-0.761488 -1.476449,0.124383 -1.922711,0.565893 -3.513098,0 C 17.240008,12.053245 15.195763,10.253968 13.959532,9.9539316 13.144875,9.7554886 12.006817,9.7886418 11.438929,10.438005 10.87104,9.7883136 9.7329822,9.7551605 8.9183235,9.9536024 7.6820945,10.253639 5.6378484,12.052916 4.0759464,12.61786 c -1.5903873,0.565891 -2.0366491,0.124381 -3.51309749,0 0.00282,0.263007 -0.011398,0.524114 0.1110902,0.761487 0.48328669,0.937141 2.76062969,0.76671 3.21210999,0.761488 0.4514812,-0.0052 2.9434057,-0.372198 2.9434057,-0.372198 1.858142,-0.306686 3.4620242,-0.383636 4.6094742,-2.088745 1.147448,1.705439 2.751331,1.782389 4.609473,2.089073 z"
     sodipodi:nodetypes="cscccccccccsccc" />
</svg>
