{
	"asset":{
		"generator":"Khronos glTF Blender I/O v3.6.27",
		"version":"2.0"
	},
	"scene":0,
	"scenes":[
		{
			"name":"Scene",
			"nodes":[
				0
			]
		}
	],
	"nodes":[
		{
			"mesh":0,
			"name":"mustache2"
		}
	],
	"materials":[
		{
			"doubleSided":true,
			"name":"Hair Material",
			"pbrMetallicRoughness":{
				"baseColorFactor":[
					0.05043777823448181,
					0.029989147558808327,
					0.026103125885128975,
					1
				],
				"metallicFactor":0,
				"roughnessFactor":0.5
			}
		}
	],
	"meshes":[
		{
			"name":"BezierCurve.006",
			"primitives":[
				{
					"attributes":{
						"POSITION":0,
						"NORMAL":1,
						"TEXCOORD_0":2
					},
					"indices":3,
					"material":0
				}
			]
		}
	],
	"accessors":[
		{
			"bufferView":0,
			"componentType":5126,
			"count":1930,
			"max":[
				2.4441354274749756,
				0.7950178980827332,
				0.5584858655929565
			],
			"min":[
				-2.4427175521850586,
				-0.757929265499115,
				-0.6211156249046326
			],
			"type":"VEC3"
		},
		{
			"bufferView":1,
			"componentType":5126,
			"count":1930,
			"type":"VEC3"
		},
		{
			"bufferView":2,
			"componentType":5126,
			"count":1930,
			"type":"VEC2"
		},
		{
			"bufferView":3,
			"componentType":5123,
			"count":9102,
			"type":"SCALAR"
		}
	],
	"bufferViews":[
		{
			"buffer":0,
			"byteLength":23160,
			"byteOffset":0,
			"target":34962
		},
		{
			"buffer":0,
			"byteLength":23160,
			"byteOffset":23160,
			"target":34962
		},
		{
			"buffer":0,
			"byteLength":15440,
			"byteOffset":46320,
			"target":34962
		},
		{
			"buffer":0,
			"byteLength":18204,
			"byteOffset":61760,
			"target":34963
		}
	],
	"buffers":[
		{
			"byteLength":79964,
			"uri":"mustache2.bin"
		}
	]
}
