{
  "accessors": [
    {
      "bufferView": 2,
      "componentType": 5126,
      "count": 2704,
      "max": [
        145.76646423339844,
        146.8096160888672,
        147.15724182128906
      ],
      "min": [
        0.0,
        0.0,
        0.0
      ],
      "type": "VEC3"
    },
    {
      "bufferView": 2,
      "byteOffset": 32448,
      "componentType": 5126,
      "count": 2704,
      "max": [
        0.9997461438179016,
        0.993710458278656,
        0.9998777508735657
      ],
      "min": [
        -0.9999582171440125,
        -0.9998521208763123,
        -0.9999971389770508
      ],
      "type": "VEC3"
    },
    {
      "bufferView": 3,
      "componentType": 5126,
      "count": 2704,
      "max": [
        0.9986674189567566,
        0.9998694062232971,
        0.9966261982917786,
        1.0
      ],
      "min": [
        -0.999897837638855,
        -0.9998166561126709,
        -0.9992149472236633,
        -1.0
      ],
      "type": "VEC4"
    },
    {
      "bufferView": 1,
      "componentType": 5126,
      "count": 2704,
      "max": [
        0.987559974193573,
        0.9853500127792358
      ],
      "min": [
        0.01498000044375658,
        0.010689999908208847
      ],
      "type": "VEC2"
    },
    {
      "bufferView": 0,
      "componentType": 5125,
      "count": 13608,
      "type": "SCALAR"
    },
    {
      "bufferView": 2,
      "byteOffset": 64896,
      "componentType": 5126,
      "count": 542,
      "max": [
        102.7590103149414,
        54.17176818847656,
        120.08723449707031
      ],
      "min": [
        90.52517700195313,
        24.055946350097656,
        107.83837890625
      ],
      "type": "VEC3"
    },
    {
      "bufferView": 2,
      "byteOffset": 71400,
      "componentType": 5126,
      "count": 542,
      "max": [
        0.9936056137084961,
        0.8370034694671631,
        0.997576892375946
      ],
      "min": [
        -0.9955372214317322,
        -0.9602294564247131,
        -0.9996381402015686
      ],
      "type": "VEC3"
    },
    {
      "bufferView": 3,
      "byteOffset": 43264,
      "componentType": 5126,
      "count": 542,
      "max": [
        0.9331859350204468,
        0.9430398941040039,
        0.9976617693901062,
        1.0
      ],
      "min": [
        -0.9984663128852844,
        -0.9972442388534546,
        -0.9372758269309998,
        -1.0
      ],
      "type": "VEC4"
    },
    {
      "bufferView": 1,
      "byteOffset": 21632,
      "componentType": 5126,
      "count": 542,
      "max": [
        0.9503200054168701,
        0.9898499846458435
      ],
      "min": [
        0.7799100279808044,
        0.8083400130271912
      ],
      "type": "VEC2"
    },
    {
      "bufferView": 0,
      "byteOffset": 54432,
      "componentType": 5125,
      "count": 3036,
      "type": "SCALAR"
    },
    {
      "bufferView": 2,
      "byteOffset": 77904,
      "componentType": 5126,
      "count": 2921,
      "max": [
        98.62666320800781,
        82.59528350830078,
        145.91726684570313
      ],
      "min": [
        32.400516510009766,
        6.801734924316406,
        50.69447708129883
      ],
      "type": "VEC3"
    },
    {
      "bufferView": 2,
      "byteOffset": 112956,
      "componentType": 5126,
      "count": 2921,
      "max": [
        1.0,
        1.0,
        1.0
      ],
      "min": [
        -1.0,
        -1.0,
        -1.0
      ],
      "type": "VEC3"
    },
    {
      "bufferView": 3,
      "byteOffset": 51936,
      "componentType": 5126,
      "count": 2921,
      "max": [
        0.9994524717330933,
        0.9999670386314392,
        0.9997173547744751,
        1.0
      ],
      "min": [
        -0.9994363784790039,
        -0.9994391798973083,
        -0.9999997615814209,
        -1.0
      ],
      "type": "VEC4"
    },
    {
      "bufferView": 1,
      "byteOffset": 25968,
      "componentType": 5126,
      "count": 2921,
      "max": [
        0.997160017490387,
        0.9980400204658508
      ],
      "min": [
        0.049639999866485596,
        0.025877999141812325
      ],
      "type": "VEC2"
    },
    {
      "bufferView": 0,
      "byteOffset": 66576,
      "componentType": 5125,
      "count": 14832,
      "type": "SCALAR"
    },
    {
      "bufferView": 2,
      "byteOffset": 148008,
      "componentType": 5126,
      "count": 2482,
      "max": [
        77.5165786743164,
        52.576847076416016,
        145.36886596679688
      ],
      "min": [
        32.03389358520508,
        6.237579345703125,
        79.5792465209961
      ],
      "type": "VEC3"
    },
    {
      "bufferView": 2,
      "byteOffset": 177792,
      "componentType": 5126,
      "count": 2482,
      "max": [
        0.9994125366210938,
        0.9999427795410156,
        0.9999522566795349
      ],
      "min": [
        -0.9981157779693604,
        -0.9998050928115845,
        -0.999825656414032
      ],
      "type": "VEC3"
    },
    {
      "bufferView": 3,
      "byteOffset": 98672,
      "componentType": 5126,
      "count": 2482,
      "max": [
        0.9999148845672607,
        0.9995185732841492,
        0.9998989701271057,
        1.0
      ],
      "min": [
        -0.9997292160987854,
        -0.9985242486000061,
        -0.9997550249099731,
        -1.0
      ],
      "type": "VEC4"
    },
    {
      "bufferView": 1,
      "byteOffset": 49336,
      "componentType": 5126,
      "count": 2482,
      "max": [
        0.9871799945831299,
        0.9848600029945374
      ],
      "min": [
        0.0471000000834465,
        0.022679999470710754
      ],
      "type": "VEC2"
    },
    {
      "bufferView": 0,
      "byteOffset": 125904,
      "componentType": 5125,
      "count": 13146,
      "type": "SCALAR"
    },
    {
      "bufferView": 2,
      "byteOffset": 207576,
      "componentType": 5126,
      "count": 2523,
      "max": [
        94.84880828857422,
        75.50119018554688,
        121.50100708007813
      ],
      "min": [
        49.387943267822266,
        47.225563049316406,
        15.320463180541992
      ],
      "type": "VEC3"
    },
    {
      "bufferView": 2,
      "byteOffset": 237852,
      "componentType": 5126,
      "count": 2523,
      "max": [
        0.9985727667808533,
        0.9970275163650513,
        0.9999323487281799
      ],
      "min": [
        -0.999510645866394,
        -0.9981411099433899,
        -0.9999309778213501
      ],
      "type": "VEC3"
    },
    {
      "bufferView": 3,
      "byteOffset": 138384,
      "componentType": 5126,
      "count": 2523,
      "max": [
        0.9997003674507141,
        0.980483889579773,
        0.999862015247345,
        1.0
      ],
      "min": [
        -0.9998867511749268,
        -0.9982767701148987,
        -0.9994130730628967,
        -1.0
      ],
      "type": "VEC4"
    },
    {
      "bufferView": 1,
      "byteOffset": 69192,
      "componentType": 5126,
      "count": 2523,
      "max": [
        0.8385699987411499,
        0.9853299856185913
      ],
      "min": [
        0.02119000069797039,
        0.5948100090026855
      ],
      "type": "VEC2"
    },
    {
      "bufferView": 0,
      "byteOffset": 178488,
      "componentType": 5125,
      "count": 13626,
      "type": "SCALAR"
    },
    {
      "bufferView": 2,
      "byteOffset": 268128,
      "componentType": 5126,
      "count": 2456,
      "max": [
        98.539306640625,
        72.71996307373047,
        128.3218994140625
      ],
      "min": [
        56.65592956542969,
        21.73455047607422,
        21.825769424438477
      ],
      "type": "VEC3"
    },
    {
      "bufferView": 2,
      "byteOffset": 297600,
      "componentType": 5126,
      "count": 2456,
      "max": [
        0.9996573328971863,
        0.9996574521064758,
        1.0
      ],
      "min": [
        -0.9999879002571106,
        -0.9996573328971863,
        -1.0
      ],
      "type": "VEC3"
    },
    {
      "bufferView": 3,
      "byteOffset": 178752,
      "componentType": 5126,
      "count": 2456,
      "max": [
        0.9999309182167053,
        0.9993507862091064,
        0.9998432993888855,
        1.0
      ],
      "min": [
        -0.9999567866325378,
        -0.9993316531181335,
        -0.9995036125183105,
        1.0
      ],
      "type": "VEC4"
    },
    {
      "bufferView": 1,
      "byteOffset": 89376,
      "componentType": 5126,
      "count": 2456,
      "max": [
        0.9584299921989441,
        0.9574300050735474
      ],
      "min": [
        0.579479992389679,
        0.0019499999471008778
      ],
      "type": "VEC2"
    },
    {
      "bufferView": 0,
      "byteOffset": 232992,
      "componentType": 5125,
      "count": 13680,
      "type": "SCALAR"
    },
    {
      "bufferView": 2,
      "byteOffset": 327072,
      "componentType": 5126,
      "count": 1978,
      "max": [
        98.69225311279297,
        72.92938232421875,
        123.00408935546875
      ],
      "min": [
        40.88514709472656,
        34.14470672607422,
        33.52963638305664
      ],
      "type": "VEC3"
    },
    {
      "bufferView": 2,
      "byteOffset": 350808,
      "componentType": 5126,
      "count": 1978,
      "max": [
        0.9972450137138367,
        0.9999622106552124,
        0.9931133389472961
      ],
      "min": [
        -0.9998795390129089,
        -0.9994164705276489,
        -0.9983060956001282
      ],
      "type": "VEC3"
    },
    {
      "bufferView": 3,
      "byteOffset": 218048,
      "componentType": 5126,
      "count": 1978,
      "max": [
        0.9978758692741394,
        0.9992055296897888,
        0.9993836879730225,
        1.0
      ],
      "min": [
        -0.9975059032440186,
        -0.999915599822998,
        -0.9979305267333984,
        -1.0
      ],
      "type": "VEC4"
    },
    {
      "bufferView": 1,
      "byteOffset": 109024,
      "componentType": 5126,
      "count": 1978,
      "max": [
        0.6511600017547607,
        0.7698500156402588
      ],
      "min": [
        0.0019499999471008778,
        0.0023900000378489494
      ],
      "type": "VEC2"
    },
    {
      "bufferView": 0,
      "byteOffset": 287712,
      "componentType": 5125,
      "count": 10965,
      "type": "SCALAR"
    },
    {
      "bufferView": 2,
      "byteOffset": 374544,
      "componentType": 5126,
      "count": 2649,
      "max": [
        97.48889923095703,
        53.01637268066406,
        106.18118286132813
      ],
      "min": [
        37.17357635498047,
        23.893817901611328,
        74.59192657470703
      ],
      "type": "VEC3"
    },
    {
      "bufferView": 2,
      "byteOffset": 406332,
      "componentType": 5126,
      "count": 2649,
      "max": [
        0.9999046325683594,
        0.9953702092170715,
        0.9994057416915894
      ],
      "min": [
        -0.999032735824585,
        -0.9969128966331482,
        -0.9971912503242493
      ],
      "type": "VEC3"
    },
    {
      "bufferView": 3,
      "byteOffset": 249696,
      "componentType": 5126,
      "count": 2649,
      "max": [
        0.9999794960021973,
        0.99945068359375,
        0.9999290108680725,
        1.0
      ],
      "min": [
        -0.9999106526374817,
        -0.9998908042907715,
        -0.9999470114707947,
        -1.0
      ],
      "type": "VEC4"
    },
    {
      "bufferView": 1,
      "byteOffset": 124848,
      "componentType": 5126,
      "count": 2649,
      "max": [
        0.9858199954032898,
        0.8887199759483337
      ],
      "min": [
        0.8422799706459045,
        0.11789000034332275
      ],
      "type": "VEC2"
    },
    {
      "bufferView": 0,
      "byteOffset": 331572,
      "componentType": 5125,
      "count": 14016,
      "type": "SCALAR"
    },
    {
      "bufferView": 2,
      "byteOffset": 438120,
      "componentType": 5126,
      "count": 2907,
      "max": [
        81.88320922851563,
        58.66858673095703,
        133.93763732910156
      ],
      "min": [
        63.05215072631836,
        26.23543930053711,
        105.89601135253906
      ],
      "type": "VEC3"
    },
    {
      "bufferView": 2,
      "byteOffset": 473004,
      "componentType": 5126,
      "count": 2907,
      "max": [
        0.9989379048347473,
        0.99993497133255,
        0.9996256232261658
      ],
      "min": [
        -0.9994128942489624,
        -0.9998766183853149,
        -0.9995173811912537
      ],
      "type": "VEC3"
    },
    {
      "bufferView": 3,
      "byteOffset": 292080,
      "componentType": 5126,
      "count": 2907,
      "max": [
        0.9974970817565918,
        0.979340672492981,
        0.9998304843902588,
        1.0
      ],
      "min": [
        -0.9970779418945313,
        -0.9997789859771729,
        -0.9975816607475281,
        1.0
      ],
      "type": "VEC4"
    },
    {
      "bufferView": 1,
      "byteOffset": 146040,
      "componentType": 5126,
      "count": 2907,
      "max": [
        0.5788499712944031,
        0.8046900033950806
      ],
      "min": [
        0.3841499984264374,
        0.4056299924850464
      ],
      "type": "VEC2"
    },
    {
      "bufferView": 0,
      "byteOffset": 387636,
      "componentType": 5125,
      "count": 16416,
      "type": "SCALAR"
    }
  ],
  "asset": {
    "extras": {
      "author": "Hadrien59 (https://sketchfab.com/Hadrien59)",
      "license": "CC-BY-4.0 (http://creativecommons.org/licenses/by/4.0/)",
      "source": "https://sketchfab.com/3d-models/ernest-grabstein-the-undertaker-72205ff7e36b4db0a249f89012322468",
      "title": "Ernest GRABSTEIN, the Undertaker"
    },
    "generator": "Sketchfab-12.65.0",
    "version": "2.0"
  },
  "bufferViews": [
    {
      "buffer": 0,
      "byteLength": 453300,
      "name": "floatBufferViews",
      "target": 34963
    },
    {
      "buffer": 0,
      "byteLength": 169296,
      "byteOffset": 453300,
      "byteStride": 8,
      "name": "floatBufferViews",
      "target": 34962
    },
    {
      "buffer": 0,
      "byteLength": 507888,
      "byteOffset": 622596,
      "byteStride": 12,
      "name": "floatBufferViews",
      "target": 34962
    },
    {
      "buffer": 0,
      "byteLength": 338592,
      "byteOffset": 1130484,
      "byteStride": 16,
      "name": "floatBufferViews",
      "target": 34962
    }
  ],
  "buffers": [
    {
      "byteLength": 1469076,
      "uri": "scene.bin"
    }
  ],
  "images": [
    {
      "uri": "textures/Decor_blinnSG_baseColor.png"
    },
    {
      "uri": "textures/Decor_blinnSG_metallicRoughness.png"
    },
    {
      "uri": "textures/Decor_blinnSG_normal.png"
    },
    {
      "uri": "textures/initialShadingGroup_baseColor.png"
    },
    {
      "uri": "textures/initialShadingGroup_metallicRoughness.png"
    },
    {
      "uri": "textures/initialShadingGroup_emissive.png"
    },
    {
      "uri": "textures/initialShadingGroup_normal.png"
    }
  ],
  "materials": [
    {
      "doubleSided": true,
      "name": "Decor_blinnSG",
      "normalTexture": {
        "index": 2
      },
      "pbrMetallicRoughness": {
        "baseColorTexture": {
          "index": 0
        },
        "metallicFactor": 0.0,
        "metallicRoughnessTexture": {
          "index": 1
        }
      }
    },
    {
      "alphaMode": "BLEND",
      "doubleSided": true,
      "emissiveFactor": [
        1.0,
        1.0,
        1.0
      ],
      "emissiveTexture": {
        "index": 5
      },
      "name": "initialShadingGroup",
      "normalTexture": {
        "index": 6
      },
      "pbrMetallicRoughness": {
        "baseColorTexture": {
          "index": 3
        },
        "metallicRoughnessTexture": {
          "index": 4
        }
      }
    }
  ],
  "meshes": [
    {
      "name": "Object_0",
      "primitives": [
        {
          "attributes": {
            "NORMAL": 1,
            "POSITION": 0,
            "TANGENT": 2,
            "TEXCOORD_0": 3
          },
          "indices": 4,
          "material": 0,
          "mode": 4
        }
      ]
    },
    {
      "name": "Object_1",
      "primitives": [
        {
          "attributes": {
            "NORMAL": 6,
            "POSITION": 5,
            "TANGENT": 7,
            "TEXCOORD_0": 8
          },
          "indices": 9,
          "material": 0,
          "mode": 4
        }
      ]
    },
    {
      "name": "Object_2",
      "primitives": [
        {
          "attributes": {
            "NORMAL": 11,
            "POSITION": 10,
            "TANGENT": 12,
            "TEXCOORD_0": 13
          },
          "indices": 14,
          "material": 1,
          "mode": 4
        }
      ]
    },
    {
      "name": "Object_3",
      "primitives": [
        {
          "attributes": {
            "NORMAL": 16,
            "POSITION": 15,
            "TANGENT": 17,
            "TEXCOORD_0": 18
          },
          "indices": 19,
          "material": 1,
          "mode": 4
        }
      ]
    },
    {
      "name": "Object_4",
      "primitives": [
        {
          "attributes": {
            "NORMAL": 21,
            "POSITION": 20,
            "TANGENT": 22,
            "TEXCOORD_0": 23
          },
          "indices": 24,
          "material": 1,
          "mode": 4
        }
      ]
    },
    {
      "name": "Object_5",
      "primitives": [
        {
          "attributes": {
            "NORMAL": 26,
            "POSITION": 25,
            "TANGENT": 27,
            "TEXCOORD_0": 28
          },
          "indices": 29,
          "material": 1,
          "mode": 4
        }
      ]
    },
    {
      "name": "Object_6",
      "primitives": [
        {
          "attributes": {
            "NORMAL": 31,
            "POSITION": 30,
            "TANGENT": 32,
            "TEXCOORD_0": 33
          },
          "indices": 34,
          "material": 1,
          "mode": 4
        }
      ]
    },
    {
      "name": "Object_7",
      "primitives": [
        {
          "attributes": {
            "NORMAL": 36,
            "POSITION": 35,
            "TANGENT": 37,
            "TEXCOORD_0": 38
          },
          "indices": 39,
          "material": 1,
          "mode": 4
        }
      ]
    },
    {
      "name": "Object_8",
      "primitives": [
        {
          "attributes": {
            "NORMAL": 41,
            "POSITION": 40,
            "TANGENT": 42,
            "TEXCOORD_0": 43
          },
          "indices": 44,
          "material": 1,
          "mode": 4
        }
      ]
    }
  ],
  "nodes": [
    {
      "children": [
        1
      ],
      "matrix": [
        1.0,
        0.0,
        0.0,
        0.0,
        0.0,
        2.220446049250313e-16,
        -1.0,
        0.0,
        0.0,
        1.0,
        2.220446049250313e-16,
        0.0,
        0.0,
        0.0,
        0.0,
        1.0
      ],
      "name": "Sketchfab_model"
    },
    {
      "children": [
        2
      ],
      "matrix": [
        1.0,
        0.0,
        0.0,
        0.0,
        0.0,
        1.0,
        0.0,
        0.0,
        0.0,
        0.0,
        1.0,
        0.0,
        -72.9932861328125,
        -67.29705810546875,
        -2.4856650829315186,
        1.0
      ],
      "name": "NEWTOTPANO.obj.cleaner.gles"
    },
    {
      "children": [
        3,
        4,
        5,
        6,
        7,
        8,
        9,
        10,
        11
      ],
      "name": "Object_2"
    },
    {
      "mesh": 0,
      "name": "Object_3"
    },
    {
      "mesh": 1,
      "name": "Object_4"
    },
    {
      "mesh": 2,
      "name": "Object_5"
    },
    {
      "mesh": 3,
      "name": "Object_6"
    },
    {
      "mesh": 4,
      "name": "Object_7"
    },
    {
      "mesh": 5,
      "name": "Object_8"
    },
    {
      "mesh": 6,
      "name": "Object_9"
    },
    {
      "mesh": 7,
      "name": "Object_10"
    },
    {
      "mesh": 8,
      "name": "Object_11"
    }
  ],
  "samplers": [
    {
      "magFilter": 9729,
      "minFilter": 9987,
      "wrapS": 10497,
      "wrapT": 10497
    }
  ],
  "scene": 0,
  "scenes": [
    {
      "name": "Sketchfab_Scene",
      "nodes": [
        0
      ]
    }
  ],
  "textures": [
    {
      "sampler": 0,
      "source": 0
    },
    {
      "sampler": 0,
      "source": 1
    },
    {
      "sampler": 0,
      "source": 2
    },
    {
      "sampler": 0,
      "source": 3
    },
    {
      "sampler": 0,
      "source": 4
    },
    {
      "sampler": 0,
      "source": 5
    },
    {
      "sampler": 0,
      "source": 6
    }
  ]
}
