{
	"asset":{
		"generator":"Khronos glTF Blender I/O v3.6.27",
		"version":"2.0"
	},
	"scene":0,
	"scenes":[
		{
			"name":"Scene",
			"nodes":[
				0
			]
		}
	],
	"nodes":[
		{
			"mesh":0,
			"name":"wingedMustache"
		}
	],
	"materials":[
		{
			"alphaMode":"BLEND",
			"doubleSided":true,
			"emissiveFactor":[
				1,
				1,
				1
			],
			"name":"initialShadingGroup",
			"pbrMetallicRoughness":{}
		}
	],
	"meshes":[
		{
			"name":"Object_5",
			"primitives":[
				{
					"attributes":{
						"POSITION":0,
						"NORMAL":1,
						"TEXCOORD_0":2
					},
					"indices":3,
					"material":0
				}
			]
		}
	],
	"accessors":[
		{
			"bufferView":0,
			"componentType":5126,
			"count":721,
			"max":[
				1.2801216840744019,
				0.984307050704956,
				0.521364688873291
			],
			"min":[
				-1.1391916275024414,
				-0.2698870301246643,
				-0.3301421105861664
			],
			"type":"VEC3"
		},
		{
			"bufferView":1,
			"componentType":5126,
			"count":721,
			"type":"VEC3"
		},
		{
			"bufferView":2,
			"componentType":5126,
			"count":721,
			"type":"VEC2"
		},
		{
			"bufferView":3,
			"componentType":5123,
			"count":3984,
			"type":"SCALAR"
		}
	],
	"bufferViews":[
		{
			"buffer":0,
			"byteLength":8652,
			"byteOffset":0,
			"target":34962
		},
		{
			"buffer":0,
			"byteLength":8652,
			"byteOffset":8652,
			"target":34962
		},
		{
			"buffer":0,
			"byteLength":5768,
			"byteOffset":17304,
			"target":34962
		},
		{
			"buffer":0,
			"byteLength":7968,
			"byteOffset":23072,
			"target":34963
		}
	],
	"buffers":[
		{
			"byteLength":31040,
			"uri":"wingedMustache.bin"
		}
	]
}
